%TF.GenerationSoftware,KiCad,Pcbnew,8.0.5-8.0.5-0~ubuntu20.04.1*%
%TF.CreationDate,2025-02-19T15:36:45-06:00*%
%TF.ProjectId,Alex_Teensy4_PCB,416c6578-5f54-4656-956e-7379345f5043,rev?*%
%TF.SameCoordinates,Original*%
%TF.FileFunction,Soldermask,Top*%
%TF.FilePolarity,Negative*%
%FSLAX46Y46*%
G04 Gerber Fmt 4.6, Leading zero omitted, Abs format (unit mm)*
G04 Created by KiCad (PCBNEW 8.0.5-8.0.5-0~ubuntu20.04.1) date 2025-02-19 15:36:45*
%MOMM*%
%LPD*%
G01*
G04 APERTURE LIST*
%ADD10C,1.404000*%
%ADD11C,3.301600*%
%ADD12O,0.800000X1.300000*%
%ADD13C,1.700000*%
%ADD14O,1.950000X1.700000*%
%ADD15O,1.300000X0.800000*%
%ADD16C,2.000000*%
%ADD17C,1.879600*%
G04 APERTURE END LIST*
%TO.C,U2*%
G36*
G01*
X181660900Y-73861200D02*
X181239100Y-73861200D01*
G75*
G02*
X181168800Y-73790900I0J70300D01*
G01*
X181168800Y-72209100D01*
G75*
G02*
X181239100Y-72138800I70300J0D01*
G01*
X181660900Y-72138800D01*
G75*
G02*
X181731200Y-72209100I0J-70300D01*
G01*
X181731200Y-73790900D01*
G75*
G02*
X181660900Y-73861200I-70300J0D01*
G01*
G37*
G36*
G01*
X182310900Y-73861200D02*
X181889100Y-73861200D01*
G75*
G02*
X181818800Y-73790900I0J70300D01*
G01*
X181818800Y-72209100D01*
G75*
G02*
X181889100Y-72138800I70300J0D01*
G01*
X182310900Y-72138800D01*
G75*
G02*
X182381200Y-72209100I0J-70300D01*
G01*
X182381200Y-73790900D01*
G75*
G02*
X182310900Y-73861200I-70300J0D01*
G01*
G37*
G36*
G01*
X182960900Y-73861200D02*
X182539100Y-73861200D01*
G75*
G02*
X182468800Y-73790900I0J70300D01*
G01*
X182468800Y-72209100D01*
G75*
G02*
X182539100Y-72138800I70300J0D01*
G01*
X182960900Y-72138800D01*
G75*
G02*
X183031200Y-72209100I0J-70300D01*
G01*
X183031200Y-73790900D01*
G75*
G02*
X182960900Y-73861200I-70300J0D01*
G01*
G37*
G36*
G01*
X183610900Y-73861200D02*
X183189100Y-73861200D01*
G75*
G02*
X183118800Y-73790900I0J70300D01*
G01*
X183118800Y-72209100D01*
G75*
G02*
X183189100Y-72138800I70300J0D01*
G01*
X183610900Y-72138800D01*
G75*
G02*
X183681200Y-72209100I0J-70300D01*
G01*
X183681200Y-73790900D01*
G75*
G02*
X183610900Y-73861200I-70300J0D01*
G01*
G37*
G36*
G01*
X184260900Y-73861200D02*
X183839100Y-73861200D01*
G75*
G02*
X183768800Y-73790900I0J70300D01*
G01*
X183768800Y-72209100D01*
G75*
G02*
X183839100Y-72138800I70300J0D01*
G01*
X184260900Y-72138800D01*
G75*
G02*
X184331200Y-72209100I0J-70300D01*
G01*
X184331200Y-73790900D01*
G75*
G02*
X184260900Y-73861200I-70300J0D01*
G01*
G37*
G36*
G01*
X184910900Y-73861200D02*
X184489100Y-73861200D01*
G75*
G02*
X184418800Y-73790900I0J70300D01*
G01*
X184418800Y-72209100D01*
G75*
G02*
X184489100Y-72138800I70300J0D01*
G01*
X184910900Y-72138800D01*
G75*
G02*
X184981200Y-72209100I0J-70300D01*
G01*
X184981200Y-73790900D01*
G75*
G02*
X184910900Y-73861200I-70300J0D01*
G01*
G37*
G36*
G01*
X185560900Y-73861200D02*
X185139100Y-73861200D01*
G75*
G02*
X185068800Y-73790900I0J70300D01*
G01*
X185068800Y-72209100D01*
G75*
G02*
X185139100Y-72138800I70300J0D01*
G01*
X185560900Y-72138800D01*
G75*
G02*
X185631200Y-72209100I0J-70300D01*
G01*
X185631200Y-73790900D01*
G75*
G02*
X185560900Y-73861200I-70300J0D01*
G01*
G37*
G36*
G01*
X186210900Y-73861200D02*
X185789100Y-73861200D01*
G75*
G02*
X185718800Y-73790900I0J70300D01*
G01*
X185718800Y-72209100D01*
G75*
G02*
X185789100Y-72138800I70300J0D01*
G01*
X186210900Y-72138800D01*
G75*
G02*
X186281200Y-72209100I0J-70300D01*
G01*
X186281200Y-73790900D01*
G75*
G02*
X186210900Y-73861200I-70300J0D01*
G01*
G37*
G36*
G01*
X186860900Y-73861200D02*
X186439100Y-73861200D01*
G75*
G02*
X186368800Y-73790900I0J70300D01*
G01*
X186368800Y-72209100D01*
G75*
G02*
X186439100Y-72138800I70300J0D01*
G01*
X186860900Y-72138800D01*
G75*
G02*
X186931200Y-72209100I0J-70300D01*
G01*
X186931200Y-73790900D01*
G75*
G02*
X186860900Y-73861200I-70300J0D01*
G01*
G37*
G36*
G01*
X187510900Y-73861200D02*
X187089100Y-73861200D01*
G75*
G02*
X187018800Y-73790900I0J70300D01*
G01*
X187018800Y-72209100D01*
G75*
G02*
X187089100Y-72138800I70300J0D01*
G01*
X187510900Y-72138800D01*
G75*
G02*
X187581200Y-72209100I0J-70300D01*
G01*
X187581200Y-73790900D01*
G75*
G02*
X187510900Y-73861200I-70300J0D01*
G01*
G37*
G36*
G01*
X187510900Y-68121200D02*
X187089100Y-68121200D01*
G75*
G02*
X187018800Y-68050900I0J70300D01*
G01*
X187018800Y-66469100D01*
G75*
G02*
X187089100Y-66398800I70300J0D01*
G01*
X187510900Y-66398800D01*
G75*
G02*
X187581200Y-66469100I0J-70300D01*
G01*
X187581200Y-68050900D01*
G75*
G02*
X187510900Y-68121200I-70300J0D01*
G01*
G37*
G36*
G01*
X186860900Y-68121200D02*
X186439100Y-68121200D01*
G75*
G02*
X186368800Y-68050900I0J70300D01*
G01*
X186368800Y-66469100D01*
G75*
G02*
X186439100Y-66398800I70300J0D01*
G01*
X186860900Y-66398800D01*
G75*
G02*
X186931200Y-66469100I0J-70300D01*
G01*
X186931200Y-68050900D01*
G75*
G02*
X186860900Y-68121200I-70300J0D01*
G01*
G37*
G36*
G01*
X186210900Y-68121200D02*
X185789100Y-68121200D01*
G75*
G02*
X185718800Y-68050900I0J70300D01*
G01*
X185718800Y-66469100D01*
G75*
G02*
X185789100Y-66398800I70300J0D01*
G01*
X186210900Y-66398800D01*
G75*
G02*
X186281200Y-66469100I0J-70300D01*
G01*
X186281200Y-68050900D01*
G75*
G02*
X186210900Y-68121200I-70300J0D01*
G01*
G37*
G36*
G01*
X185560900Y-68121200D02*
X185139100Y-68121200D01*
G75*
G02*
X185068800Y-68050900I0J70300D01*
G01*
X185068800Y-66469100D01*
G75*
G02*
X185139100Y-66398800I70300J0D01*
G01*
X185560900Y-66398800D01*
G75*
G02*
X185631200Y-66469100I0J-70300D01*
G01*
X185631200Y-68050900D01*
G75*
G02*
X185560900Y-68121200I-70300J0D01*
G01*
G37*
G36*
G01*
X184910900Y-68121200D02*
X184489100Y-68121200D01*
G75*
G02*
X184418800Y-68050900I0J70300D01*
G01*
X184418800Y-66469100D01*
G75*
G02*
X184489100Y-66398800I70300J0D01*
G01*
X184910900Y-66398800D01*
G75*
G02*
X184981200Y-66469100I0J-70300D01*
G01*
X184981200Y-68050900D01*
G75*
G02*
X184910900Y-68121200I-70300J0D01*
G01*
G37*
G36*
G01*
X184260900Y-68121200D02*
X183839100Y-68121200D01*
G75*
G02*
X183768800Y-68050900I0J70300D01*
G01*
X183768800Y-66469100D01*
G75*
G02*
X183839100Y-66398800I70300J0D01*
G01*
X184260900Y-66398800D01*
G75*
G02*
X184331200Y-66469100I0J-70300D01*
G01*
X184331200Y-68050900D01*
G75*
G02*
X184260900Y-68121200I-70300J0D01*
G01*
G37*
G36*
G01*
X183610900Y-68121200D02*
X183189100Y-68121200D01*
G75*
G02*
X183118800Y-68050900I0J70300D01*
G01*
X183118800Y-66469100D01*
G75*
G02*
X183189100Y-66398800I70300J0D01*
G01*
X183610900Y-66398800D01*
G75*
G02*
X183681200Y-66469100I0J-70300D01*
G01*
X183681200Y-68050900D01*
G75*
G02*
X183610900Y-68121200I-70300J0D01*
G01*
G37*
G36*
G01*
X182960900Y-68121200D02*
X182539100Y-68121200D01*
G75*
G02*
X182468800Y-68050900I0J70300D01*
G01*
X182468800Y-66469100D01*
G75*
G02*
X182539100Y-66398800I70300J0D01*
G01*
X182960900Y-66398800D01*
G75*
G02*
X183031200Y-66469100I0J-70300D01*
G01*
X183031200Y-68050900D01*
G75*
G02*
X182960900Y-68121200I-70300J0D01*
G01*
G37*
G36*
G01*
X182310900Y-68121200D02*
X181889100Y-68121200D01*
G75*
G02*
X181818800Y-68050900I0J70300D01*
G01*
X181818800Y-66469100D01*
G75*
G02*
X181889100Y-66398800I70300J0D01*
G01*
X182310900Y-66398800D01*
G75*
G02*
X182381200Y-66469100I0J-70300D01*
G01*
X182381200Y-68050900D01*
G75*
G02*
X182310900Y-68121200I-70300J0D01*
G01*
G37*
G36*
G01*
X181660900Y-68121200D02*
X181239100Y-68121200D01*
G75*
G02*
X181168800Y-68050900I0J70300D01*
G01*
X181168800Y-66469100D01*
G75*
G02*
X181239100Y-66398800I70300J0D01*
G01*
X181660900Y-66398800D01*
G75*
G02*
X181731200Y-66469100I0J-70300D01*
G01*
X181731200Y-68050900D01*
G75*
G02*
X181660900Y-68121200I-70300J0D01*
G01*
G37*
%TD*%
%TO.C,D1*%
G36*
G01*
X142640000Y-52444999D02*
X142960000Y-52444999D01*
G75*
G02*
X143120000Y-52604999I0J-160000D01*
G01*
X143120000Y-53049999D01*
G75*
G02*
X142960000Y-53209999I-160000J0D01*
G01*
X142640000Y-53209999D01*
G75*
G02*
X142480000Y-53049999I0J160000D01*
G01*
X142480000Y-52604999D01*
G75*
G02*
X142640000Y-52444999I160000J0D01*
G01*
G37*
G36*
G01*
X142640000Y-53590001D02*
X142960000Y-53590001D01*
G75*
G02*
X143120000Y-53750001I0J-160000D01*
G01*
X143120000Y-54195001D01*
G75*
G02*
X142960000Y-54355001I-160000J0D01*
G01*
X142640000Y-54355001D01*
G75*
G02*
X142480000Y-54195001I0J160000D01*
G01*
X142480000Y-53750001D01*
G75*
G02*
X142640000Y-53590001I160000J0D01*
G01*
G37*
%TD*%
D10*
%TO.C,U1*%
X141261600Y-78620000D03*
X143801600Y-78620000D03*
X146341600Y-78620000D03*
X148881600Y-78620000D03*
X151421600Y-78620000D03*
X153961600Y-78620000D03*
X156501600Y-78620000D03*
X159041600Y-78620000D03*
X161581600Y-78620000D03*
X164121600Y-78620000D03*
X166661600Y-78620000D03*
X169201600Y-78620000D03*
X171741600Y-78620000D03*
X174281600Y-78620000D03*
X174281601Y-76080000D03*
X174281600Y-73540000D03*
X174281600Y-71000000D03*
X174281600Y-68460000D03*
X174281601Y-65920000D03*
X174281600Y-63380000D03*
X171741600Y-63380000D03*
X169201600Y-63380000D03*
X166661600Y-63380000D03*
X164121600Y-63380000D03*
X161581600Y-63380000D03*
X159041600Y-63380000D03*
X156501600Y-63380000D03*
X153961600Y-63380000D03*
X151421600Y-63380000D03*
X148881600Y-63380000D03*
X146341600Y-63380000D03*
X143801600Y-63380000D03*
X141261600Y-63380000D03*
G36*
X169432802Y-65310369D02*
G01*
X169531176Y-65362000D01*
X171233600Y-65362000D01*
X171268955Y-65376645D01*
X171283600Y-65412000D01*
X171283600Y-66428000D01*
X171268955Y-66463355D01*
X171233600Y-66478000D01*
X169531176Y-66478000D01*
X169432802Y-66529631D01*
X169280190Y-66567246D01*
X169123010Y-66567246D01*
X168970398Y-66529631D01*
X168872024Y-66478000D01*
X168693600Y-66478000D01*
X168658245Y-66463355D01*
X168643600Y-66428000D01*
X168643600Y-66250985D01*
X168624283Y-66223000D01*
X168568546Y-66076034D01*
X168549600Y-65920000D01*
X168568546Y-65763966D01*
X168624283Y-65617000D01*
X168643600Y-65589015D01*
X168643600Y-65412000D01*
X168658245Y-65376645D01*
X168693600Y-65362000D01*
X168872024Y-65362000D01*
X168970398Y-65310369D01*
X169123010Y-65272754D01*
X169280190Y-65272754D01*
X169432802Y-65310369D01*
G37*
G36*
X166892802Y-65310369D02*
G01*
X166991176Y-65362000D01*
X167169600Y-65362000D01*
X167204955Y-65376645D01*
X167219600Y-65412000D01*
X167219600Y-65589015D01*
X167238917Y-65617000D01*
X167294654Y-65763966D01*
X167313600Y-65920000D01*
X167294654Y-66076034D01*
X167238917Y-66223000D01*
X167219600Y-66250985D01*
X167219600Y-66428000D01*
X167204955Y-66463355D01*
X167169600Y-66478000D01*
X166991176Y-66478000D01*
X166892802Y-66529631D01*
X166740190Y-66567246D01*
X166583010Y-66567246D01*
X166430398Y-66529631D01*
X166332024Y-66478000D01*
X164629600Y-66478000D01*
X164594245Y-66463355D01*
X164579600Y-66428000D01*
X164579600Y-65412000D01*
X164594245Y-65376645D01*
X164629600Y-65362000D01*
X166332024Y-65362000D01*
X166430398Y-65310369D01*
X166583010Y-65272754D01*
X166740190Y-65272754D01*
X166892802Y-65310369D01*
G37*
G36*
X169432802Y-67850369D02*
G01*
X169531176Y-67902000D01*
X171233600Y-67902000D01*
X171268955Y-67916645D01*
X171283600Y-67952000D01*
X171283601Y-68968000D01*
X171268956Y-69003355D01*
X171233601Y-69018000D01*
X169531176Y-69018000D01*
X169432802Y-69069631D01*
X169280190Y-69107246D01*
X169123010Y-69107246D01*
X168970398Y-69069631D01*
X168872024Y-69018000D01*
X168693599Y-69018000D01*
X168658244Y-69003355D01*
X168643599Y-68968000D01*
X168643600Y-68790985D01*
X168624283Y-68763000D01*
X168568546Y-68616034D01*
X168549600Y-68460000D01*
X168568546Y-68303966D01*
X168624283Y-68157000D01*
X168643600Y-68129015D01*
X168643600Y-67952000D01*
X168658245Y-67916645D01*
X168693600Y-67902000D01*
X168872024Y-67902000D01*
X168970398Y-67850369D01*
X169123010Y-67812754D01*
X169280190Y-67812754D01*
X169432802Y-67850369D01*
G37*
G36*
X166892802Y-67850369D02*
G01*
X166991176Y-67902000D01*
X167169600Y-67902000D01*
X167204955Y-67916645D01*
X167219600Y-67952000D01*
X167219600Y-68129015D01*
X167238917Y-68157000D01*
X167294654Y-68303966D01*
X167313600Y-68460000D01*
X167294654Y-68616034D01*
X167238917Y-68763000D01*
X167219600Y-68790985D01*
X167219600Y-68968000D01*
X167204955Y-69003355D01*
X167169600Y-69018000D01*
X166991176Y-69018000D01*
X166892802Y-69069631D01*
X166740190Y-69107246D01*
X166583010Y-69107246D01*
X166430398Y-69069631D01*
X166332024Y-69018000D01*
X164629599Y-69018000D01*
X164594244Y-69003355D01*
X164579599Y-68968000D01*
X164579600Y-67952000D01*
X164594245Y-67916645D01*
X164629600Y-67902000D01*
X166332024Y-67902000D01*
X166430398Y-67850369D01*
X166583010Y-67812754D01*
X166740190Y-67812754D01*
X166892802Y-67850369D01*
G37*
G36*
X169432803Y-70390369D02*
G01*
X169531177Y-70442000D01*
X171233600Y-70442000D01*
X171268955Y-70456645D01*
X171283600Y-70492000D01*
X171283600Y-71508000D01*
X171268955Y-71543355D01*
X171233600Y-71558000D01*
X169531177Y-71558000D01*
X169432803Y-71609631D01*
X169280191Y-71647246D01*
X169123011Y-71647246D01*
X168970399Y-71609631D01*
X168872025Y-71558000D01*
X168693600Y-71558000D01*
X168658245Y-71543355D01*
X168643600Y-71508000D01*
X168643600Y-71330984D01*
X168624284Y-71303000D01*
X168568547Y-71156034D01*
X168549601Y-71000000D01*
X168568547Y-70843966D01*
X168624284Y-70697000D01*
X168643600Y-70669016D01*
X168643600Y-70492000D01*
X168658245Y-70456645D01*
X168693600Y-70442000D01*
X168872025Y-70442000D01*
X168970399Y-70390369D01*
X169123011Y-70352754D01*
X169280191Y-70352754D01*
X169432803Y-70390369D01*
G37*
G36*
X166892801Y-70390369D02*
G01*
X166991175Y-70442000D01*
X167169600Y-70442000D01*
X167204955Y-70456645D01*
X167219600Y-70492000D01*
X167219600Y-70669016D01*
X167238916Y-70697000D01*
X167294653Y-70843966D01*
X167313599Y-71000000D01*
X167294653Y-71156034D01*
X167238916Y-71303000D01*
X167219600Y-71330984D01*
X167219600Y-71508000D01*
X167204955Y-71543355D01*
X167169600Y-71558000D01*
X166991175Y-71558000D01*
X166892801Y-71609631D01*
X166740189Y-71647246D01*
X166583009Y-71647246D01*
X166430397Y-71609631D01*
X166332023Y-71558000D01*
X164629600Y-71558000D01*
X164594245Y-71543355D01*
X164579600Y-71508000D01*
X164579600Y-70492000D01*
X164594245Y-70456645D01*
X164629600Y-70442000D01*
X166332023Y-70442000D01*
X166430397Y-70390369D01*
X166583009Y-70352754D01*
X166740189Y-70352754D01*
X166892801Y-70390369D01*
G37*
G36*
X169432802Y-72930369D02*
G01*
X169531176Y-72982000D01*
X171233601Y-72982000D01*
X171268956Y-72996645D01*
X171283601Y-73032000D01*
X171283600Y-74048000D01*
X171268955Y-74083355D01*
X171233600Y-74098000D01*
X169531176Y-74098000D01*
X169432802Y-74149631D01*
X169280190Y-74187246D01*
X169123010Y-74187246D01*
X168970398Y-74149631D01*
X168872024Y-74098000D01*
X168693600Y-74098000D01*
X168658245Y-74083355D01*
X168643600Y-74048000D01*
X168643600Y-73870985D01*
X168624283Y-73843000D01*
X168568546Y-73696034D01*
X168549600Y-73540000D01*
X168568546Y-73383966D01*
X168624283Y-73237000D01*
X168643600Y-73209015D01*
X168643599Y-73032000D01*
X168658244Y-72996645D01*
X168693599Y-72982000D01*
X168872024Y-72982000D01*
X168970398Y-72930369D01*
X169123010Y-72892754D01*
X169280190Y-72892754D01*
X169432802Y-72930369D01*
G37*
G36*
X166892802Y-72930369D02*
G01*
X166991176Y-72982000D01*
X167169600Y-72982000D01*
X167204955Y-72996645D01*
X167219600Y-73032000D01*
X167219600Y-73209015D01*
X167238917Y-73237000D01*
X167294654Y-73383966D01*
X167313600Y-73540000D01*
X167294654Y-73696034D01*
X167238917Y-73843000D01*
X167219600Y-73870985D01*
X167219600Y-74048000D01*
X167204955Y-74083355D01*
X167169600Y-74098000D01*
X166991176Y-74098000D01*
X166892802Y-74149631D01*
X166740190Y-74187246D01*
X166583010Y-74187246D01*
X166430398Y-74149631D01*
X166332024Y-74098000D01*
X164629600Y-74098000D01*
X164594245Y-74083355D01*
X164579600Y-74048000D01*
X164579599Y-73032000D01*
X164594244Y-72996645D01*
X164629599Y-72982000D01*
X166332024Y-72982000D01*
X166430398Y-72930369D01*
X166583010Y-72892754D01*
X166740190Y-72892754D01*
X166892802Y-72930369D01*
G37*
G36*
X169432802Y-75470369D02*
G01*
X169531176Y-75522000D01*
X171233600Y-75522000D01*
X171268955Y-75536645D01*
X171283600Y-75572000D01*
X171283600Y-76588000D01*
X171268955Y-76623355D01*
X171233600Y-76638000D01*
X169531176Y-76638000D01*
X169432802Y-76689631D01*
X169280190Y-76727246D01*
X169123010Y-76727246D01*
X168970398Y-76689631D01*
X168872024Y-76638000D01*
X168693600Y-76638000D01*
X168658245Y-76623355D01*
X168643600Y-76588000D01*
X168643600Y-76410985D01*
X168624283Y-76383000D01*
X168568546Y-76236034D01*
X168549600Y-76080000D01*
X168568546Y-75923966D01*
X168624283Y-75777000D01*
X168643600Y-75749015D01*
X168643600Y-75572000D01*
X168658245Y-75536645D01*
X168693600Y-75522000D01*
X168872024Y-75522000D01*
X168970398Y-75470369D01*
X169123010Y-75432754D01*
X169280190Y-75432754D01*
X169432802Y-75470369D01*
G37*
G36*
X166892802Y-75470369D02*
G01*
X166991176Y-75522000D01*
X167169600Y-75522000D01*
X167204955Y-75536645D01*
X167219600Y-75572000D01*
X167219600Y-75749015D01*
X167238917Y-75777000D01*
X167294654Y-75923966D01*
X167313600Y-76080000D01*
X167294654Y-76236034D01*
X167238917Y-76383000D01*
X167219600Y-76410985D01*
X167219600Y-76588000D01*
X167204955Y-76623355D01*
X167169600Y-76638000D01*
X166991176Y-76638000D01*
X166892802Y-76689631D01*
X166740190Y-76727246D01*
X166583010Y-76727246D01*
X166430398Y-76689631D01*
X166332024Y-76638000D01*
X164629600Y-76638000D01*
X164594245Y-76623355D01*
X164579600Y-76588000D01*
X164579600Y-75572000D01*
X164594245Y-75536645D01*
X164629600Y-75522000D01*
X166332024Y-75522000D01*
X166430398Y-75470369D01*
X166583010Y-75432754D01*
X166740190Y-75432754D01*
X166892802Y-75470369D01*
G37*
%TD*%
%TO.C,C9*%
G36*
G01*
X193575000Y-62475000D02*
X193575000Y-61525000D01*
G75*
G02*
X193825000Y-61275000I250000J0D01*
G01*
X194500000Y-61275000D01*
G75*
G02*
X194750000Y-61525000I0J-250000D01*
G01*
X194750000Y-62475000D01*
G75*
G02*
X194500000Y-62725000I-250000J0D01*
G01*
X193825000Y-62725000D01*
G75*
G02*
X193575000Y-62475000I0J250000D01*
G01*
G37*
G36*
G01*
X195650000Y-62475000D02*
X195650000Y-61525000D01*
G75*
G02*
X195900000Y-61275000I250000J0D01*
G01*
X196575000Y-61275000D01*
G75*
G02*
X196825000Y-61525000I0J-250000D01*
G01*
X196825000Y-62475000D01*
G75*
G02*
X196575000Y-62725000I-250000J0D01*
G01*
X195900000Y-62725000D01*
G75*
G02*
X195650000Y-62475000I0J250000D01*
G01*
G37*
%TD*%
D11*
%TO.C,*%
X178750000Y-77000000D03*
%TD*%
%TO.C,C8*%
G36*
G01*
X188550000Y-67050000D02*
X188550000Y-65950000D01*
G75*
G02*
X188800000Y-65700000I250000J0D01*
G01*
X191300000Y-65700000D01*
G75*
G02*
X191550000Y-65950000I0J-250000D01*
G01*
X191550000Y-67050000D01*
G75*
G02*
X191300000Y-67300000I-250000J0D01*
G01*
X188800000Y-67300000D01*
G75*
G02*
X188550000Y-67050000I0J250000D01*
G01*
G37*
G36*
G01*
X192950000Y-67050000D02*
X192950000Y-65950000D01*
G75*
G02*
X193200000Y-65700000I250000J0D01*
G01*
X195700000Y-65700000D01*
G75*
G02*
X195950000Y-65950000I0J-250000D01*
G01*
X195950000Y-67050000D01*
G75*
G02*
X195700000Y-67300000I-250000J0D01*
G01*
X193200000Y-67300000D01*
G75*
G02*
X192950000Y-67050000I0J250000D01*
G01*
G37*
%TD*%
D12*
%TO.C,J2*%
X161149999Y-57400000D03*
X159900000Y-57400000D03*
G36*
G01*
X159049999Y-56950000D02*
X159049999Y-57850000D01*
G75*
G02*
X158849999Y-58050000I-200000J0D01*
G01*
X158449999Y-58050000D01*
G75*
G02*
X158249999Y-57850000I0J200000D01*
G01*
X158249999Y-56950000D01*
G75*
G02*
X158449999Y-56750000I200000J0D01*
G01*
X158849999Y-56750000D01*
G75*
G02*
X159049999Y-56950000I0J-200000D01*
G01*
G37*
X157400000Y-57400000D03*
%TD*%
%TO.C,C5*%
G36*
G01*
X181775000Y-74787500D02*
X182725000Y-74787500D01*
G75*
G02*
X182975000Y-75037500I0J-250000D01*
G01*
X182975000Y-75712500D01*
G75*
G02*
X182725000Y-75962500I-250000J0D01*
G01*
X181775000Y-75962500D01*
G75*
G02*
X181525000Y-75712500I0J250000D01*
G01*
X181525000Y-75037500D01*
G75*
G02*
X181775000Y-74787500I250000J0D01*
G01*
G37*
G36*
G01*
X181775000Y-76862500D02*
X182725000Y-76862500D01*
G75*
G02*
X182975000Y-77112500I0J-250000D01*
G01*
X182975000Y-77787500D01*
G75*
G02*
X182725000Y-78037500I-250000J0D01*
G01*
X181775000Y-78037500D01*
G75*
G02*
X181525000Y-77787500I0J250000D01*
G01*
X181525000Y-77112500D01*
G75*
G02*
X181775000Y-76862500I250000J0D01*
G01*
G37*
%TD*%
%TO.C,R3*%
G36*
G01*
X189075000Y-62450000D02*
X189075000Y-61550000D01*
G75*
G02*
X189325000Y-61300000I250000J0D01*
G01*
X189850000Y-61300000D01*
G75*
G02*
X190100000Y-61550000I0J-250000D01*
G01*
X190100000Y-62450000D01*
G75*
G02*
X189850000Y-62700000I-250000J0D01*
G01*
X189325000Y-62700000D01*
G75*
G02*
X189075000Y-62450000I0J250000D01*
G01*
G37*
G36*
G01*
X190900000Y-62450000D02*
X190900000Y-61550000D01*
G75*
G02*
X191150000Y-61300000I250000J0D01*
G01*
X191675000Y-61300000D01*
G75*
G02*
X191925000Y-61550000I0J-250000D01*
G01*
X191925000Y-62450000D01*
G75*
G02*
X191675000Y-62700000I-250000J0D01*
G01*
X191150000Y-62700000D01*
G75*
G02*
X190900000Y-62450000I0J250000D01*
G01*
G37*
%TD*%
%TO.C,U5*%
G36*
G01*
X191800000Y-55799999D02*
X191800000Y-56099999D01*
G75*
G02*
X191650000Y-56249999I-150000J0D01*
G01*
X190625000Y-56249999D01*
G75*
G02*
X190475000Y-56099999I0J150000D01*
G01*
X190475000Y-55799999D01*
G75*
G02*
X190625000Y-55649999I150000J0D01*
G01*
X191650000Y-55649999D01*
G75*
G02*
X191800000Y-55799999I0J-150000D01*
G01*
G37*
G36*
G01*
X191800000Y-54850000D02*
X191800000Y-55150000D01*
G75*
G02*
X191650000Y-55300000I-150000J0D01*
G01*
X190625000Y-55300000D01*
G75*
G02*
X190475000Y-55150000I0J150000D01*
G01*
X190475000Y-54850000D01*
G75*
G02*
X190625000Y-54700000I150000J0D01*
G01*
X191650000Y-54700000D01*
G75*
G02*
X191800000Y-54850000I0J-150000D01*
G01*
G37*
G36*
G01*
X191800000Y-53900001D02*
X191800000Y-54200001D01*
G75*
G02*
X191650000Y-54350001I-150000J0D01*
G01*
X190625000Y-54350001D01*
G75*
G02*
X190475000Y-54200001I0J150000D01*
G01*
X190475000Y-53900001D01*
G75*
G02*
X190625000Y-53750001I150000J0D01*
G01*
X191650000Y-53750001D01*
G75*
G02*
X191800000Y-53900001I0J-150000D01*
G01*
G37*
G36*
G01*
X189525000Y-53900001D02*
X189525000Y-54200001D01*
G75*
G02*
X189375000Y-54350001I-150000J0D01*
G01*
X188350000Y-54350001D01*
G75*
G02*
X188200000Y-54200001I0J150000D01*
G01*
X188200000Y-53900001D01*
G75*
G02*
X188350000Y-53750001I150000J0D01*
G01*
X189375000Y-53750001D01*
G75*
G02*
X189525000Y-53900001I0J-150000D01*
G01*
G37*
G36*
G01*
X189525000Y-55799999D02*
X189525000Y-56099999D01*
G75*
G02*
X189375000Y-56249999I-150000J0D01*
G01*
X188350000Y-56249999D01*
G75*
G02*
X188200000Y-56099999I0J150000D01*
G01*
X188200000Y-55799999D01*
G75*
G02*
X188350000Y-55649999I150000J0D01*
G01*
X189375000Y-55649999D01*
G75*
G02*
X189525000Y-55799999I0J-150000D01*
G01*
G37*
%TD*%
D13*
%TO.C,SW1*%
X204030000Y-77790000D03*
X204030000Y-72710000D03*
X198950000Y-77790000D03*
X198950000Y-72710000D03*
%TD*%
%TO.C,R7*%
G36*
G01*
X143550000Y-58575000D02*
X144450000Y-58575000D01*
G75*
G02*
X144700000Y-58825000I0J-250000D01*
G01*
X144700000Y-59350000D01*
G75*
G02*
X144450000Y-59600000I-250000J0D01*
G01*
X143550000Y-59600000D01*
G75*
G02*
X143300000Y-59350000I0J250000D01*
G01*
X143300000Y-58825000D01*
G75*
G02*
X143550000Y-58575000I250000J0D01*
G01*
G37*
G36*
G01*
X143550000Y-60400000D02*
X144450000Y-60400000D01*
G75*
G02*
X144700000Y-60650000I0J-250000D01*
G01*
X144700000Y-61175000D01*
G75*
G02*
X144450000Y-61425000I-250000J0D01*
G01*
X143550000Y-61425000D01*
G75*
G02*
X143300000Y-61175000I0J250000D01*
G01*
X143300000Y-60650000D01*
G75*
G02*
X143550000Y-60400000I250000J0D01*
G01*
G37*
%TD*%
%TO.C,J3*%
G36*
G01*
X200992500Y-60650000D02*
X202442500Y-60650000D01*
G75*
G02*
X202692500Y-60900000I0J-250000D01*
G01*
X202692500Y-62100000D01*
G75*
G02*
X202442500Y-62350000I-250000J0D01*
G01*
X200992500Y-62350000D01*
G75*
G02*
X200742500Y-62100000I0J250000D01*
G01*
X200742500Y-60900000D01*
G75*
G02*
X200992500Y-60650000I250000J0D01*
G01*
G37*
D14*
X201717500Y-64000000D03*
X201717500Y-66500000D03*
%TD*%
%TO.C,C2*%
G36*
G01*
X200225000Y-54187500D02*
X201175000Y-54187500D01*
G75*
G02*
X201425000Y-54437500I0J-250000D01*
G01*
X201425000Y-55112500D01*
G75*
G02*
X201175000Y-55362500I-250000J0D01*
G01*
X200225000Y-55362500D01*
G75*
G02*
X199975000Y-55112500I0J250000D01*
G01*
X199975000Y-54437500D01*
G75*
G02*
X200225000Y-54187500I250000J0D01*
G01*
G37*
G36*
G01*
X200225000Y-56262500D02*
X201175000Y-56262500D01*
G75*
G02*
X201425000Y-56512500I0J-250000D01*
G01*
X201425000Y-57187500D01*
G75*
G02*
X201175000Y-57437500I-250000J0D01*
G01*
X200225000Y-57437500D01*
G75*
G02*
X199975000Y-57187500I0J250000D01*
G01*
X199975000Y-56512500D01*
G75*
G02*
X200225000Y-56262500I250000J0D01*
G01*
G37*
%TD*%
%TO.C,C3*%
G36*
G01*
X182475000Y-60087500D02*
X181525000Y-60087500D01*
G75*
G02*
X181275000Y-59837500I0J250000D01*
G01*
X181275000Y-59162500D01*
G75*
G02*
X181525000Y-58912500I250000J0D01*
G01*
X182475000Y-58912500D01*
G75*
G02*
X182725000Y-59162500I0J-250000D01*
G01*
X182725000Y-59837500D01*
G75*
G02*
X182475000Y-60087500I-250000J0D01*
G01*
G37*
G36*
G01*
X182475000Y-58012500D02*
X181525000Y-58012500D01*
G75*
G02*
X181275000Y-57762500I0J250000D01*
G01*
X181275000Y-57087500D01*
G75*
G02*
X181525000Y-56837500I250000J0D01*
G01*
X182475000Y-56837500D01*
G75*
G02*
X182725000Y-57087500I0J-250000D01*
G01*
X182725000Y-57762500D01*
G75*
G02*
X182475000Y-58012500I-250000J0D01*
G01*
G37*
%TD*%
%TO.C,D2*%
G36*
G01*
X141640000Y-52444999D02*
X141960000Y-52444999D01*
G75*
G02*
X142120000Y-52604999I0J-160000D01*
G01*
X142120000Y-53049999D01*
G75*
G02*
X141960000Y-53209999I-160000J0D01*
G01*
X141640000Y-53209999D01*
G75*
G02*
X141480000Y-53049999I0J160000D01*
G01*
X141480000Y-52604999D01*
G75*
G02*
X141640000Y-52444999I160000J0D01*
G01*
G37*
G36*
G01*
X141640000Y-53590001D02*
X141960000Y-53590001D01*
G75*
G02*
X142120000Y-53750001I0J-160000D01*
G01*
X142120000Y-54195001D01*
G75*
G02*
X141960000Y-54355001I-160000J0D01*
G01*
X141640000Y-54355001D01*
G75*
G02*
X141480000Y-54195001I0J160000D01*
G01*
X141480000Y-53750001D01*
G75*
G02*
X141640000Y-53590001I160000J0D01*
G01*
G37*
%TD*%
%TO.C,J5*%
G36*
G01*
X153300000Y-56950000D02*
X153300000Y-57850000D01*
G75*
G02*
X153100000Y-58050000I-200000J0D01*
G01*
X152700000Y-58050000D01*
G75*
G02*
X152500000Y-57850000I0J200000D01*
G01*
X152500000Y-56950000D01*
G75*
G02*
X152700000Y-56750000I200000J0D01*
G01*
X153100000Y-56750000D01*
G75*
G02*
X153300000Y-56950000I0J-200000D01*
G01*
G37*
D12*
X151650000Y-57400000D03*
%TD*%
%TO.C,J1*%
X169149999Y-57400000D03*
X167900000Y-57400000D03*
G36*
G01*
X167049999Y-56950000D02*
X167049999Y-57850000D01*
G75*
G02*
X166849999Y-58050000I-200000J0D01*
G01*
X166449999Y-58050000D01*
G75*
G02*
X166249999Y-57850000I0J200000D01*
G01*
X166249999Y-56950000D01*
G75*
G02*
X166449999Y-56750000I200000J0D01*
G01*
X166849999Y-56750000D01*
G75*
G02*
X167049999Y-56950000I0J-200000D01*
G01*
G37*
X165400000Y-57400000D03*
%TD*%
%TO.C,R4*%
G36*
G01*
X184175000Y-55850000D02*
X184175000Y-54950000D01*
G75*
G02*
X184425000Y-54700000I250000J0D01*
G01*
X184950000Y-54700000D01*
G75*
G02*
X185200000Y-54950000I0J-250000D01*
G01*
X185200000Y-55850000D01*
G75*
G02*
X184950000Y-56100000I-250000J0D01*
G01*
X184425000Y-56100000D01*
G75*
G02*
X184175000Y-55850000I0J250000D01*
G01*
G37*
G36*
G01*
X186000000Y-55850000D02*
X186000000Y-54950000D01*
G75*
G02*
X186250000Y-54700000I250000J0D01*
G01*
X186775000Y-54700000D01*
G75*
G02*
X187025000Y-54950000I0J-250000D01*
G01*
X187025000Y-55850000D01*
G75*
G02*
X186775000Y-56100000I-250000J0D01*
G01*
X186250000Y-56100000D01*
G75*
G02*
X186000000Y-55850000I0J250000D01*
G01*
G37*
%TD*%
%TO.C,C4*%
G36*
G01*
X181775000Y-62375000D02*
X182725000Y-62375000D01*
G75*
G02*
X182975000Y-62625000I0J-250000D01*
G01*
X182975000Y-63300000D01*
G75*
G02*
X182725000Y-63550000I-250000J0D01*
G01*
X181775000Y-63550000D01*
G75*
G02*
X181525000Y-63300000I0J250000D01*
G01*
X181525000Y-62625000D01*
G75*
G02*
X181775000Y-62375000I250000J0D01*
G01*
G37*
G36*
G01*
X181775000Y-64450000D02*
X182725000Y-64450000D01*
G75*
G02*
X182975000Y-64700000I0J-250000D01*
G01*
X182975000Y-65375000D01*
G75*
G02*
X182725000Y-65625000I-250000J0D01*
G01*
X181775000Y-65625000D01*
G75*
G02*
X181525000Y-65375000I0J250000D01*
G01*
X181525000Y-64700000D01*
G75*
G02*
X181775000Y-64450000I250000J0D01*
G01*
G37*
%TD*%
%TO.C,R5*%
G36*
G01*
X147550000Y-58575000D02*
X148450000Y-58575000D01*
G75*
G02*
X148700000Y-58825000I0J-250000D01*
G01*
X148700000Y-59350000D01*
G75*
G02*
X148450000Y-59600000I-250000J0D01*
G01*
X147550000Y-59600000D01*
G75*
G02*
X147300000Y-59350000I0J250000D01*
G01*
X147300000Y-58825000D01*
G75*
G02*
X147550000Y-58575000I250000J0D01*
G01*
G37*
G36*
G01*
X147550000Y-60400000D02*
X148450000Y-60400000D01*
G75*
G02*
X148700000Y-60650000I0J-250000D01*
G01*
X148700000Y-61175000D01*
G75*
G02*
X148450000Y-61425000I-250000J0D01*
G01*
X147550000Y-61425000D01*
G75*
G02*
X147300000Y-61175000I0J250000D01*
G01*
X147300000Y-60650000D01*
G75*
G02*
X147550000Y-60400000I250000J0D01*
G01*
G37*
%TD*%
D11*
%TO.C,*%
X174000000Y-56000000D03*
%TD*%
%TO.C,U3*%
G36*
G01*
X185575000Y-62925000D02*
X185425000Y-62925000D01*
G75*
G02*
X185350000Y-62850000I0J75000D01*
G01*
X185350000Y-61550000D01*
G75*
G02*
X185425000Y-61475000I75000J0D01*
G01*
X185575000Y-61475000D01*
G75*
G02*
X185650000Y-61550000I0J-75000D01*
G01*
X185650000Y-62850000D01*
G75*
G02*
X185575000Y-62925000I-75000J0D01*
G01*
G37*
G36*
G01*
X186075001Y-62925000D02*
X185925001Y-62925000D01*
G75*
G02*
X185850001Y-62850000I0J75000D01*
G01*
X185850001Y-61550000D01*
G75*
G02*
X185925001Y-61475000I75000J0D01*
G01*
X186075001Y-61475000D01*
G75*
G02*
X186150001Y-61550000I0J-75000D01*
G01*
X186150001Y-62850000D01*
G75*
G02*
X186075001Y-62925000I-75000J0D01*
G01*
G37*
G36*
G01*
X186575000Y-62925000D02*
X186425000Y-62925000D01*
G75*
G02*
X186350000Y-62850000I0J75000D01*
G01*
X186350000Y-61550000D01*
G75*
G02*
X186425000Y-61475000I75000J0D01*
G01*
X186575000Y-61475000D01*
G75*
G02*
X186650000Y-61550000I0J-75000D01*
G01*
X186650000Y-62850000D01*
G75*
G02*
X186575000Y-62925000I-75000J0D01*
G01*
G37*
G36*
G01*
X187074999Y-62925000D02*
X186924999Y-62925000D01*
G75*
G02*
X186849999Y-62850000I0J75000D01*
G01*
X186849999Y-61550000D01*
G75*
G02*
X186924999Y-61475000I75000J0D01*
G01*
X187074999Y-61475000D01*
G75*
G02*
X187149999Y-61550000I0J-75000D01*
G01*
X187149999Y-62850000D01*
G75*
G02*
X187074999Y-62925000I-75000J0D01*
G01*
G37*
G36*
G01*
X187575000Y-62925000D02*
X187425000Y-62925000D01*
G75*
G02*
X187350000Y-62850000I0J75000D01*
G01*
X187350000Y-61550000D01*
G75*
G02*
X187425000Y-61475000I75000J0D01*
G01*
X187575000Y-61475000D01*
G75*
G02*
X187650000Y-61550000I0J-75000D01*
G01*
X187650000Y-62850000D01*
G75*
G02*
X187575000Y-62925000I-75000J0D01*
G01*
G37*
G36*
G01*
X187575000Y-58525000D02*
X187425000Y-58525000D01*
G75*
G02*
X187350000Y-58450000I0J75000D01*
G01*
X187350000Y-57150000D01*
G75*
G02*
X187425000Y-57075000I75000J0D01*
G01*
X187575000Y-57075000D01*
G75*
G02*
X187650000Y-57150000I0J-75000D01*
G01*
X187650000Y-58450000D01*
G75*
G02*
X187575000Y-58525000I-75000J0D01*
G01*
G37*
G36*
G01*
X187074999Y-58525000D02*
X186924999Y-58525000D01*
G75*
G02*
X186849999Y-58450000I0J75000D01*
G01*
X186849999Y-57150000D01*
G75*
G02*
X186924999Y-57075000I75000J0D01*
G01*
X187074999Y-57075000D01*
G75*
G02*
X187149999Y-57150000I0J-75000D01*
G01*
X187149999Y-58450000D01*
G75*
G02*
X187074999Y-58525000I-75000J0D01*
G01*
G37*
G36*
G01*
X186575000Y-58525000D02*
X186425000Y-58525000D01*
G75*
G02*
X186350000Y-58450000I0J75000D01*
G01*
X186350000Y-57150000D01*
G75*
G02*
X186425000Y-57075000I75000J0D01*
G01*
X186575000Y-57075000D01*
G75*
G02*
X186650000Y-57150000I0J-75000D01*
G01*
X186650000Y-58450000D01*
G75*
G02*
X186575000Y-58525000I-75000J0D01*
G01*
G37*
G36*
G01*
X186075001Y-58525000D02*
X185925001Y-58525000D01*
G75*
G02*
X185850001Y-58450000I0J75000D01*
G01*
X185850001Y-57150000D01*
G75*
G02*
X185925001Y-57075000I75000J0D01*
G01*
X186075001Y-57075000D01*
G75*
G02*
X186150001Y-57150000I0J-75000D01*
G01*
X186150001Y-58450000D01*
G75*
G02*
X186075001Y-58525000I-75000J0D01*
G01*
G37*
G36*
G01*
X185575000Y-58525000D02*
X185425000Y-58525000D01*
G75*
G02*
X185350000Y-58450000I0J75000D01*
G01*
X185350000Y-57150000D01*
G75*
G02*
X185425000Y-57075000I75000J0D01*
G01*
X185575000Y-57075000D01*
G75*
G02*
X185650000Y-57150000I0J-75000D01*
G01*
X185650000Y-58450000D01*
G75*
G02*
X185575000Y-58525000I-75000J0D01*
G01*
G37*
%TD*%
%TO.C,C7*%
G36*
G01*
X141975000Y-61625000D02*
X141025000Y-61625000D01*
G75*
G02*
X140775000Y-61375000I0J250000D01*
G01*
X140775000Y-60700000D01*
G75*
G02*
X141025000Y-60450000I250000J0D01*
G01*
X141975000Y-60450000D01*
G75*
G02*
X142225000Y-60700000I0J-250000D01*
G01*
X142225000Y-61375000D01*
G75*
G02*
X141975000Y-61625000I-250000J0D01*
G01*
G37*
G36*
G01*
X141975000Y-59550000D02*
X141025000Y-59550000D01*
G75*
G02*
X140775000Y-59300000I0J250000D01*
G01*
X140775000Y-58625000D01*
G75*
G02*
X141025000Y-58375000I250000J0D01*
G01*
X141975000Y-58375000D01*
G75*
G02*
X142225000Y-58625000I0J-250000D01*
G01*
X142225000Y-59300000D01*
G75*
G02*
X141975000Y-59550000I-250000J0D01*
G01*
G37*
%TD*%
%TO.C,*%
X146000000Y-56000000D03*
%TD*%
%TO.C,R6*%
G36*
G01*
X145550000Y-58575000D02*
X146450000Y-58575000D01*
G75*
G02*
X146700000Y-58825000I0J-250000D01*
G01*
X146700000Y-59350000D01*
G75*
G02*
X146450000Y-59600000I-250000J0D01*
G01*
X145550000Y-59600000D01*
G75*
G02*
X145300000Y-59350000I0J250000D01*
G01*
X145300000Y-58825000D01*
G75*
G02*
X145550000Y-58575000I250000J0D01*
G01*
G37*
G36*
G01*
X145550000Y-60400000D02*
X146450000Y-60400000D01*
G75*
G02*
X146700000Y-60650000I0J-250000D01*
G01*
X146700000Y-61175000D01*
G75*
G02*
X146450000Y-61425000I-250000J0D01*
G01*
X145550000Y-61425000D01*
G75*
G02*
X145300000Y-61175000I0J250000D01*
G01*
X145300000Y-60650000D01*
G75*
G02*
X145550000Y-60400000I250000J0D01*
G01*
G37*
%TD*%
D15*
%TO.C,J4*%
X203900000Y-56500000D03*
G36*
G01*
X204350000Y-55650001D02*
X203450000Y-55650001D01*
G75*
G02*
X203250000Y-55450001I0J200000D01*
G01*
X203250000Y-55050001D01*
G75*
G02*
X203450000Y-54850001I200000J0D01*
G01*
X204350000Y-54850001D01*
G75*
G02*
X204550000Y-55050001I0J-200000D01*
G01*
X204550000Y-55450001D01*
G75*
G02*
X204350000Y-55650001I-200000J0D01*
G01*
G37*
X203900000Y-54000000D03*
%TD*%
D16*
%TO.C,SW4*%
X189500000Y-75500000D03*
X196500000Y-75500000D03*
X190500000Y-78000000D03*
X195500000Y-78000000D03*
%TD*%
%TO.C,D3*%
G36*
G01*
X140640000Y-52444999D02*
X140960000Y-52444999D01*
G75*
G02*
X141120000Y-52604999I0J-160000D01*
G01*
X141120000Y-53049999D01*
G75*
G02*
X140960000Y-53209999I-160000J0D01*
G01*
X140640000Y-53209999D01*
G75*
G02*
X140480000Y-53049999I0J160000D01*
G01*
X140480000Y-52604999D01*
G75*
G02*
X140640000Y-52444999I160000J0D01*
G01*
G37*
G36*
G01*
X140640000Y-53590001D02*
X140960000Y-53590001D01*
G75*
G02*
X141120000Y-53750001I0J-160000D01*
G01*
X141120000Y-54195001D01*
G75*
G02*
X140960000Y-54355001I-160000J0D01*
G01*
X140640000Y-54355001D01*
G75*
G02*
X140480000Y-54195001I0J160000D01*
G01*
X140480000Y-53750001D01*
G75*
G02*
X140640000Y-53590001I160000J0D01*
G01*
G37*
%TD*%
%TO.C,R1*%
G36*
G01*
X187450001Y-77837500D02*
X186550001Y-77837500D01*
G75*
G02*
X186300001Y-77587500I0J250000D01*
G01*
X186300001Y-77062500D01*
G75*
G02*
X186550001Y-76812500I250000J0D01*
G01*
X187450001Y-76812500D01*
G75*
G02*
X187700001Y-77062500I0J-250000D01*
G01*
X187700001Y-77587500D01*
G75*
G02*
X187450001Y-77837500I-250000J0D01*
G01*
G37*
G36*
G01*
X187450001Y-76012500D02*
X186550001Y-76012500D01*
G75*
G02*
X186300001Y-75762500I0J250000D01*
G01*
X186300001Y-75237500D01*
G75*
G02*
X186550001Y-74987500I250000J0D01*
G01*
X187450001Y-74987500D01*
G75*
G02*
X187700001Y-75237500I0J-250000D01*
G01*
X187700001Y-75762500D01*
G75*
G02*
X187450001Y-76012500I-250000J0D01*
G01*
G37*
%TD*%
%TO.C,R2*%
G36*
G01*
X189075000Y-60450000D02*
X189075000Y-59550000D01*
G75*
G02*
X189325000Y-59300000I250000J0D01*
G01*
X189850000Y-59300000D01*
G75*
G02*
X190100000Y-59550000I0J-250000D01*
G01*
X190100000Y-60450000D01*
G75*
G02*
X189850000Y-60700000I-250000J0D01*
G01*
X189325000Y-60700000D01*
G75*
G02*
X189075000Y-60450000I0J250000D01*
G01*
G37*
G36*
G01*
X190900000Y-60450000D02*
X190900000Y-59550000D01*
G75*
G02*
X191150000Y-59300000I250000J0D01*
G01*
X191675000Y-59300000D01*
G75*
G02*
X191925000Y-59550000I0J-250000D01*
G01*
X191925000Y-60450000D01*
G75*
G02*
X191675000Y-60700000I-250000J0D01*
G01*
X191150000Y-60700000D01*
G75*
G02*
X190900000Y-60450000I0J250000D01*
G01*
G37*
%TD*%
D11*
%TO.C,U4*%
X194220000Y-71620000D03*
X194220000Y-56380000D03*
D17*
X178980000Y-56380000D03*
X178980000Y-58920000D03*
X178980000Y-61460000D03*
X178980000Y-64000000D03*
X178980000Y-66540000D03*
G36*
G01*
X178040200Y-69755514D02*
X178040200Y-68404486D01*
G75*
G02*
X178304486Y-68140200I264286J0D01*
G01*
X179655514Y-68140200D01*
G75*
G02*
X179919800Y-68404486I0J-264286D01*
G01*
X179919800Y-69755514D01*
G75*
G02*
X179655514Y-70019800I-264286J0D01*
G01*
X178304486Y-70019800D01*
G75*
G02*
X178040200Y-69755514I0J264286D01*
G01*
G37*
X178980000Y-71620000D03*
%TD*%
M02*
