%TF.GenerationSoftware,KiCad,Pcbnew,8.0.5-8.0.5-0~ubuntu20.04.1*%
%TF.CreationDate,2025-02-19T15:36:45-06:00*%
%TF.ProjectId,Alex_Teensy4_PCB,416c6578-5f54-4656-956e-7379345f5043,rev?*%
%TF.SameCoordinates,Original*%
%TF.FileFunction,Paste,Top*%
%TF.FilePolarity,Positive*%
%FSLAX46Y46*%
G04 Gerber Fmt 4.6, Leading zero omitted, Abs format (unit mm)*
G04 Created by KiCad (PCBNEW 8.0.5-8.0.5-0~ubuntu20.04.1) date 2025-02-19 15:36:45*
%MOMM*%
%LPD*%
G01*
G04 APERTURE LIST*
G04 APERTURE END LIST*
%TO.C,U2*%
G36*
G01*
X181603750Y-73785000D02*
X181296250Y-73785000D01*
G75*
G02*
X181245000Y-73733750I0J51250D01*
G01*
X181245000Y-72266250D01*
G75*
G02*
X181296250Y-72215000I51250J0D01*
G01*
X181603750Y-72215000D01*
G75*
G02*
X181655000Y-72266250I0J-51250D01*
G01*
X181655000Y-73733750D01*
G75*
G02*
X181603750Y-73785000I-51250J0D01*
G01*
G37*
G36*
G01*
X182253750Y-73785000D02*
X181946250Y-73785000D01*
G75*
G02*
X181895000Y-73733750I0J51250D01*
G01*
X181895000Y-72266250D01*
G75*
G02*
X181946250Y-72215000I51250J0D01*
G01*
X182253750Y-72215000D01*
G75*
G02*
X182305000Y-72266250I0J-51250D01*
G01*
X182305000Y-73733750D01*
G75*
G02*
X182253750Y-73785000I-51250J0D01*
G01*
G37*
G36*
G01*
X182903750Y-73785000D02*
X182596250Y-73785000D01*
G75*
G02*
X182545000Y-73733750I0J51250D01*
G01*
X182545000Y-72266250D01*
G75*
G02*
X182596250Y-72215000I51250J0D01*
G01*
X182903750Y-72215000D01*
G75*
G02*
X182955000Y-72266250I0J-51250D01*
G01*
X182955000Y-73733750D01*
G75*
G02*
X182903750Y-73785000I-51250J0D01*
G01*
G37*
G36*
G01*
X183553750Y-73785000D02*
X183246250Y-73785000D01*
G75*
G02*
X183195000Y-73733750I0J51250D01*
G01*
X183195000Y-72266250D01*
G75*
G02*
X183246250Y-72215000I51250J0D01*
G01*
X183553750Y-72215000D01*
G75*
G02*
X183605000Y-72266250I0J-51250D01*
G01*
X183605000Y-73733750D01*
G75*
G02*
X183553750Y-73785000I-51250J0D01*
G01*
G37*
G36*
G01*
X184203750Y-73785000D02*
X183896250Y-73785000D01*
G75*
G02*
X183845000Y-73733750I0J51250D01*
G01*
X183845000Y-72266250D01*
G75*
G02*
X183896250Y-72215000I51250J0D01*
G01*
X184203750Y-72215000D01*
G75*
G02*
X184255000Y-72266250I0J-51250D01*
G01*
X184255000Y-73733750D01*
G75*
G02*
X184203750Y-73785000I-51250J0D01*
G01*
G37*
G36*
G01*
X184853750Y-73785000D02*
X184546250Y-73785000D01*
G75*
G02*
X184495000Y-73733750I0J51250D01*
G01*
X184495000Y-72266250D01*
G75*
G02*
X184546250Y-72215000I51250J0D01*
G01*
X184853750Y-72215000D01*
G75*
G02*
X184905000Y-72266250I0J-51250D01*
G01*
X184905000Y-73733750D01*
G75*
G02*
X184853750Y-73785000I-51250J0D01*
G01*
G37*
G36*
G01*
X185503750Y-73785000D02*
X185196250Y-73785000D01*
G75*
G02*
X185145000Y-73733750I0J51250D01*
G01*
X185145000Y-72266250D01*
G75*
G02*
X185196250Y-72215000I51250J0D01*
G01*
X185503750Y-72215000D01*
G75*
G02*
X185555000Y-72266250I0J-51250D01*
G01*
X185555000Y-73733750D01*
G75*
G02*
X185503750Y-73785000I-51250J0D01*
G01*
G37*
G36*
G01*
X186153750Y-73785000D02*
X185846250Y-73785000D01*
G75*
G02*
X185795000Y-73733750I0J51250D01*
G01*
X185795000Y-72266250D01*
G75*
G02*
X185846250Y-72215000I51250J0D01*
G01*
X186153750Y-72215000D01*
G75*
G02*
X186205000Y-72266250I0J-51250D01*
G01*
X186205000Y-73733750D01*
G75*
G02*
X186153750Y-73785000I-51250J0D01*
G01*
G37*
G36*
G01*
X186803750Y-73785000D02*
X186496250Y-73785000D01*
G75*
G02*
X186445000Y-73733750I0J51250D01*
G01*
X186445000Y-72266250D01*
G75*
G02*
X186496250Y-72215000I51250J0D01*
G01*
X186803750Y-72215000D01*
G75*
G02*
X186855000Y-72266250I0J-51250D01*
G01*
X186855000Y-73733750D01*
G75*
G02*
X186803750Y-73785000I-51250J0D01*
G01*
G37*
G36*
G01*
X187453750Y-73785000D02*
X187146250Y-73785000D01*
G75*
G02*
X187095000Y-73733750I0J51250D01*
G01*
X187095000Y-72266250D01*
G75*
G02*
X187146250Y-72215000I51250J0D01*
G01*
X187453750Y-72215000D01*
G75*
G02*
X187505000Y-72266250I0J-51250D01*
G01*
X187505000Y-73733750D01*
G75*
G02*
X187453750Y-73785000I-51250J0D01*
G01*
G37*
G36*
G01*
X187453750Y-68045000D02*
X187146250Y-68045000D01*
G75*
G02*
X187095000Y-67993750I0J51250D01*
G01*
X187095000Y-66526250D01*
G75*
G02*
X187146250Y-66475000I51250J0D01*
G01*
X187453750Y-66475000D01*
G75*
G02*
X187505000Y-66526250I0J-51250D01*
G01*
X187505000Y-67993750D01*
G75*
G02*
X187453750Y-68045000I-51250J0D01*
G01*
G37*
G36*
G01*
X186803750Y-68045000D02*
X186496250Y-68045000D01*
G75*
G02*
X186445000Y-67993750I0J51250D01*
G01*
X186445000Y-66526250D01*
G75*
G02*
X186496250Y-66475000I51250J0D01*
G01*
X186803750Y-66475000D01*
G75*
G02*
X186855000Y-66526250I0J-51250D01*
G01*
X186855000Y-67993750D01*
G75*
G02*
X186803750Y-68045000I-51250J0D01*
G01*
G37*
G36*
G01*
X186153750Y-68045000D02*
X185846250Y-68045000D01*
G75*
G02*
X185795000Y-67993750I0J51250D01*
G01*
X185795000Y-66526250D01*
G75*
G02*
X185846250Y-66475000I51250J0D01*
G01*
X186153750Y-66475000D01*
G75*
G02*
X186205000Y-66526250I0J-51250D01*
G01*
X186205000Y-67993750D01*
G75*
G02*
X186153750Y-68045000I-51250J0D01*
G01*
G37*
G36*
G01*
X185503750Y-68045000D02*
X185196250Y-68045000D01*
G75*
G02*
X185145000Y-67993750I0J51250D01*
G01*
X185145000Y-66526250D01*
G75*
G02*
X185196250Y-66475000I51250J0D01*
G01*
X185503750Y-66475000D01*
G75*
G02*
X185555000Y-66526250I0J-51250D01*
G01*
X185555000Y-67993750D01*
G75*
G02*
X185503750Y-68045000I-51250J0D01*
G01*
G37*
G36*
G01*
X184853750Y-68045000D02*
X184546250Y-68045000D01*
G75*
G02*
X184495000Y-67993750I0J51250D01*
G01*
X184495000Y-66526250D01*
G75*
G02*
X184546250Y-66475000I51250J0D01*
G01*
X184853750Y-66475000D01*
G75*
G02*
X184905000Y-66526250I0J-51250D01*
G01*
X184905000Y-67993750D01*
G75*
G02*
X184853750Y-68045000I-51250J0D01*
G01*
G37*
G36*
G01*
X184203750Y-68045000D02*
X183896250Y-68045000D01*
G75*
G02*
X183845000Y-67993750I0J51250D01*
G01*
X183845000Y-66526250D01*
G75*
G02*
X183896250Y-66475000I51250J0D01*
G01*
X184203750Y-66475000D01*
G75*
G02*
X184255000Y-66526250I0J-51250D01*
G01*
X184255000Y-67993750D01*
G75*
G02*
X184203750Y-68045000I-51250J0D01*
G01*
G37*
G36*
G01*
X183553750Y-68045000D02*
X183246250Y-68045000D01*
G75*
G02*
X183195000Y-67993750I0J51250D01*
G01*
X183195000Y-66526250D01*
G75*
G02*
X183246250Y-66475000I51250J0D01*
G01*
X183553750Y-66475000D01*
G75*
G02*
X183605000Y-66526250I0J-51250D01*
G01*
X183605000Y-67993750D01*
G75*
G02*
X183553750Y-68045000I-51250J0D01*
G01*
G37*
G36*
G01*
X182903750Y-68045000D02*
X182596250Y-68045000D01*
G75*
G02*
X182545000Y-67993750I0J51250D01*
G01*
X182545000Y-66526250D01*
G75*
G02*
X182596250Y-66475000I51250J0D01*
G01*
X182903750Y-66475000D01*
G75*
G02*
X182955000Y-66526250I0J-51250D01*
G01*
X182955000Y-67993750D01*
G75*
G02*
X182903750Y-68045000I-51250J0D01*
G01*
G37*
G36*
G01*
X182253750Y-68045000D02*
X181946250Y-68045000D01*
G75*
G02*
X181895000Y-67993750I0J51250D01*
G01*
X181895000Y-66526250D01*
G75*
G02*
X181946250Y-66475000I51250J0D01*
G01*
X182253750Y-66475000D01*
G75*
G02*
X182305000Y-66526250I0J-51250D01*
G01*
X182305000Y-67993750D01*
G75*
G02*
X182253750Y-68045000I-51250J0D01*
G01*
G37*
G36*
G01*
X181603750Y-68045000D02*
X181296250Y-68045000D01*
G75*
G02*
X181245000Y-67993750I0J51250D01*
G01*
X181245000Y-66526250D01*
G75*
G02*
X181296250Y-66475000I51250J0D01*
G01*
X181603750Y-66475000D01*
G75*
G02*
X181655000Y-66526250I0J-51250D01*
G01*
X181655000Y-67993750D01*
G75*
G02*
X181603750Y-68045000I-51250J0D01*
G01*
G37*
%TD*%
%TO.C,D1*%
G36*
G01*
X142640000Y-52444999D02*
X142960000Y-52444999D01*
G75*
G02*
X143120000Y-52604999I0J-160000D01*
G01*
X143120000Y-53049999D01*
G75*
G02*
X142960000Y-53209999I-160000J0D01*
G01*
X142640000Y-53209999D01*
G75*
G02*
X142480000Y-53049999I0J160000D01*
G01*
X142480000Y-52604999D01*
G75*
G02*
X142640000Y-52444999I160000J0D01*
G01*
G37*
G36*
G01*
X142640000Y-53590001D02*
X142960000Y-53590001D01*
G75*
G02*
X143120000Y-53750001I0J-160000D01*
G01*
X143120000Y-54195001D01*
G75*
G02*
X142960000Y-54355001I-160000J0D01*
G01*
X142640000Y-54355001D01*
G75*
G02*
X142480000Y-54195001I0J160000D01*
G01*
X142480000Y-53750001D01*
G75*
G02*
X142640000Y-53590001I160000J0D01*
G01*
G37*
%TD*%
%TO.C,C9*%
G36*
G01*
X193575000Y-62475000D02*
X193575000Y-61525000D01*
G75*
G02*
X193825000Y-61275000I250000J0D01*
G01*
X194500000Y-61275000D01*
G75*
G02*
X194750000Y-61525000I0J-250000D01*
G01*
X194750000Y-62475000D01*
G75*
G02*
X194500000Y-62725000I-250000J0D01*
G01*
X193825000Y-62725000D01*
G75*
G02*
X193575000Y-62475000I0J250000D01*
G01*
G37*
G36*
G01*
X195650000Y-62475000D02*
X195650000Y-61525000D01*
G75*
G02*
X195900000Y-61275000I250000J0D01*
G01*
X196575000Y-61275000D01*
G75*
G02*
X196825000Y-61525000I0J-250000D01*
G01*
X196825000Y-62475000D01*
G75*
G02*
X196575000Y-62725000I-250000J0D01*
G01*
X195900000Y-62725000D01*
G75*
G02*
X195650000Y-62475000I0J250000D01*
G01*
G37*
%TD*%
%TO.C,C8*%
G36*
G01*
X188550000Y-67050000D02*
X188550000Y-65950000D01*
G75*
G02*
X188800000Y-65700000I250000J0D01*
G01*
X191300000Y-65700000D01*
G75*
G02*
X191550000Y-65950000I0J-250000D01*
G01*
X191550000Y-67050000D01*
G75*
G02*
X191300000Y-67300000I-250000J0D01*
G01*
X188800000Y-67300000D01*
G75*
G02*
X188550000Y-67050000I0J250000D01*
G01*
G37*
G36*
G01*
X192950000Y-67050000D02*
X192950000Y-65950000D01*
G75*
G02*
X193200000Y-65700000I250000J0D01*
G01*
X195700000Y-65700000D01*
G75*
G02*
X195950000Y-65950000I0J-250000D01*
G01*
X195950000Y-67050000D01*
G75*
G02*
X195700000Y-67300000I-250000J0D01*
G01*
X193200000Y-67300000D01*
G75*
G02*
X192950000Y-67050000I0J250000D01*
G01*
G37*
%TD*%
%TO.C,C5*%
G36*
G01*
X181775000Y-74787500D02*
X182725000Y-74787500D01*
G75*
G02*
X182975000Y-75037500I0J-250000D01*
G01*
X182975000Y-75712500D01*
G75*
G02*
X182725000Y-75962500I-250000J0D01*
G01*
X181775000Y-75962500D01*
G75*
G02*
X181525000Y-75712500I0J250000D01*
G01*
X181525000Y-75037500D01*
G75*
G02*
X181775000Y-74787500I250000J0D01*
G01*
G37*
G36*
G01*
X181775000Y-76862500D02*
X182725000Y-76862500D01*
G75*
G02*
X182975000Y-77112500I0J-250000D01*
G01*
X182975000Y-77787500D01*
G75*
G02*
X182725000Y-78037500I-250000J0D01*
G01*
X181775000Y-78037500D01*
G75*
G02*
X181525000Y-77787500I0J250000D01*
G01*
X181525000Y-77112500D01*
G75*
G02*
X181775000Y-76862500I250000J0D01*
G01*
G37*
%TD*%
%TO.C,R3*%
G36*
G01*
X189075000Y-62450000D02*
X189075000Y-61550000D01*
G75*
G02*
X189325000Y-61300000I250000J0D01*
G01*
X189850000Y-61300000D01*
G75*
G02*
X190100000Y-61550000I0J-250000D01*
G01*
X190100000Y-62450000D01*
G75*
G02*
X189850000Y-62700000I-250000J0D01*
G01*
X189325000Y-62700000D01*
G75*
G02*
X189075000Y-62450000I0J250000D01*
G01*
G37*
G36*
G01*
X190900000Y-62450000D02*
X190900000Y-61550000D01*
G75*
G02*
X191150000Y-61300000I250000J0D01*
G01*
X191675000Y-61300000D01*
G75*
G02*
X191925000Y-61550000I0J-250000D01*
G01*
X191925000Y-62450000D01*
G75*
G02*
X191675000Y-62700000I-250000J0D01*
G01*
X191150000Y-62700000D01*
G75*
G02*
X190900000Y-62450000I0J250000D01*
G01*
G37*
%TD*%
%TO.C,U5*%
G36*
G01*
X191800000Y-55799999D02*
X191800000Y-56099999D01*
G75*
G02*
X191650000Y-56249999I-150000J0D01*
G01*
X190625000Y-56249999D01*
G75*
G02*
X190475000Y-56099999I0J150000D01*
G01*
X190475000Y-55799999D01*
G75*
G02*
X190625000Y-55649999I150000J0D01*
G01*
X191650000Y-55649999D01*
G75*
G02*
X191800000Y-55799999I0J-150000D01*
G01*
G37*
G36*
G01*
X191800000Y-54850000D02*
X191800000Y-55150000D01*
G75*
G02*
X191650000Y-55300000I-150000J0D01*
G01*
X190625000Y-55300000D01*
G75*
G02*
X190475000Y-55150000I0J150000D01*
G01*
X190475000Y-54850000D01*
G75*
G02*
X190625000Y-54700000I150000J0D01*
G01*
X191650000Y-54700000D01*
G75*
G02*
X191800000Y-54850000I0J-150000D01*
G01*
G37*
G36*
G01*
X191800000Y-53900001D02*
X191800000Y-54200001D01*
G75*
G02*
X191650000Y-54350001I-150000J0D01*
G01*
X190625000Y-54350001D01*
G75*
G02*
X190475000Y-54200001I0J150000D01*
G01*
X190475000Y-53900001D01*
G75*
G02*
X190625000Y-53750001I150000J0D01*
G01*
X191650000Y-53750001D01*
G75*
G02*
X191800000Y-53900001I0J-150000D01*
G01*
G37*
G36*
G01*
X189525000Y-53900001D02*
X189525000Y-54200001D01*
G75*
G02*
X189375000Y-54350001I-150000J0D01*
G01*
X188350000Y-54350001D01*
G75*
G02*
X188200000Y-54200001I0J150000D01*
G01*
X188200000Y-53900001D01*
G75*
G02*
X188350000Y-53750001I150000J0D01*
G01*
X189375000Y-53750001D01*
G75*
G02*
X189525000Y-53900001I0J-150000D01*
G01*
G37*
G36*
G01*
X189525000Y-55799999D02*
X189525000Y-56099999D01*
G75*
G02*
X189375000Y-56249999I-150000J0D01*
G01*
X188350000Y-56249999D01*
G75*
G02*
X188200000Y-56099999I0J150000D01*
G01*
X188200000Y-55799999D01*
G75*
G02*
X188350000Y-55649999I150000J0D01*
G01*
X189375000Y-55649999D01*
G75*
G02*
X189525000Y-55799999I0J-150000D01*
G01*
G37*
%TD*%
%TO.C,R7*%
G36*
G01*
X143550000Y-58575000D02*
X144450000Y-58575000D01*
G75*
G02*
X144700000Y-58825000I0J-250000D01*
G01*
X144700000Y-59350000D01*
G75*
G02*
X144450000Y-59600000I-250000J0D01*
G01*
X143550000Y-59600000D01*
G75*
G02*
X143300000Y-59350000I0J250000D01*
G01*
X143300000Y-58825000D01*
G75*
G02*
X143550000Y-58575000I250000J0D01*
G01*
G37*
G36*
G01*
X143550000Y-60400000D02*
X144450000Y-60400000D01*
G75*
G02*
X144700000Y-60650000I0J-250000D01*
G01*
X144700000Y-61175000D01*
G75*
G02*
X144450000Y-61425000I-250000J0D01*
G01*
X143550000Y-61425000D01*
G75*
G02*
X143300000Y-61175000I0J250000D01*
G01*
X143300000Y-60650000D01*
G75*
G02*
X143550000Y-60400000I250000J0D01*
G01*
G37*
%TD*%
%TO.C,C2*%
G36*
G01*
X200225000Y-54187500D02*
X201175000Y-54187500D01*
G75*
G02*
X201425000Y-54437500I0J-250000D01*
G01*
X201425000Y-55112500D01*
G75*
G02*
X201175000Y-55362500I-250000J0D01*
G01*
X200225000Y-55362500D01*
G75*
G02*
X199975000Y-55112500I0J250000D01*
G01*
X199975000Y-54437500D01*
G75*
G02*
X200225000Y-54187500I250000J0D01*
G01*
G37*
G36*
G01*
X200225000Y-56262500D02*
X201175000Y-56262500D01*
G75*
G02*
X201425000Y-56512500I0J-250000D01*
G01*
X201425000Y-57187500D01*
G75*
G02*
X201175000Y-57437500I-250000J0D01*
G01*
X200225000Y-57437500D01*
G75*
G02*
X199975000Y-57187500I0J250000D01*
G01*
X199975000Y-56512500D01*
G75*
G02*
X200225000Y-56262500I250000J0D01*
G01*
G37*
%TD*%
%TO.C,C3*%
G36*
G01*
X182475000Y-60087500D02*
X181525000Y-60087500D01*
G75*
G02*
X181275000Y-59837500I0J250000D01*
G01*
X181275000Y-59162500D01*
G75*
G02*
X181525000Y-58912500I250000J0D01*
G01*
X182475000Y-58912500D01*
G75*
G02*
X182725000Y-59162500I0J-250000D01*
G01*
X182725000Y-59837500D01*
G75*
G02*
X182475000Y-60087500I-250000J0D01*
G01*
G37*
G36*
G01*
X182475000Y-58012500D02*
X181525000Y-58012500D01*
G75*
G02*
X181275000Y-57762500I0J250000D01*
G01*
X181275000Y-57087500D01*
G75*
G02*
X181525000Y-56837500I250000J0D01*
G01*
X182475000Y-56837500D01*
G75*
G02*
X182725000Y-57087500I0J-250000D01*
G01*
X182725000Y-57762500D01*
G75*
G02*
X182475000Y-58012500I-250000J0D01*
G01*
G37*
%TD*%
%TO.C,D2*%
G36*
G01*
X141640000Y-52444999D02*
X141960000Y-52444999D01*
G75*
G02*
X142120000Y-52604999I0J-160000D01*
G01*
X142120000Y-53049999D01*
G75*
G02*
X141960000Y-53209999I-160000J0D01*
G01*
X141640000Y-53209999D01*
G75*
G02*
X141480000Y-53049999I0J160000D01*
G01*
X141480000Y-52604999D01*
G75*
G02*
X141640000Y-52444999I160000J0D01*
G01*
G37*
G36*
G01*
X141640000Y-53590001D02*
X141960000Y-53590001D01*
G75*
G02*
X142120000Y-53750001I0J-160000D01*
G01*
X142120000Y-54195001D01*
G75*
G02*
X141960000Y-54355001I-160000J0D01*
G01*
X141640000Y-54355001D01*
G75*
G02*
X141480000Y-54195001I0J160000D01*
G01*
X141480000Y-53750001D01*
G75*
G02*
X141640000Y-53590001I160000J0D01*
G01*
G37*
%TD*%
%TO.C,R4*%
G36*
G01*
X184175000Y-55850000D02*
X184175000Y-54950000D01*
G75*
G02*
X184425000Y-54700000I250000J0D01*
G01*
X184950000Y-54700000D01*
G75*
G02*
X185200000Y-54950000I0J-250000D01*
G01*
X185200000Y-55850000D01*
G75*
G02*
X184950000Y-56100000I-250000J0D01*
G01*
X184425000Y-56100000D01*
G75*
G02*
X184175000Y-55850000I0J250000D01*
G01*
G37*
G36*
G01*
X186000000Y-55850000D02*
X186000000Y-54950000D01*
G75*
G02*
X186250000Y-54700000I250000J0D01*
G01*
X186775000Y-54700000D01*
G75*
G02*
X187025000Y-54950000I0J-250000D01*
G01*
X187025000Y-55850000D01*
G75*
G02*
X186775000Y-56100000I-250000J0D01*
G01*
X186250000Y-56100000D01*
G75*
G02*
X186000000Y-55850000I0J250000D01*
G01*
G37*
%TD*%
%TO.C,C4*%
G36*
G01*
X181775000Y-62375000D02*
X182725000Y-62375000D01*
G75*
G02*
X182975000Y-62625000I0J-250000D01*
G01*
X182975000Y-63300000D01*
G75*
G02*
X182725000Y-63550000I-250000J0D01*
G01*
X181775000Y-63550000D01*
G75*
G02*
X181525000Y-63300000I0J250000D01*
G01*
X181525000Y-62625000D01*
G75*
G02*
X181775000Y-62375000I250000J0D01*
G01*
G37*
G36*
G01*
X181775000Y-64450000D02*
X182725000Y-64450000D01*
G75*
G02*
X182975000Y-64700000I0J-250000D01*
G01*
X182975000Y-65375000D01*
G75*
G02*
X182725000Y-65625000I-250000J0D01*
G01*
X181775000Y-65625000D01*
G75*
G02*
X181525000Y-65375000I0J250000D01*
G01*
X181525000Y-64700000D01*
G75*
G02*
X181775000Y-64450000I250000J0D01*
G01*
G37*
%TD*%
%TO.C,R5*%
G36*
G01*
X147550000Y-58575000D02*
X148450000Y-58575000D01*
G75*
G02*
X148700000Y-58825000I0J-250000D01*
G01*
X148700000Y-59350000D01*
G75*
G02*
X148450000Y-59600000I-250000J0D01*
G01*
X147550000Y-59600000D01*
G75*
G02*
X147300000Y-59350000I0J250000D01*
G01*
X147300000Y-58825000D01*
G75*
G02*
X147550000Y-58575000I250000J0D01*
G01*
G37*
G36*
G01*
X147550000Y-60400000D02*
X148450000Y-60400000D01*
G75*
G02*
X148700000Y-60650000I0J-250000D01*
G01*
X148700000Y-61175000D01*
G75*
G02*
X148450000Y-61425000I-250000J0D01*
G01*
X147550000Y-61425000D01*
G75*
G02*
X147300000Y-61175000I0J250000D01*
G01*
X147300000Y-60650000D01*
G75*
G02*
X147550000Y-60400000I250000J0D01*
G01*
G37*
%TD*%
%TO.C,U3*%
G36*
G01*
X185575000Y-62925000D02*
X185425000Y-62925000D01*
G75*
G02*
X185350000Y-62850000I0J75000D01*
G01*
X185350000Y-61550000D01*
G75*
G02*
X185425000Y-61475000I75000J0D01*
G01*
X185575000Y-61475000D01*
G75*
G02*
X185650000Y-61550000I0J-75000D01*
G01*
X185650000Y-62850000D01*
G75*
G02*
X185575000Y-62925000I-75000J0D01*
G01*
G37*
G36*
G01*
X186075001Y-62925000D02*
X185925001Y-62925000D01*
G75*
G02*
X185850001Y-62850000I0J75000D01*
G01*
X185850001Y-61550000D01*
G75*
G02*
X185925001Y-61475000I75000J0D01*
G01*
X186075001Y-61475000D01*
G75*
G02*
X186150001Y-61550000I0J-75000D01*
G01*
X186150001Y-62850000D01*
G75*
G02*
X186075001Y-62925000I-75000J0D01*
G01*
G37*
G36*
G01*
X186575000Y-62925000D02*
X186425000Y-62925000D01*
G75*
G02*
X186350000Y-62850000I0J75000D01*
G01*
X186350000Y-61550000D01*
G75*
G02*
X186425000Y-61475000I75000J0D01*
G01*
X186575000Y-61475000D01*
G75*
G02*
X186650000Y-61550000I0J-75000D01*
G01*
X186650000Y-62850000D01*
G75*
G02*
X186575000Y-62925000I-75000J0D01*
G01*
G37*
G36*
G01*
X187074999Y-62925000D02*
X186924999Y-62925000D01*
G75*
G02*
X186849999Y-62850000I0J75000D01*
G01*
X186849999Y-61550000D01*
G75*
G02*
X186924999Y-61475000I75000J0D01*
G01*
X187074999Y-61475000D01*
G75*
G02*
X187149999Y-61550000I0J-75000D01*
G01*
X187149999Y-62850000D01*
G75*
G02*
X187074999Y-62925000I-75000J0D01*
G01*
G37*
G36*
G01*
X187575000Y-62925000D02*
X187425000Y-62925000D01*
G75*
G02*
X187350000Y-62850000I0J75000D01*
G01*
X187350000Y-61550000D01*
G75*
G02*
X187425000Y-61475000I75000J0D01*
G01*
X187575000Y-61475000D01*
G75*
G02*
X187650000Y-61550000I0J-75000D01*
G01*
X187650000Y-62850000D01*
G75*
G02*
X187575000Y-62925000I-75000J0D01*
G01*
G37*
G36*
G01*
X187575000Y-58525000D02*
X187425000Y-58525000D01*
G75*
G02*
X187350000Y-58450000I0J75000D01*
G01*
X187350000Y-57150000D01*
G75*
G02*
X187425000Y-57075000I75000J0D01*
G01*
X187575000Y-57075000D01*
G75*
G02*
X187650000Y-57150000I0J-75000D01*
G01*
X187650000Y-58450000D01*
G75*
G02*
X187575000Y-58525000I-75000J0D01*
G01*
G37*
G36*
G01*
X187074999Y-58525000D02*
X186924999Y-58525000D01*
G75*
G02*
X186849999Y-58450000I0J75000D01*
G01*
X186849999Y-57150000D01*
G75*
G02*
X186924999Y-57075000I75000J0D01*
G01*
X187074999Y-57075000D01*
G75*
G02*
X187149999Y-57150000I0J-75000D01*
G01*
X187149999Y-58450000D01*
G75*
G02*
X187074999Y-58525000I-75000J0D01*
G01*
G37*
G36*
G01*
X186575000Y-58525000D02*
X186425000Y-58525000D01*
G75*
G02*
X186350000Y-58450000I0J75000D01*
G01*
X186350000Y-57150000D01*
G75*
G02*
X186425000Y-57075000I75000J0D01*
G01*
X186575000Y-57075000D01*
G75*
G02*
X186650000Y-57150000I0J-75000D01*
G01*
X186650000Y-58450000D01*
G75*
G02*
X186575000Y-58525000I-75000J0D01*
G01*
G37*
G36*
G01*
X186075001Y-58525000D02*
X185925001Y-58525000D01*
G75*
G02*
X185850001Y-58450000I0J75000D01*
G01*
X185850001Y-57150000D01*
G75*
G02*
X185925001Y-57075000I75000J0D01*
G01*
X186075001Y-57075000D01*
G75*
G02*
X186150001Y-57150000I0J-75000D01*
G01*
X186150001Y-58450000D01*
G75*
G02*
X186075001Y-58525000I-75000J0D01*
G01*
G37*
G36*
G01*
X185575000Y-58525000D02*
X185425000Y-58525000D01*
G75*
G02*
X185350000Y-58450000I0J75000D01*
G01*
X185350000Y-57150000D01*
G75*
G02*
X185425000Y-57075000I75000J0D01*
G01*
X185575000Y-57075000D01*
G75*
G02*
X185650000Y-57150000I0J-75000D01*
G01*
X185650000Y-58450000D01*
G75*
G02*
X185575000Y-58525000I-75000J0D01*
G01*
G37*
%TD*%
%TO.C,C7*%
G36*
G01*
X141975000Y-61625000D02*
X141025000Y-61625000D01*
G75*
G02*
X140775000Y-61375000I0J250000D01*
G01*
X140775000Y-60700000D01*
G75*
G02*
X141025000Y-60450000I250000J0D01*
G01*
X141975000Y-60450000D01*
G75*
G02*
X142225000Y-60700000I0J-250000D01*
G01*
X142225000Y-61375000D01*
G75*
G02*
X141975000Y-61625000I-250000J0D01*
G01*
G37*
G36*
G01*
X141975000Y-59550000D02*
X141025000Y-59550000D01*
G75*
G02*
X140775000Y-59300000I0J250000D01*
G01*
X140775000Y-58625000D01*
G75*
G02*
X141025000Y-58375000I250000J0D01*
G01*
X141975000Y-58375000D01*
G75*
G02*
X142225000Y-58625000I0J-250000D01*
G01*
X142225000Y-59300000D01*
G75*
G02*
X141975000Y-59550000I-250000J0D01*
G01*
G37*
%TD*%
%TO.C,R6*%
G36*
G01*
X145550000Y-58575000D02*
X146450000Y-58575000D01*
G75*
G02*
X146700000Y-58825000I0J-250000D01*
G01*
X146700000Y-59350000D01*
G75*
G02*
X146450000Y-59600000I-250000J0D01*
G01*
X145550000Y-59600000D01*
G75*
G02*
X145300000Y-59350000I0J250000D01*
G01*
X145300000Y-58825000D01*
G75*
G02*
X145550000Y-58575000I250000J0D01*
G01*
G37*
G36*
G01*
X145550000Y-60400000D02*
X146450000Y-60400000D01*
G75*
G02*
X146700000Y-60650000I0J-250000D01*
G01*
X146700000Y-61175000D01*
G75*
G02*
X146450000Y-61425000I-250000J0D01*
G01*
X145550000Y-61425000D01*
G75*
G02*
X145300000Y-61175000I0J250000D01*
G01*
X145300000Y-60650000D01*
G75*
G02*
X145550000Y-60400000I250000J0D01*
G01*
G37*
%TD*%
%TO.C,D3*%
G36*
G01*
X140640000Y-52444999D02*
X140960000Y-52444999D01*
G75*
G02*
X141120000Y-52604999I0J-160000D01*
G01*
X141120000Y-53049999D01*
G75*
G02*
X140960000Y-53209999I-160000J0D01*
G01*
X140640000Y-53209999D01*
G75*
G02*
X140480000Y-53049999I0J160000D01*
G01*
X140480000Y-52604999D01*
G75*
G02*
X140640000Y-52444999I160000J0D01*
G01*
G37*
G36*
G01*
X140640000Y-53590001D02*
X140960000Y-53590001D01*
G75*
G02*
X141120000Y-53750001I0J-160000D01*
G01*
X141120000Y-54195001D01*
G75*
G02*
X140960000Y-54355001I-160000J0D01*
G01*
X140640000Y-54355001D01*
G75*
G02*
X140480000Y-54195001I0J160000D01*
G01*
X140480000Y-53750001D01*
G75*
G02*
X140640000Y-53590001I160000J0D01*
G01*
G37*
%TD*%
%TO.C,R1*%
G36*
G01*
X187450001Y-77837500D02*
X186550001Y-77837500D01*
G75*
G02*
X186300001Y-77587500I0J250000D01*
G01*
X186300001Y-77062500D01*
G75*
G02*
X186550001Y-76812500I250000J0D01*
G01*
X187450001Y-76812500D01*
G75*
G02*
X187700001Y-77062500I0J-250000D01*
G01*
X187700001Y-77587500D01*
G75*
G02*
X187450001Y-77837500I-250000J0D01*
G01*
G37*
G36*
G01*
X187450001Y-76012500D02*
X186550001Y-76012500D01*
G75*
G02*
X186300001Y-75762500I0J250000D01*
G01*
X186300001Y-75237500D01*
G75*
G02*
X186550001Y-74987500I250000J0D01*
G01*
X187450001Y-74987500D01*
G75*
G02*
X187700001Y-75237500I0J-250000D01*
G01*
X187700001Y-75762500D01*
G75*
G02*
X187450001Y-76012500I-250000J0D01*
G01*
G37*
%TD*%
%TO.C,R2*%
G36*
G01*
X189075000Y-60450000D02*
X189075000Y-59550000D01*
G75*
G02*
X189325000Y-59300000I250000J0D01*
G01*
X189850000Y-59300000D01*
G75*
G02*
X190100000Y-59550000I0J-250000D01*
G01*
X190100000Y-60450000D01*
G75*
G02*
X189850000Y-60700000I-250000J0D01*
G01*
X189325000Y-60700000D01*
G75*
G02*
X189075000Y-60450000I0J250000D01*
G01*
G37*
G36*
G01*
X190900000Y-60450000D02*
X190900000Y-59550000D01*
G75*
G02*
X191150000Y-59300000I250000J0D01*
G01*
X191675000Y-59300000D01*
G75*
G02*
X191925000Y-59550000I0J-250000D01*
G01*
X191925000Y-60450000D01*
G75*
G02*
X191675000Y-60700000I-250000J0D01*
G01*
X191150000Y-60700000D01*
G75*
G02*
X190900000Y-60450000I0J250000D01*
G01*
G37*
%TD*%
M02*
