G04 #@! TF.GenerationSoftware,KiCad,Pcbnew,8.0.5-8.0.5-0~ubuntu20.04.1*
G04 #@! TF.CreationDate,2025-03-19T18:53:30-05:00*
G04 #@! TF.ProjectId,Alex_Teensy4_PCB,416c6578-5f54-4656-956e-7379345f5043,rev?*
G04 #@! TF.SameCoordinates,Original*
G04 #@! TF.FileFunction,Legend,Top*
G04 #@! TF.FilePolarity,Positive*
%FSLAX46Y46*%
G04 Gerber Fmt 4.6, Leading zero omitted, Abs format (unit mm)*
G04 Created by KiCad (PCBNEW 8.0.5-8.0.5-0~ubuntu20.04.1) date 2025-03-19 18:53:30*
%MOMM*%
%LPD*%
G01*
G04 APERTURE LIST*
G04 Aperture macros list*
%AMRoundRect*
0 Rectangle with rounded corners*
0 $1 Rounding radius*
0 $2 $3 $4 $5 $6 $7 $8 $9 X,Y pos of 4 corners*
0 Add a 4 corners polygon primitive as box body*
4,1,4,$2,$3,$4,$5,$6,$7,$8,$9,$2,$3,0*
0 Add four circle primitives for the rounded corners*
1,1,$1+$1,$2,$3*
1,1,$1+$1,$4,$5*
1,1,$1+$1,$6,$7*
1,1,$1+$1,$8,$9*
0 Add four rect primitives between the rounded corners*
20,1,$1+$1,$2,$3,$4,$5,0*
20,1,$1+$1,$4,$5,$6,$7,0*
20,1,$1+$1,$6,$7,$8,$9,0*
20,1,$1+$1,$8,$9,$2,$3,0*%
%AMFreePoly0*
4,1,32,0.231202,0.609631,0.329576,0.558000,2.032000,0.558000,2.067355,0.543355,2.082000,0.508000,2.082000,-0.508000,2.067355,-0.543355,2.032000,-0.558000,0.329576,-0.558000,0.231202,-0.609631,0.078590,-0.647246,-0.078590,-0.647246,-0.231202,-0.609631,-0.329576,-0.558000,-0.508000,-0.558000,-0.543355,-0.543355,-0.558000,-0.508000,-0.558000,-0.330985,-0.577317,-0.303000,-0.633054,-0.156034,
-0.652000,0.000000,-0.633054,0.156034,-0.577317,0.303000,-0.558000,0.330985,-0.558000,0.508000,-0.543355,0.543355,-0.508000,0.558000,-0.329576,0.558000,-0.231202,0.609631,-0.078590,0.647246,0.078590,0.647246,0.231202,0.609631,0.231202,0.609631,$1*%
%AMFreePoly1*
4,1,32,0.231202,0.609631,0.329576,0.558000,0.508000,0.558000,0.543355,0.543355,0.558000,0.508000,0.558000,0.330985,0.577317,0.303000,0.633054,0.156034,0.652000,0.000000,0.633054,-0.156034,0.577317,-0.303000,0.558000,-0.330985,0.558000,-0.508000,0.543355,-0.543355,0.508000,-0.558000,0.329576,-0.558000,0.231202,-0.609631,0.078590,-0.647246,-0.078590,-0.647246,-0.231202,-0.609631,
-0.329576,-0.558000,-2.032000,-0.558000,-2.067355,-0.543355,-2.082000,-0.508000,-2.082000,0.508000,-2.067355,0.543355,-2.032000,0.558000,-0.329576,0.558000,-0.231202,0.609631,-0.078590,0.647246,0.078590,0.647246,0.231202,0.609631,0.231202,0.609631,$1*%
G04 Aperture macros list end*
%ADD10C,0.203200*%
%ADD11C,0.100000*%
%ADD12C,0.150000*%
%ADD13C,0.120000*%
%ADD14C,0.127000*%
%ADD15C,0.200000*%
%ADD16RoundRect,0.160000X-0.160000X0.222500X-0.160000X-0.222500X0.160000X-0.222500X0.160000X0.222500X0*%
%ADD17C,1.700000*%
%ADD18C,1.404000*%
%ADD19FreePoly0,0.000000*%
%ADD20FreePoly1,0.000000*%
%ADD21RoundRect,0.250000X-0.337500X-0.475000X0.337500X-0.475000X0.337500X0.475000X-0.337500X0.475000X0*%
%ADD22C,3.301600*%
%ADD23RoundRect,0.250000X-1.250000X-0.550000X1.250000X-0.550000X1.250000X0.550000X-1.250000X0.550000X0*%
%ADD24O,0.800000X1.300000*%
%ADD25RoundRect,0.200000X0.200000X0.450000X-0.200000X0.450000X-0.200000X-0.450000X0.200000X-0.450000X0*%
%ADD26R,0.400000X1.100000*%
%ADD27RoundRect,0.250000X-0.475000X0.337500X-0.475000X-0.337500X0.475000X-0.337500X0.475000X0.337500X0*%
%ADD28RoundRect,0.250000X-0.262500X-0.450000X0.262500X-0.450000X0.262500X0.450000X-0.262500X0.450000X0*%
%ADD29RoundRect,0.150000X0.512500X0.150000X-0.512500X0.150000X-0.512500X-0.150000X0.512500X-0.150000X0*%
%ADD30RoundRect,0.070300X0.210900X-0.790900X0.210900X0.790900X-0.210900X0.790900X-0.210900X-0.790900X0*%
%ADD31RoundRect,0.250000X-0.450000X0.262500X-0.450000X-0.262500X0.450000X-0.262500X0.450000X0.262500X0*%
%ADD32RoundRect,0.250000X-0.725000X0.600000X-0.725000X-0.600000X0.725000X-0.600000X0.725000X0.600000X0*%
%ADD33O,1.950000X1.700000*%
%ADD34RoundRect,0.250000X0.475000X-0.337500X0.475000X0.337500X-0.475000X0.337500X-0.475000X-0.337500X0*%
%ADD35O,1.300000X0.800000*%
%ADD36RoundRect,0.200000X0.450000X-0.200000X0.450000X0.200000X-0.450000X0.200000X-0.450000X-0.200000X0*%
%ADD37C,2.000000*%
%ADD38RoundRect,0.250000X0.450000X-0.262500X0.450000X0.262500X-0.450000X0.262500X-0.450000X-0.262500X0*%
%ADD39C,1.879600*%
G04 APERTURE END LIST*
D10*
X147596857Y-53294841D02*
X147548476Y-53343222D01*
X147548476Y-53343222D02*
X147403333Y-53391602D01*
X147403333Y-53391602D02*
X147306571Y-53391602D01*
X147306571Y-53391602D02*
X147161428Y-53343222D01*
X147161428Y-53343222D02*
X147064666Y-53246460D01*
X147064666Y-53246460D02*
X147016285Y-53149698D01*
X147016285Y-53149698D02*
X146967904Y-52956174D01*
X146967904Y-52956174D02*
X146967904Y-52811031D01*
X146967904Y-52811031D02*
X147016285Y-52617507D01*
X147016285Y-52617507D02*
X147064666Y-52520745D01*
X147064666Y-52520745D02*
X147161428Y-52423983D01*
X147161428Y-52423983D02*
X147306571Y-52375602D01*
X147306571Y-52375602D02*
X147403333Y-52375602D01*
X147403333Y-52375602D02*
X147548476Y-52423983D01*
X147548476Y-52423983D02*
X147596857Y-52472364D01*
X147983904Y-53101317D02*
X148467714Y-53101317D01*
X147887142Y-53391602D02*
X148225809Y-52375602D01*
X148225809Y-52375602D02*
X148564476Y-53391602D01*
X148903142Y-53391602D02*
X148903142Y-52375602D01*
X148903142Y-52375602D02*
X149483714Y-53391602D01*
X149483714Y-53391602D02*
X149483714Y-52375602D01*
X147693618Y-55027305D02*
X147693618Y-54011305D01*
X147693618Y-54495115D02*
X148274190Y-54495115D01*
X148274190Y-55027305D02*
X148274190Y-54011305D01*
X148806380Y-54978925D02*
X148806380Y-55027305D01*
X148806380Y-55027305D02*
X148757999Y-55124067D01*
X148757999Y-55124067D02*
X148709618Y-55172448D01*
X149725619Y-55027305D02*
X149241809Y-55027305D01*
X149241809Y-55027305D02*
X149241809Y-54011305D01*
X209859453Y-54128951D02*
X209859453Y-54709523D01*
X209859453Y-54419237D02*
X208843453Y-54419237D01*
X208843453Y-54419237D02*
X208988596Y-54515999D01*
X208988596Y-54515999D02*
X209085358Y-54612761D01*
X209085358Y-54612761D02*
X209133739Y-54709523D01*
X208940215Y-53741904D02*
X208891834Y-53693523D01*
X208891834Y-53693523D02*
X208843453Y-53596761D01*
X208843453Y-53596761D02*
X208843453Y-53354856D01*
X208843453Y-53354856D02*
X208891834Y-53258094D01*
X208891834Y-53258094D02*
X208940215Y-53209713D01*
X208940215Y-53209713D02*
X209036977Y-53161332D01*
X209036977Y-53161332D02*
X209133739Y-53161332D01*
X209133739Y-53161332D02*
X209278882Y-53209713D01*
X209278882Y-53209713D02*
X209859453Y-53790285D01*
X209859453Y-53790285D02*
X209859453Y-53161332D01*
X208843453Y-52871047D02*
X209859453Y-52532380D01*
X209859453Y-52532380D02*
X208843453Y-52193713D01*
X208943453Y-57893523D02*
X208943453Y-58377333D01*
X208943453Y-58377333D02*
X209427263Y-58425714D01*
X209427263Y-58425714D02*
X209378882Y-58377333D01*
X209378882Y-58377333D02*
X209330501Y-58280571D01*
X209330501Y-58280571D02*
X209330501Y-58038666D01*
X209330501Y-58038666D02*
X209378882Y-57941904D01*
X209378882Y-57941904D02*
X209427263Y-57893523D01*
X209427263Y-57893523D02*
X209524025Y-57845142D01*
X209524025Y-57845142D02*
X209765930Y-57845142D01*
X209765930Y-57845142D02*
X209862692Y-57893523D01*
X209862692Y-57893523D02*
X209911073Y-57941904D01*
X209911073Y-57941904D02*
X209959453Y-58038666D01*
X209959453Y-58038666D02*
X209959453Y-58280571D01*
X209959453Y-58280571D02*
X209911073Y-58377333D01*
X209911073Y-58377333D02*
X209862692Y-58425714D01*
X208943453Y-57554857D02*
X209959453Y-57216190D01*
X209959453Y-57216190D02*
X208943453Y-56877523D01*
X166548476Y-59177263D02*
X166887143Y-59177263D01*
X167032286Y-59709453D02*
X166548476Y-59709453D01*
X166548476Y-59709453D02*
X166548476Y-58693453D01*
X166548476Y-58693453D02*
X167032286Y-58693453D01*
X167999905Y-59709453D02*
X167419333Y-59709453D01*
X167709619Y-59709453D02*
X167709619Y-58693453D01*
X167709619Y-58693453D02*
X167612857Y-58838596D01*
X167612857Y-58838596D02*
X167516095Y-58935358D01*
X167516095Y-58935358D02*
X167419333Y-58983739D01*
X158548476Y-59177263D02*
X158887143Y-59177263D01*
X159032286Y-59709453D02*
X158548476Y-59709453D01*
X158548476Y-59709453D02*
X158548476Y-58693453D01*
X158548476Y-58693453D02*
X159032286Y-58693453D01*
X159419333Y-58790215D02*
X159467714Y-58741834D01*
X159467714Y-58741834D02*
X159564476Y-58693453D01*
X159564476Y-58693453D02*
X159806381Y-58693453D01*
X159806381Y-58693453D02*
X159903143Y-58741834D01*
X159903143Y-58741834D02*
X159951524Y-58790215D01*
X159951524Y-58790215D02*
X159999905Y-58886977D01*
X159999905Y-58886977D02*
X159999905Y-58983739D01*
X159999905Y-58983739D02*
X159951524Y-59128882D01*
X159951524Y-59128882D02*
X159370952Y-59709453D01*
X159370952Y-59709453D02*
X159999905Y-59709453D01*
G36*
X210073942Y-56278965D02*
G01*
X208628964Y-56278965D01*
X208628964Y-55580666D01*
X208741853Y-55580666D01*
X208741853Y-55725809D01*
X208742841Y-55735842D01*
X208742651Y-55738517D01*
X208743450Y-55742035D01*
X208743805Y-55745630D01*
X208744832Y-55748110D01*
X208747067Y-55757938D01*
X208795448Y-55903081D01*
X208803568Y-55921267D01*
X208805959Y-55924024D01*
X208807357Y-55927398D01*
X208819992Y-55942794D01*
X208916754Y-56039556D01*
X208924545Y-56045949D01*
X208926304Y-56047978D01*
X208929361Y-56049902D01*
X208932150Y-56052191D01*
X208934626Y-56053216D01*
X208943159Y-56058588D01*
X209039921Y-56106969D01*
X209041373Y-56107524D01*
X209041961Y-56107960D01*
X209050250Y-56110921D01*
X209058522Y-56114087D01*
X209059255Y-56114139D01*
X209060716Y-56114661D01*
X209254240Y-56163042D01*
X209257675Y-56163550D01*
X209259061Y-56164124D01*
X209266528Y-56164859D01*
X209273943Y-56165956D01*
X209275424Y-56165735D01*
X209278882Y-56166076D01*
X209424025Y-56166076D01*
X209427482Y-56165735D01*
X209428964Y-56165956D01*
X209436378Y-56164859D01*
X209443846Y-56164124D01*
X209445231Y-56163550D01*
X209448667Y-56163042D01*
X209642191Y-56114661D01*
X209643651Y-56114139D01*
X209644384Y-56114087D01*
X209652648Y-56110924D01*
X209660946Y-56107960D01*
X209661533Y-56107524D01*
X209662986Y-56106969D01*
X209759748Y-56058588D01*
X209768280Y-56053216D01*
X209770757Y-56052191D01*
X209773545Y-56049902D01*
X209776603Y-56047978D01*
X209778361Y-56045949D01*
X209786153Y-56039556D01*
X209882915Y-55942794D01*
X209895550Y-55927398D01*
X209896946Y-55924026D01*
X209899340Y-55921267D01*
X209907459Y-55903080D01*
X209955839Y-55757937D01*
X209958073Y-55748111D01*
X209959101Y-55745630D01*
X209959455Y-55742033D01*
X209960255Y-55738516D01*
X209960064Y-55735841D01*
X209961053Y-55725809D01*
X209961053Y-55629047D01*
X209960064Y-55619014D01*
X209960255Y-55616340D01*
X209959455Y-55612822D01*
X209959101Y-55609226D01*
X209958073Y-55606744D01*
X209955839Y-55596919D01*
X209907459Y-55451776D01*
X209899340Y-55433589D01*
X209896946Y-55430829D01*
X209895550Y-55427458D01*
X209882915Y-55412062D01*
X209834534Y-55363681D01*
X209819138Y-55351046D01*
X209782513Y-55335875D01*
X209762692Y-55333923D01*
X209424025Y-55333923D01*
X209404204Y-55335875D01*
X209367579Y-55351046D01*
X209339548Y-55379077D01*
X209324377Y-55415702D01*
X209322425Y-55435523D01*
X209322425Y-55629047D01*
X209324377Y-55648868D01*
X209339548Y-55685493D01*
X209367579Y-55713524D01*
X209404204Y-55728695D01*
X209443846Y-55728695D01*
X209480471Y-55713524D01*
X209508502Y-55685493D01*
X209523673Y-55648868D01*
X209525625Y-55629047D01*
X209525625Y-55537123D01*
X209720608Y-55537123D01*
X209722271Y-55538786D01*
X209757853Y-55645532D01*
X209757853Y-55709323D01*
X209722271Y-55816069D01*
X209654128Y-55884213D01*
X209582085Y-55920234D01*
X209411519Y-55962876D01*
X209291388Y-55962876D01*
X209120822Y-55920234D01*
X209048779Y-55884213D01*
X208980635Y-55816069D01*
X208945053Y-55709322D01*
X208945053Y-55604651D01*
X208982708Y-55529341D01*
X208989826Y-55510740D01*
X208992636Y-55471197D01*
X208980100Y-55433589D01*
X208954126Y-55403641D01*
X208918669Y-55385912D01*
X208879126Y-55383102D01*
X208841519Y-55395638D01*
X208811570Y-55421612D01*
X208800960Y-55438467D01*
X208752579Y-55535229D01*
X208745461Y-55553831D01*
X208745202Y-55557471D01*
X208743805Y-55560845D01*
X208741853Y-55580666D01*
X208628964Y-55580666D01*
X208628964Y-55221034D01*
X210073942Y-55221034D01*
X210073942Y-56278965D01*
G37*
X144557504Y-70263453D02*
X144557504Y-71085930D01*
X144557504Y-71085930D02*
X144605885Y-71182692D01*
X144605885Y-71182692D02*
X144654266Y-71231073D01*
X144654266Y-71231073D02*
X144751028Y-71279453D01*
X144751028Y-71279453D02*
X144944552Y-71279453D01*
X144944552Y-71279453D02*
X145041314Y-71231073D01*
X145041314Y-71231073D02*
X145089695Y-71182692D01*
X145089695Y-71182692D02*
X145138076Y-71085930D01*
X145138076Y-71085930D02*
X145138076Y-70263453D01*
X146154076Y-71279453D02*
X145573504Y-71279453D01*
X145863790Y-71279453D02*
X145863790Y-70263453D01*
X145863790Y-70263453D02*
X145767028Y-70408596D01*
X145767028Y-70408596D02*
X145670266Y-70505358D01*
X145670266Y-70505358D02*
X145573504Y-70553739D01*
X196830667Y-64112692D02*
X196782286Y-64161073D01*
X196782286Y-64161073D02*
X196637143Y-64209453D01*
X196637143Y-64209453D02*
X196540381Y-64209453D01*
X196540381Y-64209453D02*
X196395238Y-64161073D01*
X196395238Y-64161073D02*
X196298476Y-64064311D01*
X196298476Y-64064311D02*
X196250095Y-63967549D01*
X196250095Y-63967549D02*
X196201714Y-63774025D01*
X196201714Y-63774025D02*
X196201714Y-63628882D01*
X196201714Y-63628882D02*
X196250095Y-63435358D01*
X196250095Y-63435358D02*
X196298476Y-63338596D01*
X196298476Y-63338596D02*
X196395238Y-63241834D01*
X196395238Y-63241834D02*
X196540381Y-63193453D01*
X196540381Y-63193453D02*
X196637143Y-63193453D01*
X196637143Y-63193453D02*
X196782286Y-63241834D01*
X196782286Y-63241834D02*
X196830667Y-63290215D01*
X197169333Y-63193453D02*
X197846667Y-63193453D01*
X197846667Y-63193453D02*
X197411238Y-64209453D01*
X193580667Y-65362692D02*
X193532286Y-65411073D01*
X193532286Y-65411073D02*
X193387143Y-65459453D01*
X193387143Y-65459453D02*
X193290381Y-65459453D01*
X193290381Y-65459453D02*
X193145238Y-65411073D01*
X193145238Y-65411073D02*
X193048476Y-65314311D01*
X193048476Y-65314311D02*
X193000095Y-65217549D01*
X193000095Y-65217549D02*
X192951714Y-65024025D01*
X192951714Y-65024025D02*
X192951714Y-64878882D01*
X192951714Y-64878882D02*
X193000095Y-64685358D01*
X193000095Y-64685358D02*
X193048476Y-64588596D01*
X193048476Y-64588596D02*
X193145238Y-64491834D01*
X193145238Y-64491834D02*
X193290381Y-64443453D01*
X193290381Y-64443453D02*
X193387143Y-64443453D01*
X193387143Y-64443453D02*
X193532286Y-64491834D01*
X193532286Y-64491834D02*
X193580667Y-64540215D01*
X194451524Y-64443453D02*
X194258000Y-64443453D01*
X194258000Y-64443453D02*
X194161238Y-64491834D01*
X194161238Y-64491834D02*
X194112857Y-64540215D01*
X194112857Y-64540215D02*
X194016095Y-64685358D01*
X194016095Y-64685358D02*
X193967714Y-64878882D01*
X193967714Y-64878882D02*
X193967714Y-65265930D01*
X193967714Y-65265930D02*
X194016095Y-65362692D01*
X194016095Y-65362692D02*
X194064476Y-65411073D01*
X194064476Y-65411073D02*
X194161238Y-65459453D01*
X194161238Y-65459453D02*
X194354762Y-65459453D01*
X194354762Y-65459453D02*
X194451524Y-65411073D01*
X194451524Y-65411073D02*
X194499905Y-65362692D01*
X194499905Y-65362692D02*
X194548286Y-65265930D01*
X194548286Y-65265930D02*
X194548286Y-65024025D01*
X194548286Y-65024025D02*
X194499905Y-64927263D01*
X194499905Y-64927263D02*
X194451524Y-64878882D01*
X194451524Y-64878882D02*
X194354762Y-64830501D01*
X194354762Y-64830501D02*
X194161238Y-64830501D01*
X194161238Y-64830501D02*
X194064476Y-64878882D01*
X194064476Y-64878882D02*
X194016095Y-64927263D01*
X194016095Y-64927263D02*
X193967714Y-65024025D01*
X158931332Y-54243452D02*
X158931332Y-54969167D01*
X158931332Y-54969167D02*
X158882951Y-55114310D01*
X158882951Y-55114310D02*
X158786189Y-55211072D01*
X158786189Y-55211072D02*
X158641046Y-55259452D01*
X158641046Y-55259452D02*
X158544284Y-55259452D01*
X159366760Y-54340214D02*
X159415141Y-54291833D01*
X159415141Y-54291833D02*
X159511903Y-54243452D01*
X159511903Y-54243452D02*
X159753808Y-54243452D01*
X159753808Y-54243452D02*
X159850570Y-54291833D01*
X159850570Y-54291833D02*
X159898951Y-54340214D01*
X159898951Y-54340214D02*
X159947332Y-54436976D01*
X159947332Y-54436976D02*
X159947332Y-54533738D01*
X159947332Y-54533738D02*
X159898951Y-54678881D01*
X159898951Y-54678881D02*
X159318379Y-55259452D01*
X159318379Y-55259452D02*
X159947332Y-55259452D01*
X183243453Y-59424095D02*
X184065930Y-59424095D01*
X184065930Y-59424095D02*
X184162692Y-59375714D01*
X184162692Y-59375714D02*
X184211073Y-59327333D01*
X184211073Y-59327333D02*
X184259453Y-59230571D01*
X184259453Y-59230571D02*
X184259453Y-59037047D01*
X184259453Y-59037047D02*
X184211073Y-58940285D01*
X184211073Y-58940285D02*
X184162692Y-58891904D01*
X184162692Y-58891904D02*
X184065930Y-58843523D01*
X184065930Y-58843523D02*
X183243453Y-58843523D01*
X183243453Y-58456476D02*
X183243453Y-57827523D01*
X183243453Y-57827523D02*
X183630501Y-58166190D01*
X183630501Y-58166190D02*
X183630501Y-58021047D01*
X183630501Y-58021047D02*
X183678882Y-57924285D01*
X183678882Y-57924285D02*
X183727263Y-57875904D01*
X183727263Y-57875904D02*
X183824025Y-57827523D01*
X183824025Y-57827523D02*
X184065930Y-57827523D01*
X184065930Y-57827523D02*
X184162692Y-57875904D01*
X184162692Y-57875904D02*
X184211073Y-57924285D01*
X184211073Y-57924285D02*
X184259453Y-58021047D01*
X184259453Y-58021047D02*
X184259453Y-58311333D01*
X184259453Y-58311333D02*
X184211073Y-58408095D01*
X184211073Y-58408095D02*
X184162692Y-58456476D01*
X184230667Y-75562692D02*
X184182286Y-75611073D01*
X184182286Y-75611073D02*
X184037143Y-75659453D01*
X184037143Y-75659453D02*
X183940381Y-75659453D01*
X183940381Y-75659453D02*
X183795238Y-75611073D01*
X183795238Y-75611073D02*
X183698476Y-75514311D01*
X183698476Y-75514311D02*
X183650095Y-75417549D01*
X183650095Y-75417549D02*
X183601714Y-75224025D01*
X183601714Y-75224025D02*
X183601714Y-75078882D01*
X183601714Y-75078882D02*
X183650095Y-74885358D01*
X183650095Y-74885358D02*
X183698476Y-74788596D01*
X183698476Y-74788596D02*
X183795238Y-74691834D01*
X183795238Y-74691834D02*
X183940381Y-74643453D01*
X183940381Y-74643453D02*
X184037143Y-74643453D01*
X184037143Y-74643453D02*
X184182286Y-74691834D01*
X184182286Y-74691834D02*
X184230667Y-74740215D01*
X185101524Y-74982120D02*
X185101524Y-75659453D01*
X184859619Y-74595073D02*
X184617714Y-75320787D01*
X184617714Y-75320787D02*
X185246667Y-75320787D01*
X187380667Y-64759453D02*
X187042000Y-64275644D01*
X186800095Y-64759453D02*
X186800095Y-63743453D01*
X186800095Y-63743453D02*
X187187143Y-63743453D01*
X187187143Y-63743453D02*
X187283905Y-63791834D01*
X187283905Y-63791834D02*
X187332286Y-63840215D01*
X187332286Y-63840215D02*
X187380667Y-63936977D01*
X187380667Y-63936977D02*
X187380667Y-64082120D01*
X187380667Y-64082120D02*
X187332286Y-64178882D01*
X187332286Y-64178882D02*
X187283905Y-64227263D01*
X187283905Y-64227263D02*
X187187143Y-64275644D01*
X187187143Y-64275644D02*
X186800095Y-64275644D01*
X187719333Y-63743453D02*
X188348286Y-63743453D01*
X188348286Y-63743453D02*
X188009619Y-64130501D01*
X188009619Y-64130501D02*
X188154762Y-64130501D01*
X188154762Y-64130501D02*
X188251524Y-64178882D01*
X188251524Y-64178882D02*
X188299905Y-64227263D01*
X188299905Y-64227263D02*
X188348286Y-64324025D01*
X188348286Y-64324025D02*
X188348286Y-64565930D01*
X188348286Y-64565930D02*
X188299905Y-64662692D01*
X188299905Y-64662692D02*
X188251524Y-64711073D01*
X188251524Y-64711073D02*
X188154762Y-64759453D01*
X188154762Y-64759453D02*
X187864476Y-64759453D01*
X187864476Y-64759453D02*
X187767714Y-64711073D01*
X187767714Y-64711073D02*
X187719333Y-64662692D01*
X189225904Y-56943453D02*
X189225904Y-57765930D01*
X189225904Y-57765930D02*
X189274285Y-57862692D01*
X189274285Y-57862692D02*
X189322666Y-57911073D01*
X189322666Y-57911073D02*
X189419428Y-57959453D01*
X189419428Y-57959453D02*
X189612952Y-57959453D01*
X189612952Y-57959453D02*
X189709714Y-57911073D01*
X189709714Y-57911073D02*
X189758095Y-57862692D01*
X189758095Y-57862692D02*
X189806476Y-57765930D01*
X189806476Y-57765930D02*
X189806476Y-56943453D01*
X190774095Y-56943453D02*
X190290285Y-56943453D01*
X190290285Y-56943453D02*
X190241904Y-57427263D01*
X190241904Y-57427263D02*
X190290285Y-57378882D01*
X190290285Y-57378882D02*
X190387047Y-57330501D01*
X190387047Y-57330501D02*
X190628952Y-57330501D01*
X190628952Y-57330501D02*
X190725714Y-57378882D01*
X190725714Y-57378882D02*
X190774095Y-57427263D01*
X190774095Y-57427263D02*
X190822476Y-57524025D01*
X190822476Y-57524025D02*
X190822476Y-57765930D01*
X190822476Y-57765930D02*
X190774095Y-57862692D01*
X190774095Y-57862692D02*
X190725714Y-57911073D01*
X190725714Y-57911073D02*
X190628952Y-57959453D01*
X190628952Y-57959453D02*
X190387047Y-57959453D01*
X190387047Y-57959453D02*
X190290285Y-57911073D01*
X190290285Y-57911073D02*
X190241904Y-57862692D01*
X188193453Y-70904095D02*
X189015930Y-70904095D01*
X189015930Y-70904095D02*
X189112692Y-70855714D01*
X189112692Y-70855714D02*
X189161073Y-70807333D01*
X189161073Y-70807333D02*
X189209453Y-70710571D01*
X189209453Y-70710571D02*
X189209453Y-70517047D01*
X189209453Y-70517047D02*
X189161073Y-70420285D01*
X189161073Y-70420285D02*
X189112692Y-70371904D01*
X189112692Y-70371904D02*
X189015930Y-70323523D01*
X189015930Y-70323523D02*
X188193453Y-70323523D01*
X188290215Y-69888095D02*
X188241834Y-69839714D01*
X188241834Y-69839714D02*
X188193453Y-69742952D01*
X188193453Y-69742952D02*
X188193453Y-69501047D01*
X188193453Y-69501047D02*
X188241834Y-69404285D01*
X188241834Y-69404285D02*
X188290215Y-69355904D01*
X188290215Y-69355904D02*
X188386977Y-69307523D01*
X188386977Y-69307523D02*
X188483739Y-69307523D01*
X188483739Y-69307523D02*
X188628882Y-69355904D01*
X188628882Y-69355904D02*
X189209453Y-69936476D01*
X189209453Y-69936476D02*
X189209453Y-69307523D01*
X206411073Y-76604666D02*
X206459453Y-76459523D01*
X206459453Y-76459523D02*
X206459453Y-76217618D01*
X206459453Y-76217618D02*
X206411073Y-76120856D01*
X206411073Y-76120856D02*
X206362692Y-76072475D01*
X206362692Y-76072475D02*
X206265930Y-76024094D01*
X206265930Y-76024094D02*
X206169168Y-76024094D01*
X206169168Y-76024094D02*
X206072406Y-76072475D01*
X206072406Y-76072475D02*
X206024025Y-76120856D01*
X206024025Y-76120856D02*
X205975644Y-76217618D01*
X205975644Y-76217618D02*
X205927263Y-76411142D01*
X205927263Y-76411142D02*
X205878882Y-76507904D01*
X205878882Y-76507904D02*
X205830501Y-76556285D01*
X205830501Y-76556285D02*
X205733739Y-76604666D01*
X205733739Y-76604666D02*
X205636977Y-76604666D01*
X205636977Y-76604666D02*
X205540215Y-76556285D01*
X205540215Y-76556285D02*
X205491834Y-76507904D01*
X205491834Y-76507904D02*
X205443453Y-76411142D01*
X205443453Y-76411142D02*
X205443453Y-76169237D01*
X205443453Y-76169237D02*
X205491834Y-76024094D01*
X205443453Y-75685428D02*
X206459453Y-75443523D01*
X206459453Y-75443523D02*
X205733739Y-75249999D01*
X205733739Y-75249999D02*
X206459453Y-75056475D01*
X206459453Y-75056475D02*
X205443453Y-74814571D01*
X206459453Y-73895332D02*
X206459453Y-74475904D01*
X206459453Y-74185618D02*
X205443453Y-74185618D01*
X205443453Y-74185618D02*
X205588596Y-74282380D01*
X205588596Y-74282380D02*
X205685358Y-74379142D01*
X205685358Y-74379142D02*
X205733739Y-74475904D01*
X143959453Y-57569332D02*
X143475644Y-57907999D01*
X143959453Y-58149904D02*
X142943453Y-58149904D01*
X142943453Y-58149904D02*
X142943453Y-57762856D01*
X142943453Y-57762856D02*
X142991834Y-57666094D01*
X142991834Y-57666094D02*
X143040215Y-57617713D01*
X143040215Y-57617713D02*
X143136977Y-57569332D01*
X143136977Y-57569332D02*
X143282120Y-57569332D01*
X143282120Y-57569332D02*
X143378882Y-57617713D01*
X143378882Y-57617713D02*
X143427263Y-57666094D01*
X143427263Y-57666094D02*
X143475644Y-57762856D01*
X143475644Y-57762856D02*
X143475644Y-58149904D01*
X142943453Y-57230666D02*
X142943453Y-56553332D01*
X142943453Y-56553332D02*
X143959453Y-56988761D01*
X207243453Y-64338666D02*
X207969168Y-64338666D01*
X207969168Y-64338666D02*
X208114311Y-64387047D01*
X208114311Y-64387047D02*
X208211073Y-64483809D01*
X208211073Y-64483809D02*
X208259453Y-64628952D01*
X208259453Y-64628952D02*
X208259453Y-64725714D01*
X207243453Y-63951619D02*
X207243453Y-63322666D01*
X207243453Y-63322666D02*
X207630501Y-63661333D01*
X207630501Y-63661333D02*
X207630501Y-63516190D01*
X207630501Y-63516190D02*
X207678882Y-63419428D01*
X207678882Y-63419428D02*
X207727263Y-63371047D01*
X207727263Y-63371047D02*
X207824025Y-63322666D01*
X207824025Y-63322666D02*
X208065930Y-63322666D01*
X208065930Y-63322666D02*
X208162692Y-63371047D01*
X208162692Y-63371047D02*
X208211073Y-63419428D01*
X208211073Y-63419428D02*
X208259453Y-63516190D01*
X208259453Y-63516190D02*
X208259453Y-63806476D01*
X208259453Y-63806476D02*
X208211073Y-63903238D01*
X208211073Y-63903238D02*
X208162692Y-63951619D01*
X199362692Y-54969332D02*
X199411073Y-55017713D01*
X199411073Y-55017713D02*
X199459453Y-55162856D01*
X199459453Y-55162856D02*
X199459453Y-55259618D01*
X199459453Y-55259618D02*
X199411073Y-55404761D01*
X199411073Y-55404761D02*
X199314311Y-55501523D01*
X199314311Y-55501523D02*
X199217549Y-55549904D01*
X199217549Y-55549904D02*
X199024025Y-55598285D01*
X199024025Y-55598285D02*
X198878882Y-55598285D01*
X198878882Y-55598285D02*
X198685358Y-55549904D01*
X198685358Y-55549904D02*
X198588596Y-55501523D01*
X198588596Y-55501523D02*
X198491834Y-55404761D01*
X198491834Y-55404761D02*
X198443453Y-55259618D01*
X198443453Y-55259618D02*
X198443453Y-55162856D01*
X198443453Y-55162856D02*
X198491834Y-55017713D01*
X198491834Y-55017713D02*
X198540215Y-54969332D01*
X199459453Y-54001713D02*
X199459453Y-54582285D01*
X199459453Y-54291999D02*
X198443453Y-54291999D01*
X198443453Y-54291999D02*
X198588596Y-54388761D01*
X198588596Y-54388761D02*
X198685358Y-54485523D01*
X198685358Y-54485523D02*
X198733739Y-54582285D01*
X181662692Y-55769332D02*
X181711073Y-55817713D01*
X181711073Y-55817713D02*
X181759453Y-55962856D01*
X181759453Y-55962856D02*
X181759453Y-56059618D01*
X181759453Y-56059618D02*
X181711073Y-56204761D01*
X181711073Y-56204761D02*
X181614311Y-56301523D01*
X181614311Y-56301523D02*
X181517549Y-56349904D01*
X181517549Y-56349904D02*
X181324025Y-56398285D01*
X181324025Y-56398285D02*
X181178882Y-56398285D01*
X181178882Y-56398285D02*
X180985358Y-56349904D01*
X180985358Y-56349904D02*
X180888596Y-56301523D01*
X180888596Y-56301523D02*
X180791834Y-56204761D01*
X180791834Y-56204761D02*
X180743453Y-56059618D01*
X180743453Y-56059618D02*
X180743453Y-55962856D01*
X180743453Y-55962856D02*
X180791834Y-55817713D01*
X180791834Y-55817713D02*
X180840215Y-55769332D01*
X180840215Y-55382285D02*
X180791834Y-55333904D01*
X180791834Y-55333904D02*
X180743453Y-55237142D01*
X180743453Y-55237142D02*
X180743453Y-54995237D01*
X180743453Y-54995237D02*
X180791834Y-54898475D01*
X180791834Y-54898475D02*
X180840215Y-54850094D01*
X180840215Y-54850094D02*
X180936977Y-54801713D01*
X180936977Y-54801713D02*
X181033739Y-54801713D01*
X181033739Y-54801713D02*
X181178882Y-54850094D01*
X181178882Y-54850094D02*
X181759453Y-55430666D01*
X181759453Y-55430666D02*
X181759453Y-54801713D01*
X151941333Y-54443452D02*
X151941333Y-55169167D01*
X151941333Y-55169167D02*
X151892952Y-55314310D01*
X151892952Y-55314310D02*
X151796190Y-55411072D01*
X151796190Y-55411072D02*
X151651047Y-55459452D01*
X151651047Y-55459452D02*
X151554285Y-55459452D01*
X152908952Y-54443452D02*
X152425142Y-54443452D01*
X152425142Y-54443452D02*
X152376761Y-54927262D01*
X152376761Y-54927262D02*
X152425142Y-54878881D01*
X152425142Y-54878881D02*
X152521904Y-54830500D01*
X152521904Y-54830500D02*
X152763809Y-54830500D01*
X152763809Y-54830500D02*
X152860571Y-54878881D01*
X152860571Y-54878881D02*
X152908952Y-54927262D01*
X152908952Y-54927262D02*
X152957333Y-55024024D01*
X152957333Y-55024024D02*
X152957333Y-55265929D01*
X152957333Y-55265929D02*
X152908952Y-55362691D01*
X152908952Y-55362691D02*
X152860571Y-55411072D01*
X152860571Y-55411072D02*
X152763809Y-55459452D01*
X152763809Y-55459452D02*
X152521904Y-55459452D01*
X152521904Y-55459452D02*
X152425142Y-55411072D01*
X152425142Y-55411072D02*
X152376761Y-55362691D01*
X166886332Y-54243452D02*
X166886332Y-54969167D01*
X166886332Y-54969167D02*
X166837951Y-55114310D01*
X166837951Y-55114310D02*
X166741189Y-55211072D01*
X166741189Y-55211072D02*
X166596046Y-55259452D01*
X166596046Y-55259452D02*
X166499284Y-55259452D01*
X167902332Y-55259452D02*
X167321760Y-55259452D01*
X167612046Y-55259452D02*
X167612046Y-54243452D01*
X167612046Y-54243452D02*
X167515284Y-54388595D01*
X167515284Y-54388595D02*
X167418522Y-54485357D01*
X167418522Y-54485357D02*
X167321760Y-54533738D01*
X185430667Y-54459453D02*
X185092000Y-53975644D01*
X184850095Y-54459453D02*
X184850095Y-53443453D01*
X184850095Y-53443453D02*
X185237143Y-53443453D01*
X185237143Y-53443453D02*
X185333905Y-53491834D01*
X185333905Y-53491834D02*
X185382286Y-53540215D01*
X185382286Y-53540215D02*
X185430667Y-53636977D01*
X185430667Y-53636977D02*
X185430667Y-53782120D01*
X185430667Y-53782120D02*
X185382286Y-53878882D01*
X185382286Y-53878882D02*
X185333905Y-53927263D01*
X185333905Y-53927263D02*
X185237143Y-53975644D01*
X185237143Y-53975644D02*
X184850095Y-53975644D01*
X186301524Y-53782120D02*
X186301524Y-54459453D01*
X186059619Y-53395073D02*
X185817714Y-54120787D01*
X185817714Y-54120787D02*
X186446667Y-54120787D01*
X181230667Y-61262692D02*
X181182286Y-61311073D01*
X181182286Y-61311073D02*
X181037143Y-61359453D01*
X181037143Y-61359453D02*
X180940381Y-61359453D01*
X180940381Y-61359453D02*
X180795238Y-61311073D01*
X180795238Y-61311073D02*
X180698476Y-61214311D01*
X180698476Y-61214311D02*
X180650095Y-61117549D01*
X180650095Y-61117549D02*
X180601714Y-60924025D01*
X180601714Y-60924025D02*
X180601714Y-60778882D01*
X180601714Y-60778882D02*
X180650095Y-60585358D01*
X180650095Y-60585358D02*
X180698476Y-60488596D01*
X180698476Y-60488596D02*
X180795238Y-60391834D01*
X180795238Y-60391834D02*
X180940381Y-60343453D01*
X180940381Y-60343453D02*
X181037143Y-60343453D01*
X181037143Y-60343453D02*
X181182286Y-60391834D01*
X181182286Y-60391834D02*
X181230667Y-60440215D01*
X181569333Y-60343453D02*
X182198286Y-60343453D01*
X182198286Y-60343453D02*
X181859619Y-60730501D01*
X181859619Y-60730501D02*
X182004762Y-60730501D01*
X182004762Y-60730501D02*
X182101524Y-60778882D01*
X182101524Y-60778882D02*
X182149905Y-60827263D01*
X182149905Y-60827263D02*
X182198286Y-60924025D01*
X182198286Y-60924025D02*
X182198286Y-61165930D01*
X182198286Y-61165930D02*
X182149905Y-61262692D01*
X182149905Y-61262692D02*
X182101524Y-61311073D01*
X182101524Y-61311073D02*
X182004762Y-61359453D01*
X182004762Y-61359453D02*
X181714476Y-61359453D01*
X181714476Y-61359453D02*
X181617714Y-61311073D01*
X181617714Y-61311073D02*
X181569333Y-61262692D01*
X151459453Y-60969332D02*
X150975644Y-61307999D01*
X151459453Y-61549904D02*
X150443453Y-61549904D01*
X150443453Y-61549904D02*
X150443453Y-61162856D01*
X150443453Y-61162856D02*
X150491834Y-61066094D01*
X150491834Y-61066094D02*
X150540215Y-61017713D01*
X150540215Y-61017713D02*
X150636977Y-60969332D01*
X150636977Y-60969332D02*
X150782120Y-60969332D01*
X150782120Y-60969332D02*
X150878882Y-61017713D01*
X150878882Y-61017713D02*
X150927263Y-61066094D01*
X150927263Y-61066094D02*
X150975644Y-61162856D01*
X150975644Y-61162856D02*
X150975644Y-61549904D01*
X150443453Y-60050094D02*
X150443453Y-60533904D01*
X150443453Y-60533904D02*
X150927263Y-60582285D01*
X150927263Y-60582285D02*
X150878882Y-60533904D01*
X150878882Y-60533904D02*
X150830501Y-60437142D01*
X150830501Y-60437142D02*
X150830501Y-60195237D01*
X150830501Y-60195237D02*
X150878882Y-60098475D01*
X150878882Y-60098475D02*
X150927263Y-60050094D01*
X150927263Y-60050094D02*
X151024025Y-60001713D01*
X151024025Y-60001713D02*
X151265930Y-60001713D01*
X151265930Y-60001713D02*
X151362692Y-60050094D01*
X151362692Y-60050094D02*
X151411073Y-60098475D01*
X151411073Y-60098475D02*
X151459453Y-60195237D01*
X151459453Y-60195237D02*
X151459453Y-60437142D01*
X151459453Y-60437142D02*
X151411073Y-60533904D01*
X151411073Y-60533904D02*
X151362692Y-60582285D01*
X141330667Y-57562692D02*
X141282286Y-57611073D01*
X141282286Y-57611073D02*
X141137143Y-57659453D01*
X141137143Y-57659453D02*
X141040381Y-57659453D01*
X141040381Y-57659453D02*
X140895238Y-57611073D01*
X140895238Y-57611073D02*
X140798476Y-57514311D01*
X140798476Y-57514311D02*
X140750095Y-57417549D01*
X140750095Y-57417549D02*
X140701714Y-57224025D01*
X140701714Y-57224025D02*
X140701714Y-57078882D01*
X140701714Y-57078882D02*
X140750095Y-56885358D01*
X140750095Y-56885358D02*
X140798476Y-56788596D01*
X140798476Y-56788596D02*
X140895238Y-56691834D01*
X140895238Y-56691834D02*
X141040381Y-56643453D01*
X141040381Y-56643453D02*
X141137143Y-56643453D01*
X141137143Y-56643453D02*
X141282286Y-56691834D01*
X141282286Y-56691834D02*
X141330667Y-56740215D01*
X142249905Y-56643453D02*
X141766095Y-56643453D01*
X141766095Y-56643453D02*
X141717714Y-57127263D01*
X141717714Y-57127263D02*
X141766095Y-57078882D01*
X141766095Y-57078882D02*
X141862857Y-57030501D01*
X141862857Y-57030501D02*
X142104762Y-57030501D01*
X142104762Y-57030501D02*
X142201524Y-57078882D01*
X142201524Y-57078882D02*
X142249905Y-57127263D01*
X142249905Y-57127263D02*
X142298286Y-57224025D01*
X142298286Y-57224025D02*
X142298286Y-57465930D01*
X142298286Y-57465930D02*
X142249905Y-57562692D01*
X142249905Y-57562692D02*
X142201524Y-57611073D01*
X142201524Y-57611073D02*
X142104762Y-57659453D01*
X142104762Y-57659453D02*
X141862857Y-57659453D01*
X141862857Y-57659453D02*
X141766095Y-57611073D01*
X141766095Y-57611073D02*
X141717714Y-57562692D01*
X150159453Y-60969332D02*
X149675644Y-61307999D01*
X150159453Y-61549904D02*
X149143453Y-61549904D01*
X149143453Y-61549904D02*
X149143453Y-61162856D01*
X149143453Y-61162856D02*
X149191834Y-61066094D01*
X149191834Y-61066094D02*
X149240215Y-61017713D01*
X149240215Y-61017713D02*
X149336977Y-60969332D01*
X149336977Y-60969332D02*
X149482120Y-60969332D01*
X149482120Y-60969332D02*
X149578882Y-61017713D01*
X149578882Y-61017713D02*
X149627263Y-61066094D01*
X149627263Y-61066094D02*
X149675644Y-61162856D01*
X149675644Y-61162856D02*
X149675644Y-61549904D01*
X149143453Y-60098475D02*
X149143453Y-60291999D01*
X149143453Y-60291999D02*
X149191834Y-60388761D01*
X149191834Y-60388761D02*
X149240215Y-60437142D01*
X149240215Y-60437142D02*
X149385358Y-60533904D01*
X149385358Y-60533904D02*
X149578882Y-60582285D01*
X149578882Y-60582285D02*
X149965930Y-60582285D01*
X149965930Y-60582285D02*
X150062692Y-60533904D01*
X150062692Y-60533904D02*
X150111073Y-60485523D01*
X150111073Y-60485523D02*
X150159453Y-60388761D01*
X150159453Y-60388761D02*
X150159453Y-60195237D01*
X150159453Y-60195237D02*
X150111073Y-60098475D01*
X150111073Y-60098475D02*
X150062692Y-60050094D01*
X150062692Y-60050094D02*
X149965930Y-60001713D01*
X149965930Y-60001713D02*
X149724025Y-60001713D01*
X149724025Y-60001713D02*
X149627263Y-60050094D01*
X149627263Y-60050094D02*
X149578882Y-60098475D01*
X149578882Y-60098475D02*
X149530501Y-60195237D01*
X149530501Y-60195237D02*
X149530501Y-60388761D01*
X149530501Y-60388761D02*
X149578882Y-60485523D01*
X149578882Y-60485523D02*
X149627263Y-60533904D01*
X149627263Y-60533904D02*
X149724025Y-60582285D01*
X206143453Y-55588666D02*
X206869168Y-55588666D01*
X206869168Y-55588666D02*
X207014311Y-55637047D01*
X207014311Y-55637047D02*
X207111073Y-55733809D01*
X207111073Y-55733809D02*
X207159453Y-55878952D01*
X207159453Y-55878952D02*
X207159453Y-55975714D01*
X206482120Y-54669428D02*
X207159453Y-54669428D01*
X206095073Y-54911333D02*
X206820787Y-55153238D01*
X206820787Y-55153238D02*
X206820787Y-54524285D01*
X193411073Y-79354666D02*
X193459453Y-79209523D01*
X193459453Y-79209523D02*
X193459453Y-78967618D01*
X193459453Y-78967618D02*
X193411073Y-78870856D01*
X193411073Y-78870856D02*
X193362692Y-78822475D01*
X193362692Y-78822475D02*
X193265930Y-78774094D01*
X193265930Y-78774094D02*
X193169168Y-78774094D01*
X193169168Y-78774094D02*
X193072406Y-78822475D01*
X193072406Y-78822475D02*
X193024025Y-78870856D01*
X193024025Y-78870856D02*
X192975644Y-78967618D01*
X192975644Y-78967618D02*
X192927263Y-79161142D01*
X192927263Y-79161142D02*
X192878882Y-79257904D01*
X192878882Y-79257904D02*
X192830501Y-79306285D01*
X192830501Y-79306285D02*
X192733739Y-79354666D01*
X192733739Y-79354666D02*
X192636977Y-79354666D01*
X192636977Y-79354666D02*
X192540215Y-79306285D01*
X192540215Y-79306285D02*
X192491834Y-79257904D01*
X192491834Y-79257904D02*
X192443453Y-79161142D01*
X192443453Y-79161142D02*
X192443453Y-78919237D01*
X192443453Y-78919237D02*
X192491834Y-78774094D01*
X192443453Y-78435428D02*
X193459453Y-78193523D01*
X193459453Y-78193523D02*
X192733739Y-77999999D01*
X192733739Y-77999999D02*
X193459453Y-77806475D01*
X193459453Y-77806475D02*
X192443453Y-77564571D01*
X192782120Y-76742094D02*
X193459453Y-76742094D01*
X192395073Y-76983999D02*
X193120787Y-77225904D01*
X193120787Y-77225904D02*
X193120787Y-76596951D01*
X187409453Y-79269332D02*
X186925644Y-79607999D01*
X187409453Y-79849904D02*
X186393453Y-79849904D01*
X186393453Y-79849904D02*
X186393453Y-79462856D01*
X186393453Y-79462856D02*
X186441834Y-79366094D01*
X186441834Y-79366094D02*
X186490215Y-79317713D01*
X186490215Y-79317713D02*
X186586977Y-79269332D01*
X186586977Y-79269332D02*
X186732120Y-79269332D01*
X186732120Y-79269332D02*
X186828882Y-79317713D01*
X186828882Y-79317713D02*
X186877263Y-79366094D01*
X186877263Y-79366094D02*
X186925644Y-79462856D01*
X186925644Y-79462856D02*
X186925644Y-79849904D01*
X187409453Y-78301713D02*
X187409453Y-78882285D01*
X187409453Y-78591999D02*
X186393453Y-78591999D01*
X186393453Y-78591999D02*
X186538596Y-78688761D01*
X186538596Y-78688761D02*
X186635358Y-78785523D01*
X186635358Y-78785523D02*
X186683739Y-78882285D01*
X192930667Y-59659453D02*
X192592000Y-59175644D01*
X192350095Y-59659453D02*
X192350095Y-58643453D01*
X192350095Y-58643453D02*
X192737143Y-58643453D01*
X192737143Y-58643453D02*
X192833905Y-58691834D01*
X192833905Y-58691834D02*
X192882286Y-58740215D01*
X192882286Y-58740215D02*
X192930667Y-58836977D01*
X192930667Y-58836977D02*
X192930667Y-58982120D01*
X192930667Y-58982120D02*
X192882286Y-59078882D01*
X192882286Y-59078882D02*
X192833905Y-59127263D01*
X192833905Y-59127263D02*
X192737143Y-59175644D01*
X192737143Y-59175644D02*
X192350095Y-59175644D01*
X193317714Y-58740215D02*
X193366095Y-58691834D01*
X193366095Y-58691834D02*
X193462857Y-58643453D01*
X193462857Y-58643453D02*
X193704762Y-58643453D01*
X193704762Y-58643453D02*
X193801524Y-58691834D01*
X193801524Y-58691834D02*
X193849905Y-58740215D01*
X193849905Y-58740215D02*
X193898286Y-58836977D01*
X193898286Y-58836977D02*
X193898286Y-58933739D01*
X193898286Y-58933739D02*
X193849905Y-59078882D01*
X193849905Y-59078882D02*
X193269333Y-59659453D01*
X193269333Y-59659453D02*
X193898286Y-59659453D01*
D11*
X142850000Y-52135000D02*
G75*
G02*
X142750000Y-52135000I-50000J0D01*
G01*
X142750000Y-52135000D02*
G75*
G02*
X142850000Y-52135000I50000J0D01*
G01*
D12*
X138721600Y-67190000D02*
X138721600Y-74810000D01*
X138721600Y-74810000D02*
X139991600Y-74810000D01*
X139991600Y-62110000D02*
X139991600Y-79890000D01*
X139991600Y-67190000D02*
X138721600Y-67190000D01*
X139991600Y-79890000D02*
X175551600Y-79890000D01*
X175551600Y-62110000D02*
X139991600Y-62110000D01*
X175551600Y-79890000D02*
X175551600Y-62110000D01*
D13*
X194938747Y-61265000D02*
X195461253Y-61265000D01*
X194938747Y-62735000D02*
X195461253Y-62735000D01*
X188625000Y-64815000D02*
X189250000Y-64815000D01*
X188937500Y-64502500D02*
X188937500Y-65127500D01*
X189490000Y-64804437D02*
X189490000Y-65440000D01*
X189490000Y-64804437D02*
X190554437Y-63740000D01*
X189490000Y-68195563D02*
X189490000Y-67560000D01*
X189490000Y-68195563D02*
X190554437Y-69260000D01*
X190554437Y-63740000D02*
X195010000Y-63740000D01*
X190554437Y-69260000D02*
X195010000Y-69260000D01*
X195010000Y-63740000D02*
X195010000Y-65440000D01*
X195010000Y-69260000D02*
X195010000Y-67560000D01*
X155789999Y-52840000D02*
X159274999Y-52840000D01*
X155789999Y-58560000D02*
X155789999Y-52840000D01*
X156859999Y-58260000D02*
X156859999Y-58560000D01*
X156859999Y-58560000D02*
X155789999Y-58560000D01*
X159274999Y-58260000D02*
X156859999Y-58260000D01*
X159274999Y-58260000D02*
X161689999Y-58260000D01*
X161399999Y-58550000D02*
X161399999Y-58850000D01*
X161399999Y-58850000D02*
X161899999Y-58850000D01*
X161689999Y-58260000D02*
X161689999Y-58560000D01*
X161689999Y-58560000D02*
X162759999Y-58560000D01*
X162759999Y-52840000D02*
X159274999Y-52840000D01*
X162759999Y-58560000D02*
X162759999Y-52840000D01*
D12*
X184724999Y-58125000D02*
X184899999Y-58125000D01*
X184724999Y-61375000D02*
X184724999Y-58125000D01*
X184724999Y-61375000D02*
X184899999Y-61375000D01*
X187799999Y-58125000D02*
X187974999Y-58125000D01*
X187799999Y-61375000D02*
X187974999Y-61375000D01*
X187974999Y-61375000D02*
X187974999Y-58125000D01*
D13*
X184899999Y-61850000D02*
X184569999Y-62090000D01*
X184569999Y-61610001D01*
X184899999Y-61850000D01*
G36*
X184899999Y-61850000D02*
G01*
X184569999Y-62090000D01*
X184569999Y-61610001D01*
X184899999Y-61850000D01*
G37*
X181515000Y-76151247D02*
X181515000Y-76673753D01*
X182985000Y-76151247D02*
X182985000Y-76673753D01*
X190272936Y-61265000D02*
X190727064Y-61265000D01*
X190272936Y-62735000D02*
X190727064Y-62735000D01*
X190000000Y-53439999D02*
X189200000Y-53440000D01*
X190000000Y-53439999D02*
X190800000Y-53440000D01*
X190000000Y-56560001D02*
X189200000Y-56560000D01*
X190000000Y-56560001D02*
X190800000Y-56560000D01*
X191540000Y-56840000D02*
X191060000Y-56840000D01*
X191300000Y-56510000D01*
X191540000Y-56840000D01*
G36*
X191540000Y-56840000D02*
G01*
X191060000Y-56840000D01*
X191300000Y-56510000D01*
X191540000Y-56840000D01*
G37*
D14*
X180925000Y-72330000D02*
X180925000Y-67930000D01*
X187825000Y-72330000D02*
X187825000Y-67930000D01*
D15*
X181550000Y-74320000D02*
G75*
G02*
X181350000Y-74320000I-100000J0D01*
G01*
X181350000Y-74320000D02*
G75*
G02*
X181550000Y-74320000I100000J0D01*
G01*
D11*
X208850000Y-77750000D02*
X211350000Y-77750000D01*
X211350000Y-72750000D01*
X208850000Y-72750000D01*
X208850000Y-77750000D01*
X208850000Y-80150000D02*
X198950000Y-80150000D01*
X208850000Y-77750000D02*
X208850000Y-80150000D01*
X208850000Y-70350000D02*
X208850000Y-72750000D01*
X198950000Y-80150000D02*
X198950000Y-79250000D01*
X198950000Y-70350000D02*
X208850000Y-70350000D01*
X198950000Y-70350000D02*
X198950000Y-71250000D01*
D13*
X143265000Y-59772936D02*
X143265000Y-60227064D01*
X144735000Y-59772936D02*
X144735000Y-60227064D01*
X199617500Y-61200000D02*
X199617500Y-61800000D01*
X199617500Y-61800000D02*
X200217500Y-61500000D01*
X200107500Y-58890000D02*
X208527500Y-58890000D01*
X200107500Y-67890000D02*
X202307500Y-67890000D01*
X200107500Y-69110001D02*
X200107500Y-67890000D01*
X200107501Y-60110000D02*
X200107500Y-58890000D01*
X200217500Y-61500000D02*
X199617500Y-61200000D01*
X202307500Y-60110001D02*
X200107501Y-60110000D01*
X202307500Y-60110001D02*
X202307500Y-58890000D01*
X202307500Y-62670000D02*
X202307500Y-62830000D01*
X202307500Y-65170000D02*
X202307500Y-65330000D01*
X202307500Y-67890000D02*
X202307500Y-69110001D01*
X203307500Y-60110000D02*
X203307500Y-67890000D01*
X203307500Y-61180000D02*
X206727500Y-61180000D01*
X203307500Y-61500000D02*
X203307500Y-61180000D01*
X203307500Y-61820000D02*
X203307500Y-61500000D01*
X203307500Y-63680000D02*
X206727500Y-63680000D01*
X203307500Y-64000000D02*
X203307500Y-63680000D01*
X203307500Y-64320000D02*
X203307500Y-64000000D01*
X203307500Y-66180000D02*
X206727500Y-66180000D01*
X203307500Y-66500000D02*
X203307500Y-66180000D01*
X203307500Y-66820000D02*
X203307500Y-66500000D01*
X206727500Y-61180000D02*
X206807501Y-61500000D01*
X206727500Y-61820000D02*
X203307500Y-61820000D01*
X206727500Y-63680000D02*
X206807500Y-63999999D01*
X206727500Y-64320000D02*
X203307500Y-64320000D01*
X206727500Y-66180000D02*
X206807500Y-66499999D01*
X206727500Y-66820000D02*
X203307500Y-66820000D01*
X206807500Y-63999999D02*
X206727500Y-64320000D01*
X206807500Y-66499999D02*
X206727500Y-66820000D01*
X206807501Y-61500000D02*
X206727500Y-61820000D01*
X207307499Y-60110000D02*
X202307500Y-60110001D01*
X207307500Y-58890000D02*
X207307499Y-60110000D01*
X207307500Y-67890000D02*
X202307500Y-67890000D01*
X207307500Y-69110001D02*
X207307500Y-67890000D01*
X208527500Y-58890000D02*
X208527500Y-69110000D01*
X208527500Y-69110000D02*
X200107500Y-69110001D01*
X199965000Y-55551247D02*
X199965000Y-56073753D01*
X201435000Y-55551247D02*
X201435000Y-56073753D01*
X181265000Y-58723753D02*
X181265000Y-58201247D01*
X182735000Y-58723753D02*
X182735000Y-58201247D01*
D11*
X141850000Y-52135000D02*
G75*
G02*
X141750000Y-52135000I-50000J0D01*
G01*
X141750000Y-52135000D02*
G75*
G02*
X141850000Y-52135000I50000J0D01*
G01*
D13*
X150040000Y-52840000D02*
X152275000Y-52840000D01*
X150040000Y-58560000D02*
X150040000Y-52840000D01*
X151110000Y-58260000D02*
X151110000Y-58560000D01*
X151110000Y-58560000D02*
X150040000Y-58560000D01*
X152275000Y-58260000D02*
X151110000Y-58260000D01*
X152275000Y-58260000D02*
X153440000Y-58260000D01*
X153150000Y-58550000D02*
X153150000Y-58850000D01*
X153150000Y-58850000D02*
X153650000Y-58850000D01*
X153440000Y-58260000D02*
X153440000Y-58560000D01*
X153440000Y-58560000D02*
X154510000Y-58560000D01*
X154510000Y-52840000D02*
X152275000Y-52840000D01*
X154510000Y-58560000D02*
X154510000Y-52840000D01*
X163789999Y-52840000D02*
X167274999Y-52840000D01*
X163789999Y-58560000D02*
X163789999Y-52840000D01*
X164859999Y-58260000D02*
X164859999Y-58560000D01*
X164859999Y-58560000D02*
X163789999Y-58560000D01*
X167274999Y-58260000D02*
X164859999Y-58260000D01*
X167274999Y-58260000D02*
X169689999Y-58260000D01*
X169399999Y-58550000D02*
X169399999Y-58850000D01*
X169399999Y-58850000D02*
X169899999Y-58850000D01*
X169689999Y-58260000D02*
X169689999Y-58560000D01*
X169689999Y-58560000D02*
X170759999Y-58560000D01*
X170759999Y-52840000D02*
X167274999Y-52840000D01*
X170759999Y-58560000D02*
X170759999Y-52840000D01*
X185372936Y-54665000D02*
X185827064Y-54665000D01*
X185372936Y-56135000D02*
X185827064Y-56135000D01*
X181515000Y-63738747D02*
X181515000Y-64261253D01*
X182985000Y-63738747D02*
X182985000Y-64261253D01*
X147265000Y-59772936D02*
X147265000Y-60227064D01*
X148735000Y-59772936D02*
X148735000Y-60227064D01*
X140765000Y-60261253D02*
X140765000Y-59738747D01*
X142235000Y-60261253D02*
X142235000Y-59738747D01*
X145265000Y-59772936D02*
X145265000Y-60227064D01*
X146735000Y-59772936D02*
X146735000Y-60227064D01*
X202450000Y-56750000D02*
X202450000Y-57250000D01*
X202740000Y-52390000D02*
X208460000Y-52390000D01*
X202740000Y-57040000D02*
X202740000Y-58110000D01*
X202740000Y-58110000D02*
X208460000Y-58110000D01*
X202740001Y-53460000D02*
X202740000Y-52390000D01*
X202750000Y-56750000D02*
X202450000Y-56750000D01*
X203040000Y-53460000D02*
X202740001Y-53460000D01*
X203040000Y-55250000D02*
X203040000Y-53460000D01*
X203040000Y-55250000D02*
X203040000Y-57040000D01*
X203040000Y-57040000D02*
X202740000Y-57040000D01*
X208460000Y-52390000D02*
X208459999Y-55250000D01*
X208460000Y-58110000D02*
X208459999Y-55250000D01*
D11*
X196700000Y-80300000D02*
X196700000Y-76600000D01*
X196700000Y-74400000D02*
X189300000Y-74400000D01*
X194500000Y-81700000D02*
X191500000Y-81700000D01*
X194500000Y-80300000D02*
X194500000Y-81700000D01*
X191500000Y-81700000D02*
X191500000Y-80300000D01*
X189300000Y-80300000D02*
X196700000Y-80300000D01*
X189300000Y-76600000D02*
X189300000Y-80300000D01*
X140850000Y-52135000D02*
G75*
G02*
X140750000Y-52135000I-50000J0D01*
G01*
X140750000Y-52135000D02*
G75*
G02*
X140850000Y-52135000I50000J0D01*
G01*
D13*
X186265001Y-76639564D02*
X186265001Y-76185436D01*
X187735001Y-76639564D02*
X187735001Y-76185436D01*
X190272936Y-59265000D02*
X190727064Y-59265000D01*
X190272936Y-60735000D02*
X190727064Y-60735000D01*
%LPC*%
D16*
X142800000Y-52827499D03*
X142800000Y-53972501D03*
D17*
X141261600Y-78620000D03*
X143801600Y-78620000D03*
X146341600Y-78620000D03*
X148881600Y-78620000D03*
X151421600Y-78620000D03*
X153961600Y-78620000D03*
D18*
X156501600Y-78620000D03*
X159041600Y-78620000D03*
X161581600Y-78620000D03*
X164121600Y-78620000D03*
D17*
X166661600Y-78620000D03*
D18*
X169201600Y-78620000D03*
X171741600Y-78620000D03*
X174281600Y-78620000D03*
X174281601Y-76080000D03*
X174281600Y-73540000D03*
X174281600Y-71000000D03*
X174281600Y-68460000D03*
X174281601Y-65920000D03*
X174281600Y-63380000D03*
D17*
X171741600Y-63380000D03*
X169201600Y-63380000D03*
X166661600Y-63380000D03*
X164121600Y-63380000D03*
X161581600Y-63380000D03*
X159041600Y-63380000D03*
X156501600Y-63380000D03*
X153961600Y-63380000D03*
X151421600Y-63380000D03*
X148881600Y-63380000D03*
X146341600Y-63380000D03*
X143801600Y-63380000D03*
X141261600Y-63380000D03*
D19*
X169201600Y-65920000D03*
D20*
X166661600Y-65920000D03*
D19*
X169201600Y-68460000D03*
D20*
X166661600Y-68460000D03*
D19*
X169201601Y-71000000D03*
D20*
X166661599Y-71000000D03*
D19*
X169201600Y-73540000D03*
D20*
X166661600Y-73540000D03*
D19*
X169201600Y-76080000D03*
D20*
X166661600Y-76080000D03*
D21*
X194162500Y-62000000D03*
X196237500Y-62000000D03*
D22*
X178750000Y-77000000D03*
D23*
X190050000Y-66500000D03*
X194450000Y-66500000D03*
D24*
X161149999Y-57400000D03*
X159900000Y-57400000D03*
D25*
X158649999Y-57400000D03*
D24*
X157400000Y-57400000D03*
D26*
X185374998Y-61900000D03*
X186024999Y-61900000D03*
X186674999Y-61900000D03*
X187325000Y-61900000D03*
X187325000Y-57600000D03*
X186674999Y-57600000D03*
X186024999Y-57600000D03*
X185374998Y-57600000D03*
D27*
X182250000Y-75375000D03*
X182250000Y-77450000D03*
D28*
X189587500Y-62000000D03*
X191412500Y-62000000D03*
D29*
X191137500Y-55949999D03*
X191137500Y-55000000D03*
X191137500Y-54050001D03*
X188862500Y-54050001D03*
X188862500Y-55949999D03*
D30*
X181450000Y-73000000D03*
X182100000Y-73000000D03*
X182750000Y-73000000D03*
X183400000Y-73000000D03*
X184050000Y-73000000D03*
X184700000Y-73000000D03*
X185350000Y-73000000D03*
X186000000Y-73000000D03*
X186650000Y-73000000D03*
X187300000Y-73000000D03*
X187300000Y-67260000D03*
X186650000Y-67260000D03*
X186000000Y-67260000D03*
X185350000Y-67260000D03*
X184700000Y-67260000D03*
X184050000Y-67260000D03*
X183400000Y-67260000D03*
X182750000Y-67260000D03*
X182100000Y-67260000D03*
X181450000Y-67260000D03*
D17*
X198950000Y-72710000D03*
X198950000Y-77790000D03*
X204030000Y-72710000D03*
X204030000Y-77790000D03*
D31*
X144000000Y-59087500D03*
X144000000Y-60912500D03*
D32*
X201717500Y-61500000D03*
D33*
X201717500Y-64000000D03*
X201717500Y-66500000D03*
D27*
X200700000Y-54775000D03*
X200700000Y-56850000D03*
D34*
X182000000Y-59500000D03*
X182000000Y-57425000D03*
D16*
X141800000Y-52827499D03*
X141800000Y-53972501D03*
D25*
X152900000Y-57400000D03*
D24*
X151650000Y-57400000D03*
X169149999Y-57400000D03*
X167900000Y-57400000D03*
D25*
X166649999Y-57400000D03*
D24*
X165400000Y-57400000D03*
D28*
X184687500Y-55400000D03*
X186512500Y-55400000D03*
D27*
X182250000Y-62962500D03*
X182250000Y-65037500D03*
D31*
X148000000Y-59087500D03*
X148000000Y-60912500D03*
D22*
X174000000Y-56000000D03*
D34*
X141500000Y-61037500D03*
X141500000Y-58962500D03*
D22*
X146000000Y-56000000D03*
D31*
X146000000Y-59087500D03*
X146000000Y-60912500D03*
D35*
X203900000Y-56500000D03*
D36*
X203900000Y-55250001D03*
D35*
X203900000Y-54000000D03*
D37*
X195500000Y-78000000D03*
X190500000Y-78000000D03*
X196500000Y-75500000D03*
X189500000Y-75500000D03*
D16*
X140800000Y-52827499D03*
X140800000Y-53972501D03*
D38*
X187000001Y-77325000D03*
X187000001Y-75500000D03*
D28*
X189587500Y-60000000D03*
X191412500Y-60000000D03*
D39*
X178980000Y-71620000D03*
X178980000Y-69080000D03*
X178980000Y-66540000D03*
X178980000Y-64000000D03*
X178980000Y-61460000D03*
X178980000Y-58920000D03*
X178980000Y-56380000D03*
D22*
X194220000Y-56380000D03*
X194220000Y-71620000D03*
%LPD*%
M02*
