G04 #@! TF.GenerationSoftware,KiCad,Pcbnew,8.0.5-8.0.5-0~ubuntu20.04.1*
G04 #@! TF.CreationDate,2025-03-19T18:53:30-05:00*
G04 #@! TF.ProjectId,Alex_Teensy4_PCB,416c6578-5f54-4656-956e-7379345f5043,rev?*
G04 #@! TF.SameCoordinates,Original*
G04 #@! TF.FileFunction,Paste,Top*
G04 #@! TF.FilePolarity,Positive*
%FSLAX46Y46*%
G04 Gerber Fmt 4.6, Leading zero omitted, Abs format (unit mm)*
G04 Created by KiCad (PCBNEW 8.0.5-8.0.5-0~ubuntu20.04.1) date 2025-03-19 18:53:30*
%MOMM*%
%LPD*%
G01*
G04 APERTURE LIST*
G04 Aperture macros list*
%AMRoundRect*
0 Rectangle with rounded corners*
0 $1 Rounding radius*
0 $2 $3 $4 $5 $6 $7 $8 $9 X,Y pos of 4 corners*
0 Add a 4 corners polygon primitive as box body*
4,1,4,$2,$3,$4,$5,$6,$7,$8,$9,$2,$3,0*
0 Add four circle primitives for the rounded corners*
1,1,$1+$1,$2,$3*
1,1,$1+$1,$4,$5*
1,1,$1+$1,$6,$7*
1,1,$1+$1,$8,$9*
0 Add four rect primitives between the rounded corners*
20,1,$1+$1,$2,$3,$4,$5,0*
20,1,$1+$1,$4,$5,$6,$7,0*
20,1,$1+$1,$6,$7,$8,$9,0*
20,1,$1+$1,$8,$9,$2,$3,0*%
G04 Aperture macros list end*
%ADD10RoundRect,0.160000X-0.160000X0.222500X-0.160000X-0.222500X0.160000X-0.222500X0.160000X0.222500X0*%
%ADD11RoundRect,0.250000X-0.337500X-0.475000X0.337500X-0.475000X0.337500X0.475000X-0.337500X0.475000X0*%
%ADD12RoundRect,0.250000X-1.250000X-0.550000X1.250000X-0.550000X1.250000X0.550000X-1.250000X0.550000X0*%
%ADD13R,0.400000X1.100000*%
%ADD14RoundRect,0.250000X-0.475000X0.337500X-0.475000X-0.337500X0.475000X-0.337500X0.475000X0.337500X0*%
%ADD15RoundRect,0.250000X-0.262500X-0.450000X0.262500X-0.450000X0.262500X0.450000X-0.262500X0.450000X0*%
%ADD16RoundRect,0.150000X0.512500X0.150000X-0.512500X0.150000X-0.512500X-0.150000X0.512500X-0.150000X0*%
%ADD17RoundRect,0.051250X0.153750X-0.733750X0.153750X0.733750X-0.153750X0.733750X-0.153750X-0.733750X0*%
%ADD18RoundRect,0.250000X-0.450000X0.262500X-0.450000X-0.262500X0.450000X-0.262500X0.450000X0.262500X0*%
%ADD19RoundRect,0.250000X0.475000X-0.337500X0.475000X0.337500X-0.475000X0.337500X-0.475000X-0.337500X0*%
%ADD20RoundRect,0.250000X0.450000X-0.262500X0.450000X0.262500X-0.450000X0.262500X-0.450000X-0.262500X0*%
G04 APERTURE END LIST*
D10*
X142800000Y-52827499D03*
X142800000Y-53972501D03*
D11*
X194162500Y-62000000D03*
X196237500Y-62000000D03*
D12*
X190050000Y-66500000D03*
X194450000Y-66500000D03*
D13*
X185374998Y-61900000D03*
X186024999Y-61900000D03*
X186674999Y-61900000D03*
X187325000Y-61900000D03*
X187325000Y-57600000D03*
X186674999Y-57600000D03*
X186024999Y-57600000D03*
X185374998Y-57600000D03*
D14*
X182250000Y-75375000D03*
X182250000Y-77450000D03*
D15*
X189587500Y-62000000D03*
X191412500Y-62000000D03*
D16*
X191137500Y-55949999D03*
X191137500Y-55000000D03*
X191137500Y-54050001D03*
X188862500Y-54050001D03*
X188862500Y-55949999D03*
D17*
X181450000Y-73000000D03*
X182100000Y-73000000D03*
X182750000Y-73000000D03*
X183400000Y-73000000D03*
X184050000Y-73000000D03*
X184700000Y-73000000D03*
X185350000Y-73000000D03*
X186000000Y-73000000D03*
X186650000Y-73000000D03*
X187300000Y-73000000D03*
X187300000Y-67260000D03*
X186650000Y-67260000D03*
X186000000Y-67260000D03*
X185350000Y-67260000D03*
X184700000Y-67260000D03*
X184050000Y-67260000D03*
X183400000Y-67260000D03*
X182750000Y-67260000D03*
X182100000Y-67260000D03*
X181450000Y-67260000D03*
D18*
X144000000Y-59087500D03*
X144000000Y-60912500D03*
D14*
X200700000Y-54775000D03*
X200700000Y-56850000D03*
D19*
X182000000Y-59500000D03*
X182000000Y-57425000D03*
D10*
X141800000Y-52827499D03*
X141800000Y-53972501D03*
D15*
X184687500Y-55400000D03*
X186512500Y-55400000D03*
D14*
X182250000Y-62962500D03*
X182250000Y-65037500D03*
D18*
X148000000Y-59087500D03*
X148000000Y-60912500D03*
D19*
X141500000Y-61037500D03*
X141500000Y-58962500D03*
D18*
X146000000Y-59087500D03*
X146000000Y-60912500D03*
D10*
X140800000Y-52827499D03*
X140800000Y-53972501D03*
D20*
X187000001Y-77325000D03*
X187000001Y-75500000D03*
D15*
X189587500Y-60000000D03*
X191412500Y-60000000D03*
M02*
