G04 #@! TF.GenerationSoftware,KiCad,Pcbnew,8.0.9-8.0.9-0~ubuntu20.04.1*
G04 #@! TF.CreationDate,2025-04-11T16:54:26-05:00*
G04 #@! TF.ProjectId,Alex_Teensy4_PCB,416c6578-5f54-4656-956e-7379345f5043,rev?*
G04 #@! TF.SameCoordinates,Original*
G04 #@! TF.FileFunction,Legend,Top*
G04 #@! TF.FilePolarity,Positive*
%FSLAX46Y46*%
G04 Gerber Fmt 4.6, Leading zero omitted, Abs format (unit mm)*
G04 Created by KiCad (PCBNEW 8.0.9-8.0.9-0~ubuntu20.04.1) date 2025-04-11 16:54:26*
%MOMM*%
%LPD*%
G01*
G04 APERTURE LIST*
G04 Aperture macros list*
%AMRoundRect*
0 Rectangle with rounded corners*
0 $1 Rounding radius*
0 $2 $3 $4 $5 $6 $7 $8 $9 X,Y pos of 4 corners*
0 Add a 4 corners polygon primitive as box body*
4,1,4,$2,$3,$4,$5,$6,$7,$8,$9,$2,$3,0*
0 Add four circle primitives for the rounded corners*
1,1,$1+$1,$2,$3*
1,1,$1+$1,$4,$5*
1,1,$1+$1,$6,$7*
1,1,$1+$1,$8,$9*
0 Add four rect primitives between the rounded corners*
20,1,$1+$1,$2,$3,$4,$5,0*
20,1,$1+$1,$4,$5,$6,$7,0*
20,1,$1+$1,$6,$7,$8,$9,0*
20,1,$1+$1,$8,$9,$2,$3,0*%
%AMRotRect*
0 Rectangle, with rotation*
0 The origin of the aperture is its center*
0 $1 length*
0 $2 width*
0 $3 Rotation angle, in degrees counterclockwise*
0 Add horizontal line*
21,1,$1,$2,0,0,$3*%
%AMOutline5P*
0 Free polygon, 5 corners , with rotation*
0 The origin of the aperture is its center*
0 number of corners: always 5*
0 $1 to $10 corner X, Y*
0 $11 Rotation angle, in degrees counterclockwise*
0 create outline with 5 corners*
4,1,5,$1,$2,$3,$4,$5,$6,$7,$8,$9,$10,$1,$2,$11*%
%AMOutline6P*
0 Free polygon, 6 corners , with rotation*
0 The origin of the aperture is its center*
0 number of corners: always 6*
0 $1 to $12 corner X, Y*
0 $13 Rotation angle, in degrees counterclockwise*
0 create outline with 6 corners*
4,1,6,$1,$2,$3,$4,$5,$6,$7,$8,$9,$10,$11,$12,$1,$2,$13*%
%AMOutline7P*
0 Free polygon, 7 corners , with rotation*
0 The origin of the aperture is its center*
0 number of corners: always 7*
0 $1 to $14 corner X, Y*
0 $15 Rotation angle, in degrees counterclockwise*
0 create outline with 7 corners*
4,1,7,$1,$2,$3,$4,$5,$6,$7,$8,$9,$10,$11,$12,$13,$14,$1,$2,$15*%
%AMOutline8P*
0 Free polygon, 8 corners , with rotation*
0 The origin of the aperture is its center*
0 number of corners: always 8*
0 $1 to $16 corner X, Y*
0 $17 Rotation angle, in degrees counterclockwise*
0 create outline with 8 corners*
4,1,8,$1,$2,$3,$4,$5,$6,$7,$8,$9,$10,$11,$12,$13,$14,$15,$16,$1,$2,$17*%
%AMFreePoly0*
4,1,18,-0.550000,0.000000,-0.350000,0.200000,0.430000,0.200000,0.475922,0.190866,0.514853,0.164853,0.540866,0.125922,0.550000,0.080000,0.550000,-0.080000,0.540866,-0.125922,0.514853,-0.164853,0.475922,-0.190866,0.430000,-0.200000,-0.430000,-0.200000,-0.475922,-0.190866,-0.514853,-0.164853,-0.540866,-0.125922,-0.550000,-0.080000,-0.550000,0.000000,-0.550000,0.000000,$1*%
%AMFreePoly1*
4,1,18,-0.624989,0.100000,-0.617377,0.138268,-0.595700,0.170711,-0.563257,0.192388,-0.524989,0.200000,0.524989,0.200000,0.563257,0.192388,0.595700,0.170711,0.617377,0.138268,0.624989,0.100000,0.624989,0.000000,0.424989,-0.200000,-0.524989,-0.200000,-0.563257,-0.192388,-0.595700,-0.170711,-0.617377,-0.138268,-0.624989,-0.100000,-0.624989,0.100000,-0.624989,0.100000,$1*%
%AMFreePoly2*
4,1,18,-0.550000,0.080000,-0.540866,0.125922,-0.514853,0.164853,-0.475922,0.190866,-0.430000,0.200000,0.430000,0.200000,0.475922,0.190866,0.514853,0.164853,0.540866,0.125922,0.550000,0.080000,0.550000,-0.080000,0.540866,-0.125922,0.514853,-0.164853,0.475922,-0.190866,0.430000,-0.200000,-0.350000,-0.200000,-0.550000,0.000000,-0.550000,0.080000,-0.550000,0.080000,$1*%
%AMFreePoly3*
4,1,18,-0.550000,0.080000,-0.540866,0.125922,-0.514853,0.164853,-0.475922,0.190866,-0.430000,0.200000,0.430000,0.200000,0.475922,0.190866,0.514853,0.164853,0.540866,0.125922,0.550000,0.080000,0.550000,0.000000,0.350000,-0.200000,-0.430000,-0.200000,-0.475922,-0.190866,-0.514853,-0.164853,-0.540866,-0.125922,-0.550000,-0.080000,-0.550000,0.080000,-0.550000,0.080000,$1*%
%AMFreePoly4*
4,1,18,-0.550000,0.080000,-0.540866,0.125922,-0.514853,0.164853,-0.475922,0.190866,-0.430000,0.200000,0.350000,0.200000,0.550000,0.000000,0.550000,-0.080000,0.540866,-0.125922,0.514853,-0.164853,0.475922,-0.190866,0.430000,-0.200000,-0.430000,-0.200000,-0.475922,-0.190866,-0.514853,-0.164853,-0.540866,-0.125922,-0.550000,-0.080000,-0.550000,0.080000,-0.550000,0.080000,$1*%
%AMFreePoly5*
4,1,18,-0.625000,0.100000,-0.617388,0.138268,-0.595711,0.170711,-0.563268,0.192388,-0.525000,0.200000,0.525000,0.200000,0.563268,0.192388,0.595711,0.170711,0.617388,0.138268,0.625000,0.100000,0.625000,-0.100000,0.617388,-0.138268,0.595711,-0.170711,0.563268,-0.192388,0.525000,-0.200000,-0.425000,-0.200000,-0.625000,0.000000,-0.625000,0.100000,-0.625000,0.100000,$1*%
%AMFreePoly6*
4,1,18,-0.625000,0.000000,-0.425000,0.200000,0.525000,0.200000,0.563268,0.192388,0.595711,0.170711,0.617388,0.138268,0.625000,0.100000,0.625000,-0.100000,0.617388,-0.138268,0.595711,-0.170711,0.563268,-0.192388,0.525000,-0.200000,-0.525000,-0.200000,-0.563268,-0.192388,-0.595711,-0.170711,-0.617388,-0.138268,-0.625000,-0.100000,-0.625000,0.000000,-0.625000,0.000000,$1*%
%AMFreePoly7*
4,1,18,-0.625000,0.106250,-0.616912,0.146910,-0.593880,0.181380,-0.559410,0.204412,-0.518750,0.212500,0.412500,0.212500,0.625000,0.000000,0.625000,-0.106250,0.616912,-0.146910,0.593880,-0.181380,0.559410,-0.204412,0.518750,-0.212500,-0.518750,-0.212500,-0.559410,-0.204412,-0.593880,-0.181380,-0.616912,-0.146910,-0.625000,-0.106250,-0.625000,0.106250,-0.625000,0.106250,$1*%
%AMFreePoly8*
4,1,19,0.500000,-0.750000,0.000000,-0.750000,0.000000,-0.744911,-0.071157,-0.744911,-0.207708,-0.704816,-0.327430,-0.627875,-0.420627,-0.520320,-0.479746,-0.390866,-0.500000,-0.250000,-0.500000,0.250000,-0.479746,0.390866,-0.420627,0.520320,-0.327430,0.627875,-0.207708,0.704816,-0.071157,0.744911,0.000000,0.744911,0.000000,0.750000,0.500000,0.750000,0.500000,-0.750000,0.500000,-0.750000,
$1*%
%AMFreePoly9*
4,1,19,0.000000,0.744911,0.071157,0.744911,0.207708,0.704816,0.327430,0.627875,0.420627,0.520320,0.479746,0.390866,0.500000,0.250000,0.500000,-0.250000,0.479746,-0.390866,0.420627,-0.520320,0.327430,-0.627875,0.207708,-0.704816,0.071157,-0.744911,0.000000,-0.744911,0.000000,-0.750000,-0.500000,-0.750000,-0.500000,0.750000,0.000000,0.750000,0.000000,0.744911,0.000000,0.744911,
$1*%
%AMFreePoly10*
4,1,32,0.231202,0.609631,0.329576,0.558000,0.508000,0.558000,0.543355,0.543355,0.558000,0.508000,0.558000,0.330985,0.577317,0.303000,0.633054,0.156034,0.652000,0.000000,0.633054,-0.156034,0.577317,-0.303000,0.558000,-0.330985,0.558000,-0.508000,0.543355,-0.543355,0.508000,-0.558000,0.329576,-0.558000,0.231202,-0.609631,0.078590,-0.647246,-0.078590,-0.647246,-0.231202,-0.609631,
-0.329576,-0.558000,-2.032000,-0.558000,-2.067355,-0.543355,-2.082000,-0.508000,-2.082000,0.508000,-2.067355,0.543355,-2.032000,0.558000,-0.329576,0.558000,-0.231202,0.609631,-0.078590,0.647246,0.078590,0.647246,0.231202,0.609631,0.231202,0.609631,$1*%
%AMFreePoly11*
4,1,32,0.231202,0.609631,0.329576,0.558000,2.032000,0.558000,2.067355,0.543355,2.082000,0.508000,2.082000,-0.508000,2.067355,-0.543355,2.032000,-0.558000,0.329576,-0.558000,0.231202,-0.609631,0.078590,-0.647246,-0.078590,-0.647246,-0.231202,-0.609631,-0.329576,-0.558000,-0.508000,-0.558000,-0.543355,-0.543355,-0.558000,-0.508000,-0.558000,-0.330985,-0.577317,-0.303000,-0.633054,-0.156034,
-0.652000,0.000000,-0.633054,0.156034,-0.577317,0.303000,-0.558000,0.330985,-0.558000,0.508000,-0.543355,0.543355,-0.508000,0.558000,-0.329576,0.558000,-0.231202,0.609631,-0.078590,0.647246,0.078590,0.647246,0.231202,0.609631,0.231202,0.609631,$1*%
%AMFreePoly12*
4,1,20,0.400005,-0.537495,-0.074995,-0.537495,-0.074995,-0.532558,-0.106431,-0.532558,-0.212495,-0.493953,-0.298959,-0.421401,-0.355395,-0.323652,-0.370587,-0.237495,-0.374995,-0.237495,-0.374995,0.237495,-0.374993,0.237495,-0.374995,0.237505,-0.355395,0.348662,-0.298959,0.446411,-0.212495,0.518963,-0.106431,0.557568,-0.074995,0.557568,-0.074995,0.562505,0.400005,0.562505,0.400005,-0.537495,
0.400005,-0.537495,$1*%
G04 Aperture macros list end*
%ADD10C,0.203200*%
%ADD11C,0.150000*%
%ADD12C,0.120000*%
%ADD13C,0.100000*%
%ADD14FreePoly0,90.000000*%
%ADD15FreePoly1,90.000000*%
%ADD16Outline5P,-0.362499X0.000000X-0.161333X0.201166X0.362499X0.201166X0.362499X-0.201166X-0.362499X-0.201166X90.000000*%
%ADD17Outline5P,-0.362500X0.200000X0.362500X0.200000X0.362500X-0.200000X-0.162500X-0.200000X-0.362500X0.000000X90.000000*%
%ADD18FreePoly2,90.000000*%
%ADD19FreePoly3,90.000000*%
%ADD20Outline5P,-0.349984X0.200000X0.349984X0.200000X0.349984X0.000000X0.149984X-0.200000X-0.349984X-0.200000X90.000000*%
%ADD21Outline5P,-0.349999X0.199999X0.150000X0.199999X0.349999X0.000000X0.349999X-0.199999X-0.349999X-0.199999X90.000000*%
%ADD22FreePoly4,90.000000*%
%ADD23FreePoly5,90.000000*%
%ADD24RoundRect,0.087500X0.087500X-0.537500X0.087500X0.537500X-0.087500X0.537500X-0.087500X-0.537500X0*%
%ADD25FreePoly6,90.000000*%
%ADD26FreePoly7,90.000000*%
%ADD27FreePoly8,90.000000*%
%ADD28FreePoly9,90.000000*%
%ADD29FreePoly10,0.000000*%
%ADD30FreePoly11,0.000000*%
%ADD31C,1.700000*%
%ADD32C,1.404000*%
%ADD33RoundRect,0.250000X-0.262500X-0.450000X0.262500X-0.450000X0.262500X0.450000X-0.262500X0.450000X0*%
%ADD34RoundRect,0.250000X0.262500X0.450000X-0.262500X0.450000X-0.262500X-0.450000X0.262500X-0.450000X0*%
%ADD35FreePoly12,180.000000*%
%ADD36R,0.664614X1.100000*%
%ADD37FreePoly12,0.000000*%
%ADD38FreePoly12,135.000000*%
%ADD39RotRect,0.664614X1.100000X315.000000*%
%ADD40FreePoly12,315.000000*%
%ADD41RoundRect,0.250000X0.475000X-0.337500X0.475000X0.337500X-0.475000X0.337500X-0.475000X-0.337500X0*%
%ADD42RoundRect,0.250000X-0.337500X-0.475000X0.337500X-0.475000X0.337500X0.475000X-0.337500X0.475000X0*%
%ADD43RoundRect,0.250000X0.450000X-0.262500X0.450000X0.262500X-0.450000X0.262500X-0.450000X-0.262500X0*%
%ADD44RoundRect,0.250000X-0.475000X0.337500X-0.475000X-0.337500X0.475000X-0.337500X0.475000X0.337500X0*%
%ADD45RoundRect,0.500000X1.400000X-0.500000X1.400000X0.500000X-1.400000X0.500000X-1.400000X-0.500000X0*%
%ADD46RoundRect,0.375000X0.375000X-0.625000X0.375000X0.625000X-0.375000X0.625000X-0.375000X-0.625000X0*%
%ADD47RoundRect,0.250000X-0.725000X0.600000X-0.725000X-0.600000X0.725000X-0.600000X0.725000X0.600000X0*%
%ADD48O,1.950000X1.700000*%
%ADD49RoundRect,0.160000X-0.160000X0.222500X-0.160000X-0.222500X0.160000X-0.222500X0.160000X0.222500X0*%
%ADD50C,3.301600*%
%ADD51RoundRect,0.250000X1.250000X0.550000X-1.250000X0.550000X-1.250000X-0.550000X1.250000X-0.550000X0*%
%ADD52O,0.800000X1.300000*%
%ADD53RoundRect,0.200000X0.200000X0.450000X-0.200000X0.450000X-0.200000X-0.450000X0.200000X-0.450000X0*%
%ADD54RoundRect,0.150000X0.512500X0.150000X-0.512500X0.150000X-0.512500X-0.150000X0.512500X-0.150000X0*%
%ADD55RoundRect,0.250000X-0.450000X0.262500X-0.450000X-0.262500X0.450000X-0.262500X0.450000X0.262500X0*%
%ADD56O,1.300000X0.800000*%
%ADD57RoundRect,0.200000X0.450000X-0.200000X0.450000X0.200000X-0.450000X0.200000X-0.450000X-0.200000X0*%
%ADD58C,2.000000*%
%ADD59C,1.879600*%
G04 APERTURE END LIST*
D10*
X149712692Y-54803142D02*
X149761073Y-54851523D01*
X149761073Y-54851523D02*
X149809453Y-54996666D01*
X149809453Y-54996666D02*
X149809453Y-55093428D01*
X149809453Y-55093428D02*
X149761073Y-55238571D01*
X149761073Y-55238571D02*
X149664311Y-55335333D01*
X149664311Y-55335333D02*
X149567549Y-55383714D01*
X149567549Y-55383714D02*
X149374025Y-55432095D01*
X149374025Y-55432095D02*
X149228882Y-55432095D01*
X149228882Y-55432095D02*
X149035358Y-55383714D01*
X149035358Y-55383714D02*
X148938596Y-55335333D01*
X148938596Y-55335333D02*
X148841834Y-55238571D01*
X148841834Y-55238571D02*
X148793453Y-55093428D01*
X148793453Y-55093428D02*
X148793453Y-54996666D01*
X148793453Y-54996666D02*
X148841834Y-54851523D01*
X148841834Y-54851523D02*
X148890215Y-54803142D01*
X149519168Y-54416095D02*
X149519168Y-53932285D01*
X149809453Y-54512857D02*
X148793453Y-54174190D01*
X148793453Y-54174190D02*
X149809453Y-53835523D01*
X149809453Y-53496857D02*
X148793453Y-53496857D01*
X148793453Y-53496857D02*
X149809453Y-52916285D01*
X149809453Y-52916285D02*
X148793453Y-52916285D01*
X150774381Y-54059453D02*
X150774381Y-53043453D01*
X150774381Y-53527263D02*
X151354953Y-53527263D01*
X151354953Y-54059453D02*
X151354953Y-53043453D01*
X153870762Y-54059453D02*
X153386952Y-54059453D01*
X153386952Y-54059453D02*
X153386952Y-53043453D01*
X209859453Y-54128951D02*
X209859453Y-54709523D01*
X209859453Y-54419237D02*
X208843453Y-54419237D01*
X208843453Y-54419237D02*
X208988596Y-54515999D01*
X208988596Y-54515999D02*
X209085358Y-54612761D01*
X209085358Y-54612761D02*
X209133739Y-54709523D01*
X208940215Y-53741904D02*
X208891834Y-53693523D01*
X208891834Y-53693523D02*
X208843453Y-53596761D01*
X208843453Y-53596761D02*
X208843453Y-53354856D01*
X208843453Y-53354856D02*
X208891834Y-53258094D01*
X208891834Y-53258094D02*
X208940215Y-53209713D01*
X208940215Y-53209713D02*
X209036977Y-53161332D01*
X209036977Y-53161332D02*
X209133739Y-53161332D01*
X209133739Y-53161332D02*
X209278882Y-53209713D01*
X209278882Y-53209713D02*
X209859453Y-53790285D01*
X209859453Y-53790285D02*
X209859453Y-53161332D01*
X208843453Y-52871047D02*
X209859453Y-52532380D01*
X209859453Y-52532380D02*
X208843453Y-52193713D01*
X208943453Y-57893523D02*
X208943453Y-58377333D01*
X208943453Y-58377333D02*
X209427263Y-58425714D01*
X209427263Y-58425714D02*
X209378882Y-58377333D01*
X209378882Y-58377333D02*
X209330501Y-58280571D01*
X209330501Y-58280571D02*
X209330501Y-58038666D01*
X209330501Y-58038666D02*
X209378882Y-57941904D01*
X209378882Y-57941904D02*
X209427263Y-57893523D01*
X209427263Y-57893523D02*
X209524025Y-57845142D01*
X209524025Y-57845142D02*
X209765930Y-57845142D01*
X209765930Y-57845142D02*
X209862692Y-57893523D01*
X209862692Y-57893523D02*
X209911073Y-57941904D01*
X209911073Y-57941904D02*
X209959453Y-58038666D01*
X209959453Y-58038666D02*
X209959453Y-58280571D01*
X209959453Y-58280571D02*
X209911073Y-58377333D01*
X209911073Y-58377333D02*
X209862692Y-58425714D01*
X208943453Y-57554857D02*
X209959453Y-57216190D01*
X209959453Y-57216190D02*
X208943453Y-56877523D01*
X167698476Y-59177263D02*
X168037143Y-59177263D01*
X168182286Y-59709453D02*
X167698476Y-59709453D01*
X167698476Y-59709453D02*
X167698476Y-58693453D01*
X167698476Y-58693453D02*
X168182286Y-58693453D01*
X169149905Y-59709453D02*
X168569333Y-59709453D01*
X168859619Y-59709453D02*
X168859619Y-58693453D01*
X168859619Y-58693453D02*
X168762857Y-58838596D01*
X168762857Y-58838596D02*
X168666095Y-58935358D01*
X168666095Y-58935358D02*
X168569333Y-58983739D01*
X157698476Y-59177263D02*
X158037143Y-59177263D01*
X158182286Y-59709453D02*
X157698476Y-59709453D01*
X157698476Y-59709453D02*
X157698476Y-58693453D01*
X157698476Y-58693453D02*
X158182286Y-58693453D01*
X158569333Y-58790215D02*
X158617714Y-58741834D01*
X158617714Y-58741834D02*
X158714476Y-58693453D01*
X158714476Y-58693453D02*
X158956381Y-58693453D01*
X158956381Y-58693453D02*
X159053143Y-58741834D01*
X159053143Y-58741834D02*
X159101524Y-58790215D01*
X159101524Y-58790215D02*
X159149905Y-58886977D01*
X159149905Y-58886977D02*
X159149905Y-58983739D01*
X159149905Y-58983739D02*
X159101524Y-59128882D01*
X159101524Y-59128882D02*
X158520952Y-59709453D01*
X158520952Y-59709453D02*
X159149905Y-59709453D01*
G36*
X210073942Y-56278965D02*
G01*
X208628964Y-56278965D01*
X208628964Y-55580666D01*
X208741853Y-55580666D01*
X208741853Y-55725809D01*
X208742841Y-55735842D01*
X208742651Y-55738517D01*
X208743450Y-55742035D01*
X208743805Y-55745630D01*
X208744832Y-55748110D01*
X208747067Y-55757938D01*
X208795448Y-55903081D01*
X208803568Y-55921267D01*
X208805959Y-55924024D01*
X208807357Y-55927398D01*
X208819992Y-55942794D01*
X208916754Y-56039556D01*
X208924545Y-56045949D01*
X208926304Y-56047978D01*
X208929361Y-56049902D01*
X208932150Y-56052191D01*
X208934626Y-56053216D01*
X208943159Y-56058588D01*
X209039921Y-56106969D01*
X209041373Y-56107524D01*
X209041961Y-56107960D01*
X209050250Y-56110921D01*
X209058522Y-56114087D01*
X209059255Y-56114139D01*
X209060716Y-56114661D01*
X209254240Y-56163042D01*
X209257675Y-56163550D01*
X209259061Y-56164124D01*
X209266528Y-56164859D01*
X209273943Y-56165956D01*
X209275424Y-56165735D01*
X209278882Y-56166076D01*
X209424025Y-56166076D01*
X209427482Y-56165735D01*
X209428964Y-56165956D01*
X209436378Y-56164859D01*
X209443846Y-56164124D01*
X209445231Y-56163550D01*
X209448667Y-56163042D01*
X209642191Y-56114661D01*
X209643651Y-56114139D01*
X209644384Y-56114087D01*
X209652648Y-56110924D01*
X209660946Y-56107960D01*
X209661533Y-56107524D01*
X209662986Y-56106969D01*
X209759748Y-56058588D01*
X209768280Y-56053216D01*
X209770757Y-56052191D01*
X209773545Y-56049902D01*
X209776603Y-56047978D01*
X209778361Y-56045949D01*
X209786153Y-56039556D01*
X209882915Y-55942794D01*
X209895550Y-55927398D01*
X209896946Y-55924026D01*
X209899340Y-55921267D01*
X209907459Y-55903080D01*
X209955839Y-55757937D01*
X209958073Y-55748111D01*
X209959101Y-55745630D01*
X209959455Y-55742033D01*
X209960255Y-55738516D01*
X209960064Y-55735841D01*
X209961053Y-55725809D01*
X209961053Y-55629047D01*
X209960064Y-55619014D01*
X209960255Y-55616340D01*
X209959455Y-55612822D01*
X209959101Y-55609226D01*
X209958073Y-55606744D01*
X209955839Y-55596919D01*
X209907459Y-55451776D01*
X209899340Y-55433589D01*
X209896946Y-55430829D01*
X209895550Y-55427458D01*
X209882915Y-55412062D01*
X209834534Y-55363681D01*
X209819138Y-55351046D01*
X209782513Y-55335875D01*
X209762692Y-55333923D01*
X209424025Y-55333923D01*
X209404204Y-55335875D01*
X209367579Y-55351046D01*
X209339548Y-55379077D01*
X209324377Y-55415702D01*
X209322425Y-55435523D01*
X209322425Y-55629047D01*
X209324377Y-55648868D01*
X209339548Y-55685493D01*
X209367579Y-55713524D01*
X209404204Y-55728695D01*
X209443846Y-55728695D01*
X209480471Y-55713524D01*
X209508502Y-55685493D01*
X209523673Y-55648868D01*
X209525625Y-55629047D01*
X209525625Y-55537123D01*
X209720608Y-55537123D01*
X209722271Y-55538786D01*
X209757853Y-55645532D01*
X209757853Y-55709323D01*
X209722271Y-55816069D01*
X209654128Y-55884213D01*
X209582085Y-55920234D01*
X209411519Y-55962876D01*
X209291388Y-55962876D01*
X209120822Y-55920234D01*
X209048779Y-55884213D01*
X208980635Y-55816069D01*
X208945053Y-55709322D01*
X208945053Y-55604651D01*
X208982708Y-55529341D01*
X208989826Y-55510740D01*
X208992636Y-55471197D01*
X208980100Y-55433589D01*
X208954126Y-55403641D01*
X208918669Y-55385912D01*
X208879126Y-55383102D01*
X208841519Y-55395638D01*
X208811570Y-55421612D01*
X208800960Y-55438467D01*
X208752579Y-55535229D01*
X208745461Y-55553831D01*
X208745202Y-55557471D01*
X208743805Y-55560845D01*
X208741853Y-55580666D01*
X208628964Y-55580666D01*
X208628964Y-55221034D01*
X210073942Y-55221034D01*
X210073942Y-56278965D01*
G37*
D11*
X182854819Y-66361904D02*
X183664342Y-66361904D01*
X183664342Y-66361904D02*
X183759580Y-66314285D01*
X183759580Y-66314285D02*
X183807200Y-66266666D01*
X183807200Y-66266666D02*
X183854819Y-66171428D01*
X183854819Y-66171428D02*
X183854819Y-65980952D01*
X183854819Y-65980952D02*
X183807200Y-65885714D01*
X183807200Y-65885714D02*
X183759580Y-65838095D01*
X183759580Y-65838095D02*
X183664342Y-65790476D01*
X183664342Y-65790476D02*
X182854819Y-65790476D01*
X182854819Y-64838095D02*
X182854819Y-65314285D01*
X182854819Y-65314285D02*
X183331009Y-65361904D01*
X183331009Y-65361904D02*
X183283390Y-65314285D01*
X183283390Y-65314285D02*
X183235771Y-65219047D01*
X183235771Y-65219047D02*
X183235771Y-64980952D01*
X183235771Y-64980952D02*
X183283390Y-64885714D01*
X183283390Y-64885714D02*
X183331009Y-64838095D01*
X183331009Y-64838095D02*
X183426247Y-64790476D01*
X183426247Y-64790476D02*
X183664342Y-64790476D01*
X183664342Y-64790476D02*
X183759580Y-64838095D01*
X183759580Y-64838095D02*
X183807200Y-64885714D01*
X183807200Y-64885714D02*
X183854819Y-64980952D01*
X183854819Y-64980952D02*
X183854819Y-65219047D01*
X183854819Y-65219047D02*
X183807200Y-65314285D01*
X183807200Y-65314285D02*
X183759580Y-65361904D01*
X190016666Y-62054819D02*
X190016666Y-62769104D01*
X190016666Y-62769104D02*
X189969047Y-62911961D01*
X189969047Y-62911961D02*
X189873809Y-63007200D01*
X189873809Y-63007200D02*
X189730952Y-63054819D01*
X189730952Y-63054819D02*
X189635714Y-63054819D01*
X190492857Y-63054819D02*
X190492857Y-62054819D01*
X190492857Y-62054819D02*
X190873809Y-62054819D01*
X190873809Y-62054819D02*
X190969047Y-62102438D01*
X190969047Y-62102438D02*
X191016666Y-62150057D01*
X191016666Y-62150057D02*
X191064285Y-62245295D01*
X191064285Y-62245295D02*
X191064285Y-62388152D01*
X191064285Y-62388152D02*
X191016666Y-62483390D01*
X191016666Y-62483390D02*
X190969047Y-62531009D01*
X190969047Y-62531009D02*
X190873809Y-62578628D01*
X190873809Y-62578628D02*
X190492857Y-62578628D01*
X191969047Y-62054819D02*
X191492857Y-62054819D01*
X191492857Y-62054819D02*
X191445238Y-62531009D01*
X191445238Y-62531009D02*
X191492857Y-62483390D01*
X191492857Y-62483390D02*
X191588095Y-62435771D01*
X191588095Y-62435771D02*
X191826190Y-62435771D01*
X191826190Y-62435771D02*
X191921428Y-62483390D01*
X191921428Y-62483390D02*
X191969047Y-62531009D01*
X191969047Y-62531009D02*
X192016666Y-62626247D01*
X192016666Y-62626247D02*
X192016666Y-62864342D01*
X192016666Y-62864342D02*
X191969047Y-62959580D01*
X191969047Y-62959580D02*
X191921428Y-63007200D01*
X191921428Y-63007200D02*
X191826190Y-63054819D01*
X191826190Y-63054819D02*
X191588095Y-63054819D01*
X191588095Y-63054819D02*
X191492857Y-63007200D01*
X191492857Y-63007200D02*
X191445238Y-62959580D01*
D10*
X144557504Y-70263453D02*
X144557504Y-71085930D01*
X144557504Y-71085930D02*
X144605885Y-71182692D01*
X144605885Y-71182692D02*
X144654266Y-71231073D01*
X144654266Y-71231073D02*
X144751028Y-71279453D01*
X144751028Y-71279453D02*
X144944552Y-71279453D01*
X144944552Y-71279453D02*
X145041314Y-71231073D01*
X145041314Y-71231073D02*
X145089695Y-71182692D01*
X145089695Y-71182692D02*
X145138076Y-71085930D01*
X145138076Y-71085930D02*
X145138076Y-70263453D01*
X145573504Y-70360215D02*
X145621885Y-70311834D01*
X145621885Y-70311834D02*
X145718647Y-70263453D01*
X145718647Y-70263453D02*
X145960552Y-70263453D01*
X145960552Y-70263453D02*
X146057314Y-70311834D01*
X146057314Y-70311834D02*
X146105695Y-70360215D01*
X146105695Y-70360215D02*
X146154076Y-70456977D01*
X146154076Y-70456977D02*
X146154076Y-70553739D01*
X146154076Y-70553739D02*
X146105695Y-70698882D01*
X146105695Y-70698882D02*
X145525123Y-71279453D01*
X145525123Y-71279453D02*
X146154076Y-71279453D01*
D11*
X166957142Y-61854819D02*
X166623809Y-61378628D01*
X166385714Y-61854819D02*
X166385714Y-60854819D01*
X166385714Y-60854819D02*
X166766666Y-60854819D01*
X166766666Y-60854819D02*
X166861904Y-60902438D01*
X166861904Y-60902438D02*
X166909523Y-60950057D01*
X166909523Y-60950057D02*
X166957142Y-61045295D01*
X166957142Y-61045295D02*
X166957142Y-61188152D01*
X166957142Y-61188152D02*
X166909523Y-61283390D01*
X166909523Y-61283390D02*
X166861904Y-61331009D01*
X166861904Y-61331009D02*
X166766666Y-61378628D01*
X166766666Y-61378628D02*
X166385714Y-61378628D01*
X167909523Y-61854819D02*
X167338095Y-61854819D01*
X167623809Y-61854819D02*
X167623809Y-60854819D01*
X167623809Y-60854819D02*
X167528571Y-60997676D01*
X167528571Y-60997676D02*
X167433333Y-61092914D01*
X167433333Y-61092914D02*
X167338095Y-61140533D01*
X168528571Y-60854819D02*
X168623809Y-60854819D01*
X168623809Y-60854819D02*
X168719047Y-60902438D01*
X168719047Y-60902438D02*
X168766666Y-60950057D01*
X168766666Y-60950057D02*
X168814285Y-61045295D01*
X168814285Y-61045295D02*
X168861904Y-61235771D01*
X168861904Y-61235771D02*
X168861904Y-61473866D01*
X168861904Y-61473866D02*
X168814285Y-61664342D01*
X168814285Y-61664342D02*
X168766666Y-61759580D01*
X168766666Y-61759580D02*
X168719047Y-61807200D01*
X168719047Y-61807200D02*
X168623809Y-61854819D01*
X168623809Y-61854819D02*
X168528571Y-61854819D01*
X168528571Y-61854819D02*
X168433333Y-61807200D01*
X168433333Y-61807200D02*
X168385714Y-61759580D01*
X168385714Y-61759580D02*
X168338095Y-61664342D01*
X168338095Y-61664342D02*
X168290476Y-61473866D01*
X168290476Y-61473866D02*
X168290476Y-61235771D01*
X168290476Y-61235771D02*
X168338095Y-61045295D01*
X168338095Y-61045295D02*
X168385714Y-60950057D01*
X168385714Y-60950057D02*
X168433333Y-60902438D01*
X168433333Y-60902438D02*
X168528571Y-60854819D01*
X160033333Y-61954819D02*
X159700000Y-61478628D01*
X159461905Y-61954819D02*
X159461905Y-60954819D01*
X159461905Y-60954819D02*
X159842857Y-60954819D01*
X159842857Y-60954819D02*
X159938095Y-61002438D01*
X159938095Y-61002438D02*
X159985714Y-61050057D01*
X159985714Y-61050057D02*
X160033333Y-61145295D01*
X160033333Y-61145295D02*
X160033333Y-61288152D01*
X160033333Y-61288152D02*
X159985714Y-61383390D01*
X159985714Y-61383390D02*
X159938095Y-61431009D01*
X159938095Y-61431009D02*
X159842857Y-61478628D01*
X159842857Y-61478628D02*
X159461905Y-61478628D01*
X160604762Y-61383390D02*
X160509524Y-61335771D01*
X160509524Y-61335771D02*
X160461905Y-61288152D01*
X160461905Y-61288152D02*
X160414286Y-61192914D01*
X160414286Y-61192914D02*
X160414286Y-61145295D01*
X160414286Y-61145295D02*
X160461905Y-61050057D01*
X160461905Y-61050057D02*
X160509524Y-61002438D01*
X160509524Y-61002438D02*
X160604762Y-60954819D01*
X160604762Y-60954819D02*
X160795238Y-60954819D01*
X160795238Y-60954819D02*
X160890476Y-61002438D01*
X160890476Y-61002438D02*
X160938095Y-61050057D01*
X160938095Y-61050057D02*
X160985714Y-61145295D01*
X160985714Y-61145295D02*
X160985714Y-61192914D01*
X160985714Y-61192914D02*
X160938095Y-61288152D01*
X160938095Y-61288152D02*
X160890476Y-61335771D01*
X160890476Y-61335771D02*
X160795238Y-61383390D01*
X160795238Y-61383390D02*
X160604762Y-61383390D01*
X160604762Y-61383390D02*
X160509524Y-61431009D01*
X160509524Y-61431009D02*
X160461905Y-61478628D01*
X160461905Y-61478628D02*
X160414286Y-61573866D01*
X160414286Y-61573866D02*
X160414286Y-61764342D01*
X160414286Y-61764342D02*
X160461905Y-61859580D01*
X160461905Y-61859580D02*
X160509524Y-61907200D01*
X160509524Y-61907200D02*
X160604762Y-61954819D01*
X160604762Y-61954819D02*
X160795238Y-61954819D01*
X160795238Y-61954819D02*
X160890476Y-61907200D01*
X160890476Y-61907200D02*
X160938095Y-61859580D01*
X160938095Y-61859580D02*
X160985714Y-61764342D01*
X160985714Y-61764342D02*
X160985714Y-61573866D01*
X160985714Y-61573866D02*
X160938095Y-61478628D01*
X160938095Y-61478628D02*
X160890476Y-61431009D01*
X160890476Y-61431009D02*
X160795238Y-61383390D01*
X156233333Y-61954819D02*
X155900000Y-61478628D01*
X155661905Y-61954819D02*
X155661905Y-60954819D01*
X155661905Y-60954819D02*
X156042857Y-60954819D01*
X156042857Y-60954819D02*
X156138095Y-61002438D01*
X156138095Y-61002438D02*
X156185714Y-61050057D01*
X156185714Y-61050057D02*
X156233333Y-61145295D01*
X156233333Y-61145295D02*
X156233333Y-61288152D01*
X156233333Y-61288152D02*
X156185714Y-61383390D01*
X156185714Y-61383390D02*
X156138095Y-61431009D01*
X156138095Y-61431009D02*
X156042857Y-61478628D01*
X156042857Y-61478628D02*
X155661905Y-61478628D01*
X157090476Y-60954819D02*
X156900000Y-60954819D01*
X156900000Y-60954819D02*
X156804762Y-61002438D01*
X156804762Y-61002438D02*
X156757143Y-61050057D01*
X156757143Y-61050057D02*
X156661905Y-61192914D01*
X156661905Y-61192914D02*
X156614286Y-61383390D01*
X156614286Y-61383390D02*
X156614286Y-61764342D01*
X156614286Y-61764342D02*
X156661905Y-61859580D01*
X156661905Y-61859580D02*
X156709524Y-61907200D01*
X156709524Y-61907200D02*
X156804762Y-61954819D01*
X156804762Y-61954819D02*
X156995238Y-61954819D01*
X156995238Y-61954819D02*
X157090476Y-61907200D01*
X157090476Y-61907200D02*
X157138095Y-61859580D01*
X157138095Y-61859580D02*
X157185714Y-61764342D01*
X157185714Y-61764342D02*
X157185714Y-61526247D01*
X157185714Y-61526247D02*
X157138095Y-61431009D01*
X157138095Y-61431009D02*
X157090476Y-61383390D01*
X157090476Y-61383390D02*
X156995238Y-61335771D01*
X156995238Y-61335771D02*
X156804762Y-61335771D01*
X156804762Y-61335771D02*
X156709524Y-61383390D01*
X156709524Y-61383390D02*
X156661905Y-61431009D01*
X156661905Y-61431009D02*
X156614286Y-61526247D01*
X148433333Y-61954819D02*
X148100000Y-61478628D01*
X147861905Y-61954819D02*
X147861905Y-60954819D01*
X147861905Y-60954819D02*
X148242857Y-60954819D01*
X148242857Y-60954819D02*
X148338095Y-61002438D01*
X148338095Y-61002438D02*
X148385714Y-61050057D01*
X148385714Y-61050057D02*
X148433333Y-61145295D01*
X148433333Y-61145295D02*
X148433333Y-61288152D01*
X148433333Y-61288152D02*
X148385714Y-61383390D01*
X148385714Y-61383390D02*
X148338095Y-61431009D01*
X148338095Y-61431009D02*
X148242857Y-61478628D01*
X148242857Y-61478628D02*
X147861905Y-61478628D01*
X149290476Y-61288152D02*
X149290476Y-61954819D01*
X149052381Y-60907200D02*
X148814286Y-61621485D01*
X148814286Y-61621485D02*
X149433333Y-61621485D01*
X177254819Y-57542857D02*
X176778628Y-57876190D01*
X177254819Y-58114285D02*
X176254819Y-58114285D01*
X176254819Y-58114285D02*
X176254819Y-57733333D01*
X176254819Y-57733333D02*
X176302438Y-57638095D01*
X176302438Y-57638095D02*
X176350057Y-57590476D01*
X176350057Y-57590476D02*
X176445295Y-57542857D01*
X176445295Y-57542857D02*
X176588152Y-57542857D01*
X176588152Y-57542857D02*
X176683390Y-57590476D01*
X176683390Y-57590476D02*
X176731009Y-57638095D01*
X176731009Y-57638095D02*
X176778628Y-57733333D01*
X176778628Y-57733333D02*
X176778628Y-58114285D01*
X177254819Y-56590476D02*
X177254819Y-57161904D01*
X177254819Y-56876190D02*
X176254819Y-56876190D01*
X176254819Y-56876190D02*
X176397676Y-56971428D01*
X176397676Y-56971428D02*
X176492914Y-57066666D01*
X176492914Y-57066666D02*
X176540533Y-57161904D01*
X176254819Y-55733333D02*
X176254819Y-55923809D01*
X176254819Y-55923809D02*
X176302438Y-56019047D01*
X176302438Y-56019047D02*
X176350057Y-56066666D01*
X176350057Y-56066666D02*
X176492914Y-56161904D01*
X176492914Y-56161904D02*
X176683390Y-56209523D01*
X176683390Y-56209523D02*
X177064342Y-56209523D01*
X177064342Y-56209523D02*
X177159580Y-56161904D01*
X177159580Y-56161904D02*
X177207200Y-56114285D01*
X177207200Y-56114285D02*
X177254819Y-56019047D01*
X177254819Y-56019047D02*
X177254819Y-55828571D01*
X177254819Y-55828571D02*
X177207200Y-55733333D01*
X177207200Y-55733333D02*
X177159580Y-55685714D01*
X177159580Y-55685714D02*
X177064342Y-55638095D01*
X177064342Y-55638095D02*
X176826247Y-55638095D01*
X176826247Y-55638095D02*
X176731009Y-55685714D01*
X176731009Y-55685714D02*
X176683390Y-55733333D01*
X176683390Y-55733333D02*
X176635771Y-55828571D01*
X176635771Y-55828571D02*
X176635771Y-56019047D01*
X176635771Y-56019047D02*
X176683390Y-56114285D01*
X176683390Y-56114285D02*
X176731009Y-56161904D01*
X176731009Y-56161904D02*
X176826247Y-56209523D01*
X177454819Y-62042857D02*
X176978628Y-62376190D01*
X177454819Y-62614285D02*
X176454819Y-62614285D01*
X176454819Y-62614285D02*
X176454819Y-62233333D01*
X176454819Y-62233333D02*
X176502438Y-62138095D01*
X176502438Y-62138095D02*
X176550057Y-62090476D01*
X176550057Y-62090476D02*
X176645295Y-62042857D01*
X176645295Y-62042857D02*
X176788152Y-62042857D01*
X176788152Y-62042857D02*
X176883390Y-62090476D01*
X176883390Y-62090476D02*
X176931009Y-62138095D01*
X176931009Y-62138095D02*
X176978628Y-62233333D01*
X176978628Y-62233333D02*
X176978628Y-62614285D01*
X177454819Y-61090476D02*
X177454819Y-61661904D01*
X177454819Y-61376190D02*
X176454819Y-61376190D01*
X176454819Y-61376190D02*
X176597676Y-61471428D01*
X176597676Y-61471428D02*
X176692914Y-61566666D01*
X176692914Y-61566666D02*
X176740533Y-61661904D01*
X176454819Y-60185714D02*
X176454819Y-60661904D01*
X176454819Y-60661904D02*
X176931009Y-60709523D01*
X176931009Y-60709523D02*
X176883390Y-60661904D01*
X176883390Y-60661904D02*
X176835771Y-60566666D01*
X176835771Y-60566666D02*
X176835771Y-60328571D01*
X176835771Y-60328571D02*
X176883390Y-60233333D01*
X176883390Y-60233333D02*
X176931009Y-60185714D01*
X176931009Y-60185714D02*
X177026247Y-60138095D01*
X177026247Y-60138095D02*
X177264342Y-60138095D01*
X177264342Y-60138095D02*
X177359580Y-60185714D01*
X177359580Y-60185714D02*
X177407200Y-60233333D01*
X177407200Y-60233333D02*
X177454819Y-60328571D01*
X177454819Y-60328571D02*
X177454819Y-60566666D01*
X177454819Y-60566666D02*
X177407200Y-60661904D01*
X177407200Y-60661904D02*
X177359580Y-60709523D01*
X186854819Y-73633333D02*
X187569104Y-73633333D01*
X187569104Y-73633333D02*
X187711961Y-73680952D01*
X187711961Y-73680952D02*
X187807200Y-73776190D01*
X187807200Y-73776190D02*
X187854819Y-73919047D01*
X187854819Y-73919047D02*
X187854819Y-74014285D01*
X187854819Y-73157142D02*
X186854819Y-73157142D01*
X186854819Y-73157142D02*
X186854819Y-72776190D01*
X186854819Y-72776190D02*
X186902438Y-72680952D01*
X186902438Y-72680952D02*
X186950057Y-72633333D01*
X186950057Y-72633333D02*
X187045295Y-72585714D01*
X187045295Y-72585714D02*
X187188152Y-72585714D01*
X187188152Y-72585714D02*
X187283390Y-72633333D01*
X187283390Y-72633333D02*
X187331009Y-72680952D01*
X187331009Y-72680952D02*
X187378628Y-72776190D01*
X187378628Y-72776190D02*
X187378628Y-73157142D01*
X187854819Y-71633333D02*
X187854819Y-72204761D01*
X187854819Y-71919047D02*
X186854819Y-71919047D01*
X186854819Y-71919047D02*
X186997676Y-72014285D01*
X186997676Y-72014285D02*
X187092914Y-72109523D01*
X187092914Y-72109523D02*
X187140533Y-72204761D01*
X185166667Y-71354819D02*
X185785714Y-71354819D01*
X185785714Y-71354819D02*
X185452381Y-71735771D01*
X185452381Y-71735771D02*
X185595238Y-71735771D01*
X185595238Y-71735771D02*
X185690476Y-71783390D01*
X185690476Y-71783390D02*
X185738095Y-71831009D01*
X185738095Y-71831009D02*
X185785714Y-71926247D01*
X185785714Y-71926247D02*
X185785714Y-72164342D01*
X185785714Y-72164342D02*
X185738095Y-72259580D01*
X185738095Y-72259580D02*
X185690476Y-72307200D01*
X185690476Y-72307200D02*
X185595238Y-72354819D01*
X185595238Y-72354819D02*
X185309524Y-72354819D01*
X185309524Y-72354819D02*
X185214286Y-72307200D01*
X185214286Y-72307200D02*
X185166667Y-72259580D01*
X189238095Y-71554819D02*
X188761905Y-71554819D01*
X188761905Y-71554819D02*
X188714286Y-72031009D01*
X188714286Y-72031009D02*
X188761905Y-71983390D01*
X188761905Y-71983390D02*
X188857143Y-71935771D01*
X188857143Y-71935771D02*
X189095238Y-71935771D01*
X189095238Y-71935771D02*
X189190476Y-71983390D01*
X189190476Y-71983390D02*
X189238095Y-72031009D01*
X189238095Y-72031009D02*
X189285714Y-72126247D01*
X189285714Y-72126247D02*
X189285714Y-72364342D01*
X189285714Y-72364342D02*
X189238095Y-72459580D01*
X189238095Y-72459580D02*
X189190476Y-72507200D01*
X189190476Y-72507200D02*
X189095238Y-72554819D01*
X189095238Y-72554819D02*
X188857143Y-72554819D01*
X188857143Y-72554819D02*
X188761905Y-72507200D01*
X188761905Y-72507200D02*
X188714286Y-72459580D01*
X197566666Y-52454819D02*
X197566666Y-53169104D01*
X197566666Y-53169104D02*
X197519047Y-53311961D01*
X197519047Y-53311961D02*
X197423809Y-53407200D01*
X197423809Y-53407200D02*
X197280952Y-53454819D01*
X197280952Y-53454819D02*
X197185714Y-53454819D01*
X198042857Y-53454819D02*
X198042857Y-52454819D01*
X198042857Y-52454819D02*
X198423809Y-52454819D01*
X198423809Y-52454819D02*
X198519047Y-52502438D01*
X198519047Y-52502438D02*
X198566666Y-52550057D01*
X198566666Y-52550057D02*
X198614285Y-52645295D01*
X198614285Y-52645295D02*
X198614285Y-52788152D01*
X198614285Y-52788152D02*
X198566666Y-52883390D01*
X198566666Y-52883390D02*
X198519047Y-52931009D01*
X198519047Y-52931009D02*
X198423809Y-52978628D01*
X198423809Y-52978628D02*
X198042857Y-52978628D01*
X198947619Y-52454819D02*
X199566666Y-52454819D01*
X199566666Y-52454819D02*
X199233333Y-52835771D01*
X199233333Y-52835771D02*
X199376190Y-52835771D01*
X199376190Y-52835771D02*
X199471428Y-52883390D01*
X199471428Y-52883390D02*
X199519047Y-52931009D01*
X199519047Y-52931009D02*
X199566666Y-53026247D01*
X199566666Y-53026247D02*
X199566666Y-53264342D01*
X199566666Y-53264342D02*
X199519047Y-53359580D01*
X199519047Y-53359580D02*
X199471428Y-53407200D01*
X199471428Y-53407200D02*
X199376190Y-53454819D01*
X199376190Y-53454819D02*
X199090476Y-53454819D01*
X199090476Y-53454819D02*
X198995238Y-53407200D01*
X198995238Y-53407200D02*
X198947619Y-53359580D01*
X194066667Y-53054819D02*
X194685714Y-53054819D01*
X194685714Y-53054819D02*
X194352381Y-53435771D01*
X194352381Y-53435771D02*
X194495238Y-53435771D01*
X194495238Y-53435771D02*
X194590476Y-53483390D01*
X194590476Y-53483390D02*
X194638095Y-53531009D01*
X194638095Y-53531009D02*
X194685714Y-53626247D01*
X194685714Y-53626247D02*
X194685714Y-53864342D01*
X194685714Y-53864342D02*
X194638095Y-53959580D01*
X194638095Y-53959580D02*
X194590476Y-54007200D01*
X194590476Y-54007200D02*
X194495238Y-54054819D01*
X194495238Y-54054819D02*
X194209524Y-54054819D01*
X194209524Y-54054819D02*
X194114286Y-54007200D01*
X194114286Y-54007200D02*
X194066667Y-53959580D01*
X197838095Y-56654819D02*
X197361905Y-56654819D01*
X197361905Y-56654819D02*
X197314286Y-57131009D01*
X197314286Y-57131009D02*
X197361905Y-57083390D01*
X197361905Y-57083390D02*
X197457143Y-57035771D01*
X197457143Y-57035771D02*
X197695238Y-57035771D01*
X197695238Y-57035771D02*
X197790476Y-57083390D01*
X197790476Y-57083390D02*
X197838095Y-57131009D01*
X197838095Y-57131009D02*
X197885714Y-57226247D01*
X197885714Y-57226247D02*
X197885714Y-57464342D01*
X197885714Y-57464342D02*
X197838095Y-57559580D01*
X197838095Y-57559580D02*
X197790476Y-57607200D01*
X197790476Y-57607200D02*
X197695238Y-57654819D01*
X197695238Y-57654819D02*
X197457143Y-57654819D01*
X197457143Y-57654819D02*
X197361905Y-57607200D01*
X197361905Y-57607200D02*
X197314286Y-57559580D01*
X181985587Y-52708817D02*
X181985587Y-53423102D01*
X181985587Y-53423102D02*
X181937968Y-53565959D01*
X181937968Y-53565959D02*
X181842730Y-53661198D01*
X181842730Y-53661198D02*
X181699873Y-53708817D01*
X181699873Y-53708817D02*
X181604635Y-53708817D01*
X182461778Y-53708817D02*
X182461778Y-52708817D01*
X182461778Y-52708817D02*
X182842730Y-52708817D01*
X182842730Y-52708817D02*
X182937968Y-52756436D01*
X182937968Y-52756436D02*
X182985587Y-52804055D01*
X182985587Y-52804055D02*
X183033206Y-52899293D01*
X183033206Y-52899293D02*
X183033206Y-53042150D01*
X183033206Y-53042150D02*
X182985587Y-53137388D01*
X182985587Y-53137388D02*
X182937968Y-53185007D01*
X182937968Y-53185007D02*
X182842730Y-53232626D01*
X182842730Y-53232626D02*
X182461778Y-53232626D01*
X183414159Y-52804055D02*
X183461778Y-52756436D01*
X183461778Y-52756436D02*
X183557016Y-52708817D01*
X183557016Y-52708817D02*
X183795111Y-52708817D01*
X183795111Y-52708817D02*
X183890349Y-52756436D01*
X183890349Y-52756436D02*
X183937968Y-52804055D01*
X183937968Y-52804055D02*
X183985587Y-52899293D01*
X183985587Y-52899293D02*
X183985587Y-52994531D01*
X183985587Y-52994531D02*
X183937968Y-53137388D01*
X183937968Y-53137388D02*
X183366540Y-53708817D01*
X183366540Y-53708817D02*
X183985587Y-53708817D01*
X185057016Y-54508817D02*
X184580826Y-54508817D01*
X184580826Y-54508817D02*
X184533207Y-54985007D01*
X184533207Y-54985007D02*
X184580826Y-54937388D01*
X184580826Y-54937388D02*
X184676064Y-54889769D01*
X184676064Y-54889769D02*
X184914159Y-54889769D01*
X184914159Y-54889769D02*
X185009397Y-54937388D01*
X185009397Y-54937388D02*
X185057016Y-54985007D01*
X185057016Y-54985007D02*
X185104635Y-55080245D01*
X185104635Y-55080245D02*
X185104635Y-55318340D01*
X185104635Y-55318340D02*
X185057016Y-55413578D01*
X185057016Y-55413578D02*
X185009397Y-55461198D01*
X185009397Y-55461198D02*
X184914159Y-55508817D01*
X184914159Y-55508817D02*
X184676064Y-55508817D01*
X184676064Y-55508817D02*
X184580826Y-55461198D01*
X184580826Y-55461198D02*
X184533207Y-55413578D01*
X180485588Y-54508817D02*
X181104635Y-54508817D01*
X181104635Y-54508817D02*
X180771302Y-54889769D01*
X180771302Y-54889769D02*
X180914159Y-54889769D01*
X180914159Y-54889769D02*
X181009397Y-54937388D01*
X181009397Y-54937388D02*
X181057016Y-54985007D01*
X181057016Y-54985007D02*
X181104635Y-55080245D01*
X181104635Y-55080245D02*
X181104635Y-55318340D01*
X181104635Y-55318340D02*
X181057016Y-55413578D01*
X181057016Y-55413578D02*
X181009397Y-55461198D01*
X181009397Y-55461198D02*
X180914159Y-55508817D01*
X180914159Y-55508817D02*
X180628445Y-55508817D01*
X180628445Y-55508817D02*
X180533207Y-55461198D01*
X180533207Y-55461198D02*
X180485588Y-55413578D01*
X187959580Y-59166666D02*
X188007200Y-59214285D01*
X188007200Y-59214285D02*
X188054819Y-59357142D01*
X188054819Y-59357142D02*
X188054819Y-59452380D01*
X188054819Y-59452380D02*
X188007200Y-59595237D01*
X188007200Y-59595237D02*
X187911961Y-59690475D01*
X187911961Y-59690475D02*
X187816723Y-59738094D01*
X187816723Y-59738094D02*
X187626247Y-59785713D01*
X187626247Y-59785713D02*
X187483390Y-59785713D01*
X187483390Y-59785713D02*
X187292914Y-59738094D01*
X187292914Y-59738094D02*
X187197676Y-59690475D01*
X187197676Y-59690475D02*
X187102438Y-59595237D01*
X187102438Y-59595237D02*
X187054819Y-59452380D01*
X187054819Y-59452380D02*
X187054819Y-59357142D01*
X187054819Y-59357142D02*
X187102438Y-59214285D01*
X187102438Y-59214285D02*
X187150057Y-59166666D01*
X187054819Y-58833332D02*
X187054819Y-58166666D01*
X187054819Y-58166666D02*
X188054819Y-58595237D01*
X190759580Y-71966666D02*
X190807200Y-72014285D01*
X190807200Y-72014285D02*
X190854819Y-72157142D01*
X190854819Y-72157142D02*
X190854819Y-72252380D01*
X190854819Y-72252380D02*
X190807200Y-72395237D01*
X190807200Y-72395237D02*
X190711961Y-72490475D01*
X190711961Y-72490475D02*
X190616723Y-72538094D01*
X190616723Y-72538094D02*
X190426247Y-72585713D01*
X190426247Y-72585713D02*
X190283390Y-72585713D01*
X190283390Y-72585713D02*
X190092914Y-72538094D01*
X190092914Y-72538094D02*
X189997676Y-72490475D01*
X189997676Y-72490475D02*
X189902438Y-72395237D01*
X189902438Y-72395237D02*
X189854819Y-72252380D01*
X189854819Y-72252380D02*
X189854819Y-72157142D01*
X189854819Y-72157142D02*
X189902438Y-72014285D01*
X189902438Y-72014285D02*
X189950057Y-71966666D01*
X189854819Y-71109523D02*
X189854819Y-71299999D01*
X189854819Y-71299999D02*
X189902438Y-71395237D01*
X189902438Y-71395237D02*
X189950057Y-71442856D01*
X189950057Y-71442856D02*
X190092914Y-71538094D01*
X190092914Y-71538094D02*
X190283390Y-71585713D01*
X190283390Y-71585713D02*
X190664342Y-71585713D01*
X190664342Y-71585713D02*
X190759580Y-71538094D01*
X190759580Y-71538094D02*
X190807200Y-71490475D01*
X190807200Y-71490475D02*
X190854819Y-71395237D01*
X190854819Y-71395237D02*
X190854819Y-71204761D01*
X190854819Y-71204761D02*
X190807200Y-71109523D01*
X190807200Y-71109523D02*
X190759580Y-71061904D01*
X190759580Y-71061904D02*
X190664342Y-71014285D01*
X190664342Y-71014285D02*
X190426247Y-71014285D01*
X190426247Y-71014285D02*
X190331009Y-71061904D01*
X190331009Y-71061904D02*
X190283390Y-71109523D01*
X190283390Y-71109523D02*
X190235771Y-71204761D01*
X190235771Y-71204761D02*
X190235771Y-71395237D01*
X190235771Y-71395237D02*
X190283390Y-71490475D01*
X190283390Y-71490475D02*
X190331009Y-71538094D01*
X190331009Y-71538094D02*
X190426247Y-71585713D01*
X184679819Y-70330357D02*
X184203628Y-70663690D01*
X184679819Y-70901785D02*
X183679819Y-70901785D01*
X183679819Y-70901785D02*
X183679819Y-70520833D01*
X183679819Y-70520833D02*
X183727438Y-70425595D01*
X183727438Y-70425595D02*
X183775057Y-70377976D01*
X183775057Y-70377976D02*
X183870295Y-70330357D01*
X183870295Y-70330357D02*
X184013152Y-70330357D01*
X184013152Y-70330357D02*
X184108390Y-70377976D01*
X184108390Y-70377976D02*
X184156009Y-70425595D01*
X184156009Y-70425595D02*
X184203628Y-70520833D01*
X184203628Y-70520833D02*
X184203628Y-70901785D01*
X184679819Y-69377976D02*
X184679819Y-69949404D01*
X184679819Y-69663690D02*
X183679819Y-69663690D01*
X183679819Y-69663690D02*
X183822676Y-69758928D01*
X183822676Y-69758928D02*
X183917914Y-69854166D01*
X183917914Y-69854166D02*
X183965533Y-69949404D01*
X184013152Y-68520833D02*
X184679819Y-68520833D01*
X183632200Y-68758928D02*
X184346485Y-68997023D01*
X184346485Y-68997023D02*
X184346485Y-68377976D01*
X181854819Y-58192857D02*
X181378628Y-58526190D01*
X181854819Y-58764285D02*
X180854819Y-58764285D01*
X180854819Y-58764285D02*
X180854819Y-58383333D01*
X180854819Y-58383333D02*
X180902438Y-58288095D01*
X180902438Y-58288095D02*
X180950057Y-58240476D01*
X180950057Y-58240476D02*
X181045295Y-58192857D01*
X181045295Y-58192857D02*
X181188152Y-58192857D01*
X181188152Y-58192857D02*
X181283390Y-58240476D01*
X181283390Y-58240476D02*
X181331009Y-58288095D01*
X181331009Y-58288095D02*
X181378628Y-58383333D01*
X181378628Y-58383333D02*
X181378628Y-58764285D01*
X181854819Y-57240476D02*
X181854819Y-57811904D01*
X181854819Y-57526190D02*
X180854819Y-57526190D01*
X180854819Y-57526190D02*
X180997676Y-57621428D01*
X180997676Y-57621428D02*
X181092914Y-57716666D01*
X181092914Y-57716666D02*
X181140533Y-57811904D01*
X180854819Y-56907142D02*
X180854819Y-56288095D01*
X180854819Y-56288095D02*
X181235771Y-56621428D01*
X181235771Y-56621428D02*
X181235771Y-56478571D01*
X181235771Y-56478571D02*
X181283390Y-56383333D01*
X181283390Y-56383333D02*
X181331009Y-56335714D01*
X181331009Y-56335714D02*
X181426247Y-56288095D01*
X181426247Y-56288095D02*
X181664342Y-56288095D01*
X181664342Y-56288095D02*
X181759580Y-56335714D01*
X181759580Y-56335714D02*
X181807200Y-56383333D01*
X181807200Y-56383333D02*
X181854819Y-56478571D01*
X181854819Y-56478571D02*
X181854819Y-56764285D01*
X181854819Y-56764285D02*
X181807200Y-56859523D01*
X181807200Y-56859523D02*
X181759580Y-56907142D01*
X181654819Y-68642857D02*
X181178628Y-68976190D01*
X181654819Y-69214285D02*
X180654819Y-69214285D01*
X180654819Y-69214285D02*
X180654819Y-68833333D01*
X180654819Y-68833333D02*
X180702438Y-68738095D01*
X180702438Y-68738095D02*
X180750057Y-68690476D01*
X180750057Y-68690476D02*
X180845295Y-68642857D01*
X180845295Y-68642857D02*
X180988152Y-68642857D01*
X180988152Y-68642857D02*
X181083390Y-68690476D01*
X181083390Y-68690476D02*
X181131009Y-68738095D01*
X181131009Y-68738095D02*
X181178628Y-68833333D01*
X181178628Y-68833333D02*
X181178628Y-69214285D01*
X181654819Y-67690476D02*
X181654819Y-68261904D01*
X181654819Y-67976190D02*
X180654819Y-67976190D01*
X180654819Y-67976190D02*
X180797676Y-68071428D01*
X180797676Y-68071428D02*
X180892914Y-68166666D01*
X180892914Y-68166666D02*
X180940533Y-68261904D01*
X180750057Y-67309523D02*
X180702438Y-67261904D01*
X180702438Y-67261904D02*
X180654819Y-67166666D01*
X180654819Y-67166666D02*
X180654819Y-66928571D01*
X180654819Y-66928571D02*
X180702438Y-66833333D01*
X180702438Y-66833333D02*
X180750057Y-66785714D01*
X180750057Y-66785714D02*
X180845295Y-66738095D01*
X180845295Y-66738095D02*
X180940533Y-66738095D01*
X180940533Y-66738095D02*
X181083390Y-66785714D01*
X181083390Y-66785714D02*
X181654819Y-67357142D01*
X181654819Y-67357142D02*
X181654819Y-66738095D01*
X182134580Y-61216666D02*
X182182200Y-61264285D01*
X182182200Y-61264285D02*
X182229819Y-61407142D01*
X182229819Y-61407142D02*
X182229819Y-61502380D01*
X182229819Y-61502380D02*
X182182200Y-61645237D01*
X182182200Y-61645237D02*
X182086961Y-61740475D01*
X182086961Y-61740475D02*
X181991723Y-61788094D01*
X181991723Y-61788094D02*
X181801247Y-61835713D01*
X181801247Y-61835713D02*
X181658390Y-61835713D01*
X181658390Y-61835713D02*
X181467914Y-61788094D01*
X181467914Y-61788094D02*
X181372676Y-61740475D01*
X181372676Y-61740475D02*
X181277438Y-61645237D01*
X181277438Y-61645237D02*
X181229819Y-61502380D01*
X181229819Y-61502380D02*
X181229819Y-61407142D01*
X181229819Y-61407142D02*
X181277438Y-61264285D01*
X181277438Y-61264285D02*
X181325057Y-61216666D01*
X181229819Y-60311904D02*
X181229819Y-60788094D01*
X181229819Y-60788094D02*
X181706009Y-60835713D01*
X181706009Y-60835713D02*
X181658390Y-60788094D01*
X181658390Y-60788094D02*
X181610771Y-60692856D01*
X181610771Y-60692856D02*
X181610771Y-60454761D01*
X181610771Y-60454761D02*
X181658390Y-60359523D01*
X181658390Y-60359523D02*
X181706009Y-60311904D01*
X181706009Y-60311904D02*
X181801247Y-60264285D01*
X181801247Y-60264285D02*
X182039342Y-60264285D01*
X182039342Y-60264285D02*
X182134580Y-60311904D01*
X182134580Y-60311904D02*
X182182200Y-60359523D01*
X182182200Y-60359523D02*
X182229819Y-60454761D01*
X182229819Y-60454761D02*
X182229819Y-60692856D01*
X182229819Y-60692856D02*
X182182200Y-60788094D01*
X182182200Y-60788094D02*
X182134580Y-60835713D01*
X199059580Y-69466666D02*
X199107200Y-69514285D01*
X199107200Y-69514285D02*
X199154819Y-69657142D01*
X199154819Y-69657142D02*
X199154819Y-69752380D01*
X199154819Y-69752380D02*
X199107200Y-69895237D01*
X199107200Y-69895237D02*
X199011961Y-69990475D01*
X199011961Y-69990475D02*
X198916723Y-70038094D01*
X198916723Y-70038094D02*
X198726247Y-70085713D01*
X198726247Y-70085713D02*
X198583390Y-70085713D01*
X198583390Y-70085713D02*
X198392914Y-70038094D01*
X198392914Y-70038094D02*
X198297676Y-69990475D01*
X198297676Y-69990475D02*
X198202438Y-69895237D01*
X198202438Y-69895237D02*
X198154819Y-69752380D01*
X198154819Y-69752380D02*
X198154819Y-69657142D01*
X198154819Y-69657142D02*
X198202438Y-69514285D01*
X198202438Y-69514285D02*
X198250057Y-69466666D01*
X198250057Y-69085713D02*
X198202438Y-69038094D01*
X198202438Y-69038094D02*
X198154819Y-68942856D01*
X198154819Y-68942856D02*
X198154819Y-68704761D01*
X198154819Y-68704761D02*
X198202438Y-68609523D01*
X198202438Y-68609523D02*
X198250057Y-68561904D01*
X198250057Y-68561904D02*
X198345295Y-68514285D01*
X198345295Y-68514285D02*
X198440533Y-68514285D01*
X198440533Y-68514285D02*
X198583390Y-68561904D01*
X198583390Y-68561904D02*
X199154819Y-69133332D01*
X199154819Y-69133332D02*
X199154819Y-68514285D01*
X187454818Y-64011904D02*
X188264341Y-64011904D01*
X188264341Y-64011904D02*
X188359579Y-63964285D01*
X188359579Y-63964285D02*
X188407199Y-63916666D01*
X188407199Y-63916666D02*
X188454818Y-63821428D01*
X188454818Y-63821428D02*
X188454818Y-63630952D01*
X188454818Y-63630952D02*
X188407199Y-63535714D01*
X188407199Y-63535714D02*
X188359579Y-63488095D01*
X188359579Y-63488095D02*
X188264341Y-63440476D01*
X188264341Y-63440476D02*
X187454818Y-63440476D01*
X187788151Y-62535714D02*
X188454818Y-62535714D01*
X187407199Y-62773809D02*
X188121484Y-63011904D01*
X188121484Y-63011904D02*
X188121484Y-62392857D01*
X192254819Y-72442857D02*
X191778628Y-72776190D01*
X192254819Y-73014285D02*
X191254819Y-73014285D01*
X191254819Y-73014285D02*
X191254819Y-72633333D01*
X191254819Y-72633333D02*
X191302438Y-72538095D01*
X191302438Y-72538095D02*
X191350057Y-72490476D01*
X191350057Y-72490476D02*
X191445295Y-72442857D01*
X191445295Y-72442857D02*
X191588152Y-72442857D01*
X191588152Y-72442857D02*
X191683390Y-72490476D01*
X191683390Y-72490476D02*
X191731009Y-72538095D01*
X191731009Y-72538095D02*
X191778628Y-72633333D01*
X191778628Y-72633333D02*
X191778628Y-73014285D01*
X192254819Y-71490476D02*
X192254819Y-72061904D01*
X192254819Y-71776190D02*
X191254819Y-71776190D01*
X191254819Y-71776190D02*
X191397676Y-71871428D01*
X191397676Y-71871428D02*
X191492914Y-71966666D01*
X191492914Y-71966666D02*
X191540533Y-72061904D01*
X192254819Y-70538095D02*
X192254819Y-71109523D01*
X192254819Y-70823809D02*
X191254819Y-70823809D01*
X191254819Y-70823809D02*
X191397676Y-70919047D01*
X191397676Y-70919047D02*
X191492914Y-71014285D01*
X191492914Y-71014285D02*
X191540533Y-71109523D01*
X208454819Y-64333333D02*
X209169104Y-64333333D01*
X209169104Y-64333333D02*
X209311961Y-64380952D01*
X209311961Y-64380952D02*
X209407200Y-64476190D01*
X209407200Y-64476190D02*
X209454819Y-64619047D01*
X209454819Y-64619047D02*
X209454819Y-64714285D01*
X208454819Y-63380952D02*
X208454819Y-63857142D01*
X208454819Y-63857142D02*
X208931009Y-63904761D01*
X208931009Y-63904761D02*
X208883390Y-63857142D01*
X208883390Y-63857142D02*
X208835771Y-63761904D01*
X208835771Y-63761904D02*
X208835771Y-63523809D01*
X208835771Y-63523809D02*
X208883390Y-63428571D01*
X208883390Y-63428571D02*
X208931009Y-63380952D01*
X208931009Y-63380952D02*
X209026247Y-63333333D01*
X209026247Y-63333333D02*
X209264342Y-63333333D01*
X209264342Y-63333333D02*
X209359580Y-63380952D01*
X209359580Y-63380952D02*
X209407200Y-63428571D01*
X209407200Y-63428571D02*
X209454819Y-63523809D01*
X209454819Y-63523809D02*
X209454819Y-63761904D01*
X209454819Y-63761904D02*
X209407200Y-63857142D01*
X209407200Y-63857142D02*
X209359580Y-63904761D01*
D10*
X193430667Y-79862692D02*
X193382286Y-79911073D01*
X193382286Y-79911073D02*
X193237143Y-79959453D01*
X193237143Y-79959453D02*
X193140381Y-79959453D01*
X193140381Y-79959453D02*
X192995238Y-79911073D01*
X192995238Y-79911073D02*
X192898476Y-79814311D01*
X192898476Y-79814311D02*
X192850095Y-79717549D01*
X192850095Y-79717549D02*
X192801714Y-79524025D01*
X192801714Y-79524025D02*
X192801714Y-79378882D01*
X192801714Y-79378882D02*
X192850095Y-79185358D01*
X192850095Y-79185358D02*
X192898476Y-79088596D01*
X192898476Y-79088596D02*
X192995238Y-78991834D01*
X192995238Y-78991834D02*
X193140381Y-78943453D01*
X193140381Y-78943453D02*
X193237143Y-78943453D01*
X193237143Y-78943453D02*
X193382286Y-78991834D01*
X193382286Y-78991834D02*
X193430667Y-79040215D01*
X193769333Y-78943453D02*
X194398286Y-78943453D01*
X194398286Y-78943453D02*
X194059619Y-79330501D01*
X194059619Y-79330501D02*
X194204762Y-79330501D01*
X194204762Y-79330501D02*
X194301524Y-79378882D01*
X194301524Y-79378882D02*
X194349905Y-79427263D01*
X194349905Y-79427263D02*
X194398286Y-79524025D01*
X194398286Y-79524025D02*
X194398286Y-79765930D01*
X194398286Y-79765930D02*
X194349905Y-79862692D01*
X194349905Y-79862692D02*
X194301524Y-79911073D01*
X194301524Y-79911073D02*
X194204762Y-79959453D01*
X194204762Y-79959453D02*
X193914476Y-79959453D01*
X193914476Y-79959453D02*
X193817714Y-79911073D01*
X193817714Y-79911073D02*
X193769333Y-79862692D01*
X158931332Y-54243452D02*
X158931332Y-54969167D01*
X158931332Y-54969167D02*
X158882951Y-55114310D01*
X158882951Y-55114310D02*
X158786189Y-55211072D01*
X158786189Y-55211072D02*
X158641046Y-55259452D01*
X158641046Y-55259452D02*
X158544284Y-55259452D01*
X159318379Y-54243452D02*
X159947332Y-54243452D01*
X159947332Y-54243452D02*
X159608665Y-54630500D01*
X159608665Y-54630500D02*
X159753808Y-54630500D01*
X159753808Y-54630500D02*
X159850570Y-54678881D01*
X159850570Y-54678881D02*
X159898951Y-54727262D01*
X159898951Y-54727262D02*
X159947332Y-54824024D01*
X159947332Y-54824024D02*
X159947332Y-55065929D01*
X159947332Y-55065929D02*
X159898951Y-55162691D01*
X159898951Y-55162691D02*
X159850570Y-55211072D01*
X159850570Y-55211072D02*
X159753808Y-55259452D01*
X159753808Y-55259452D02*
X159463522Y-55259452D01*
X159463522Y-55259452D02*
X159366760Y-55211072D01*
X159366760Y-55211072D02*
X159318379Y-55162691D01*
X186743453Y-55974095D02*
X187565930Y-55974095D01*
X187565930Y-55974095D02*
X187662692Y-55925714D01*
X187662692Y-55925714D02*
X187711073Y-55877333D01*
X187711073Y-55877333D02*
X187759453Y-55780571D01*
X187759453Y-55780571D02*
X187759453Y-55587047D01*
X187759453Y-55587047D02*
X187711073Y-55490285D01*
X187711073Y-55490285D02*
X187662692Y-55441904D01*
X187662692Y-55441904D02*
X187565930Y-55393523D01*
X187565930Y-55393523D02*
X186743453Y-55393523D01*
X186743453Y-55006476D02*
X186743453Y-54377523D01*
X186743453Y-54377523D02*
X187130501Y-54716190D01*
X187130501Y-54716190D02*
X187130501Y-54571047D01*
X187130501Y-54571047D02*
X187178882Y-54474285D01*
X187178882Y-54474285D02*
X187227263Y-54425904D01*
X187227263Y-54425904D02*
X187324025Y-54377523D01*
X187324025Y-54377523D02*
X187565930Y-54377523D01*
X187565930Y-54377523D02*
X187662692Y-54425904D01*
X187662692Y-54425904D02*
X187711073Y-54474285D01*
X187711073Y-54474285D02*
X187759453Y-54571047D01*
X187759453Y-54571047D02*
X187759453Y-54861333D01*
X187759453Y-54861333D02*
X187711073Y-54958095D01*
X187711073Y-54958095D02*
X187662692Y-55006476D01*
X205881073Y-76604666D02*
X205929453Y-76459523D01*
X205929453Y-76459523D02*
X205929453Y-76217618D01*
X205929453Y-76217618D02*
X205881073Y-76120856D01*
X205881073Y-76120856D02*
X205832692Y-76072475D01*
X205832692Y-76072475D02*
X205735930Y-76024094D01*
X205735930Y-76024094D02*
X205639168Y-76024094D01*
X205639168Y-76024094D02*
X205542406Y-76072475D01*
X205542406Y-76072475D02*
X205494025Y-76120856D01*
X205494025Y-76120856D02*
X205445644Y-76217618D01*
X205445644Y-76217618D02*
X205397263Y-76411142D01*
X205397263Y-76411142D02*
X205348882Y-76507904D01*
X205348882Y-76507904D02*
X205300501Y-76556285D01*
X205300501Y-76556285D02*
X205203739Y-76604666D01*
X205203739Y-76604666D02*
X205106977Y-76604666D01*
X205106977Y-76604666D02*
X205010215Y-76556285D01*
X205010215Y-76556285D02*
X204961834Y-76507904D01*
X204961834Y-76507904D02*
X204913453Y-76411142D01*
X204913453Y-76411142D02*
X204913453Y-76169237D01*
X204913453Y-76169237D02*
X204961834Y-76024094D01*
X204913453Y-75685428D02*
X205929453Y-75443523D01*
X205929453Y-75443523D02*
X205203739Y-75249999D01*
X205203739Y-75249999D02*
X205929453Y-75056475D01*
X205929453Y-75056475D02*
X204913453Y-74814571D01*
X205010215Y-74475904D02*
X204961834Y-74427523D01*
X204961834Y-74427523D02*
X204913453Y-74330761D01*
X204913453Y-74330761D02*
X204913453Y-74088856D01*
X204913453Y-74088856D02*
X204961834Y-73992094D01*
X204961834Y-73992094D02*
X205010215Y-73943713D01*
X205010215Y-73943713D02*
X205106977Y-73895332D01*
X205106977Y-73895332D02*
X205203739Y-73895332D01*
X205203739Y-73895332D02*
X205348882Y-73943713D01*
X205348882Y-73943713D02*
X205929453Y-74524285D01*
X205929453Y-74524285D02*
X205929453Y-73895332D01*
X200862692Y-57919332D02*
X200911073Y-57967713D01*
X200911073Y-57967713D02*
X200959453Y-58112856D01*
X200959453Y-58112856D02*
X200959453Y-58209618D01*
X200959453Y-58209618D02*
X200911073Y-58354761D01*
X200911073Y-58354761D02*
X200814311Y-58451523D01*
X200814311Y-58451523D02*
X200717549Y-58499904D01*
X200717549Y-58499904D02*
X200524025Y-58548285D01*
X200524025Y-58548285D02*
X200378882Y-58548285D01*
X200378882Y-58548285D02*
X200185358Y-58499904D01*
X200185358Y-58499904D02*
X200088596Y-58451523D01*
X200088596Y-58451523D02*
X199991834Y-58354761D01*
X199991834Y-58354761D02*
X199943453Y-58209618D01*
X199943453Y-58209618D02*
X199943453Y-58112856D01*
X199943453Y-58112856D02*
X199991834Y-57967713D01*
X199991834Y-57967713D02*
X200040215Y-57919332D01*
X200282120Y-57048475D02*
X200959453Y-57048475D01*
X199895073Y-57290380D02*
X200620787Y-57532285D01*
X200620787Y-57532285D02*
X200620787Y-56903332D01*
X151941333Y-54443452D02*
X151941333Y-55169167D01*
X151941333Y-55169167D02*
X151892952Y-55314310D01*
X151892952Y-55314310D02*
X151796190Y-55411072D01*
X151796190Y-55411072D02*
X151651047Y-55459452D01*
X151651047Y-55459452D02*
X151554285Y-55459452D01*
X152957333Y-55459452D02*
X152376761Y-55459452D01*
X152667047Y-55459452D02*
X152667047Y-54443452D01*
X152667047Y-54443452D02*
X152570285Y-54588595D01*
X152570285Y-54588595D02*
X152473523Y-54685357D01*
X152473523Y-54685357D02*
X152376761Y-54733738D01*
X166886332Y-54243452D02*
X166886332Y-54969167D01*
X166886332Y-54969167D02*
X166837951Y-55114310D01*
X166837951Y-55114310D02*
X166741189Y-55211072D01*
X166741189Y-55211072D02*
X166596046Y-55259452D01*
X166596046Y-55259452D02*
X166499284Y-55259452D01*
X167321760Y-54340214D02*
X167370141Y-54291833D01*
X167370141Y-54291833D02*
X167466903Y-54243452D01*
X167466903Y-54243452D02*
X167708808Y-54243452D01*
X167708808Y-54243452D02*
X167805570Y-54291833D01*
X167805570Y-54291833D02*
X167853951Y-54340214D01*
X167853951Y-54340214D02*
X167902332Y-54436976D01*
X167902332Y-54436976D02*
X167902332Y-54533738D01*
X167902332Y-54533738D02*
X167853951Y-54678881D01*
X167853951Y-54678881D02*
X167273379Y-55259452D01*
X167273379Y-55259452D02*
X167902332Y-55259452D01*
X148259453Y-58569332D02*
X147775644Y-58907999D01*
X148259453Y-59149904D02*
X147243453Y-59149904D01*
X147243453Y-59149904D02*
X147243453Y-58762856D01*
X147243453Y-58762856D02*
X147291834Y-58666094D01*
X147291834Y-58666094D02*
X147340215Y-58617713D01*
X147340215Y-58617713D02*
X147436977Y-58569332D01*
X147436977Y-58569332D02*
X147582120Y-58569332D01*
X147582120Y-58569332D02*
X147678882Y-58617713D01*
X147678882Y-58617713D02*
X147727263Y-58666094D01*
X147727263Y-58666094D02*
X147775644Y-58762856D01*
X147775644Y-58762856D02*
X147775644Y-59149904D01*
X148259453Y-57601713D02*
X148259453Y-58182285D01*
X148259453Y-57891999D02*
X147243453Y-57891999D01*
X147243453Y-57891999D02*
X147388596Y-57988761D01*
X147388596Y-57988761D02*
X147485358Y-58085523D01*
X147485358Y-58085523D02*
X147533739Y-58182285D01*
X141330667Y-57562692D02*
X141282286Y-57611073D01*
X141282286Y-57611073D02*
X141137143Y-57659453D01*
X141137143Y-57659453D02*
X141040381Y-57659453D01*
X141040381Y-57659453D02*
X140895238Y-57611073D01*
X140895238Y-57611073D02*
X140798476Y-57514311D01*
X140798476Y-57514311D02*
X140750095Y-57417549D01*
X140750095Y-57417549D02*
X140701714Y-57224025D01*
X140701714Y-57224025D02*
X140701714Y-57078882D01*
X140701714Y-57078882D02*
X140750095Y-56885358D01*
X140750095Y-56885358D02*
X140798476Y-56788596D01*
X140798476Y-56788596D02*
X140895238Y-56691834D01*
X140895238Y-56691834D02*
X141040381Y-56643453D01*
X141040381Y-56643453D02*
X141137143Y-56643453D01*
X141137143Y-56643453D02*
X141282286Y-56691834D01*
X141282286Y-56691834D02*
X141330667Y-56740215D01*
X142298286Y-57659453D02*
X141717714Y-57659453D01*
X142008000Y-57659453D02*
X142008000Y-56643453D01*
X142008000Y-56643453D02*
X141911238Y-56788596D01*
X141911238Y-56788596D02*
X141814476Y-56885358D01*
X141814476Y-56885358D02*
X141717714Y-56933739D01*
X143809453Y-57769332D02*
X143325644Y-58107999D01*
X143809453Y-58349904D02*
X142793453Y-58349904D01*
X142793453Y-58349904D02*
X142793453Y-57962856D01*
X142793453Y-57962856D02*
X142841834Y-57866094D01*
X142841834Y-57866094D02*
X142890215Y-57817713D01*
X142890215Y-57817713D02*
X142986977Y-57769332D01*
X142986977Y-57769332D02*
X143132120Y-57769332D01*
X143132120Y-57769332D02*
X143228882Y-57817713D01*
X143228882Y-57817713D02*
X143277263Y-57866094D01*
X143277263Y-57866094D02*
X143325644Y-57962856D01*
X143325644Y-57962856D02*
X143325644Y-58349904D01*
X142890215Y-57382285D02*
X142841834Y-57333904D01*
X142841834Y-57333904D02*
X142793453Y-57237142D01*
X142793453Y-57237142D02*
X142793453Y-56995237D01*
X142793453Y-56995237D02*
X142841834Y-56898475D01*
X142841834Y-56898475D02*
X142890215Y-56850094D01*
X142890215Y-56850094D02*
X142986977Y-56801713D01*
X142986977Y-56801713D02*
X143083739Y-56801713D01*
X143083739Y-56801713D02*
X143228882Y-56850094D01*
X143228882Y-56850094D02*
X143809453Y-57430666D01*
X143809453Y-57430666D02*
X143809453Y-56801713D01*
X206143453Y-55588666D02*
X206869168Y-55588666D01*
X206869168Y-55588666D02*
X207014311Y-55637047D01*
X207014311Y-55637047D02*
X207111073Y-55733809D01*
X207111073Y-55733809D02*
X207159453Y-55878952D01*
X207159453Y-55878952D02*
X207159453Y-55975714D01*
X206482120Y-54669428D02*
X207159453Y-54669428D01*
X206095073Y-54911333D02*
X206820787Y-55153238D01*
X206820787Y-55153238D02*
X206820787Y-54524285D01*
X185911073Y-79354666D02*
X185959453Y-79209523D01*
X185959453Y-79209523D02*
X185959453Y-78967618D01*
X185959453Y-78967618D02*
X185911073Y-78870856D01*
X185911073Y-78870856D02*
X185862692Y-78822475D01*
X185862692Y-78822475D02*
X185765930Y-78774094D01*
X185765930Y-78774094D02*
X185669168Y-78774094D01*
X185669168Y-78774094D02*
X185572406Y-78822475D01*
X185572406Y-78822475D02*
X185524025Y-78870856D01*
X185524025Y-78870856D02*
X185475644Y-78967618D01*
X185475644Y-78967618D02*
X185427263Y-79161142D01*
X185427263Y-79161142D02*
X185378882Y-79257904D01*
X185378882Y-79257904D02*
X185330501Y-79306285D01*
X185330501Y-79306285D02*
X185233739Y-79354666D01*
X185233739Y-79354666D02*
X185136977Y-79354666D01*
X185136977Y-79354666D02*
X185040215Y-79306285D01*
X185040215Y-79306285D02*
X184991834Y-79257904D01*
X184991834Y-79257904D02*
X184943453Y-79161142D01*
X184943453Y-79161142D02*
X184943453Y-78919237D01*
X184943453Y-78919237D02*
X184991834Y-78774094D01*
X184943453Y-78435428D02*
X185959453Y-78193523D01*
X185959453Y-78193523D02*
X185233739Y-77999999D01*
X185233739Y-77999999D02*
X185959453Y-77806475D01*
X185959453Y-77806475D02*
X184943453Y-77564571D01*
X185959453Y-76645332D02*
X185959453Y-77225904D01*
X185959453Y-76935618D02*
X184943453Y-76935618D01*
X184943453Y-76935618D02*
X185088596Y-77032380D01*
X185088596Y-77032380D02*
X185185358Y-77129142D01*
X185185358Y-77129142D02*
X185233739Y-77225904D01*
D12*
X184489999Y-64512500D02*
X184490000Y-65662500D01*
X184489999Y-64512500D02*
X184490000Y-63362500D01*
X186860001Y-64512500D02*
X186860000Y-65662500D01*
X186860001Y-64512500D02*
X186860000Y-63362500D01*
X184925000Y-67687500D02*
X184445000Y-67687500D01*
X184685000Y-67357500D01*
X184925000Y-67687500D01*
G36*
X184925000Y-67687500D02*
G01*
X184445000Y-67687500D01*
X184685000Y-67357500D01*
X184925000Y-67687500D01*
G37*
D11*
X175551600Y-79890000D02*
X175551600Y-62110000D01*
X175551600Y-62110000D02*
X139991600Y-62110000D01*
X139991600Y-79890000D02*
X175551600Y-79890000D01*
X139991600Y-67190000D02*
X138721600Y-67190000D01*
X139991600Y-62110000D02*
X139991600Y-79890000D01*
X138721600Y-74810000D02*
X139991600Y-74810000D01*
X138721600Y-67190000D02*
X138721600Y-74810000D01*
D12*
X165772936Y-59265000D02*
X166227064Y-59265000D01*
X165772936Y-60735000D02*
X166227064Y-60735000D01*
X161522936Y-59265000D02*
X161977064Y-59265000D01*
X161522936Y-60735000D02*
X161977064Y-60735000D01*
X153772936Y-59265000D02*
X154227064Y-59265000D01*
X153772936Y-60735000D02*
X154227064Y-60735000D01*
X149522936Y-59265000D02*
X149977064Y-59265000D01*
X149522936Y-60735000D02*
X149977064Y-60735000D01*
X175777064Y-58515000D02*
X175322936Y-58515000D01*
X175777064Y-59985000D02*
X175322936Y-59985000D01*
X174422936Y-61685000D02*
X174877064Y-61685000D01*
X174422936Y-60215000D02*
X174877064Y-60215000D01*
X189985000Y-59261253D02*
X189985000Y-58738747D01*
X188515000Y-59261253D02*
X188515000Y-58738747D01*
X189738747Y-67677989D02*
X190261253Y-67677989D01*
X189738747Y-69147989D02*
X190261253Y-69147989D01*
X186172936Y-67865000D02*
X186627064Y-67865000D01*
X186172936Y-69335000D02*
X186627064Y-69335000D01*
X183977064Y-56065000D02*
X183522936Y-56065000D01*
X183977064Y-57535000D02*
X183522936Y-57535000D01*
X180940000Y-65239564D02*
X180940000Y-64785436D01*
X182410000Y-65239564D02*
X182410000Y-64785436D01*
X184110000Y-61473753D02*
X184110000Y-60951247D01*
X182640000Y-61473753D02*
X182640000Y-60951247D01*
X196265000Y-69488747D02*
X196265000Y-70011253D01*
X197735000Y-69488747D02*
X197735000Y-70011253D01*
X189190000Y-66380000D02*
X188860000Y-66620000D01*
X188860000Y-66140000D01*
X189190000Y-66380000D01*
G36*
X189190000Y-66380000D02*
G01*
X188860000Y-66620000D01*
X188860000Y-66140000D01*
X189190000Y-66380000D01*
G37*
X195910000Y-61340000D02*
X194650001Y-61340000D01*
X189090000Y-61340000D02*
X190349999Y-61340000D01*
X195910001Y-65100000D02*
X195910000Y-61340000D01*
X189089999Y-65100000D02*
X189090000Y-61340000D01*
X193672936Y-69635000D02*
X194127064Y-69635000D01*
X193672936Y-68165000D02*
X194127064Y-68165000D01*
X209777500Y-58890000D02*
X209777500Y-69110000D01*
X208557500Y-58890000D02*
X208557499Y-60110000D01*
X201357500Y-58890000D02*
X209777500Y-58890000D01*
X208557499Y-60110000D02*
X203557500Y-60110001D01*
X204557500Y-60110000D02*
X204557500Y-67890000D01*
X203557500Y-60110001D02*
X203557500Y-58890000D01*
X203557500Y-60110001D02*
X201357501Y-60110000D01*
X201357501Y-60110000D02*
X201357500Y-58890000D01*
X207977500Y-61180000D02*
X208057501Y-61500000D01*
X204557500Y-61180000D02*
X207977500Y-61180000D01*
X200867500Y-61200000D02*
X200867500Y-61800000D01*
X208057501Y-61500000D02*
X207977500Y-61820000D01*
X204557500Y-61500000D02*
X204557500Y-61180000D01*
X201467500Y-61500000D02*
X200867500Y-61200000D01*
X200867500Y-61800000D02*
X201467500Y-61500000D01*
X207977500Y-61820000D02*
X204557500Y-61820000D01*
X204557500Y-61820000D02*
X204557500Y-61500000D01*
X203557500Y-62670000D02*
X203557500Y-62830000D01*
X207977500Y-63680000D02*
X208057500Y-63999999D01*
X204557500Y-63680000D02*
X207977500Y-63680000D01*
X208057500Y-63999999D02*
X207977500Y-64320000D01*
X204557500Y-64000000D02*
X204557500Y-63680000D01*
X207977500Y-64320000D02*
X204557500Y-64320000D01*
X204557500Y-64320000D02*
X204557500Y-64000000D01*
X203557500Y-65170000D02*
X203557500Y-65330000D01*
X207977500Y-66180000D02*
X208057500Y-66499999D01*
X204557500Y-66180000D02*
X207977500Y-66180000D01*
X208057500Y-66499999D02*
X207977500Y-66820000D01*
X204557500Y-66500000D02*
X204557500Y-66180000D01*
X207977500Y-66820000D02*
X204557500Y-66820000D01*
X204557500Y-66820000D02*
X204557500Y-66500000D01*
X208557500Y-67890000D02*
X203557500Y-67890000D01*
X203557500Y-67890000D02*
X203557500Y-69110001D01*
X201357500Y-67890000D02*
X203557500Y-67890000D01*
X209777500Y-69110000D02*
X201357500Y-69110001D01*
X208557500Y-69110001D02*
X208557500Y-67890000D01*
X201357500Y-69110001D02*
X201357500Y-67890000D01*
D13*
X142850000Y-52135000D02*
G75*
G02*
X142750000Y-52135000I-50000J0D01*
G01*
X142750000Y-52135000D02*
G75*
G02*
X142850000Y-52135000I50000J0D01*
G01*
D12*
X197125000Y-79435000D02*
X196500000Y-79435000D01*
X196812500Y-79747500D02*
X196812500Y-79122500D01*
X196260000Y-79445563D02*
X196260000Y-78810000D01*
X196260000Y-79445563D02*
X195195563Y-80510000D01*
X196260000Y-76054437D02*
X196260000Y-76690000D01*
X196260000Y-76054437D02*
X195195563Y-74990000D01*
X195195563Y-80510000D02*
X190740000Y-80510000D01*
X195195563Y-74990000D02*
X190740000Y-74990000D01*
X190740000Y-80510000D02*
X190740000Y-78810000D01*
X190740000Y-74990000D02*
X190740000Y-76690000D01*
X155789999Y-52840000D02*
X159274999Y-52840000D01*
X155789999Y-58560000D02*
X155789999Y-52840000D01*
X156859999Y-58260000D02*
X156859999Y-58560000D01*
X156859999Y-58560000D02*
X155789999Y-58560000D01*
X159274999Y-58260000D02*
X156859999Y-58260000D01*
X159274999Y-58260000D02*
X161689999Y-58260000D01*
X161399999Y-58550000D02*
X161399999Y-58850000D01*
X161399999Y-58850000D02*
X161899999Y-58850000D01*
X161689999Y-58260000D02*
X161689999Y-58560000D01*
X161689999Y-58560000D02*
X162759999Y-58560000D01*
X162759999Y-52840000D02*
X159274999Y-52840000D01*
X162759999Y-58560000D02*
X162759999Y-52840000D01*
X190000000Y-53439999D02*
X189200000Y-53440000D01*
X190000000Y-53439999D02*
X190800000Y-53440000D01*
X190000000Y-56560001D02*
X189200000Y-56560000D01*
X190000000Y-56560001D02*
X190800000Y-56560000D01*
X191540000Y-56840000D02*
X191060000Y-56840000D01*
X191300000Y-56510000D01*
X191540000Y-56840000D01*
G36*
X191540000Y-56840000D02*
G01*
X191060000Y-56840000D01*
X191300000Y-56510000D01*
X191540000Y-56840000D01*
G37*
D13*
X208320000Y-77750000D02*
X210820000Y-77750000D01*
X210820000Y-72750000D01*
X208320000Y-72750000D01*
X208320000Y-77750000D01*
X208320000Y-80150000D02*
X198420000Y-80150000D01*
X208320000Y-77750000D02*
X208320000Y-80150000D01*
X208320000Y-70350000D02*
X208320000Y-72750000D01*
X198420000Y-80150000D02*
X198420000Y-79250000D01*
X198420000Y-70350000D02*
X208320000Y-70350000D01*
X198420000Y-70350000D02*
X198420000Y-71250000D01*
D12*
X199765000Y-54738747D02*
X199765000Y-55261253D01*
X201235000Y-54738747D02*
X201235000Y-55261253D01*
D13*
X141300000Y-52135000D02*
G75*
G02*
X141200000Y-52135000I-50000J0D01*
G01*
X141200000Y-52135000D02*
G75*
G02*
X141300000Y-52135000I50000J0D01*
G01*
D12*
X150040000Y-52840000D02*
X152275000Y-52840000D01*
X150040000Y-58560000D02*
X150040000Y-52840000D01*
X151110000Y-58260000D02*
X151110000Y-58560000D01*
X151110000Y-58560000D02*
X150040000Y-58560000D01*
X152275000Y-58260000D02*
X151110000Y-58260000D01*
X152275000Y-58260000D02*
X153440000Y-58260000D01*
X153150000Y-58550000D02*
X153150000Y-58850000D01*
X153150000Y-58850000D02*
X153650000Y-58850000D01*
X153440000Y-58260000D02*
X153440000Y-58560000D01*
X153440000Y-58560000D02*
X154510000Y-58560000D01*
X154510000Y-52840000D02*
X152275000Y-52840000D01*
X154510000Y-58560000D02*
X154510000Y-52840000D01*
X163789999Y-52840000D02*
X167274999Y-52840000D01*
X163789999Y-58560000D02*
X163789999Y-52840000D01*
X164859999Y-58260000D02*
X164859999Y-58560000D01*
X164859999Y-58560000D02*
X163789999Y-58560000D01*
X167274999Y-58260000D02*
X164859999Y-58260000D01*
X167274999Y-58260000D02*
X169689999Y-58260000D01*
X169399999Y-58550000D02*
X169399999Y-58850000D01*
X169399999Y-58850000D02*
X169899999Y-58850000D01*
X169689999Y-58260000D02*
X169689999Y-58560000D01*
X169689999Y-58560000D02*
X170759999Y-58560000D01*
X170759999Y-52840000D02*
X167274999Y-52840000D01*
X170759999Y-58560000D02*
X170759999Y-52840000D01*
X145515000Y-59772936D02*
X145515000Y-60227064D01*
X146985000Y-59772936D02*
X146985000Y-60227064D01*
X140765000Y-60261253D02*
X140765000Y-59738747D01*
X142235000Y-60261253D02*
X142235000Y-59738747D01*
X144985000Y-59772936D02*
X144985000Y-60227064D01*
X143515000Y-59772936D02*
X143515000Y-60227064D01*
X202450000Y-56750000D02*
X202450000Y-57250000D01*
X202740000Y-52390000D02*
X208460000Y-52390000D01*
X202740000Y-57040000D02*
X202740000Y-58110000D01*
X202740000Y-58110000D02*
X208460000Y-58110000D01*
X202740001Y-53460000D02*
X202740000Y-52390000D01*
X202750000Y-56750000D02*
X202450000Y-56750000D01*
X203040000Y-53460000D02*
X202740001Y-53460000D01*
X203040000Y-55250000D02*
X203040000Y-53460000D01*
X203040000Y-55250000D02*
X203040000Y-57040000D01*
X203040000Y-57040000D02*
X202740000Y-57040000D01*
X208460000Y-52390000D02*
X208459999Y-55250000D01*
X208460000Y-58110000D02*
X208459999Y-55250000D01*
D13*
X181800000Y-76600000D02*
X181800000Y-80300000D01*
X181800000Y-80300000D02*
X189200000Y-80300000D01*
X184000000Y-81700000D02*
X184000000Y-80300000D01*
X187000000Y-80300000D02*
X187000000Y-81700000D01*
X187000000Y-81700000D02*
X184000000Y-81700000D01*
X189200000Y-74400000D02*
X181800000Y-74400000D01*
X189200000Y-80300000D02*
X189200000Y-76600000D01*
%LPC*%
D14*
X184699999Y-62362500D03*
D15*
X184900000Y-63112511D03*
D16*
X185348834Y-62175001D03*
D17*
X186000000Y-62175000D03*
D18*
X186650001Y-62362500D03*
D19*
X186650001Y-66662500D03*
D20*
X186000000Y-66862484D03*
D21*
X185350001Y-66862499D03*
D22*
X184699999Y-66662500D03*
D23*
X184900000Y-65912500D03*
D24*
X185425000Y-65912500D03*
X185925000Y-65912500D03*
D25*
X186450000Y-65912500D03*
D26*
X186462500Y-63112500D03*
D24*
X185925000Y-63112500D03*
X185425000Y-63112500D03*
D27*
X193300000Y-62849998D03*
D28*
X193300000Y-61550000D03*
D29*
X166661600Y-76080000D03*
D30*
X169201600Y-76080000D03*
D29*
X166661600Y-73540000D03*
D30*
X169201600Y-73540000D03*
D29*
X166661599Y-71000000D03*
D30*
X169201601Y-71000000D03*
D29*
X166661600Y-68460000D03*
D30*
X169201600Y-68460000D03*
D29*
X166661600Y-65920000D03*
D30*
X169201600Y-65920000D03*
D31*
X141261600Y-63380000D03*
X143801600Y-63380000D03*
X146341600Y-63380000D03*
X148881600Y-63380000D03*
X151421600Y-63380000D03*
X153961600Y-63380000D03*
X156501600Y-63380000D03*
X159041600Y-63380000D03*
X161581600Y-63380000D03*
X164121600Y-63380000D03*
X166661600Y-63380000D03*
X169201600Y-63380000D03*
X171741600Y-63380000D03*
X174281600Y-63380000D03*
D32*
X174281601Y-65920000D03*
X174281600Y-68460000D03*
X174281600Y-71000000D03*
X174281600Y-73540000D03*
X174281601Y-76080000D03*
X174281600Y-78620000D03*
X171741600Y-78620000D03*
X169201600Y-78620000D03*
D31*
X166661600Y-78620000D03*
D32*
X164121600Y-78620000D03*
X161581600Y-78620000D03*
X159041600Y-78620000D03*
X156501600Y-78620000D03*
D31*
X153961600Y-78620000D03*
X151421600Y-78620000D03*
X148881600Y-78620000D03*
X146341600Y-78620000D03*
X143801600Y-78620000D03*
X141261600Y-78620000D03*
D33*
X165087500Y-60000000D03*
X166912500Y-60000000D03*
X160837500Y-60000000D03*
X162662500Y-60000000D03*
X153087500Y-60000000D03*
X154912500Y-60000000D03*
X148837500Y-60000000D03*
X150662500Y-60000000D03*
D34*
X174637500Y-59250000D03*
X176462500Y-59250000D03*
D33*
X175562500Y-60950000D03*
X173737500Y-60950000D03*
D35*
X188375000Y-70812500D03*
D36*
X187375000Y-70822500D03*
D37*
X186375000Y-70832500D03*
D38*
X197614178Y-55700036D03*
D39*
X196900000Y-55000000D03*
D40*
X196185822Y-54299964D03*
D37*
X181818921Y-55053998D03*
D36*
X182818921Y-55043998D03*
D35*
X183818921Y-55033998D03*
D41*
X189250000Y-57962500D03*
X189250000Y-60037500D03*
D42*
X188962500Y-68412989D03*
X191037500Y-68412989D03*
D33*
X185487500Y-68600000D03*
X187312500Y-68600000D03*
D34*
X182837500Y-56800000D03*
X184662500Y-56800000D03*
D43*
X181675000Y-65925000D03*
X181675000Y-64100000D03*
D41*
X183375000Y-60175000D03*
X183375000Y-62250000D03*
D44*
X197000000Y-70787500D03*
X197000000Y-68712500D03*
D45*
X192500000Y-60100001D03*
D46*
X194800000Y-66400000D03*
X192500000Y-66399999D03*
X190200000Y-66400000D03*
D33*
X194812500Y-68900000D03*
X192987500Y-68900000D03*
D47*
X202967500Y-61500000D03*
D48*
X202967500Y-64000000D03*
X202967500Y-66500000D03*
D49*
X142800000Y-52827499D03*
X142800000Y-53972501D03*
D50*
X178750000Y-77000000D03*
D51*
X195700000Y-77750000D03*
X191300000Y-77750000D03*
D52*
X161149999Y-57400000D03*
X159900000Y-57400000D03*
D53*
X158649999Y-57400000D03*
D52*
X157400000Y-57400000D03*
D54*
X191137500Y-55949999D03*
X191137500Y-55000000D03*
X191137500Y-54050001D03*
X188862500Y-54050001D03*
X188862500Y-55949999D03*
D31*
X198420000Y-72710000D03*
X198420000Y-77790000D03*
X203500000Y-72710000D03*
X203500000Y-77790000D03*
D44*
X200500000Y-53962500D03*
X200500000Y-56037500D03*
D49*
X141250000Y-52827499D03*
X141250000Y-53972501D03*
D53*
X152900000Y-57400000D03*
D52*
X151650000Y-57400000D03*
X169149999Y-57400000D03*
X167900000Y-57400000D03*
D53*
X166649999Y-57400000D03*
D52*
X165400000Y-57400000D03*
D55*
X146250000Y-59087500D03*
X146250000Y-60912500D03*
D50*
X174000000Y-56000000D03*
D41*
X141500000Y-61037500D03*
X141500000Y-58962500D03*
D50*
X146000000Y-56000000D03*
D55*
X144250000Y-60912500D03*
X144250000Y-59087500D03*
D56*
X203900000Y-56500000D03*
D57*
X203900000Y-55250001D03*
D56*
X203900000Y-54000000D03*
D58*
X182000000Y-75500000D03*
X189000000Y-75500000D03*
X183000000Y-78000000D03*
X188000000Y-78000000D03*
D50*
X194220000Y-71620000D03*
X194220000Y-56380000D03*
D59*
X178980000Y-56380000D03*
X178980000Y-58920000D03*
X178980000Y-61460000D03*
X178980000Y-64000000D03*
X178980000Y-66540000D03*
X178980000Y-69080000D03*
X178980000Y-71620000D03*
%LPD*%
M02*
