M48
; DRILL file {KiCad 8.0.9-8.0.9-0~ubuntu20.04.1} date 2025-04-11T16:54:28-0500
; FORMAT={-:-/ absolute / metric / decimal}
; #@! TF.CreationDate,2025-04-11T16:54:28-05:00
; #@! TF.GenerationSoftware,Kicad,Pcbnew,8.0.9-8.0.9-0~ubuntu20.04.1
; #@! TF.FileFunction,Plated,1,2,PTH
FMAT,2
METRIC
; #@! TA.AperFunction,Plated,PTH,ViaDrill
T1C0.254
; #@! TA.AperFunction,Plated,PTH,ComponentDrill
T2C0.500
; #@! TA.AperFunction,Plated,PTH,ComponentDrill
T3C0.900
; #@! TA.AperFunction,Plated,PTH,ComponentDrill
T4C0.950
; #@! TA.AperFunction,Plated,PTH,ComponentDrill
T5C1.000
; #@! TA.AperFunction,Plated,PTH,ComponentDrill
T6C1.100
; #@! TA.AperFunction,Plated,PTH,ComponentDrill
T7C1.300
; #@! TA.AperFunction,Plated,PTH,ComponentDrill
T8C2.500
%
G90
G05
T1
X141.5Y-58.2
X142.025Y-52.827
X142.275Y-62.15
X146.0Y-74.0
X146.25Y-70.75
X146.75Y-68.75
X147.25Y-66.5
X148.0Y-60.0
X148.0Y-67.25
X148.75Y-73.5
X149.25Y-56.075
X151.65Y-54.5
X152.25Y-60.0
X152.9Y-55.25
X160.0Y-60.0
X164.25Y-60.0
X165.4Y-62.0
X170.4Y-60.8
X171.875Y-54.875
X172.5Y-58.75
X177.4Y-63.2
X182.075Y-59.612
X182.9Y-70.1
X184.238Y-63.113
X185.1Y-61.0
X185.6Y-58.8
X186.6Y-61.0
X187.6Y-66.3
X187.8Y-57.4
X188.55Y-55.35
X190.4Y-70.3
X190.5Y-58.0
X192.0Y-67.75
X192.3Y-55.0
X195.4Y-53.9
X197.0Y-72.0
X197.5Y-54.25
X198.3Y-66.1
X198.6Y-58.2
X201.3Y-71.1
X206.5Y-59.2
T2
X151.65Y-57.4
X152.9Y-57.4
X157.4Y-57.4
X158.65Y-57.4
X159.9Y-57.4
X161.15Y-57.4
X165.4Y-57.4
X166.65Y-57.4
X167.9Y-57.4
X169.15Y-57.4
X203.9Y-54.0
X203.9Y-55.25
X203.9Y-56.5
T3
X198.42Y-72.71
X198.42Y-77.79
X203.5Y-72.71
X203.5Y-77.79
T4
X202.968Y-61.5
X202.968Y-64.0
X202.968Y-66.5
T5
X166.662Y-71.0
X166.662Y-65.92
X166.662Y-68.46
X166.662Y-73.54
X166.662Y-76.08
X169.202Y-65.92
X169.202Y-68.46
X169.202Y-73.54
X169.202Y-76.08
X169.202Y-71.0
X178.98Y-56.38
X178.98Y-58.92
X178.98Y-61.46
X178.98Y-64.0
X178.98Y-66.54
X178.98Y-69.08
X178.98Y-71.62
X183.0Y-78.0
X188.0Y-78.0
T6
X141.262Y-63.38
X141.262Y-78.62
X143.802Y-63.38
X143.802Y-78.62
X146.342Y-63.38
X146.342Y-78.62
X148.882Y-63.38
X148.882Y-78.62
X151.422Y-63.38
X151.422Y-78.62
X153.962Y-63.38
X153.962Y-78.62
X156.502Y-63.38
X156.502Y-78.62
X159.042Y-63.38
X159.042Y-78.62
X161.582Y-63.38
X161.582Y-78.62
X164.122Y-63.38
X164.122Y-78.62
X166.662Y-63.38
X166.662Y-78.62
X169.202Y-63.38
X169.202Y-78.62
X171.742Y-63.38
X171.742Y-78.62
X174.282Y-63.38
X174.282Y-68.46
X174.282Y-71.0
X174.282Y-73.54
X174.282Y-78.62
X174.282Y-65.92
X174.282Y-76.08
T7
X182.0Y-75.5
X189.0Y-75.5
T8
X146.0Y-56.0
X174.0Y-56.0
X178.75Y-77.0
X194.22Y-56.38
X194.22Y-71.62
M30
