G04 #@! TF.GenerationSoftware,KiCad,Pcbnew,8.0.9-8.0.9-0~ubuntu20.04.1*
G04 #@! TF.CreationDate,2025-04-11T16:54:26-05:00*
G04 #@! TF.ProjectId,Alex_Teensy4_PCB,416c6578-5f54-4656-956e-7379345f5043,rev?*
G04 #@! TF.SameCoordinates,Original*
G04 #@! TF.FileFunction,Legend,Bot*
G04 #@! TF.FilePolarity,Positive*
%FSLAX46Y46*%
G04 Gerber Fmt 4.6, Leading zero omitted, Abs format (unit mm)*
G04 Created by KiCad (PCBNEW 8.0.9-8.0.9-0~ubuntu20.04.1) date 2025-04-11 16:54:26*
%MOMM*%
%LPD*%
G01*
G04 APERTURE LIST*
G04 Aperture macros list*
%AMRoundRect*
0 Rectangle with rounded corners*
0 $1 Rounding radius*
0 $2 $3 $4 $5 $6 $7 $8 $9 X,Y pos of 4 corners*
0 Add a 4 corners polygon primitive as box body*
4,1,4,$2,$3,$4,$5,$6,$7,$8,$9,$2,$3,0*
0 Add four circle primitives for the rounded corners*
1,1,$1+$1,$2,$3*
1,1,$1+$1,$4,$5*
1,1,$1+$1,$6,$7*
1,1,$1+$1,$8,$9*
0 Add four rect primitives between the rounded corners*
20,1,$1+$1,$2,$3,$4,$5,0*
20,1,$1+$1,$4,$5,$6,$7,0*
20,1,$1+$1,$6,$7,$8,$9,0*
20,1,$1+$1,$8,$9,$2,$3,0*%
%AMFreePoly0*
4,1,19,0.500000,-0.750000,0.000000,-0.750000,0.000000,-0.744911,-0.071157,-0.744911,-0.207708,-0.704816,-0.327430,-0.627875,-0.420627,-0.520320,-0.479746,-0.390866,-0.500000,-0.250000,-0.500000,0.250000,-0.479746,0.390866,-0.420627,0.520320,-0.327430,0.627875,-0.207708,0.704816,-0.071157,0.744911,0.000000,0.744911,0.000000,0.750000,0.500000,0.750000,0.500000,-0.750000,0.500000,-0.750000,
$1*%
%AMFreePoly1*
4,1,19,0.000000,0.744911,0.071157,0.744911,0.207708,0.704816,0.327430,0.627875,0.420627,0.520320,0.479746,0.390866,0.500000,0.250000,0.500000,-0.250000,0.479746,-0.390866,0.420627,-0.520320,0.327430,-0.627875,0.207708,-0.704816,0.071157,-0.744911,0.000000,-0.744911,0.000000,-0.750000,-0.500000,-0.750000,-0.500000,0.750000,0.000000,0.750000,0.000000,0.744911,0.000000,0.744911,
$1*%
%AMFreePoly2*
4,1,32,0.231202,0.609631,0.329576,0.558000,0.508000,0.558000,0.543355,0.543355,0.558000,0.508000,0.558000,0.330985,0.577317,0.303000,0.633054,0.156034,0.652000,0.000000,0.633054,-0.156034,0.577317,-0.303000,0.558000,-0.330985,0.558000,-0.508000,0.543355,-0.543355,0.508000,-0.558000,0.329576,-0.558000,0.231202,-0.609631,0.078590,-0.647246,-0.078590,-0.647246,-0.231202,-0.609631,
-0.329576,-0.558000,-2.032000,-0.558000,-2.067355,-0.543355,-2.082000,-0.508000,-2.082000,0.508000,-2.067355,0.543355,-2.032000,0.558000,-0.329576,0.558000,-0.231202,0.609631,-0.078590,0.647246,0.078590,0.647246,0.231202,0.609631,0.231202,0.609631,$1*%
%AMFreePoly3*
4,1,32,0.231202,0.609631,0.329576,0.558000,2.032000,0.558000,2.067355,0.543355,2.082000,0.508000,2.082000,-0.508000,2.067355,-0.543355,2.032000,-0.558000,0.329576,-0.558000,0.231202,-0.609631,0.078590,-0.647246,-0.078590,-0.647246,-0.231202,-0.609631,-0.329576,-0.558000,-0.508000,-0.558000,-0.543355,-0.543355,-0.558000,-0.508000,-0.558000,-0.330985,-0.577317,-0.303000,-0.633054,-0.156034,
-0.652000,0.000000,-0.633054,0.156034,-0.577317,0.303000,-0.558000,0.330985,-0.558000,0.508000,-0.543355,0.543355,-0.508000,0.558000,-0.329576,0.558000,-0.231202,0.609631,-0.078590,0.647246,0.078590,0.647246,0.231202,0.609631,0.231202,0.609631,$1*%
G04 Aperture macros list end*
%ADD10C,0.200000*%
%ADD11C,0.000000*%
%ADD12C,0.150000*%
%ADD13C,0.120000*%
%ADD14C,0.050000*%
%ADD15FreePoly0,0.000000*%
%ADD16FreePoly1,0.000000*%
%ADD17FreePoly2,0.000000*%
%ADD18FreePoly3,0.000000*%
%ADD19C,1.700000*%
%ADD20C,1.404000*%
%ADD21R,0.850000X0.949986*%
%ADD22R,0.850000X0.949992*%
%ADD23RoundRect,0.250000X-0.262500X-0.450000X0.262500X-0.450000X0.262500X0.450000X-0.262500X0.450000X0*%
%ADD24RoundRect,0.250000X-0.725000X0.600000X-0.725000X-0.600000X0.725000X-0.600000X0.725000X0.600000X0*%
%ADD25O,1.950000X1.700000*%
%ADD26C,3.301600*%
%ADD27O,0.800000X1.300000*%
%ADD28RoundRect,0.200000X0.200000X0.450000X-0.200000X0.450000X-0.200000X-0.450000X0.200000X-0.450000X0*%
%ADD29O,1.300000X0.800000*%
%ADD30RoundRect,0.200000X0.450000X-0.200000X0.450000X0.200000X-0.450000X0.200000X-0.450000X-0.200000X0*%
%ADD31C,2.000000*%
%ADD32C,1.879600*%
G04 APERTURE END LIST*
D10*
G36*
X163425680Y-53906504D02*
G01*
X163228306Y-53906504D01*
X163289985Y-53610443D01*
X163425680Y-53906504D01*
G37*
G36*
X158301572Y-53716028D02*
G01*
X158056251Y-53716028D01*
X157988352Y-53684075D01*
X157956316Y-53655598D01*
X157916103Y-53591258D01*
X157904038Y-53494738D01*
X157924711Y-53439610D01*
X157942342Y-53419460D01*
X157993421Y-53392219D01*
X158261096Y-53392219D01*
X158301572Y-53716028D01*
G37*
G36*
X167423321Y-54503330D02*
G01*
X156788993Y-54503330D01*
X156788993Y-54272710D01*
X156900104Y-54272710D01*
X156900104Y-54311728D01*
X156915036Y-54347776D01*
X156942626Y-54375366D01*
X156978674Y-54390298D01*
X156998183Y-54392219D01*
X157474374Y-54392219D01*
X157493883Y-54390298D01*
X157499675Y-54387898D01*
X157505898Y-54387121D01*
X157517551Y-54380494D01*
X157529931Y-54375366D01*
X157534364Y-54370932D01*
X157539815Y-54367833D01*
X157548043Y-54357253D01*
X157557521Y-54347776D01*
X157559920Y-54341983D01*
X157563770Y-54337034D01*
X157567323Y-54324112D01*
X157572453Y-54311728D01*
X157572453Y-54305456D01*
X157574115Y-54299412D01*
X157573602Y-54279815D01*
X157473063Y-53475502D01*
X157702014Y-53475502D01*
X157702527Y-53495098D01*
X157720384Y-53637956D01*
X157724710Y-53657076D01*
X157725752Y-53658909D01*
X157726101Y-53660990D01*
X157734812Y-53678552D01*
X157794336Y-53773790D01*
X157798370Y-53779023D01*
X157799394Y-53781134D01*
X157803036Y-53785075D01*
X157806305Y-53789315D01*
X157808209Y-53790673D01*
X157812699Y-53795531D01*
X157866271Y-53843150D01*
X157871701Y-53847097D01*
X157873293Y-53848846D01*
X157877846Y-53851562D01*
X157882128Y-53854675D01*
X157884358Y-53855448D01*
X157890127Y-53858891D01*
X157991317Y-53906510D01*
X158006309Y-53911841D01*
X157816254Y-54242372D01*
X157808195Y-54260242D01*
X157803171Y-54298935D01*
X157813336Y-54336606D01*
X157837143Y-54367520D01*
X157870968Y-54386969D01*
X157909661Y-54391993D01*
X157947332Y-54381828D01*
X157978246Y-54358021D01*
X157989636Y-54342066D01*
X158234607Y-53916028D01*
X158326572Y-53916028D01*
X158375146Y-54304622D01*
X158379472Y-54323742D01*
X158398760Y-54357660D01*
X158429559Y-54381615D01*
X158467181Y-54391960D01*
X158505898Y-54387121D01*
X158539815Y-54367833D01*
X158563770Y-54337034D01*
X158574115Y-54299412D01*
X158573602Y-54279815D01*
X158460439Y-53374515D01*
X158690691Y-53374515D01*
X158693286Y-53413447D01*
X158710582Y-53448422D01*
X158739946Y-53474116D01*
X158776908Y-53486616D01*
X158815840Y-53484021D01*
X158850815Y-53466725D01*
X158865107Y-53453308D01*
X158889353Y-53425597D01*
X158985317Y-53392219D01*
X159048051Y-53392219D01*
X159161843Y-53428632D01*
X159242431Y-53500267D01*
X159289023Y-53574813D01*
X159352796Y-53744876D01*
X159367642Y-53863647D01*
X159346844Y-54030034D01*
X159321654Y-54097208D01*
X159267726Y-54158840D01*
X159171763Y-54192219D01*
X159109032Y-54192219D01*
X158995239Y-54155805D01*
X158957477Y-54122239D01*
X158941619Y-54110714D01*
X158904756Y-54097925D01*
X158865806Y-54100216D01*
X158830696Y-54117238D01*
X158804774Y-54146401D01*
X158791985Y-54183264D01*
X158794276Y-54222214D01*
X158811298Y-54257324D01*
X158824603Y-54271721D01*
X158878175Y-54319340D01*
X158894033Y-54330866D01*
X158895197Y-54331269D01*
X158896139Y-54332067D01*
X158914134Y-54339842D01*
X159062943Y-54387461D01*
X159071501Y-54389299D01*
X159073912Y-54390298D01*
X159078044Y-54390704D01*
X159082109Y-54391578D01*
X159084711Y-54391361D01*
X159093421Y-54392219D01*
X159188659Y-54392219D01*
X159199882Y-54391113D01*
X159202454Y-54391263D01*
X159205275Y-54390582D01*
X159208168Y-54390298D01*
X159210549Y-54389311D01*
X159221511Y-54386669D01*
X159358416Y-54339050D01*
X159376211Y-54330826D01*
X159380900Y-54326650D01*
X159386530Y-54323867D01*
X159400822Y-54310450D01*
X159484155Y-54215211D01*
X159492483Y-54203561D01*
X159493881Y-54202066D01*
X159494603Y-54200595D01*
X159495556Y-54199264D01*
X159496211Y-54197325D01*
X159502530Y-54184474D01*
X159538245Y-54089236D01*
X159538927Y-54086677D01*
X159539514Y-54085646D01*
X159541258Y-54077934D01*
X159543296Y-54070295D01*
X159543255Y-54069108D01*
X159543840Y-54066526D01*
X159567649Y-53876050D01*
X159567745Y-53872354D01*
X159568162Y-53870841D01*
X159567973Y-53863647D01*
X159568162Y-53856454D01*
X159567745Y-53854940D01*
X159567649Y-53851244D01*
X159549792Y-53708387D01*
X159549207Y-53705804D01*
X159549248Y-53704619D01*
X159547212Y-53696984D01*
X159545466Y-53689267D01*
X159544878Y-53688234D01*
X159544197Y-53685678D01*
X159472769Y-53495202D01*
X159472665Y-53494991D01*
X159472646Y-53494875D01*
X159468331Y-53486175D01*
X159464120Y-53477610D01*
X159464040Y-53477525D01*
X159463936Y-53477314D01*
X159404412Y-53382076D01*
X159400374Y-53376838D01*
X159399353Y-53374732D01*
X159395719Y-53370800D01*
X159392443Y-53366550D01*
X159390532Y-53365187D01*
X159386048Y-53360335D01*
X159301325Y-53285026D01*
X159725823Y-53285026D01*
X159726336Y-53304622D01*
X159851336Y-54304622D01*
X159855662Y-54323742D01*
X159874950Y-54357660D01*
X159905749Y-54381615D01*
X159943371Y-54391960D01*
X159982088Y-54387121D01*
X160016005Y-54367833D01*
X160039960Y-54337034D01*
X160050305Y-54299412D01*
X160049792Y-54279815D01*
X159998366Y-53868409D01*
X160368238Y-53868409D01*
X160422765Y-54304622D01*
X160427091Y-54323742D01*
X160446379Y-54357660D01*
X160477178Y-54381615D01*
X160514800Y-54391960D01*
X160553517Y-54387121D01*
X160587434Y-54367833D01*
X160611389Y-54337034D01*
X160621734Y-54299412D01*
X160621221Y-54279815D01*
X160572714Y-53891757D01*
X160852485Y-53891757D01*
X160852485Y-53930775D01*
X160867417Y-53966823D01*
X160895007Y-53994413D01*
X160931055Y-54009345D01*
X160950564Y-54011266D01*
X161712469Y-54011266D01*
X161731978Y-54009345D01*
X161768026Y-53994413D01*
X161795616Y-53966823D01*
X161810548Y-53930775D01*
X161810548Y-53891757D01*
X161795616Y-53855709D01*
X161768026Y-53828119D01*
X161731978Y-53813187D01*
X161712469Y-53811266D01*
X160950564Y-53811266D01*
X160931055Y-53813187D01*
X160895007Y-53828119D01*
X160867417Y-53855709D01*
X160852485Y-53891757D01*
X160572714Y-53891757D01*
X160505448Y-53353633D01*
X161970568Y-53353633D01*
X161983386Y-53390485D01*
X162009332Y-53419627D01*
X162044454Y-53436622D01*
X162083407Y-53438882D01*
X162102464Y-53434288D01*
X162223412Y-53392219D01*
X162422258Y-53392219D01*
X162490156Y-53424171D01*
X162522191Y-53452646D01*
X162562405Y-53516988D01*
X162568518Y-53565890D01*
X162547845Y-53621017D01*
X162530215Y-53641166D01*
X162467601Y-53674560D01*
X162294624Y-53719200D01*
X162291935Y-53720183D01*
X162290671Y-53720307D01*
X162283503Y-53723268D01*
X162276214Y-53725935D01*
X162275198Y-53726699D01*
X162272554Y-53727792D01*
X162183267Y-53775412D01*
X162171132Y-53783503D01*
X162169361Y-53784379D01*
X162168239Y-53785431D01*
X162166957Y-53786287D01*
X162165699Y-53787815D01*
X162155069Y-53797796D01*
X162113402Y-53845415D01*
X162105067Y-53857071D01*
X162103675Y-53858562D01*
X162102955Y-53860025D01*
X162102000Y-53861362D01*
X162101342Y-53863306D01*
X162095026Y-53876154D01*
X162059312Y-53971392D01*
X162054261Y-53990333D01*
X162054416Y-53994902D01*
X162053204Y-53999311D01*
X162053717Y-54018908D01*
X162065622Y-54114146D01*
X162069948Y-54133266D01*
X162070990Y-54135099D01*
X162071339Y-54137180D01*
X162080050Y-54154741D01*
X162139573Y-54249980D01*
X162143607Y-54255213D01*
X162144631Y-54257324D01*
X162148273Y-54261265D01*
X162151542Y-54265505D01*
X162153447Y-54266863D01*
X162157936Y-54271721D01*
X162211508Y-54319340D01*
X162216939Y-54323287D01*
X162218531Y-54325037D01*
X162223084Y-54327754D01*
X162227366Y-54330866D01*
X162229596Y-54331639D01*
X162235365Y-54335082D01*
X162336555Y-54382701D01*
X162355026Y-54389270D01*
X162357416Y-54389382D01*
X162359626Y-54390298D01*
X162379135Y-54392219D01*
X162617231Y-54392219D01*
X162628454Y-54391113D01*
X162631026Y-54391263D01*
X162633847Y-54390582D01*
X162636740Y-54390298D01*
X162639121Y-54389311D01*
X162650083Y-54386669D01*
X162786987Y-54339050D01*
X162804782Y-54330826D01*
X162833924Y-54304880D01*
X162840488Y-54291314D01*
X162945806Y-54291314D01*
X162953072Y-54329650D01*
X162974455Y-54362287D01*
X163006699Y-54384257D01*
X163044897Y-54392215D01*
X163083233Y-54384949D01*
X163115870Y-54363566D01*
X163137840Y-54331322D01*
X163143700Y-54312614D01*
X163186640Y-54106504D01*
X163517347Y-54106504D01*
X163621563Y-54333885D01*
X163631437Y-54350819D01*
X163660031Y-54377368D01*
X163696608Y-54390953D01*
X163735599Y-54389508D01*
X163771069Y-54373251D01*
X163797618Y-54344657D01*
X163811203Y-54308080D01*
X163809758Y-54269089D01*
X163803376Y-54250554D01*
X163367828Y-53300269D01*
X163725889Y-53300269D01*
X163736556Y-53337801D01*
X163747159Y-53354289D01*
X164102057Y-53802580D01*
X163862635Y-54244591D01*
X163855032Y-54262660D01*
X163850993Y-54301468D01*
X163862112Y-54338869D01*
X163886696Y-54369167D01*
X163921005Y-54387751D01*
X163959813Y-54391790D01*
X163997214Y-54380671D01*
X164027512Y-54356087D01*
X164038493Y-54339847D01*
X164237108Y-53973171D01*
X164538827Y-54354289D01*
X164552442Y-54368393D01*
X164586524Y-54387388D01*
X164625281Y-54391895D01*
X164662813Y-54381227D01*
X164693405Y-54357008D01*
X164712400Y-54322926D01*
X164716907Y-54284169D01*
X164706239Y-54246637D01*
X164695636Y-54230149D01*
X164340737Y-53781856D01*
X164580160Y-53339847D01*
X164587763Y-53321778D01*
X164591802Y-53282970D01*
X164588752Y-53272710D01*
X164727485Y-53272710D01*
X164727485Y-53311728D01*
X164742417Y-53347776D01*
X164770007Y-53375366D01*
X164806055Y-53390298D01*
X164825564Y-53392219D01*
X165213477Y-53392219D01*
X165248000Y-53668409D01*
X165027945Y-53668409D01*
X165008436Y-53670330D01*
X164972388Y-53685262D01*
X164944798Y-53712852D01*
X164929866Y-53748900D01*
X164929866Y-53787918D01*
X164944798Y-53823966D01*
X164972388Y-53851556D01*
X165008436Y-53866488D01*
X165027945Y-53868409D01*
X165273000Y-53868409D01*
X165313477Y-54192219D01*
X164950564Y-54192219D01*
X164931055Y-54194140D01*
X164895007Y-54209072D01*
X164867417Y-54236662D01*
X164852485Y-54272710D01*
X164852485Y-54311728D01*
X164867417Y-54347776D01*
X164895007Y-54375366D01*
X164931055Y-54390298D01*
X164950564Y-54392219D01*
X165426755Y-54392219D01*
X165446264Y-54390298D01*
X165452056Y-54387898D01*
X165458279Y-54387121D01*
X165469932Y-54380494D01*
X165482312Y-54375366D01*
X165486745Y-54370932D01*
X165492196Y-54367833D01*
X165500424Y-54357253D01*
X165509902Y-54347776D01*
X165512301Y-54341983D01*
X165516151Y-54337034D01*
X165519704Y-54324112D01*
X165524834Y-54311728D01*
X165524834Y-54305456D01*
X165526496Y-54299412D01*
X165525983Y-54279815D01*
X165400983Y-53279816D01*
X165399834Y-53274737D01*
X165399834Y-53272710D01*
X165537009Y-53272710D01*
X165537009Y-53311728D01*
X165551941Y-53347776D01*
X165579531Y-53375366D01*
X165615579Y-53390298D01*
X165635088Y-53392219D01*
X165832525Y-53392219D01*
X165946575Y-54304622D01*
X165950901Y-54323742D01*
X165970189Y-54357660D01*
X166000988Y-54381615D01*
X166038610Y-54391960D01*
X166077327Y-54387121D01*
X166111244Y-54367833D01*
X166135199Y-54337034D01*
X166145544Y-54299412D01*
X166145031Y-54279815D01*
X166034081Y-53392219D01*
X166206517Y-53392219D01*
X166226026Y-53390298D01*
X166262074Y-53375366D01*
X166289664Y-53347776D01*
X166304596Y-53311728D01*
X166304596Y-53285026D01*
X166440109Y-53285026D01*
X166440622Y-53304623D01*
X166541813Y-54114146D01*
X166546139Y-54133266D01*
X166547181Y-54135099D01*
X166547530Y-54137180D01*
X166556241Y-54154741D01*
X166615764Y-54249980D01*
X166619798Y-54255213D01*
X166620822Y-54257324D01*
X166624464Y-54261265D01*
X166627733Y-54265505D01*
X166629638Y-54266863D01*
X166634127Y-54271721D01*
X166687699Y-54319340D01*
X166693130Y-54323287D01*
X166694722Y-54325037D01*
X166699275Y-54327754D01*
X166703557Y-54330866D01*
X166705787Y-54331639D01*
X166711556Y-54335082D01*
X166812746Y-54382701D01*
X166831217Y-54389270D01*
X166833607Y-54389382D01*
X166835817Y-54390298D01*
X166855326Y-54392219D01*
X167045802Y-54392219D01*
X167065311Y-54390298D01*
X167069851Y-54388417D01*
X167074743Y-54387940D01*
X167092861Y-54380454D01*
X167182147Y-54332835D01*
X167194284Y-54324741D01*
X167196054Y-54323867D01*
X167197174Y-54322815D01*
X167198457Y-54321960D01*
X167199714Y-54320430D01*
X167210346Y-54310450D01*
X167252013Y-54262830D01*
X167260344Y-54251176D01*
X167261739Y-54249684D01*
X167262460Y-54248217D01*
X167263414Y-54246883D01*
X167264070Y-54244941D01*
X167270388Y-54232092D01*
X167306102Y-54136854D01*
X167311153Y-54117913D01*
X167310997Y-54113343D01*
X167312210Y-54108935D01*
X167311697Y-54089339D01*
X167210507Y-53279816D01*
X167206181Y-53260695D01*
X167186893Y-53226778D01*
X167156094Y-53202823D01*
X167118472Y-53192478D01*
X167079755Y-53197317D01*
X167045838Y-53216605D01*
X167021883Y-53247404D01*
X167011538Y-53285026D01*
X167012051Y-53304622D01*
X167110185Y-54089699D01*
X167089512Y-54144826D01*
X167071881Y-54164976D01*
X167020802Y-54192219D01*
X166877680Y-54192219D01*
X166809781Y-54160266D01*
X166777743Y-54131787D01*
X166737533Y-54067450D01*
X166639078Y-53279815D01*
X166634752Y-53260695D01*
X166615464Y-53226778D01*
X166584665Y-53202823D01*
X166547043Y-53192478D01*
X166508326Y-53197317D01*
X166474409Y-53216605D01*
X166450454Y-53247404D01*
X166440109Y-53285026D01*
X166304596Y-53285026D01*
X166304596Y-53272710D01*
X166289664Y-53236662D01*
X166262074Y-53209072D01*
X166226026Y-53194140D01*
X166206517Y-53192219D01*
X165635088Y-53192219D01*
X165615579Y-53194140D01*
X165579531Y-53209072D01*
X165551941Y-53236662D01*
X165537009Y-53272710D01*
X165399834Y-53272710D01*
X165398823Y-53270269D01*
X165396657Y-53260695D01*
X165390030Y-53249041D01*
X165384902Y-53236662D01*
X165380468Y-53232228D01*
X165377369Y-53226778D01*
X165366789Y-53218549D01*
X165357312Y-53209072D01*
X165351519Y-53206672D01*
X165346570Y-53202823D01*
X165333648Y-53199269D01*
X165321264Y-53194140D01*
X165311493Y-53193177D01*
X165308948Y-53192478D01*
X165306937Y-53192729D01*
X165301755Y-53192219D01*
X164825564Y-53192219D01*
X164806055Y-53194140D01*
X164770007Y-53209072D01*
X164742417Y-53236662D01*
X164727485Y-53272710D01*
X164588752Y-53272710D01*
X164580683Y-53245569D01*
X164556099Y-53215271D01*
X164521790Y-53196687D01*
X164482982Y-53192647D01*
X164445581Y-53203767D01*
X164415283Y-53228351D01*
X164404302Y-53244591D01*
X164205686Y-53611265D01*
X163903969Y-53230149D01*
X163890353Y-53216045D01*
X163856271Y-53197050D01*
X163817514Y-53192544D01*
X163779982Y-53203211D01*
X163749390Y-53227430D01*
X163730395Y-53261512D01*
X163725889Y-53300269D01*
X163367828Y-53300269D01*
X163345041Y-53250553D01*
X163335167Y-53233619D01*
X163329623Y-53228471D01*
X163325482Y-53222151D01*
X163315462Y-53215323D01*
X163306573Y-53207070D01*
X163299487Y-53204438D01*
X163293238Y-53200180D01*
X163281358Y-53197705D01*
X163269996Y-53193485D01*
X163262445Y-53193764D01*
X163255040Y-53192222D01*
X163243121Y-53194480D01*
X163231005Y-53194930D01*
X163224131Y-53198080D01*
X163216704Y-53199488D01*
X163206561Y-53206133D01*
X163195535Y-53211187D01*
X163190389Y-53216728D01*
X163184067Y-53220871D01*
X163177239Y-53230892D01*
X163168986Y-53239781D01*
X163166353Y-53246868D01*
X163162097Y-53253116D01*
X163156237Y-53271823D01*
X162947904Y-54271824D01*
X162945806Y-54291314D01*
X162840488Y-54291314D01*
X162850919Y-54269758D01*
X162853179Y-54230805D01*
X162840361Y-54193953D01*
X162814415Y-54164811D01*
X162779293Y-54147816D01*
X162740340Y-54145556D01*
X162721283Y-54150150D01*
X162600335Y-54192219D01*
X162401489Y-54192219D01*
X162333590Y-54160266D01*
X162301552Y-54131787D01*
X162261341Y-54067450D01*
X162255228Y-54018546D01*
X162275901Y-53963419D01*
X162293532Y-53943270D01*
X162356145Y-53909876D01*
X162529123Y-53865237D01*
X162531811Y-53864253D01*
X162533076Y-53864130D01*
X162540238Y-53861170D01*
X162547533Y-53858502D01*
X162548549Y-53857736D01*
X162551194Y-53856644D01*
X162640480Y-53809025D01*
X162652614Y-53800933D01*
X162654386Y-53800058D01*
X162655507Y-53799005D01*
X162656790Y-53798150D01*
X162658047Y-53796621D01*
X162668678Y-53786641D01*
X162710345Y-53739022D01*
X162718679Y-53727365D01*
X162720072Y-53725875D01*
X162720791Y-53724411D01*
X162721747Y-53723075D01*
X162722404Y-53721130D01*
X162728721Y-53708283D01*
X162764435Y-53613045D01*
X162769486Y-53594104D01*
X162769330Y-53589534D01*
X162770543Y-53585126D01*
X162770030Y-53565529D01*
X162758125Y-53470291D01*
X162753799Y-53451171D01*
X162752755Y-53449335D01*
X162752407Y-53447256D01*
X162743697Y-53429695D01*
X162684173Y-53334457D01*
X162680137Y-53329222D01*
X162679115Y-53327113D01*
X162675475Y-53323175D01*
X162672204Y-53318931D01*
X162670296Y-53317570D01*
X162665810Y-53312716D01*
X162612239Y-53265097D01*
X162606806Y-53261148D01*
X162605216Y-53259401D01*
X162600664Y-53256685D01*
X162596381Y-53253572D01*
X162594150Y-53252798D01*
X162588382Y-53249356D01*
X162487192Y-53201737D01*
X162468722Y-53195168D01*
X162466330Y-53195055D01*
X162464121Y-53194140D01*
X162444612Y-53192219D01*
X162206516Y-53192219D01*
X162195292Y-53193324D01*
X162192721Y-53193175D01*
X162189899Y-53193855D01*
X162187007Y-53194140D01*
X162184625Y-53195126D01*
X162173664Y-53197769D01*
X162036760Y-53245388D01*
X162018965Y-53253612D01*
X161989823Y-53279558D01*
X161972828Y-53314680D01*
X161970568Y-53353633D01*
X160505448Y-53353633D01*
X160496221Y-53279816D01*
X160491895Y-53260695D01*
X160472607Y-53226778D01*
X160441808Y-53202823D01*
X160404186Y-53192478D01*
X160365469Y-53197317D01*
X160331552Y-53216605D01*
X160307597Y-53247404D01*
X160297252Y-53285026D01*
X160297765Y-53304622D01*
X160343238Y-53668409D01*
X159973366Y-53668409D01*
X159924792Y-53279816D01*
X159920466Y-53260695D01*
X159901178Y-53226778D01*
X159870379Y-53202823D01*
X159832757Y-53192478D01*
X159794040Y-53197317D01*
X159760123Y-53216605D01*
X159736168Y-53247404D01*
X159725823Y-53285026D01*
X159301325Y-53285026D01*
X159278905Y-53265097D01*
X159263048Y-53253572D01*
X159261882Y-53253167D01*
X159260941Y-53252371D01*
X159242946Y-53244595D01*
X159094136Y-53196977D01*
X159085579Y-53195139D01*
X159083168Y-53194140D01*
X159079033Y-53193732D01*
X159074970Y-53192860D01*
X159072367Y-53193076D01*
X159063659Y-53192219D01*
X158968421Y-53192219D01*
X158957197Y-53193324D01*
X158954626Y-53193175D01*
X158951804Y-53193855D01*
X158948912Y-53194140D01*
X158946530Y-53195126D01*
X158935569Y-53197769D01*
X158798665Y-53245388D01*
X158780870Y-53253612D01*
X158776181Y-53257785D01*
X158770552Y-53260570D01*
X158756260Y-53273987D01*
X158714593Y-53321606D01*
X158703191Y-53337553D01*
X158690691Y-53374515D01*
X158460439Y-53374515D01*
X158448602Y-53279816D01*
X158447453Y-53274737D01*
X158447453Y-53272710D01*
X158446442Y-53270269D01*
X158444276Y-53260695D01*
X158437649Y-53249041D01*
X158432521Y-53236662D01*
X158428087Y-53232228D01*
X158424988Y-53226778D01*
X158414408Y-53218549D01*
X158404931Y-53209072D01*
X158399138Y-53206672D01*
X158394189Y-53202823D01*
X158381267Y-53199269D01*
X158368883Y-53194140D01*
X158359112Y-53193177D01*
X158356567Y-53192478D01*
X158354556Y-53192729D01*
X158349374Y-53192219D01*
X157968421Y-53192219D01*
X157948912Y-53194140D01*
X157944371Y-53196020D01*
X157939480Y-53196498D01*
X157921362Y-53203984D01*
X157832077Y-53251603D01*
X157819946Y-53259692D01*
X157818171Y-53260570D01*
X157817045Y-53261626D01*
X157815767Y-53262479D01*
X157814513Y-53264003D01*
X157803879Y-53273987D01*
X157762212Y-53321606D01*
X157753877Y-53333262D01*
X157752485Y-53334753D01*
X157751765Y-53336216D01*
X157750810Y-53337553D01*
X157750152Y-53339497D01*
X157743836Y-53352345D01*
X157708122Y-53447583D01*
X157703071Y-53466524D01*
X157703226Y-53471093D01*
X157702014Y-53475502D01*
X157473063Y-53475502D01*
X157448602Y-53279816D01*
X157444276Y-53260695D01*
X157424988Y-53226778D01*
X157394189Y-53202823D01*
X157356567Y-53192478D01*
X157317850Y-53197317D01*
X157283933Y-53216605D01*
X157259978Y-53247404D01*
X157249633Y-53285026D01*
X157250146Y-53304622D01*
X157361096Y-54192219D01*
X156998183Y-54192219D01*
X156978674Y-54194140D01*
X156942626Y-54209072D01*
X156915036Y-54236662D01*
X156900104Y-54272710D01*
X156788993Y-54272710D01*
X156788993Y-53081108D01*
X167423321Y-53081108D01*
X167423321Y-54503330D01*
G37*
D11*
G36*
X208071103Y-75800000D02*
G01*
X208131951Y-75856146D01*
X208194412Y-75910633D01*
X208258120Y-75963825D01*
X208518054Y-76170995D01*
X208645937Y-76276345D01*
X208708069Y-76330746D01*
X208768508Y-76386783D01*
X208826882Y-76444823D01*
X208882824Y-76505236D01*
X208935968Y-76568383D01*
X208985946Y-76634636D01*
X209038745Y-76712944D01*
X209087162Y-76793300D01*
X209131203Y-76875553D01*
X209170887Y-76959551D01*
X209206223Y-77045143D01*
X209237222Y-77132180D01*
X209263900Y-77220508D01*
X209286265Y-77309980D01*
X209304331Y-77400443D01*
X209318111Y-77491747D01*
X209327615Y-77583739D01*
X209332856Y-77676271D01*
X209333847Y-77769191D01*
X209330598Y-77862347D01*
X209323125Y-77955590D01*
X209311436Y-78048769D01*
X209261354Y-78377087D01*
X209239578Y-78545456D01*
X209231005Y-78630093D01*
X209224548Y-78714804D01*
X209220631Y-78799418D01*
X209219687Y-78883764D01*
X209222142Y-78967671D01*
X209228426Y-79050967D01*
X209238965Y-79133484D01*
X209254188Y-79215047D01*
X209274525Y-79295487D01*
X209300401Y-79374633D01*
X209301549Y-79378162D01*
X209302408Y-79381677D01*
X209302989Y-79385167D01*
X209303302Y-79388625D01*
X209303356Y-79392040D01*
X209303160Y-79395403D01*
X209302723Y-79398706D01*
X209302054Y-79401939D01*
X209301163Y-79405092D01*
X209300059Y-79408155D01*
X209298752Y-79411122D01*
X209297252Y-79413982D01*
X209295562Y-79416726D01*
X209293699Y-79419342D01*
X209291671Y-79421824D01*
X209289484Y-79424162D01*
X209287148Y-79426347D01*
X209284674Y-79428369D01*
X209282070Y-79430218D01*
X209279345Y-79431887D01*
X209276511Y-79433365D01*
X209273574Y-79434643D01*
X209270544Y-79435712D01*
X209267431Y-79436562D01*
X209264244Y-79437186D01*
X209260992Y-79437572D01*
X209257684Y-79437712D01*
X209254330Y-79437597D01*
X209250939Y-79437217D01*
X209247521Y-79436564D01*
X209244084Y-79435627D01*
X209240637Y-79434397D01*
X209092656Y-79367502D01*
X209001043Y-79318968D01*
X208900681Y-79259383D01*
X208793815Y-79187997D01*
X208682694Y-79104068D01*
X208569567Y-79006847D01*
X208456680Y-78895589D01*
X208346282Y-78769547D01*
X208240623Y-78627977D01*
X208190272Y-78551135D01*
X208141948Y-78470132D01*
X208095932Y-78384871D01*
X208052504Y-78295263D01*
X208011948Y-78201213D01*
X207974542Y-78102627D01*
X207940569Y-77999414D01*
X207910308Y-77891479D01*
X207884044Y-77778727D01*
X207862053Y-77661068D01*
X207844618Y-77538408D01*
X207832021Y-77410653D01*
X207802956Y-77051805D01*
X207775517Y-76745713D01*
X207749350Y-76487459D01*
X207724098Y-76272132D01*
X207699408Y-76094819D01*
X207687161Y-76018881D01*
X207674922Y-75950605D01*
X207662645Y-75889375D01*
X207650285Y-75834580D01*
X207637798Y-75785602D01*
X207625142Y-75741828D01*
X208012235Y-75741828D01*
X208071103Y-75800000D01*
G37*
G36*
X209261911Y-70971155D02*
G01*
X209265163Y-70971512D01*
X209268349Y-70972104D01*
X209271464Y-70972920D01*
X209274492Y-70973953D01*
X209277430Y-70975193D01*
X209280266Y-70976631D01*
X209282990Y-70978258D01*
X209285594Y-70980065D01*
X209288067Y-70982044D01*
X209290403Y-70984186D01*
X209292589Y-70986481D01*
X209294619Y-70988920D01*
X209296483Y-70991495D01*
X209298170Y-70994197D01*
X209299672Y-70997016D01*
X209300978Y-70999946D01*
X209302083Y-71002975D01*
X209302973Y-71006095D01*
X209303642Y-71009297D01*
X209304079Y-71012573D01*
X209304276Y-71015911D01*
X209304222Y-71019307D01*
X209303909Y-71022748D01*
X209303327Y-71026228D01*
X209302468Y-71029735D01*
X209301322Y-71033262D01*
X209275443Y-71112408D01*
X209255108Y-71192847D01*
X209239884Y-71274411D01*
X209229344Y-71356927D01*
X209223062Y-71440224D01*
X209220607Y-71524131D01*
X209221551Y-71608477D01*
X209225466Y-71693092D01*
X209231923Y-71777802D01*
X209240497Y-71862439D01*
X209262273Y-72030806D01*
X209312355Y-72359127D01*
X209324044Y-72452305D01*
X209331518Y-72545548D01*
X209334767Y-72638704D01*
X209333776Y-72731624D01*
X209328534Y-72824155D01*
X209319030Y-72916148D01*
X209305251Y-73007451D01*
X209287185Y-73097915D01*
X209264820Y-73187386D01*
X209238143Y-73275716D01*
X209207143Y-73362752D01*
X209171807Y-73448345D01*
X209132123Y-73532342D01*
X209088080Y-73614596D01*
X209039665Y-73694951D01*
X208986865Y-73773259D01*
X208936726Y-73839512D01*
X208883442Y-73902661D01*
X208827381Y-73963075D01*
X208768910Y-74021117D01*
X208708397Y-74077155D01*
X208646210Y-74131555D01*
X208518285Y-74236905D01*
X208258521Y-74444070D01*
X208194911Y-74497261D01*
X208132569Y-74551746D01*
X208071860Y-74607889D01*
X208013155Y-74666058D01*
X207626060Y-74666058D01*
X207651165Y-74573307D01*
X207675698Y-74457282D01*
X207700037Y-74313070D01*
X207724558Y-74135759D01*
X207749641Y-73920431D01*
X207775661Y-73662176D01*
X207832021Y-72997232D01*
X207844619Y-72869395D01*
X207862054Y-72746656D01*
X207884045Y-72628925D01*
X207910312Y-72516109D01*
X207940575Y-72408113D01*
X207974549Y-72304845D01*
X208011958Y-72206213D01*
X208052520Y-72112122D01*
X208095952Y-72022479D01*
X208141975Y-71937193D01*
X208190309Y-71856168D01*
X208240672Y-71779314D01*
X208292781Y-71706536D01*
X208346361Y-71637740D01*
X208401124Y-71572835D01*
X208456796Y-71511727D01*
X208513091Y-71454323D01*
X208569731Y-71400529D01*
X208682919Y-71303403D01*
X208794113Y-71219602D01*
X208901068Y-71148382D01*
X209001536Y-71088998D01*
X209093271Y-71040706D01*
X209174027Y-71002760D01*
X209241557Y-70974415D01*
X209245003Y-70973184D01*
X209248440Y-70972238D01*
X209251859Y-70971572D01*
X209255250Y-70971175D01*
X209258604Y-70971038D01*
X209261911Y-70971155D01*
G37*
G36*
X207284618Y-73349657D02*
G01*
X207295192Y-73350459D01*
X207305614Y-73351778D01*
X207315874Y-73353604D01*
X207325956Y-73355922D01*
X207335848Y-73358721D01*
X207345536Y-73361987D01*
X207355007Y-73365708D01*
X207364249Y-73369870D01*
X207373245Y-73374462D01*
X207381985Y-73379470D01*
X207390455Y-73384880D01*
X207398641Y-73390682D01*
X207406530Y-73396861D01*
X207414110Y-73403405D01*
X207421366Y-73410301D01*
X207428285Y-73417538D01*
X207434854Y-73425100D01*
X207441061Y-73432977D01*
X207446889Y-73441154D01*
X207452330Y-73449619D01*
X207457366Y-73458361D01*
X207461986Y-73467364D01*
X207466176Y-73476617D01*
X207469923Y-73486108D01*
X207473213Y-73495823D01*
X207476033Y-73505750D01*
X207478370Y-73515875D01*
X207480213Y-73526186D01*
X207481544Y-73536669D01*
X207482353Y-73547314D01*
X207482626Y-73558104D01*
X207482626Y-74459179D01*
X207482452Y-74467756D01*
X207481933Y-74476248D01*
X207481079Y-74484644D01*
X207479896Y-74492939D01*
X207478389Y-74501129D01*
X207476564Y-74509202D01*
X207474431Y-74517153D01*
X207471994Y-74524978D01*
X207469261Y-74532668D01*
X207466239Y-74540215D01*
X207462932Y-74547615D01*
X207459351Y-74554860D01*
X207455501Y-74561943D01*
X207451386Y-74568859D01*
X207447018Y-74575598D01*
X207442399Y-74582157D01*
X207437538Y-74588525D01*
X207432441Y-74594700D01*
X207427115Y-74600673D01*
X207421568Y-74606436D01*
X207415803Y-74611984D01*
X207409831Y-74617310D01*
X207403658Y-74622407D01*
X207397288Y-74627268D01*
X207390730Y-74631886D01*
X207383990Y-74636256D01*
X207377075Y-74640369D01*
X207369991Y-74644220D01*
X207362746Y-74647801D01*
X207355346Y-74651107D01*
X207347797Y-74654130D01*
X207340109Y-74656863D01*
X207336285Y-74658201D01*
X207332399Y-74659452D01*
X207328457Y-74660616D01*
X207324464Y-74661693D01*
X207320421Y-74662686D01*
X207316334Y-74663591D01*
X207308041Y-74665143D01*
X207299622Y-74666347D01*
X207291104Y-74667207D01*
X207282523Y-74667725D01*
X207273908Y-74667897D01*
X207067948Y-74667897D01*
X207063649Y-74667854D01*
X207059371Y-74667725D01*
X207055115Y-74667508D01*
X207050880Y-74667207D01*
X207046667Y-74666820D01*
X207042476Y-74666347D01*
X207038306Y-74665788D01*
X207034158Y-74665142D01*
X207030031Y-74664408D01*
X207025925Y-74663591D01*
X207021842Y-74662685D01*
X207017780Y-74661694D01*
X207013738Y-74660616D01*
X207009720Y-74659453D01*
X207005724Y-74658201D01*
X207001747Y-74656863D01*
X206986509Y-74651107D01*
X206971863Y-74644220D01*
X206957866Y-74636256D01*
X206944567Y-74627269D01*
X206932024Y-74617310D01*
X206920288Y-74606437D01*
X206909414Y-74594700D01*
X206899457Y-74582157D01*
X206890468Y-74568858D01*
X206882503Y-74554860D01*
X206875617Y-74540215D01*
X206869860Y-74524978D01*
X206865290Y-74509202D01*
X206861959Y-74492940D01*
X206859921Y-74476248D01*
X206859404Y-74467757D01*
X206859230Y-74459178D01*
X206859230Y-73931418D01*
X206512593Y-74666057D01*
X206436277Y-74826963D01*
X206359962Y-74987869D01*
X208276121Y-74987869D01*
X208280904Y-74976729D01*
X208285941Y-74965720D01*
X208291224Y-74954846D01*
X208296752Y-74944110D01*
X208302515Y-74933513D01*
X208308511Y-74923060D01*
X208314731Y-74912752D01*
X208321175Y-74902593D01*
X208327833Y-74892583D01*
X208334701Y-74882729D01*
X208341774Y-74873028D01*
X208349046Y-74863488D01*
X208356512Y-74854108D01*
X208364167Y-74844892D01*
X208372004Y-74835843D01*
X208380021Y-74826962D01*
X208393887Y-74812723D01*
X208408233Y-74798969D01*
X208423049Y-74785718D01*
X208438320Y-74772979D01*
X208454033Y-74760769D01*
X208470174Y-74749100D01*
X208486729Y-74737987D01*
X208503686Y-74727442D01*
X208521030Y-74717477D01*
X208538748Y-74708109D01*
X208556829Y-74699349D01*
X208575255Y-74691211D01*
X208594016Y-74683710D01*
X208613096Y-74676858D01*
X208632484Y-74670668D01*
X208652163Y-74665155D01*
X208668454Y-74661275D01*
X208684906Y-74657914D01*
X208701507Y-74655070D01*
X208718250Y-74652742D01*
X208735121Y-74650933D01*
X208752112Y-74649639D01*
X208769211Y-74648863D01*
X208786405Y-74648606D01*
X208803865Y-74648863D01*
X208821086Y-74649639D01*
X208838093Y-74650932D01*
X208854906Y-74652741D01*
X208871545Y-74655070D01*
X208888035Y-74657914D01*
X208904395Y-74661278D01*
X208920647Y-74665154D01*
X208940857Y-74670672D01*
X208960786Y-74676877D01*
X208980416Y-74683773D01*
X208999721Y-74691356D01*
X209018680Y-74699632D01*
X209037275Y-74708595D01*
X209046428Y-74713337D01*
X209055481Y-74718251D01*
X209064431Y-74723338D01*
X209073278Y-74728598D01*
X209102798Y-74747775D01*
X209130972Y-74768707D01*
X209157719Y-74791317D01*
X209182967Y-74815529D01*
X209206635Y-74841265D01*
X209228647Y-74868449D01*
X209248928Y-74897004D01*
X209267399Y-74926853D01*
X209283983Y-74957922D01*
X209298608Y-74990130D01*
X209311194Y-75023401D01*
X209321661Y-75057661D01*
X209329938Y-75092832D01*
X209335944Y-75128836D01*
X209339603Y-75165598D01*
X209340840Y-75203042D01*
X209340528Y-75221841D01*
X209339592Y-75240484D01*
X209338050Y-75258954D01*
X209335906Y-75277245D01*
X209333172Y-75295347D01*
X209329859Y-75313251D01*
X209325975Y-75330944D01*
X209321533Y-75348420D01*
X209316540Y-75365668D01*
X209311008Y-75382680D01*
X209304947Y-75399443D01*
X209298366Y-75415952D01*
X209291277Y-75432194D01*
X209283689Y-75448160D01*
X209275611Y-75463841D01*
X209267054Y-75479227D01*
X209258029Y-75494309D01*
X209248546Y-75509077D01*
X209238614Y-75523521D01*
X209228243Y-75537632D01*
X209217444Y-75551400D01*
X209206227Y-75564817D01*
X209182579Y-75590552D01*
X209157378Y-75614764D01*
X209130707Y-75637374D01*
X209102648Y-75658307D01*
X209088120Y-75668118D01*
X209073278Y-75677483D01*
X209055481Y-75687827D01*
X209037274Y-75697481D01*
X209018681Y-75706446D01*
X208999722Y-75714721D01*
X208980416Y-75722307D01*
X208960786Y-75729203D01*
X208940857Y-75735409D01*
X208920647Y-75740925D01*
X208904358Y-75744805D01*
X208887906Y-75748166D01*
X208871303Y-75751010D01*
X208854561Y-75753339D01*
X208837688Y-75755149D01*
X208820699Y-75756442D01*
X208803601Y-75757217D01*
X208786405Y-75757476D01*
X208768947Y-75757217D01*
X208751725Y-75756442D01*
X208734718Y-75755149D01*
X208717906Y-75753339D01*
X208701264Y-75751010D01*
X208684775Y-75748167D01*
X208668416Y-75744805D01*
X208652163Y-75740926D01*
X208632470Y-75735574D01*
X208613053Y-75729524D01*
X208593928Y-75722794D01*
X208575116Y-75715395D01*
X208556632Y-75707347D01*
X208538493Y-75698661D01*
X208520719Y-75689353D01*
X208503325Y-75679437D01*
X208486332Y-75668928D01*
X208469753Y-75657842D01*
X208453608Y-75646193D01*
X208437916Y-75633995D01*
X208422690Y-75621264D01*
X208407952Y-75608015D01*
X208393717Y-75594262D01*
X208380002Y-75580020D01*
X208371998Y-75571141D01*
X208364186Y-75562094D01*
X208356574Y-75552878D01*
X208349159Y-75543500D01*
X208341941Y-75533959D01*
X208334926Y-75524260D01*
X208328114Y-75514404D01*
X208321503Y-75504393D01*
X208315097Y-75494234D01*
X208308898Y-75483926D01*
X208302906Y-75473472D01*
X208297122Y-75462875D01*
X208291549Y-75452138D01*
X208286188Y-75441264D01*
X208281039Y-75430255D01*
X208276103Y-75419114D01*
X206359025Y-75419114D01*
X206435340Y-75580020D01*
X206511656Y-75740925D01*
X206856454Y-76476496D01*
X206859211Y-75950563D01*
X206859386Y-75941985D01*
X206859903Y-75933494D01*
X206860757Y-75925097D01*
X206861942Y-75916801D01*
X206863449Y-75908614D01*
X206865273Y-75900542D01*
X206867407Y-75892589D01*
X206869843Y-75884764D01*
X206872576Y-75877076D01*
X206875599Y-75869527D01*
X206878905Y-75862127D01*
X206882486Y-75854882D01*
X206886337Y-75847798D01*
X206890451Y-75840882D01*
X206894820Y-75834143D01*
X206899439Y-75827587D01*
X206904299Y-75821216D01*
X206909397Y-75815041D01*
X206914721Y-75809069D01*
X206920269Y-75803306D01*
X206926034Y-75797758D01*
X206932006Y-75792432D01*
X206938180Y-75787334D01*
X206944550Y-75782475D01*
X206951108Y-75777856D01*
X206957847Y-75773486D01*
X206964763Y-75769372D01*
X206971846Y-75765521D01*
X206979091Y-75761940D01*
X206986491Y-75758634D01*
X206994038Y-75755612D01*
X207001729Y-75752878D01*
X207005715Y-75751544D01*
X207009742Y-75750293D01*
X207013805Y-75749129D01*
X207017906Y-75748052D01*
X207026199Y-75746155D01*
X207034599Y-75744604D01*
X207043087Y-75743397D01*
X207051638Y-75742535D01*
X207060233Y-75742017D01*
X207068848Y-75741846D01*
X207274807Y-75741846D01*
X207279270Y-75741889D01*
X207283688Y-75742018D01*
X207288068Y-75742233D01*
X207292408Y-75742534D01*
X207296710Y-75742922D01*
X207300976Y-75743396D01*
X207305207Y-75743957D01*
X207309404Y-75744603D01*
X207313569Y-75745336D01*
X207317702Y-75746154D01*
X207321806Y-75747060D01*
X207325882Y-75748052D01*
X207329931Y-75749129D01*
X207333954Y-75750293D01*
X207337954Y-75751543D01*
X207341930Y-75752879D01*
X207357167Y-75758634D01*
X207371812Y-75765521D01*
X207385811Y-75773486D01*
X207399109Y-75782475D01*
X207411653Y-75792433D01*
X207423388Y-75803306D01*
X207434262Y-75815043D01*
X207444220Y-75827585D01*
X207453207Y-75840883D01*
X207461172Y-75854882D01*
X207468058Y-75869527D01*
X207473814Y-75884764D01*
X207478385Y-75900541D01*
X207481716Y-75916802D01*
X207483754Y-75933494D01*
X207484271Y-75941984D01*
X207484446Y-75950564D01*
X207481687Y-76850717D01*
X207481419Y-76861427D01*
X207480616Y-76872002D01*
X207479297Y-76882424D01*
X207477471Y-76892683D01*
X207475153Y-76902765D01*
X207472354Y-76912657D01*
X207469087Y-76922345D01*
X207465366Y-76931817D01*
X207461205Y-76941057D01*
X207456613Y-76950054D01*
X207451606Y-76958793D01*
X207446195Y-76967264D01*
X207440394Y-76975450D01*
X207434214Y-76983340D01*
X207427669Y-76990920D01*
X207420774Y-76998176D01*
X207413538Y-77005095D01*
X207405975Y-77011664D01*
X207398099Y-77017870D01*
X207389921Y-77023700D01*
X207381456Y-77029138D01*
X207372714Y-77034175D01*
X207363711Y-77038794D01*
X207354456Y-77042985D01*
X207344967Y-77046732D01*
X207335251Y-77050022D01*
X207325326Y-77052843D01*
X207315201Y-77055180D01*
X207304889Y-77057023D01*
X207294405Y-77058354D01*
X207283761Y-77059162D01*
X207272969Y-77059435D01*
X206581535Y-77059434D01*
X206573885Y-77059295D01*
X206566287Y-77058882D01*
X206558743Y-77058191D01*
X206551259Y-77057233D01*
X206543844Y-77056010D01*
X206536501Y-77054526D01*
X206529238Y-77052783D01*
X206522061Y-77050786D01*
X206514975Y-77048538D01*
X206507986Y-77046045D01*
X206501102Y-77043308D01*
X206494327Y-77040330D01*
X206487666Y-77037119D01*
X206481130Y-77033674D01*
X206474721Y-77030002D01*
X206468445Y-77026104D01*
X206462310Y-77021986D01*
X206456321Y-77017651D01*
X206450484Y-77013102D01*
X206444804Y-77008344D01*
X206439291Y-77003379D01*
X206433947Y-76998211D01*
X206428780Y-76992847D01*
X206423793Y-76987286D01*
X206418998Y-76981534D01*
X206414397Y-76975595D01*
X206409996Y-76969470D01*
X206405802Y-76963168D01*
X206401819Y-76956688D01*
X206398058Y-76950036D01*
X206394521Y-76943213D01*
X206391215Y-76936227D01*
X205934242Y-75917463D01*
X205559102Y-76545455D01*
X205551682Y-76557058D01*
X205543588Y-76568060D01*
X205534856Y-76578436D01*
X205525523Y-76588171D01*
X205515624Y-76597243D01*
X205505195Y-76605632D01*
X205494275Y-76613318D01*
X205482898Y-76620280D01*
X205471100Y-76626499D01*
X205458919Y-76631954D01*
X205446389Y-76636625D01*
X205433551Y-76640491D01*
X205420436Y-76643535D01*
X205407082Y-76645733D01*
X205393529Y-76647066D01*
X205379806Y-76647515D01*
X205284183Y-76647514D01*
X205276617Y-76647379D01*
X205269095Y-76646971D01*
X205261623Y-76646296D01*
X205254208Y-76645357D01*
X205246854Y-76644157D01*
X205239571Y-76642702D01*
X205232362Y-76640996D01*
X205225235Y-76639039D01*
X205218195Y-76636838D01*
X205211249Y-76634395D01*
X205204403Y-76631713D01*
X205197662Y-76628799D01*
X205191034Y-76625654D01*
X205184526Y-76622282D01*
X205178141Y-76618688D01*
X205171889Y-76614876D01*
X205165773Y-76610846D01*
X205159803Y-76606604D01*
X205153981Y-76602155D01*
X205148314Y-76597502D01*
X205142812Y-76592648D01*
X205137477Y-76587597D01*
X205132317Y-76582351D01*
X205127339Y-76576917D01*
X205122547Y-76571298D01*
X205117949Y-76565496D01*
X205113551Y-76559515D01*
X205109359Y-76553361D01*
X205105378Y-76547034D01*
X205101616Y-76540541D01*
X205098079Y-76533883D01*
X205094773Y-76527066D01*
X204785825Y-75869651D01*
X204546764Y-76299038D01*
X204539486Y-76311149D01*
X204531476Y-76322632D01*
X204522767Y-76333469D01*
X204513405Y-76343637D01*
X204503429Y-76353115D01*
X204492879Y-76361883D01*
X204481795Y-76369917D01*
X204470219Y-76377197D01*
X204458189Y-76383701D01*
X204445749Y-76389408D01*
X204432937Y-76394295D01*
X204419793Y-76398343D01*
X204406358Y-76401527D01*
X204392671Y-76403831D01*
X204378777Y-76405227D01*
X204364711Y-76405696D01*
X204264489Y-76405697D01*
X204256929Y-76405563D01*
X204249423Y-76405163D01*
X204241975Y-76404502D01*
X204234592Y-76403582D01*
X204227281Y-76402406D01*
X204220044Y-76400982D01*
X204212888Y-76399308D01*
X204205818Y-76397393D01*
X204198839Y-76395238D01*
X204191957Y-76392846D01*
X204185178Y-76390222D01*
X204178508Y-76387369D01*
X204171950Y-76384290D01*
X204165510Y-76380992D01*
X204159194Y-76377477D01*
X204153008Y-76373746D01*
X204146956Y-76369805D01*
X204141045Y-76365659D01*
X204135278Y-76361309D01*
X204129663Y-76356760D01*
X204124204Y-76352016D01*
X204118906Y-76347082D01*
X204113775Y-76341959D01*
X204108817Y-76336651D01*
X204104036Y-76331163D01*
X204099439Y-76325499D01*
X204095030Y-76319661D01*
X204090813Y-76313654D01*
X204086798Y-76307481D01*
X204082986Y-76301147D01*
X204079386Y-76294654D01*
X204076000Y-76288005D01*
X203856258Y-75834710D01*
X203571224Y-76245711D01*
X203563534Y-76256116D01*
X203555313Y-76265947D01*
X203546585Y-76275192D01*
X203537375Y-76283837D01*
X203527716Y-76291866D01*
X203517629Y-76299269D01*
X203507145Y-76306031D01*
X203496288Y-76312138D01*
X203485087Y-76317577D01*
X203473566Y-76322336D01*
X203461755Y-76326400D01*
X203449683Y-76329754D01*
X203437371Y-76332387D01*
X203424850Y-76334283D01*
X203412144Y-76335432D01*
X203399283Y-76335818D01*
X203265961Y-76335818D01*
X203258057Y-76335668D01*
X203250207Y-76335221D01*
X203242418Y-76334481D01*
X203234699Y-76333453D01*
X203227052Y-76332141D01*
X203219489Y-76330550D01*
X203212013Y-76328685D01*
X203204630Y-76326550D01*
X203197350Y-76324150D01*
X203190176Y-76321489D01*
X203183117Y-76318571D01*
X203176180Y-76315402D01*
X203169368Y-76311987D01*
X203162691Y-76308327D01*
X203156155Y-76304429D01*
X203149765Y-76300299D01*
X203143529Y-76295939D01*
X203137452Y-76291356D01*
X203131543Y-76286553D01*
X203125806Y-76281533D01*
X203120250Y-76276305D01*
X203114881Y-76270867D01*
X203109703Y-76265229D01*
X203104725Y-76259394D01*
X203099955Y-76253367D01*
X203095396Y-76247151D01*
X203091056Y-76240753D01*
X203086942Y-76234177D01*
X203083060Y-76227422D01*
X203079418Y-76220500D01*
X203076020Y-76213413D01*
X203072875Y-76206165D01*
X202914727Y-75823669D01*
X202756579Y-75979058D01*
X202749008Y-75986266D01*
X202741130Y-75993056D01*
X202732965Y-75999423D01*
X202724529Y-76005361D01*
X202715839Y-76010863D01*
X202706913Y-76015921D01*
X202697770Y-76020530D01*
X202688425Y-76024681D01*
X202678898Y-76028370D01*
X202669204Y-76031588D01*
X202659363Y-76034330D01*
X202649390Y-76036588D01*
X202639307Y-76038356D01*
X202629126Y-76039627D01*
X202618867Y-76040394D01*
X202608547Y-76040652D01*
X202600898Y-76040513D01*
X202593298Y-76040097D01*
X202585752Y-76039410D01*
X202578270Y-76038451D01*
X202570853Y-76037227D01*
X202563510Y-76035745D01*
X202556247Y-76034002D01*
X202549069Y-76032005D01*
X202541983Y-76029758D01*
X202534995Y-76027264D01*
X202528110Y-76024528D01*
X202521335Y-76021552D01*
X202514675Y-76018339D01*
X202508138Y-76014896D01*
X202501729Y-76011223D01*
X202495453Y-76007327D01*
X202489318Y-76003208D01*
X202483329Y-75998874D01*
X202477492Y-75994327D01*
X202471813Y-75989568D01*
X202466299Y-75984603D01*
X202460953Y-75979437D01*
X202455786Y-75974072D01*
X202450802Y-75968511D01*
X202446006Y-75962760D01*
X202441403Y-75956821D01*
X202437002Y-75950697D01*
X202432808Y-75944394D01*
X202428826Y-75937915D01*
X202425063Y-75931262D01*
X202421525Y-75924441D01*
X202418218Y-75917454D01*
X202402587Y-75882514D01*
X202398989Y-75874004D01*
X202395779Y-75865378D01*
X202392960Y-75856650D01*
X202390534Y-75847833D01*
X202388500Y-75838941D01*
X202386861Y-75829986D01*
X202385618Y-75820983D01*
X202384773Y-75811944D01*
X202384326Y-75802886D01*
X202384278Y-75793818D01*
X202384634Y-75784756D01*
X202385391Y-75775713D01*
X202386552Y-75766702D01*
X202388119Y-75757737D01*
X202390091Y-75748831D01*
X202392474Y-75739998D01*
X202393896Y-75735213D01*
X202395404Y-75730516D01*
X202397000Y-75725904D01*
X202398680Y-75721378D01*
X202400446Y-75716939D01*
X202402300Y-75712585D01*
X202404240Y-75708319D01*
X202406266Y-75704137D01*
X202467870Y-75579092D01*
X202547406Y-75419106D01*
X203201609Y-75419106D01*
X203373548Y-75742757D01*
X203546408Y-75419106D01*
X204143138Y-75419106D01*
X204315068Y-75742757D01*
X204487936Y-75419107D01*
X205121435Y-75419107D01*
X205349463Y-75869643D01*
X205577500Y-75419107D01*
X205121435Y-75419107D01*
X204487936Y-75419107D01*
X204487937Y-75419106D01*
X204143138Y-75419106D01*
X203546408Y-75419106D01*
X203201609Y-75419106D01*
X202547406Y-75419106D01*
X202547863Y-75418186D01*
X202052272Y-75418186D01*
X202041822Y-75417924D01*
X202031515Y-75417145D01*
X202021361Y-75415867D01*
X202011374Y-75414094D01*
X202001566Y-75411845D01*
X201991949Y-75409130D01*
X201982538Y-75405961D01*
X201973341Y-75402353D01*
X201964375Y-75398315D01*
X201955649Y-75393862D01*
X201947179Y-75389005D01*
X201938974Y-75383757D01*
X201931047Y-75378131D01*
X201923412Y-75372138D01*
X201916081Y-75365794D01*
X201909066Y-75359107D01*
X201902380Y-75352092D01*
X201896033Y-75344761D01*
X201890041Y-75337125D01*
X201884417Y-75329198D01*
X201879169Y-75320995D01*
X201874312Y-75312522D01*
X201869860Y-75303796D01*
X201865823Y-75294830D01*
X201862214Y-75285634D01*
X201859046Y-75276223D01*
X201856332Y-75266607D01*
X201854081Y-75256800D01*
X201852310Y-75246813D01*
X201851029Y-75236660D01*
X201850253Y-75226353D01*
X201849991Y-75215904D01*
X201849991Y-75189240D01*
X201850253Y-75178790D01*
X201851029Y-75168482D01*
X201852310Y-75158329D01*
X201854082Y-75148342D01*
X201856331Y-75138534D01*
X201859046Y-75128917D01*
X201862214Y-75119504D01*
X201865822Y-75110310D01*
X201869860Y-75101342D01*
X201874313Y-75092618D01*
X201879169Y-75084146D01*
X201884417Y-75075941D01*
X201890042Y-75068015D01*
X201896033Y-75060381D01*
X201902380Y-75053049D01*
X201909066Y-75046033D01*
X201916081Y-75039347D01*
X201923411Y-75033002D01*
X201931047Y-75027010D01*
X201938974Y-75021384D01*
X201947179Y-75016137D01*
X201955650Y-75011280D01*
X201964375Y-75006827D01*
X201973342Y-75002790D01*
X201982538Y-74999180D01*
X201991950Y-74996013D01*
X202001565Y-74993298D01*
X202011374Y-74991049D01*
X202021361Y-74989278D01*
X202031514Y-74987998D01*
X202033223Y-74987869D01*
X203201609Y-74987869D01*
X203547327Y-74987869D01*
X204143138Y-74987869D01*
X204488855Y-74987870D01*
X204488854Y-74987869D01*
X205121436Y-74987869D01*
X205577499Y-74987869D01*
X205349464Y-74537333D01*
X205121436Y-74987869D01*
X204488854Y-74987869D01*
X204315997Y-74664228D01*
X204143138Y-74987869D01*
X203547327Y-74987869D01*
X203374468Y-74664228D01*
X203201609Y-74987869D01*
X202033223Y-74987869D01*
X202041823Y-74987220D01*
X202052272Y-74986958D01*
X202549700Y-74986958D01*
X202469716Y-74826053D01*
X202407185Y-74701005D01*
X202405159Y-74696523D01*
X202403220Y-74692041D01*
X202401366Y-74687558D01*
X202399599Y-74683075D01*
X202397917Y-74678593D01*
X202396324Y-74674111D01*
X202394815Y-74669629D01*
X202393392Y-74665146D01*
X202391011Y-74656313D01*
X202389038Y-74647407D01*
X202387472Y-74638441D01*
X202386312Y-74629431D01*
X202385555Y-74620387D01*
X202385201Y-74611325D01*
X202385249Y-74602257D01*
X202385697Y-74593198D01*
X202386543Y-74584160D01*
X202387786Y-74575158D01*
X202389427Y-74566203D01*
X202391460Y-74557311D01*
X202393888Y-74548494D01*
X202396707Y-74539766D01*
X202399917Y-74531140D01*
X202403515Y-74522630D01*
X202419147Y-74487690D01*
X202425829Y-74474033D01*
X202433431Y-74461013D01*
X202441908Y-74448664D01*
X202451208Y-74437019D01*
X202461284Y-74426112D01*
X202472088Y-74415977D01*
X202483570Y-74406648D01*
X202495684Y-74398158D01*
X202508378Y-74390541D01*
X202521608Y-74383829D01*
X202535321Y-74378058D01*
X202549471Y-74373260D01*
X202564009Y-74369470D01*
X202578887Y-74366722D01*
X202594056Y-74365049D01*
X202609466Y-74364481D01*
X202619939Y-74364739D01*
X202630311Y-74365508D01*
X202640571Y-74366780D01*
X202650703Y-74368548D01*
X202660696Y-74370807D01*
X202670535Y-74373550D01*
X202680205Y-74376769D01*
X202689696Y-74380459D01*
X202698994Y-74384611D01*
X202708084Y-74389219D01*
X202716953Y-74394279D01*
X202725586Y-74399781D01*
X202733973Y-74405720D01*
X202742096Y-74412088D01*
X202749947Y-74418878D01*
X202757508Y-74426088D01*
X202914737Y-74584234D01*
X203072884Y-74201727D01*
X203079428Y-74187393D01*
X203086951Y-74173719D01*
X203095404Y-74160742D01*
X203104736Y-74148500D01*
X203114890Y-74137028D01*
X203125816Y-74126362D01*
X203137462Y-74116542D01*
X203149774Y-74107598D01*
X203162700Y-74099572D01*
X203176189Y-74092497D01*
X203190186Y-74086411D01*
X203204641Y-74081351D01*
X203219498Y-74077351D01*
X203234708Y-74074449D01*
X203250215Y-74072682D01*
X203265971Y-74072084D01*
X203374468Y-74072084D01*
X203398373Y-74072084D01*
X203411245Y-74072479D01*
X203423977Y-74073656D01*
X203436540Y-74075593D01*
X203448900Y-74078276D01*
X203461031Y-74081685D01*
X203472899Y-74085806D01*
X203484471Y-74090618D01*
X203495721Y-74096106D01*
X203506614Y-74102250D01*
X203517121Y-74109033D01*
X203527210Y-74116441D01*
X203536850Y-74124450D01*
X203546011Y-74133049D01*
X203554660Y-74142216D01*
X203562769Y-74151936D01*
X203570305Y-74162191D01*
X203855338Y-74573191D01*
X204075090Y-74119896D01*
X204082085Y-74106756D01*
X204089939Y-74094248D01*
X204098604Y-74082404D01*
X204108031Y-74071251D01*
X204118176Y-74060821D01*
X204128991Y-74051142D01*
X204140428Y-74042244D01*
X204152438Y-74034157D01*
X204164979Y-74026910D01*
X204177999Y-74020534D01*
X204191452Y-74015057D01*
X204205294Y-74010509D01*
X204219475Y-74006921D01*
X204233946Y-74004321D01*
X204248663Y-74002739D01*
X204263579Y-74002204D01*
X204315997Y-74002205D01*
X204363800Y-74002205D01*
X204370852Y-74002322D01*
X204377865Y-74002676D01*
X204384835Y-74003260D01*
X204391759Y-74004072D01*
X204398630Y-74005112D01*
X204405444Y-74006375D01*
X204412195Y-74007859D01*
X204418879Y-74009561D01*
X204425489Y-74011479D01*
X204432022Y-74013609D01*
X204438473Y-74015949D01*
X204444835Y-74018497D01*
X204451105Y-74021250D01*
X204457276Y-74024205D01*
X204463345Y-74027358D01*
X204469306Y-74030709D01*
X204475153Y-74034253D01*
X204480882Y-74037988D01*
X204486488Y-74041913D01*
X204491966Y-74046022D01*
X204497311Y-74050318D01*
X204502516Y-74054791D01*
X204507580Y-74059442D01*
X204512494Y-74064269D01*
X204517253Y-74069268D01*
X204521856Y-74074437D01*
X204526295Y-74079773D01*
X204530564Y-74085272D01*
X204534659Y-74090935D01*
X204538577Y-74096756D01*
X204542310Y-74102732D01*
X204545854Y-74108863D01*
X204785834Y-74538252D01*
X205094782Y-73880836D01*
X205101777Y-73867362D01*
X205109633Y-73854542D01*
X205118302Y-73842406D01*
X205127739Y-73830983D01*
X205137898Y-73820303D01*
X205148733Y-73810398D01*
X205160197Y-73801294D01*
X205172247Y-73793023D01*
X205184835Y-73785614D01*
X205197917Y-73779097D01*
X205211445Y-73773501D01*
X205225375Y-73768857D01*
X205239660Y-73765191D01*
X205254254Y-73762537D01*
X205269115Y-73760922D01*
X205284191Y-73760378D01*
X205349464Y-73760378D01*
X205379815Y-73760378D01*
X205386693Y-73760490D01*
X205393537Y-73760826D01*
X205400336Y-73761385D01*
X205407092Y-73762161D01*
X205413795Y-73763154D01*
X205420444Y-73764361D01*
X205427034Y-73765777D01*
X205433560Y-73767406D01*
X205440016Y-73769237D01*
X205446399Y-73771273D01*
X205452705Y-73773510D01*
X205458928Y-73775945D01*
X205465063Y-73778576D01*
X205471108Y-73781401D01*
X205477057Y-73784417D01*
X205482907Y-73787621D01*
X205488650Y-73791011D01*
X205494284Y-73794585D01*
X205499804Y-73798339D01*
X205505205Y-73802272D01*
X205510483Y-73806380D01*
X205515633Y-73810660D01*
X205520650Y-73815114D01*
X205525532Y-73819734D01*
X205530271Y-73824520D01*
X205534865Y-73829469D01*
X205539308Y-73834579D01*
X205543598Y-73839846D01*
X205547726Y-73845270D01*
X205551690Y-73850846D01*
X205555488Y-73856573D01*
X205559111Y-73862447D01*
X205934251Y-74490441D01*
X206392143Y-73472595D01*
X206398825Y-73458938D01*
X206406429Y-73445918D01*
X206414904Y-73433569D01*
X206424206Y-73421924D01*
X206434283Y-73411018D01*
X206445087Y-73400883D01*
X206456571Y-73391553D01*
X206468684Y-73383063D01*
X206481381Y-73375445D01*
X206494611Y-73368734D01*
X206508326Y-73362963D01*
X206522476Y-73358165D01*
X206537014Y-73354375D01*
X206551891Y-73351627D01*
X206567060Y-73349953D01*
X206582472Y-73349386D01*
X207273908Y-73349386D01*
X207284618Y-73349657D01*
G37*
D10*
G36*
X195825680Y-79681504D02*
G01*
X195628306Y-79681504D01*
X195689985Y-79385443D01*
X195825680Y-79681504D01*
G37*
G36*
X190701572Y-79491028D02*
G01*
X190456251Y-79491028D01*
X190388352Y-79459075D01*
X190356316Y-79430598D01*
X190316103Y-79366258D01*
X190304038Y-79269738D01*
X190324711Y-79214610D01*
X190342342Y-79194460D01*
X190393421Y-79167219D01*
X190661096Y-79167219D01*
X190701572Y-79491028D01*
G37*
G36*
X199823321Y-80278330D02*
G01*
X189188993Y-80278330D01*
X189188993Y-80047710D01*
X189300104Y-80047710D01*
X189300104Y-80086728D01*
X189315036Y-80122776D01*
X189342626Y-80150366D01*
X189378674Y-80165298D01*
X189398183Y-80167219D01*
X189874374Y-80167219D01*
X189893883Y-80165298D01*
X189899675Y-80162898D01*
X189905898Y-80162121D01*
X189917551Y-80155494D01*
X189929931Y-80150366D01*
X189934364Y-80145932D01*
X189939815Y-80142833D01*
X189948043Y-80132253D01*
X189957521Y-80122776D01*
X189959920Y-80116983D01*
X189963770Y-80112034D01*
X189967323Y-80099112D01*
X189972453Y-80086728D01*
X189972453Y-80080456D01*
X189974115Y-80074412D01*
X189973602Y-80054815D01*
X189873063Y-79250502D01*
X190102014Y-79250502D01*
X190102527Y-79270098D01*
X190120384Y-79412956D01*
X190124710Y-79432076D01*
X190125752Y-79433909D01*
X190126101Y-79435990D01*
X190134812Y-79453552D01*
X190194336Y-79548790D01*
X190198370Y-79554023D01*
X190199394Y-79556134D01*
X190203036Y-79560075D01*
X190206305Y-79564315D01*
X190208209Y-79565673D01*
X190212699Y-79570531D01*
X190266271Y-79618150D01*
X190271701Y-79622097D01*
X190273293Y-79623846D01*
X190277846Y-79626562D01*
X190282128Y-79629675D01*
X190284358Y-79630448D01*
X190290127Y-79633891D01*
X190391317Y-79681510D01*
X190406309Y-79686841D01*
X190216254Y-80017372D01*
X190208195Y-80035242D01*
X190203171Y-80073935D01*
X190213336Y-80111606D01*
X190237143Y-80142520D01*
X190270968Y-80161969D01*
X190309661Y-80166993D01*
X190347332Y-80156828D01*
X190378246Y-80133021D01*
X190389636Y-80117066D01*
X190634607Y-79691028D01*
X190726572Y-79691028D01*
X190775146Y-80079622D01*
X190779472Y-80098742D01*
X190798760Y-80132660D01*
X190829559Y-80156615D01*
X190867181Y-80166960D01*
X190905898Y-80162121D01*
X190939815Y-80142833D01*
X190963770Y-80112034D01*
X190974115Y-80074412D01*
X190973602Y-80054815D01*
X190860439Y-79149515D01*
X191090691Y-79149515D01*
X191093286Y-79188447D01*
X191110582Y-79223422D01*
X191139946Y-79249116D01*
X191176908Y-79261616D01*
X191215840Y-79259021D01*
X191250815Y-79241725D01*
X191265107Y-79228308D01*
X191289353Y-79200597D01*
X191385317Y-79167219D01*
X191448051Y-79167219D01*
X191561843Y-79203632D01*
X191642431Y-79275267D01*
X191689023Y-79349813D01*
X191752796Y-79519876D01*
X191767642Y-79638647D01*
X191746844Y-79805034D01*
X191721654Y-79872208D01*
X191667726Y-79933840D01*
X191571763Y-79967219D01*
X191509032Y-79967219D01*
X191395239Y-79930805D01*
X191357477Y-79897239D01*
X191341619Y-79885714D01*
X191304756Y-79872925D01*
X191265806Y-79875216D01*
X191230696Y-79892238D01*
X191204774Y-79921401D01*
X191191985Y-79958264D01*
X191194276Y-79997214D01*
X191211298Y-80032324D01*
X191224603Y-80046721D01*
X191278175Y-80094340D01*
X191294033Y-80105866D01*
X191295197Y-80106269D01*
X191296139Y-80107067D01*
X191314134Y-80114842D01*
X191462943Y-80162461D01*
X191471501Y-80164299D01*
X191473912Y-80165298D01*
X191478044Y-80165704D01*
X191482109Y-80166578D01*
X191484711Y-80166361D01*
X191493421Y-80167219D01*
X191588659Y-80167219D01*
X191599882Y-80166113D01*
X191602454Y-80166263D01*
X191605275Y-80165582D01*
X191608168Y-80165298D01*
X191610549Y-80164311D01*
X191621511Y-80161669D01*
X191758416Y-80114050D01*
X191776211Y-80105826D01*
X191780900Y-80101650D01*
X191786530Y-80098867D01*
X191800822Y-80085450D01*
X191884155Y-79990211D01*
X191892483Y-79978561D01*
X191893881Y-79977066D01*
X191894603Y-79975595D01*
X191895556Y-79974264D01*
X191896211Y-79972325D01*
X191902530Y-79959474D01*
X191938245Y-79864236D01*
X191938927Y-79861677D01*
X191939514Y-79860646D01*
X191941258Y-79852934D01*
X191943296Y-79845295D01*
X191943255Y-79844108D01*
X191943840Y-79841526D01*
X191967649Y-79651050D01*
X191967745Y-79647354D01*
X191968162Y-79645841D01*
X191967973Y-79638647D01*
X191968162Y-79631454D01*
X191967745Y-79629940D01*
X191967649Y-79626244D01*
X191949792Y-79483387D01*
X191949207Y-79480804D01*
X191949248Y-79479619D01*
X191947212Y-79471984D01*
X191945466Y-79464267D01*
X191944878Y-79463234D01*
X191944197Y-79460678D01*
X191872769Y-79270202D01*
X191872665Y-79269991D01*
X191872646Y-79269875D01*
X191868331Y-79261175D01*
X191864120Y-79252610D01*
X191864040Y-79252525D01*
X191863936Y-79252314D01*
X191804412Y-79157076D01*
X191800374Y-79151838D01*
X191799353Y-79149732D01*
X191795719Y-79145800D01*
X191792443Y-79141550D01*
X191790532Y-79140187D01*
X191786048Y-79135335D01*
X191701325Y-79060026D01*
X192125823Y-79060026D01*
X192126336Y-79079622D01*
X192251336Y-80079622D01*
X192255662Y-80098742D01*
X192274950Y-80132660D01*
X192305749Y-80156615D01*
X192343371Y-80166960D01*
X192382088Y-80162121D01*
X192416005Y-80142833D01*
X192439960Y-80112034D01*
X192450305Y-80074412D01*
X192449792Y-80054815D01*
X192398366Y-79643409D01*
X192768238Y-79643409D01*
X192822765Y-80079622D01*
X192827091Y-80098742D01*
X192846379Y-80132660D01*
X192877178Y-80156615D01*
X192914800Y-80166960D01*
X192953517Y-80162121D01*
X192987434Y-80142833D01*
X193011389Y-80112034D01*
X193021734Y-80074412D01*
X193021221Y-80054815D01*
X192972714Y-79666757D01*
X193252485Y-79666757D01*
X193252485Y-79705775D01*
X193267417Y-79741823D01*
X193295007Y-79769413D01*
X193331055Y-79784345D01*
X193350564Y-79786266D01*
X194112469Y-79786266D01*
X194131978Y-79784345D01*
X194168026Y-79769413D01*
X194195616Y-79741823D01*
X194210548Y-79705775D01*
X194210548Y-79666757D01*
X194195616Y-79630709D01*
X194168026Y-79603119D01*
X194131978Y-79588187D01*
X194112469Y-79586266D01*
X193350564Y-79586266D01*
X193331055Y-79588187D01*
X193295007Y-79603119D01*
X193267417Y-79630709D01*
X193252485Y-79666757D01*
X192972714Y-79666757D01*
X192905448Y-79128633D01*
X194370568Y-79128633D01*
X194383386Y-79165485D01*
X194409332Y-79194627D01*
X194444454Y-79211622D01*
X194483407Y-79213882D01*
X194502464Y-79209288D01*
X194623412Y-79167219D01*
X194822258Y-79167219D01*
X194890156Y-79199171D01*
X194922191Y-79227646D01*
X194962405Y-79291988D01*
X194968518Y-79340890D01*
X194947845Y-79396017D01*
X194930215Y-79416166D01*
X194867601Y-79449560D01*
X194694624Y-79494200D01*
X194691935Y-79495183D01*
X194690671Y-79495307D01*
X194683503Y-79498268D01*
X194676214Y-79500935D01*
X194675198Y-79501699D01*
X194672554Y-79502792D01*
X194583267Y-79550412D01*
X194571132Y-79558503D01*
X194569361Y-79559379D01*
X194568239Y-79560431D01*
X194566957Y-79561287D01*
X194565699Y-79562815D01*
X194555069Y-79572796D01*
X194513402Y-79620415D01*
X194505067Y-79632071D01*
X194503675Y-79633562D01*
X194502955Y-79635025D01*
X194502000Y-79636362D01*
X194501342Y-79638306D01*
X194495026Y-79651154D01*
X194459312Y-79746392D01*
X194454261Y-79765333D01*
X194454416Y-79769902D01*
X194453204Y-79774311D01*
X194453717Y-79793908D01*
X194465622Y-79889146D01*
X194469948Y-79908266D01*
X194470990Y-79910099D01*
X194471339Y-79912180D01*
X194480050Y-79929741D01*
X194539573Y-80024980D01*
X194543607Y-80030213D01*
X194544631Y-80032324D01*
X194548273Y-80036265D01*
X194551542Y-80040505D01*
X194553447Y-80041863D01*
X194557936Y-80046721D01*
X194611508Y-80094340D01*
X194616939Y-80098287D01*
X194618531Y-80100037D01*
X194623084Y-80102754D01*
X194627366Y-80105866D01*
X194629596Y-80106639D01*
X194635365Y-80110082D01*
X194736555Y-80157701D01*
X194755026Y-80164270D01*
X194757416Y-80164382D01*
X194759626Y-80165298D01*
X194779135Y-80167219D01*
X195017231Y-80167219D01*
X195028454Y-80166113D01*
X195031026Y-80166263D01*
X195033847Y-80165582D01*
X195036740Y-80165298D01*
X195039121Y-80164311D01*
X195050083Y-80161669D01*
X195186987Y-80114050D01*
X195204782Y-80105826D01*
X195233924Y-80079880D01*
X195240488Y-80066314D01*
X195345806Y-80066314D01*
X195353072Y-80104650D01*
X195374455Y-80137287D01*
X195406699Y-80159257D01*
X195444897Y-80167215D01*
X195483233Y-80159949D01*
X195515870Y-80138566D01*
X195537840Y-80106322D01*
X195543700Y-80087614D01*
X195586640Y-79881504D01*
X195917347Y-79881504D01*
X196021563Y-80108885D01*
X196031437Y-80125819D01*
X196060031Y-80152368D01*
X196096608Y-80165953D01*
X196135599Y-80164508D01*
X196171069Y-80148251D01*
X196197618Y-80119657D01*
X196211203Y-80083080D01*
X196209758Y-80044089D01*
X196203376Y-80025554D01*
X195767828Y-79075269D01*
X196125889Y-79075269D01*
X196136556Y-79112801D01*
X196147159Y-79129289D01*
X196502057Y-79577580D01*
X196262635Y-80019591D01*
X196255032Y-80037660D01*
X196250993Y-80076468D01*
X196262112Y-80113869D01*
X196286696Y-80144167D01*
X196321005Y-80162751D01*
X196359813Y-80166790D01*
X196397214Y-80155671D01*
X196427512Y-80131087D01*
X196438493Y-80114847D01*
X196637108Y-79748171D01*
X196938827Y-80129289D01*
X196952442Y-80143393D01*
X196986524Y-80162388D01*
X197025281Y-80166895D01*
X197062813Y-80156227D01*
X197093405Y-80132008D01*
X197112400Y-80097926D01*
X197116907Y-80059169D01*
X197106239Y-80021637D01*
X197095636Y-80005149D01*
X196740737Y-79556856D01*
X196980160Y-79114847D01*
X196987763Y-79096778D01*
X196991802Y-79057970D01*
X196988752Y-79047710D01*
X197127485Y-79047710D01*
X197127485Y-79086728D01*
X197142417Y-79122776D01*
X197170007Y-79150366D01*
X197206055Y-79165298D01*
X197225564Y-79167219D01*
X197613477Y-79167219D01*
X197648000Y-79443409D01*
X197427945Y-79443409D01*
X197408436Y-79445330D01*
X197372388Y-79460262D01*
X197344798Y-79487852D01*
X197329866Y-79523900D01*
X197329866Y-79562918D01*
X197344798Y-79598966D01*
X197372388Y-79626556D01*
X197408436Y-79641488D01*
X197427945Y-79643409D01*
X197673000Y-79643409D01*
X197713477Y-79967219D01*
X197350564Y-79967219D01*
X197331055Y-79969140D01*
X197295007Y-79984072D01*
X197267417Y-80011662D01*
X197252485Y-80047710D01*
X197252485Y-80086728D01*
X197267417Y-80122776D01*
X197295007Y-80150366D01*
X197331055Y-80165298D01*
X197350564Y-80167219D01*
X197826755Y-80167219D01*
X197846264Y-80165298D01*
X197852056Y-80162898D01*
X197858279Y-80162121D01*
X197869932Y-80155494D01*
X197882312Y-80150366D01*
X197886745Y-80145932D01*
X197892196Y-80142833D01*
X197900424Y-80132253D01*
X197909902Y-80122776D01*
X197912301Y-80116983D01*
X197916151Y-80112034D01*
X197919704Y-80099112D01*
X197924834Y-80086728D01*
X197924834Y-80080456D01*
X197926496Y-80074412D01*
X197925983Y-80054815D01*
X197800983Y-79054816D01*
X197799834Y-79049737D01*
X197799834Y-79047710D01*
X197937009Y-79047710D01*
X197937009Y-79086728D01*
X197951941Y-79122776D01*
X197979531Y-79150366D01*
X198015579Y-79165298D01*
X198035088Y-79167219D01*
X198232525Y-79167219D01*
X198346575Y-80079622D01*
X198350901Y-80098742D01*
X198370189Y-80132660D01*
X198400988Y-80156615D01*
X198438610Y-80166960D01*
X198477327Y-80162121D01*
X198511244Y-80142833D01*
X198535199Y-80112034D01*
X198545544Y-80074412D01*
X198545031Y-80054815D01*
X198434081Y-79167219D01*
X198606517Y-79167219D01*
X198626026Y-79165298D01*
X198662074Y-79150366D01*
X198689664Y-79122776D01*
X198704596Y-79086728D01*
X198704596Y-79060026D01*
X198840109Y-79060026D01*
X198840622Y-79079623D01*
X198941813Y-79889146D01*
X198946139Y-79908266D01*
X198947181Y-79910099D01*
X198947530Y-79912180D01*
X198956241Y-79929741D01*
X199015764Y-80024980D01*
X199019798Y-80030213D01*
X199020822Y-80032324D01*
X199024464Y-80036265D01*
X199027733Y-80040505D01*
X199029638Y-80041863D01*
X199034127Y-80046721D01*
X199087699Y-80094340D01*
X199093130Y-80098287D01*
X199094722Y-80100037D01*
X199099275Y-80102754D01*
X199103557Y-80105866D01*
X199105787Y-80106639D01*
X199111556Y-80110082D01*
X199212746Y-80157701D01*
X199231217Y-80164270D01*
X199233607Y-80164382D01*
X199235817Y-80165298D01*
X199255326Y-80167219D01*
X199445802Y-80167219D01*
X199465311Y-80165298D01*
X199469851Y-80163417D01*
X199474743Y-80162940D01*
X199492861Y-80155454D01*
X199582147Y-80107835D01*
X199594284Y-80099741D01*
X199596054Y-80098867D01*
X199597174Y-80097815D01*
X199598457Y-80096960D01*
X199599714Y-80095430D01*
X199610346Y-80085450D01*
X199652013Y-80037830D01*
X199660344Y-80026176D01*
X199661739Y-80024684D01*
X199662460Y-80023217D01*
X199663414Y-80021883D01*
X199664070Y-80019941D01*
X199670388Y-80007092D01*
X199706102Y-79911854D01*
X199711153Y-79892913D01*
X199710997Y-79888343D01*
X199712210Y-79883935D01*
X199711697Y-79864339D01*
X199610507Y-79054816D01*
X199606181Y-79035695D01*
X199586893Y-79001778D01*
X199556094Y-78977823D01*
X199518472Y-78967478D01*
X199479755Y-78972317D01*
X199445838Y-78991605D01*
X199421883Y-79022404D01*
X199411538Y-79060026D01*
X199412051Y-79079622D01*
X199510185Y-79864699D01*
X199489512Y-79919826D01*
X199471881Y-79939976D01*
X199420802Y-79967219D01*
X199277680Y-79967219D01*
X199209781Y-79935266D01*
X199177743Y-79906787D01*
X199137533Y-79842450D01*
X199039078Y-79054815D01*
X199034752Y-79035695D01*
X199015464Y-79001778D01*
X198984665Y-78977823D01*
X198947043Y-78967478D01*
X198908326Y-78972317D01*
X198874409Y-78991605D01*
X198850454Y-79022404D01*
X198840109Y-79060026D01*
X198704596Y-79060026D01*
X198704596Y-79047710D01*
X198689664Y-79011662D01*
X198662074Y-78984072D01*
X198626026Y-78969140D01*
X198606517Y-78967219D01*
X198035088Y-78967219D01*
X198015579Y-78969140D01*
X197979531Y-78984072D01*
X197951941Y-79011662D01*
X197937009Y-79047710D01*
X197799834Y-79047710D01*
X197798823Y-79045269D01*
X197796657Y-79035695D01*
X197790030Y-79024041D01*
X197784902Y-79011662D01*
X197780468Y-79007228D01*
X197777369Y-79001778D01*
X197766789Y-78993549D01*
X197757312Y-78984072D01*
X197751519Y-78981672D01*
X197746570Y-78977823D01*
X197733648Y-78974269D01*
X197721264Y-78969140D01*
X197711493Y-78968177D01*
X197708948Y-78967478D01*
X197706937Y-78967729D01*
X197701755Y-78967219D01*
X197225564Y-78967219D01*
X197206055Y-78969140D01*
X197170007Y-78984072D01*
X197142417Y-79011662D01*
X197127485Y-79047710D01*
X196988752Y-79047710D01*
X196980683Y-79020569D01*
X196956099Y-78990271D01*
X196921790Y-78971687D01*
X196882982Y-78967647D01*
X196845581Y-78978767D01*
X196815283Y-79003351D01*
X196804302Y-79019591D01*
X196605686Y-79386265D01*
X196303969Y-79005149D01*
X196290353Y-78991045D01*
X196256271Y-78972050D01*
X196217514Y-78967544D01*
X196179982Y-78978211D01*
X196149390Y-79002430D01*
X196130395Y-79036512D01*
X196125889Y-79075269D01*
X195767828Y-79075269D01*
X195745041Y-79025553D01*
X195735167Y-79008619D01*
X195729623Y-79003471D01*
X195725482Y-78997151D01*
X195715462Y-78990323D01*
X195706573Y-78982070D01*
X195699487Y-78979438D01*
X195693238Y-78975180D01*
X195681358Y-78972705D01*
X195669996Y-78968485D01*
X195662445Y-78968764D01*
X195655040Y-78967222D01*
X195643121Y-78969480D01*
X195631005Y-78969930D01*
X195624131Y-78973080D01*
X195616704Y-78974488D01*
X195606561Y-78981133D01*
X195595535Y-78986187D01*
X195590389Y-78991728D01*
X195584067Y-78995871D01*
X195577239Y-79005892D01*
X195568986Y-79014781D01*
X195566353Y-79021868D01*
X195562097Y-79028116D01*
X195556237Y-79046823D01*
X195347904Y-80046824D01*
X195345806Y-80066314D01*
X195240488Y-80066314D01*
X195250919Y-80044758D01*
X195253179Y-80005805D01*
X195240361Y-79968953D01*
X195214415Y-79939811D01*
X195179293Y-79922816D01*
X195140340Y-79920556D01*
X195121283Y-79925150D01*
X195000335Y-79967219D01*
X194801489Y-79967219D01*
X194733590Y-79935266D01*
X194701552Y-79906787D01*
X194661341Y-79842450D01*
X194655228Y-79793546D01*
X194675901Y-79738419D01*
X194693532Y-79718270D01*
X194756145Y-79684876D01*
X194929123Y-79640237D01*
X194931811Y-79639253D01*
X194933076Y-79639130D01*
X194940238Y-79636170D01*
X194947533Y-79633502D01*
X194948549Y-79632736D01*
X194951194Y-79631644D01*
X195040480Y-79584025D01*
X195052614Y-79575933D01*
X195054386Y-79575058D01*
X195055507Y-79574005D01*
X195056790Y-79573150D01*
X195058047Y-79571621D01*
X195068678Y-79561641D01*
X195110345Y-79514022D01*
X195118679Y-79502365D01*
X195120072Y-79500875D01*
X195120791Y-79499411D01*
X195121747Y-79498075D01*
X195122404Y-79496130D01*
X195128721Y-79483283D01*
X195164435Y-79388045D01*
X195169486Y-79369104D01*
X195169330Y-79364534D01*
X195170543Y-79360126D01*
X195170030Y-79340529D01*
X195158125Y-79245291D01*
X195153799Y-79226171D01*
X195152755Y-79224335D01*
X195152407Y-79222256D01*
X195143697Y-79204695D01*
X195084173Y-79109457D01*
X195080137Y-79104222D01*
X195079115Y-79102113D01*
X195075475Y-79098175D01*
X195072204Y-79093931D01*
X195070296Y-79092570D01*
X195065810Y-79087716D01*
X195012239Y-79040097D01*
X195006806Y-79036148D01*
X195005216Y-79034401D01*
X195000664Y-79031685D01*
X194996381Y-79028572D01*
X194994150Y-79027798D01*
X194988382Y-79024356D01*
X194887192Y-78976737D01*
X194868722Y-78970168D01*
X194866330Y-78970055D01*
X194864121Y-78969140D01*
X194844612Y-78967219D01*
X194606516Y-78967219D01*
X194595292Y-78968324D01*
X194592721Y-78968175D01*
X194589899Y-78968855D01*
X194587007Y-78969140D01*
X194584625Y-78970126D01*
X194573664Y-78972769D01*
X194436760Y-79020388D01*
X194418965Y-79028612D01*
X194389823Y-79054558D01*
X194372828Y-79089680D01*
X194370568Y-79128633D01*
X192905448Y-79128633D01*
X192896221Y-79054816D01*
X192891895Y-79035695D01*
X192872607Y-79001778D01*
X192841808Y-78977823D01*
X192804186Y-78967478D01*
X192765469Y-78972317D01*
X192731552Y-78991605D01*
X192707597Y-79022404D01*
X192697252Y-79060026D01*
X192697765Y-79079622D01*
X192743238Y-79443409D01*
X192373366Y-79443409D01*
X192324792Y-79054816D01*
X192320466Y-79035695D01*
X192301178Y-79001778D01*
X192270379Y-78977823D01*
X192232757Y-78967478D01*
X192194040Y-78972317D01*
X192160123Y-78991605D01*
X192136168Y-79022404D01*
X192125823Y-79060026D01*
X191701325Y-79060026D01*
X191678905Y-79040097D01*
X191663048Y-79028572D01*
X191661882Y-79028167D01*
X191660941Y-79027371D01*
X191642946Y-79019595D01*
X191494136Y-78971977D01*
X191485579Y-78970139D01*
X191483168Y-78969140D01*
X191479033Y-78968732D01*
X191474970Y-78967860D01*
X191472367Y-78968076D01*
X191463659Y-78967219D01*
X191368421Y-78967219D01*
X191357197Y-78968324D01*
X191354626Y-78968175D01*
X191351804Y-78968855D01*
X191348912Y-78969140D01*
X191346530Y-78970126D01*
X191335569Y-78972769D01*
X191198665Y-79020388D01*
X191180870Y-79028612D01*
X191176181Y-79032785D01*
X191170552Y-79035570D01*
X191156260Y-79048987D01*
X191114593Y-79096606D01*
X191103191Y-79112553D01*
X191090691Y-79149515D01*
X190860439Y-79149515D01*
X190848602Y-79054816D01*
X190847453Y-79049737D01*
X190847453Y-79047710D01*
X190846442Y-79045269D01*
X190844276Y-79035695D01*
X190837649Y-79024041D01*
X190832521Y-79011662D01*
X190828087Y-79007228D01*
X190824988Y-79001778D01*
X190814408Y-78993549D01*
X190804931Y-78984072D01*
X190799138Y-78981672D01*
X190794189Y-78977823D01*
X190781267Y-78974269D01*
X190768883Y-78969140D01*
X190759112Y-78968177D01*
X190756567Y-78967478D01*
X190754556Y-78967729D01*
X190749374Y-78967219D01*
X190368421Y-78967219D01*
X190348912Y-78969140D01*
X190344371Y-78971020D01*
X190339480Y-78971498D01*
X190321362Y-78978984D01*
X190232077Y-79026603D01*
X190219946Y-79034692D01*
X190218171Y-79035570D01*
X190217045Y-79036626D01*
X190215767Y-79037479D01*
X190214513Y-79039003D01*
X190203879Y-79048987D01*
X190162212Y-79096606D01*
X190153877Y-79108262D01*
X190152485Y-79109753D01*
X190151765Y-79111216D01*
X190150810Y-79112553D01*
X190150152Y-79114497D01*
X190143836Y-79127345D01*
X190108122Y-79222583D01*
X190103071Y-79241524D01*
X190103226Y-79246093D01*
X190102014Y-79250502D01*
X189873063Y-79250502D01*
X189848602Y-79054816D01*
X189844276Y-79035695D01*
X189824988Y-79001778D01*
X189794189Y-78977823D01*
X189756567Y-78967478D01*
X189717850Y-78972317D01*
X189683933Y-78991605D01*
X189659978Y-79022404D01*
X189649633Y-79060026D01*
X189650146Y-79079622D01*
X189761096Y-79967219D01*
X189398183Y-79967219D01*
X189378674Y-79969140D01*
X189342626Y-79984072D01*
X189315036Y-80011662D01*
X189300104Y-80047710D01*
X189188993Y-80047710D01*
X189188993Y-78856108D01*
X199823321Y-78856108D01*
X199823321Y-80278330D01*
G37*
X209228439Y-68877945D02*
X209228439Y-68401755D01*
X208942724Y-68973183D02*
X209942724Y-68639850D01*
X209942724Y-68639850D02*
X208942724Y-68306517D01*
X208942724Y-67830326D02*
X208990344Y-67925564D01*
X208990344Y-67925564D02*
X209085582Y-67973183D01*
X209085582Y-67973183D02*
X209942724Y-67973183D01*
X208990344Y-67068421D02*
X208942724Y-67163659D01*
X208942724Y-67163659D02*
X208942724Y-67354135D01*
X208942724Y-67354135D02*
X208990344Y-67449373D01*
X208990344Y-67449373D02*
X209085582Y-67496992D01*
X209085582Y-67496992D02*
X209466534Y-67496992D01*
X209466534Y-67496992D02*
X209561772Y-67449373D01*
X209561772Y-67449373D02*
X209609391Y-67354135D01*
X209609391Y-67354135D02*
X209609391Y-67163659D01*
X209609391Y-67163659D02*
X209561772Y-67068421D01*
X209561772Y-67068421D02*
X209466534Y-67020802D01*
X209466534Y-67020802D02*
X209371296Y-67020802D01*
X209371296Y-67020802D02*
X209276058Y-67496992D01*
X208942724Y-66687468D02*
X209609391Y-66163659D01*
X209609391Y-66687468D02*
X208942724Y-66163659D01*
X208942724Y-65354135D02*
X209466534Y-65354135D01*
X209466534Y-65354135D02*
X209561772Y-65401754D01*
X209561772Y-65401754D02*
X209609391Y-65496992D01*
X209609391Y-65496992D02*
X209609391Y-65687468D01*
X209609391Y-65687468D02*
X209561772Y-65782706D01*
X208990344Y-65354135D02*
X208942724Y-65449373D01*
X208942724Y-65449373D02*
X208942724Y-65687468D01*
X208942724Y-65687468D02*
X208990344Y-65782706D01*
X208990344Y-65782706D02*
X209085582Y-65830325D01*
X209085582Y-65830325D02*
X209180820Y-65830325D01*
X209180820Y-65830325D02*
X209276058Y-65782706D01*
X209276058Y-65782706D02*
X209323677Y-65687468D01*
X209323677Y-65687468D02*
X209323677Y-65449373D01*
X209323677Y-65449373D02*
X209371296Y-65354135D01*
X209609391Y-64877944D02*
X208942724Y-64877944D01*
X209514153Y-64877944D02*
X209561772Y-64830325D01*
X209561772Y-64830325D02*
X209609391Y-64735087D01*
X209609391Y-64735087D02*
X209609391Y-64592230D01*
X209609391Y-64592230D02*
X209561772Y-64496992D01*
X209561772Y-64496992D02*
X209466534Y-64449373D01*
X209466534Y-64449373D02*
X208942724Y-64449373D01*
X208942724Y-63544611D02*
X209942724Y-63544611D01*
X208990344Y-63544611D02*
X208942724Y-63639849D01*
X208942724Y-63639849D02*
X208942724Y-63830325D01*
X208942724Y-63830325D02*
X208990344Y-63925563D01*
X208990344Y-63925563D02*
X209037963Y-63973182D01*
X209037963Y-63973182D02*
X209133201Y-64020801D01*
X209133201Y-64020801D02*
X209418915Y-64020801D01*
X209418915Y-64020801D02*
X209514153Y-63973182D01*
X209514153Y-63973182D02*
X209561772Y-63925563D01*
X209561772Y-63925563D02*
X209609391Y-63830325D01*
X209609391Y-63830325D02*
X209609391Y-63639849D01*
X209609391Y-63639849D02*
X209561772Y-63544611D01*
X208990344Y-62687468D02*
X208942724Y-62782706D01*
X208942724Y-62782706D02*
X208942724Y-62973182D01*
X208942724Y-62973182D02*
X208990344Y-63068420D01*
X208990344Y-63068420D02*
X209085582Y-63116039D01*
X209085582Y-63116039D02*
X209466534Y-63116039D01*
X209466534Y-63116039D02*
X209561772Y-63068420D01*
X209561772Y-63068420D02*
X209609391Y-62973182D01*
X209609391Y-62973182D02*
X209609391Y-62782706D01*
X209609391Y-62782706D02*
X209561772Y-62687468D01*
X209561772Y-62687468D02*
X209466534Y-62639849D01*
X209466534Y-62639849D02*
X209371296Y-62639849D01*
X209371296Y-62639849D02*
X209276058Y-63116039D01*
X208942724Y-62211277D02*
X209609391Y-62211277D01*
X209418915Y-62211277D02*
X209514153Y-62163658D01*
X209514153Y-62163658D02*
X209561772Y-62116039D01*
X209561772Y-62116039D02*
X209609391Y-62020801D01*
X209609391Y-62020801D02*
X209609391Y-61925563D01*
X209228439Y-60877943D02*
X209228439Y-60401753D01*
X208942724Y-60973181D02*
X209942724Y-60639848D01*
X209942724Y-60639848D02*
X208942724Y-60306515D01*
X208942724Y-59973181D02*
X209609391Y-59973181D01*
X209514153Y-59973181D02*
X209561772Y-59925562D01*
X209561772Y-59925562D02*
X209609391Y-59830324D01*
X209609391Y-59830324D02*
X209609391Y-59687467D01*
X209609391Y-59687467D02*
X209561772Y-59592229D01*
X209561772Y-59592229D02*
X209466534Y-59544610D01*
X209466534Y-59544610D02*
X208942724Y-59544610D01*
X209466534Y-59544610D02*
X209561772Y-59496991D01*
X209561772Y-59496991D02*
X209609391Y-59401753D01*
X209609391Y-59401753D02*
X209609391Y-59258896D01*
X209609391Y-59258896D02*
X209561772Y-59163657D01*
X209561772Y-59163657D02*
X209466534Y-59116038D01*
X209466534Y-59116038D02*
X208942724Y-59116038D01*
X208942724Y-58639848D02*
X209942724Y-58639848D01*
X209561772Y-58639848D02*
X209609391Y-58544610D01*
X209609391Y-58544610D02*
X209609391Y-58354134D01*
X209609391Y-58354134D02*
X209561772Y-58258896D01*
X209561772Y-58258896D02*
X209514153Y-58211277D01*
X209514153Y-58211277D02*
X209418915Y-58163658D01*
X209418915Y-58163658D02*
X209133201Y-58163658D01*
X209133201Y-58163658D02*
X209037963Y-58211277D01*
X209037963Y-58211277D02*
X208990344Y-58258896D01*
X208990344Y-58258896D02*
X208942724Y-58354134D01*
X208942724Y-58354134D02*
X208942724Y-58544610D01*
X208942724Y-58544610D02*
X208990344Y-58639848D01*
X208942724Y-57735086D02*
X209609391Y-57735086D01*
X209418915Y-57735086D02*
X209514153Y-57687467D01*
X209514153Y-57687467D02*
X209561772Y-57639848D01*
X209561772Y-57639848D02*
X209609391Y-57544610D01*
X209609391Y-57544610D02*
X209609391Y-57449372D01*
X208942724Y-56973181D02*
X208990344Y-57068419D01*
X208990344Y-57068419D02*
X209037963Y-57116038D01*
X209037963Y-57116038D02*
X209133201Y-57163657D01*
X209133201Y-57163657D02*
X209418915Y-57163657D01*
X209418915Y-57163657D02*
X209514153Y-57116038D01*
X209514153Y-57116038D02*
X209561772Y-57068419D01*
X209561772Y-57068419D02*
X209609391Y-56973181D01*
X209609391Y-56973181D02*
X209609391Y-56830324D01*
X209609391Y-56830324D02*
X209561772Y-56735086D01*
X209561772Y-56735086D02*
X209514153Y-56687467D01*
X209514153Y-56687467D02*
X209418915Y-56639848D01*
X209418915Y-56639848D02*
X209133201Y-56639848D01*
X209133201Y-56639848D02*
X209037963Y-56687467D01*
X209037963Y-56687467D02*
X208990344Y-56735086D01*
X208990344Y-56735086D02*
X208942724Y-56830324D01*
X208942724Y-56830324D02*
X208942724Y-56973181D01*
X208990344Y-56258895D02*
X208942724Y-56163657D01*
X208942724Y-56163657D02*
X208942724Y-55973181D01*
X208942724Y-55973181D02*
X208990344Y-55877943D01*
X208990344Y-55877943D02*
X209085582Y-55830324D01*
X209085582Y-55830324D02*
X209133201Y-55830324D01*
X209133201Y-55830324D02*
X209228439Y-55877943D01*
X209228439Y-55877943D02*
X209276058Y-55973181D01*
X209276058Y-55973181D02*
X209276058Y-56116038D01*
X209276058Y-56116038D02*
X209323677Y-56211276D01*
X209323677Y-56211276D02*
X209418915Y-56258895D01*
X209418915Y-56258895D02*
X209466534Y-56258895D01*
X209466534Y-56258895D02*
X209561772Y-56211276D01*
X209561772Y-56211276D02*
X209609391Y-56116038D01*
X209609391Y-56116038D02*
X209609391Y-55973181D01*
X209609391Y-55973181D02*
X209561772Y-55877943D01*
X208990344Y-55020800D02*
X208942724Y-55116038D01*
X208942724Y-55116038D02*
X208942724Y-55306514D01*
X208942724Y-55306514D02*
X208990344Y-55401752D01*
X208990344Y-55401752D02*
X209085582Y-55449371D01*
X209085582Y-55449371D02*
X209466534Y-55449371D01*
X209466534Y-55449371D02*
X209561772Y-55401752D01*
X209561772Y-55401752D02*
X209609391Y-55306514D01*
X209609391Y-55306514D02*
X209609391Y-55116038D01*
X209609391Y-55116038D02*
X209561772Y-55020800D01*
X209561772Y-55020800D02*
X209466534Y-54973181D01*
X209466534Y-54973181D02*
X209371296Y-54973181D01*
X209371296Y-54973181D02*
X209276058Y-55449371D01*
X208332780Y-68544612D02*
X207618495Y-68544612D01*
X207618495Y-68544612D02*
X207475638Y-68592231D01*
X207475638Y-68592231D02*
X207380400Y-68687469D01*
X207380400Y-68687469D02*
X207332780Y-68830326D01*
X207332780Y-68830326D02*
X207332780Y-68925564D01*
X207332780Y-67639850D02*
X207856590Y-67639850D01*
X207856590Y-67639850D02*
X207951828Y-67687469D01*
X207951828Y-67687469D02*
X207999447Y-67782707D01*
X207999447Y-67782707D02*
X207999447Y-67973183D01*
X207999447Y-67973183D02*
X207951828Y-68068421D01*
X207380400Y-67639850D02*
X207332780Y-67735088D01*
X207332780Y-67735088D02*
X207332780Y-67973183D01*
X207332780Y-67973183D02*
X207380400Y-68068421D01*
X207380400Y-68068421D02*
X207475638Y-68116040D01*
X207475638Y-68116040D02*
X207570876Y-68116040D01*
X207570876Y-68116040D02*
X207666114Y-68068421D01*
X207666114Y-68068421D02*
X207713733Y-67973183D01*
X207713733Y-67973183D02*
X207713733Y-67735088D01*
X207713733Y-67735088D02*
X207761352Y-67639850D01*
X207380400Y-66735088D02*
X207332780Y-66830326D01*
X207332780Y-66830326D02*
X207332780Y-67020802D01*
X207332780Y-67020802D02*
X207380400Y-67116040D01*
X207380400Y-67116040D02*
X207428019Y-67163659D01*
X207428019Y-67163659D02*
X207523257Y-67211278D01*
X207523257Y-67211278D02*
X207808971Y-67211278D01*
X207808971Y-67211278D02*
X207904209Y-67163659D01*
X207904209Y-67163659D02*
X207951828Y-67116040D01*
X207951828Y-67116040D02*
X207999447Y-67020802D01*
X207999447Y-67020802D02*
X207999447Y-66830326D01*
X207999447Y-66830326D02*
X207951828Y-66735088D01*
X207332780Y-66163659D02*
X207380400Y-66258897D01*
X207380400Y-66258897D02*
X207428019Y-66306516D01*
X207428019Y-66306516D02*
X207523257Y-66354135D01*
X207523257Y-66354135D02*
X207808971Y-66354135D01*
X207808971Y-66354135D02*
X207904209Y-66306516D01*
X207904209Y-66306516D02*
X207951828Y-66258897D01*
X207951828Y-66258897D02*
X207999447Y-66163659D01*
X207999447Y-66163659D02*
X207999447Y-66020802D01*
X207999447Y-66020802D02*
X207951828Y-65925564D01*
X207951828Y-65925564D02*
X207904209Y-65877945D01*
X207904209Y-65877945D02*
X207808971Y-65830326D01*
X207808971Y-65830326D02*
X207523257Y-65830326D01*
X207523257Y-65830326D02*
X207428019Y-65877945D01*
X207428019Y-65877945D02*
X207380400Y-65925564D01*
X207380400Y-65925564D02*
X207332780Y-66020802D01*
X207332780Y-66020802D02*
X207332780Y-66163659D01*
X207332780Y-65401754D02*
X208332780Y-65401754D01*
X207951828Y-65401754D02*
X207999447Y-65306516D01*
X207999447Y-65306516D02*
X207999447Y-65116040D01*
X207999447Y-65116040D02*
X207951828Y-65020802D01*
X207951828Y-65020802D02*
X207904209Y-64973183D01*
X207904209Y-64973183D02*
X207808971Y-64925564D01*
X207808971Y-64925564D02*
X207523257Y-64925564D01*
X207523257Y-64925564D02*
X207428019Y-64973183D01*
X207428019Y-64973183D02*
X207380400Y-65020802D01*
X207380400Y-65020802D02*
X207332780Y-65116040D01*
X207332780Y-65116040D02*
X207332780Y-65306516D01*
X207332780Y-65306516D02*
X207380400Y-65401754D01*
X208332780Y-63877944D02*
X208332780Y-63306516D01*
X207332780Y-63592230D02*
X208332780Y-63592230D01*
X207332780Y-62830325D02*
X207380400Y-62925563D01*
X207380400Y-62925563D02*
X207428019Y-62973182D01*
X207428019Y-62973182D02*
X207523257Y-63020801D01*
X207523257Y-63020801D02*
X207808971Y-63020801D01*
X207808971Y-63020801D02*
X207904209Y-62973182D01*
X207904209Y-62973182D02*
X207951828Y-62925563D01*
X207951828Y-62925563D02*
X207999447Y-62830325D01*
X207999447Y-62830325D02*
X207999447Y-62687468D01*
X207999447Y-62687468D02*
X207951828Y-62592230D01*
X207951828Y-62592230D02*
X207904209Y-62544611D01*
X207904209Y-62544611D02*
X207808971Y-62496992D01*
X207808971Y-62496992D02*
X207523257Y-62496992D01*
X207523257Y-62496992D02*
X207428019Y-62544611D01*
X207428019Y-62544611D02*
X207380400Y-62592230D01*
X207380400Y-62592230D02*
X207332780Y-62687468D01*
X207332780Y-62687468D02*
X207332780Y-62830325D01*
X207332780Y-62068420D02*
X207999447Y-62068420D01*
X207904209Y-62068420D02*
X207951828Y-62020801D01*
X207951828Y-62020801D02*
X207999447Y-61925563D01*
X207999447Y-61925563D02*
X207999447Y-61782706D01*
X207999447Y-61782706D02*
X207951828Y-61687468D01*
X207951828Y-61687468D02*
X207856590Y-61639849D01*
X207856590Y-61639849D02*
X207332780Y-61639849D01*
X207856590Y-61639849D02*
X207951828Y-61592230D01*
X207951828Y-61592230D02*
X207999447Y-61496992D01*
X207999447Y-61496992D02*
X207999447Y-61354135D01*
X207999447Y-61354135D02*
X207951828Y-61258896D01*
X207951828Y-61258896D02*
X207856590Y-61211277D01*
X207856590Y-61211277D02*
X207332780Y-61211277D01*
X207380400Y-60306516D02*
X207332780Y-60401754D01*
X207332780Y-60401754D02*
X207332780Y-60592230D01*
X207332780Y-60592230D02*
X207380400Y-60687468D01*
X207380400Y-60687468D02*
X207428019Y-60735087D01*
X207428019Y-60735087D02*
X207523257Y-60782706D01*
X207523257Y-60782706D02*
X207808971Y-60782706D01*
X207808971Y-60782706D02*
X207904209Y-60735087D01*
X207904209Y-60735087D02*
X207951828Y-60687468D01*
X207951828Y-60687468D02*
X207999447Y-60592230D01*
X207999447Y-60592230D02*
X207999447Y-60401754D01*
X207999447Y-60401754D02*
X207951828Y-60306516D01*
X207999447Y-59973182D02*
X207999447Y-59449373D01*
X207999447Y-59449373D02*
X207332780Y-59973182D01*
X207332780Y-59973182D02*
X207332780Y-59449373D01*
X207380400Y-58687468D02*
X207332780Y-58782706D01*
X207332780Y-58782706D02*
X207332780Y-58973182D01*
X207332780Y-58973182D02*
X207380400Y-59068420D01*
X207380400Y-59068420D02*
X207475638Y-59116039D01*
X207475638Y-59116039D02*
X207856590Y-59116039D01*
X207856590Y-59116039D02*
X207951828Y-59068420D01*
X207951828Y-59068420D02*
X207999447Y-58973182D01*
X207999447Y-58973182D02*
X207999447Y-58782706D01*
X207999447Y-58782706D02*
X207951828Y-58687468D01*
X207951828Y-58687468D02*
X207856590Y-58639849D01*
X207856590Y-58639849D02*
X207761352Y-58639849D01*
X207761352Y-58639849D02*
X207666114Y-59116039D01*
X207380400Y-58258896D02*
X207332780Y-58163658D01*
X207332780Y-58163658D02*
X207332780Y-57973182D01*
X207332780Y-57973182D02*
X207380400Y-57877944D01*
X207380400Y-57877944D02*
X207475638Y-57830325D01*
X207475638Y-57830325D02*
X207523257Y-57830325D01*
X207523257Y-57830325D02*
X207618495Y-57877944D01*
X207618495Y-57877944D02*
X207666114Y-57973182D01*
X207666114Y-57973182D02*
X207666114Y-58116039D01*
X207666114Y-58116039D02*
X207713733Y-58211277D01*
X207713733Y-58211277D02*
X207808971Y-58258896D01*
X207808971Y-58258896D02*
X207856590Y-58258896D01*
X207856590Y-58258896D02*
X207951828Y-58211277D01*
X207951828Y-58211277D02*
X207999447Y-58116039D01*
X207999447Y-58116039D02*
X207999447Y-57973182D01*
X207999447Y-57973182D02*
X207951828Y-57877944D01*
X207999447Y-57496991D02*
X207999447Y-56973182D01*
X207999447Y-56973182D02*
X207332780Y-57496991D01*
X207332780Y-57496991D02*
X207332780Y-56973182D01*
X207999447Y-56687467D02*
X207332780Y-56449372D01*
X207999447Y-56211277D02*
X207332780Y-56449372D01*
X207332780Y-56449372D02*
X207094685Y-56544610D01*
X207094685Y-56544610D02*
X207047066Y-56592229D01*
X207047066Y-56592229D02*
X206999447Y-56687467D01*
X207999447Y-55830324D02*
X207332780Y-55830324D01*
X207904209Y-55830324D02*
X207951828Y-55782705D01*
X207951828Y-55782705D02*
X207999447Y-55687467D01*
X207999447Y-55687467D02*
X207999447Y-55544610D01*
X207999447Y-55544610D02*
X207951828Y-55449372D01*
X207951828Y-55449372D02*
X207856590Y-55401753D01*
X207856590Y-55401753D02*
X207332780Y-55401753D01*
D12*
X187008334Y-54604819D02*
X187008334Y-55319104D01*
X187008334Y-55319104D02*
X187055953Y-55461961D01*
X187055953Y-55461961D02*
X187151191Y-55557200D01*
X187151191Y-55557200D02*
X187294048Y-55604819D01*
X187294048Y-55604819D02*
X187389286Y-55604819D01*
X186532143Y-55604819D02*
X186532143Y-54604819D01*
X186532143Y-54604819D02*
X186151191Y-54604819D01*
X186151191Y-54604819D02*
X186055953Y-54652438D01*
X186055953Y-54652438D02*
X186008334Y-54700057D01*
X186008334Y-54700057D02*
X185960715Y-54795295D01*
X185960715Y-54795295D02*
X185960715Y-54938152D01*
X185960715Y-54938152D02*
X186008334Y-55033390D01*
X186008334Y-55033390D02*
X186055953Y-55081009D01*
X186055953Y-55081009D02*
X186151191Y-55128628D01*
X186151191Y-55128628D02*
X186532143Y-55128628D01*
X185103572Y-54604819D02*
X185294048Y-54604819D01*
X185294048Y-54604819D02*
X185389286Y-54652438D01*
X185389286Y-54652438D02*
X185436905Y-54700057D01*
X185436905Y-54700057D02*
X185532143Y-54842914D01*
X185532143Y-54842914D02*
X185579762Y-55033390D01*
X185579762Y-55033390D02*
X185579762Y-55414342D01*
X185579762Y-55414342D02*
X185532143Y-55509580D01*
X185532143Y-55509580D02*
X185484524Y-55557200D01*
X185484524Y-55557200D02*
X185389286Y-55604819D01*
X185389286Y-55604819D02*
X185198810Y-55604819D01*
X185198810Y-55604819D02*
X185103572Y-55557200D01*
X185103572Y-55557200D02*
X185055953Y-55509580D01*
X185055953Y-55509580D02*
X185008334Y-55414342D01*
X185008334Y-55414342D02*
X185008334Y-55176247D01*
X185008334Y-55176247D02*
X185055953Y-55081009D01*
X185055953Y-55081009D02*
X185103572Y-55033390D01*
X185103572Y-55033390D02*
X185198810Y-54985771D01*
X185198810Y-54985771D02*
X185389286Y-54985771D01*
X185389286Y-54985771D02*
X185484524Y-55033390D01*
X185484524Y-55033390D02*
X185532143Y-55081009D01*
X185532143Y-55081009D02*
X185579762Y-55176247D01*
X175108333Y-59329819D02*
X175108333Y-60044104D01*
X175108333Y-60044104D02*
X175155952Y-60186961D01*
X175155952Y-60186961D02*
X175251190Y-60282200D01*
X175251190Y-60282200D02*
X175394047Y-60329819D01*
X175394047Y-60329819D02*
X175489285Y-60329819D01*
X174632142Y-60329819D02*
X174632142Y-59329819D01*
X174632142Y-59329819D02*
X174251190Y-59329819D01*
X174251190Y-59329819D02*
X174155952Y-59377438D01*
X174155952Y-59377438D02*
X174108333Y-59425057D01*
X174108333Y-59425057D02*
X174060714Y-59520295D01*
X174060714Y-59520295D02*
X174060714Y-59663152D01*
X174060714Y-59663152D02*
X174108333Y-59758390D01*
X174108333Y-59758390D02*
X174155952Y-59806009D01*
X174155952Y-59806009D02*
X174251190Y-59853628D01*
X174251190Y-59853628D02*
X174632142Y-59853628D01*
X173203571Y-59663152D02*
X173203571Y-60329819D01*
X173441666Y-59282200D02*
X173679761Y-59996485D01*
X173679761Y-59996485D02*
X173060714Y-59996485D01*
X145004166Y-77104819D02*
X145337499Y-76628628D01*
X145575594Y-77104819D02*
X145575594Y-76104819D01*
X145575594Y-76104819D02*
X145194642Y-76104819D01*
X145194642Y-76104819D02*
X145099404Y-76152438D01*
X145099404Y-76152438D02*
X145051785Y-76200057D01*
X145051785Y-76200057D02*
X145004166Y-76295295D01*
X145004166Y-76295295D02*
X145004166Y-76438152D01*
X145004166Y-76438152D02*
X145051785Y-76533390D01*
X145051785Y-76533390D02*
X145099404Y-76581009D01*
X145099404Y-76581009D02*
X145194642Y-76628628D01*
X145194642Y-76628628D02*
X145575594Y-76628628D01*
X144527975Y-77104819D02*
X144337499Y-77104819D01*
X144337499Y-77104819D02*
X144242261Y-77057200D01*
X144242261Y-77057200D02*
X144194642Y-77009580D01*
X144194642Y-77009580D02*
X144099404Y-76866723D01*
X144099404Y-76866723D02*
X144051785Y-76676247D01*
X144051785Y-76676247D02*
X144051785Y-76295295D01*
X144051785Y-76295295D02*
X144099404Y-76200057D01*
X144099404Y-76200057D02*
X144147023Y-76152438D01*
X144147023Y-76152438D02*
X144242261Y-76104819D01*
X144242261Y-76104819D02*
X144432737Y-76104819D01*
X144432737Y-76104819D02*
X144527975Y-76152438D01*
X144527975Y-76152438D02*
X144575594Y-76200057D01*
X144575594Y-76200057D02*
X144623213Y-76295295D01*
X144623213Y-76295295D02*
X144623213Y-76533390D01*
X144623213Y-76533390D02*
X144575594Y-76628628D01*
X144575594Y-76628628D02*
X144527975Y-76676247D01*
X144527975Y-76676247D02*
X144432737Y-76723866D01*
X144432737Y-76723866D02*
X144242261Y-76723866D01*
X144242261Y-76723866D02*
X144147023Y-76676247D01*
X144147023Y-76676247D02*
X144099404Y-76628628D01*
X144099404Y-76628628D02*
X144051785Y-76533390D01*
X145004166Y-74104819D02*
X145337499Y-73628628D01*
X145575594Y-74104819D02*
X145575594Y-73104819D01*
X145575594Y-73104819D02*
X145194642Y-73104819D01*
X145194642Y-73104819D02*
X145099404Y-73152438D01*
X145099404Y-73152438D02*
X145051785Y-73200057D01*
X145051785Y-73200057D02*
X145004166Y-73295295D01*
X145004166Y-73295295D02*
X145004166Y-73438152D01*
X145004166Y-73438152D02*
X145051785Y-73533390D01*
X145051785Y-73533390D02*
X145099404Y-73581009D01*
X145099404Y-73581009D02*
X145194642Y-73628628D01*
X145194642Y-73628628D02*
X145575594Y-73628628D01*
X144670832Y-73104819D02*
X144004166Y-73104819D01*
X144004166Y-73104819D02*
X144432737Y-74104819D01*
X145004166Y-71104819D02*
X145337499Y-70628628D01*
X145575594Y-71104819D02*
X145575594Y-70104819D01*
X145575594Y-70104819D02*
X145194642Y-70104819D01*
X145194642Y-70104819D02*
X145099404Y-70152438D01*
X145099404Y-70152438D02*
X145051785Y-70200057D01*
X145051785Y-70200057D02*
X145004166Y-70295295D01*
X145004166Y-70295295D02*
X145004166Y-70438152D01*
X145004166Y-70438152D02*
X145051785Y-70533390D01*
X145051785Y-70533390D02*
X145099404Y-70581009D01*
X145099404Y-70581009D02*
X145194642Y-70628628D01*
X145194642Y-70628628D02*
X145575594Y-70628628D01*
X144099404Y-70104819D02*
X144575594Y-70104819D01*
X144575594Y-70104819D02*
X144623213Y-70581009D01*
X144623213Y-70581009D02*
X144575594Y-70533390D01*
X144575594Y-70533390D02*
X144480356Y-70485771D01*
X144480356Y-70485771D02*
X144242261Y-70485771D01*
X144242261Y-70485771D02*
X144147023Y-70533390D01*
X144147023Y-70533390D02*
X144099404Y-70581009D01*
X144099404Y-70581009D02*
X144051785Y-70676247D01*
X144051785Y-70676247D02*
X144051785Y-70914342D01*
X144051785Y-70914342D02*
X144099404Y-71009580D01*
X144099404Y-71009580D02*
X144147023Y-71057200D01*
X144147023Y-71057200D02*
X144242261Y-71104819D01*
X144242261Y-71104819D02*
X144480356Y-71104819D01*
X144480356Y-71104819D02*
X144575594Y-71057200D01*
X144575594Y-71057200D02*
X144623213Y-71009580D01*
X145004166Y-68104819D02*
X145337499Y-67628628D01*
X145575594Y-68104819D02*
X145575594Y-67104819D01*
X145575594Y-67104819D02*
X145194642Y-67104819D01*
X145194642Y-67104819D02*
X145099404Y-67152438D01*
X145099404Y-67152438D02*
X145051785Y-67200057D01*
X145051785Y-67200057D02*
X145004166Y-67295295D01*
X145004166Y-67295295D02*
X145004166Y-67438152D01*
X145004166Y-67438152D02*
X145051785Y-67533390D01*
X145051785Y-67533390D02*
X145099404Y-67581009D01*
X145099404Y-67581009D02*
X145194642Y-67628628D01*
X145194642Y-67628628D02*
X145575594Y-67628628D01*
X144670832Y-67104819D02*
X144051785Y-67104819D01*
X144051785Y-67104819D02*
X144385118Y-67485771D01*
X144385118Y-67485771D02*
X144242261Y-67485771D01*
X144242261Y-67485771D02*
X144147023Y-67533390D01*
X144147023Y-67533390D02*
X144099404Y-67581009D01*
X144099404Y-67581009D02*
X144051785Y-67676247D01*
X144051785Y-67676247D02*
X144051785Y-67914342D01*
X144051785Y-67914342D02*
X144099404Y-68009580D01*
X144099404Y-68009580D02*
X144147023Y-68057200D01*
X144147023Y-68057200D02*
X144242261Y-68104819D01*
X144242261Y-68104819D02*
X144527975Y-68104819D01*
X144527975Y-68104819D02*
X144623213Y-68057200D01*
X144623213Y-68057200D02*
X144670832Y-68009580D01*
D13*
X184775001Y-53650001D02*
X184775001Y-53049999D01*
X186875001Y-54350000D02*
X185475001Y-54350000D01*
X185475001Y-52350000D02*
X186875001Y-52350000D01*
X187575001Y-53049999D02*
X187575001Y-53650001D01*
X185475001Y-54350000D02*
G75*
G02*
X184775001Y-53650001I-1J699999D01*
G01*
X184775001Y-53049999D02*
G75*
G02*
X185475001Y-52350000I699999J0D01*
G01*
X187575001Y-53650001D02*
G75*
G02*
X186875001Y-54350000I-700000J1D01*
G01*
X186875001Y-52350000D02*
G75*
G02*
X187575001Y-53049999I0J-700000D01*
G01*
X145064564Y-74265000D02*
X144610436Y-74265000D01*
X145064564Y-75735000D02*
X144610436Y-75735000D01*
X145064564Y-72735000D02*
X144610436Y-72735000D01*
X145064564Y-71265000D02*
X144610436Y-71265000D01*
X145064564Y-68265000D02*
X144610436Y-68265000D01*
X145064564Y-69735000D02*
X144610436Y-69735000D01*
X145064564Y-66735000D02*
X144610436Y-66735000D01*
X145064564Y-65265000D02*
X144610436Y-65265000D01*
D14*
X176440000Y-56380000D02*
X176440000Y-71620000D01*
X178980000Y-74160000D02*
X194220000Y-74160000D01*
X194220000Y-53840000D02*
X178980000Y-53840000D01*
X196760000Y-71620000D02*
X196760000Y-56380000D01*
X176440000Y-56380000D02*
G75*
G02*
X178980000Y-53840000I2539999J1D01*
G01*
X178980000Y-74160000D02*
G75*
G02*
X176440000Y-71620000I1J2540001D01*
G01*
X194220000Y-53840000D02*
G75*
G02*
X196759998Y-56380000I-1J-2539999D01*
G01*
X196760000Y-71620000D02*
G75*
G02*
X194220000Y-74160000I-2540001J1D01*
G01*
%LPC*%
D15*
X185525002Y-53350000D03*
D16*
X186825000Y-53350000D03*
D17*
X166661600Y-76080000D03*
D18*
X169201600Y-76080000D03*
D17*
X166661600Y-73540000D03*
D18*
X169201600Y-73540000D03*
D17*
X166661599Y-71000000D03*
D18*
X169201601Y-71000000D03*
D17*
X166661600Y-68460000D03*
D18*
X169201600Y-68460000D03*
D17*
X166661600Y-65920000D03*
D18*
X169201600Y-65920000D03*
D19*
X141261600Y-63380000D03*
X143801600Y-63380000D03*
X146341600Y-63380000D03*
X148881600Y-63380000D03*
X151421600Y-63380000D03*
X153961600Y-63380000D03*
X156501600Y-63380000D03*
X159041600Y-63380000D03*
X161581600Y-63380000D03*
X164121600Y-63380000D03*
X166661600Y-63380000D03*
X169201600Y-63380000D03*
X171741600Y-63380000D03*
X174281600Y-63380000D03*
D20*
X174281601Y-65920000D03*
X174281600Y-68460000D03*
X174281600Y-71000000D03*
X174281600Y-73540000D03*
X174281601Y-76080000D03*
X174281600Y-78620000D03*
X171741600Y-78620000D03*
X169201600Y-78620000D03*
D19*
X166661600Y-78620000D03*
D20*
X164121600Y-78620000D03*
X161581600Y-78620000D03*
X159041600Y-78620000D03*
X156501600Y-78620000D03*
D19*
X153961600Y-78620000D03*
X151421600Y-78620000D03*
X148881600Y-78620000D03*
X146341600Y-78620000D03*
X143801600Y-78620000D03*
X141261600Y-78620000D03*
D21*
X171175000Y-59774993D03*
D22*
X172325000Y-59774996D03*
D23*
X145750000Y-75000000D03*
X143925000Y-75000000D03*
X143925000Y-72000000D03*
X145750000Y-72000000D03*
X145750000Y-69000000D03*
X143925000Y-69000000D03*
X143925000Y-66000000D03*
X145750000Y-66000000D03*
D24*
X202967500Y-61500000D03*
D25*
X202967500Y-64000000D03*
X202967500Y-66500000D03*
D26*
X178750000Y-77000000D03*
D27*
X161149999Y-57400000D03*
X159900000Y-57400000D03*
D28*
X158649999Y-57400000D03*
D27*
X157400000Y-57400000D03*
D19*
X198420000Y-72710000D03*
X198420000Y-77790000D03*
X203500000Y-72710000D03*
X203500000Y-77790000D03*
D28*
X152900000Y-57400000D03*
D27*
X151650000Y-57400000D03*
X169149999Y-57400000D03*
X167900000Y-57400000D03*
D28*
X166649999Y-57400000D03*
D27*
X165400000Y-57400000D03*
D26*
X174000000Y-56000000D03*
X146000000Y-56000000D03*
D29*
X203900000Y-56500000D03*
D30*
X203900000Y-55250001D03*
D29*
X203900000Y-54000000D03*
D31*
X182000000Y-75500000D03*
X189000000Y-75500000D03*
X183000000Y-78000000D03*
X188000000Y-78000000D03*
D26*
X194220000Y-71620000D03*
X194220000Y-56380000D03*
D32*
X178980000Y-56380000D03*
X178980000Y-58920000D03*
X178980000Y-61460000D03*
X178980000Y-64000000D03*
X178980000Y-66540000D03*
X178980000Y-69080000D03*
X178980000Y-71620000D03*
%LPD*%
M02*
