G04 #@! TF.GenerationSoftware,KiCad,Pcbnew,8.0.5-8.0.5-0~ubuntu20.04.1*
G04 #@! TF.CreationDate,2025-03-19T18:53:30-05:00*
G04 #@! TF.ProjectId,Alex_Teensy4_PCB,416c6578-5f54-4656-956e-7379345f5043,rev?*
G04 #@! TF.SameCoordinates,Original*
G04 #@! TF.FileFunction,Legend,Bot*
G04 #@! TF.FilePolarity,Positive*
%FSLAX46Y46*%
G04 Gerber Fmt 4.6, Leading zero omitted, Abs format (unit mm)*
G04 Created by KiCad (PCBNEW 8.0.5-8.0.5-0~ubuntu20.04.1) date 2025-03-19 18:53:30*
%MOMM*%
%LPD*%
G01*
G04 APERTURE LIST*
G04 Aperture macros list*
%AMRoundRect*
0 Rectangle with rounded corners*
0 $1 Rounding radius*
0 $2 $3 $4 $5 $6 $7 $8 $9 X,Y pos of 4 corners*
0 Add a 4 corners polygon primitive as box body*
4,1,4,$2,$3,$4,$5,$6,$7,$8,$9,$2,$3,0*
0 Add four circle primitives for the rounded corners*
1,1,$1+$1,$2,$3*
1,1,$1+$1,$4,$5*
1,1,$1+$1,$6,$7*
1,1,$1+$1,$8,$9*
0 Add four rect primitives between the rounded corners*
20,1,$1+$1,$2,$3,$4,$5,0*
20,1,$1+$1,$4,$5,$6,$7,0*
20,1,$1+$1,$6,$7,$8,$9,0*
20,1,$1+$1,$8,$9,$2,$3,0*%
%AMFreePoly0*
4,1,32,0.231202,0.609631,0.329576,0.558000,2.032000,0.558000,2.067355,0.543355,2.082000,0.508000,2.082000,-0.508000,2.067355,-0.543355,2.032000,-0.558000,0.329576,-0.558000,0.231202,-0.609631,0.078590,-0.647246,-0.078590,-0.647246,-0.231202,-0.609631,-0.329576,-0.558000,-0.508000,-0.558000,-0.543355,-0.543355,-0.558000,-0.508000,-0.558000,-0.330985,-0.577317,-0.303000,-0.633054,-0.156034,
-0.652000,0.000000,-0.633054,0.156034,-0.577317,0.303000,-0.558000,0.330985,-0.558000,0.508000,-0.543355,0.543355,-0.508000,0.558000,-0.329576,0.558000,-0.231202,0.609631,-0.078590,0.647246,0.078590,0.647246,0.231202,0.609631,0.231202,0.609631,$1*%
%AMFreePoly1*
4,1,32,0.231202,0.609631,0.329576,0.558000,0.508000,0.558000,0.543355,0.543355,0.558000,0.508000,0.558000,0.330985,0.577317,0.303000,0.633054,0.156034,0.652000,0.000000,0.633054,-0.156034,0.577317,-0.303000,0.558000,-0.330985,0.558000,-0.508000,0.543355,-0.543355,0.508000,-0.558000,0.329576,-0.558000,0.231202,-0.609631,0.078590,-0.647246,-0.078590,-0.647246,-0.231202,-0.609631,
-0.329576,-0.558000,-2.032000,-0.558000,-2.067355,-0.543355,-2.082000,-0.508000,-2.082000,0.508000,-2.067355,0.543355,-2.032000,0.558000,-0.329576,0.558000,-0.231202,0.609631,-0.078590,0.647246,0.078590,0.647246,0.231202,0.609631,0.231202,0.609631,$1*%
G04 Aperture macros list end*
%ADD10C,0.000000*%
%ADD11C,0.200000*%
%ADD12C,0.050000*%
%ADD13C,1.700000*%
%ADD14C,1.404000*%
%ADD15FreePoly0,0.000000*%
%ADD16FreePoly1,0.000000*%
%ADD17C,3.301600*%
%ADD18O,0.800000X1.300000*%
%ADD19RoundRect,0.200000X0.200000X0.450000X-0.200000X0.450000X-0.200000X-0.450000X0.200000X-0.450000X0*%
%ADD20RoundRect,0.250000X-0.725000X0.600000X-0.725000X-0.600000X0.725000X-0.600000X0.725000X0.600000X0*%
%ADD21O,1.950000X1.700000*%
%ADD22O,1.300000X0.800000*%
%ADD23RoundRect,0.200000X0.450000X-0.200000X0.450000X0.200000X-0.450000X0.200000X-0.450000X-0.200000X0*%
%ADD24C,2.000000*%
%ADD25C,1.879600*%
G04 APERTURE END LIST*
D10*
G36*
X206689202Y-56845282D02*
G01*
X206699776Y-56846084D01*
X206710198Y-56847403D01*
X206720458Y-56849229D01*
X206730540Y-56851547D01*
X206740432Y-56854346D01*
X206750120Y-56857612D01*
X206759591Y-56861333D01*
X206768832Y-56865495D01*
X206777829Y-56870087D01*
X206786569Y-56875095D01*
X206795039Y-56880505D01*
X206803225Y-56886307D01*
X206811114Y-56892486D01*
X206818694Y-56899030D01*
X206825950Y-56905926D01*
X206832869Y-56913163D01*
X206839438Y-56920725D01*
X206845645Y-56928602D01*
X206851473Y-56936779D01*
X206856914Y-56945244D01*
X206861950Y-56953986D01*
X206866570Y-56962989D01*
X206870760Y-56972242D01*
X206874507Y-56981734D01*
X206877797Y-56991448D01*
X206880617Y-57001375D01*
X206882954Y-57011500D01*
X206884797Y-57021811D01*
X206886128Y-57032294D01*
X206886937Y-57042939D01*
X206887210Y-57053729D01*
X206887210Y-57954804D01*
X206887036Y-57963381D01*
X206886517Y-57971873D01*
X206885663Y-57980269D01*
X206884480Y-57988565D01*
X206882973Y-57996753D01*
X206881148Y-58004826D01*
X206879015Y-58012778D01*
X206876578Y-58020603D01*
X206873845Y-58028292D01*
X206870823Y-58035840D01*
X206867516Y-58043240D01*
X206863935Y-58050485D01*
X206860085Y-58057568D01*
X206855970Y-58064484D01*
X206851602Y-58071223D01*
X206846983Y-58077782D01*
X206842122Y-58084151D01*
X206837025Y-58090325D01*
X206831699Y-58096298D01*
X206826152Y-58102061D01*
X206820387Y-58107609D01*
X206814415Y-58112935D01*
X206808242Y-58118032D01*
X206801872Y-58122893D01*
X206795314Y-58127511D01*
X206788574Y-58131881D01*
X206781659Y-58135994D01*
X206774575Y-58139845D01*
X206767330Y-58143426D01*
X206759930Y-58146732D01*
X206752381Y-58149755D01*
X206744693Y-58152488D01*
X206740868Y-58153826D01*
X206736983Y-58155077D01*
X206733041Y-58156241D01*
X206729048Y-58157319D01*
X206725005Y-58158311D01*
X206720918Y-58159216D01*
X206712626Y-58160767D01*
X206704206Y-58161972D01*
X206695688Y-58162833D01*
X206687106Y-58163350D01*
X206678492Y-58163522D01*
X206472532Y-58163522D01*
X206468233Y-58163479D01*
X206463955Y-58163350D01*
X206459699Y-58163133D01*
X206455464Y-58162833D01*
X206451251Y-58162445D01*
X206447060Y-58161972D01*
X206442890Y-58161413D01*
X206438742Y-58160767D01*
X206434615Y-58160033D01*
X206430509Y-58159216D01*
X206426426Y-58158310D01*
X206422364Y-58157319D01*
X206418322Y-58156241D01*
X206414304Y-58155077D01*
X206410307Y-58153826D01*
X206406331Y-58152488D01*
X206391093Y-58146732D01*
X206376447Y-58139845D01*
X206362450Y-58131881D01*
X206349152Y-58122893D01*
X206336608Y-58112935D01*
X206324872Y-58102061D01*
X206313998Y-58090325D01*
X206304041Y-58077782D01*
X206295052Y-58064483D01*
X206287087Y-58050485D01*
X206280201Y-58035840D01*
X206274444Y-58020603D01*
X206269874Y-58004826D01*
X206266543Y-57988565D01*
X206264505Y-57971873D01*
X206263988Y-57963382D01*
X206263814Y-57954803D01*
X206263814Y-57427042D01*
X205917177Y-58161682D01*
X205840861Y-58322588D01*
X205764546Y-58483494D01*
X207680705Y-58483494D01*
X207685488Y-58472354D01*
X207690525Y-58461345D01*
X207695808Y-58450471D01*
X207701336Y-58439735D01*
X207707099Y-58429138D01*
X207713095Y-58418685D01*
X207719315Y-58408377D01*
X207725759Y-58398218D01*
X207732417Y-58388208D01*
X207739285Y-58378353D01*
X207746358Y-58368653D01*
X207753630Y-58359112D01*
X207761096Y-58349733D01*
X207768751Y-58340517D01*
X207776588Y-58331468D01*
X207784605Y-58322587D01*
X207798470Y-58308348D01*
X207812817Y-58294594D01*
X207827633Y-58281343D01*
X207842904Y-58268604D01*
X207858617Y-58256394D01*
X207874758Y-58244725D01*
X207891313Y-58233611D01*
X207908270Y-58223066D01*
X207925614Y-58213102D01*
X207943332Y-58203733D01*
X207961413Y-58194974D01*
X207979839Y-58186836D01*
X207998600Y-58179335D01*
X208017680Y-58172483D01*
X208037068Y-58166293D01*
X208056747Y-58160780D01*
X208073038Y-58156901D01*
X208089490Y-58153539D01*
X208106091Y-58150695D01*
X208122834Y-58148367D01*
X208139706Y-58146557D01*
X208156696Y-58145264D01*
X208173795Y-58144488D01*
X208190989Y-58144230D01*
X208208449Y-58144488D01*
X208225670Y-58145264D01*
X208242677Y-58146557D01*
X208259490Y-58148367D01*
X208276129Y-58150695D01*
X208292619Y-58153539D01*
X208308979Y-58156902D01*
X208325231Y-58160779D01*
X208345441Y-58166297D01*
X208365370Y-58172502D01*
X208385000Y-58179398D01*
X208404305Y-58186981D01*
X208423265Y-58195256D01*
X208441859Y-58204220D01*
X208451012Y-58208962D01*
X208460065Y-58213876D01*
X208469015Y-58218963D01*
X208477862Y-58224223D01*
X208507382Y-58243400D01*
X208535556Y-58264332D01*
X208562303Y-58286942D01*
X208587551Y-58311154D01*
X208611219Y-58336890D01*
X208633231Y-58364074D01*
X208653512Y-58392629D01*
X208671983Y-58422479D01*
X208688568Y-58453546D01*
X208703193Y-58485754D01*
X208715777Y-58519026D01*
X208726245Y-58553286D01*
X208734522Y-58588457D01*
X208740528Y-58624461D01*
X208744187Y-58661223D01*
X208745425Y-58698666D01*
X208745112Y-58717467D01*
X208744177Y-58736108D01*
X208742634Y-58754579D01*
X208740490Y-58772870D01*
X208737756Y-58790972D01*
X208734443Y-58808875D01*
X208730559Y-58826569D01*
X208726117Y-58844045D01*
X208721124Y-58861294D01*
X208715592Y-58878305D01*
X208709531Y-58895069D01*
X208702950Y-58911577D01*
X208695861Y-58927819D01*
X208688272Y-58943785D01*
X208680195Y-58959466D01*
X208671638Y-58974852D01*
X208662613Y-58989934D01*
X208653130Y-59004702D01*
X208643198Y-59019146D01*
X208632827Y-59033257D01*
X208622028Y-59047025D01*
X208610811Y-59060441D01*
X208587163Y-59086177D01*
X208561962Y-59110389D01*
X208535291Y-59132999D01*
X208507232Y-59153931D01*
X208492705Y-59163744D01*
X208477862Y-59173108D01*
X208460065Y-59183452D01*
X208441858Y-59193106D01*
X208423265Y-59202071D01*
X208404305Y-59210346D01*
X208385000Y-59217932D01*
X208365370Y-59224828D01*
X208345441Y-59231034D01*
X208325231Y-59236550D01*
X208308941Y-59240430D01*
X208292490Y-59243792D01*
X208275887Y-59246636D01*
X208259145Y-59248964D01*
X208242272Y-59250774D01*
X208225283Y-59252067D01*
X208208185Y-59252842D01*
X208190989Y-59253101D01*
X208173531Y-59252842D01*
X208156309Y-59252067D01*
X208139302Y-59250774D01*
X208122490Y-59248964D01*
X208105849Y-59246636D01*
X208089359Y-59243792D01*
X208073000Y-59240430D01*
X208056747Y-59236551D01*
X208037054Y-59231198D01*
X208017637Y-59225149D01*
X207998512Y-59218419D01*
X207979700Y-59211020D01*
X207961216Y-59202972D01*
X207943077Y-59194286D01*
X207925303Y-59184978D01*
X207907909Y-59175062D01*
X207890916Y-59164553D01*
X207874337Y-59153467D01*
X207858192Y-59141818D01*
X207842499Y-59129620D01*
X207827274Y-59116889D01*
X207812536Y-59103640D01*
X207798301Y-59089887D01*
X207784586Y-59075645D01*
X207776582Y-59066766D01*
X207768770Y-59057719D01*
X207761158Y-59048504D01*
X207753742Y-59039125D01*
X207746525Y-59029584D01*
X207739510Y-59019885D01*
X207732697Y-59010029D01*
X207726087Y-59000019D01*
X207719681Y-58989859D01*
X207713482Y-58979550D01*
X207707490Y-58969097D01*
X207701706Y-58958500D01*
X207696133Y-58947763D01*
X207690772Y-58936889D01*
X207685623Y-58925880D01*
X207680687Y-58914739D01*
X205763609Y-58914739D01*
X205839924Y-59075645D01*
X205916240Y-59236550D01*
X206261038Y-59972120D01*
X206263795Y-59446188D01*
X206263970Y-59437610D01*
X206264488Y-59429119D01*
X206265341Y-59420722D01*
X206266526Y-59412427D01*
X206268033Y-59404239D01*
X206269857Y-59396166D01*
X206271991Y-59388214D01*
X206274427Y-59380389D01*
X206277160Y-59372700D01*
X206280183Y-59365152D01*
X206283489Y-59357752D01*
X206287070Y-59350507D01*
X206290921Y-59343423D01*
X206295035Y-59336508D01*
X206299404Y-59329768D01*
X206304023Y-59323211D01*
X206308883Y-59316841D01*
X206313981Y-59310666D01*
X206319305Y-59304694D01*
X206324853Y-59298931D01*
X206330618Y-59293383D01*
X206336590Y-59288057D01*
X206342764Y-59282959D01*
X206349134Y-59278099D01*
X206355692Y-59273481D01*
X206362432Y-59269111D01*
X206369347Y-59264997D01*
X206376430Y-59261146D01*
X206383675Y-59257565D01*
X206391075Y-59254259D01*
X206398622Y-59251237D01*
X206406313Y-59248503D01*
X206410299Y-59247168D01*
X206414326Y-59245918D01*
X206418389Y-59244754D01*
X206422490Y-59243677D01*
X206430783Y-59241780D01*
X206439183Y-59240229D01*
X206447671Y-59239022D01*
X206456222Y-59238160D01*
X206464817Y-59237643D01*
X206473433Y-59237470D01*
X206679392Y-59237470D01*
X206683854Y-59237514D01*
X206688272Y-59237643D01*
X206692652Y-59237858D01*
X206696992Y-59238160D01*
X206701294Y-59238547D01*
X206705560Y-59239022D01*
X206709791Y-59239582D01*
X206713988Y-59240229D01*
X206718153Y-59240961D01*
X206722286Y-59241779D01*
X206726390Y-59242685D01*
X206730466Y-59243677D01*
X206734515Y-59244754D01*
X206738538Y-59245918D01*
X206742538Y-59247168D01*
X206746514Y-59248504D01*
X206761751Y-59254259D01*
X206776396Y-59261146D01*
X206790395Y-59269111D01*
X206803693Y-59278099D01*
X206816237Y-59288058D01*
X206827972Y-59298931D01*
X206838846Y-59310667D01*
X206848804Y-59323210D01*
X206857791Y-59336508D01*
X206865756Y-59350507D01*
X206872643Y-59365152D01*
X206878398Y-59380389D01*
X206882969Y-59396166D01*
X206886300Y-59412427D01*
X206888338Y-59429119D01*
X206888856Y-59437610D01*
X206889030Y-59446189D01*
X206886271Y-60346342D01*
X206886002Y-60357052D01*
X206885201Y-60367626D01*
X206883881Y-60378049D01*
X206882055Y-60388308D01*
X206879737Y-60398390D01*
X206876938Y-60408282D01*
X206873671Y-60417970D01*
X206869951Y-60427441D01*
X206865789Y-60436682D01*
X206861197Y-60445679D01*
X206856190Y-60454419D01*
X206850779Y-60462889D01*
X206844978Y-60471075D01*
X206838798Y-60478965D01*
X206832253Y-60486545D01*
X206825358Y-60493801D01*
X206818122Y-60500720D01*
X206810559Y-60507289D01*
X206802683Y-60513495D01*
X206794505Y-60519325D01*
X206786040Y-60524764D01*
X206777298Y-60529800D01*
X206768295Y-60534419D01*
X206759040Y-60538610D01*
X206749551Y-60542357D01*
X206739835Y-60545647D01*
X206729910Y-60548468D01*
X206719785Y-60550806D01*
X206709473Y-60552647D01*
X206698989Y-60553979D01*
X206688345Y-60554787D01*
X206677553Y-60555060D01*
X205986119Y-60555060D01*
X205978469Y-60554920D01*
X205970871Y-60554506D01*
X205963327Y-60553816D01*
X205955843Y-60552858D01*
X205948428Y-60551635D01*
X205941085Y-60550151D01*
X205933822Y-60548408D01*
X205926645Y-60546411D01*
X205919559Y-60544163D01*
X205912570Y-60541670D01*
X205905686Y-60538933D01*
X205898911Y-60535956D01*
X205892250Y-60532744D01*
X205885714Y-60529299D01*
X205879305Y-60525627D01*
X205873029Y-60521729D01*
X205866894Y-60517611D01*
X205860905Y-60513276D01*
X205855068Y-60508727D01*
X205849388Y-60503969D01*
X205843875Y-60499004D01*
X205838531Y-60493836D01*
X205833363Y-60488472D01*
X205828377Y-60482911D01*
X205823582Y-60477159D01*
X205818981Y-60471220D01*
X205814580Y-60465095D01*
X205810386Y-60458793D01*
X205806403Y-60452313D01*
X205802642Y-60445661D01*
X205799105Y-60438838D01*
X205795799Y-60431852D01*
X205338826Y-59413088D01*
X204963686Y-60041080D01*
X204956266Y-60052683D01*
X204948172Y-60063684D01*
X204939440Y-60074061D01*
X204930107Y-60083796D01*
X204920208Y-60092868D01*
X204909779Y-60101257D01*
X204898859Y-60108943D01*
X204887482Y-60115905D01*
X204875684Y-60122124D01*
X204863503Y-60127579D01*
X204850973Y-60132250D01*
X204838135Y-60136116D01*
X204825020Y-60139160D01*
X204811666Y-60141358D01*
X204798112Y-60142691D01*
X204784390Y-60143140D01*
X204688767Y-60143140D01*
X204681201Y-60143004D01*
X204673679Y-60142596D01*
X204666207Y-60141921D01*
X204658792Y-60140982D01*
X204651438Y-60139782D01*
X204644155Y-60138328D01*
X204636946Y-60136621D01*
X204629819Y-60134664D01*
X204622779Y-60132463D01*
X204615833Y-60130020D01*
X204608987Y-60127339D01*
X204602246Y-60124424D01*
X204595618Y-60121279D01*
X204589110Y-60117907D01*
X204582725Y-60114313D01*
X204576474Y-60110500D01*
X204570357Y-60106471D01*
X204564387Y-60102229D01*
X204558565Y-60097780D01*
X204552898Y-60093127D01*
X204547396Y-60088273D01*
X204542061Y-60083222D01*
X204536901Y-60077976D01*
X204531923Y-60072543D01*
X204527131Y-60066923D01*
X204522533Y-60061121D01*
X204518135Y-60055140D01*
X204513942Y-60048986D01*
X204509962Y-60042659D01*
X204506200Y-60036166D01*
X204502663Y-60029508D01*
X204499357Y-60022691D01*
X204190409Y-59365276D01*
X203951348Y-59794663D01*
X203944071Y-59806773D01*
X203936059Y-59818257D01*
X203927351Y-59829094D01*
X203917989Y-59839262D01*
X203908013Y-59848741D01*
X203897463Y-59857508D01*
X203886379Y-59865542D01*
X203874803Y-59872822D01*
X203862773Y-59879326D01*
X203850333Y-59885033D01*
X203837521Y-59889920D01*
X203824377Y-59893968D01*
X203810942Y-59897153D01*
X203797256Y-59899455D01*
X203783360Y-59900852D01*
X203769295Y-59901322D01*
X203669073Y-59901322D01*
X203661513Y-59901188D01*
X203654007Y-59900788D01*
X203646559Y-59900127D01*
X203639176Y-59899207D01*
X203631865Y-59898032D01*
X203624628Y-59896607D01*
X203617472Y-59894934D01*
X203610402Y-59893018D01*
X203603423Y-59890863D01*
X203596541Y-59888471D01*
X203589762Y-59885847D01*
X203583092Y-59882994D01*
X203576534Y-59879916D01*
X203570094Y-59876617D01*
X203563779Y-59873101D01*
X203557592Y-59869371D01*
X203551540Y-59865430D01*
X203545629Y-59861284D01*
X203539862Y-59856934D01*
X203534247Y-59852386D01*
X203528788Y-59847641D01*
X203523490Y-59842707D01*
X203518359Y-59837584D01*
X203513401Y-59832276D01*
X203508620Y-59826788D01*
X203504023Y-59821124D01*
X203499614Y-59815286D01*
X203495397Y-59809279D01*
X203491382Y-59803106D01*
X203487570Y-59796772D01*
X203483970Y-59790279D01*
X203480584Y-59783630D01*
X203260842Y-59330335D01*
X202975808Y-59741336D01*
X202968118Y-59751741D01*
X202959897Y-59761572D01*
X202951169Y-59770817D01*
X202941960Y-59779461D01*
X202932300Y-59787491D01*
X202922213Y-59794894D01*
X202911729Y-59801656D01*
X202900872Y-59807763D01*
X202889671Y-59813202D01*
X202878150Y-59817961D01*
X202866340Y-59822024D01*
X202854267Y-59825379D01*
X202841955Y-59828012D01*
X202829434Y-59829908D01*
X202816728Y-59831057D01*
X202803867Y-59831443D01*
X202670545Y-59831443D01*
X202662641Y-59831293D01*
X202654791Y-59830846D01*
X202647002Y-59830106D01*
X202639283Y-59829078D01*
X202631636Y-59827766D01*
X202624073Y-59826175D01*
X202616597Y-59824310D01*
X202609214Y-59822175D01*
X202601934Y-59819775D01*
X202594760Y-59817114D01*
X202587701Y-59814196D01*
X202580764Y-59811027D01*
X202573952Y-59807611D01*
X202567275Y-59803952D01*
X202560739Y-59800054D01*
X202554349Y-59795924D01*
X202548113Y-59791565D01*
X202542036Y-59786981D01*
X202536128Y-59782177D01*
X202530390Y-59777158D01*
X202524835Y-59771929D01*
X202519465Y-59766492D01*
X202514287Y-59760854D01*
X202509309Y-59755019D01*
X202504539Y-59748992D01*
X202499980Y-59742776D01*
X202495640Y-59736377D01*
X202491526Y-59729801D01*
X202487644Y-59723047D01*
X202484002Y-59716125D01*
X202480604Y-59709038D01*
X202477459Y-59701790D01*
X202319311Y-59319294D01*
X202161163Y-59474683D01*
X202153592Y-59481890D01*
X202145714Y-59488681D01*
X202137549Y-59495049D01*
X202129112Y-59500986D01*
X202120423Y-59506488D01*
X202111497Y-59511546D01*
X202102354Y-59516155D01*
X202093009Y-59520306D01*
X202083482Y-59523995D01*
X202073788Y-59527213D01*
X202063947Y-59529955D01*
X202053974Y-59532213D01*
X202043890Y-59533981D01*
X202033710Y-59535252D01*
X202023451Y-59536019D01*
X202013131Y-59536277D01*
X202005482Y-59536138D01*
X201997882Y-59535722D01*
X201990337Y-59535034D01*
X201982854Y-59534076D01*
X201975437Y-59532853D01*
X201968095Y-59531369D01*
X201960831Y-59529627D01*
X201953653Y-59527630D01*
X201946567Y-59525383D01*
X201939579Y-59522889D01*
X201932694Y-59520153D01*
X201925919Y-59517176D01*
X201919259Y-59513964D01*
X201912722Y-59510521D01*
X201906313Y-59506848D01*
X201900037Y-59502952D01*
X201893902Y-59498834D01*
X201887913Y-59494499D01*
X201882076Y-59489951D01*
X201876397Y-59485193D01*
X201870883Y-59480228D01*
X201865537Y-59475062D01*
X201860371Y-59469697D01*
X201855386Y-59464136D01*
X201850589Y-59458385D01*
X201845987Y-59452446D01*
X201841586Y-59446323D01*
X201837392Y-59440019D01*
X201833410Y-59433540D01*
X201829647Y-59426887D01*
X201826109Y-59420066D01*
X201822802Y-59413079D01*
X201807171Y-59378139D01*
X201803573Y-59369629D01*
X201800363Y-59361003D01*
X201797544Y-59352275D01*
X201795118Y-59343458D01*
X201793084Y-59334566D01*
X201791445Y-59325611D01*
X201790202Y-59316608D01*
X201789357Y-59307569D01*
X201788910Y-59298511D01*
X201788862Y-59289443D01*
X201789218Y-59280381D01*
X201789975Y-59271338D01*
X201791136Y-59262327D01*
X201792703Y-59253362D01*
X201794675Y-59244456D01*
X201797058Y-59235623D01*
X201798480Y-59230838D01*
X201799988Y-59226141D01*
X201801583Y-59221529D01*
X201803264Y-59217003D01*
X201805030Y-59212564D01*
X201806884Y-59208210D01*
X201808824Y-59203944D01*
X201810850Y-59199762D01*
X201872454Y-59074717D01*
X201951990Y-58914731D01*
X202606193Y-58914731D01*
X202778132Y-59238382D01*
X202950992Y-58914731D01*
X203547722Y-58914731D01*
X203719652Y-59238382D01*
X203892521Y-58914731D01*
X204526020Y-58914731D01*
X204754047Y-59365268D01*
X204982084Y-58914731D01*
X204526020Y-58914731D01*
X203892521Y-58914731D01*
X203547722Y-58914731D01*
X202950992Y-58914731D01*
X202606193Y-58914731D01*
X201951990Y-58914731D01*
X201952447Y-58913811D01*
X201456856Y-58913811D01*
X201446406Y-58913549D01*
X201436099Y-58912770D01*
X201425945Y-58911491D01*
X201415958Y-58909720D01*
X201406150Y-58907470D01*
X201396533Y-58904755D01*
X201387122Y-58901587D01*
X201377925Y-58897978D01*
X201368959Y-58893940D01*
X201360233Y-58889487D01*
X201351763Y-58884630D01*
X201343558Y-58879383D01*
X201335631Y-58873756D01*
X201327996Y-58867764D01*
X201320665Y-58861419D01*
X201313650Y-58854732D01*
X201306964Y-58847717D01*
X201300618Y-58840385D01*
X201294625Y-58832750D01*
X201289001Y-58824823D01*
X201283753Y-58816620D01*
X201278896Y-58808147D01*
X201274444Y-58799422D01*
X201270407Y-58790455D01*
X201266798Y-58781260D01*
X201263630Y-58771848D01*
X201260915Y-58762232D01*
X201258665Y-58752425D01*
X201256894Y-58742438D01*
X201255613Y-58732285D01*
X201254837Y-58721978D01*
X201254575Y-58711529D01*
X201254575Y-58684865D01*
X201254837Y-58674415D01*
X201255613Y-58664107D01*
X201256894Y-58653954D01*
X201258666Y-58643967D01*
X201260915Y-58634159D01*
X201263630Y-58624542D01*
X201266798Y-58615129D01*
X201270406Y-58605935D01*
X201274444Y-58596967D01*
X201278897Y-58588243D01*
X201283753Y-58579771D01*
X201289001Y-58571566D01*
X201294626Y-58563640D01*
X201300618Y-58556005D01*
X201306964Y-58548674D01*
X201313650Y-58541659D01*
X201320665Y-58534972D01*
X201327996Y-58528627D01*
X201335631Y-58522635D01*
X201343558Y-58517009D01*
X201351763Y-58511762D01*
X201360234Y-58506905D01*
X201368959Y-58502452D01*
X201377926Y-58498415D01*
X201387122Y-58494805D01*
X201396534Y-58491638D01*
X201406149Y-58488923D01*
X201415958Y-58486674D01*
X201425945Y-58484903D01*
X201436099Y-58483622D01*
X201437797Y-58483494D01*
X202606193Y-58483494D01*
X202951911Y-58483494D01*
X203547722Y-58483494D01*
X203893440Y-58483494D01*
X204526020Y-58483494D01*
X204982083Y-58483494D01*
X204754048Y-58032958D01*
X204526020Y-58483494D01*
X203893440Y-58483494D01*
X203720581Y-58159853D01*
X203547722Y-58483494D01*
X202951911Y-58483494D01*
X202779052Y-58159853D01*
X202606193Y-58483494D01*
X201437797Y-58483494D01*
X201446407Y-58482845D01*
X201456856Y-58482583D01*
X201954284Y-58482583D01*
X201874301Y-58321677D01*
X201811769Y-58196630D01*
X201809743Y-58192148D01*
X201807804Y-58187666D01*
X201805950Y-58183183D01*
X201804183Y-58178701D01*
X201802501Y-58174218D01*
X201800908Y-58169736D01*
X201799399Y-58165254D01*
X201797976Y-58160771D01*
X201795595Y-58151938D01*
X201793622Y-58143032D01*
X201792056Y-58134067D01*
X201790895Y-58125056D01*
X201790139Y-58116012D01*
X201789785Y-58106950D01*
X201789833Y-58097883D01*
X201790281Y-58088823D01*
X201791127Y-58079785D01*
X201792370Y-58070783D01*
X201794011Y-58061828D01*
X201796044Y-58052936D01*
X201798472Y-58044119D01*
X201801291Y-58035391D01*
X201804501Y-58026765D01*
X201808099Y-58018255D01*
X201823731Y-57983315D01*
X201830413Y-57969658D01*
X201838015Y-57956638D01*
X201846492Y-57944289D01*
X201855792Y-57932644D01*
X201865868Y-57921737D01*
X201876672Y-57911602D01*
X201888154Y-57902273D01*
X201900268Y-57893783D01*
X201912962Y-57886165D01*
X201926192Y-57879454D01*
X201939905Y-57873683D01*
X201954055Y-57868885D01*
X201968593Y-57865095D01*
X201983471Y-57862347D01*
X201998640Y-57860673D01*
X202014050Y-57860106D01*
X202024523Y-57860364D01*
X202034895Y-57861133D01*
X202045155Y-57862404D01*
X202055287Y-57864173D01*
X202065280Y-57866432D01*
X202075119Y-57869175D01*
X202084789Y-57872394D01*
X202094281Y-57876083D01*
X202103578Y-57880236D01*
X202112668Y-57884844D01*
X202121536Y-57889904D01*
X202130170Y-57895406D01*
X202138556Y-57901345D01*
X202146680Y-57907713D01*
X202154531Y-57914504D01*
X202162092Y-57921712D01*
X202319321Y-58079859D01*
X202477468Y-57697353D01*
X202484011Y-57683018D01*
X202491535Y-57669344D01*
X202499988Y-57656367D01*
X202509319Y-57644125D01*
X202519474Y-57632653D01*
X202530400Y-57621987D01*
X202542046Y-57612166D01*
X202554358Y-57603223D01*
X202567284Y-57595197D01*
X202580773Y-57588122D01*
X202594770Y-57582036D01*
X202609225Y-57576976D01*
X202624082Y-57572976D01*
X202639292Y-57570074D01*
X202654799Y-57568307D01*
X202670555Y-57567709D01*
X202779052Y-57567709D01*
X202802957Y-57567709D01*
X202815829Y-57568104D01*
X202828561Y-57569281D01*
X202841124Y-57571218D01*
X202853484Y-57573901D01*
X202865615Y-57577311D01*
X202877483Y-57581431D01*
X202889055Y-57586243D01*
X202900305Y-57591730D01*
X202911198Y-57597874D01*
X202921705Y-57604658D01*
X202931794Y-57612065D01*
X202941434Y-57620075D01*
X202950595Y-57628674D01*
X202959244Y-57637841D01*
X202967353Y-57647561D01*
X202974888Y-57657816D01*
X203259922Y-58068816D01*
X203479674Y-57615521D01*
X203486669Y-57602381D01*
X203494523Y-57589873D01*
X203503188Y-57578029D01*
X203512615Y-57566876D01*
X203522760Y-57556446D01*
X203533575Y-57546767D01*
X203545012Y-57537869D01*
X203557022Y-57529782D01*
X203569563Y-57522535D01*
X203582583Y-57516159D01*
X203596036Y-57510682D01*
X203609878Y-57506134D01*
X203624058Y-57502546D01*
X203638530Y-57499946D01*
X203653247Y-57498364D01*
X203668163Y-57497829D01*
X203720581Y-57497830D01*
X203768384Y-57497830D01*
X203775436Y-57497947D01*
X203782449Y-57498301D01*
X203789419Y-57498885D01*
X203796343Y-57499697D01*
X203803214Y-57500737D01*
X203810028Y-57502000D01*
X203816779Y-57503484D01*
X203823463Y-57505186D01*
X203830073Y-57507104D01*
X203836606Y-57509234D01*
X203843057Y-57511574D01*
X203849419Y-57514122D01*
X203855689Y-57516875D01*
X203861860Y-57519830D01*
X203867929Y-57522983D01*
X203873890Y-57526334D01*
X203879737Y-57529878D01*
X203885466Y-57533614D01*
X203891072Y-57537538D01*
X203896550Y-57541647D01*
X203901895Y-57545942D01*
X203907100Y-57550416D01*
X203912164Y-57555067D01*
X203917078Y-57559894D01*
X203921837Y-57564893D01*
X203926440Y-57570062D01*
X203930879Y-57575398D01*
X203935148Y-57580897D01*
X203939243Y-57586560D01*
X203943161Y-57592381D01*
X203946894Y-57598358D01*
X203950438Y-57604488D01*
X204190418Y-58033877D01*
X204499366Y-57376461D01*
X204506361Y-57362987D01*
X204514217Y-57350167D01*
X204522886Y-57338030D01*
X204532323Y-57326608D01*
X204542482Y-57315929D01*
X204553317Y-57306023D01*
X204564781Y-57296919D01*
X204576831Y-57288648D01*
X204589419Y-57281239D01*
X204602501Y-57274722D01*
X204616029Y-57269126D01*
X204629959Y-57264481D01*
X204644244Y-57260816D01*
X204658838Y-57258162D01*
X204673698Y-57256547D01*
X204688775Y-57256003D01*
X204754048Y-57256003D01*
X204784399Y-57256003D01*
X204791277Y-57256115D01*
X204798121Y-57256451D01*
X204804920Y-57257010D01*
X204811676Y-57257786D01*
X204818379Y-57258779D01*
X204825028Y-57259986D01*
X204831618Y-57261402D01*
X204838144Y-57263030D01*
X204844600Y-57264862D01*
X204850983Y-57266898D01*
X204857289Y-57269135D01*
X204863512Y-57271570D01*
X204869647Y-57274201D01*
X204875692Y-57277026D01*
X204881641Y-57280042D01*
X204887491Y-57283246D01*
X204893234Y-57286636D01*
X204898868Y-57290210D01*
X204904388Y-57293964D01*
X204909789Y-57297897D01*
X204915067Y-57302005D01*
X204920217Y-57306285D01*
X204925234Y-57310739D01*
X204930116Y-57315359D01*
X204934855Y-57320145D01*
X204939449Y-57325094D01*
X204943892Y-57330204D01*
X204948182Y-57335471D01*
X204952310Y-57340895D01*
X204956274Y-57346471D01*
X204960072Y-57352198D01*
X204963695Y-57358072D01*
X205338835Y-57986065D01*
X205796727Y-56968220D01*
X205803409Y-56954563D01*
X205811012Y-56941543D01*
X205819488Y-56929194D01*
X205828790Y-56917549D01*
X205838867Y-56906643D01*
X205849671Y-56896508D01*
X205861155Y-56887178D01*
X205873268Y-56878688D01*
X205885965Y-56871070D01*
X205899195Y-56864359D01*
X205912909Y-56858588D01*
X205927060Y-56853790D01*
X205941598Y-56850000D01*
X205956475Y-56847252D01*
X205971644Y-56845578D01*
X205987056Y-56845011D01*
X206678492Y-56845011D01*
X206689202Y-56845282D01*
G37*
G36*
X207475687Y-59295625D02*
G01*
X207536535Y-59351771D01*
X207598996Y-59406258D01*
X207662704Y-59459451D01*
X207922638Y-59666620D01*
X208050521Y-59771971D01*
X208112653Y-59826371D01*
X208173092Y-59882408D01*
X208231466Y-59940448D01*
X208287408Y-60000861D01*
X208340552Y-60064009D01*
X208390530Y-60130261D01*
X208443329Y-60208569D01*
X208491745Y-60288925D01*
X208535787Y-60371178D01*
X208575471Y-60455176D01*
X208610807Y-60540768D01*
X208641806Y-60627805D01*
X208668484Y-60716134D01*
X208690849Y-60805605D01*
X208708915Y-60896068D01*
X208722695Y-60987372D01*
X208732199Y-61079364D01*
X208737440Y-61171896D01*
X208738431Y-61264816D01*
X208735182Y-61357972D01*
X208727709Y-61451215D01*
X208716020Y-61544394D01*
X208665938Y-61872712D01*
X208644162Y-62041081D01*
X208635589Y-62125718D01*
X208629131Y-62210429D01*
X208625215Y-62295043D01*
X208624271Y-62379389D01*
X208626726Y-62463296D01*
X208633010Y-62546593D01*
X208643549Y-62629109D01*
X208658772Y-62710672D01*
X208679109Y-62791112D01*
X208704985Y-62870258D01*
X208706133Y-62873787D01*
X208706992Y-62877302D01*
X208707573Y-62880793D01*
X208707886Y-62884250D01*
X208707940Y-62887665D01*
X208707744Y-62891029D01*
X208707307Y-62894331D01*
X208706638Y-62897564D01*
X208705748Y-62900717D01*
X208704644Y-62903781D01*
X208703336Y-62906748D01*
X208701835Y-62909607D01*
X208700147Y-62912350D01*
X208698283Y-62914967D01*
X208696255Y-62917449D01*
X208694068Y-62919787D01*
X208691732Y-62921972D01*
X208689258Y-62923994D01*
X208686654Y-62925843D01*
X208683929Y-62927512D01*
X208681095Y-62928990D01*
X208678158Y-62930268D01*
X208675128Y-62931337D01*
X208672015Y-62932187D01*
X208668828Y-62932811D01*
X208665576Y-62933197D01*
X208662268Y-62933337D01*
X208658914Y-62933222D01*
X208655523Y-62932843D01*
X208652105Y-62932189D01*
X208648668Y-62931252D01*
X208645221Y-62930022D01*
X208497240Y-62863128D01*
X208405627Y-62814593D01*
X208305264Y-62755008D01*
X208198399Y-62683622D01*
X208087278Y-62599693D01*
X207974151Y-62502472D01*
X207861264Y-62391214D01*
X207750866Y-62265172D01*
X207645207Y-62123602D01*
X207594856Y-62046760D01*
X207546532Y-61965756D01*
X207500516Y-61880496D01*
X207457088Y-61790888D01*
X207416532Y-61696838D01*
X207379126Y-61598252D01*
X207345153Y-61495039D01*
X207314893Y-61387103D01*
X207288628Y-61274352D01*
X207266637Y-61156693D01*
X207249202Y-61034033D01*
X207236605Y-60906278D01*
X207207540Y-60547430D01*
X207180101Y-60241338D01*
X207153934Y-59983084D01*
X207128682Y-59767757D01*
X207103992Y-59590443D01*
X207091745Y-59514506D01*
X207079506Y-59446230D01*
X207067229Y-59385000D01*
X207054869Y-59330205D01*
X207042382Y-59281227D01*
X207029726Y-59237453D01*
X207416819Y-59237453D01*
X207475687Y-59295625D01*
G37*
G36*
X208666495Y-54466779D02*
G01*
X208669747Y-54467137D01*
X208672934Y-54467728D01*
X208676048Y-54468545D01*
X208679076Y-54469578D01*
X208682014Y-54470818D01*
X208684850Y-54472256D01*
X208687574Y-54473883D01*
X208690178Y-54475690D01*
X208692651Y-54477669D01*
X208694987Y-54479811D01*
X208697173Y-54482106D01*
X208699203Y-54484545D01*
X208701067Y-54487120D01*
X208702754Y-54489822D01*
X208704256Y-54492642D01*
X208705562Y-54495571D01*
X208706667Y-54498600D01*
X208707558Y-54501720D01*
X208708226Y-54504922D01*
X208708664Y-54508197D01*
X208708860Y-54511536D01*
X208708806Y-54514932D01*
X208708493Y-54518373D01*
X208707911Y-54521852D01*
X208707052Y-54525360D01*
X208705906Y-54528887D01*
X208680027Y-54608033D01*
X208659692Y-54688473D01*
X208644468Y-54770036D01*
X208633928Y-54852552D01*
X208627646Y-54935849D01*
X208625191Y-55019756D01*
X208626135Y-55104102D01*
X208630050Y-55188716D01*
X208636507Y-55273427D01*
X208645081Y-55358064D01*
X208666857Y-55526432D01*
X208716939Y-55854752D01*
X208728628Y-55947930D01*
X208736102Y-56041173D01*
X208739351Y-56134329D01*
X208738360Y-56227249D01*
X208733118Y-56319780D01*
X208723614Y-56411773D01*
X208709835Y-56503076D01*
X208691769Y-56593540D01*
X208669404Y-56683011D01*
X208642727Y-56771341D01*
X208611727Y-56858377D01*
X208576391Y-56943970D01*
X208536707Y-57027967D01*
X208492664Y-57110220D01*
X208444249Y-57190576D01*
X208391449Y-57268884D01*
X208341310Y-57335137D01*
X208288026Y-57398286D01*
X208231965Y-57458700D01*
X208173494Y-57516742D01*
X208112981Y-57572780D01*
X208050794Y-57627180D01*
X207922869Y-57732530D01*
X207663105Y-57939695D01*
X207599495Y-57992886D01*
X207537153Y-58047371D01*
X207476444Y-58103514D01*
X207417739Y-58161683D01*
X207030644Y-58161683D01*
X207055749Y-58068932D01*
X207080282Y-57952907D01*
X207104621Y-57808695D01*
X207129143Y-57631383D01*
X207154225Y-57416056D01*
X207180245Y-57157801D01*
X207236605Y-56492857D01*
X207249203Y-56365020D01*
X207266638Y-56242281D01*
X207288629Y-56124550D01*
X207314896Y-56011734D01*
X207345158Y-55903738D01*
X207379133Y-55800470D01*
X207416542Y-55701838D01*
X207457104Y-55607747D01*
X207500536Y-55518104D01*
X207546559Y-55432818D01*
X207594893Y-55351793D01*
X207645256Y-55274939D01*
X207697365Y-55202161D01*
X207750945Y-55133365D01*
X207805708Y-55068460D01*
X207861380Y-55007352D01*
X207917675Y-54949948D01*
X207974315Y-54896154D01*
X208087503Y-54799028D01*
X208198698Y-54715226D01*
X208305652Y-54644007D01*
X208406120Y-54584623D01*
X208497855Y-54536331D01*
X208578611Y-54498385D01*
X208646141Y-54470040D01*
X208649587Y-54468809D01*
X208653024Y-54467864D01*
X208656443Y-54467197D01*
X208659834Y-54466800D01*
X208663188Y-54466663D01*
X208666495Y-54466779D01*
G37*
D11*
G36*
X145264554Y-71689985D02*
G01*
X144968495Y-71825679D01*
X144968495Y-71628306D01*
X145264554Y-71689985D01*
G37*
G36*
X145435388Y-66324711D02*
G01*
X145455538Y-66342342D01*
X145482780Y-66393420D01*
X145482780Y-66661095D01*
X145158971Y-66701571D01*
X145158971Y-66456251D01*
X145190923Y-66388352D01*
X145219398Y-66356317D01*
X145283740Y-66316103D01*
X145380261Y-66304038D01*
X145435388Y-66324711D01*
G37*
G36*
X145793891Y-75823321D02*
G01*
X144371669Y-75823321D01*
X144371669Y-75255326D01*
X144482780Y-75255326D01*
X144482780Y-75445802D01*
X144484701Y-75465311D01*
X144486581Y-75469851D01*
X144487059Y-75474744D01*
X144494545Y-75492861D01*
X144542165Y-75582147D01*
X144550253Y-75594277D01*
X144551132Y-75596053D01*
X144552188Y-75597178D01*
X144553041Y-75598457D01*
X144554565Y-75599710D01*
X144564549Y-75610345D01*
X144612168Y-75652012D01*
X144623824Y-75660346D01*
X144625315Y-75661739D01*
X144626778Y-75662458D01*
X144628115Y-75663414D01*
X144630059Y-75664071D01*
X144642907Y-75670388D01*
X144738145Y-75706102D01*
X144757086Y-75711153D01*
X144761655Y-75710997D01*
X144766064Y-75712210D01*
X144785660Y-75711697D01*
X145595184Y-75610507D01*
X145614304Y-75606181D01*
X145648221Y-75586893D01*
X145672176Y-75556094D01*
X145682522Y-75518472D01*
X145677682Y-75479755D01*
X145658394Y-75445838D01*
X145627595Y-75421883D01*
X145589973Y-75411538D01*
X145570377Y-75412051D01*
X144785300Y-75510185D01*
X144730172Y-75489512D01*
X144710023Y-75471882D01*
X144682780Y-75420801D01*
X144682780Y-75277679D01*
X144714733Y-75209781D01*
X144743211Y-75177743D01*
X144807549Y-75137532D01*
X145595184Y-75039078D01*
X145614304Y-75034752D01*
X145648221Y-75015464D01*
X145672176Y-74984665D01*
X145682521Y-74947043D01*
X145677682Y-74908326D01*
X145658394Y-74874409D01*
X145627595Y-74850454D01*
X145589973Y-74840109D01*
X145570376Y-74840622D01*
X144760853Y-74941813D01*
X144741733Y-74946139D01*
X144739899Y-74947181D01*
X144737820Y-74947530D01*
X144720258Y-74956241D01*
X144625020Y-75015764D01*
X144619784Y-75019800D01*
X144617675Y-75020823D01*
X144613738Y-75024460D01*
X144609494Y-75027733D01*
X144608133Y-75029640D01*
X144603278Y-75034128D01*
X144555659Y-75087700D01*
X144551711Y-75093130D01*
X144549964Y-75094721D01*
X144547249Y-75099270D01*
X144544133Y-75103558D01*
X144543358Y-75105791D01*
X144539919Y-75111555D01*
X144492299Y-75212745D01*
X144485730Y-75231215D01*
X144485617Y-75233605D01*
X144484701Y-75235817D01*
X144482780Y-75255326D01*
X144371669Y-75255326D01*
X144371669Y-74438610D01*
X144483039Y-74438610D01*
X144487878Y-74477327D01*
X144507166Y-74511244D01*
X144537965Y-74535199D01*
X144575587Y-74545544D01*
X144595183Y-74545031D01*
X145482780Y-74434081D01*
X145482780Y-74606517D01*
X145484701Y-74626026D01*
X145499633Y-74662074D01*
X145527223Y-74689664D01*
X145563271Y-74704596D01*
X145602289Y-74704596D01*
X145638337Y-74689664D01*
X145665927Y-74662074D01*
X145680859Y-74626026D01*
X145682780Y-74606517D01*
X145682780Y-74035088D01*
X145680859Y-74015579D01*
X145665927Y-73979531D01*
X145638337Y-73951941D01*
X145602289Y-73937009D01*
X145563271Y-73937009D01*
X145527223Y-73951941D01*
X145499633Y-73979531D01*
X145484701Y-74015579D01*
X145482780Y-74035088D01*
X145482780Y-74232524D01*
X144570377Y-74346575D01*
X144551256Y-74350901D01*
X144517339Y-74370189D01*
X144493384Y-74400988D01*
X144483039Y-74438610D01*
X144371669Y-74438610D01*
X144371669Y-73350564D01*
X144482780Y-73350564D01*
X144482780Y-73826755D01*
X144484701Y-73846264D01*
X144487100Y-73852056D01*
X144487878Y-73858279D01*
X144494504Y-73869932D01*
X144499633Y-73882312D01*
X144504066Y-73886745D01*
X144507166Y-73892196D01*
X144517745Y-73900424D01*
X144527223Y-73909902D01*
X144533015Y-73912301D01*
X144537965Y-73916151D01*
X144550886Y-73919704D01*
X144563271Y-73924834D01*
X144569543Y-73924834D01*
X144575587Y-73926496D01*
X144595183Y-73925983D01*
X145595183Y-73800983D01*
X145600261Y-73799834D01*
X145602289Y-73799834D01*
X145604729Y-73798823D01*
X145614303Y-73796657D01*
X145625954Y-73790031D01*
X145638337Y-73784902D01*
X145642770Y-73780468D01*
X145648221Y-73777369D01*
X145656449Y-73766789D01*
X145665927Y-73757312D01*
X145668326Y-73751519D01*
X145672176Y-73746570D01*
X145675729Y-73733648D01*
X145680859Y-73721264D01*
X145681821Y-73711493D01*
X145682521Y-73708948D01*
X145682269Y-73706937D01*
X145682780Y-73701755D01*
X145682780Y-73225564D01*
X145680859Y-73206055D01*
X145665927Y-73170007D01*
X145638337Y-73142417D01*
X145602289Y-73127485D01*
X145563271Y-73127485D01*
X145527223Y-73142417D01*
X145499633Y-73170007D01*
X145484701Y-73206055D01*
X145482780Y-73225564D01*
X145482780Y-73613476D01*
X145206590Y-73648000D01*
X145206590Y-73427945D01*
X145204669Y-73408436D01*
X145189737Y-73372388D01*
X145162147Y-73344798D01*
X145126099Y-73329866D01*
X145087081Y-73329866D01*
X145051033Y-73344798D01*
X145023443Y-73372388D01*
X145008511Y-73408436D01*
X145006590Y-73427945D01*
X145006590Y-73673000D01*
X144682780Y-73713476D01*
X144682780Y-73350564D01*
X144680859Y-73331055D01*
X144665927Y-73295007D01*
X144638337Y-73267417D01*
X144602289Y-73252485D01*
X144563271Y-73252485D01*
X144527223Y-73267417D01*
X144499633Y-73295007D01*
X144484701Y-73331055D01*
X144482780Y-73350564D01*
X144371669Y-73350564D01*
X144371669Y-73025281D01*
X144483105Y-73025281D01*
X144493772Y-73062813D01*
X144517991Y-73093405D01*
X144552073Y-73112400D01*
X144590830Y-73116906D01*
X144628362Y-73106239D01*
X144644850Y-73095636D01*
X145093141Y-72740737D01*
X145535152Y-72980160D01*
X145553221Y-72987763D01*
X145592029Y-72991802D01*
X145629430Y-72980683D01*
X145659728Y-72956099D01*
X145678312Y-72921790D01*
X145682352Y-72882982D01*
X145671232Y-72845581D01*
X145646648Y-72815283D01*
X145630408Y-72804302D01*
X145263732Y-72605686D01*
X145644850Y-72303968D01*
X145658954Y-72290353D01*
X145677949Y-72256271D01*
X145682456Y-72217514D01*
X145671788Y-72179982D01*
X145647569Y-72149390D01*
X145613487Y-72130395D01*
X145574730Y-72125888D01*
X145537198Y-72136556D01*
X145520710Y-72147159D01*
X145072417Y-72502057D01*
X144630408Y-72262635D01*
X144612339Y-72255032D01*
X144573531Y-72250993D01*
X144536130Y-72262112D01*
X144505832Y-72286696D01*
X144487248Y-72321005D01*
X144483209Y-72359813D01*
X144494328Y-72397214D01*
X144518912Y-72427512D01*
X144535152Y-72438493D01*
X144901826Y-72637108D01*
X144520710Y-72938826D01*
X144506606Y-72952442D01*
X144487611Y-72986524D01*
X144483105Y-73025281D01*
X144371669Y-73025281D01*
X144371669Y-71444897D01*
X144482784Y-71444897D01*
X144490050Y-71483233D01*
X144511433Y-71515870D01*
X144543677Y-71537840D01*
X144562385Y-71543700D01*
X144768495Y-71586639D01*
X144768495Y-71917346D01*
X144541114Y-72021563D01*
X144524180Y-72031437D01*
X144497631Y-72060031D01*
X144484046Y-72096608D01*
X144485491Y-72135599D01*
X144501748Y-72171069D01*
X144530342Y-72197618D01*
X144566919Y-72211203D01*
X144605910Y-72209758D01*
X144624446Y-72203375D01*
X145624446Y-71745041D01*
X145641380Y-71735167D01*
X145646527Y-71729623D01*
X145652848Y-71725482D01*
X145659675Y-71715462D01*
X145667929Y-71706573D01*
X145670560Y-71699487D01*
X145674819Y-71693238D01*
X145677293Y-71681358D01*
X145681514Y-71669996D01*
X145681234Y-71662445D01*
X145682777Y-71655040D01*
X145680518Y-71643121D01*
X145680069Y-71631005D01*
X145676918Y-71624131D01*
X145675511Y-71616704D01*
X145668865Y-71606561D01*
X145663812Y-71595535D01*
X145658270Y-71590389D01*
X145654128Y-71584067D01*
X145644106Y-71577239D01*
X145635218Y-71568986D01*
X145628130Y-71566353D01*
X145621883Y-71562097D01*
X145603176Y-71556237D01*
X144603175Y-71347904D01*
X144583685Y-71345806D01*
X144545349Y-71353072D01*
X144512712Y-71374455D01*
X144490742Y-71406699D01*
X144482784Y-71444897D01*
X144371669Y-71444897D01*
X144371669Y-70779135D01*
X144482780Y-70779135D01*
X144482780Y-71017231D01*
X144483885Y-71028455D01*
X144483736Y-71031027D01*
X144484416Y-71033848D01*
X144484701Y-71036740D01*
X144485688Y-71039122D01*
X144488331Y-71050084D01*
X144535951Y-71186988D01*
X144544174Y-71204783D01*
X144570120Y-71233925D01*
X144605243Y-71250919D01*
X144644196Y-71253180D01*
X144681048Y-71240361D01*
X144710190Y-71214415D01*
X144727184Y-71179293D01*
X144729444Y-71140340D01*
X144724850Y-71121283D01*
X144682780Y-71000336D01*
X144682780Y-70801488D01*
X144714733Y-70733590D01*
X144743211Y-70701552D01*
X144807549Y-70661341D01*
X144856452Y-70655228D01*
X144911579Y-70675901D01*
X144931728Y-70693532D01*
X144965122Y-70756145D01*
X145009762Y-70929123D01*
X145010745Y-70931811D01*
X145010869Y-70933076D01*
X145013828Y-70940238D01*
X145016497Y-70947533D01*
X145017262Y-70948549D01*
X145018355Y-70951194D01*
X145065974Y-71040480D01*
X145074065Y-71052614D01*
X145074941Y-71054386D01*
X145075993Y-71055507D01*
X145076849Y-71056790D01*
X145078377Y-71058047D01*
X145088358Y-71068678D01*
X145135977Y-71110345D01*
X145147633Y-71118679D01*
X145149124Y-71120072D01*
X145150587Y-71120791D01*
X145151924Y-71121747D01*
X145153868Y-71122404D01*
X145166716Y-71128721D01*
X145261954Y-71164435D01*
X145280895Y-71169486D01*
X145285464Y-71169330D01*
X145289873Y-71170543D01*
X145309470Y-71170030D01*
X145404708Y-71158125D01*
X145423828Y-71153799D01*
X145425661Y-71152756D01*
X145427742Y-71152408D01*
X145445304Y-71143697D01*
X145540542Y-71084173D01*
X145545775Y-71080138D01*
X145547886Y-71079115D01*
X145551827Y-71075472D01*
X145556067Y-71072204D01*
X145557425Y-71070299D01*
X145562283Y-71065810D01*
X145609902Y-71012238D01*
X145613849Y-71006807D01*
X145615598Y-71005216D01*
X145618314Y-71000662D01*
X145621427Y-70996381D01*
X145622200Y-70994150D01*
X145625643Y-70988382D01*
X145673262Y-70887192D01*
X145679831Y-70868721D01*
X145679943Y-70866330D01*
X145680859Y-70864121D01*
X145682780Y-70844612D01*
X145682780Y-70606516D01*
X145681674Y-70595292D01*
X145681824Y-70592721D01*
X145681143Y-70589899D01*
X145680859Y-70587007D01*
X145679872Y-70584625D01*
X145677230Y-70573664D01*
X145629611Y-70436760D01*
X145621387Y-70418965D01*
X145595441Y-70389823D01*
X145560319Y-70372828D01*
X145521366Y-70370568D01*
X145484514Y-70383386D01*
X145455372Y-70409332D01*
X145438377Y-70444454D01*
X145436117Y-70483407D01*
X145440711Y-70502464D01*
X145482780Y-70623411D01*
X145482780Y-70822257D01*
X145450827Y-70890156D01*
X145422350Y-70922192D01*
X145358010Y-70962405D01*
X145309108Y-70968518D01*
X145253981Y-70947845D01*
X145233832Y-70930215D01*
X145200438Y-70867601D01*
X145155799Y-70694624D01*
X145154815Y-70691935D01*
X145154692Y-70690671D01*
X145151730Y-70683503D01*
X145149064Y-70676214D01*
X145148299Y-70675198D01*
X145147207Y-70672554D01*
X145099587Y-70583267D01*
X145091495Y-70571132D01*
X145090620Y-70569361D01*
X145089567Y-70568239D01*
X145088712Y-70566957D01*
X145087183Y-70565699D01*
X145077203Y-70555069D01*
X145029584Y-70513402D01*
X145017927Y-70505067D01*
X145016437Y-70503675D01*
X145014973Y-70502955D01*
X145013637Y-70502000D01*
X145011692Y-70501342D01*
X144998845Y-70495026D01*
X144903607Y-70459312D01*
X144884666Y-70454261D01*
X144880096Y-70454416D01*
X144875688Y-70453204D01*
X144856091Y-70453717D01*
X144760853Y-70465622D01*
X144741733Y-70469948D01*
X144739899Y-70470990D01*
X144737820Y-70471339D01*
X144720258Y-70480050D01*
X144625020Y-70539573D01*
X144619784Y-70543609D01*
X144617675Y-70544632D01*
X144613738Y-70548269D01*
X144609494Y-70551542D01*
X144608133Y-70553449D01*
X144603278Y-70557937D01*
X144555659Y-70611509D01*
X144551711Y-70616939D01*
X144549964Y-70618530D01*
X144547249Y-70623079D01*
X144544133Y-70627367D01*
X144543358Y-70629600D01*
X144539919Y-70635364D01*
X144492299Y-70736554D01*
X144485730Y-70755024D01*
X144485617Y-70757414D01*
X144484701Y-70759626D01*
X144482780Y-70779135D01*
X144371669Y-70779135D01*
X144371669Y-69350564D01*
X144863733Y-69350564D01*
X144863733Y-70112469D01*
X144865654Y-70131978D01*
X144880586Y-70168026D01*
X144908176Y-70195616D01*
X144944224Y-70210548D01*
X144983242Y-70210548D01*
X145019290Y-70195616D01*
X145046880Y-70168026D01*
X145061812Y-70131978D01*
X145063733Y-70112469D01*
X145063733Y-69350564D01*
X145061812Y-69331055D01*
X145046880Y-69295007D01*
X145019290Y-69267417D01*
X144983242Y-69252485D01*
X144944224Y-69252485D01*
X144908176Y-69267417D01*
X144880586Y-69295007D01*
X144865654Y-69331055D01*
X144863733Y-69350564D01*
X144371669Y-69350564D01*
X144371669Y-68343371D01*
X144483039Y-68343371D01*
X144487878Y-68382088D01*
X144507166Y-68416005D01*
X144537965Y-68439960D01*
X144575587Y-68450305D01*
X144595183Y-68449792D01*
X145006590Y-68398366D01*
X145006590Y-68768238D01*
X144570377Y-68822765D01*
X144551256Y-68827091D01*
X144517339Y-68846379D01*
X144493384Y-68877178D01*
X144483039Y-68914800D01*
X144487878Y-68953517D01*
X144507166Y-68987434D01*
X144537965Y-69011389D01*
X144575587Y-69021734D01*
X144595183Y-69021221D01*
X145595183Y-68896221D01*
X145614303Y-68891895D01*
X145648221Y-68872607D01*
X145672176Y-68841808D01*
X145682521Y-68804186D01*
X145677682Y-68765469D01*
X145658394Y-68731552D01*
X145627595Y-68707597D01*
X145589973Y-68697252D01*
X145570376Y-68697765D01*
X145206590Y-68743238D01*
X145206590Y-68373366D01*
X145595183Y-68324792D01*
X145614303Y-68320466D01*
X145648221Y-68301178D01*
X145672176Y-68270379D01*
X145682521Y-68232757D01*
X145677682Y-68194040D01*
X145658394Y-68160123D01*
X145627595Y-68136168D01*
X145589973Y-68125823D01*
X145570376Y-68126336D01*
X144570377Y-68251336D01*
X144551256Y-68255662D01*
X144517339Y-68274950D01*
X144493384Y-68305749D01*
X144483039Y-68343371D01*
X144371669Y-68343371D01*
X144371669Y-67493421D01*
X144482780Y-67493421D01*
X144482780Y-67588659D01*
X144483885Y-67599882D01*
X144483736Y-67602454D01*
X144484416Y-67605274D01*
X144484701Y-67608168D01*
X144485688Y-67610551D01*
X144488331Y-67621512D01*
X144535950Y-67758416D01*
X144544174Y-67776211D01*
X144548349Y-67780901D01*
X144551133Y-67786529D01*
X144564550Y-67800822D01*
X144659788Y-67884155D01*
X144671437Y-67892483D01*
X144672933Y-67893881D01*
X144674403Y-67894603D01*
X144675735Y-67895556D01*
X144677673Y-67896211D01*
X144690525Y-67902530D01*
X144785763Y-67938245D01*
X144788321Y-67938927D01*
X144789353Y-67939514D01*
X144797064Y-67941258D01*
X144804704Y-67943296D01*
X144805890Y-67943255D01*
X144808473Y-67943840D01*
X144998949Y-67967649D01*
X145002645Y-67967745D01*
X145004159Y-67968162D01*
X145011352Y-67967973D01*
X145018545Y-67968162D01*
X145020058Y-67967745D01*
X145023755Y-67967649D01*
X145166613Y-67949792D01*
X145169195Y-67949207D01*
X145170380Y-67949248D01*
X145178008Y-67947213D01*
X145185733Y-67945466D01*
X145186766Y-67944878D01*
X145189321Y-67944197D01*
X145379797Y-67872769D01*
X145380004Y-67872666D01*
X145380123Y-67872647D01*
X145388881Y-67868302D01*
X145397389Y-67864120D01*
X145397473Y-67864040D01*
X145397685Y-67863936D01*
X145492923Y-67804412D01*
X145498159Y-67800374D01*
X145500267Y-67799353D01*
X145504202Y-67795716D01*
X145508448Y-67792443D01*
X145509808Y-67790535D01*
X145514664Y-67786048D01*
X145609902Y-67678906D01*
X145621427Y-67663048D01*
X145621830Y-67661883D01*
X145622628Y-67660942D01*
X145630403Y-67642946D01*
X145678022Y-67494137D01*
X145679860Y-67485579D01*
X145680859Y-67483168D01*
X145681266Y-67479034D01*
X145682139Y-67474970D01*
X145681922Y-67472367D01*
X145682780Y-67463659D01*
X145682780Y-67368421D01*
X145681674Y-67357197D01*
X145681824Y-67354626D01*
X145681143Y-67351804D01*
X145680859Y-67348912D01*
X145679872Y-67346530D01*
X145677230Y-67335569D01*
X145629611Y-67198665D01*
X145621387Y-67180870D01*
X145617213Y-67176181D01*
X145614429Y-67170552D01*
X145601012Y-67156260D01*
X145553393Y-67114593D01*
X145537446Y-67103191D01*
X145500484Y-67090691D01*
X145461552Y-67093286D01*
X145426577Y-67110582D01*
X145400883Y-67139946D01*
X145388383Y-67176908D01*
X145390978Y-67215840D01*
X145408274Y-67250815D01*
X145421691Y-67265107D01*
X145449401Y-67289353D01*
X145482780Y-67385316D01*
X145482780Y-67448047D01*
X145446366Y-67561843D01*
X145374733Y-67642430D01*
X145300185Y-67689023D01*
X145130122Y-67752796D01*
X145011351Y-67767642D01*
X144844964Y-67746844D01*
X144777790Y-67721654D01*
X144716158Y-67667725D01*
X144682780Y-67571764D01*
X144682780Y-67509030D01*
X144719194Y-67395237D01*
X144752761Y-67357476D01*
X144764286Y-67341618D01*
X144777074Y-67304755D01*
X144774783Y-67265804D01*
X144757760Y-67230695D01*
X144728598Y-67204773D01*
X144691735Y-67191985D01*
X144652784Y-67194276D01*
X144617675Y-67211299D01*
X144603278Y-67224604D01*
X144555659Y-67278176D01*
X144544133Y-67294034D01*
X144543729Y-67295196D01*
X144542933Y-67296138D01*
X144535158Y-67314133D01*
X144487538Y-67462943D01*
X144485699Y-67471501D01*
X144484701Y-67473912D01*
X144484294Y-67478044D01*
X144483421Y-67482109D01*
X144483637Y-67484711D01*
X144482780Y-67493421D01*
X144371669Y-67493421D01*
X144371669Y-66309661D01*
X144483006Y-66309661D01*
X144493171Y-66347332D01*
X144516978Y-66378246D01*
X144532933Y-66389636D01*
X144958971Y-66634607D01*
X144958971Y-66726571D01*
X144570377Y-66775146D01*
X144551256Y-66779472D01*
X144517339Y-66798760D01*
X144493384Y-66829559D01*
X144483039Y-66867181D01*
X144487878Y-66905898D01*
X144507166Y-66939815D01*
X144537965Y-66963770D01*
X144575587Y-66974115D01*
X144595183Y-66973602D01*
X145595183Y-66848602D01*
X145600261Y-66847453D01*
X145602289Y-66847453D01*
X145604729Y-66846442D01*
X145614303Y-66844276D01*
X145625954Y-66837650D01*
X145638337Y-66832521D01*
X145642770Y-66828087D01*
X145648221Y-66824988D01*
X145656449Y-66814408D01*
X145665927Y-66804931D01*
X145668326Y-66799138D01*
X145672176Y-66794189D01*
X145675729Y-66781267D01*
X145680859Y-66768883D01*
X145681821Y-66759112D01*
X145682521Y-66756567D01*
X145682269Y-66754556D01*
X145682780Y-66749374D01*
X145682780Y-66368421D01*
X145680859Y-66348912D01*
X145678978Y-66344371D01*
X145678501Y-66339480D01*
X145671015Y-66321362D01*
X145623396Y-66232077D01*
X145615306Y-66219946D01*
X145614429Y-66218171D01*
X145613372Y-66217045D01*
X145612520Y-66215767D01*
X145610995Y-66214513D01*
X145601012Y-66203879D01*
X145553393Y-66162212D01*
X145541736Y-66153877D01*
X145540246Y-66152485D01*
X145538782Y-66151765D01*
X145537446Y-66150810D01*
X145535501Y-66150152D01*
X145522654Y-66143836D01*
X145427416Y-66108122D01*
X145408475Y-66103071D01*
X145403906Y-66103226D01*
X145399498Y-66102014D01*
X145379901Y-66102527D01*
X145237044Y-66120384D01*
X145217924Y-66124710D01*
X145216088Y-66125753D01*
X145214008Y-66126102D01*
X145196447Y-66134812D01*
X145101209Y-66194336D01*
X145095974Y-66198371D01*
X145093865Y-66199394D01*
X145089927Y-66203033D01*
X145085683Y-66206305D01*
X145084322Y-66208212D01*
X145079468Y-66212699D01*
X145031849Y-66266270D01*
X145027900Y-66271702D01*
X145026153Y-66273293D01*
X145023437Y-66277844D01*
X145020324Y-66282128D01*
X145019550Y-66284358D01*
X145016108Y-66290127D01*
X144968489Y-66391317D01*
X144963157Y-66406308D01*
X144632627Y-66216254D01*
X144614757Y-66208195D01*
X144576064Y-66203171D01*
X144538393Y-66213336D01*
X144507479Y-66237143D01*
X144488030Y-66270968D01*
X144483006Y-66309661D01*
X144371669Y-66309661D01*
X144371669Y-65398183D01*
X144482780Y-65398183D01*
X144482780Y-65874374D01*
X144484701Y-65893883D01*
X144487100Y-65899675D01*
X144487878Y-65905898D01*
X144494504Y-65917551D01*
X144499633Y-65929931D01*
X144504066Y-65934364D01*
X144507166Y-65939815D01*
X144517745Y-65948043D01*
X144527223Y-65957521D01*
X144533015Y-65959920D01*
X144537965Y-65963770D01*
X144550886Y-65967323D01*
X144563271Y-65972453D01*
X144569543Y-65972453D01*
X144575587Y-65974115D01*
X144595183Y-65973602D01*
X145595183Y-65848602D01*
X145614303Y-65844276D01*
X145648221Y-65824988D01*
X145672176Y-65794189D01*
X145682521Y-65756567D01*
X145677682Y-65717850D01*
X145658394Y-65683933D01*
X145627595Y-65659978D01*
X145589973Y-65649633D01*
X145570376Y-65650146D01*
X144682780Y-65761095D01*
X144682780Y-65398183D01*
X144680859Y-65378674D01*
X144665927Y-65342626D01*
X144638337Y-65315036D01*
X144602289Y-65300104D01*
X144563271Y-65300104D01*
X144527223Y-65315036D01*
X144499633Y-65342626D01*
X144484701Y-65378674D01*
X144482780Y-65398183D01*
X144371669Y-65398183D01*
X144371669Y-65188993D01*
X145793891Y-65188993D01*
X145793891Y-75823321D01*
G37*
X208678439Y-79777945D02*
X208678439Y-79301755D01*
X208392724Y-79873183D02*
X209392724Y-79539850D01*
X209392724Y-79539850D02*
X208392724Y-79206517D01*
X208392724Y-78730326D02*
X208440344Y-78825564D01*
X208440344Y-78825564D02*
X208535582Y-78873183D01*
X208535582Y-78873183D02*
X209392724Y-78873183D01*
X208440344Y-77968421D02*
X208392724Y-78063659D01*
X208392724Y-78063659D02*
X208392724Y-78254135D01*
X208392724Y-78254135D02*
X208440344Y-78349373D01*
X208440344Y-78349373D02*
X208535582Y-78396992D01*
X208535582Y-78396992D02*
X208916534Y-78396992D01*
X208916534Y-78396992D02*
X209011772Y-78349373D01*
X209011772Y-78349373D02*
X209059391Y-78254135D01*
X209059391Y-78254135D02*
X209059391Y-78063659D01*
X209059391Y-78063659D02*
X209011772Y-77968421D01*
X209011772Y-77968421D02*
X208916534Y-77920802D01*
X208916534Y-77920802D02*
X208821296Y-77920802D01*
X208821296Y-77920802D02*
X208726058Y-78396992D01*
X208392724Y-77587468D02*
X209059391Y-77063659D01*
X209059391Y-77587468D02*
X208392724Y-77063659D01*
X208392724Y-76254135D02*
X208916534Y-76254135D01*
X208916534Y-76254135D02*
X209011772Y-76301754D01*
X209011772Y-76301754D02*
X209059391Y-76396992D01*
X209059391Y-76396992D02*
X209059391Y-76587468D01*
X209059391Y-76587468D02*
X209011772Y-76682706D01*
X208440344Y-76254135D02*
X208392724Y-76349373D01*
X208392724Y-76349373D02*
X208392724Y-76587468D01*
X208392724Y-76587468D02*
X208440344Y-76682706D01*
X208440344Y-76682706D02*
X208535582Y-76730325D01*
X208535582Y-76730325D02*
X208630820Y-76730325D01*
X208630820Y-76730325D02*
X208726058Y-76682706D01*
X208726058Y-76682706D02*
X208773677Y-76587468D01*
X208773677Y-76587468D02*
X208773677Y-76349373D01*
X208773677Y-76349373D02*
X208821296Y-76254135D01*
X209059391Y-75777944D02*
X208392724Y-75777944D01*
X208964153Y-75777944D02*
X209011772Y-75730325D01*
X209011772Y-75730325D02*
X209059391Y-75635087D01*
X209059391Y-75635087D02*
X209059391Y-75492230D01*
X209059391Y-75492230D02*
X209011772Y-75396992D01*
X209011772Y-75396992D02*
X208916534Y-75349373D01*
X208916534Y-75349373D02*
X208392724Y-75349373D01*
X208392724Y-74444611D02*
X209392724Y-74444611D01*
X208440344Y-74444611D02*
X208392724Y-74539849D01*
X208392724Y-74539849D02*
X208392724Y-74730325D01*
X208392724Y-74730325D02*
X208440344Y-74825563D01*
X208440344Y-74825563D02*
X208487963Y-74873182D01*
X208487963Y-74873182D02*
X208583201Y-74920801D01*
X208583201Y-74920801D02*
X208868915Y-74920801D01*
X208868915Y-74920801D02*
X208964153Y-74873182D01*
X208964153Y-74873182D02*
X209011772Y-74825563D01*
X209011772Y-74825563D02*
X209059391Y-74730325D01*
X209059391Y-74730325D02*
X209059391Y-74539849D01*
X209059391Y-74539849D02*
X209011772Y-74444611D01*
X208440344Y-73587468D02*
X208392724Y-73682706D01*
X208392724Y-73682706D02*
X208392724Y-73873182D01*
X208392724Y-73873182D02*
X208440344Y-73968420D01*
X208440344Y-73968420D02*
X208535582Y-74016039D01*
X208535582Y-74016039D02*
X208916534Y-74016039D01*
X208916534Y-74016039D02*
X209011772Y-73968420D01*
X209011772Y-73968420D02*
X209059391Y-73873182D01*
X209059391Y-73873182D02*
X209059391Y-73682706D01*
X209059391Y-73682706D02*
X209011772Y-73587468D01*
X209011772Y-73587468D02*
X208916534Y-73539849D01*
X208916534Y-73539849D02*
X208821296Y-73539849D01*
X208821296Y-73539849D02*
X208726058Y-74016039D01*
X208392724Y-73111277D02*
X209059391Y-73111277D01*
X208868915Y-73111277D02*
X208964153Y-73063658D01*
X208964153Y-73063658D02*
X209011772Y-73016039D01*
X209011772Y-73016039D02*
X209059391Y-72920801D01*
X209059391Y-72920801D02*
X209059391Y-72825563D01*
X208678439Y-71777943D02*
X208678439Y-71301753D01*
X208392724Y-71873181D02*
X209392724Y-71539848D01*
X209392724Y-71539848D02*
X208392724Y-71206515D01*
X208392724Y-70873181D02*
X209059391Y-70873181D01*
X208964153Y-70873181D02*
X209011772Y-70825562D01*
X209011772Y-70825562D02*
X209059391Y-70730324D01*
X209059391Y-70730324D02*
X209059391Y-70587467D01*
X209059391Y-70587467D02*
X209011772Y-70492229D01*
X209011772Y-70492229D02*
X208916534Y-70444610D01*
X208916534Y-70444610D02*
X208392724Y-70444610D01*
X208916534Y-70444610D02*
X209011772Y-70396991D01*
X209011772Y-70396991D02*
X209059391Y-70301753D01*
X209059391Y-70301753D02*
X209059391Y-70158896D01*
X209059391Y-70158896D02*
X209011772Y-70063657D01*
X209011772Y-70063657D02*
X208916534Y-70016038D01*
X208916534Y-70016038D02*
X208392724Y-70016038D01*
X208392724Y-69539848D02*
X209392724Y-69539848D01*
X209011772Y-69539848D02*
X209059391Y-69444610D01*
X209059391Y-69444610D02*
X209059391Y-69254134D01*
X209059391Y-69254134D02*
X209011772Y-69158896D01*
X209011772Y-69158896D02*
X208964153Y-69111277D01*
X208964153Y-69111277D02*
X208868915Y-69063658D01*
X208868915Y-69063658D02*
X208583201Y-69063658D01*
X208583201Y-69063658D02*
X208487963Y-69111277D01*
X208487963Y-69111277D02*
X208440344Y-69158896D01*
X208440344Y-69158896D02*
X208392724Y-69254134D01*
X208392724Y-69254134D02*
X208392724Y-69444610D01*
X208392724Y-69444610D02*
X208440344Y-69539848D01*
X208392724Y-68635086D02*
X209059391Y-68635086D01*
X208868915Y-68635086D02*
X208964153Y-68587467D01*
X208964153Y-68587467D02*
X209011772Y-68539848D01*
X209011772Y-68539848D02*
X209059391Y-68444610D01*
X209059391Y-68444610D02*
X209059391Y-68349372D01*
X208392724Y-67873181D02*
X208440344Y-67968419D01*
X208440344Y-67968419D02*
X208487963Y-68016038D01*
X208487963Y-68016038D02*
X208583201Y-68063657D01*
X208583201Y-68063657D02*
X208868915Y-68063657D01*
X208868915Y-68063657D02*
X208964153Y-68016038D01*
X208964153Y-68016038D02*
X209011772Y-67968419D01*
X209011772Y-67968419D02*
X209059391Y-67873181D01*
X209059391Y-67873181D02*
X209059391Y-67730324D01*
X209059391Y-67730324D02*
X209011772Y-67635086D01*
X209011772Y-67635086D02*
X208964153Y-67587467D01*
X208964153Y-67587467D02*
X208868915Y-67539848D01*
X208868915Y-67539848D02*
X208583201Y-67539848D01*
X208583201Y-67539848D02*
X208487963Y-67587467D01*
X208487963Y-67587467D02*
X208440344Y-67635086D01*
X208440344Y-67635086D02*
X208392724Y-67730324D01*
X208392724Y-67730324D02*
X208392724Y-67873181D01*
X208440344Y-67158895D02*
X208392724Y-67063657D01*
X208392724Y-67063657D02*
X208392724Y-66873181D01*
X208392724Y-66873181D02*
X208440344Y-66777943D01*
X208440344Y-66777943D02*
X208535582Y-66730324D01*
X208535582Y-66730324D02*
X208583201Y-66730324D01*
X208583201Y-66730324D02*
X208678439Y-66777943D01*
X208678439Y-66777943D02*
X208726058Y-66873181D01*
X208726058Y-66873181D02*
X208726058Y-67016038D01*
X208726058Y-67016038D02*
X208773677Y-67111276D01*
X208773677Y-67111276D02*
X208868915Y-67158895D01*
X208868915Y-67158895D02*
X208916534Y-67158895D01*
X208916534Y-67158895D02*
X209011772Y-67111276D01*
X209011772Y-67111276D02*
X209059391Y-67016038D01*
X209059391Y-67016038D02*
X209059391Y-66873181D01*
X209059391Y-66873181D02*
X209011772Y-66777943D01*
X208440344Y-65920800D02*
X208392724Y-66016038D01*
X208392724Y-66016038D02*
X208392724Y-66206514D01*
X208392724Y-66206514D02*
X208440344Y-66301752D01*
X208440344Y-66301752D02*
X208535582Y-66349371D01*
X208535582Y-66349371D02*
X208916534Y-66349371D01*
X208916534Y-66349371D02*
X209011772Y-66301752D01*
X209011772Y-66301752D02*
X209059391Y-66206514D01*
X209059391Y-66206514D02*
X209059391Y-66016038D01*
X209059391Y-66016038D02*
X209011772Y-65920800D01*
X209011772Y-65920800D02*
X208916534Y-65873181D01*
X208916534Y-65873181D02*
X208821296Y-65873181D01*
X208821296Y-65873181D02*
X208726058Y-66349371D01*
X207782780Y-79444612D02*
X207068495Y-79444612D01*
X207068495Y-79444612D02*
X206925638Y-79492231D01*
X206925638Y-79492231D02*
X206830400Y-79587469D01*
X206830400Y-79587469D02*
X206782780Y-79730326D01*
X206782780Y-79730326D02*
X206782780Y-79825564D01*
X206782780Y-78539850D02*
X207306590Y-78539850D01*
X207306590Y-78539850D02*
X207401828Y-78587469D01*
X207401828Y-78587469D02*
X207449447Y-78682707D01*
X207449447Y-78682707D02*
X207449447Y-78873183D01*
X207449447Y-78873183D02*
X207401828Y-78968421D01*
X206830400Y-78539850D02*
X206782780Y-78635088D01*
X206782780Y-78635088D02*
X206782780Y-78873183D01*
X206782780Y-78873183D02*
X206830400Y-78968421D01*
X206830400Y-78968421D02*
X206925638Y-79016040D01*
X206925638Y-79016040D02*
X207020876Y-79016040D01*
X207020876Y-79016040D02*
X207116114Y-78968421D01*
X207116114Y-78968421D02*
X207163733Y-78873183D01*
X207163733Y-78873183D02*
X207163733Y-78635088D01*
X207163733Y-78635088D02*
X207211352Y-78539850D01*
X206830400Y-77635088D02*
X206782780Y-77730326D01*
X206782780Y-77730326D02*
X206782780Y-77920802D01*
X206782780Y-77920802D02*
X206830400Y-78016040D01*
X206830400Y-78016040D02*
X206878019Y-78063659D01*
X206878019Y-78063659D02*
X206973257Y-78111278D01*
X206973257Y-78111278D02*
X207258971Y-78111278D01*
X207258971Y-78111278D02*
X207354209Y-78063659D01*
X207354209Y-78063659D02*
X207401828Y-78016040D01*
X207401828Y-78016040D02*
X207449447Y-77920802D01*
X207449447Y-77920802D02*
X207449447Y-77730326D01*
X207449447Y-77730326D02*
X207401828Y-77635088D01*
X206782780Y-77063659D02*
X206830400Y-77158897D01*
X206830400Y-77158897D02*
X206878019Y-77206516D01*
X206878019Y-77206516D02*
X206973257Y-77254135D01*
X206973257Y-77254135D02*
X207258971Y-77254135D01*
X207258971Y-77254135D02*
X207354209Y-77206516D01*
X207354209Y-77206516D02*
X207401828Y-77158897D01*
X207401828Y-77158897D02*
X207449447Y-77063659D01*
X207449447Y-77063659D02*
X207449447Y-76920802D01*
X207449447Y-76920802D02*
X207401828Y-76825564D01*
X207401828Y-76825564D02*
X207354209Y-76777945D01*
X207354209Y-76777945D02*
X207258971Y-76730326D01*
X207258971Y-76730326D02*
X206973257Y-76730326D01*
X206973257Y-76730326D02*
X206878019Y-76777945D01*
X206878019Y-76777945D02*
X206830400Y-76825564D01*
X206830400Y-76825564D02*
X206782780Y-76920802D01*
X206782780Y-76920802D02*
X206782780Y-77063659D01*
X206782780Y-76301754D02*
X207782780Y-76301754D01*
X207401828Y-76301754D02*
X207449447Y-76206516D01*
X207449447Y-76206516D02*
X207449447Y-76016040D01*
X207449447Y-76016040D02*
X207401828Y-75920802D01*
X207401828Y-75920802D02*
X207354209Y-75873183D01*
X207354209Y-75873183D02*
X207258971Y-75825564D01*
X207258971Y-75825564D02*
X206973257Y-75825564D01*
X206973257Y-75825564D02*
X206878019Y-75873183D01*
X206878019Y-75873183D02*
X206830400Y-75920802D01*
X206830400Y-75920802D02*
X206782780Y-76016040D01*
X206782780Y-76016040D02*
X206782780Y-76206516D01*
X206782780Y-76206516D02*
X206830400Y-76301754D01*
X207782780Y-74777944D02*
X207782780Y-74206516D01*
X206782780Y-74492230D02*
X207782780Y-74492230D01*
X206782780Y-73730325D02*
X206830400Y-73825563D01*
X206830400Y-73825563D02*
X206878019Y-73873182D01*
X206878019Y-73873182D02*
X206973257Y-73920801D01*
X206973257Y-73920801D02*
X207258971Y-73920801D01*
X207258971Y-73920801D02*
X207354209Y-73873182D01*
X207354209Y-73873182D02*
X207401828Y-73825563D01*
X207401828Y-73825563D02*
X207449447Y-73730325D01*
X207449447Y-73730325D02*
X207449447Y-73587468D01*
X207449447Y-73587468D02*
X207401828Y-73492230D01*
X207401828Y-73492230D02*
X207354209Y-73444611D01*
X207354209Y-73444611D02*
X207258971Y-73396992D01*
X207258971Y-73396992D02*
X206973257Y-73396992D01*
X206973257Y-73396992D02*
X206878019Y-73444611D01*
X206878019Y-73444611D02*
X206830400Y-73492230D01*
X206830400Y-73492230D02*
X206782780Y-73587468D01*
X206782780Y-73587468D02*
X206782780Y-73730325D01*
X206782780Y-72968420D02*
X207449447Y-72968420D01*
X207354209Y-72968420D02*
X207401828Y-72920801D01*
X207401828Y-72920801D02*
X207449447Y-72825563D01*
X207449447Y-72825563D02*
X207449447Y-72682706D01*
X207449447Y-72682706D02*
X207401828Y-72587468D01*
X207401828Y-72587468D02*
X207306590Y-72539849D01*
X207306590Y-72539849D02*
X206782780Y-72539849D01*
X207306590Y-72539849D02*
X207401828Y-72492230D01*
X207401828Y-72492230D02*
X207449447Y-72396992D01*
X207449447Y-72396992D02*
X207449447Y-72254135D01*
X207449447Y-72254135D02*
X207401828Y-72158896D01*
X207401828Y-72158896D02*
X207306590Y-72111277D01*
X207306590Y-72111277D02*
X206782780Y-72111277D01*
X206830400Y-71206516D02*
X206782780Y-71301754D01*
X206782780Y-71301754D02*
X206782780Y-71492230D01*
X206782780Y-71492230D02*
X206830400Y-71587468D01*
X206830400Y-71587468D02*
X206878019Y-71635087D01*
X206878019Y-71635087D02*
X206973257Y-71682706D01*
X206973257Y-71682706D02*
X207258971Y-71682706D01*
X207258971Y-71682706D02*
X207354209Y-71635087D01*
X207354209Y-71635087D02*
X207401828Y-71587468D01*
X207401828Y-71587468D02*
X207449447Y-71492230D01*
X207449447Y-71492230D02*
X207449447Y-71301754D01*
X207449447Y-71301754D02*
X207401828Y-71206516D01*
X207449447Y-70873182D02*
X207449447Y-70349373D01*
X207449447Y-70349373D02*
X206782780Y-70873182D01*
X206782780Y-70873182D02*
X206782780Y-70349373D01*
X206830400Y-69587468D02*
X206782780Y-69682706D01*
X206782780Y-69682706D02*
X206782780Y-69873182D01*
X206782780Y-69873182D02*
X206830400Y-69968420D01*
X206830400Y-69968420D02*
X206925638Y-70016039D01*
X206925638Y-70016039D02*
X207306590Y-70016039D01*
X207306590Y-70016039D02*
X207401828Y-69968420D01*
X207401828Y-69968420D02*
X207449447Y-69873182D01*
X207449447Y-69873182D02*
X207449447Y-69682706D01*
X207449447Y-69682706D02*
X207401828Y-69587468D01*
X207401828Y-69587468D02*
X207306590Y-69539849D01*
X207306590Y-69539849D02*
X207211352Y-69539849D01*
X207211352Y-69539849D02*
X207116114Y-70016039D01*
X206830400Y-69158896D02*
X206782780Y-69063658D01*
X206782780Y-69063658D02*
X206782780Y-68873182D01*
X206782780Y-68873182D02*
X206830400Y-68777944D01*
X206830400Y-68777944D02*
X206925638Y-68730325D01*
X206925638Y-68730325D02*
X206973257Y-68730325D01*
X206973257Y-68730325D02*
X207068495Y-68777944D01*
X207068495Y-68777944D02*
X207116114Y-68873182D01*
X207116114Y-68873182D02*
X207116114Y-69016039D01*
X207116114Y-69016039D02*
X207163733Y-69111277D01*
X207163733Y-69111277D02*
X207258971Y-69158896D01*
X207258971Y-69158896D02*
X207306590Y-69158896D01*
X207306590Y-69158896D02*
X207401828Y-69111277D01*
X207401828Y-69111277D02*
X207449447Y-69016039D01*
X207449447Y-69016039D02*
X207449447Y-68873182D01*
X207449447Y-68873182D02*
X207401828Y-68777944D01*
X207449447Y-68396991D02*
X207449447Y-67873182D01*
X207449447Y-67873182D02*
X206782780Y-68396991D01*
X206782780Y-68396991D02*
X206782780Y-67873182D01*
X207449447Y-67587467D02*
X206782780Y-67349372D01*
X207449447Y-67111277D02*
X206782780Y-67349372D01*
X206782780Y-67349372D02*
X206544685Y-67444610D01*
X206544685Y-67444610D02*
X206497066Y-67492229D01*
X206497066Y-67492229D02*
X206449447Y-67587467D01*
X207449447Y-66730324D02*
X206782780Y-66730324D01*
X207354209Y-66730324D02*
X207401828Y-66682705D01*
X207401828Y-66682705D02*
X207449447Y-66587467D01*
X207449447Y-66587467D02*
X207449447Y-66444610D01*
X207449447Y-66444610D02*
X207401828Y-66349372D01*
X207401828Y-66349372D02*
X207306590Y-66301753D01*
X207306590Y-66301753D02*
X206782780Y-66301753D01*
D12*
X196760000Y-71620000D02*
G75*
G02*
X194220000Y-74160000I-2540001J1D01*
G01*
X194220000Y-53840000D02*
G75*
G02*
X196759998Y-56380000I-1J-2539999D01*
G01*
X178980000Y-74160000D02*
G75*
G02*
X176440000Y-71620000I1J2540001D01*
G01*
X176440000Y-56380000D02*
G75*
G02*
X178980000Y-53840000I2539999J1D01*
G01*
X196760000Y-71620000D02*
X196760000Y-56380000D01*
X194220000Y-53840000D02*
X178980000Y-53840000D01*
X178980000Y-74160000D02*
X194220000Y-74160000D01*
X176440000Y-56380000D02*
X176440000Y-71620000D01*
%LPC*%
D13*
X141261600Y-78620000D03*
X143801600Y-78620000D03*
X146341600Y-78620000D03*
X148881600Y-78620000D03*
X151421600Y-78620000D03*
X153961600Y-78620000D03*
D14*
X156501600Y-78620000D03*
X159041600Y-78620000D03*
X161581600Y-78620000D03*
X164121600Y-78620000D03*
D13*
X166661600Y-78620000D03*
D14*
X169201600Y-78620000D03*
X171741600Y-78620000D03*
X174281600Y-78620000D03*
X174281601Y-76080000D03*
X174281600Y-73540000D03*
X174281600Y-71000000D03*
X174281600Y-68460000D03*
X174281601Y-65920000D03*
X174281600Y-63380000D03*
D13*
X171741600Y-63380000D03*
X169201600Y-63380000D03*
X166661600Y-63380000D03*
X164121600Y-63380000D03*
X161581600Y-63380000D03*
X159041600Y-63380000D03*
X156501600Y-63380000D03*
X153961600Y-63380000D03*
X151421600Y-63380000D03*
X148881600Y-63380000D03*
X146341600Y-63380000D03*
X143801600Y-63380000D03*
X141261600Y-63380000D03*
D15*
X169201600Y-65920000D03*
D16*
X166661600Y-65920000D03*
D15*
X169201600Y-68460000D03*
D16*
X166661600Y-68460000D03*
D15*
X169201601Y-71000000D03*
D16*
X166661599Y-71000000D03*
D15*
X169201600Y-73540000D03*
D16*
X166661600Y-73540000D03*
D15*
X169201600Y-76080000D03*
D16*
X166661600Y-76080000D03*
D17*
X178750000Y-77000000D03*
D18*
X161149999Y-57400000D03*
X159900000Y-57400000D03*
D19*
X158649999Y-57400000D03*
D18*
X157400000Y-57400000D03*
D13*
X198950000Y-72710000D03*
X198950000Y-77790000D03*
X204030000Y-72710000D03*
X204030000Y-77790000D03*
D20*
X201717500Y-61500000D03*
D21*
X201717500Y-64000000D03*
X201717500Y-66500000D03*
D19*
X152900000Y-57400000D03*
D18*
X151650000Y-57400000D03*
X169149999Y-57400000D03*
X167900000Y-57400000D03*
D19*
X166649999Y-57400000D03*
D18*
X165400000Y-57400000D03*
D17*
X174000000Y-56000000D03*
X146000000Y-56000000D03*
D22*
X203900000Y-56500000D03*
D23*
X203900000Y-55250001D03*
D22*
X203900000Y-54000000D03*
D24*
X195500000Y-78000000D03*
X190500000Y-78000000D03*
X196500000Y-75500000D03*
X189500000Y-75500000D03*
D25*
X178980000Y-71620000D03*
X178980000Y-69080000D03*
X178980000Y-66540000D03*
X178980000Y-64000000D03*
X178980000Y-61460000D03*
X178980000Y-58920000D03*
X178980000Y-56380000D03*
D17*
X194220000Y-56380000D03*
X194220000Y-71620000D03*
%LPD*%
M02*
