G04 #@! TF.GenerationSoftware,KiCad,Pcbnew,8.0.5-8.0.5-0~ubuntu20.04.1*
G04 #@! TF.CreationDate,2025-03-19T18:53:30-05:00*
G04 #@! TF.ProjectId,Alex_Teensy4_PCB,416c6578-5f54-4656-956e-7379345f5043,rev?*
G04 #@! TF.SameCoordinates,Original*
G04 #@! TF.FileFunction,Copper,L1,Top*
G04 #@! TF.FilePolarity,Positive*
%FSLAX46Y46*%
G04 Gerber Fmt 4.6, Leading zero omitted, Abs format (unit mm)*
G04 Created by KiCad (PCBNEW 8.0.5-8.0.5-0~ubuntu20.04.1) date 2025-03-19 18:53:30*
%MOMM*%
%LPD*%
G01*
G04 APERTURE LIST*
G04 Aperture macros list*
%AMRoundRect*
0 Rectangle with rounded corners*
0 $1 Rounding radius*
0 $2 $3 $4 $5 $6 $7 $8 $9 X,Y pos of 4 corners*
0 Add a 4 corners polygon primitive as box body*
4,1,4,$2,$3,$4,$5,$6,$7,$8,$9,$2,$3,0*
0 Add four circle primitives for the rounded corners*
1,1,$1+$1,$2,$3*
1,1,$1+$1,$4,$5*
1,1,$1+$1,$6,$7*
1,1,$1+$1,$8,$9*
0 Add four rect primitives between the rounded corners*
20,1,$1+$1,$2,$3,$4,$5,0*
20,1,$1+$1,$4,$5,$6,$7,0*
20,1,$1+$1,$6,$7,$8,$9,0*
20,1,$1+$1,$8,$9,$2,$3,0*%
%AMFreePoly0*
4,1,32,0.231202,0.609631,0.329576,0.558000,2.032000,0.558000,2.067355,0.543355,2.082000,0.508000,2.082000,-0.508000,2.067355,-0.543355,2.032000,-0.558000,0.329576,-0.558000,0.231202,-0.609631,0.078590,-0.647246,-0.078590,-0.647246,-0.231202,-0.609631,-0.329576,-0.558000,-0.508000,-0.558000,-0.543355,-0.543355,-0.558000,-0.508000,-0.558000,-0.330985,-0.577317,-0.303000,-0.633054,-0.156034,
-0.652000,0.000000,-0.633054,0.156034,-0.577317,0.303000,-0.558000,0.330985,-0.558000,0.508000,-0.543355,0.543355,-0.508000,0.558000,-0.329576,0.558000,-0.231202,0.609631,-0.078590,0.647246,0.078590,0.647246,0.231202,0.609631,0.231202,0.609631,$1*%
%AMFreePoly1*
4,1,32,0.231202,0.609631,0.329576,0.558000,0.508000,0.558000,0.543355,0.543355,0.558000,0.508000,0.558000,0.330985,0.577317,0.303000,0.633054,0.156034,0.652000,0.000000,0.633054,-0.156034,0.577317,-0.303000,0.558000,-0.330985,0.558000,-0.508000,0.543355,-0.543355,0.508000,-0.558000,0.329576,-0.558000,0.231202,-0.609631,0.078590,-0.647246,-0.078590,-0.647246,-0.231202,-0.609631,
-0.329576,-0.558000,-2.032000,-0.558000,-2.067355,-0.543355,-2.082000,-0.508000,-2.082000,0.508000,-2.067355,0.543355,-2.032000,0.558000,-0.329576,0.558000,-0.231202,0.609631,-0.078590,0.647246,0.078590,0.647246,0.231202,0.609631,0.231202,0.609631,$1*%
G04 Aperture macros list end*
G04 #@! TA.AperFunction,SMDPad,CuDef*
%ADD10RoundRect,0.160000X-0.160000X0.222500X-0.160000X-0.222500X0.160000X-0.222500X0.160000X0.222500X0*%
G04 #@! TD*
G04 #@! TA.AperFunction,ComponentPad*
%ADD11C,1.700000*%
G04 #@! TD*
G04 #@! TA.AperFunction,ComponentPad*
%ADD12C,1.404000*%
G04 #@! TD*
G04 #@! TA.AperFunction,ComponentPad*
%ADD13FreePoly0,0.000000*%
G04 #@! TD*
G04 #@! TA.AperFunction,ComponentPad*
%ADD14FreePoly1,0.000000*%
G04 #@! TD*
G04 #@! TA.AperFunction,SMDPad,CuDef*
%ADD15RoundRect,0.250000X-0.337500X-0.475000X0.337500X-0.475000X0.337500X0.475000X-0.337500X0.475000X0*%
G04 #@! TD*
G04 #@! TA.AperFunction,ComponentPad*
%ADD16C,3.200000*%
G04 #@! TD*
G04 #@! TA.AperFunction,SMDPad,CuDef*
%ADD17RoundRect,0.250000X-1.250000X-0.550000X1.250000X-0.550000X1.250000X0.550000X-1.250000X0.550000X0*%
G04 #@! TD*
G04 #@! TA.AperFunction,ComponentPad*
%ADD18O,0.800000X1.300000*%
G04 #@! TD*
G04 #@! TA.AperFunction,ComponentPad*
%ADD19RoundRect,0.200000X0.200000X0.450000X-0.200000X0.450000X-0.200000X-0.450000X0.200000X-0.450000X0*%
G04 #@! TD*
G04 #@! TA.AperFunction,SMDPad,CuDef*
%ADD20R,0.400000X1.100000*%
G04 #@! TD*
G04 #@! TA.AperFunction,SMDPad,CuDef*
%ADD21RoundRect,0.250000X-0.475000X0.337500X-0.475000X-0.337500X0.475000X-0.337500X0.475000X0.337500X0*%
G04 #@! TD*
G04 #@! TA.AperFunction,SMDPad,CuDef*
%ADD22RoundRect,0.250000X-0.262500X-0.450000X0.262500X-0.450000X0.262500X0.450000X-0.262500X0.450000X0*%
G04 #@! TD*
G04 #@! TA.AperFunction,SMDPad,CuDef*
%ADD23RoundRect,0.150000X0.512500X0.150000X-0.512500X0.150000X-0.512500X-0.150000X0.512500X-0.150000X0*%
G04 #@! TD*
G04 #@! TA.AperFunction,SMDPad,CuDef*
%ADD24RoundRect,0.051250X0.153750X-0.733750X0.153750X0.733750X-0.153750X0.733750X-0.153750X-0.733750X0*%
G04 #@! TD*
G04 #@! TA.AperFunction,SMDPad,CuDef*
%ADD25RoundRect,0.250000X-0.450000X0.262500X-0.450000X-0.262500X0.450000X-0.262500X0.450000X0.262500X0*%
G04 #@! TD*
G04 #@! TA.AperFunction,ComponentPad*
%ADD26RoundRect,0.250000X-0.725000X0.600000X-0.725000X-0.600000X0.725000X-0.600000X0.725000X0.600000X0*%
G04 #@! TD*
G04 #@! TA.AperFunction,ComponentPad*
%ADD27O,1.950000X1.700000*%
G04 #@! TD*
G04 #@! TA.AperFunction,SMDPad,CuDef*
%ADD28RoundRect,0.250000X0.475000X-0.337500X0.475000X0.337500X-0.475000X0.337500X-0.475000X-0.337500X0*%
G04 #@! TD*
G04 #@! TA.AperFunction,ComponentPad*
%ADD29O,1.300000X0.800000*%
G04 #@! TD*
G04 #@! TA.AperFunction,ComponentPad*
%ADD30RoundRect,0.200000X0.450000X-0.200000X0.450000X0.200000X-0.450000X0.200000X-0.450000X-0.200000X0*%
G04 #@! TD*
G04 #@! TA.AperFunction,ComponentPad*
%ADD31C,2.000000*%
G04 #@! TD*
G04 #@! TA.AperFunction,SMDPad,CuDef*
%ADD32RoundRect,0.250000X0.450000X-0.262500X0.450000X0.262500X-0.450000X0.262500X-0.450000X-0.262500X0*%
G04 #@! TD*
G04 #@! TA.AperFunction,ComponentPad*
%ADD33C,1.778000*%
G04 #@! TD*
G04 #@! TA.AperFunction,ViaPad*
%ADD34C,0.508000*%
G04 #@! TD*
G04 #@! TA.AperFunction,Conductor*
%ADD35C,0.203200*%
G04 #@! TD*
G04 #@! TA.AperFunction,Conductor*
%ADD36C,0.762000*%
G04 #@! TD*
G04 #@! TA.AperFunction,Conductor*
%ADD37C,0.508000*%
G04 #@! TD*
G04 #@! TA.AperFunction,Conductor*
%ADD38C,0.254000*%
G04 #@! TD*
G04 #@! TA.AperFunction,Conductor*
%ADD39C,0.200000*%
G04 #@! TD*
G04 #@! TA.AperFunction,Conductor*
%ADD40C,0.381000*%
G04 #@! TD*
G04 #@! TA.AperFunction,Conductor*
%ADD41C,1.270000*%
G04 #@! TD*
G04 #@! TA.AperFunction,Conductor*
%ADD42C,1.524000*%
G04 #@! TD*
G04 #@! TA.AperFunction,Conductor*
%ADD43C,1.016000*%
G04 #@! TD*
G04 #@! TA.AperFunction,Conductor*
%ADD44C,0.304800*%
G04 #@! TD*
G04 #@! TA.AperFunction,Conductor*
%ADD45C,0.152400*%
G04 #@! TD*
G04 APERTURE END LIST*
D10*
X142800000Y-52827499D03*
X142800000Y-53972501D03*
D11*
X141261600Y-78620000D03*
X143801600Y-78620000D03*
X146341600Y-78620000D03*
X148881600Y-78620000D03*
X151421600Y-78620000D03*
X153961600Y-78620000D03*
D12*
X156501600Y-78620000D03*
X159041600Y-78620000D03*
X161581600Y-78620000D03*
X164121600Y-78620000D03*
D11*
X166661600Y-78620000D03*
D12*
X169201600Y-78620000D03*
X171741600Y-78620000D03*
X174281600Y-78620000D03*
X174281601Y-76080000D03*
X174281600Y-73540000D03*
X174281600Y-71000000D03*
X174281600Y-68460000D03*
X174281601Y-65920000D03*
X174281600Y-63380000D03*
D11*
X171741600Y-63380000D03*
X169201600Y-63380000D03*
X166661600Y-63380000D03*
X164121600Y-63380000D03*
X161581600Y-63380000D03*
X159041600Y-63380000D03*
X156501600Y-63380000D03*
X153961600Y-63380000D03*
X151421600Y-63380000D03*
X148881600Y-63380000D03*
X146341600Y-63380000D03*
X143801600Y-63380000D03*
X141261600Y-63380000D03*
D13*
X169201600Y-65920000D03*
D14*
X166661600Y-65920000D03*
D13*
X169201600Y-68460000D03*
D14*
X166661600Y-68460000D03*
D13*
X169201601Y-71000000D03*
D14*
X166661599Y-71000000D03*
D13*
X169201600Y-73540000D03*
D14*
X166661600Y-73540000D03*
D13*
X169201600Y-76080000D03*
D14*
X166661600Y-76080000D03*
D15*
X194162500Y-62000000D03*
X196237500Y-62000000D03*
D16*
X178750000Y-77000000D03*
D17*
X190050000Y-66500000D03*
X194450000Y-66500000D03*
D18*
X161149999Y-57400000D03*
X159900000Y-57400000D03*
D19*
X158649999Y-57400000D03*
D18*
X157400000Y-57400000D03*
D20*
X185374998Y-61900000D03*
X186024999Y-61900000D03*
X186674999Y-61900000D03*
X187325000Y-61900000D03*
X187325000Y-57600000D03*
X186674999Y-57600000D03*
X186024999Y-57600000D03*
X185374998Y-57600000D03*
D21*
X182250000Y-75375000D03*
X182250000Y-77450000D03*
D22*
X189587500Y-62000000D03*
X191412500Y-62000000D03*
D23*
X191137500Y-55949999D03*
X191137500Y-55000000D03*
X191137500Y-54050001D03*
X188862500Y-54050001D03*
X188862500Y-55949999D03*
D24*
X181450000Y-73000000D03*
X182100000Y-73000000D03*
X182750000Y-73000000D03*
X183400000Y-73000000D03*
X184050000Y-73000000D03*
X184700000Y-73000000D03*
X185350000Y-73000000D03*
X186000000Y-73000000D03*
X186650000Y-73000000D03*
X187300000Y-73000000D03*
X187300000Y-67260000D03*
X186650000Y-67260000D03*
X186000000Y-67260000D03*
X185350000Y-67260000D03*
X184700000Y-67260000D03*
X184050000Y-67260000D03*
X183400000Y-67260000D03*
X182750000Y-67260000D03*
X182100000Y-67260000D03*
X181450000Y-67260000D03*
D11*
X198950000Y-72710000D03*
X198950000Y-77790000D03*
X204030000Y-72710000D03*
X204030000Y-77790000D03*
D25*
X144000000Y-59087500D03*
X144000000Y-60912500D03*
D26*
X201717500Y-61500000D03*
D27*
X201717500Y-64000000D03*
X201717500Y-66500000D03*
D21*
X200700000Y-54775000D03*
X200700000Y-56850000D03*
D28*
X182000000Y-59500000D03*
X182000000Y-57425000D03*
D10*
X141800000Y-52827499D03*
X141800000Y-53972501D03*
D19*
X152900000Y-57400000D03*
D18*
X151650000Y-57400000D03*
X169149999Y-57400000D03*
X167900000Y-57400000D03*
D19*
X166649999Y-57400000D03*
D18*
X165400000Y-57400000D03*
D22*
X184687500Y-55400000D03*
X186512500Y-55400000D03*
D21*
X182250000Y-62962500D03*
X182250000Y-65037500D03*
D25*
X148000000Y-59087500D03*
X148000000Y-60912500D03*
D16*
X174000000Y-56000000D03*
D28*
X141500000Y-61037500D03*
X141500000Y-58962500D03*
D16*
X146000000Y-56000000D03*
D25*
X146000000Y-59087500D03*
X146000000Y-60912500D03*
D29*
X203900000Y-56500000D03*
D30*
X203900000Y-55250001D03*
D29*
X203900000Y-54000000D03*
D31*
X195500000Y-78000000D03*
X190500000Y-78000000D03*
X196500000Y-75500000D03*
X189500000Y-75500000D03*
D10*
X140800000Y-52827499D03*
X140800000Y-53972501D03*
D32*
X187000001Y-77325000D03*
X187000001Y-75500000D03*
D22*
X189587500Y-60000000D03*
X191412500Y-60000000D03*
D33*
X178980000Y-71620000D03*
X178980000Y-69080000D03*
X178980000Y-66540000D03*
X178980000Y-64000000D03*
X178980000Y-61460000D03*
X178980000Y-58920000D03*
X178980000Y-56380000D03*
D16*
X194220000Y-56380000D03*
X194220000Y-71620000D03*
D34*
X141500000Y-58200000D03*
X182250000Y-61850000D03*
X152250000Y-53850000D03*
X187800000Y-65900000D03*
X192650000Y-54250000D03*
X186925000Y-63225000D03*
X177050000Y-67850000D03*
X178850000Y-54350000D03*
X162000000Y-54000000D03*
X176800000Y-57000000D03*
X183600000Y-56800000D03*
X177050000Y-72900000D03*
X144000000Y-52900000D03*
X176800000Y-58700000D03*
X176850000Y-60259000D03*
X196050000Y-65450000D03*
X175550000Y-71450000D03*
X196250000Y-60900000D03*
X175600000Y-66400000D03*
X163250000Y-52550000D03*
X184000000Y-61200000D03*
X191400000Y-58600000D03*
X142800000Y-60050000D03*
X189200000Y-63800000D03*
X185400000Y-78870000D03*
X186024999Y-56425001D03*
X185350001Y-63800000D03*
X183700000Y-68800000D03*
X186000000Y-70450000D03*
X185319100Y-71400000D03*
X188300000Y-59670000D03*
X188300000Y-62949479D03*
X175735000Y-65275000D03*
X175200000Y-59815600D03*
X182600000Y-68700000D03*
X172150000Y-58200000D03*
X168500000Y-56400000D03*
X172082267Y-61039392D03*
X172250000Y-66500000D03*
X168600000Y-55000000D03*
X170950000Y-59400000D03*
X181350000Y-71000000D03*
X180850000Y-63650000D03*
X180850000Y-62150000D03*
X173125000Y-59575000D03*
X183300000Y-65800000D03*
X172650000Y-60350000D03*
X184050000Y-65050000D03*
X149800000Y-62011000D03*
X142900000Y-61850000D03*
X191400000Y-74401004D03*
X182850777Y-74344726D03*
X183700000Y-79530000D03*
X183700000Y-77250000D03*
X188400000Y-73200000D03*
X180770000Y-74410000D03*
X183700000Y-78730000D03*
D35*
X172650000Y-60350000D02*
X172600000Y-60400000D01*
X172600000Y-60400000D02*
X160046800Y-60400000D01*
X160046800Y-60400000D02*
X157400000Y-57753200D01*
X157400000Y-57753200D02*
X157400000Y-57400000D01*
D36*
X182625000Y-56800000D02*
X182000000Y-57425000D01*
X189825000Y-77325000D02*
X190500000Y-78000000D01*
D37*
X176800000Y-58700000D02*
X176800000Y-55100000D01*
X163000000Y-56250000D02*
X159314000Y-56250000D01*
D38*
X187300000Y-66400000D02*
X187300000Y-67260000D01*
D37*
X176800000Y-55100000D02*
X177550000Y-54350000D01*
X158649999Y-56914001D02*
X158649999Y-57400000D01*
D36*
X184687500Y-55400000D02*
X184687500Y-55712500D01*
X202299999Y-55250001D02*
X203900000Y-55250001D01*
D38*
X187325000Y-62825000D02*
X187325000Y-61900000D01*
D39*
X143199999Y-52935000D02*
X141000000Y-52935000D01*
X143234999Y-52900000D02*
X143199999Y-52935000D01*
D37*
X158649999Y-56750000D02*
X155749999Y-53850000D01*
X166649999Y-57400000D02*
X166649999Y-56750000D01*
X177041001Y-67858999D02*
X177041001Y-69958999D01*
X177050000Y-75300000D02*
X178750000Y-77000000D01*
D36*
X195500000Y-65450000D02*
X194450000Y-66500000D01*
D37*
X176850000Y-65580000D02*
X176850000Y-60259000D01*
D36*
X182250000Y-62962500D02*
X182250000Y-61850000D01*
D38*
X178750000Y-77000000D02*
X181800000Y-77000000D01*
D40*
X162000000Y-54000000D02*
X162000000Y-55250000D01*
D37*
X177050000Y-67850000D02*
X177041001Y-67858999D01*
D36*
X187000001Y-77325000D02*
X189825000Y-77325000D01*
D37*
X177550000Y-54350000D02*
X178850000Y-54350000D01*
D40*
X191900000Y-55000000D02*
X192650000Y-54250000D01*
D37*
X155749999Y-53850000D02*
X152250000Y-53850000D01*
D36*
X196237500Y-60912500D02*
X196250000Y-60900000D01*
D38*
X187800000Y-65900000D02*
X187300000Y-66400000D01*
D40*
X163250000Y-52750000D02*
X162000000Y-54000000D01*
D37*
X177041001Y-69958999D02*
X175550000Y-71450000D01*
X166649999Y-56750000D02*
X166149999Y-56250000D01*
X159314000Y-56250000D02*
X158649999Y-56914001D01*
X158649999Y-57400000D02*
X158649999Y-56750000D01*
D38*
X186925000Y-63225000D02*
X187325000Y-62825000D01*
D37*
X175600000Y-66400000D02*
X176030000Y-66400000D01*
D36*
X183600000Y-56800000D02*
X182625000Y-56800000D01*
D40*
X162000000Y-55250000D02*
X163000000Y-56250000D01*
X163250000Y-52550000D02*
X163250000Y-52750000D01*
D37*
X176030000Y-66400000D02*
X176850000Y-65580000D01*
X177050000Y-72900000D02*
X177050000Y-75300000D01*
D36*
X196050000Y-65450000D02*
X195500000Y-65450000D01*
X196237500Y-62000000D02*
X196237500Y-60912500D01*
D40*
X191137500Y-55000000D02*
X191900000Y-55000000D01*
D36*
X200700000Y-56850000D02*
X202299999Y-55250001D01*
D37*
X141500000Y-58200000D02*
X141500000Y-58962500D01*
D39*
X144000000Y-52900000D02*
X143234999Y-52900000D01*
D37*
X166149999Y-56250000D02*
X163000000Y-56250000D01*
D36*
X184687500Y-55712500D02*
X183600000Y-56800000D01*
D41*
X203900000Y-54000000D02*
X200600000Y-54000000D01*
X198800000Y-55800000D02*
X198800000Y-63000000D01*
X198800000Y-63000000D02*
X199800000Y-64000000D01*
X200600000Y-54000000D02*
X198800000Y-55800000D01*
X199800000Y-64000000D02*
X201717500Y-64000000D01*
D36*
X141812500Y-61037500D02*
X142800000Y-60050000D01*
X191412500Y-62000000D02*
X191412500Y-65137500D01*
D38*
X185374998Y-57600000D02*
X185374998Y-58425002D01*
D37*
X189800000Y-54816658D02*
X189800000Y-55183342D01*
D42*
X141500000Y-61100000D02*
X141261600Y-61338400D01*
D38*
X184300000Y-59500000D02*
X182000000Y-59500000D01*
D37*
X189800000Y-54816658D02*
X191616658Y-53000000D01*
X190566657Y-55949999D02*
X191137500Y-55949999D01*
D36*
X170345000Y-54255000D02*
X170345000Y-56204999D01*
X193924400Y-53000000D02*
X171600000Y-53000000D01*
D43*
X195800000Y-68800000D02*
X192350000Y-68800000D01*
X198950000Y-72710000D02*
X198950000Y-71950000D01*
D36*
X197100000Y-54400000D02*
X195700000Y-53000000D01*
D37*
X191137500Y-54050001D02*
X190566657Y-54050001D01*
D36*
X194162500Y-61137500D02*
X194162500Y-62000000D01*
D43*
X192350000Y-68800000D02*
X190050000Y-66500000D01*
D42*
X141500000Y-61037500D02*
X141500000Y-61100000D01*
D43*
X190050000Y-66500000D02*
X191400000Y-65150000D01*
X194162500Y-62387500D02*
X190050000Y-66500000D01*
D36*
X191400000Y-61987500D02*
X191412500Y-62000000D01*
X141500000Y-61037500D02*
X141812500Y-61037500D01*
X184000000Y-61200000D02*
X183700000Y-61200000D01*
D38*
X185374998Y-58425002D02*
X184300000Y-59500000D01*
D36*
X195700000Y-53000000D02*
X193924400Y-53000000D01*
X170345000Y-56204999D02*
X169149999Y-57400000D01*
D37*
X189800000Y-55183342D02*
X190566657Y-55949999D01*
D40*
X182100001Y-67260000D02*
X182100001Y-65187499D01*
D37*
X190566657Y-54050001D02*
X189800000Y-54816658D01*
D36*
X191412500Y-65137500D02*
X190050000Y-66500000D01*
D43*
X198950000Y-71950000D02*
X195800000Y-68800000D01*
D36*
X197100000Y-54400000D02*
X197100000Y-58200000D01*
X197100000Y-58200000D02*
X194162500Y-61137500D01*
X191400000Y-58600000D02*
X191400000Y-61987500D01*
X184000000Y-63287500D02*
X184000000Y-61200000D01*
D42*
X141261600Y-61338400D02*
X141261600Y-63380000D01*
D37*
X141500000Y-63141600D02*
X141261600Y-63380000D01*
D42*
X141500000Y-61100000D02*
X141200000Y-61400000D01*
D36*
X171600000Y-53000000D02*
X170345000Y-54255000D01*
D37*
X191616658Y-53000000D02*
X193924400Y-53000000D01*
D36*
X183700000Y-61200000D02*
X182000000Y-59500000D01*
D40*
X182100001Y-65187499D02*
X182250000Y-65037500D01*
D43*
X194162500Y-62000000D02*
X194162500Y-62387500D01*
D36*
X182250000Y-65037500D02*
X184000000Y-63287500D01*
D44*
X187600000Y-53800000D02*
X183200000Y-53800000D01*
X187800000Y-54000000D02*
X187600000Y-53800000D01*
X182100001Y-72190233D02*
X181529768Y-71620000D01*
X182100001Y-73000000D02*
X182100001Y-75225001D01*
X188862500Y-55949999D02*
X187800000Y-54887499D01*
X183200000Y-53800000D02*
X180221400Y-56778600D01*
X182100001Y-73000000D02*
X182100001Y-72190233D01*
X180221400Y-56778600D02*
X180221400Y-70378600D01*
X181529768Y-71620000D02*
X178980000Y-71620000D01*
X180221400Y-70378600D02*
X178980000Y-71620000D01*
X182100001Y-75225001D02*
X182250000Y-75375000D01*
X187800000Y-54887499D02*
X187800000Y-54000000D01*
D39*
X147200000Y-53800000D02*
X144850000Y-53800000D01*
X144200000Y-54450000D02*
X143277499Y-54450000D01*
X148000000Y-59087500D02*
X148000000Y-54600000D01*
X148000000Y-54600000D02*
X147200000Y-53800000D01*
X143277499Y-54450000D02*
X142800000Y-53972501D01*
X144850000Y-53800000D02*
X144200000Y-54450000D01*
X142000000Y-55087500D02*
X146000000Y-59087500D01*
X142000000Y-53750000D02*
X142000000Y-55087500D01*
X141000000Y-56087500D02*
X144000000Y-59087500D01*
X141000000Y-53750000D02*
X141000000Y-56087500D01*
D38*
X186252000Y-61148000D02*
X186756407Y-61148000D01*
X186674999Y-61229408D02*
X186756407Y-61148000D01*
X186024999Y-61900000D02*
X186024999Y-61375001D01*
X186570000Y-60830000D02*
X188417500Y-60830000D01*
X189587500Y-63412500D02*
X189200000Y-63800000D01*
X188417500Y-60830000D02*
X189587500Y-62000000D01*
X186674999Y-61900000D02*
X186674999Y-61229408D01*
X186252000Y-61148000D02*
X186570000Y-60830000D01*
X186024999Y-61375001D02*
X186252000Y-61148000D01*
X189587500Y-62000000D02*
X189587500Y-63412500D01*
D43*
X203900000Y-69963345D02*
X203900000Y-56500000D01*
X198950000Y-74913345D02*
X203900000Y-69963345D01*
X198950000Y-77790000D02*
X198950000Y-74913345D01*
D39*
X186100000Y-75500000D02*
X187000001Y-75500000D01*
X185400000Y-76200000D02*
X186100000Y-75500000D01*
X185400000Y-78870000D02*
X185400000Y-76200000D01*
X187300000Y-75200001D02*
X187000001Y-75500000D01*
X187300000Y-73000000D02*
X187300000Y-75200001D01*
D38*
X185900000Y-60000000D02*
X184708000Y-61192000D01*
D39*
X187900000Y-56700000D02*
X189587500Y-58387500D01*
X186865090Y-56700000D02*
X187900000Y-56700000D01*
D38*
X184708000Y-61192000D02*
X184708000Y-67252000D01*
X189587500Y-60000000D02*
X189267500Y-60320000D01*
X186404408Y-60000000D02*
X185900000Y-60000000D01*
X184708000Y-67252000D02*
X184700000Y-67260000D01*
D39*
X186674999Y-57600000D02*
X186674999Y-56890091D01*
X186674999Y-56890091D02*
X186865090Y-56700000D01*
D38*
X189267500Y-60320000D02*
X186724408Y-60320000D01*
X186724408Y-60320000D02*
X186404408Y-60000000D01*
D39*
X189587500Y-58387500D02*
X189587500Y-60000000D01*
D38*
X186512500Y-55937500D02*
X186512500Y-55400000D01*
X186024999Y-56425001D02*
X186512500Y-55937500D01*
X185350001Y-62349999D02*
X185350001Y-63800000D01*
X185350001Y-63800000D02*
X185350001Y-67260000D01*
X186024999Y-56425001D02*
X186024999Y-57600000D01*
D35*
X184700000Y-70800000D02*
X184700000Y-73000000D01*
X183700000Y-68800000D02*
X184900000Y-70000000D01*
X184900000Y-70000000D02*
X184900000Y-70600000D01*
X184900000Y-70600000D02*
X184700000Y-70800000D01*
X186000000Y-70450000D02*
X186000000Y-73000000D01*
X185319100Y-72969099D02*
X185350001Y-73000000D01*
X185319100Y-71400000D02*
X185319100Y-72969099D01*
D38*
X186000000Y-66486153D02*
X186000000Y-67260000D01*
X188300000Y-59670000D02*
X188700000Y-59270000D01*
X188300000Y-64186153D02*
X186000000Y-66486153D01*
X188100000Y-57600000D02*
X187325000Y-57600000D01*
X188700000Y-58200000D02*
X188100000Y-57600000D01*
X188300000Y-62949479D02*
X188300000Y-64186153D01*
X188700000Y-59270000D02*
X188700000Y-58200000D01*
D35*
X168050000Y-69611599D02*
X166661599Y-71000000D01*
X176075000Y-59300000D02*
X175875000Y-59100000D01*
X177350000Y-59300000D02*
X176075000Y-59300000D01*
X173199200Y-66800800D02*
X172900000Y-67100000D01*
X168400000Y-67100000D02*
X168050000Y-67450000D01*
X173550000Y-64650000D02*
X173199200Y-65000800D01*
X174500000Y-59100000D02*
X174250000Y-59350000D01*
X174250000Y-60950000D02*
X175450000Y-62150000D01*
X172900000Y-67100000D02*
X168400000Y-67100000D01*
X175450000Y-64050000D02*
X174850000Y-64650000D01*
X173199200Y-65000800D02*
X173199200Y-66800800D01*
X174850000Y-64650000D02*
X173550000Y-64650000D01*
X178980000Y-60930000D02*
X177350000Y-59300000D01*
X174250000Y-59350000D02*
X174250000Y-60950000D01*
X175450000Y-62150000D02*
X175450000Y-64050000D01*
X175875000Y-59100000D02*
X174500000Y-59100000D01*
X178980000Y-61460000D02*
X178980000Y-60930000D01*
X168050000Y-67450000D02*
X168050000Y-69611599D01*
D38*
X173850000Y-69750000D02*
X174650000Y-69750000D01*
X178980000Y-64670000D02*
X178980000Y-64000000D01*
X175660000Y-67990000D02*
X178980000Y-64670000D01*
X167951600Y-72250000D02*
X171350000Y-72250000D01*
X166661600Y-73540000D02*
X167951600Y-72250000D01*
X175660000Y-68740000D02*
X175660000Y-67990000D01*
X171350000Y-72250000D02*
X173850000Y-69750000D01*
X174650000Y-69750000D02*
X175660000Y-68740000D01*
D35*
X177750000Y-67770000D02*
X178980000Y-66540000D01*
X169201600Y-73540000D02*
X172510000Y-73540000D01*
X175600000Y-72350000D02*
X177750000Y-70200000D01*
X172510000Y-73540000D02*
X173700000Y-72350000D01*
X173700000Y-72350000D02*
X175600000Y-72350000D01*
X177750000Y-70200000D02*
X177750000Y-67770000D01*
D38*
X176100000Y-60050000D02*
X175950000Y-59900000D01*
X182750000Y-68550000D02*
X182600000Y-68700000D01*
X175950000Y-59900000D02*
X175284400Y-59900000D01*
X175735000Y-65275000D02*
X176100000Y-64910000D01*
X182750000Y-67260000D02*
X182750000Y-68550000D01*
X175284400Y-59900000D02*
X175200000Y-59815600D01*
X176100000Y-64910000D02*
X176100000Y-60050000D01*
X173000000Y-64200000D02*
X172400000Y-64800000D01*
X181450000Y-70900000D02*
X181350000Y-71000000D01*
X181450000Y-67260000D02*
X181450000Y-70900000D01*
X172400000Y-66350000D02*
X172250000Y-66500000D01*
X172082267Y-61103926D02*
X173000000Y-62021659D01*
X173000000Y-62021659D02*
X173000000Y-64200000D01*
X172400000Y-64800000D02*
X172400000Y-66350000D01*
X170900000Y-59400000D02*
X170950000Y-59400000D01*
X168600000Y-56300000D02*
X168600000Y-55000000D01*
X172150000Y-58200000D02*
X170950000Y-59400000D01*
X172082267Y-61039392D02*
X172082267Y-61103926D01*
X168500000Y-56400000D02*
X168600000Y-56300000D01*
X173125000Y-59575000D02*
X171700000Y-59575000D01*
X180850000Y-62150000D02*
X180850000Y-63650000D01*
X159900000Y-57804000D02*
X159900000Y-57400000D01*
X183399999Y-67260000D02*
X183399999Y-65899999D01*
X171248950Y-60026050D02*
X162122050Y-60026050D01*
X183399999Y-65899999D02*
X183300000Y-65800000D01*
X162122050Y-60026050D02*
X159900000Y-57804000D01*
X171700000Y-59575000D02*
X171248950Y-60026050D01*
X184050000Y-67260000D02*
X184050000Y-65050000D01*
X169274100Y-60912500D02*
X171741600Y-63380000D01*
X148000000Y-60912500D02*
X169274100Y-60912500D01*
X167188100Y-61366500D02*
X149433500Y-61366500D01*
X148800000Y-62000000D02*
X147087500Y-62000000D01*
X149433500Y-61366500D02*
X148800000Y-62000000D01*
X169201600Y-63380000D02*
X167188100Y-61366500D01*
X147087500Y-62000000D02*
X146000000Y-60912500D01*
X165102100Y-61820500D02*
X166661600Y-63380000D01*
X149990500Y-61820500D02*
X149800000Y-62011000D01*
X150200000Y-61820500D02*
X149990500Y-61820500D01*
X143062500Y-61850000D02*
X144000000Y-60912500D01*
X142900000Y-61850000D02*
X143062500Y-61850000D01*
X150200000Y-61820500D02*
X165102100Y-61820500D01*
D45*
X196028620Y-76723800D02*
X193722796Y-76723800D01*
X146341600Y-78620000D02*
X146341600Y-79659000D01*
X182850777Y-73100777D02*
X182750000Y-73000000D01*
X196280600Y-80119400D02*
X197200000Y-79200000D01*
X182850777Y-74344726D02*
X182850777Y-73100777D01*
X197200000Y-79200000D02*
X197200000Y-77200000D01*
X146341600Y-79659000D02*
X146802000Y-80119400D01*
X146802000Y-80119400D02*
X196280600Y-80119400D01*
X197200000Y-77200000D02*
X196504820Y-77200000D01*
X193722796Y-76723800D02*
X191400000Y-74401004D01*
X196504820Y-77200000D02*
X196028620Y-76723800D01*
X184600000Y-77780000D02*
X184600000Y-75440788D01*
X182140000Y-79110000D02*
X182936300Y-78313700D01*
X152651600Y-77390000D02*
X175920000Y-77390000D01*
X182936300Y-78313700D02*
X182949886Y-78313700D01*
X151421600Y-78620000D02*
X152651600Y-77390000D01*
X175920000Y-77390000D02*
X177640000Y-79110000D01*
X184050000Y-74890788D02*
X184050000Y-73000000D01*
X183174910Y-78088676D02*
X184291324Y-78088676D01*
X177640000Y-79110000D02*
X182140000Y-79110000D01*
X182949886Y-78313700D02*
X183174910Y-78088676D01*
X184600000Y-75440788D02*
X184050000Y-74890788D01*
X184291324Y-78088676D02*
X184600000Y-77780000D01*
X183700000Y-77250000D02*
X183399999Y-76949999D01*
X183390000Y-79840000D02*
X150101600Y-79840000D01*
X150101600Y-79840000D02*
X148881600Y-78620000D01*
X183399999Y-76949999D02*
X183399999Y-73000000D01*
X183700000Y-79530000D02*
X183390000Y-79840000D01*
X144130200Y-80400000D02*
X197400000Y-80400000D01*
X180770000Y-73680000D02*
X181450000Y-73000000D01*
X180770000Y-74410000D02*
X180770000Y-73680000D01*
X143801600Y-78620000D02*
X143801600Y-80071400D01*
X143801600Y-80071400D02*
X144130200Y-80400000D01*
X188820000Y-73620000D02*
X188400000Y-73200000D01*
X197776200Y-80023800D02*
X197776200Y-74576200D01*
X197400000Y-80400000D02*
X197776200Y-80023800D01*
X196820000Y-73620000D02*
X188820000Y-73620000D01*
X197776200Y-74576200D02*
X196820000Y-73620000D01*
D39*
X184580000Y-79610000D02*
X193890000Y-79610000D01*
X183700000Y-78730000D02*
X184580000Y-79610000D01*
X193890000Y-79610000D02*
X195500000Y-78000000D01*
G04 #@! TA.AperFunction,Conductor*
G36*
X194588109Y-77622270D02*
G01*
X195496215Y-77997437D01*
X195502553Y-78003764D01*
X195502562Y-78003784D01*
X195525098Y-78058333D01*
X195790246Y-78700134D01*
X195877724Y-78911876D01*
X195877715Y-78920830D01*
X195871377Y-78927157D01*
X195870228Y-78927563D01*
X195443883Y-79053663D01*
X195441665Y-79054091D01*
X195097747Y-79086575D01*
X195097573Y-79086590D01*
X194799864Y-79110232D01*
X194501951Y-79213492D01*
X194164658Y-79478510D01*
X194156035Y-79480927D01*
X194149156Y-79477583D01*
X194022415Y-79350842D01*
X194018988Y-79342569D01*
X194021486Y-79335344D01*
X194286505Y-78998048D01*
X194389766Y-78700135D01*
X194413415Y-78402329D01*
X194445907Y-78058332D01*
X194446335Y-78056115D01*
X194461819Y-78003764D01*
X194572436Y-77629770D01*
X194578069Y-77622809D01*
X194586974Y-77621869D01*
X194588109Y-77622270D01*
G37*
G04 #@! TD.AperFunction*
G04 #@! TA.AperFunction,Conductor*
G36*
X183932374Y-78637441D02*
G01*
X183938683Y-78643796D01*
X183938844Y-78644211D01*
X183971951Y-78734621D01*
X183972159Y-78735244D01*
X183995105Y-78810806D01*
X183995111Y-78810824D01*
X184018980Y-78874208D01*
X184018984Y-78874216D01*
X184058862Y-78938865D01*
X184122561Y-79010252D01*
X184125512Y-79018706D01*
X184122104Y-79026314D01*
X183996314Y-79152104D01*
X183988041Y-79155531D01*
X183980252Y-79152561D01*
X183908865Y-79088862D01*
X183844220Y-79048986D01*
X183844208Y-79048980D01*
X183780824Y-79025111D01*
X183780806Y-79025105D01*
X183705244Y-79002159D01*
X183704621Y-79001951D01*
X183614211Y-78968844D01*
X183607621Y-78962781D01*
X183607247Y-78953834D01*
X183607399Y-78953441D01*
X183697436Y-78733821D01*
X183703743Y-78727468D01*
X183923420Y-78637408D01*
X183932374Y-78637441D01*
G37*
G04 #@! TD.AperFunction*
G04 #@! TA.AperFunction,Conductor*
G36*
X188632134Y-73107539D02*
G01*
X188638443Y-73113894D01*
X188638686Y-73114542D01*
X188670432Y-73207248D01*
X188670763Y-73208406D01*
X188689030Y-73287517D01*
X188707298Y-73354965D01*
X188725071Y-73389088D01*
X188742844Y-73423212D01*
X188774796Y-73460563D01*
X188806054Y-73497103D01*
X188808828Y-73505618D01*
X188805436Y-73512982D01*
X188712982Y-73605436D01*
X188704709Y-73608863D01*
X188697103Y-73606054D01*
X188660563Y-73574796D01*
X188623212Y-73542844D01*
X188589088Y-73525071D01*
X188554965Y-73507298D01*
X188487517Y-73489030D01*
X188408406Y-73470763D01*
X188407248Y-73470432D01*
X188314542Y-73438686D01*
X188307825Y-73432764D01*
X188307263Y-73423827D01*
X188307496Y-73423204D01*
X188397436Y-73203821D01*
X188403743Y-73197468D01*
X188623181Y-73107506D01*
X188632134Y-73107539D01*
G37*
G04 #@! TD.AperFunction*
G04 #@! TA.AperFunction,Conductor*
G36*
X143808126Y-78622293D02*
G01*
X144574109Y-78939977D01*
X144580438Y-78946311D01*
X144580434Y-78955266D01*
X144579536Y-78957005D01*
X144383045Y-79269957D01*
X144381476Y-79271942D01*
X144139277Y-79518114D01*
X143942912Y-79727091D01*
X143942910Y-79727094D01*
X143878488Y-79938620D01*
X143878488Y-79938622D01*
X144026569Y-80185471D01*
X144027886Y-80194329D01*
X144024809Y-80199763D01*
X143932485Y-80292087D01*
X143924212Y-80295514D01*
X143915939Y-80292087D01*
X143915289Y-80291382D01*
X143716710Y-80057267D01*
X143715429Y-80055423D01*
X143705464Y-80037658D01*
X143603144Y-79855239D01*
X143602631Y-79854208D01*
X143521203Y-79667377D01*
X143408080Y-79465699D01*
X143207522Y-79229250D01*
X143204784Y-79220724D01*
X143208161Y-79213421D01*
X143795362Y-78624836D01*
X143803630Y-78621400D01*
X143808126Y-78622293D01*
G37*
G04 #@! TD.AperFunction*
G04 #@! TA.AperFunction,Conductor*
G36*
X180843649Y-73905427D02*
G01*
X180847040Y-73912789D01*
X180854592Y-74009735D01*
X180877715Y-74083128D01*
X180905376Y-74131338D01*
X180912490Y-74143736D01*
X180955512Y-74212593D01*
X180956097Y-74213646D01*
X180999204Y-74301649D01*
X180999766Y-74310586D01*
X180993844Y-74317303D01*
X180993214Y-74317589D01*
X180774517Y-74409109D01*
X180765562Y-74409142D01*
X180765483Y-74409109D01*
X180546785Y-74317589D01*
X180540476Y-74311234D01*
X180540509Y-74302279D01*
X180540782Y-74301676D01*
X180583904Y-74213640D01*
X180584485Y-74212595D01*
X180627509Y-74143734D01*
X180662283Y-74083128D01*
X180685407Y-74009735D01*
X180692959Y-73912790D01*
X180697018Y-73904809D01*
X180704624Y-73902000D01*
X180835376Y-73902000D01*
X180843649Y-73905427D01*
G37*
G04 #@! TD.AperFunction*
G04 #@! TA.AperFunction,Conductor*
G36*
X183477893Y-79437978D02*
G01*
X183696486Y-79528138D01*
X183702828Y-79534460D01*
X183702851Y-79534516D01*
X183792944Y-79754280D01*
X183792911Y-79763235D01*
X183787002Y-79769350D01*
X183703319Y-79807795D01*
X183682884Y-79817184D01*
X183682879Y-79817186D01*
X183682878Y-79817187D01*
X183601934Y-79859172D01*
X183601192Y-79859524D01*
X183549836Y-79881738D01*
X183545191Y-79882700D01*
X183332106Y-79882700D01*
X183323833Y-79879273D01*
X183320406Y-79871000D01*
X183320406Y-79773056D01*
X183323833Y-79764783D01*
X183329413Y-79761670D01*
X183360663Y-79754280D01*
X183398218Y-79745399D01*
X183429558Y-79695359D01*
X183436484Y-79621418D01*
X183440999Y-79532433D01*
X183441324Y-79530229D01*
X183441381Y-79530000D01*
X183462082Y-79445996D01*
X183467389Y-79438785D01*
X183476242Y-79437437D01*
X183477893Y-79437978D01*
G37*
G04 #@! TD.AperFunction*
G04 #@! TA.AperFunction,Conductor*
G36*
X149663825Y-78299694D02*
G01*
X149670150Y-78306033D01*
X149670562Y-78307204D01*
X149776671Y-78668727D01*
X149777100Y-78670997D01*
X149802919Y-78964461D01*
X149802935Y-78964663D01*
X149820874Y-79219069D01*
X149907020Y-79473545D01*
X149907021Y-79473546D01*
X149907022Y-79473549D01*
X150131180Y-79760042D01*
X150133579Y-79768669D01*
X150130238Y-79775524D01*
X150037124Y-79868638D01*
X150028851Y-79872065D01*
X150021642Y-79869580D01*
X149735149Y-79645422D01*
X149735146Y-79645421D01*
X149735145Y-79645420D01*
X149735146Y-79645420D01*
X149480669Y-79559274D01*
X149226263Y-79541335D01*
X149226061Y-79541319D01*
X148932597Y-79515500D01*
X148930327Y-79515071D01*
X148568804Y-79408962D01*
X148561831Y-79403344D01*
X148560873Y-79394441D01*
X148561280Y-79393284D01*
X148879038Y-78623783D01*
X148885359Y-78617448D01*
X149654872Y-78299685D01*
X149663825Y-78299694D01*
G37*
G04 #@! TD.AperFunction*
G04 #@! TA.AperFunction,Conductor*
G36*
X183475156Y-76869691D02*
G01*
X183478285Y-76875342D01*
X183493887Y-76943220D01*
X183542105Y-76975681D01*
X183613579Y-76984571D01*
X183699994Y-76990739D01*
X183702044Y-76991071D01*
X183784135Y-77012003D01*
X183791305Y-77017367D01*
X183792581Y-77026231D01*
X183792060Y-77027801D01*
X183701861Y-77246486D01*
X183695539Y-77252828D01*
X183695483Y-77252851D01*
X183475810Y-77342907D01*
X183466855Y-77342874D01*
X183460699Y-77336872D01*
X183422983Y-77252828D01*
X183413790Y-77232343D01*
X183413786Y-77232336D01*
X183413779Y-77232319D01*
X183374278Y-77150482D01*
X183373898Y-77149604D01*
X183346367Y-77078119D01*
X183345795Y-77076121D01*
X183329469Y-76991137D01*
X183329271Y-76989449D01*
X183324342Y-76878483D01*
X183327398Y-76870066D01*
X183335511Y-76866276D01*
X183336030Y-76866264D01*
X183466883Y-76866264D01*
X183475156Y-76869691D01*
G37*
G04 #@! TD.AperFunction*
G04 #@! TA.AperFunction,Conductor*
G36*
X152577124Y-77371361D02*
G01*
X152670238Y-77464475D01*
X152673665Y-77472748D01*
X152671180Y-77479957D01*
X152500061Y-77698662D01*
X152447020Y-77766452D01*
X152360874Y-78020928D01*
X152342935Y-78275334D01*
X152342919Y-78275536D01*
X152317100Y-78569001D01*
X152316671Y-78571271D01*
X152210562Y-78932795D01*
X152204944Y-78939768D01*
X152196041Y-78940726D01*
X152194870Y-78940314D01*
X151425385Y-78622562D01*
X151419047Y-78616238D01*
X151101285Y-77846727D01*
X151101294Y-77837774D01*
X151107633Y-77831449D01*
X151108794Y-77831040D01*
X151470332Y-77724925D01*
X151472592Y-77724498D01*
X151766162Y-77698670D01*
X152020667Y-77680725D01*
X152275149Y-77594576D01*
X152561644Y-77370418D01*
X152570269Y-77368020D01*
X152577124Y-77371361D01*
G37*
G04 #@! TD.AperFunction*
G04 #@! TA.AperFunction,Conductor*
G36*
X191632134Y-74308543D02*
G01*
X191638443Y-74314898D01*
X191638686Y-74315546D01*
X191670432Y-74408252D01*
X191670763Y-74409410D01*
X191689030Y-74488521D01*
X191707298Y-74555969D01*
X191725071Y-74590092D01*
X191742844Y-74624216D01*
X191774796Y-74661567D01*
X191806054Y-74698107D01*
X191808828Y-74706622D01*
X191805436Y-74713986D01*
X191712982Y-74806440D01*
X191704709Y-74809867D01*
X191697103Y-74807058D01*
X191660563Y-74775800D01*
X191623212Y-74743848D01*
X191589088Y-74726075D01*
X191554965Y-74708302D01*
X191487517Y-74690034D01*
X191408406Y-74671767D01*
X191407248Y-74671436D01*
X191314542Y-74639690D01*
X191307825Y-74633768D01*
X191307263Y-74624831D01*
X191307496Y-74624208D01*
X191397436Y-74404825D01*
X191403743Y-74398472D01*
X191623181Y-74308510D01*
X191632134Y-74308543D01*
G37*
G04 #@! TD.AperFunction*
G04 #@! TA.AperFunction,Conductor*
G36*
X182924426Y-73840153D02*
G01*
X182927817Y-73847515D01*
X182935369Y-73944461D01*
X182958492Y-74017854D01*
X182986153Y-74066064D01*
X182993267Y-74078462D01*
X183036289Y-74147319D01*
X183036874Y-74148372D01*
X183079981Y-74236375D01*
X183080543Y-74245312D01*
X183074621Y-74252029D01*
X183073991Y-74252315D01*
X182855294Y-74343835D01*
X182846339Y-74343868D01*
X182846260Y-74343835D01*
X182627562Y-74252315D01*
X182621253Y-74245960D01*
X182621286Y-74237005D01*
X182621559Y-74236402D01*
X182664681Y-74148366D01*
X182665262Y-74147321D01*
X182708286Y-74078460D01*
X182743060Y-74017854D01*
X182766184Y-73944461D01*
X182773736Y-73847516D01*
X182777795Y-73839535D01*
X182785401Y-73836726D01*
X182916153Y-73836726D01*
X182924426Y-73840153D01*
G37*
G04 #@! TD.AperFunction*
G04 #@! TA.AperFunction,Conductor*
G36*
X146348126Y-78622293D02*
G01*
X147114934Y-78940319D01*
X147121263Y-78946653D01*
X147121259Y-78955608D01*
X147120750Y-78956680D01*
X146975216Y-79226538D01*
X146974534Y-79227649D01*
X146818870Y-79452251D01*
X146711729Y-79648490D01*
X146706418Y-79843647D01*
X146850494Y-80057523D01*
X146852274Y-80066299D01*
X146849063Y-80072333D01*
X146761524Y-80159873D01*
X146753251Y-80163300D01*
X146742663Y-80163300D01*
X146734488Y-80159970D01*
X146502167Y-79933082D01*
X146322873Y-79767507D01*
X146165867Y-79626870D01*
X146165735Y-79626750D01*
X145986627Y-79461347D01*
X145986390Y-79461122D01*
X145977303Y-79452248D01*
X145749018Y-79229302D01*
X145745494Y-79221070D01*
X145748822Y-79212757D01*
X146335362Y-78624836D01*
X146343630Y-78621400D01*
X146348126Y-78622293D01*
G37*
G04 #@! TD.AperFunction*
G04 #@! TA.AperFunction,Conductor*
G36*
X143235786Y-61511439D02*
G01*
X143400039Y-61675692D01*
X143403466Y-61683965D01*
X143400127Y-61692150D01*
X143325453Y-61768429D01*
X143268285Y-61829835D01*
X143219596Y-61883587D01*
X143219488Y-61883704D01*
X143162475Y-61944944D01*
X143162273Y-61945157D01*
X143087845Y-62021187D01*
X143079609Y-62024701D01*
X143071299Y-62021363D01*
X143071244Y-62021308D01*
X142900978Y-61852378D01*
X142898392Y-61848510D01*
X142807832Y-61627614D01*
X142807865Y-61618660D01*
X142814220Y-61612351D01*
X142815596Y-61611885D01*
X142908829Y-61586757D01*
X142911633Y-61586357D01*
X142995493Y-61584678D01*
X142995918Y-61584678D01*
X143065881Y-61586236D01*
X143070061Y-61586330D01*
X143070061Y-61586329D01*
X143070063Y-61586330D01*
X143144104Y-61567486D01*
X143220507Y-61510342D01*
X143229183Y-61508132D01*
X143235786Y-61511439D01*
G37*
G04 #@! TD.AperFunction*
G04 #@! TA.AperFunction,Conductor*
G36*
X143993169Y-60911533D02*
G01*
X144001317Y-60915242D01*
X144003582Y-60918767D01*
X144206935Y-61412025D01*
X144206920Y-61420979D01*
X144200577Y-61427301D01*
X144198559Y-61427927D01*
X144091919Y-61450673D01*
X144014883Y-61467105D01*
X144014880Y-61467106D01*
X143817489Y-61532337D01*
X143817483Y-61532339D01*
X143817482Y-61532340D01*
X143620081Y-61620705D01*
X143620078Y-61620706D01*
X143620075Y-61620708D01*
X143620068Y-61620711D01*
X143422690Y-61732193D01*
X143422679Y-61732200D01*
X143233289Y-61861362D01*
X143224523Y-61863192D01*
X143218424Y-61859969D01*
X143051373Y-61692918D01*
X143047946Y-61684645D01*
X143048967Y-61679865D01*
X143096538Y-61573582D01*
X143096540Y-61573578D01*
X143147405Y-61436807D01*
X143198270Y-61276907D01*
X143249135Y-61093876D01*
X143297726Y-60896930D01*
X143303034Y-60889720D01*
X143309487Y-60888041D01*
X143993169Y-60911533D01*
G37*
G04 #@! TD.AperFunction*
G04 #@! TA.AperFunction,Conductor*
G36*
X150196010Y-61697198D02*
G01*
X150199975Y-61705227D01*
X150200000Y-61705999D01*
X150200000Y-61937805D01*
X150196573Y-61946078D01*
X150190474Y-61949301D01*
X150125214Y-61961644D01*
X150125211Y-61961646D01*
X150084953Y-61999660D01*
X150060020Y-62054978D01*
X150031854Y-62119555D01*
X150030532Y-62121840D01*
X149987660Y-62179728D01*
X149979983Y-62184337D01*
X149971295Y-62182167D01*
X149970008Y-62181061D01*
X149802469Y-62014450D01*
X149799019Y-62006186D01*
X149799019Y-62006108D01*
X149799045Y-61999660D01*
X149799957Y-61767908D01*
X149803416Y-61759649D01*
X149810883Y-61756280D01*
X149899921Y-61750396D01*
X149969960Y-61734648D01*
X150029584Y-61715994D01*
X150030498Y-61715748D01*
X150099191Y-61700303D01*
X150100978Y-61700044D01*
X150187528Y-61694324D01*
X150196010Y-61697198D01*
G37*
G04 #@! TD.AperFunction*
G04 #@! TA.AperFunction,Conductor*
G36*
X165557499Y-62094674D02*
G01*
X165633461Y-62155586D01*
X165838167Y-62319736D01*
X166085362Y-62415240D01*
X166331858Y-62445588D01*
X166331889Y-62445605D01*
X166331891Y-62445592D01*
X166617743Y-62481632D01*
X166619695Y-62482052D01*
X166862569Y-62556564D01*
X166974592Y-62590932D01*
X166981496Y-62596634D01*
X166982345Y-62605549D01*
X166981974Y-62606583D01*
X166664162Y-63376214D01*
X166657837Y-63382553D01*
X166657814Y-63382562D01*
X165888183Y-63700374D01*
X165879228Y-63700365D01*
X165872903Y-63694026D01*
X165872532Y-63692992D01*
X165777294Y-63382562D01*
X165763652Y-63338095D01*
X165763232Y-63336143D01*
X165727192Y-63050291D01*
X165696840Y-62803762D01*
X165601336Y-62556567D01*
X165411424Y-62319734D01*
X165376274Y-62275899D01*
X165373772Y-62267301D01*
X165377128Y-62260308D01*
X165541908Y-62095528D01*
X165550180Y-62092102D01*
X165557499Y-62094674D01*
G37*
G04 #@! TD.AperFunction*
G04 #@! TA.AperFunction,Conductor*
G36*
X146698898Y-60891182D02*
G01*
X146702273Y-60896931D01*
X146750860Y-61093857D01*
X146801734Y-61276923D01*
X146852592Y-61436801D01*
X146903461Y-61573583D01*
X146951032Y-61679865D01*
X146951284Y-61688816D01*
X146948626Y-61692918D01*
X146781575Y-61859969D01*
X146773302Y-61863396D01*
X146766710Y-61861362D01*
X146577319Y-61732200D01*
X146577308Y-61732193D01*
X146379930Y-61620711D01*
X146379923Y-61620708D01*
X146379924Y-61620708D01*
X146379918Y-61620705D01*
X146182517Y-61532340D01*
X146182512Y-61532338D01*
X146182509Y-61532337D01*
X146081374Y-61498915D01*
X145985116Y-61467105D01*
X145864530Y-61441384D01*
X145801440Y-61427927D01*
X145794064Y-61422849D01*
X145792438Y-61414043D01*
X145793060Y-61412036D01*
X145996418Y-60918765D01*
X146002739Y-60912424D01*
X146006826Y-60911534D01*
X146690514Y-60888041D01*
X146698898Y-60891182D01*
G37*
G04 #@! TD.AperFunction*
G04 #@! TA.AperFunction,Conductor*
G36*
X168097499Y-62094674D02*
G01*
X168173461Y-62155586D01*
X168378167Y-62319736D01*
X168625362Y-62415240D01*
X168871858Y-62445588D01*
X168871889Y-62445605D01*
X168871891Y-62445592D01*
X169157743Y-62481632D01*
X169159695Y-62482052D01*
X169402569Y-62556564D01*
X169514592Y-62590932D01*
X169521496Y-62596634D01*
X169522345Y-62605549D01*
X169521974Y-62606583D01*
X169204162Y-63376214D01*
X169197837Y-63382553D01*
X169197814Y-63382562D01*
X168428183Y-63700374D01*
X168419228Y-63700365D01*
X168412903Y-63694026D01*
X168412532Y-63692992D01*
X168317294Y-63382562D01*
X168303652Y-63338095D01*
X168303232Y-63336143D01*
X168267192Y-63050291D01*
X168236840Y-62803762D01*
X168141336Y-62556567D01*
X167951424Y-62319734D01*
X167916274Y-62275899D01*
X167913772Y-62267301D01*
X167917128Y-62260308D01*
X168081908Y-62095528D01*
X168090180Y-62092102D01*
X168097499Y-62094674D01*
G37*
G04 #@! TD.AperFunction*
G04 #@! TA.AperFunction,Conductor*
G36*
X148553504Y-60426016D02*
G01*
X148679036Y-60537977D01*
X148812402Y-60634097D01*
X148945768Y-60707391D01*
X149079134Y-60757859D01*
X149203174Y-60783567D01*
X149210580Y-60788602D01*
X149212500Y-60795024D01*
X149212500Y-61029975D01*
X149209073Y-61038248D01*
X149203174Y-61041432D01*
X149118741Y-61058931D01*
X149079134Y-61067140D01*
X149079131Y-61067140D01*
X149079131Y-61067141D01*
X148945768Y-61117608D01*
X148812407Y-61190898D01*
X148679034Y-61287023D01*
X148553505Y-61398982D01*
X148545049Y-61401931D01*
X148537878Y-61398935D01*
X148008620Y-60921184D01*
X148004776Y-60913098D01*
X148007776Y-60904660D01*
X148008621Y-60903815D01*
X148537879Y-60426063D01*
X148546315Y-60423064D01*
X148553504Y-60426016D01*
G37*
G04 #@! TD.AperFunction*
G04 #@! TA.AperFunction,Conductor*
G36*
X170637499Y-62094674D02*
G01*
X170713461Y-62155586D01*
X170918167Y-62319736D01*
X171165362Y-62415240D01*
X171411858Y-62445588D01*
X171411889Y-62445605D01*
X171411891Y-62445592D01*
X171697743Y-62481632D01*
X171699695Y-62482052D01*
X171942569Y-62556564D01*
X172054592Y-62590932D01*
X172061496Y-62596634D01*
X172062345Y-62605549D01*
X172061974Y-62606583D01*
X171744162Y-63376214D01*
X171737837Y-63382553D01*
X171737814Y-63382562D01*
X170968183Y-63700374D01*
X170959228Y-63700365D01*
X170952903Y-63694026D01*
X170952532Y-63692992D01*
X170857294Y-63382562D01*
X170843652Y-63338095D01*
X170843232Y-63336143D01*
X170807192Y-63050291D01*
X170776840Y-62803762D01*
X170681336Y-62556567D01*
X170491424Y-62319734D01*
X170456274Y-62275899D01*
X170453772Y-62267301D01*
X170457128Y-62260308D01*
X170621908Y-62095528D01*
X170630180Y-62092102D01*
X170637499Y-62094674D01*
G37*
G04 #@! TD.AperFunction*
G04 #@! TA.AperFunction,Conductor*
G36*
X184273728Y-65142625D02*
G01*
X184280037Y-65148980D01*
X184280004Y-65157935D01*
X184279943Y-65158077D01*
X184242263Y-65244868D01*
X184242264Y-65244869D01*
X184211667Y-65315384D01*
X184211661Y-65315401D01*
X184191496Y-65378163D01*
X184191493Y-65378172D01*
X184180397Y-65452563D01*
X184180395Y-65452578D01*
X184177365Y-65546677D01*
X184173674Y-65554835D01*
X184165671Y-65558000D01*
X183934329Y-65558000D01*
X183926056Y-65554573D01*
X183922635Y-65546677D01*
X183919603Y-65452578D01*
X183919603Y-65452572D01*
X183908503Y-65378167D01*
X183888336Y-65315396D01*
X183857734Y-65244870D01*
X183857734Y-65244869D01*
X183857734Y-65244868D01*
X183820056Y-65158077D01*
X183819905Y-65149124D01*
X183826129Y-65142686D01*
X183826223Y-65142645D01*
X184045483Y-65050889D01*
X184054438Y-65050857D01*
X184273728Y-65142625D01*
G37*
G04 #@! TD.AperFunction*
G04 #@! TA.AperFunction,Conductor*
G36*
X160296436Y-57303864D02*
G01*
X160301762Y-57311063D01*
X160301970Y-57312091D01*
X160332803Y-57509998D01*
X160365606Y-57704171D01*
X160365609Y-57704187D01*
X160398406Y-57881956D01*
X160431212Y-58043381D01*
X160462591Y-58182118D01*
X160461073Y-58190943D01*
X160459452Y-58192972D01*
X160292720Y-58359704D01*
X160284447Y-58363131D01*
X160276174Y-58359704D01*
X160276137Y-58359667D01*
X160184223Y-58266925D01*
X160184218Y-58266921D01*
X160084040Y-58182221D01*
X160084039Y-58182220D01*
X160084034Y-58182216D01*
X160063808Y-58168422D01*
X159983848Y-58113888D01*
X159883662Y-58061940D01*
X159883661Y-58061939D01*
X159883658Y-58061938D01*
X159792872Y-58029706D01*
X159786224Y-58023709D01*
X159785283Y-58016556D01*
X159897925Y-57406698D01*
X159902796Y-57399187D01*
X159906598Y-57397472D01*
X160287582Y-57302539D01*
X160296436Y-57303864D01*
G37*
G04 #@! TD.AperFunction*
G04 #@! TA.AperFunction,Conductor*
G36*
X183542071Y-65799953D02*
G01*
X183550331Y-65803412D01*
X183553725Y-65811699D01*
X183553722Y-65811925D01*
X183551198Y-65920522D01*
X183551165Y-65921162D01*
X183544509Y-66006273D01*
X183544477Y-66006619D01*
X183536501Y-66080348D01*
X183529807Y-66165948D01*
X183527265Y-66275368D01*
X183523647Y-66283559D01*
X183515568Y-66286796D01*
X183283301Y-66286796D01*
X183275028Y-66283369D01*
X183271695Y-66276577D01*
X183271541Y-66275368D01*
X183259511Y-66181091D01*
X183224229Y-66113032D01*
X183175000Y-66058948D01*
X183174836Y-66058764D01*
X183129590Y-66006619D01*
X183120172Y-65995764D01*
X183118776Y-65993767D01*
X183071653Y-65908619D01*
X183070646Y-65899723D01*
X183076226Y-65892719D01*
X183077359Y-65892169D01*
X183297812Y-65799915D01*
X183302371Y-65799009D01*
X183542071Y-65799953D01*
G37*
G04 #@! TD.AperFunction*
G04 #@! TA.AperFunction,Conductor*
G36*
X181073728Y-62242625D02*
G01*
X181080037Y-62248980D01*
X181080004Y-62257935D01*
X181079943Y-62258077D01*
X181042263Y-62344868D01*
X181042264Y-62344869D01*
X181011667Y-62415384D01*
X181011661Y-62415401D01*
X180991496Y-62478163D01*
X180991493Y-62478172D01*
X180980397Y-62552563D01*
X180980395Y-62552578D01*
X180977365Y-62646677D01*
X180973674Y-62654835D01*
X180965671Y-62658000D01*
X180734329Y-62658000D01*
X180726056Y-62654573D01*
X180722635Y-62646677D01*
X180719603Y-62552578D01*
X180719603Y-62552572D01*
X180708503Y-62478167D01*
X180688336Y-62415396D01*
X180657734Y-62344870D01*
X180657734Y-62344869D01*
X180657734Y-62344868D01*
X180620056Y-62258077D01*
X180619905Y-62249124D01*
X180626129Y-62242686D01*
X180626223Y-62242645D01*
X180845483Y-62150889D01*
X180854438Y-62150857D01*
X181073728Y-62242625D01*
G37*
G04 #@! TD.AperFunction*
G04 #@! TA.AperFunction,Conductor*
G36*
X180973944Y-63145427D02*
G01*
X180977365Y-63153323D01*
X180980395Y-63247420D01*
X180980397Y-63247435D01*
X180991493Y-63321826D01*
X180991496Y-63321835D01*
X181011661Y-63384597D01*
X181011667Y-63384614D01*
X181042263Y-63455127D01*
X181079943Y-63541922D01*
X181080094Y-63550875D01*
X181073870Y-63557313D01*
X181073728Y-63557374D01*
X180854517Y-63649109D01*
X180845562Y-63649142D01*
X180845483Y-63649109D01*
X180626271Y-63557374D01*
X180619962Y-63551019D01*
X180619995Y-63542064D01*
X180620056Y-63541922D01*
X180657735Y-63455127D01*
X180688331Y-63384614D01*
X180688336Y-63384603D01*
X180708503Y-63321832D01*
X180719603Y-63247427D01*
X180722635Y-63153322D01*
X180726327Y-63145165D01*
X180734329Y-63142000D01*
X180965671Y-63142000D01*
X180973944Y-63145427D01*
G37*
G04 #@! TD.AperFunction*
G04 #@! TA.AperFunction,Conductor*
G36*
X173032313Y-59351129D02*
G01*
X173032374Y-59351271D01*
X173124109Y-59570483D01*
X173124142Y-59579438D01*
X173124109Y-59579517D01*
X173032374Y-59798728D01*
X173026019Y-59805037D01*
X173017064Y-59805004D01*
X173016922Y-59804943D01*
X172930129Y-59767264D01*
X172859614Y-59736667D01*
X172859597Y-59736661D01*
X172796835Y-59716496D01*
X172796826Y-59716493D01*
X172722435Y-59705397D01*
X172722420Y-59705395D01*
X172628323Y-59702364D01*
X172620165Y-59698672D01*
X172617000Y-59690670D01*
X172617000Y-59459329D01*
X172620427Y-59451056D01*
X172628322Y-59447635D01*
X172722427Y-59444603D01*
X172788264Y-59434781D01*
X172796826Y-59433504D01*
X172796826Y-59433503D01*
X172796832Y-59433503D01*
X172859603Y-59413336D01*
X172883827Y-59402824D01*
X172930129Y-59382734D01*
X172979956Y-59361103D01*
X173016922Y-59345055D01*
X173025875Y-59344905D01*
X173032313Y-59351129D01*
G37*
G04 #@! TD.AperFunction*
G04 #@! TA.AperFunction,Conductor*
G36*
X171926304Y-58107295D02*
G01*
X172146176Y-58197435D01*
X172152531Y-58203744D01*
X172152564Y-58203823D01*
X172242704Y-58423695D01*
X172242671Y-58432650D01*
X172236316Y-58438959D01*
X172236172Y-58439016D01*
X172148158Y-58473744D01*
X172148158Y-58473745D01*
X172112404Y-58487860D01*
X172076649Y-58501976D01*
X172076638Y-58501981D01*
X172018007Y-58532097D01*
X172018002Y-58532101D01*
X171957549Y-58576858D01*
X171957536Y-58576869D01*
X171888856Y-58641262D01*
X171880477Y-58644421D01*
X171872581Y-58641000D01*
X171708998Y-58477417D01*
X171705571Y-58469144D01*
X171708735Y-58461143D01*
X171773134Y-58392456D01*
X171817898Y-58331995D01*
X171848022Y-58273348D01*
X171876253Y-58201841D01*
X171910983Y-58113827D01*
X171917207Y-58107389D01*
X171926160Y-58107238D01*
X171926304Y-58107295D01*
G37*
G04 #@! TD.AperFunction*
G04 #@! TA.AperFunction,Conductor*
G36*
X171227417Y-58958998D02*
G01*
X171391000Y-59122581D01*
X171394427Y-59130854D01*
X171391262Y-59138856D01*
X171326869Y-59207536D01*
X171326858Y-59207549D01*
X171282101Y-59268002D01*
X171282097Y-59268007D01*
X171251981Y-59326638D01*
X171251976Y-59326649D01*
X171251976Y-59326650D01*
X171223745Y-59398158D01*
X171223745Y-59398159D01*
X171223744Y-59398158D01*
X171189016Y-59486172D01*
X171182792Y-59492610D01*
X171173839Y-59492761D01*
X171173695Y-59492704D01*
X170953823Y-59402564D01*
X170947468Y-59396255D01*
X170947435Y-59396176D01*
X170918931Y-59326649D01*
X170857295Y-59176304D01*
X170857328Y-59167349D01*
X170863683Y-59161040D01*
X170863827Y-59160983D01*
X170864368Y-59160769D01*
X170951841Y-59126253D01*
X171023348Y-59098022D01*
X171081995Y-59067898D01*
X171142456Y-59023134D01*
X171211143Y-58958735D01*
X171219521Y-58955577D01*
X171227417Y-58958998D01*
G37*
G04 #@! TD.AperFunction*
G04 #@! TA.AperFunction,Conductor*
G36*
X168823728Y-55092625D02*
G01*
X168830037Y-55098980D01*
X168830004Y-55107935D01*
X168829943Y-55108077D01*
X168792263Y-55194868D01*
X168792264Y-55194869D01*
X168761667Y-55265384D01*
X168761661Y-55265401D01*
X168741496Y-55328163D01*
X168741493Y-55328172D01*
X168730397Y-55402563D01*
X168730395Y-55402578D01*
X168727365Y-55496677D01*
X168723674Y-55504835D01*
X168715671Y-55508000D01*
X168484329Y-55508000D01*
X168476056Y-55504573D01*
X168472635Y-55496677D01*
X168469603Y-55402578D01*
X168469603Y-55402572D01*
X168458503Y-55328167D01*
X168438336Y-55265396D01*
X168407734Y-55194870D01*
X168407734Y-55194869D01*
X168407734Y-55194868D01*
X168370056Y-55108077D01*
X168369905Y-55099124D01*
X168376129Y-55092686D01*
X168376223Y-55092645D01*
X168595483Y-55000889D01*
X168604438Y-55000857D01*
X168823728Y-55092625D01*
G37*
G04 #@! TD.AperFunction*
G04 #@! TA.AperFunction,Conductor*
G36*
X168723842Y-55916632D02*
G01*
X168727266Y-55924633D01*
X168729808Y-56034050D01*
X168736502Y-56119650D01*
X168744478Y-56193379D01*
X168744510Y-56193725D01*
X168751166Y-56278836D01*
X168751199Y-56279476D01*
X168753722Y-56388074D01*
X168750488Y-56396425D01*
X168742297Y-56400043D01*
X168742071Y-56400046D01*
X168502373Y-56400990D01*
X168497810Y-56400083D01*
X168277374Y-56307836D01*
X168271065Y-56301481D01*
X168271098Y-56292526D01*
X168271647Y-56291391D01*
X168318779Y-56206225D01*
X168320168Y-56204237D01*
X168374891Y-56141171D01*
X168374961Y-56141093D01*
X168424230Y-56086967D01*
X168459512Y-56018909D01*
X168471696Y-55923423D01*
X168476143Y-55915651D01*
X168483302Y-55913205D01*
X168715569Y-55913205D01*
X168723842Y-55916632D01*
G37*
G04 #@! TD.AperFunction*
G04 #@! TA.AperFunction,Conductor*
G36*
X172523322Y-66050041D02*
G01*
X172526749Y-66058314D01*
X172526746Y-66058563D01*
X172524614Y-66158840D01*
X172524587Y-66159426D01*
X172518915Y-66238732D01*
X172518888Y-66239049D01*
X172512095Y-66307722D01*
X172506394Y-66387439D01*
X172506391Y-66387502D01*
X172504242Y-66488593D01*
X172500640Y-66496791D01*
X172492591Y-66500044D01*
X172254891Y-66500980D01*
X172246605Y-66497586D01*
X172079228Y-66329277D01*
X172075824Y-66320995D01*
X172079274Y-66312731D01*
X172079832Y-66312211D01*
X172137353Y-66262334D01*
X172138099Y-66261741D01*
X172193732Y-66221048D01*
X172236363Y-66181872D01*
X172263489Y-66128921D01*
X172271803Y-66056970D01*
X172276157Y-66049146D01*
X172283426Y-66046614D01*
X172515049Y-66046614D01*
X172523322Y-66050041D01*
G37*
G04 #@! TD.AperFunction*
G04 #@! TA.AperFunction,Conductor*
G36*
X172314418Y-60946924D02*
G01*
X172320727Y-60953279D01*
X172320964Y-60953910D01*
X172352009Y-61044131D01*
X172352333Y-61045251D01*
X172370524Y-61122358D01*
X172382724Y-61166242D01*
X172388782Y-61188034D01*
X172409436Y-61227198D01*
X172423847Y-61254524D01*
X172473610Y-61312522D01*
X172485535Y-61326421D01*
X172488321Y-61334932D01*
X172484928Y-61342313D01*
X172320719Y-61506522D01*
X172312446Y-61509949D01*
X172304752Y-61507063D01*
X172218850Y-61432080D01*
X172218844Y-61432075D01*
X172218841Y-61432073D01*
X172218835Y-61432069D01*
X172218832Y-61432067D01*
X172142841Y-61384600D01*
X172142820Y-61384588D01*
X172142821Y-61384588D01*
X172142817Y-61384586D01*
X172073264Y-61348884D01*
X172072409Y-61348398D01*
X171997600Y-61301671D01*
X171996107Y-61300564D01*
X171912056Y-61227197D01*
X171908078Y-61219176D01*
X171910937Y-61210690D01*
X171911422Y-61210167D01*
X172079891Y-61040366D01*
X172083753Y-61037785D01*
X172305465Y-60946891D01*
X172314418Y-60946924D01*
G37*
G04 #@! TD.AperFunction*
G04 #@! TA.AperFunction,Conductor*
G36*
X181573842Y-70516632D02*
G01*
X181577266Y-70524633D01*
X181579808Y-70634050D01*
X181586502Y-70719650D01*
X181594478Y-70793379D01*
X181594510Y-70793725D01*
X181601166Y-70878836D01*
X181601199Y-70879476D01*
X181603722Y-70988074D01*
X181600488Y-70996425D01*
X181592297Y-71000043D01*
X181592071Y-71000046D01*
X181352373Y-71000990D01*
X181347810Y-71000083D01*
X181127374Y-70907836D01*
X181121065Y-70901481D01*
X181121098Y-70892526D01*
X181121647Y-70891391D01*
X181168779Y-70806225D01*
X181170168Y-70804237D01*
X181224891Y-70741171D01*
X181224961Y-70741093D01*
X181274230Y-70686967D01*
X181309512Y-70618909D01*
X181321696Y-70523423D01*
X181326143Y-70515651D01*
X181333302Y-70513205D01*
X181565569Y-70513205D01*
X181573842Y-70516632D01*
G37*
G04 #@! TD.AperFunction*
G04 #@! TA.AperFunction,Conductor*
G36*
X182873322Y-68250041D02*
G01*
X182876749Y-68258314D01*
X182876746Y-68258563D01*
X182874614Y-68358840D01*
X182874587Y-68359426D01*
X182868915Y-68438732D01*
X182868888Y-68439049D01*
X182862095Y-68507722D01*
X182856394Y-68587439D01*
X182856391Y-68587502D01*
X182854242Y-68688593D01*
X182850640Y-68696791D01*
X182842591Y-68700044D01*
X182604891Y-68700980D01*
X182596605Y-68697586D01*
X182429228Y-68529277D01*
X182425824Y-68520995D01*
X182429274Y-68512731D01*
X182429832Y-68512211D01*
X182487353Y-68462334D01*
X182488099Y-68461741D01*
X182543732Y-68421048D01*
X182586363Y-68381872D01*
X182613489Y-68328921D01*
X182621803Y-68256970D01*
X182626157Y-68249146D01*
X182633426Y-68246614D01*
X182865049Y-68246614D01*
X182873322Y-68250041D01*
G37*
G04 #@! TD.AperFunction*
G04 #@! TA.AperFunction,Conductor*
G36*
X176012417Y-64833998D02*
G01*
X176176000Y-64997581D01*
X176179427Y-65005854D01*
X176176262Y-65013856D01*
X176111869Y-65082536D01*
X176111858Y-65082549D01*
X176067101Y-65143002D01*
X176067097Y-65143007D01*
X176036981Y-65201638D01*
X176036976Y-65201649D01*
X176036976Y-65201650D01*
X176008745Y-65273158D01*
X176008745Y-65273159D01*
X176008744Y-65273158D01*
X175974016Y-65361172D01*
X175967792Y-65367610D01*
X175958839Y-65367761D01*
X175958695Y-65367704D01*
X175738823Y-65277564D01*
X175732468Y-65271255D01*
X175732435Y-65271176D01*
X175703931Y-65201649D01*
X175642295Y-65051304D01*
X175642328Y-65042349D01*
X175648683Y-65036040D01*
X175648827Y-65035983D01*
X175649368Y-65035769D01*
X175736841Y-65001253D01*
X175808348Y-64973022D01*
X175866995Y-64942898D01*
X175927456Y-64898134D01*
X175996143Y-64833735D01*
X176004521Y-64830577D01*
X176012417Y-64833998D01*
G37*
G04 #@! TD.AperFunction*
G04 #@! TA.AperFunction,Conductor*
G36*
X175307548Y-59586519D02*
G01*
X175308530Y-59586986D01*
X175393970Y-59632623D01*
X175395710Y-59633762D01*
X175460245Y-59684773D01*
X175460304Y-59684820D01*
X175516155Y-59729547D01*
X175516154Y-59729547D01*
X175537829Y-59739400D01*
X175585513Y-59761076D01*
X175680824Y-59771828D01*
X175688660Y-59776160D01*
X175691212Y-59783454D01*
X175691212Y-60015717D01*
X175687785Y-60023990D01*
X175679936Y-60027409D01*
X175569118Y-60031430D01*
X175482824Y-60041992D01*
X175482809Y-60041994D01*
X175482805Y-60041995D01*
X175437353Y-60049698D01*
X175408653Y-60054562D01*
X175408119Y-60054639D01*
X175322582Y-60065108D01*
X175321585Y-60065187D01*
X175212076Y-60069161D01*
X175203684Y-60066037D01*
X175199960Y-60057893D01*
X175199952Y-60057515D01*
X175199940Y-60054562D01*
X175199009Y-59817971D01*
X175199916Y-59813410D01*
X175212452Y-59783454D01*
X175292239Y-59592793D01*
X175298593Y-59586486D01*
X175307548Y-59586519D01*
G37*
G04 #@! TD.AperFunction*
G04 #@! TA.AperFunction,Conductor*
G36*
X178169073Y-66204090D02*
G01*
X178975511Y-66537146D01*
X178981850Y-66543471D01*
X178981856Y-66543487D01*
X179314771Y-67348192D01*
X179314767Y-67357147D01*
X179308433Y-67363476D01*
X179306270Y-67364135D01*
X178896621Y-67446648D01*
X178893655Y-67446860D01*
X178496898Y-67424570D01*
X178496898Y-67424567D01*
X178496834Y-67424566D01*
X178164313Y-67404105D01*
X178164308Y-67404106D01*
X177936254Y-67495453D01*
X177936254Y-67495454D01*
X177853938Y-67799872D01*
X177848471Y-67806964D01*
X177842644Y-67808518D01*
X177660737Y-67808518D01*
X177652464Y-67805091D01*
X177649037Y-67796818D01*
X177649053Y-67796199D01*
X177656869Y-67648659D01*
X177670414Y-67392975D01*
X177670676Y-67391066D01*
X177734772Y-67103300D01*
X177735442Y-67101229D01*
X177839394Y-66860188D01*
X177839735Y-66859470D01*
X177981597Y-66585465D01*
X178153975Y-66210020D01*
X178160540Y-66203933D01*
X178169073Y-66204090D01*
G37*
G04 #@! TD.AperFunction*
G04 #@! TA.AperFunction,Conductor*
G36*
X178984121Y-64002714D02*
G01*
X179344167Y-64363571D01*
X179599730Y-64619710D01*
X179603148Y-64627987D01*
X179599712Y-64636256D01*
X179599089Y-64636834D01*
X179301323Y-64893623D01*
X179299681Y-64894808D01*
X179050009Y-65043921D01*
X179049072Y-65044424D01*
X178817581Y-65155508D01*
X178566585Y-65305412D01*
X178566582Y-65305414D01*
X178266748Y-65563988D01*
X178258245Y-65566796D01*
X178250834Y-65563401D01*
X178085914Y-65398481D01*
X178082487Y-65390208D01*
X178084657Y-65383421D01*
X178269091Y-65124639D01*
X178295704Y-64889524D01*
X178228436Y-64648681D01*
X178137307Y-64365694D01*
X178136836Y-64363571D01*
X178092658Y-64013152D01*
X178095023Y-64004516D01*
X178102803Y-64000081D01*
X178104249Y-63999989D01*
X178975850Y-63999296D01*
X178984121Y-64002714D01*
G37*
G04 #@! TD.AperFunction*
G04 #@! TA.AperFunction,Conductor*
G36*
X178132052Y-59937888D02*
G01*
X178375331Y-60167032D01*
X178572313Y-60315271D01*
X178572316Y-60315273D01*
X178572320Y-60315275D01*
X178763156Y-60415896D01*
X178763158Y-60415896D01*
X178763166Y-60415901D01*
X178996319Y-60510007D01*
X178996349Y-60510019D01*
X178996348Y-60510019D01*
X179147335Y-60569998D01*
X179309184Y-60634292D01*
X179315608Y-60640531D01*
X179315738Y-60649484D01*
X179315679Y-60649631D01*
X178983697Y-61453466D01*
X178977372Y-61459805D01*
X178972874Y-61460700D01*
X178103892Y-61460010D01*
X178095621Y-61456577D01*
X178092201Y-61448301D01*
X178092257Y-61447169D01*
X178126589Y-61096808D01*
X178126844Y-61095276D01*
X178193563Y-60813273D01*
X178231538Y-60573880D01*
X178231537Y-60573878D01*
X178231538Y-60573877D01*
X178180435Y-60340002D01*
X178180435Y-60340001D01*
X178050270Y-60167029D01*
X177986214Y-60081907D01*
X177983978Y-60073236D01*
X177987289Y-60066600D01*
X178115758Y-59938131D01*
X178124030Y-59934705D01*
X178132052Y-59937888D01*
G37*
G04 #@! TD.AperFunction*
G04 #@! TA.AperFunction,Conductor*
G36*
X185542570Y-71492517D02*
G01*
X185548878Y-71498871D01*
X185548845Y-71507826D01*
X185548673Y-71508218D01*
X185508324Y-71595519D01*
X185508049Y-71596074D01*
X185471233Y-71665790D01*
X185471230Y-71665795D01*
X185443742Y-71727574D01*
X185426606Y-71801517D01*
X185421313Y-71896948D01*
X185417433Y-71905019D01*
X185409631Y-71908000D01*
X185228569Y-71908000D01*
X185220296Y-71904573D01*
X185216887Y-71896948D01*
X185216377Y-71887773D01*
X185211593Y-71801518D01*
X185194456Y-71727575D01*
X185166967Y-71665793D01*
X185130141Y-71596061D01*
X185129869Y-71595511D01*
X185089526Y-71508218D01*
X185089166Y-71499271D01*
X185095239Y-71492689D01*
X185095630Y-71492517D01*
X185314583Y-71400889D01*
X185323538Y-71400857D01*
X185542570Y-71492517D01*
G37*
G04 #@! TD.AperFunction*
G04 #@! TA.AperFunction,Conductor*
G36*
X186223470Y-70542517D02*
G01*
X186229778Y-70548871D01*
X186229745Y-70557826D01*
X186229573Y-70558218D01*
X186189224Y-70645519D01*
X186188949Y-70646074D01*
X186152133Y-70715790D01*
X186152130Y-70715795D01*
X186124642Y-70777574D01*
X186107506Y-70851517D01*
X186102213Y-70946948D01*
X186098333Y-70955019D01*
X186090531Y-70958000D01*
X185909469Y-70958000D01*
X185901196Y-70954573D01*
X185897787Y-70946948D01*
X185897277Y-70937773D01*
X185892493Y-70851518D01*
X185875356Y-70777575D01*
X185847867Y-70715793D01*
X185811041Y-70646061D01*
X185810769Y-70645511D01*
X185770426Y-70558218D01*
X185770066Y-70549271D01*
X185776139Y-70542689D01*
X185776530Y-70542517D01*
X185995483Y-70450889D01*
X186004438Y-70450857D01*
X186223470Y-70542517D01*
G37*
G04 #@! TD.AperFunction*
G04 #@! TA.AperFunction,Conductor*
G36*
X183932390Y-68707434D02*
G01*
X183938699Y-68713789D01*
X183938854Y-68714188D01*
X183972055Y-68804449D01*
X183972253Y-68805036D01*
X183995513Y-68880359D01*
X184019768Y-68943498D01*
X184052658Y-68996230D01*
X184059934Y-69007896D01*
X184123671Y-69079120D01*
X184126634Y-69087569D01*
X184123225Y-69095194D01*
X183995194Y-69223225D01*
X183986921Y-69226652D01*
X183979120Y-69223671D01*
X183907896Y-69159934D01*
X183896230Y-69152658D01*
X183843498Y-69119768D01*
X183780359Y-69095513D01*
X183705036Y-69072253D01*
X183704449Y-69072055D01*
X183614188Y-69038854D01*
X183607606Y-69032781D01*
X183607246Y-69023834D01*
X183607383Y-69023478D01*
X183697436Y-68803821D01*
X183703743Y-68797468D01*
X183923437Y-68707401D01*
X183932390Y-68707434D01*
G37*
G04 #@! TD.AperFunction*
G04 #@! TA.AperFunction,Conductor*
G36*
X186248727Y-56517626D02*
G01*
X186255036Y-56523981D01*
X186255003Y-56532936D01*
X186254942Y-56533078D01*
X186217262Y-56619869D01*
X186217263Y-56619870D01*
X186186666Y-56690385D01*
X186186660Y-56690402D01*
X186166495Y-56753164D01*
X186166492Y-56753173D01*
X186155396Y-56827564D01*
X186155394Y-56827579D01*
X186152364Y-56921678D01*
X186148673Y-56929836D01*
X186140670Y-56933001D01*
X185909328Y-56933001D01*
X185901055Y-56929574D01*
X185897634Y-56921678D01*
X185894602Y-56827579D01*
X185894602Y-56827573D01*
X185883502Y-56753168D01*
X185863335Y-56690397D01*
X185832733Y-56619871D01*
X185832733Y-56619870D01*
X185832733Y-56619869D01*
X185795055Y-56533078D01*
X185794904Y-56524125D01*
X185801128Y-56517687D01*
X185801222Y-56517646D01*
X186020482Y-56425890D01*
X186029437Y-56425858D01*
X186248727Y-56517626D01*
G37*
G04 #@! TD.AperFunction*
G04 #@! TA.AperFunction,Conductor*
G36*
X185573729Y-63892625D02*
G01*
X185580038Y-63898980D01*
X185580005Y-63907935D01*
X185579944Y-63908077D01*
X185542264Y-63994868D01*
X185542265Y-63994869D01*
X185511668Y-64065384D01*
X185511662Y-64065401D01*
X185491497Y-64128163D01*
X185491494Y-64128172D01*
X185480398Y-64202563D01*
X185480396Y-64202578D01*
X185477366Y-64296677D01*
X185473675Y-64304835D01*
X185465672Y-64308000D01*
X185234330Y-64308000D01*
X185226057Y-64304573D01*
X185222636Y-64296677D01*
X185219604Y-64202578D01*
X185219604Y-64202572D01*
X185208504Y-64128167D01*
X185188337Y-64065396D01*
X185157735Y-63994870D01*
X185157735Y-63994869D01*
X185157735Y-63994868D01*
X185120057Y-63908077D01*
X185119906Y-63899124D01*
X185126130Y-63892686D01*
X185126224Y-63892645D01*
X185345484Y-63800889D01*
X185354439Y-63800857D01*
X185573729Y-63892625D01*
G37*
G04 #@! TD.AperFunction*
G04 #@! TA.AperFunction,Conductor*
G36*
X185473945Y-63295427D02*
G01*
X185477366Y-63303323D01*
X185480396Y-63397420D01*
X185480398Y-63397435D01*
X185491494Y-63471826D01*
X185491497Y-63471835D01*
X185511662Y-63534597D01*
X185511668Y-63534614D01*
X185542264Y-63605127D01*
X185579944Y-63691922D01*
X185580095Y-63700875D01*
X185573871Y-63707313D01*
X185573729Y-63707374D01*
X185354518Y-63799109D01*
X185345563Y-63799142D01*
X185345484Y-63799109D01*
X185126272Y-63707374D01*
X185119963Y-63701019D01*
X185119996Y-63692064D01*
X185120057Y-63691922D01*
X185157736Y-63605127D01*
X185188332Y-63534614D01*
X185188337Y-63534603D01*
X185208504Y-63471832D01*
X185219604Y-63397427D01*
X185222636Y-63303322D01*
X185226328Y-63295165D01*
X185234330Y-63292000D01*
X185465672Y-63292000D01*
X185473945Y-63295427D01*
G37*
G04 #@! TD.AperFunction*
G04 #@! TA.AperFunction,Conductor*
G36*
X186302416Y-55983999D02*
G01*
X186465999Y-56147582D01*
X186469426Y-56155855D01*
X186466261Y-56163857D01*
X186401868Y-56232537D01*
X186401857Y-56232550D01*
X186357100Y-56293003D01*
X186357096Y-56293008D01*
X186326980Y-56351639D01*
X186326975Y-56351650D01*
X186326975Y-56351651D01*
X186298744Y-56423159D01*
X186298744Y-56423160D01*
X186298743Y-56423159D01*
X186264015Y-56511173D01*
X186257791Y-56517611D01*
X186248838Y-56517762D01*
X186248694Y-56517705D01*
X186028822Y-56427565D01*
X186022467Y-56421256D01*
X186022434Y-56421177D01*
X185993930Y-56351650D01*
X185932294Y-56201305D01*
X185932327Y-56192350D01*
X185938682Y-56186041D01*
X185938826Y-56185984D01*
X185939367Y-56185770D01*
X186026840Y-56151254D01*
X186098347Y-56123023D01*
X186156994Y-56092899D01*
X186217455Y-56048135D01*
X186286142Y-55983736D01*
X186294520Y-55980578D01*
X186302416Y-55983999D01*
G37*
G04 #@! TD.AperFunction*
G04 #@! TA.AperFunction,Conductor*
G36*
X186013166Y-55291421D02*
G01*
X186506090Y-55397619D01*
X186513456Y-55402712D01*
X186514668Y-55405188D01*
X186753974Y-56088116D01*
X186753476Y-56097057D01*
X186746801Y-56103027D01*
X186745981Y-56103281D01*
X186636909Y-56132718D01*
X186515684Y-56186865D01*
X186394448Y-56262447D01*
X186273240Y-56359436D01*
X186273227Y-56359447D01*
X186273227Y-56359448D01*
X186165244Y-56464942D01*
X186155409Y-56474550D01*
X186147233Y-56477881D01*
X185911011Y-56477881D01*
X185902738Y-56474454D01*
X185899311Y-56466181D01*
X185899377Y-56464942D01*
X185910610Y-56359436D01*
X185918399Y-56286281D01*
X185938799Y-56071552D01*
X185959199Y-55833693D01*
X185959203Y-55833649D01*
X185979596Y-55572741D01*
X185992072Y-55399000D01*
X185999035Y-55302021D01*
X186003046Y-55294016D01*
X186011543Y-55291190D01*
X186013166Y-55291421D01*
G37*
G04 #@! TD.AperFunction*
G04 #@! TA.AperFunction,Conductor*
G36*
X189688121Y-58790927D02*
G01*
X189690567Y-58794509D01*
X189766200Y-58967334D01*
X189766202Y-58967338D01*
X189844883Y-59123905D01*
X189844888Y-59123914D01*
X189923581Y-59257280D01*
X190002275Y-59367418D01*
X190073870Y-59446488D01*
X190076883Y-59454920D01*
X190073882Y-59462180D01*
X189596185Y-59991378D01*
X189588098Y-59995223D01*
X189579660Y-59992223D01*
X189578815Y-59991378D01*
X189101117Y-59462180D01*
X189098117Y-59453742D01*
X189101127Y-59446490D01*
X189172724Y-59367418D01*
X189251418Y-59257280D01*
X189330111Y-59123914D01*
X189408805Y-58967321D01*
X189484433Y-58794509D01*
X189490890Y-58788304D01*
X189495152Y-58787500D01*
X189679848Y-58787500D01*
X189688121Y-58790927D01*
G37*
G04 #@! TD.AperFunction*
G04 #@! TA.AperFunction,Conductor*
G36*
X189084440Y-59630260D02*
G01*
X189085034Y-59630668D01*
X189292981Y-59783213D01*
X189579934Y-59993716D01*
X189584578Y-60001373D01*
X189583070Y-60009130D01*
X189202802Y-60648613D01*
X189195628Y-60653972D01*
X189186766Y-60652689D01*
X189186364Y-60652439D01*
X189069764Y-60576554D01*
X189069758Y-60576551D01*
X188942948Y-60514077D01*
X188942936Y-60514072D01*
X188848157Y-60482372D01*
X188816130Y-60471660D01*
X188816126Y-60471659D01*
X188816121Y-60471658D01*
X188689320Y-60449301D01*
X188689311Y-60449300D01*
X188573988Y-60447208D01*
X188565778Y-60443632D01*
X188562500Y-60435510D01*
X188562500Y-60199280D01*
X188565927Y-60191007D01*
X188567730Y-60189532D01*
X188664999Y-60125038D01*
X188767499Y-60034088D01*
X188870000Y-59920150D01*
X188972500Y-59783222D01*
X189068277Y-59633794D01*
X189075625Y-59628680D01*
X189084440Y-59630260D01*
G37*
G04 #@! TD.AperFunction*
G04 #@! TA.AperFunction,Conductor*
G36*
X187399612Y-74478427D02*
G01*
X187402529Y-74483284D01*
X187450348Y-74639936D01*
X187475528Y-74712337D01*
X187500704Y-74784729D01*
X187551057Y-74909352D01*
X187601409Y-75013813D01*
X187645853Y-75088221D01*
X187647153Y-75097081D01*
X187641960Y-75104173D01*
X187009111Y-75495368D01*
X187000272Y-75496803D01*
X186993589Y-75492421D01*
X186624715Y-74998908D01*
X186622506Y-74990229D01*
X186627081Y-74982532D01*
X186629030Y-74981352D01*
X186732950Y-74931610D01*
X186849712Y-74852415D01*
X186966475Y-74749915D01*
X187083237Y-74624110D01*
X187196486Y-74479486D01*
X187204285Y-74475086D01*
X187205698Y-74475000D01*
X187391339Y-74475000D01*
X187399612Y-74478427D01*
G37*
G04 #@! TD.AperFunction*
G04 #@! TA.AperFunction,Conductor*
G36*
X185497220Y-78365427D02*
G01*
X185500628Y-78373035D01*
X185506063Y-78468546D01*
X185506063Y-78468550D01*
X185523578Y-78542462D01*
X185551530Y-78604183D01*
X185588741Y-78673852D01*
X185589034Y-78674440D01*
X185629550Y-78761772D01*
X185629924Y-78770719D01*
X185623861Y-78777309D01*
X185623454Y-78777489D01*
X185404517Y-78869109D01*
X185395562Y-78869142D01*
X185395483Y-78869109D01*
X185176546Y-78777489D01*
X185170237Y-78771134D01*
X185170270Y-78762179D01*
X185170430Y-78761814D01*
X185210980Y-78674403D01*
X185211251Y-78673861D01*
X185248471Y-78604178D01*
X185276420Y-78542465D01*
X185293935Y-78468554D01*
X185299372Y-78373035D01*
X185303263Y-78364970D01*
X185311053Y-78362000D01*
X185488947Y-78362000D01*
X185497220Y-78365427D01*
G37*
G04 #@! TD.AperFunction*
G04 #@! TA.AperFunction,Conductor*
G36*
X186351691Y-75112595D02*
G01*
X186987104Y-75491187D01*
X186992457Y-75498365D01*
X186991166Y-75507227D01*
X186988963Y-75509915D01*
X186461355Y-75987115D01*
X186452921Y-75990123D01*
X186446652Y-75987919D01*
X186353418Y-75920508D01*
X186252498Y-75863846D01*
X186252496Y-75863845D01*
X186252494Y-75863844D01*
X186202090Y-75843687D01*
X186151574Y-75823485D01*
X186050663Y-75799432D01*
X186050661Y-75799431D01*
X186050658Y-75799431D01*
X185993030Y-75795004D01*
X185954056Y-75792011D01*
X185946679Y-75788618D01*
X185819001Y-75660940D01*
X185815574Y-75652667D01*
X185819001Y-75644394D01*
X185821322Y-75642595D01*
X185915116Y-75587312D01*
X186021912Y-75501512D01*
X186128708Y-75392861D01*
X186235504Y-75261357D01*
X186336082Y-75115989D01*
X186343607Y-75111136D01*
X186351691Y-75112595D01*
G37*
G04 #@! TD.AperFunction*
G04 #@! TA.AperFunction,Conductor*
G36*
X199454675Y-76093427D02*
G01*
X199458102Y-76101597D01*
X199461078Y-76440039D01*
X199461079Y-76440053D01*
X199478325Y-76690242D01*
X199478326Y-76690246D01*
X199521766Y-76902902D01*
X199603416Y-77140297D01*
X199675100Y-77316636D01*
X199730925Y-77453963D01*
X199730866Y-77462918D01*
X199724575Y-77469174D01*
X198954489Y-77789134D01*
X198945534Y-77789143D01*
X198945511Y-77789134D01*
X198175424Y-77469174D01*
X198169099Y-77462835D01*
X198169074Y-77453963D01*
X198296583Y-77140297D01*
X198378233Y-76902902D01*
X198421672Y-76690246D01*
X198438921Y-76440041D01*
X198441898Y-76101597D01*
X198445398Y-76093354D01*
X198453598Y-76090000D01*
X199446402Y-76090000D01*
X199454675Y-76093427D01*
G37*
G04 #@! TD.AperFunction*
G04 #@! TA.AperFunction,Conductor*
G36*
X189595340Y-62007776D02*
G01*
X189596185Y-62008621D01*
X190074160Y-62538127D01*
X190077160Y-62546565D01*
X190074453Y-62553469D01*
X190007681Y-62633374D01*
X189934381Y-62743921D01*
X189934374Y-62743933D01*
X189861086Y-62877292D01*
X189861079Y-62877305D01*
X189787793Y-63033482D01*
X189717475Y-63205233D01*
X189711169Y-63211591D01*
X189706647Y-63212500D01*
X189468353Y-63212500D01*
X189460080Y-63209073D01*
X189457525Y-63205233D01*
X189387205Y-63033482D01*
X189313919Y-62877305D01*
X189313918Y-62877304D01*
X189313911Y-62877288D01*
X189240618Y-62743922D01*
X189167324Y-62633383D01*
X189167319Y-62633377D01*
X189167317Y-62633374D01*
X189100546Y-62553469D01*
X189097871Y-62544924D01*
X189100838Y-62538128D01*
X189578815Y-62008620D01*
X189586902Y-62004776D01*
X189595340Y-62007776D01*
G37*
G04 #@! TD.AperFunction*
G04 #@! TA.AperFunction,Conductor*
G36*
X188820628Y-61050442D02*
G01*
X188972681Y-61142800D01*
X189132582Y-61216794D01*
X189132589Y-61216796D01*
X189132591Y-61216797D01*
X189159258Y-61225280D01*
X189292482Y-61267660D01*
X189452383Y-61295395D01*
X189600524Y-61299661D01*
X189608695Y-61303324D01*
X189611882Y-61311693D01*
X189611880Y-61311758D01*
X189588466Y-61993167D01*
X189584757Y-62001317D01*
X189581232Y-62003582D01*
X189086293Y-62207628D01*
X189077339Y-62207613D01*
X189071017Y-62201270D01*
X189070835Y-62200800D01*
X188986640Y-61968636D01*
X188986635Y-61968623D01*
X188898270Y-61748092D01*
X188809905Y-61550691D01*
X188721540Y-61376420D01*
X188637730Y-61233072D01*
X188636513Y-61224203D01*
X188639556Y-61218898D01*
X188806285Y-61052169D01*
X188814557Y-61048743D01*
X188820628Y-61050442D01*
G37*
G04 #@! TD.AperFunction*
G04 #@! TA.AperFunction,Conductor*
G36*
X189477417Y-63358998D02*
G01*
X189641000Y-63522581D01*
X189644427Y-63530854D01*
X189641262Y-63538856D01*
X189576869Y-63607536D01*
X189576858Y-63607549D01*
X189532101Y-63668002D01*
X189532097Y-63668007D01*
X189501981Y-63726638D01*
X189501976Y-63726649D01*
X189501976Y-63726650D01*
X189473745Y-63798158D01*
X189473745Y-63798159D01*
X189473744Y-63798158D01*
X189439016Y-63886172D01*
X189432792Y-63892610D01*
X189423839Y-63892761D01*
X189423695Y-63892704D01*
X189203823Y-63802564D01*
X189197468Y-63796255D01*
X189197435Y-63796176D01*
X189168931Y-63726649D01*
X189107295Y-63576304D01*
X189107328Y-63567349D01*
X189113683Y-63561040D01*
X189113827Y-63560983D01*
X189114368Y-63560769D01*
X189201841Y-63526253D01*
X189273348Y-63498022D01*
X189331995Y-63467898D01*
X189392456Y-63423134D01*
X189461143Y-63358735D01*
X189469521Y-63355577D01*
X189477417Y-63358998D01*
G37*
G04 #@! TD.AperFunction*
G04 #@! TA.AperFunction,Conductor*
G36*
X143214167Y-58157583D02*
G01*
X143288999Y-58207433D01*
X143407407Y-58286313D01*
X143539946Y-58358304D01*
X143608614Y-58395604D01*
X143608618Y-58395605D01*
X143608626Y-58395610D01*
X143809846Y-58480156D01*
X144011065Y-58539953D01*
X144011071Y-58539954D01*
X144011075Y-58539955D01*
X144075665Y-58551204D01*
X144197918Y-58572497D01*
X144205479Y-58577292D01*
X144207435Y-58586031D01*
X144206726Y-58588482D01*
X144003582Y-59081232D01*
X143997260Y-59087575D01*
X143993167Y-59088466D01*
X143309729Y-59111949D01*
X143301343Y-59108808D01*
X143297902Y-59102777D01*
X143294744Y-59088466D01*
X143283382Y-59036971D01*
X143252958Y-58899084D01*
X143252611Y-58897695D01*
X143205906Y-58710595D01*
X143158860Y-58546876D01*
X143111813Y-58407907D01*
X143106748Y-58395610D01*
X143067738Y-58300900D01*
X143067756Y-58291945D01*
X143070280Y-58288174D01*
X143199408Y-58159046D01*
X143207680Y-58155620D01*
X143214167Y-58157583D01*
G37*
G04 #@! TD.AperFunction*
G04 #@! TA.AperFunction,Conductor*
G36*
X145214167Y-58157583D02*
G01*
X145288999Y-58207433D01*
X145407407Y-58286313D01*
X145539946Y-58358304D01*
X145608614Y-58395604D01*
X145608618Y-58395605D01*
X145608626Y-58395610D01*
X145809846Y-58480156D01*
X146011065Y-58539953D01*
X146011071Y-58539954D01*
X146011075Y-58539955D01*
X146075665Y-58551204D01*
X146197918Y-58572497D01*
X146205479Y-58577292D01*
X146207435Y-58586031D01*
X146206726Y-58588482D01*
X146003582Y-59081232D01*
X145997260Y-59087575D01*
X145993167Y-59088466D01*
X145309729Y-59111949D01*
X145301343Y-59108808D01*
X145297902Y-59102777D01*
X145294744Y-59088466D01*
X145283382Y-59036971D01*
X145252958Y-58899084D01*
X145252611Y-58897695D01*
X145205906Y-58710595D01*
X145158860Y-58546876D01*
X145111813Y-58407907D01*
X145106748Y-58395610D01*
X145067738Y-58300900D01*
X145067756Y-58291945D01*
X145070280Y-58288174D01*
X145199408Y-58159046D01*
X145207680Y-58155620D01*
X145214167Y-58157583D01*
G37*
G04 #@! TD.AperFunction*
G04 #@! TA.AperFunction,Conductor*
G36*
X148101467Y-58065927D02*
G01*
X148103364Y-58068415D01*
X148182507Y-58207554D01*
X148182507Y-58207555D01*
X148265000Y-58332559D01*
X148265001Y-58332560D01*
X148347495Y-58437537D01*
X148347494Y-58437537D01*
X148429996Y-58522497D01*
X148430002Y-58522503D01*
X148465775Y-58550657D01*
X148502027Y-58579188D01*
X148506409Y-58586997D01*
X148503985Y-58595618D01*
X148502970Y-58596748D01*
X148008179Y-59080503D01*
X147999868Y-59083836D01*
X147991821Y-59080503D01*
X147772829Y-58866396D01*
X147497028Y-58596747D01*
X147493509Y-58588514D01*
X147496842Y-58580203D01*
X147497961Y-58579197D01*
X147570000Y-58522501D01*
X147652499Y-58437543D01*
X147735000Y-58332557D01*
X147779559Y-58265034D01*
X147817492Y-58207555D01*
X147817492Y-58207554D01*
X147817491Y-58207554D01*
X147817500Y-58207542D01*
X147896636Y-58068415D01*
X147903705Y-58062918D01*
X147906806Y-58062500D01*
X148093194Y-58062500D01*
X148101467Y-58065927D01*
G37*
G04 #@! TD.AperFunction*
G04 #@! TA.AperFunction,Conductor*
G36*
X180369556Y-70359631D02*
G01*
X180372983Y-70367904D01*
X180372956Y-70368693D01*
X180345625Y-70773305D01*
X180345230Y-70775630D01*
X180266460Y-71060947D01*
X180265592Y-71063173D01*
X180143756Y-71300702D01*
X180143470Y-71301227D01*
X179986004Y-71573027D01*
X179986001Y-71573034D01*
X179806103Y-71950195D01*
X179799448Y-71956187D01*
X179791077Y-71955972D01*
X178984488Y-71622853D01*
X178978150Y-71616529D01*
X178645219Y-70811784D01*
X178645223Y-70802829D01*
X178651557Y-70796500D01*
X178653697Y-70795845D01*
X179052370Y-70714833D01*
X179055305Y-70714616D01*
X179441400Y-70734692D01*
X179441438Y-70734711D01*
X179441439Y-70734695D01*
X179764962Y-70752669D01*
X179986710Y-70661995D01*
X180045653Y-70442960D01*
X180066670Y-70364864D01*
X180072129Y-70357765D01*
X180077968Y-70356204D01*
X180361283Y-70356204D01*
X180369556Y-70359631D01*
G37*
G04 #@! TD.AperFunction*
G04 #@! TA.AperFunction,Conductor*
G36*
X179330591Y-70804171D02*
G01*
X179331529Y-70804611D01*
X179674069Y-70984312D01*
X179675673Y-70985328D01*
X179914412Y-71165214D01*
X180120337Y-71319523D01*
X180374322Y-71427160D01*
X180747526Y-71466496D01*
X180755395Y-71470772D01*
X180758000Y-71478132D01*
X180758000Y-71761867D01*
X180754573Y-71770140D01*
X180747526Y-71773503D01*
X180374322Y-71812839D01*
X180120338Y-71920474D01*
X179914400Y-72074794D01*
X179675675Y-72254669D01*
X179674069Y-72255686D01*
X179331537Y-72435384D01*
X179322619Y-72436193D01*
X179315741Y-72430458D01*
X179315297Y-72429512D01*
X179242900Y-72255244D01*
X178980863Y-71624486D01*
X178980855Y-71615534D01*
X179315297Y-70810486D01*
X179321636Y-70804162D01*
X179330591Y-70804171D01*
G37*
G04 #@! TD.AperFunction*
G04 #@! TA.AperFunction,Conductor*
G36*
X188466276Y-55336397D02*
G01*
X188563858Y-55411795D01*
X188669584Y-55484630D01*
X188669594Y-55484636D01*
X188669598Y-55484639D01*
X188745216Y-55530397D01*
X188775311Y-55548608D01*
X188881037Y-55603731D01*
X188976285Y-55645413D01*
X188982490Y-55651870D01*
X188982416Y-55660579D01*
X188867390Y-55940525D01*
X188861076Y-55946875D01*
X188852790Y-55947151D01*
X188228722Y-55734208D01*
X188221998Y-55728293D01*
X188220987Y-55721052D01*
X188223876Y-55705099D01*
X188228558Y-55673637D01*
X188233240Y-55636572D01*
X188237922Y-55593903D01*
X188242199Y-55549805D01*
X188245570Y-55542665D01*
X188450853Y-55337382D01*
X188459125Y-55333956D01*
X188466276Y-55336397D01*
G37*
G04 #@! TD.AperFunction*
G04 #@! TA.AperFunction,Conductor*
G36*
X182254159Y-74203427D02*
G01*
X182255832Y-74205538D01*
X182355575Y-74366516D01*
X182355577Y-74366520D01*
X182458756Y-74509392D01*
X182458758Y-74509395D01*
X182483886Y-74538430D01*
X182485463Y-74540773D01*
X182511259Y-74591400D01*
X182604103Y-74684244D01*
X182642413Y-74703764D01*
X182645051Y-74705605D01*
X182665109Y-74724184D01*
X182665115Y-74724189D01*
X182757462Y-74788560D01*
X182762289Y-74796102D01*
X182760369Y-74804849D01*
X182759494Y-74805955D01*
X182257256Y-75367880D01*
X182249188Y-75371765D01*
X182241381Y-75369342D01*
X181602447Y-74875811D01*
X181597994Y-74868042D01*
X181600340Y-74859400D01*
X181600437Y-74859275D01*
X181663929Y-74780222D01*
X181734847Y-74669220D01*
X181805764Y-74535515D01*
X181876682Y-74379108D01*
X181944674Y-74207393D01*
X181950906Y-74200962D01*
X181955552Y-74200000D01*
X182245886Y-74200000D01*
X182254159Y-74203427D01*
G37*
G04 #@! TD.AperFunction*
G04 #@! TA.AperFunction,Conductor*
G36*
X182972367Y-63791348D02*
G01*
X183496451Y-64315432D01*
X183499878Y-64323705D01*
X183497499Y-64330777D01*
X183397938Y-64462000D01*
X183348919Y-64532353D01*
X183292200Y-64613759D01*
X183292193Y-64613770D01*
X183186461Y-64777905D01*
X183080738Y-64954419D01*
X182978927Y-65136332D01*
X182971896Y-65141878D01*
X182967039Y-65142197D01*
X182255889Y-65039162D01*
X182248193Y-65034584D01*
X182246751Y-65032045D01*
X182141915Y-64777905D01*
X182010591Y-64459553D01*
X182010604Y-64450599D01*
X182015642Y-64444911D01*
X182198290Y-64341546D01*
X182389930Y-64220703D01*
X182389932Y-64220701D01*
X182389944Y-64220694D01*
X182581558Y-64087478D01*
X182581557Y-64087478D01*
X182581571Y-64087469D01*
X182773211Y-63941846D01*
X182956652Y-63790593D01*
X182965214Y-63787975D01*
X182972367Y-63791348D01*
G37*
G04 #@! TD.AperFunction*
G04 #@! TA.AperFunction,Conductor*
G36*
X182725718Y-59397507D02*
G01*
X182728927Y-59401167D01*
X182830738Y-59583079D01*
X182936461Y-59759593D01*
X182936466Y-59759600D01*
X183042200Y-59923740D01*
X183147933Y-60075491D01*
X183147938Y-60075498D01*
X183247499Y-60206722D01*
X183249769Y-60215384D01*
X183246451Y-60222067D01*
X182722367Y-60746151D01*
X182714094Y-60749578D01*
X182706651Y-60746905D01*
X182523223Y-60595663D01*
X182523211Y-60595653D01*
X182331570Y-60450030D01*
X182331557Y-60450020D01*
X182195252Y-60355257D01*
X182139930Y-60316796D01*
X181948289Y-60195953D01*
X181765642Y-60092589D01*
X181760131Y-60085532D01*
X181760589Y-60077946D01*
X181996751Y-59505453D01*
X182003074Y-59499113D01*
X182005886Y-59498337D01*
X182717040Y-59395302D01*
X182725718Y-59397507D01*
G37*
G04 #@! TD.AperFunction*
G04 #@! TA.AperFunction,Conductor*
G36*
X142020424Y-61683427D02*
G01*
X142023848Y-61691446D01*
X142032751Y-62101923D01*
X142054575Y-62400959D01*
X142080608Y-62658877D01*
X142080636Y-62659200D01*
X142102426Y-62957778D01*
X142102454Y-62958376D01*
X142111341Y-63368060D01*
X142108095Y-63376406D01*
X142099898Y-63380011D01*
X142099658Y-63380014D01*
X141261614Y-63380999D01*
X141261586Y-63380999D01*
X140423541Y-63380014D01*
X140415272Y-63376577D01*
X140411855Y-63368300D01*
X140411856Y-63368167D01*
X140420745Y-62958359D01*
X140420773Y-62957778D01*
X140442569Y-62659124D01*
X140442584Y-62658950D01*
X140468624Y-62400963D01*
X140490448Y-62101927D01*
X140499352Y-61691446D01*
X140502957Y-61683249D01*
X140511049Y-61680000D01*
X142012151Y-61680000D01*
X142020424Y-61683427D01*
G37*
G04 #@! TD.AperFunction*
G04 #@! TA.AperFunction,Conductor*
G36*
X191779397Y-60790927D02*
G01*
X191782658Y-60797236D01*
X191808816Y-60950834D01*
X191836656Y-61106410D01*
X191862484Y-61243406D01*
X191864477Y-61253978D01*
X191886663Y-61365373D01*
X191892305Y-61393702D01*
X191918767Y-61519065D01*
X191917122Y-61527867D01*
X191915317Y-61530020D01*
X191420252Y-61993738D01*
X191411872Y-61996893D01*
X191404525Y-61993982D01*
X190904922Y-61554331D01*
X190900975Y-61546293D01*
X190901124Y-61543541D01*
X190903478Y-61530020D01*
X190923800Y-61413279D01*
X190947600Y-61268669D01*
X190947608Y-61268621D01*
X190971406Y-61116127D01*
X190995193Y-60955819D01*
X190995892Y-60950882D01*
X191017577Y-60797560D01*
X191022129Y-60789850D01*
X191029162Y-60787500D01*
X191771124Y-60787500D01*
X191779397Y-60790927D01*
G37*
G04 #@! TD.AperFunction*
G04 #@! TA.AperFunction,Conductor*
G36*
X198640910Y-70923418D02*
G01*
X198641349Y-70923881D01*
X198881441Y-71191702D01*
X198882369Y-71192882D01*
X199032675Y-71411422D01*
X199033106Y-71412097D01*
X199151236Y-71611883D01*
X199151247Y-71611900D01*
X199302194Y-71831371D01*
X199302199Y-71831378D01*
X199302202Y-71831381D01*
X199543654Y-72100719D01*
X199546625Y-72109167D01*
X199543225Y-72116792D01*
X198954139Y-72707265D01*
X198945870Y-72710702D01*
X198945846Y-72710702D01*
X198112444Y-72710010D01*
X198104174Y-72706576D01*
X198100754Y-72698300D01*
X198100777Y-72697579D01*
X198117791Y-72425668D01*
X198117864Y-72424905D01*
X198146032Y-72206167D01*
X198146810Y-72021714D01*
X198082307Y-71841001D01*
X198074548Y-71831378D01*
X197921279Y-71641285D01*
X197918754Y-71632693D01*
X197922113Y-71625669D01*
X198624365Y-70923417D01*
X198632637Y-70919991D01*
X198640910Y-70923418D01*
G37*
G04 #@! TD.AperFunction*
G04 #@! TA.AperFunction,Conductor*
G36*
X191785634Y-65136422D02*
G01*
X191789061Y-65144695D01*
X191788481Y-65148333D01*
X191744799Y-65281831D01*
X191696098Y-65455818D01*
X191651817Y-65636874D01*
X191647400Y-65654936D01*
X191621349Y-65774896D01*
X191598693Y-65879228D01*
X191551428Y-66121281D01*
X191546479Y-66128744D01*
X191542764Y-66130394D01*
X190059779Y-66498572D01*
X190050924Y-66497240D01*
X190046149Y-66491690D01*
X189723911Y-65712646D01*
X189723916Y-65703693D01*
X189730251Y-65697364D01*
X189731979Y-65696802D01*
X189981244Y-65636878D01*
X190243808Y-65548617D01*
X190506371Y-65435217D01*
X190768935Y-65296676D01*
X190947580Y-65185310D01*
X191028660Y-65134766D01*
X191034849Y-65132995D01*
X191777361Y-65132995D01*
X191785634Y-65136422D01*
G37*
G04 #@! TD.AperFunction*
G04 #@! TA.AperFunction,Conductor*
G36*
X191129570Y-54048161D02*
G01*
X191137326Y-54052634D01*
X191139598Y-54057893D01*
X191185078Y-54338969D01*
X191183016Y-54347683D01*
X191175925Y-54352290D01*
X191037994Y-54381157D01*
X190889076Y-54415085D01*
X190740248Y-54451751D01*
X190591376Y-54491189D01*
X190449081Y-54531522D01*
X190440186Y-54530481D01*
X190437617Y-54528538D01*
X190095037Y-54185958D01*
X190091610Y-54177685D01*
X190095037Y-54169412D01*
X190098327Y-54167099D01*
X190161610Y-54137339D01*
X190239957Y-54097735D01*
X190318305Y-54055372D01*
X190396652Y-54010248D01*
X190471477Y-53964517D01*
X190479093Y-53962900D01*
X191129570Y-54048161D01*
G37*
G04 #@! TD.AperFunction*
G04 #@! TA.AperFunction,Conductor*
G36*
X182257256Y-65044619D02*
G01*
X182759893Y-65606989D01*
X182762852Y-65615441D01*
X182758967Y-65623509D01*
X182758296Y-65624065D01*
X182672738Y-65689768D01*
X182577179Y-65786072D01*
X182577161Y-65786093D01*
X182481626Y-65905286D01*
X182386059Y-66047439D01*
X182293881Y-66206662D01*
X182286770Y-66212105D01*
X182283755Y-66212500D01*
X181917759Y-66212500D01*
X181909486Y-66209073D01*
X181906735Y-66204718D01*
X181846203Y-66034419D01*
X181782909Y-65878534D01*
X181782895Y-65878502D01*
X181719612Y-65744828D01*
X181719607Y-65744817D01*
X181656309Y-65633301D01*
X181599501Y-65553135D01*
X181597515Y-65544404D01*
X181601894Y-65537113D01*
X182241382Y-65043156D01*
X182250023Y-65040811D01*
X182257256Y-65044619D01*
G37*
G04 #@! TD.AperFunction*
G04 #@! TA.AperFunction,Conductor*
G36*
X190449076Y-55468476D02*
G01*
X190591351Y-55508803D01*
X190681740Y-55532747D01*
X190740247Y-55548247D01*
X190863705Y-55578662D01*
X190889107Y-55584921D01*
X191037985Y-55618840D01*
X191175926Y-55647710D01*
X191183320Y-55652758D01*
X191185078Y-55661030D01*
X191139598Y-55942106D01*
X191134893Y-55949725D01*
X191129569Y-55951838D01*
X190479096Y-56037098D01*
X190471474Y-56035480D01*
X190396666Y-55989759D01*
X190330825Y-55951838D01*
X190318305Y-55944627D01*
X190275319Y-55921383D01*
X190239954Y-55902261D01*
X190161615Y-55862661D01*
X190098331Y-55832902D01*
X190092303Y-55826280D01*
X190092722Y-55817335D01*
X190095034Y-55814044D01*
X190437618Y-55471460D01*
X190445890Y-55468034D01*
X190449076Y-55468476D01*
G37*
G04 #@! TD.AperFunction*
G04 #@! TA.AperFunction,Conductor*
G36*
X194157222Y-61997508D02*
G01*
X194164170Y-62003156D01*
X194165054Y-62005258D01*
X194386087Y-62718850D01*
X194385262Y-62727767D01*
X194383818Y-62729899D01*
X194264123Y-62870418D01*
X194140313Y-63020538D01*
X194016491Y-63175440D01*
X193892631Y-63335161D01*
X193776885Y-63488879D01*
X193769171Y-63493427D01*
X193760500Y-63491188D01*
X193759265Y-63490114D01*
X193056710Y-62787559D01*
X193053283Y-62779286D01*
X193054848Y-62773441D01*
X193155265Y-62599330D01*
X193155291Y-62599285D01*
X193260218Y-62412586D01*
X193365146Y-62221118D01*
X193470073Y-62024879D01*
X193480316Y-62005258D01*
X193504260Y-61959386D01*
X193570534Y-61832425D01*
X193577399Y-61826679D01*
X193584247Y-61826629D01*
X194157222Y-61997508D01*
G37*
G04 #@! TD.AperFunction*
G04 #@! TA.AperFunction,Conductor*
G36*
X191063980Y-64782610D02*
G01*
X191769001Y-65487631D01*
X191772428Y-65495904D01*
X191771251Y-65501019D01*
X191729914Y-65586057D01*
X191684942Y-65696088D01*
X191684927Y-65696128D01*
X191639957Y-65823673D01*
X191594985Y-65968735D01*
X191551826Y-66124765D01*
X191546317Y-66131825D01*
X191543345Y-66133007D01*
X190059062Y-66498302D01*
X190050210Y-66496952D01*
X190045452Y-66491407D01*
X189894042Y-66124765D01*
X189722593Y-65709596D01*
X189722602Y-65700642D01*
X189727685Y-65694925D01*
X189986198Y-65550061D01*
X190253767Y-65382602D01*
X190521337Y-65197622D01*
X190788906Y-64995123D01*
X191048277Y-64781845D01*
X191056843Y-64779238D01*
X191063980Y-64782610D01*
G37*
G04 #@! TD.AperFunction*
G04 #@! TA.AperFunction,Conductor*
G36*
X191048284Y-64798286D02*
G01*
X191753406Y-65503408D01*
X191756833Y-65511681D01*
X191755730Y-65516641D01*
X191717367Y-65598600D01*
X191675538Y-65705478D01*
X191675528Y-65705504D01*
X191675525Y-65705514D01*
X191633683Y-65829946D01*
X191591841Y-65971898D01*
X191591838Y-65971910D01*
X191551765Y-66124640D01*
X191546351Y-66131773D01*
X191543244Y-66133032D01*
X190059062Y-66498302D01*
X190050210Y-66496952D01*
X190045452Y-66491407D01*
X189722608Y-65709635D01*
X189722617Y-65700680D01*
X189727743Y-65694940D01*
X189983061Y-65553198D01*
X190247493Y-65388876D01*
X190511925Y-65207034D01*
X190776357Y-65007672D01*
X191032594Y-64797511D01*
X191041161Y-64794916D01*
X191048284Y-64798286D01*
G37*
G04 #@! TD.AperFunction*
G04 #@! TA.AperFunction,Conductor*
G36*
X191543345Y-66866992D02*
G01*
X191550560Y-66872297D01*
X191551826Y-66875234D01*
X191594985Y-67031264D01*
X191639957Y-67176326D01*
X191684927Y-67303871D01*
X191684942Y-67303911D01*
X191729914Y-67413942D01*
X191771251Y-67498980D01*
X191771786Y-67507919D01*
X191769001Y-67512368D01*
X191063980Y-68217389D01*
X191055707Y-68220816D01*
X191048276Y-68218153D01*
X190788906Y-68004876D01*
X190521333Y-67802374D01*
X190253784Y-67617408D01*
X190253777Y-67617403D01*
X189986212Y-67449947D01*
X189986198Y-67449938D01*
X189781313Y-67335125D01*
X189727687Y-67305075D01*
X189722145Y-67298041D01*
X189722592Y-67290403D01*
X190045453Y-66508590D01*
X190051777Y-66502253D01*
X190059061Y-66501697D01*
X191543345Y-66866992D01*
G37*
G04 #@! TD.AperFunction*
G04 #@! TA.AperFunction,Conductor*
G36*
X194219681Y-60558981D02*
G01*
X194222401Y-60561006D01*
X194746677Y-61085282D01*
X194750104Y-61093555D01*
X194750104Y-61093556D01*
X194750084Y-61261385D01*
X194750063Y-61446451D01*
X194750042Y-61643907D01*
X194750021Y-61853753D01*
X194750001Y-62062697D01*
X194746573Y-62070970D01*
X194738300Y-62074396D01*
X194736816Y-62074301D01*
X194167488Y-62001435D01*
X194159717Y-61996986D01*
X194158885Y-61995756D01*
X193748817Y-61297683D01*
X193747581Y-61288814D01*
X193749568Y-61284706D01*
X193838143Y-61167511D01*
X193931430Y-61031692D01*
X194024716Y-60883483D01*
X194118003Y-60722884D01*
X194203832Y-60563723D01*
X194210773Y-60558070D01*
X194219681Y-60558981D01*
G37*
G04 #@! TD.AperFunction*
G04 #@! TA.AperFunction,Conductor*
G36*
X182578913Y-58939313D02*
G01*
X182701985Y-59055518D01*
X182719036Y-59071618D01*
X182867402Y-59185810D01*
X182867411Y-59185815D01*
X182867412Y-59185816D01*
X183015755Y-59274097D01*
X183015761Y-59274099D01*
X183015768Y-59274104D01*
X183164134Y-59336500D01*
X183164140Y-59336502D01*
X183258288Y-59359663D01*
X183303595Y-59370809D01*
X183310810Y-59376113D01*
X183312500Y-59382170D01*
X183312500Y-59617829D01*
X183309073Y-59626102D01*
X183303595Y-59629190D01*
X183164146Y-59663495D01*
X183164133Y-59663499D01*
X183015774Y-59725892D01*
X183015755Y-59725901D01*
X182867412Y-59814182D01*
X182867402Y-59814189D01*
X182719039Y-59928378D01*
X182719034Y-59928382D01*
X182578913Y-60060686D01*
X182570545Y-60063874D01*
X182562631Y-60060475D01*
X182226164Y-59725892D01*
X182007341Y-59508294D01*
X182003892Y-59500033D01*
X182007296Y-59491750D01*
X182562632Y-58939523D01*
X182570914Y-58936120D01*
X182578913Y-58939313D01*
G37*
G04 #@! TD.AperFunction*
G04 #@! TA.AperFunction,Conductor*
G36*
X191420227Y-62005800D02*
G01*
X191919975Y-62445578D01*
X191923922Y-62453616D01*
X191923735Y-62456571D01*
X191898710Y-62586662D01*
X191872409Y-62731277D01*
X191846091Y-62883876D01*
X191819806Y-63044176D01*
X191795046Y-63202607D01*
X191790382Y-63210251D01*
X191783486Y-63212500D01*
X191041514Y-63212500D01*
X191033241Y-63209073D01*
X191029954Y-63202607D01*
X191005193Y-63044176D01*
X190978908Y-62883876D01*
X190952590Y-62731277D01*
X190926289Y-62586662D01*
X190901264Y-62456571D01*
X190903066Y-62447800D01*
X190905020Y-62445581D01*
X191404771Y-62005800D01*
X191413245Y-62002908D01*
X191420227Y-62005800D01*
G37*
G04 #@! TD.AperFunction*
G04 #@! TA.AperFunction,Conductor*
G36*
X142364997Y-59959034D02*
G01*
X142888794Y-60482831D01*
X142892221Y-60491104D01*
X142888794Y-60499377D01*
X142888474Y-60499686D01*
X142762906Y-60616053D01*
X142762902Y-60616057D01*
X142628423Y-60753071D01*
X142493967Y-60902450D01*
X142359469Y-61064266D01*
X142229800Y-61232221D01*
X142222032Y-61236675D01*
X142217427Y-61236350D01*
X141505383Y-61039887D01*
X141498319Y-61034383D01*
X141497359Y-61032196D01*
X141313579Y-60460795D01*
X141314308Y-60451872D01*
X141320788Y-60446194D01*
X141519800Y-60375302D01*
X141729493Y-60288214D01*
X141939187Y-60188736D01*
X142148880Y-60076868D01*
X142350760Y-59957240D01*
X142359624Y-59955972D01*
X142364997Y-59959034D01*
G37*
G04 #@! TD.AperFunction*
G04 #@! TA.AperFunction,Conductor*
G36*
X201425384Y-63170117D02*
G01*
X201430086Y-63176084D01*
X201717146Y-63996134D01*
X201717146Y-64003866D01*
X201430086Y-64823915D01*
X201424118Y-64830591D01*
X201416574Y-64831486D01*
X201213341Y-64787613D01*
X201123104Y-64768133D01*
X201123095Y-64768131D01*
X201123093Y-64768131D01*
X200819532Y-64715498D01*
X200515981Y-64675767D01*
X200471495Y-64671834D01*
X200212401Y-64648933D01*
X200120291Y-64644705D01*
X199919997Y-64635512D01*
X199911889Y-64631709D01*
X199908833Y-64623824D01*
X199908833Y-63376175D01*
X199912260Y-63367902D01*
X199919995Y-63364487D01*
X200212401Y-63351066D01*
X200515969Y-63324233D01*
X200659860Y-63305399D01*
X200819532Y-63284500D01*
X200896187Y-63271209D01*
X201123104Y-63231866D01*
X201416574Y-63168513D01*
X201425384Y-63170117D01*
G37*
G04 #@! TD.AperFunction*
G04 #@! TA.AperFunction,Conductor*
G36*
X184681535Y-55397207D02*
G01*
X184688409Y-55402946D01*
X184689532Y-55406156D01*
X184822241Y-56093478D01*
X184820445Y-56102251D01*
X184818545Y-56104424D01*
X184704835Y-56205947D01*
X184586165Y-56319790D01*
X184467514Y-56441504D01*
X184348829Y-56571143D01*
X184238397Y-56699110D01*
X184230397Y-56703134D01*
X184221895Y-56700324D01*
X184221266Y-56699739D01*
X183697655Y-56176128D01*
X183694228Y-56167855D01*
X183695751Y-56162085D01*
X183788084Y-55999412D01*
X183884813Y-55821105D01*
X183981542Y-55634908D01*
X184078271Y-55440821D01*
X184170625Y-55247978D01*
X184177288Y-55241999D01*
X184184666Y-55241867D01*
X184681535Y-55397207D01*
G37*
G04 #@! TD.AperFunction*
G04 #@! TA.AperFunction,Conductor*
G36*
X143907310Y-52676139D02*
G01*
X143907489Y-52676546D01*
X143999109Y-52895483D01*
X143999142Y-52904438D01*
X143999109Y-52904517D01*
X143907489Y-53123454D01*
X143901134Y-53129763D01*
X143892179Y-53129730D01*
X143891783Y-53129555D01*
X143804440Y-53089034D01*
X143803852Y-53088741D01*
X143734183Y-53051530D01*
X143707989Y-53039667D01*
X143672465Y-53023579D01*
X143672463Y-53023578D01*
X143672462Y-53023578D01*
X143642406Y-53016456D01*
X143598554Y-53006064D01*
X143598551Y-53006063D01*
X143598548Y-53006063D01*
X143503035Y-53000627D01*
X143494970Y-52996736D01*
X143492000Y-52988946D01*
X143492000Y-52811052D01*
X143495427Y-52802779D01*
X143503032Y-52799372D01*
X143598554Y-52793935D01*
X143672465Y-52776420D01*
X143734178Y-52748471D01*
X143803861Y-52711251D01*
X143804403Y-52710980D01*
X143891774Y-52670448D01*
X143900719Y-52670077D01*
X143907310Y-52676139D01*
G37*
G04 #@! TD.AperFunction*
G04 #@! TA.AperFunction,Conductor*
G36*
X141757400Y-58203279D02*
G01*
X141817334Y-58261089D01*
X141880667Y-58311035D01*
X141880666Y-58311035D01*
X141943998Y-58349840D01*
X141944000Y-58349841D01*
X141944002Y-58349842D01*
X142007336Y-58377506D01*
X142050889Y-58388868D01*
X142058028Y-58394272D01*
X142059255Y-58403143D01*
X142056198Y-58408471D01*
X141508264Y-58955253D01*
X141499988Y-58958671D01*
X141491736Y-58955253D01*
X140943801Y-58408471D01*
X140940365Y-58400201D01*
X140943783Y-58391925D01*
X140949108Y-58388869D01*
X140992663Y-58377506D01*
X141055997Y-58349842D01*
X141119331Y-58311036D01*
X141182665Y-58261089D01*
X141242601Y-58203277D01*
X141250722Y-58200000D01*
X141749277Y-58200000D01*
X141757400Y-58203279D01*
G37*
G04 #@! TD.AperFunction*
G04 #@! TA.AperFunction,Conductor*
G36*
X201422367Y-55603848D02*
G01*
X201946451Y-56127932D01*
X201949878Y-56136205D01*
X201947499Y-56143277D01*
X201847938Y-56274500D01*
X201798919Y-56344853D01*
X201742200Y-56426259D01*
X201742193Y-56426270D01*
X201636461Y-56590405D01*
X201530738Y-56766919D01*
X201428927Y-56948832D01*
X201421896Y-56954378D01*
X201417039Y-56954697D01*
X200705889Y-56851662D01*
X200698193Y-56847084D01*
X200696751Y-56844545D01*
X200591915Y-56590405D01*
X200460591Y-56272053D01*
X200460604Y-56263099D01*
X200465642Y-56257411D01*
X200648290Y-56154046D01*
X200839930Y-56033203D01*
X200839932Y-56033201D01*
X200839944Y-56033194D01*
X201031558Y-55899978D01*
X201031557Y-55899978D01*
X201031571Y-55899969D01*
X201223211Y-55754346D01*
X201406652Y-55603093D01*
X201415214Y-55600475D01*
X201422367Y-55603848D01*
G37*
G04 #@! TD.AperFunction*
G04 #@! TA.AperFunction,Conductor*
G36*
X191655104Y-54701781D02*
G01*
X191701343Y-54717914D01*
X191752686Y-54729259D01*
X191804030Y-54734035D01*
X191855373Y-54732240D01*
X191900803Y-54724838D01*
X191909517Y-54726890D01*
X191910955Y-54728113D01*
X192163209Y-54980367D01*
X192166636Y-54988640D01*
X192163209Y-54996913D01*
X192158992Y-54999614D01*
X192098845Y-55021843D01*
X192098837Y-55021847D01*
X192021573Y-55056971D01*
X192021532Y-55056991D01*
X191944268Y-55098686D01*
X191944254Y-55098694D01*
X191866986Y-55146958D01*
X191794397Y-55198470D01*
X191785667Y-55200463D01*
X191784182Y-55200110D01*
X191162213Y-55008536D01*
X191155315Y-55002825D01*
X191154475Y-54993910D01*
X191159740Y-54987261D01*
X191645335Y-54702732D01*
X191654206Y-54701507D01*
X191655104Y-54701781D01*
G37*
G04 #@! TD.AperFunction*
G04 #@! TA.AperFunction,Conductor*
G36*
X195993919Y-60643920D02*
G01*
X196519121Y-61169122D01*
X196519657Y-61169695D01*
X196565881Y-61222763D01*
X196565884Y-61222766D01*
X196565885Y-61222767D01*
X196612351Y-61267319D01*
X196612363Y-61267329D01*
X196658818Y-61303078D01*
X196658823Y-61303081D01*
X196658828Y-61303085D01*
X196675384Y-61312691D01*
X196705301Y-61330052D01*
X196720975Y-61336180D01*
X196737069Y-61342472D01*
X196743527Y-61348676D01*
X196743706Y-61357629D01*
X196741993Y-61360618D01*
X196244971Y-61990345D01*
X196237156Y-61994716D01*
X196228538Y-61992280D01*
X196227488Y-61991343D01*
X196226496Y-61990345D01*
X195674762Y-61435097D01*
X195671361Y-61426813D01*
X195672437Y-61421948D01*
X195731342Y-61294361D01*
X195793654Y-61147004D01*
X195855967Y-60987257D01*
X195918279Y-60815120D01*
X195974562Y-60648448D01*
X195980455Y-60641708D01*
X195989389Y-60641108D01*
X195993919Y-60643920D01*
G37*
G04 #@! TD.AperFunction*
G04 #@! TA.AperFunction,Conductor*
G36*
X187202417Y-62783998D02*
G01*
X187366000Y-62947581D01*
X187369427Y-62955854D01*
X187366262Y-62963856D01*
X187301869Y-63032536D01*
X187301858Y-63032549D01*
X187257101Y-63093002D01*
X187257097Y-63093007D01*
X187226981Y-63151638D01*
X187226976Y-63151649D01*
X187226976Y-63151650D01*
X187198745Y-63223158D01*
X187198745Y-63223159D01*
X187198744Y-63223158D01*
X187164016Y-63311172D01*
X187157792Y-63317610D01*
X187148839Y-63317761D01*
X187148695Y-63317704D01*
X186928823Y-63227564D01*
X186922468Y-63221255D01*
X186922435Y-63221176D01*
X186893931Y-63151649D01*
X186832295Y-63001304D01*
X186832328Y-62992349D01*
X186838683Y-62986040D01*
X186838827Y-62985983D01*
X186839368Y-62985769D01*
X186926841Y-62951253D01*
X186998348Y-62923022D01*
X187056995Y-62892898D01*
X187117456Y-62848134D01*
X187186143Y-62783735D01*
X187194521Y-62780577D01*
X187202417Y-62783998D01*
G37*
G04 #@! TD.AperFunction*
G04 #@! TA.AperFunction,Conductor*
G36*
X158925528Y-56296047D02*
G01*
X158926924Y-56297240D01*
X159271507Y-56641823D01*
X159274934Y-56650096D01*
X159274442Y-56653454D01*
X159231147Y-56797954D01*
X159185876Y-56957805D01*
X159140584Y-57126494D01*
X159095285Y-57303972D01*
X159052712Y-57479003D01*
X159047426Y-57486232D01*
X159038794Y-57487657D01*
X158656705Y-57402361D01*
X158649377Y-57397214D01*
X158647786Y-57393262D01*
X158632258Y-57316506D01*
X158518946Y-56756388D01*
X158520665Y-56747603D01*
X158522403Y-56745544D01*
X158597570Y-56675030D01*
X158677487Y-56591301D01*
X158757403Y-56498811D01*
X158837320Y-56397562D01*
X158909186Y-56298635D01*
X158916820Y-56293957D01*
X158925528Y-56296047D01*
G37*
G04 #@! TD.AperFunction*
G04 #@! TA.AperFunction,Conductor*
G36*
X166552609Y-56298251D02*
G01*
X166554424Y-56300598D01*
X166611902Y-56398455D01*
X166651907Y-56461184D01*
X166677043Y-56500599D01*
X166704936Y-56540585D01*
X166742184Y-56593982D01*
X166742193Y-56593994D01*
X166742194Y-56593995D01*
X166786990Y-56652189D01*
X166807325Y-56678605D01*
X166868101Y-56749384D01*
X166870890Y-56757893D01*
X166870291Y-56760804D01*
X166653030Y-57393932D01*
X166647103Y-57400645D01*
X166643613Y-57401717D01*
X166262449Y-57456010D01*
X166253775Y-57453784D01*
X166249216Y-57446077D01*
X166249127Y-57445238D01*
X166237509Y-57278059D01*
X166225020Y-57107095D01*
X166223471Y-57086987D01*
X166212533Y-56944916D01*
X166200043Y-56791474D01*
X166200043Y-56791475D01*
X166200041Y-56791447D01*
X166188020Y-56652188D01*
X166190723Y-56643652D01*
X166191392Y-56642922D01*
X166536064Y-56298250D01*
X166544336Y-56294824D01*
X166552609Y-56298251D01*
G37*
G04 #@! TD.AperFunction*
G04 #@! TA.AperFunction,Conductor*
G36*
X187576304Y-65807295D02*
G01*
X187796176Y-65897435D01*
X187802531Y-65903744D01*
X187802564Y-65903823D01*
X187892704Y-66123695D01*
X187892671Y-66132650D01*
X187886316Y-66138959D01*
X187886172Y-66139016D01*
X187798158Y-66173744D01*
X187798158Y-66173745D01*
X187762404Y-66187860D01*
X187726649Y-66201976D01*
X187726638Y-66201981D01*
X187668007Y-66232097D01*
X187668002Y-66232101D01*
X187607549Y-66276858D01*
X187607536Y-66276869D01*
X187538856Y-66341262D01*
X187530477Y-66344421D01*
X187522581Y-66341000D01*
X187358998Y-66177417D01*
X187355571Y-66169144D01*
X187358735Y-66161143D01*
X187423134Y-66092456D01*
X187467898Y-66031995D01*
X187498022Y-65973348D01*
X187526253Y-65901841D01*
X187560983Y-65813827D01*
X187567207Y-65807389D01*
X187576160Y-65807238D01*
X187576304Y-65807295D01*
G37*
G04 #@! TD.AperFunction*
G04 #@! TA.AperFunction,Conductor*
G36*
X192478701Y-54078655D02*
G01*
X192479097Y-54079029D01*
X192650707Y-54249293D01*
X192820957Y-54420889D01*
X192824351Y-54429175D01*
X192820892Y-54437435D01*
X192820482Y-54437822D01*
X192735982Y-54513939D01*
X192734858Y-54514833D01*
X192661612Y-54566081D01*
X192660970Y-54566499D01*
X192593818Y-54607202D01*
X192519654Y-54659092D01*
X192433745Y-54736480D01*
X192425304Y-54739471D01*
X192417641Y-54736060D01*
X192163939Y-54482358D01*
X192160512Y-54474085D01*
X192163517Y-54466256D01*
X192240903Y-54380349D01*
X192292787Y-54306194D01*
X192333515Y-54238999D01*
X192333900Y-54238409D01*
X192385171Y-54165132D01*
X192386055Y-54164021D01*
X192462178Y-54079516D01*
X192470260Y-54075664D01*
X192478701Y-54078655D01*
G37*
G04 #@! TD.AperFunction*
G04 #@! TA.AperFunction,Conductor*
G36*
X187457056Y-76814446D02*
G01*
X187602501Y-76854579D01*
X187755001Y-76888769D01*
X187907500Y-76915070D01*
X188060000Y-76933480D01*
X188201607Y-76943248D01*
X188209624Y-76947236D01*
X188212501Y-76954920D01*
X188212501Y-77695079D01*
X188209074Y-77703352D01*
X188201606Y-77706751D01*
X188060020Y-77716517D01*
X188059993Y-77716519D01*
X187907498Y-77734929D01*
X187755010Y-77761228D01*
X187602500Y-77795420D01*
X187457058Y-77835552D01*
X187448171Y-77834449D01*
X187445163Y-77832002D01*
X187306417Y-77674336D01*
X187005801Y-77332728D01*
X187002909Y-77324255D01*
X187005801Y-77317272D01*
X187445164Y-76817996D01*
X187453201Y-76814050D01*
X187457056Y-76814446D01*
G37*
G04 #@! TD.AperFunction*
G04 #@! TA.AperFunction,Conductor*
G36*
X189200087Y-76949821D02*
G01*
X189200412Y-76949831D01*
X189504339Y-76963707D01*
X189504485Y-76963715D01*
X189767025Y-76980288D01*
X190071186Y-76994176D01*
X190488470Y-76999843D01*
X190496696Y-77003382D01*
X190500011Y-77011530D01*
X190500995Y-77995142D01*
X190497576Y-78003419D01*
X190497562Y-78003433D01*
X189802269Y-78697744D01*
X189793994Y-78701165D01*
X189785723Y-78697732D01*
X189784763Y-78696643D01*
X189561805Y-78409676D01*
X189560641Y-78407853D01*
X189420848Y-78136269D01*
X189294291Y-77912757D01*
X189103732Y-77761571D01*
X188781210Y-77707633D01*
X188773616Y-77702888D01*
X188771440Y-77696093D01*
X188771440Y-76955860D01*
X188774867Y-76947587D01*
X188783140Y-76944160D01*
X188783290Y-76944160D01*
X189200087Y-76949821D01*
G37*
G04 #@! TD.AperFunction*
G04 #@! TA.AperFunction,Conductor*
G36*
X179992018Y-76009276D02*
G01*
X179992194Y-76009498D01*
X180164308Y-76233090D01*
X180361717Y-76467397D01*
X180605902Y-76672435D01*
X180605903Y-76672435D01*
X180605905Y-76672437D01*
X180925723Y-76817785D01*
X181339811Y-76871674D01*
X181347572Y-76876139D01*
X181350000Y-76883275D01*
X181350000Y-77116724D01*
X181346573Y-77124997D01*
X181339810Y-77128326D01*
X180925725Y-77182213D01*
X180925724Y-77182213D01*
X180605905Y-77327562D01*
X180605902Y-77327563D01*
X180361717Y-77532600D01*
X180164308Y-77766907D01*
X179992194Y-77990501D01*
X179984432Y-77994966D01*
X179975786Y-77992635D01*
X179975564Y-77992459D01*
X178905957Y-77127000D01*
X178760239Y-77009094D01*
X178755964Y-77001228D01*
X178758504Y-76992641D01*
X178760240Y-76990905D01*
X178893258Y-76883275D01*
X179975564Y-76007539D01*
X179984151Y-76005000D01*
X179992018Y-76009276D01*
G37*
G04 #@! TD.AperFunction*
G04 #@! TA.AperFunction,Conductor*
G36*
X181776335Y-76865672D02*
G01*
X181780002Y-76868674D01*
X181838970Y-76941455D01*
X182241940Y-77438818D01*
X182244485Y-77447402D01*
X182240214Y-77455273D01*
X182238203Y-77456585D01*
X181541364Y-77815201D01*
X181532440Y-77815940D01*
X181525917Y-77810717D01*
X181499043Y-77764892D01*
X181418769Y-77628002D01*
X181306020Y-77462542D01*
X181193272Y-77323888D01*
X181080523Y-77212041D01*
X180972430Y-77130511D01*
X180967888Y-77122793D01*
X180967775Y-77121170D01*
X180967775Y-76888530D01*
X180971202Y-76880257D01*
X180979475Y-76876830D01*
X180982699Y-76877283D01*
X181129220Y-76919337D01*
X181290664Y-76941455D01*
X181290669Y-76941454D01*
X181290670Y-76941455D01*
X181302646Y-76941299D01*
X181452110Y-76939355D01*
X181613555Y-76913037D01*
X181767418Y-76864873D01*
X181776335Y-76865672D01*
G37*
G04 #@! TD.AperFunction*
G04 #@! TA.AperFunction,Conductor*
G36*
X182630602Y-61853427D02*
G01*
X182633522Y-61858295D01*
X182672299Y-61985834D01*
X182713597Y-62109272D01*
X182713606Y-62109299D01*
X182754892Y-62220316D01*
X182796202Y-62319004D01*
X182833826Y-62397600D01*
X182834307Y-62406542D01*
X182831332Y-62411134D01*
X182258059Y-62955842D01*
X182249701Y-62959056D01*
X182241941Y-62955842D01*
X181668667Y-62411134D01*
X181665030Y-62402951D01*
X181666173Y-62397600D01*
X181703799Y-62318999D01*
X181745099Y-62220334D01*
X181786400Y-62109279D01*
X181827700Y-61985834D01*
X181845178Y-61928348D01*
X181866478Y-61858296D01*
X181872163Y-61851378D01*
X181877672Y-61850000D01*
X182622329Y-61850000D01*
X182630602Y-61853427D01*
G37*
G04 #@! TD.AperFunction*
G04 #@! TA.AperFunction,Conductor*
G36*
X195945194Y-65082734D02*
G01*
X195946447Y-65088002D01*
X195946447Y-65830996D01*
X195947156Y-65861924D01*
X195947491Y-65874820D01*
X195947868Y-65889314D01*
X195948506Y-65910732D01*
X195948577Y-65913083D01*
X195949291Y-65933386D01*
X195949635Y-65941456D01*
X195946564Y-65949868D01*
X195941971Y-65952941D01*
X194460496Y-66495787D01*
X194451549Y-66495415D01*
X194445485Y-66488826D01*
X194445314Y-66488323D01*
X194200333Y-65712235D01*
X194201110Y-65703314D01*
X194207968Y-65697556D01*
X194208988Y-65697284D01*
X194546466Y-65624080D01*
X194896461Y-65523020D01*
X195246456Y-65396819D01*
X195596451Y-65245479D01*
X195929480Y-65077554D01*
X195938409Y-65076890D01*
X195945194Y-65082734D01*
G37*
G04 #@! TD.AperFunction*
G04 #@! TA.AperFunction,Conductor*
G36*
X177303972Y-75127288D02*
G01*
X177306742Y-75131695D01*
X177364137Y-75295648D01*
X177406247Y-75415937D01*
X177408600Y-75422657D01*
X177408599Y-75422657D01*
X177408600Y-75422658D01*
X177672117Y-75531996D01*
X178019118Y-75520945D01*
X178374125Y-75458584D01*
X178374235Y-75458566D01*
X178649102Y-75415937D01*
X178657800Y-75418056D01*
X178662455Y-75425706D01*
X178662575Y-75426850D01*
X178749202Y-76986634D01*
X178746239Y-76995085D01*
X178738169Y-76998965D01*
X178735774Y-76998852D01*
X177196629Y-76766504D01*
X177188960Y-76761881D01*
X177186692Y-76755568D01*
X177172881Y-76500015D01*
X177172880Y-76500011D01*
X177079164Y-76233060D01*
X177079146Y-76233014D01*
X177004053Y-76054630D01*
X176953702Y-75935021D01*
X176953305Y-75933928D01*
X176843603Y-75575721D01*
X176843157Y-75573532D01*
X176797355Y-75136781D01*
X176799900Y-75128196D01*
X176807771Y-75123925D01*
X176808991Y-75123861D01*
X177295699Y-75123861D01*
X177303972Y-75127288D01*
G37*
G04 #@! TD.AperFunction*
G04 #@! TA.AperFunction,Conductor*
G36*
X158552609Y-56298251D02*
G01*
X158554424Y-56300598D01*
X158611902Y-56398455D01*
X158651907Y-56461184D01*
X158677043Y-56500599D01*
X158704936Y-56540585D01*
X158742184Y-56593982D01*
X158742193Y-56593994D01*
X158742194Y-56593995D01*
X158786990Y-56652189D01*
X158807325Y-56678605D01*
X158868101Y-56749384D01*
X158870890Y-56757893D01*
X158870291Y-56760804D01*
X158653030Y-57393932D01*
X158647103Y-57400645D01*
X158643613Y-57401717D01*
X158262449Y-57456010D01*
X158253775Y-57453784D01*
X158249216Y-57446077D01*
X158249127Y-57445238D01*
X158237509Y-57278059D01*
X158225020Y-57107095D01*
X158223471Y-57086987D01*
X158212533Y-56944916D01*
X158200043Y-56791474D01*
X158200043Y-56791475D01*
X158200041Y-56791447D01*
X158188020Y-56652188D01*
X158190723Y-56643652D01*
X158191392Y-56642922D01*
X158536064Y-56298250D01*
X158544336Y-56294824D01*
X158552609Y-56298251D01*
G37*
G04 #@! TD.AperFunction*
G04 #@! TA.AperFunction,Conductor*
G36*
X183132150Y-56432087D02*
G01*
X183133071Y-56436636D01*
X183133071Y-57176005D01*
X183129644Y-57184278D01*
X183129463Y-57184455D01*
X183051467Y-57259148D01*
X183051447Y-57259168D01*
X182969846Y-57349705D01*
X182888229Y-57452649D01*
X182806610Y-57567988D01*
X182730089Y-57687738D01*
X182722747Y-57692864D01*
X182716142Y-57692401D01*
X182004721Y-57427133D01*
X181998167Y-57421031D01*
X181997478Y-57419086D01*
X181979627Y-57349711D01*
X181850823Y-56849132D01*
X181852080Y-56840268D01*
X181859238Y-56834888D01*
X181859471Y-56834831D01*
X182104878Y-56778580D01*
X182361926Y-56707270D01*
X182618974Y-56623570D01*
X182876022Y-56527480D01*
X183116822Y-56425856D01*
X183125776Y-56425797D01*
X183132150Y-56432087D01*
G37*
G04 #@! TD.AperFunction*
G04 #@! TA.AperFunction,Conductor*
G36*
X157796424Y-57295716D02*
G01*
X157801887Y-57302811D01*
X157802130Y-57303926D01*
X157836089Y-57506722D01*
X157872199Y-57704451D01*
X157908299Y-57884219D01*
X157944385Y-58046024D01*
X157978879Y-58183577D01*
X157977567Y-58192435D01*
X157975803Y-58194696D01*
X157844675Y-58325824D01*
X157836402Y-58329251D01*
X157828555Y-58326229D01*
X157731865Y-58238793D01*
X157731849Y-58238780D01*
X157626910Y-58161789D01*
X157626909Y-58161788D01*
X157626904Y-58161785D01*
X157521952Y-58102688D01*
X157521947Y-58102686D01*
X157417006Y-58061496D01*
X157322562Y-58040539D01*
X157315228Y-58035401D01*
X157313505Y-58027534D01*
X157333078Y-57884197D01*
X157398243Y-57406982D01*
X157402756Y-57399251D01*
X157406784Y-57397272D01*
X157787546Y-57294562D01*
X157796424Y-57295716D01*
G37*
G04 #@! TD.AperFunction*
G04 #@! TA.AperFunction,Conductor*
G36*
X172557294Y-60126185D02*
G01*
X172557710Y-60127073D01*
X172649109Y-60345483D01*
X172649142Y-60354438D01*
X172649109Y-60354517D01*
X172557278Y-60573958D01*
X172550923Y-60580267D01*
X172542056Y-60580270D01*
X172458136Y-60545944D01*
X172458135Y-60545943D01*
X172388952Y-60521586D01*
X172327012Y-60508280D01*
X172327011Y-60508279D01*
X172327007Y-60508279D01*
X172326999Y-60508278D01*
X172326996Y-60508278D01*
X172254101Y-60502720D01*
X172254065Y-60502718D01*
X172163518Y-60501726D01*
X172155283Y-60498209D01*
X172151946Y-60490027D01*
X172151946Y-60308961D01*
X172155373Y-60300688D01*
X172162450Y-60297322D01*
X172258701Y-60287455D01*
X172329604Y-60258244D01*
X172387215Y-60216199D01*
X172453359Y-60167293D01*
X172454900Y-60166331D01*
X172541514Y-60121212D01*
X172550432Y-60120431D01*
X172557294Y-60126185D01*
G37*
G04 #@! TD.AperFunction*
M02*
