M48
; DRILL file {KiCad 8.0.5-8.0.5-0~ubuntu20.04.1} date 2025-03-19T18:53:32-0500
; FORMAT={-:-/ absolute / metric / decimal}
; #@! TF.CreationDate,2025-03-19T18:53:32-05:00
; #@! TF.GenerationSoftware,Kicad,Pcbnew,8.0.5-8.0.5-0~ubuntu20.04.1
; #@! TF.FileFunction,Plated,1,2,PTH
FMAT,2
METRIC
; #@! TA.AperFunction,Plated,PTH,ViaDrill
T1C0.254
; #@! TA.AperFunction,Plated,PTH,ComponentDrill
T2C0.500
; #@! TA.AperFunction,Plated,PTH,ComponentDrill
T3C0.900
; #@! TA.AperFunction,Plated,PTH,ComponentDrill
T4C0.950
; #@! TA.AperFunction,Plated,PTH,ComponentDrill
T5C1.000
; #@! TA.AperFunction,Plated,PTH,ComponentDrill
T6C1.100
; #@! TA.AperFunction,Plated,PTH,ComponentDrill
T7C1.300
; #@! TA.AperFunction,Plated,PTH,ComponentDrill
T8C2.500
%
G90
G05
T1
X141.5Y-58.2
X142.8Y-60.05
X142.9Y-61.85
X144.0Y-52.9
X149.8Y-62.011
X152.25Y-53.85
X162.0Y-54.0
X163.25Y-52.55
X168.5Y-56.4
X168.6Y-55.0
X170.95Y-59.4
X172.082Y-61.039
X172.15Y-58.2
X172.25Y-66.5
X172.65Y-60.35
X173.125Y-59.575
X175.2Y-59.816
X175.55Y-71.45
X175.6Y-66.4
X175.735Y-65.275
X176.8Y-57.0
X176.8Y-58.7
X176.85Y-60.259
X177.05Y-67.85
X177.05Y-72.9
X178.85Y-54.35
X180.77Y-74.41
X180.85Y-62.15
X180.85Y-63.65
X181.35Y-71.0
X182.25Y-61.85
X182.6Y-68.7
X182.851Y-74.345
X183.3Y-65.8
X183.6Y-56.8
X183.7Y-68.8
X183.7Y-77.25
X183.7Y-78.73
X183.7Y-79.53
X184.0Y-61.2
X184.05Y-65.05
X185.319Y-71.4
X185.35Y-63.8
X185.4Y-78.87
X186.0Y-70.45
X186.025Y-56.425
X186.925Y-63.225
X187.8Y-65.9
X188.3Y-59.67
X188.3Y-62.949
X188.4Y-73.2
X189.2Y-63.8
X191.4Y-58.6
X191.4Y-74.401
X192.65Y-54.25
X196.05Y-65.45
X196.25Y-60.9
T2
X151.65Y-57.4
X152.9Y-57.4
X157.4Y-57.4
X158.65Y-57.4
X159.9Y-57.4
X161.15Y-57.4
X165.4Y-57.4
X166.65Y-57.4
X167.9Y-57.4
X169.15Y-57.4
X203.9Y-54.0
X203.9Y-55.25
X203.9Y-56.5
T3
X198.95Y-72.71
X198.95Y-77.79
X204.03Y-72.71
X204.03Y-77.79
T4
X201.718Y-61.5
X201.718Y-64.0
X201.718Y-66.5
T5
X166.662Y-71.0
X166.662Y-65.92
X166.662Y-68.46
X166.662Y-73.54
X166.662Y-76.08
X169.202Y-65.92
X169.202Y-68.46
X169.202Y-73.54
X169.202Y-76.08
X169.202Y-71.0
X178.98Y-56.38
X178.98Y-58.92
X178.98Y-61.46
X178.98Y-64.0
X178.98Y-66.54
X178.98Y-69.08
X178.98Y-71.62
X190.5Y-78.0
X195.5Y-78.0
T6
X141.262Y-63.38
X141.262Y-78.62
X143.802Y-63.38
X143.802Y-78.62
X146.342Y-63.38
X146.342Y-78.62
X148.882Y-63.38
X148.882Y-78.62
X151.422Y-63.38
X151.422Y-78.62
X153.962Y-63.38
X153.962Y-78.62
X156.502Y-63.38
X156.502Y-78.62
X159.042Y-63.38
X159.042Y-78.62
X161.582Y-63.38
X161.582Y-78.62
X164.122Y-63.38
X164.122Y-78.62
X166.662Y-63.38
X166.662Y-78.62
X169.202Y-63.38
X169.202Y-78.62
X171.742Y-63.38
X171.742Y-78.62
X174.282Y-63.38
X174.282Y-68.46
X174.282Y-71.0
X174.282Y-73.54
X174.282Y-78.62
X174.282Y-65.92
X174.282Y-76.08
T7
X189.5Y-75.5
X196.5Y-75.5
T8
X146.0Y-56.0
X174.0Y-56.0
X178.75Y-77.0
X194.22Y-56.38
X194.22Y-71.62
M30
