%TF.GenerationSoftware,KiCad,Pcbnew,8.0.5-8.0.5-0~ubuntu20.04.1*%
%TF.CreationDate,2025-02-19T15:36:45-06:00*%
%TF.ProjectId,Alex_Teensy4_PCB,416c6578-5f54-4656-956e-7379345f5043,rev?*%
%TF.SameCoordinates,Original*%
%TF.FileFunction,Legend,Bot*%
%TF.FilePolarity,Positive*%
%FSLAX46Y46*%
G04 Gerber Fmt 4.6, Leading zero omitted, Abs format (unit mm)*
G04 Created by KiCad (PCBNEW 8.0.5-8.0.5-0~ubuntu20.04.1) date 2025-02-19 15:36:45*
%MOMM*%
%LPD*%
G01*
G04 APERTURE LIST*
%ADD10C,0.200000*%
%ADD11C,0.050000*%
%ADD12C,1.404000*%
%ADD13C,3.301600*%
%ADD14O,0.800000X1.300000*%
%ADD15C,1.700000*%
%ADD16O,1.950000X1.700000*%
%ADD17O,1.300000X0.800000*%
%ADD18C,2.000000*%
%ADD19C,1.879600*%
G04 APERTURE END LIST*
D10*
X208678439Y-79777945D02*
X208678439Y-79301755D01*
X208392724Y-79873183D02*
X209392724Y-79539850D01*
X209392724Y-79539850D02*
X208392724Y-79206517D01*
X208392724Y-78730326D02*
X208440344Y-78825564D01*
X208440344Y-78825564D02*
X208535582Y-78873183D01*
X208535582Y-78873183D02*
X209392724Y-78873183D01*
X208440344Y-77968421D02*
X208392724Y-78063659D01*
X208392724Y-78063659D02*
X208392724Y-78254135D01*
X208392724Y-78254135D02*
X208440344Y-78349373D01*
X208440344Y-78349373D02*
X208535582Y-78396992D01*
X208535582Y-78396992D02*
X208916534Y-78396992D01*
X208916534Y-78396992D02*
X209011772Y-78349373D01*
X209011772Y-78349373D02*
X209059391Y-78254135D01*
X209059391Y-78254135D02*
X209059391Y-78063659D01*
X209059391Y-78063659D02*
X209011772Y-77968421D01*
X209011772Y-77968421D02*
X208916534Y-77920802D01*
X208916534Y-77920802D02*
X208821296Y-77920802D01*
X208821296Y-77920802D02*
X208726058Y-78396992D01*
X208392724Y-77587468D02*
X209059391Y-77063659D01*
X209059391Y-77587468D02*
X208392724Y-77063659D01*
X208392724Y-76254135D02*
X208916534Y-76254135D01*
X208916534Y-76254135D02*
X209011772Y-76301754D01*
X209011772Y-76301754D02*
X209059391Y-76396992D01*
X209059391Y-76396992D02*
X209059391Y-76587468D01*
X209059391Y-76587468D02*
X209011772Y-76682706D01*
X208440344Y-76254135D02*
X208392724Y-76349373D01*
X208392724Y-76349373D02*
X208392724Y-76587468D01*
X208392724Y-76587468D02*
X208440344Y-76682706D01*
X208440344Y-76682706D02*
X208535582Y-76730325D01*
X208535582Y-76730325D02*
X208630820Y-76730325D01*
X208630820Y-76730325D02*
X208726058Y-76682706D01*
X208726058Y-76682706D02*
X208773677Y-76587468D01*
X208773677Y-76587468D02*
X208773677Y-76349373D01*
X208773677Y-76349373D02*
X208821296Y-76254135D01*
X209059391Y-75777944D02*
X208392724Y-75777944D01*
X208964153Y-75777944D02*
X209011772Y-75730325D01*
X209011772Y-75730325D02*
X209059391Y-75635087D01*
X209059391Y-75635087D02*
X209059391Y-75492230D01*
X209059391Y-75492230D02*
X209011772Y-75396992D01*
X209011772Y-75396992D02*
X208916534Y-75349373D01*
X208916534Y-75349373D02*
X208392724Y-75349373D01*
X208392724Y-74444611D02*
X209392724Y-74444611D01*
X208440344Y-74444611D02*
X208392724Y-74539849D01*
X208392724Y-74539849D02*
X208392724Y-74730325D01*
X208392724Y-74730325D02*
X208440344Y-74825563D01*
X208440344Y-74825563D02*
X208487963Y-74873182D01*
X208487963Y-74873182D02*
X208583201Y-74920801D01*
X208583201Y-74920801D02*
X208868915Y-74920801D01*
X208868915Y-74920801D02*
X208964153Y-74873182D01*
X208964153Y-74873182D02*
X209011772Y-74825563D01*
X209011772Y-74825563D02*
X209059391Y-74730325D01*
X209059391Y-74730325D02*
X209059391Y-74539849D01*
X209059391Y-74539849D02*
X209011772Y-74444611D01*
X208440344Y-73587468D02*
X208392724Y-73682706D01*
X208392724Y-73682706D02*
X208392724Y-73873182D01*
X208392724Y-73873182D02*
X208440344Y-73968420D01*
X208440344Y-73968420D02*
X208535582Y-74016039D01*
X208535582Y-74016039D02*
X208916534Y-74016039D01*
X208916534Y-74016039D02*
X209011772Y-73968420D01*
X209011772Y-73968420D02*
X209059391Y-73873182D01*
X209059391Y-73873182D02*
X209059391Y-73682706D01*
X209059391Y-73682706D02*
X209011772Y-73587468D01*
X209011772Y-73587468D02*
X208916534Y-73539849D01*
X208916534Y-73539849D02*
X208821296Y-73539849D01*
X208821296Y-73539849D02*
X208726058Y-74016039D01*
X208392724Y-73111277D02*
X209059391Y-73111277D01*
X208868915Y-73111277D02*
X208964153Y-73063658D01*
X208964153Y-73063658D02*
X209011772Y-73016039D01*
X209011772Y-73016039D02*
X209059391Y-72920801D01*
X209059391Y-72920801D02*
X209059391Y-72825563D01*
X208678439Y-71777943D02*
X208678439Y-71301753D01*
X208392724Y-71873181D02*
X209392724Y-71539848D01*
X209392724Y-71539848D02*
X208392724Y-71206515D01*
X208392724Y-70873181D02*
X209059391Y-70873181D01*
X208964153Y-70873181D02*
X209011772Y-70825562D01*
X209011772Y-70825562D02*
X209059391Y-70730324D01*
X209059391Y-70730324D02*
X209059391Y-70587467D01*
X209059391Y-70587467D02*
X209011772Y-70492229D01*
X209011772Y-70492229D02*
X208916534Y-70444610D01*
X208916534Y-70444610D02*
X208392724Y-70444610D01*
X208916534Y-70444610D02*
X209011772Y-70396991D01*
X209011772Y-70396991D02*
X209059391Y-70301753D01*
X209059391Y-70301753D02*
X209059391Y-70158896D01*
X209059391Y-70158896D02*
X209011772Y-70063657D01*
X209011772Y-70063657D02*
X208916534Y-70016038D01*
X208916534Y-70016038D02*
X208392724Y-70016038D01*
X208392724Y-69539848D02*
X209392724Y-69539848D01*
X209011772Y-69539848D02*
X209059391Y-69444610D01*
X209059391Y-69444610D02*
X209059391Y-69254134D01*
X209059391Y-69254134D02*
X209011772Y-69158896D01*
X209011772Y-69158896D02*
X208964153Y-69111277D01*
X208964153Y-69111277D02*
X208868915Y-69063658D01*
X208868915Y-69063658D02*
X208583201Y-69063658D01*
X208583201Y-69063658D02*
X208487963Y-69111277D01*
X208487963Y-69111277D02*
X208440344Y-69158896D01*
X208440344Y-69158896D02*
X208392724Y-69254134D01*
X208392724Y-69254134D02*
X208392724Y-69444610D01*
X208392724Y-69444610D02*
X208440344Y-69539848D01*
X208392724Y-68635086D02*
X209059391Y-68635086D01*
X208868915Y-68635086D02*
X208964153Y-68587467D01*
X208964153Y-68587467D02*
X209011772Y-68539848D01*
X209011772Y-68539848D02*
X209059391Y-68444610D01*
X209059391Y-68444610D02*
X209059391Y-68349372D01*
X208392724Y-67873181D02*
X208440344Y-67968419D01*
X208440344Y-67968419D02*
X208487963Y-68016038D01*
X208487963Y-68016038D02*
X208583201Y-68063657D01*
X208583201Y-68063657D02*
X208868915Y-68063657D01*
X208868915Y-68063657D02*
X208964153Y-68016038D01*
X208964153Y-68016038D02*
X209011772Y-67968419D01*
X209011772Y-67968419D02*
X209059391Y-67873181D01*
X209059391Y-67873181D02*
X209059391Y-67730324D01*
X209059391Y-67730324D02*
X209011772Y-67635086D01*
X209011772Y-67635086D02*
X208964153Y-67587467D01*
X208964153Y-67587467D02*
X208868915Y-67539848D01*
X208868915Y-67539848D02*
X208583201Y-67539848D01*
X208583201Y-67539848D02*
X208487963Y-67587467D01*
X208487963Y-67587467D02*
X208440344Y-67635086D01*
X208440344Y-67635086D02*
X208392724Y-67730324D01*
X208392724Y-67730324D02*
X208392724Y-67873181D01*
X208440344Y-67158895D02*
X208392724Y-67063657D01*
X208392724Y-67063657D02*
X208392724Y-66873181D01*
X208392724Y-66873181D02*
X208440344Y-66777943D01*
X208440344Y-66777943D02*
X208535582Y-66730324D01*
X208535582Y-66730324D02*
X208583201Y-66730324D01*
X208583201Y-66730324D02*
X208678439Y-66777943D01*
X208678439Y-66777943D02*
X208726058Y-66873181D01*
X208726058Y-66873181D02*
X208726058Y-67016038D01*
X208726058Y-67016038D02*
X208773677Y-67111276D01*
X208773677Y-67111276D02*
X208868915Y-67158895D01*
X208868915Y-67158895D02*
X208916534Y-67158895D01*
X208916534Y-67158895D02*
X209011772Y-67111276D01*
X209011772Y-67111276D02*
X209059391Y-67016038D01*
X209059391Y-67016038D02*
X209059391Y-66873181D01*
X209059391Y-66873181D02*
X209011772Y-66777943D01*
X208440344Y-65920800D02*
X208392724Y-66016038D01*
X208392724Y-66016038D02*
X208392724Y-66206514D01*
X208392724Y-66206514D02*
X208440344Y-66301752D01*
X208440344Y-66301752D02*
X208535582Y-66349371D01*
X208535582Y-66349371D02*
X208916534Y-66349371D01*
X208916534Y-66349371D02*
X209011772Y-66301752D01*
X209011772Y-66301752D02*
X209059391Y-66206514D01*
X209059391Y-66206514D02*
X209059391Y-66016038D01*
X209059391Y-66016038D02*
X209011772Y-65920800D01*
X209011772Y-65920800D02*
X208916534Y-65873181D01*
X208916534Y-65873181D02*
X208821296Y-65873181D01*
X208821296Y-65873181D02*
X208726058Y-66349371D01*
X207782780Y-79444612D02*
X207068495Y-79444612D01*
X207068495Y-79444612D02*
X206925638Y-79492231D01*
X206925638Y-79492231D02*
X206830400Y-79587469D01*
X206830400Y-79587469D02*
X206782780Y-79730326D01*
X206782780Y-79730326D02*
X206782780Y-79825564D01*
X206782780Y-78539850D02*
X207306590Y-78539850D01*
X207306590Y-78539850D02*
X207401828Y-78587469D01*
X207401828Y-78587469D02*
X207449447Y-78682707D01*
X207449447Y-78682707D02*
X207449447Y-78873183D01*
X207449447Y-78873183D02*
X207401828Y-78968421D01*
X206830400Y-78539850D02*
X206782780Y-78635088D01*
X206782780Y-78635088D02*
X206782780Y-78873183D01*
X206782780Y-78873183D02*
X206830400Y-78968421D01*
X206830400Y-78968421D02*
X206925638Y-79016040D01*
X206925638Y-79016040D02*
X207020876Y-79016040D01*
X207020876Y-79016040D02*
X207116114Y-78968421D01*
X207116114Y-78968421D02*
X207163733Y-78873183D01*
X207163733Y-78873183D02*
X207163733Y-78635088D01*
X207163733Y-78635088D02*
X207211352Y-78539850D01*
X206830400Y-77635088D02*
X206782780Y-77730326D01*
X206782780Y-77730326D02*
X206782780Y-77920802D01*
X206782780Y-77920802D02*
X206830400Y-78016040D01*
X206830400Y-78016040D02*
X206878019Y-78063659D01*
X206878019Y-78063659D02*
X206973257Y-78111278D01*
X206973257Y-78111278D02*
X207258971Y-78111278D01*
X207258971Y-78111278D02*
X207354209Y-78063659D01*
X207354209Y-78063659D02*
X207401828Y-78016040D01*
X207401828Y-78016040D02*
X207449447Y-77920802D01*
X207449447Y-77920802D02*
X207449447Y-77730326D01*
X207449447Y-77730326D02*
X207401828Y-77635088D01*
X206782780Y-77063659D02*
X206830400Y-77158897D01*
X206830400Y-77158897D02*
X206878019Y-77206516D01*
X206878019Y-77206516D02*
X206973257Y-77254135D01*
X206973257Y-77254135D02*
X207258971Y-77254135D01*
X207258971Y-77254135D02*
X207354209Y-77206516D01*
X207354209Y-77206516D02*
X207401828Y-77158897D01*
X207401828Y-77158897D02*
X207449447Y-77063659D01*
X207449447Y-77063659D02*
X207449447Y-76920802D01*
X207449447Y-76920802D02*
X207401828Y-76825564D01*
X207401828Y-76825564D02*
X207354209Y-76777945D01*
X207354209Y-76777945D02*
X207258971Y-76730326D01*
X207258971Y-76730326D02*
X206973257Y-76730326D01*
X206973257Y-76730326D02*
X206878019Y-76777945D01*
X206878019Y-76777945D02*
X206830400Y-76825564D01*
X206830400Y-76825564D02*
X206782780Y-76920802D01*
X206782780Y-76920802D02*
X206782780Y-77063659D01*
X206782780Y-76301754D02*
X207782780Y-76301754D01*
X207401828Y-76301754D02*
X207449447Y-76206516D01*
X207449447Y-76206516D02*
X207449447Y-76016040D01*
X207449447Y-76016040D02*
X207401828Y-75920802D01*
X207401828Y-75920802D02*
X207354209Y-75873183D01*
X207354209Y-75873183D02*
X207258971Y-75825564D01*
X207258971Y-75825564D02*
X206973257Y-75825564D01*
X206973257Y-75825564D02*
X206878019Y-75873183D01*
X206878019Y-75873183D02*
X206830400Y-75920802D01*
X206830400Y-75920802D02*
X206782780Y-76016040D01*
X206782780Y-76016040D02*
X206782780Y-76206516D01*
X206782780Y-76206516D02*
X206830400Y-76301754D01*
X207782780Y-74777944D02*
X207782780Y-74206516D01*
X206782780Y-74492230D02*
X207782780Y-74492230D01*
X206782780Y-73730325D02*
X206830400Y-73825563D01*
X206830400Y-73825563D02*
X206878019Y-73873182D01*
X206878019Y-73873182D02*
X206973257Y-73920801D01*
X206973257Y-73920801D02*
X207258971Y-73920801D01*
X207258971Y-73920801D02*
X207354209Y-73873182D01*
X207354209Y-73873182D02*
X207401828Y-73825563D01*
X207401828Y-73825563D02*
X207449447Y-73730325D01*
X207449447Y-73730325D02*
X207449447Y-73587468D01*
X207449447Y-73587468D02*
X207401828Y-73492230D01*
X207401828Y-73492230D02*
X207354209Y-73444611D01*
X207354209Y-73444611D02*
X207258971Y-73396992D01*
X207258971Y-73396992D02*
X206973257Y-73396992D01*
X206973257Y-73396992D02*
X206878019Y-73444611D01*
X206878019Y-73444611D02*
X206830400Y-73492230D01*
X206830400Y-73492230D02*
X206782780Y-73587468D01*
X206782780Y-73587468D02*
X206782780Y-73730325D01*
X206782780Y-72968420D02*
X207449447Y-72968420D01*
X207354209Y-72968420D02*
X207401828Y-72920801D01*
X207401828Y-72920801D02*
X207449447Y-72825563D01*
X207449447Y-72825563D02*
X207449447Y-72682706D01*
X207449447Y-72682706D02*
X207401828Y-72587468D01*
X207401828Y-72587468D02*
X207306590Y-72539849D01*
X207306590Y-72539849D02*
X206782780Y-72539849D01*
X207306590Y-72539849D02*
X207401828Y-72492230D01*
X207401828Y-72492230D02*
X207449447Y-72396992D01*
X207449447Y-72396992D02*
X207449447Y-72254135D01*
X207449447Y-72254135D02*
X207401828Y-72158896D01*
X207401828Y-72158896D02*
X207306590Y-72111277D01*
X207306590Y-72111277D02*
X206782780Y-72111277D01*
X206830400Y-71206516D02*
X206782780Y-71301754D01*
X206782780Y-71301754D02*
X206782780Y-71492230D01*
X206782780Y-71492230D02*
X206830400Y-71587468D01*
X206830400Y-71587468D02*
X206878019Y-71635087D01*
X206878019Y-71635087D02*
X206973257Y-71682706D01*
X206973257Y-71682706D02*
X207258971Y-71682706D01*
X207258971Y-71682706D02*
X207354209Y-71635087D01*
X207354209Y-71635087D02*
X207401828Y-71587468D01*
X207401828Y-71587468D02*
X207449447Y-71492230D01*
X207449447Y-71492230D02*
X207449447Y-71301754D01*
X207449447Y-71301754D02*
X207401828Y-71206516D01*
X207449447Y-70873182D02*
X207449447Y-70349373D01*
X207449447Y-70349373D02*
X206782780Y-70873182D01*
X206782780Y-70873182D02*
X206782780Y-70349373D01*
X206830400Y-69587468D02*
X206782780Y-69682706D01*
X206782780Y-69682706D02*
X206782780Y-69873182D01*
X206782780Y-69873182D02*
X206830400Y-69968420D01*
X206830400Y-69968420D02*
X206925638Y-70016039D01*
X206925638Y-70016039D02*
X207306590Y-70016039D01*
X207306590Y-70016039D02*
X207401828Y-69968420D01*
X207401828Y-69968420D02*
X207449447Y-69873182D01*
X207449447Y-69873182D02*
X207449447Y-69682706D01*
X207449447Y-69682706D02*
X207401828Y-69587468D01*
X207401828Y-69587468D02*
X207306590Y-69539849D01*
X207306590Y-69539849D02*
X207211352Y-69539849D01*
X207211352Y-69539849D02*
X207116114Y-70016039D01*
X206830400Y-69158896D02*
X206782780Y-69063658D01*
X206782780Y-69063658D02*
X206782780Y-68873182D01*
X206782780Y-68873182D02*
X206830400Y-68777944D01*
X206830400Y-68777944D02*
X206925638Y-68730325D01*
X206925638Y-68730325D02*
X206973257Y-68730325D01*
X206973257Y-68730325D02*
X207068495Y-68777944D01*
X207068495Y-68777944D02*
X207116114Y-68873182D01*
X207116114Y-68873182D02*
X207116114Y-69016039D01*
X207116114Y-69016039D02*
X207163733Y-69111277D01*
X207163733Y-69111277D02*
X207258971Y-69158896D01*
X207258971Y-69158896D02*
X207306590Y-69158896D01*
X207306590Y-69158896D02*
X207401828Y-69111277D01*
X207401828Y-69111277D02*
X207449447Y-69016039D01*
X207449447Y-69016039D02*
X207449447Y-68873182D01*
X207449447Y-68873182D02*
X207401828Y-68777944D01*
X207449447Y-68396991D02*
X207449447Y-67873182D01*
X207449447Y-67873182D02*
X206782780Y-68396991D01*
X206782780Y-68396991D02*
X206782780Y-67873182D01*
X207449447Y-67587467D02*
X206782780Y-67349372D01*
X207449447Y-67111277D02*
X206782780Y-67349372D01*
X206782780Y-67349372D02*
X206544685Y-67444610D01*
X206544685Y-67444610D02*
X206497066Y-67492229D01*
X206497066Y-67492229D02*
X206449447Y-67587467D01*
X207449447Y-66730324D02*
X206782780Y-66730324D01*
X207354209Y-66730324D02*
X207401828Y-66682705D01*
X207401828Y-66682705D02*
X207449447Y-66587467D01*
X207449447Y-66587467D02*
X207449447Y-66444610D01*
X207449447Y-66444610D02*
X207401828Y-66349372D01*
X207401828Y-66349372D02*
X207306590Y-66301753D01*
X207306590Y-66301753D02*
X206782780Y-66301753D01*
G36*
X141814554Y-71689985D02*
G01*
X141518495Y-71825679D01*
X141518495Y-71628306D01*
X141814554Y-71689985D01*
G37*
G36*
X141985388Y-66324711D02*
G01*
X142005538Y-66342342D01*
X142032780Y-66393420D01*
X142032780Y-66661095D01*
X141708971Y-66701571D01*
X141708971Y-66456251D01*
X141740923Y-66388352D01*
X141769398Y-66356317D01*
X141833740Y-66316103D01*
X141930261Y-66304038D01*
X141985388Y-66324711D01*
G37*
G36*
X142343891Y-75823321D02*
G01*
X140921669Y-75823321D01*
X140921669Y-75255326D01*
X141032780Y-75255326D01*
X141032780Y-75445802D01*
X141034701Y-75465311D01*
X141036581Y-75469851D01*
X141037059Y-75474744D01*
X141044545Y-75492861D01*
X141092165Y-75582147D01*
X141100253Y-75594277D01*
X141101132Y-75596053D01*
X141102188Y-75597178D01*
X141103041Y-75598457D01*
X141104565Y-75599710D01*
X141114549Y-75610345D01*
X141162168Y-75652012D01*
X141173824Y-75660346D01*
X141175315Y-75661739D01*
X141176778Y-75662458D01*
X141178115Y-75663414D01*
X141180059Y-75664071D01*
X141192907Y-75670388D01*
X141288145Y-75706102D01*
X141307086Y-75711153D01*
X141311655Y-75710997D01*
X141316064Y-75712210D01*
X141335660Y-75711697D01*
X142145184Y-75610507D01*
X142164304Y-75606181D01*
X142198221Y-75586893D01*
X142222176Y-75556094D01*
X142232522Y-75518472D01*
X142227682Y-75479755D01*
X142208394Y-75445838D01*
X142177595Y-75421883D01*
X142139973Y-75411538D01*
X142120377Y-75412051D01*
X141335300Y-75510185D01*
X141280172Y-75489512D01*
X141260023Y-75471882D01*
X141232780Y-75420801D01*
X141232780Y-75277679D01*
X141264733Y-75209781D01*
X141293211Y-75177743D01*
X141357549Y-75137532D01*
X142145184Y-75039078D01*
X142164304Y-75034752D01*
X142198221Y-75015464D01*
X142222176Y-74984665D01*
X142232521Y-74947043D01*
X142227682Y-74908326D01*
X142208394Y-74874409D01*
X142177595Y-74850454D01*
X142139973Y-74840109D01*
X142120376Y-74840622D01*
X141310853Y-74941813D01*
X141291733Y-74946139D01*
X141289899Y-74947181D01*
X141287820Y-74947530D01*
X141270258Y-74956241D01*
X141175020Y-75015764D01*
X141169784Y-75019800D01*
X141167675Y-75020823D01*
X141163738Y-75024460D01*
X141159494Y-75027733D01*
X141158133Y-75029640D01*
X141153278Y-75034128D01*
X141105659Y-75087700D01*
X141101711Y-75093130D01*
X141099964Y-75094721D01*
X141097249Y-75099270D01*
X141094133Y-75103558D01*
X141093358Y-75105791D01*
X141089919Y-75111555D01*
X141042299Y-75212745D01*
X141035730Y-75231215D01*
X141035617Y-75233605D01*
X141034701Y-75235817D01*
X141032780Y-75255326D01*
X140921669Y-75255326D01*
X140921669Y-74438610D01*
X141033039Y-74438610D01*
X141037878Y-74477327D01*
X141057166Y-74511244D01*
X141087965Y-74535199D01*
X141125587Y-74545544D01*
X141145183Y-74545031D01*
X142032780Y-74434081D01*
X142032780Y-74606517D01*
X142034701Y-74626026D01*
X142049633Y-74662074D01*
X142077223Y-74689664D01*
X142113271Y-74704596D01*
X142152289Y-74704596D01*
X142188337Y-74689664D01*
X142215927Y-74662074D01*
X142230859Y-74626026D01*
X142232780Y-74606517D01*
X142232780Y-74035088D01*
X142230859Y-74015579D01*
X142215927Y-73979531D01*
X142188337Y-73951941D01*
X142152289Y-73937009D01*
X142113271Y-73937009D01*
X142077223Y-73951941D01*
X142049633Y-73979531D01*
X142034701Y-74015579D01*
X142032780Y-74035088D01*
X142032780Y-74232524D01*
X141120377Y-74346575D01*
X141101256Y-74350901D01*
X141067339Y-74370189D01*
X141043384Y-74400988D01*
X141033039Y-74438610D01*
X140921669Y-74438610D01*
X140921669Y-73350564D01*
X141032780Y-73350564D01*
X141032780Y-73826755D01*
X141034701Y-73846264D01*
X141037100Y-73852056D01*
X141037878Y-73858279D01*
X141044504Y-73869932D01*
X141049633Y-73882312D01*
X141054066Y-73886745D01*
X141057166Y-73892196D01*
X141067745Y-73900424D01*
X141077223Y-73909902D01*
X141083015Y-73912301D01*
X141087965Y-73916151D01*
X141100886Y-73919704D01*
X141113271Y-73924834D01*
X141119543Y-73924834D01*
X141125587Y-73926496D01*
X141145183Y-73925983D01*
X142145183Y-73800983D01*
X142150261Y-73799834D01*
X142152289Y-73799834D01*
X142154729Y-73798823D01*
X142164303Y-73796657D01*
X142175954Y-73790031D01*
X142188337Y-73784902D01*
X142192770Y-73780468D01*
X142198221Y-73777369D01*
X142206449Y-73766789D01*
X142215927Y-73757312D01*
X142218326Y-73751519D01*
X142222176Y-73746570D01*
X142225729Y-73733648D01*
X142230859Y-73721264D01*
X142231821Y-73711493D01*
X142232521Y-73708948D01*
X142232269Y-73706937D01*
X142232780Y-73701755D01*
X142232780Y-73225564D01*
X142230859Y-73206055D01*
X142215927Y-73170007D01*
X142188337Y-73142417D01*
X142152289Y-73127485D01*
X142113271Y-73127485D01*
X142077223Y-73142417D01*
X142049633Y-73170007D01*
X142034701Y-73206055D01*
X142032780Y-73225564D01*
X142032780Y-73613476D01*
X141756590Y-73648000D01*
X141756590Y-73427945D01*
X141754669Y-73408436D01*
X141739737Y-73372388D01*
X141712147Y-73344798D01*
X141676099Y-73329866D01*
X141637081Y-73329866D01*
X141601033Y-73344798D01*
X141573443Y-73372388D01*
X141558511Y-73408436D01*
X141556590Y-73427945D01*
X141556590Y-73673000D01*
X141232780Y-73713476D01*
X141232780Y-73350564D01*
X141230859Y-73331055D01*
X141215927Y-73295007D01*
X141188337Y-73267417D01*
X141152289Y-73252485D01*
X141113271Y-73252485D01*
X141077223Y-73267417D01*
X141049633Y-73295007D01*
X141034701Y-73331055D01*
X141032780Y-73350564D01*
X140921669Y-73350564D01*
X140921669Y-73025281D01*
X141033105Y-73025281D01*
X141043772Y-73062813D01*
X141067991Y-73093405D01*
X141102073Y-73112400D01*
X141140830Y-73116906D01*
X141178362Y-73106239D01*
X141194850Y-73095636D01*
X141643141Y-72740737D01*
X142085152Y-72980160D01*
X142103221Y-72987763D01*
X142142029Y-72991802D01*
X142179430Y-72980683D01*
X142209728Y-72956099D01*
X142228312Y-72921790D01*
X142232352Y-72882982D01*
X142221232Y-72845581D01*
X142196648Y-72815283D01*
X142180408Y-72804302D01*
X141813732Y-72605686D01*
X142194850Y-72303968D01*
X142208954Y-72290353D01*
X142227949Y-72256271D01*
X142232456Y-72217514D01*
X142221788Y-72179982D01*
X142197569Y-72149390D01*
X142163487Y-72130395D01*
X142124730Y-72125888D01*
X142087198Y-72136556D01*
X142070710Y-72147159D01*
X141622417Y-72502057D01*
X141180408Y-72262635D01*
X141162339Y-72255032D01*
X141123531Y-72250993D01*
X141086130Y-72262112D01*
X141055832Y-72286696D01*
X141037248Y-72321005D01*
X141033209Y-72359813D01*
X141044328Y-72397214D01*
X141068912Y-72427512D01*
X141085152Y-72438493D01*
X141451826Y-72637108D01*
X141070710Y-72938826D01*
X141056606Y-72952442D01*
X141037611Y-72986524D01*
X141033105Y-73025281D01*
X140921669Y-73025281D01*
X140921669Y-71444897D01*
X141032784Y-71444897D01*
X141040050Y-71483233D01*
X141061433Y-71515870D01*
X141093677Y-71537840D01*
X141112385Y-71543700D01*
X141318495Y-71586639D01*
X141318495Y-71917346D01*
X141091114Y-72021563D01*
X141074180Y-72031437D01*
X141047631Y-72060031D01*
X141034046Y-72096608D01*
X141035491Y-72135599D01*
X141051748Y-72171069D01*
X141080342Y-72197618D01*
X141116919Y-72211203D01*
X141155910Y-72209758D01*
X141174446Y-72203375D01*
X142174446Y-71745041D01*
X142191380Y-71735167D01*
X142196527Y-71729623D01*
X142202848Y-71725482D01*
X142209675Y-71715462D01*
X142217929Y-71706573D01*
X142220560Y-71699487D01*
X142224819Y-71693238D01*
X142227293Y-71681358D01*
X142231514Y-71669996D01*
X142231234Y-71662445D01*
X142232777Y-71655040D01*
X142230518Y-71643121D01*
X142230069Y-71631005D01*
X142226918Y-71624131D01*
X142225511Y-71616704D01*
X142218865Y-71606561D01*
X142213812Y-71595535D01*
X142208270Y-71590389D01*
X142204128Y-71584067D01*
X142194106Y-71577239D01*
X142185218Y-71568986D01*
X142178130Y-71566353D01*
X142171883Y-71562097D01*
X142153176Y-71556237D01*
X141153175Y-71347904D01*
X141133685Y-71345806D01*
X141095349Y-71353072D01*
X141062712Y-71374455D01*
X141040742Y-71406699D01*
X141032784Y-71444897D01*
X140921669Y-71444897D01*
X140921669Y-70779135D01*
X141032780Y-70779135D01*
X141032780Y-71017231D01*
X141033885Y-71028455D01*
X141033736Y-71031027D01*
X141034416Y-71033848D01*
X141034701Y-71036740D01*
X141035688Y-71039122D01*
X141038331Y-71050084D01*
X141085951Y-71186988D01*
X141094174Y-71204783D01*
X141120120Y-71233925D01*
X141155243Y-71250919D01*
X141194196Y-71253180D01*
X141231048Y-71240361D01*
X141260190Y-71214415D01*
X141277184Y-71179293D01*
X141279444Y-71140340D01*
X141274850Y-71121283D01*
X141232780Y-71000336D01*
X141232780Y-70801488D01*
X141264733Y-70733590D01*
X141293211Y-70701552D01*
X141357549Y-70661341D01*
X141406452Y-70655228D01*
X141461579Y-70675901D01*
X141481728Y-70693532D01*
X141515122Y-70756145D01*
X141559762Y-70929123D01*
X141560745Y-70931811D01*
X141560869Y-70933076D01*
X141563828Y-70940238D01*
X141566497Y-70947533D01*
X141567262Y-70948549D01*
X141568355Y-70951194D01*
X141615974Y-71040480D01*
X141624065Y-71052614D01*
X141624941Y-71054386D01*
X141625993Y-71055507D01*
X141626849Y-71056790D01*
X141628377Y-71058047D01*
X141638358Y-71068678D01*
X141685977Y-71110345D01*
X141697633Y-71118679D01*
X141699124Y-71120072D01*
X141700587Y-71120791D01*
X141701924Y-71121747D01*
X141703868Y-71122404D01*
X141716716Y-71128721D01*
X141811954Y-71164435D01*
X141830895Y-71169486D01*
X141835464Y-71169330D01*
X141839873Y-71170543D01*
X141859470Y-71170030D01*
X141954708Y-71158125D01*
X141973828Y-71153799D01*
X141975661Y-71152756D01*
X141977742Y-71152408D01*
X141995304Y-71143697D01*
X142090542Y-71084173D01*
X142095775Y-71080138D01*
X142097886Y-71079115D01*
X142101827Y-71075472D01*
X142106067Y-71072204D01*
X142107425Y-71070299D01*
X142112283Y-71065810D01*
X142159902Y-71012238D01*
X142163849Y-71006807D01*
X142165598Y-71005216D01*
X142168314Y-71000662D01*
X142171427Y-70996381D01*
X142172200Y-70994150D01*
X142175643Y-70988382D01*
X142223262Y-70887192D01*
X142229831Y-70868721D01*
X142229943Y-70866330D01*
X142230859Y-70864121D01*
X142232780Y-70844612D01*
X142232780Y-70606516D01*
X142231674Y-70595292D01*
X142231824Y-70592721D01*
X142231143Y-70589899D01*
X142230859Y-70587007D01*
X142229872Y-70584625D01*
X142227230Y-70573664D01*
X142179611Y-70436760D01*
X142171387Y-70418965D01*
X142145441Y-70389823D01*
X142110319Y-70372828D01*
X142071366Y-70370568D01*
X142034514Y-70383386D01*
X142005372Y-70409332D01*
X141988377Y-70444454D01*
X141986117Y-70483407D01*
X141990711Y-70502464D01*
X142032780Y-70623411D01*
X142032780Y-70822257D01*
X142000827Y-70890156D01*
X141972350Y-70922192D01*
X141908010Y-70962405D01*
X141859108Y-70968518D01*
X141803981Y-70947845D01*
X141783832Y-70930215D01*
X141750438Y-70867601D01*
X141705799Y-70694624D01*
X141704815Y-70691935D01*
X141704692Y-70690671D01*
X141701730Y-70683503D01*
X141699064Y-70676214D01*
X141698299Y-70675198D01*
X141697207Y-70672554D01*
X141649587Y-70583267D01*
X141641495Y-70571132D01*
X141640620Y-70569361D01*
X141639567Y-70568239D01*
X141638712Y-70566957D01*
X141637183Y-70565699D01*
X141627203Y-70555069D01*
X141579584Y-70513402D01*
X141567927Y-70505067D01*
X141566437Y-70503675D01*
X141564973Y-70502955D01*
X141563637Y-70502000D01*
X141561692Y-70501342D01*
X141548845Y-70495026D01*
X141453607Y-70459312D01*
X141434666Y-70454261D01*
X141430096Y-70454416D01*
X141425688Y-70453204D01*
X141406091Y-70453717D01*
X141310853Y-70465622D01*
X141291733Y-70469948D01*
X141289899Y-70470990D01*
X141287820Y-70471339D01*
X141270258Y-70480050D01*
X141175020Y-70539573D01*
X141169784Y-70543609D01*
X141167675Y-70544632D01*
X141163738Y-70548269D01*
X141159494Y-70551542D01*
X141158133Y-70553449D01*
X141153278Y-70557937D01*
X141105659Y-70611509D01*
X141101711Y-70616939D01*
X141099964Y-70618530D01*
X141097249Y-70623079D01*
X141094133Y-70627367D01*
X141093358Y-70629600D01*
X141089919Y-70635364D01*
X141042299Y-70736554D01*
X141035730Y-70755024D01*
X141035617Y-70757414D01*
X141034701Y-70759626D01*
X141032780Y-70779135D01*
X140921669Y-70779135D01*
X140921669Y-69350564D01*
X141413733Y-69350564D01*
X141413733Y-70112469D01*
X141415654Y-70131978D01*
X141430586Y-70168026D01*
X141458176Y-70195616D01*
X141494224Y-70210548D01*
X141533242Y-70210548D01*
X141569290Y-70195616D01*
X141596880Y-70168026D01*
X141611812Y-70131978D01*
X141613733Y-70112469D01*
X141613733Y-69350564D01*
X141611812Y-69331055D01*
X141596880Y-69295007D01*
X141569290Y-69267417D01*
X141533242Y-69252485D01*
X141494224Y-69252485D01*
X141458176Y-69267417D01*
X141430586Y-69295007D01*
X141415654Y-69331055D01*
X141413733Y-69350564D01*
X140921669Y-69350564D01*
X140921669Y-68343371D01*
X141033039Y-68343371D01*
X141037878Y-68382088D01*
X141057166Y-68416005D01*
X141087965Y-68439960D01*
X141125587Y-68450305D01*
X141145183Y-68449792D01*
X141556590Y-68398366D01*
X141556590Y-68768238D01*
X141120377Y-68822765D01*
X141101256Y-68827091D01*
X141067339Y-68846379D01*
X141043384Y-68877178D01*
X141033039Y-68914800D01*
X141037878Y-68953517D01*
X141057166Y-68987434D01*
X141087965Y-69011389D01*
X141125587Y-69021734D01*
X141145183Y-69021221D01*
X142145183Y-68896221D01*
X142164303Y-68891895D01*
X142198221Y-68872607D01*
X142222176Y-68841808D01*
X142232521Y-68804186D01*
X142227682Y-68765469D01*
X142208394Y-68731552D01*
X142177595Y-68707597D01*
X142139973Y-68697252D01*
X142120376Y-68697765D01*
X141756590Y-68743238D01*
X141756590Y-68373366D01*
X142145183Y-68324792D01*
X142164303Y-68320466D01*
X142198221Y-68301178D01*
X142222176Y-68270379D01*
X142232521Y-68232757D01*
X142227682Y-68194040D01*
X142208394Y-68160123D01*
X142177595Y-68136168D01*
X142139973Y-68125823D01*
X142120376Y-68126336D01*
X141120377Y-68251336D01*
X141101256Y-68255662D01*
X141067339Y-68274950D01*
X141043384Y-68305749D01*
X141033039Y-68343371D01*
X140921669Y-68343371D01*
X140921669Y-67493421D01*
X141032780Y-67493421D01*
X141032780Y-67588659D01*
X141033885Y-67599882D01*
X141033736Y-67602454D01*
X141034416Y-67605274D01*
X141034701Y-67608168D01*
X141035688Y-67610551D01*
X141038331Y-67621512D01*
X141085950Y-67758416D01*
X141094174Y-67776211D01*
X141098349Y-67780901D01*
X141101133Y-67786529D01*
X141114550Y-67800822D01*
X141209788Y-67884155D01*
X141221437Y-67892483D01*
X141222933Y-67893881D01*
X141224403Y-67894603D01*
X141225735Y-67895556D01*
X141227673Y-67896211D01*
X141240525Y-67902530D01*
X141335763Y-67938245D01*
X141338321Y-67938927D01*
X141339353Y-67939514D01*
X141347064Y-67941258D01*
X141354704Y-67943296D01*
X141355890Y-67943255D01*
X141358473Y-67943840D01*
X141548949Y-67967649D01*
X141552645Y-67967745D01*
X141554159Y-67968162D01*
X141561352Y-67967973D01*
X141568545Y-67968162D01*
X141570058Y-67967745D01*
X141573755Y-67967649D01*
X141716613Y-67949792D01*
X141719195Y-67949207D01*
X141720380Y-67949248D01*
X141728008Y-67947213D01*
X141735733Y-67945466D01*
X141736766Y-67944878D01*
X141739321Y-67944197D01*
X141929797Y-67872769D01*
X141930004Y-67872666D01*
X141930123Y-67872647D01*
X141938881Y-67868302D01*
X141947389Y-67864120D01*
X141947473Y-67864040D01*
X141947685Y-67863936D01*
X142042923Y-67804412D01*
X142048159Y-67800374D01*
X142050267Y-67799353D01*
X142054202Y-67795716D01*
X142058448Y-67792443D01*
X142059808Y-67790535D01*
X142064664Y-67786048D01*
X142159902Y-67678906D01*
X142171427Y-67663048D01*
X142171830Y-67661883D01*
X142172628Y-67660942D01*
X142180403Y-67642946D01*
X142228022Y-67494137D01*
X142229860Y-67485579D01*
X142230859Y-67483168D01*
X142231266Y-67479034D01*
X142232139Y-67474970D01*
X142231922Y-67472367D01*
X142232780Y-67463659D01*
X142232780Y-67368421D01*
X142231674Y-67357197D01*
X142231824Y-67354626D01*
X142231143Y-67351804D01*
X142230859Y-67348912D01*
X142229872Y-67346530D01*
X142227230Y-67335569D01*
X142179611Y-67198665D01*
X142171387Y-67180870D01*
X142167213Y-67176181D01*
X142164429Y-67170552D01*
X142151012Y-67156260D01*
X142103393Y-67114593D01*
X142087446Y-67103191D01*
X142050484Y-67090691D01*
X142011552Y-67093286D01*
X141976577Y-67110582D01*
X141950883Y-67139946D01*
X141938383Y-67176908D01*
X141940978Y-67215840D01*
X141958274Y-67250815D01*
X141971691Y-67265107D01*
X141999401Y-67289353D01*
X142032780Y-67385316D01*
X142032780Y-67448047D01*
X141996366Y-67561843D01*
X141924733Y-67642430D01*
X141850185Y-67689023D01*
X141680122Y-67752796D01*
X141561351Y-67767642D01*
X141394964Y-67746844D01*
X141327790Y-67721654D01*
X141266158Y-67667725D01*
X141232780Y-67571764D01*
X141232780Y-67509030D01*
X141269194Y-67395237D01*
X141302761Y-67357476D01*
X141314286Y-67341618D01*
X141327074Y-67304755D01*
X141324783Y-67265804D01*
X141307760Y-67230695D01*
X141278598Y-67204773D01*
X141241735Y-67191985D01*
X141202784Y-67194276D01*
X141167675Y-67211299D01*
X141153278Y-67224604D01*
X141105659Y-67278176D01*
X141094133Y-67294034D01*
X141093729Y-67295196D01*
X141092933Y-67296138D01*
X141085158Y-67314133D01*
X141037538Y-67462943D01*
X141035699Y-67471501D01*
X141034701Y-67473912D01*
X141034294Y-67478044D01*
X141033421Y-67482109D01*
X141033637Y-67484711D01*
X141032780Y-67493421D01*
X140921669Y-67493421D01*
X140921669Y-66309661D01*
X141033006Y-66309661D01*
X141043171Y-66347332D01*
X141066978Y-66378246D01*
X141082933Y-66389636D01*
X141508971Y-66634607D01*
X141508971Y-66726571D01*
X141120377Y-66775146D01*
X141101256Y-66779472D01*
X141067339Y-66798760D01*
X141043384Y-66829559D01*
X141033039Y-66867181D01*
X141037878Y-66905898D01*
X141057166Y-66939815D01*
X141087965Y-66963770D01*
X141125587Y-66974115D01*
X141145183Y-66973602D01*
X142145183Y-66848602D01*
X142150261Y-66847453D01*
X142152289Y-66847453D01*
X142154729Y-66846442D01*
X142164303Y-66844276D01*
X142175954Y-66837650D01*
X142188337Y-66832521D01*
X142192770Y-66828087D01*
X142198221Y-66824988D01*
X142206449Y-66814408D01*
X142215927Y-66804931D01*
X142218326Y-66799138D01*
X142222176Y-66794189D01*
X142225729Y-66781267D01*
X142230859Y-66768883D01*
X142231821Y-66759112D01*
X142232521Y-66756567D01*
X142232269Y-66754556D01*
X142232780Y-66749374D01*
X142232780Y-66368421D01*
X142230859Y-66348912D01*
X142228978Y-66344371D01*
X142228501Y-66339480D01*
X142221015Y-66321362D01*
X142173396Y-66232077D01*
X142165306Y-66219946D01*
X142164429Y-66218171D01*
X142163372Y-66217045D01*
X142162520Y-66215767D01*
X142160995Y-66214513D01*
X142151012Y-66203879D01*
X142103393Y-66162212D01*
X142091736Y-66153877D01*
X142090246Y-66152485D01*
X142088782Y-66151765D01*
X142087446Y-66150810D01*
X142085501Y-66150152D01*
X142072654Y-66143836D01*
X141977416Y-66108122D01*
X141958475Y-66103071D01*
X141953906Y-66103226D01*
X141949498Y-66102014D01*
X141929901Y-66102527D01*
X141787044Y-66120384D01*
X141767924Y-66124710D01*
X141766088Y-66125753D01*
X141764008Y-66126102D01*
X141746447Y-66134812D01*
X141651209Y-66194336D01*
X141645974Y-66198371D01*
X141643865Y-66199394D01*
X141639927Y-66203033D01*
X141635683Y-66206305D01*
X141634322Y-66208212D01*
X141629468Y-66212699D01*
X141581849Y-66266270D01*
X141577900Y-66271702D01*
X141576153Y-66273293D01*
X141573437Y-66277844D01*
X141570324Y-66282128D01*
X141569550Y-66284358D01*
X141566108Y-66290127D01*
X141518489Y-66391317D01*
X141513157Y-66406308D01*
X141182627Y-66216254D01*
X141164757Y-66208195D01*
X141126064Y-66203171D01*
X141088393Y-66213336D01*
X141057479Y-66237143D01*
X141038030Y-66270968D01*
X141033006Y-66309661D01*
X140921669Y-66309661D01*
X140921669Y-65398183D01*
X141032780Y-65398183D01*
X141032780Y-65874374D01*
X141034701Y-65893883D01*
X141037100Y-65899675D01*
X141037878Y-65905898D01*
X141044504Y-65917551D01*
X141049633Y-65929931D01*
X141054066Y-65934364D01*
X141057166Y-65939815D01*
X141067745Y-65948043D01*
X141077223Y-65957521D01*
X141083015Y-65959920D01*
X141087965Y-65963770D01*
X141100886Y-65967323D01*
X141113271Y-65972453D01*
X141119543Y-65972453D01*
X141125587Y-65974115D01*
X141145183Y-65973602D01*
X142145183Y-65848602D01*
X142164303Y-65844276D01*
X142198221Y-65824988D01*
X142222176Y-65794189D01*
X142232521Y-65756567D01*
X142227682Y-65717850D01*
X142208394Y-65683933D01*
X142177595Y-65659978D01*
X142139973Y-65649633D01*
X142120376Y-65650146D01*
X141232780Y-65761095D01*
X141232780Y-65398183D01*
X141230859Y-65378674D01*
X141215927Y-65342626D01*
X141188337Y-65315036D01*
X141152289Y-65300104D01*
X141113271Y-65300104D01*
X141077223Y-65315036D01*
X141049633Y-65342626D01*
X141034701Y-65378674D01*
X141032780Y-65398183D01*
X140921669Y-65398183D01*
X140921669Y-65188993D01*
X142343891Y-65188993D01*
X142343891Y-75823321D01*
G37*
D11*
%TO.C,U4*%
X176440000Y-56380000D02*
X176440000Y-71620000D01*
X178980000Y-74160000D02*
X194220000Y-74160000D01*
X194220000Y-53840000D02*
X178980000Y-53840000D01*
X196760000Y-71620000D02*
X196760000Y-56380000D01*
X176440000Y-56380000D02*
G75*
G02*
X178980000Y-53840000I2539999J1D01*
G01*
X178980000Y-74160000D02*
G75*
G02*
X176440000Y-71620000I1J2540001D01*
G01*
X194220000Y-53840000D02*
G75*
G02*
X196759998Y-56380000I-1J-2539999D01*
G01*
X196760000Y-71620000D02*
G75*
G02*
X194220000Y-74160000I-2540001J1D01*
G01*
%TD*%
%LPC*%
D12*
%TO.C,U1*%
X141261600Y-78620000D03*
X143801600Y-78620000D03*
X146341600Y-78620000D03*
X148881600Y-78620000D03*
X151421600Y-78620000D03*
X153961600Y-78620000D03*
X156501600Y-78620000D03*
X159041600Y-78620000D03*
X161581600Y-78620000D03*
X164121600Y-78620000D03*
X166661600Y-78620000D03*
X169201600Y-78620000D03*
X171741600Y-78620000D03*
X174281600Y-78620000D03*
X174281601Y-76080000D03*
X174281600Y-73540000D03*
X174281600Y-71000000D03*
X174281600Y-68460000D03*
X174281601Y-65920000D03*
X174281600Y-63380000D03*
X171741600Y-63380000D03*
X169201600Y-63380000D03*
X166661600Y-63380000D03*
X164121600Y-63380000D03*
X161581600Y-63380000D03*
X159041600Y-63380000D03*
X156501600Y-63380000D03*
X153961600Y-63380000D03*
X151421600Y-63380000D03*
X148881600Y-63380000D03*
X146341600Y-63380000D03*
X143801600Y-63380000D03*
X141261600Y-63380000D03*
G36*
X169432802Y-65310369D02*
G01*
X169531176Y-65362000D01*
X171233600Y-65362000D01*
X171268955Y-65376645D01*
X171283600Y-65412000D01*
X171283600Y-66428000D01*
X171268955Y-66463355D01*
X171233600Y-66478000D01*
X169531176Y-66478000D01*
X169432802Y-66529631D01*
X169280190Y-66567246D01*
X169123010Y-66567246D01*
X168970398Y-66529631D01*
X168872024Y-66478000D01*
X168693600Y-66478000D01*
X168658245Y-66463355D01*
X168643600Y-66428000D01*
X168643600Y-66250985D01*
X168624283Y-66223000D01*
X168568546Y-66076034D01*
X168549600Y-65920000D01*
X168568546Y-65763966D01*
X168624283Y-65617000D01*
X168643600Y-65589015D01*
X168643600Y-65412000D01*
X168658245Y-65376645D01*
X168693600Y-65362000D01*
X168872024Y-65362000D01*
X168970398Y-65310369D01*
X169123010Y-65272754D01*
X169280190Y-65272754D01*
X169432802Y-65310369D01*
G37*
G36*
X166892802Y-65310369D02*
G01*
X166991176Y-65362000D01*
X167169600Y-65362000D01*
X167204955Y-65376645D01*
X167219600Y-65412000D01*
X167219600Y-65589015D01*
X167238917Y-65617000D01*
X167294654Y-65763966D01*
X167313600Y-65920000D01*
X167294654Y-66076034D01*
X167238917Y-66223000D01*
X167219600Y-66250985D01*
X167219600Y-66428000D01*
X167204955Y-66463355D01*
X167169600Y-66478000D01*
X166991176Y-66478000D01*
X166892802Y-66529631D01*
X166740190Y-66567246D01*
X166583010Y-66567246D01*
X166430398Y-66529631D01*
X166332024Y-66478000D01*
X164629600Y-66478000D01*
X164594245Y-66463355D01*
X164579600Y-66428000D01*
X164579600Y-65412000D01*
X164594245Y-65376645D01*
X164629600Y-65362000D01*
X166332024Y-65362000D01*
X166430398Y-65310369D01*
X166583010Y-65272754D01*
X166740190Y-65272754D01*
X166892802Y-65310369D01*
G37*
G36*
X169432802Y-67850369D02*
G01*
X169531176Y-67902000D01*
X171233600Y-67902000D01*
X171268955Y-67916645D01*
X171283600Y-67952000D01*
X171283601Y-68968000D01*
X171268956Y-69003355D01*
X171233601Y-69018000D01*
X169531176Y-69018000D01*
X169432802Y-69069631D01*
X169280190Y-69107246D01*
X169123010Y-69107246D01*
X168970398Y-69069631D01*
X168872024Y-69018000D01*
X168693599Y-69018000D01*
X168658244Y-69003355D01*
X168643599Y-68968000D01*
X168643600Y-68790985D01*
X168624283Y-68763000D01*
X168568546Y-68616034D01*
X168549600Y-68460000D01*
X168568546Y-68303966D01*
X168624283Y-68157000D01*
X168643600Y-68129015D01*
X168643600Y-67952000D01*
X168658245Y-67916645D01*
X168693600Y-67902000D01*
X168872024Y-67902000D01*
X168970398Y-67850369D01*
X169123010Y-67812754D01*
X169280190Y-67812754D01*
X169432802Y-67850369D01*
G37*
G36*
X166892802Y-67850369D02*
G01*
X166991176Y-67902000D01*
X167169600Y-67902000D01*
X167204955Y-67916645D01*
X167219600Y-67952000D01*
X167219600Y-68129015D01*
X167238917Y-68157000D01*
X167294654Y-68303966D01*
X167313600Y-68460000D01*
X167294654Y-68616034D01*
X167238917Y-68763000D01*
X167219600Y-68790985D01*
X167219600Y-68968000D01*
X167204955Y-69003355D01*
X167169600Y-69018000D01*
X166991176Y-69018000D01*
X166892802Y-69069631D01*
X166740190Y-69107246D01*
X166583010Y-69107246D01*
X166430398Y-69069631D01*
X166332024Y-69018000D01*
X164629599Y-69018000D01*
X164594244Y-69003355D01*
X164579599Y-68968000D01*
X164579600Y-67952000D01*
X164594245Y-67916645D01*
X164629600Y-67902000D01*
X166332024Y-67902000D01*
X166430398Y-67850369D01*
X166583010Y-67812754D01*
X166740190Y-67812754D01*
X166892802Y-67850369D01*
G37*
G36*
X169432803Y-70390369D02*
G01*
X169531177Y-70442000D01*
X171233600Y-70442000D01*
X171268955Y-70456645D01*
X171283600Y-70492000D01*
X171283600Y-71508000D01*
X171268955Y-71543355D01*
X171233600Y-71558000D01*
X169531177Y-71558000D01*
X169432803Y-71609631D01*
X169280191Y-71647246D01*
X169123011Y-71647246D01*
X168970399Y-71609631D01*
X168872025Y-71558000D01*
X168693600Y-71558000D01*
X168658245Y-71543355D01*
X168643600Y-71508000D01*
X168643600Y-71330984D01*
X168624284Y-71303000D01*
X168568547Y-71156034D01*
X168549601Y-71000000D01*
X168568547Y-70843966D01*
X168624284Y-70697000D01*
X168643600Y-70669016D01*
X168643600Y-70492000D01*
X168658245Y-70456645D01*
X168693600Y-70442000D01*
X168872025Y-70442000D01*
X168970399Y-70390369D01*
X169123011Y-70352754D01*
X169280191Y-70352754D01*
X169432803Y-70390369D01*
G37*
G36*
X166892801Y-70390369D02*
G01*
X166991175Y-70442000D01*
X167169600Y-70442000D01*
X167204955Y-70456645D01*
X167219600Y-70492000D01*
X167219600Y-70669016D01*
X167238916Y-70697000D01*
X167294653Y-70843966D01*
X167313599Y-71000000D01*
X167294653Y-71156034D01*
X167238916Y-71303000D01*
X167219600Y-71330984D01*
X167219600Y-71508000D01*
X167204955Y-71543355D01*
X167169600Y-71558000D01*
X166991175Y-71558000D01*
X166892801Y-71609631D01*
X166740189Y-71647246D01*
X166583009Y-71647246D01*
X166430397Y-71609631D01*
X166332023Y-71558000D01*
X164629600Y-71558000D01*
X164594245Y-71543355D01*
X164579600Y-71508000D01*
X164579600Y-70492000D01*
X164594245Y-70456645D01*
X164629600Y-70442000D01*
X166332023Y-70442000D01*
X166430397Y-70390369D01*
X166583009Y-70352754D01*
X166740189Y-70352754D01*
X166892801Y-70390369D01*
G37*
G36*
X169432802Y-72930369D02*
G01*
X169531176Y-72982000D01*
X171233601Y-72982000D01*
X171268956Y-72996645D01*
X171283601Y-73032000D01*
X171283600Y-74048000D01*
X171268955Y-74083355D01*
X171233600Y-74098000D01*
X169531176Y-74098000D01*
X169432802Y-74149631D01*
X169280190Y-74187246D01*
X169123010Y-74187246D01*
X168970398Y-74149631D01*
X168872024Y-74098000D01*
X168693600Y-74098000D01*
X168658245Y-74083355D01*
X168643600Y-74048000D01*
X168643600Y-73870985D01*
X168624283Y-73843000D01*
X168568546Y-73696034D01*
X168549600Y-73540000D01*
X168568546Y-73383966D01*
X168624283Y-73237000D01*
X168643600Y-73209015D01*
X168643599Y-73032000D01*
X168658244Y-72996645D01*
X168693599Y-72982000D01*
X168872024Y-72982000D01*
X168970398Y-72930369D01*
X169123010Y-72892754D01*
X169280190Y-72892754D01*
X169432802Y-72930369D01*
G37*
G36*
X166892802Y-72930369D02*
G01*
X166991176Y-72982000D01*
X167169600Y-72982000D01*
X167204955Y-72996645D01*
X167219600Y-73032000D01*
X167219600Y-73209015D01*
X167238917Y-73237000D01*
X167294654Y-73383966D01*
X167313600Y-73540000D01*
X167294654Y-73696034D01*
X167238917Y-73843000D01*
X167219600Y-73870985D01*
X167219600Y-74048000D01*
X167204955Y-74083355D01*
X167169600Y-74098000D01*
X166991176Y-74098000D01*
X166892802Y-74149631D01*
X166740190Y-74187246D01*
X166583010Y-74187246D01*
X166430398Y-74149631D01*
X166332024Y-74098000D01*
X164629600Y-74098000D01*
X164594245Y-74083355D01*
X164579600Y-74048000D01*
X164579599Y-73032000D01*
X164594244Y-72996645D01*
X164629599Y-72982000D01*
X166332024Y-72982000D01*
X166430398Y-72930369D01*
X166583010Y-72892754D01*
X166740190Y-72892754D01*
X166892802Y-72930369D01*
G37*
G36*
X169432802Y-75470369D02*
G01*
X169531176Y-75522000D01*
X171233600Y-75522000D01*
X171268955Y-75536645D01*
X171283600Y-75572000D01*
X171283600Y-76588000D01*
X171268955Y-76623355D01*
X171233600Y-76638000D01*
X169531176Y-76638000D01*
X169432802Y-76689631D01*
X169280190Y-76727246D01*
X169123010Y-76727246D01*
X168970398Y-76689631D01*
X168872024Y-76638000D01*
X168693600Y-76638000D01*
X168658245Y-76623355D01*
X168643600Y-76588000D01*
X168643600Y-76410985D01*
X168624283Y-76383000D01*
X168568546Y-76236034D01*
X168549600Y-76080000D01*
X168568546Y-75923966D01*
X168624283Y-75777000D01*
X168643600Y-75749015D01*
X168643600Y-75572000D01*
X168658245Y-75536645D01*
X168693600Y-75522000D01*
X168872024Y-75522000D01*
X168970398Y-75470369D01*
X169123010Y-75432754D01*
X169280190Y-75432754D01*
X169432802Y-75470369D01*
G37*
G36*
X166892802Y-75470369D02*
G01*
X166991176Y-75522000D01*
X167169600Y-75522000D01*
X167204955Y-75536645D01*
X167219600Y-75572000D01*
X167219600Y-75749015D01*
X167238917Y-75777000D01*
X167294654Y-75923966D01*
X167313600Y-76080000D01*
X167294654Y-76236034D01*
X167238917Y-76383000D01*
X167219600Y-76410985D01*
X167219600Y-76588000D01*
X167204955Y-76623355D01*
X167169600Y-76638000D01*
X166991176Y-76638000D01*
X166892802Y-76689631D01*
X166740190Y-76727246D01*
X166583010Y-76727246D01*
X166430398Y-76689631D01*
X166332024Y-76638000D01*
X164629600Y-76638000D01*
X164594245Y-76623355D01*
X164579600Y-76588000D01*
X164579600Y-75572000D01*
X164594245Y-75536645D01*
X164629600Y-75522000D01*
X166332024Y-75522000D01*
X166430398Y-75470369D01*
X166583010Y-75432754D01*
X166740190Y-75432754D01*
X166892802Y-75470369D01*
G37*
%TD*%
D13*
%TO.C,*%
X178750000Y-77000000D03*
%TD*%
D14*
%TO.C,J2*%
X161149999Y-57400000D03*
X159900000Y-57400000D03*
G36*
G01*
X159049999Y-56950000D02*
X159049999Y-57850000D01*
G75*
G02*
X158849999Y-58050000I-200000J0D01*
G01*
X158449999Y-58050000D01*
G75*
G02*
X158249999Y-57850000I0J200000D01*
G01*
X158249999Y-56950000D01*
G75*
G02*
X158449999Y-56750000I200000J0D01*
G01*
X158849999Y-56750000D01*
G75*
G02*
X159049999Y-56950000I0J-200000D01*
G01*
G37*
X157400000Y-57400000D03*
%TD*%
D15*
%TO.C,SW1*%
X204030000Y-77790000D03*
X204030000Y-72710000D03*
X198950000Y-77790000D03*
X198950000Y-72710000D03*
%TD*%
%TO.C,J3*%
G36*
G01*
X200992500Y-60650000D02*
X202442500Y-60650000D01*
G75*
G02*
X202692500Y-60900000I0J-250000D01*
G01*
X202692500Y-62100000D01*
G75*
G02*
X202442500Y-62350000I-250000J0D01*
G01*
X200992500Y-62350000D01*
G75*
G02*
X200742500Y-62100000I0J250000D01*
G01*
X200742500Y-60900000D01*
G75*
G02*
X200992500Y-60650000I250000J0D01*
G01*
G37*
D16*
X201717500Y-64000000D03*
X201717500Y-66500000D03*
%TD*%
%TO.C,J5*%
G36*
G01*
X153300000Y-56950000D02*
X153300000Y-57850000D01*
G75*
G02*
X153100000Y-58050000I-200000J0D01*
G01*
X152700000Y-58050000D01*
G75*
G02*
X152500000Y-57850000I0J200000D01*
G01*
X152500000Y-56950000D01*
G75*
G02*
X152700000Y-56750000I200000J0D01*
G01*
X153100000Y-56750000D01*
G75*
G02*
X153300000Y-56950000I0J-200000D01*
G01*
G37*
D14*
X151650000Y-57400000D03*
%TD*%
%TO.C,J1*%
X169149999Y-57400000D03*
X167900000Y-57400000D03*
G36*
G01*
X167049999Y-56950000D02*
X167049999Y-57850000D01*
G75*
G02*
X166849999Y-58050000I-200000J0D01*
G01*
X166449999Y-58050000D01*
G75*
G02*
X166249999Y-57850000I0J200000D01*
G01*
X166249999Y-56950000D01*
G75*
G02*
X166449999Y-56750000I200000J0D01*
G01*
X166849999Y-56750000D01*
G75*
G02*
X167049999Y-56950000I0J-200000D01*
G01*
G37*
X165400000Y-57400000D03*
%TD*%
D13*
%TO.C,*%
X174000000Y-56000000D03*
%TD*%
%TO.C,*%
X146000000Y-56000000D03*
%TD*%
D17*
%TO.C,J4*%
X203900000Y-56500000D03*
G36*
G01*
X204350000Y-55650001D02*
X203450000Y-55650001D01*
G75*
G02*
X203250000Y-55450001I0J200000D01*
G01*
X203250000Y-55050001D01*
G75*
G02*
X203450000Y-54850001I200000J0D01*
G01*
X204350000Y-54850001D01*
G75*
G02*
X204550000Y-55050001I0J-200000D01*
G01*
X204550000Y-55450001D01*
G75*
G02*
X204350000Y-55650001I-200000J0D01*
G01*
G37*
X203900000Y-54000000D03*
%TD*%
D18*
%TO.C,SW4*%
X189500000Y-75500000D03*
X196500000Y-75500000D03*
X190500000Y-78000000D03*
X195500000Y-78000000D03*
%TD*%
D13*
%TO.C,U4*%
X194220000Y-71620000D03*
X194220000Y-56380000D03*
D19*
X178980000Y-56380000D03*
X178980000Y-58920000D03*
X178980000Y-61460000D03*
X178980000Y-64000000D03*
X178980000Y-66540000D03*
G36*
G01*
X178040200Y-69755514D02*
X178040200Y-68404486D01*
G75*
G02*
X178304486Y-68140200I264286J0D01*
G01*
X179655514Y-68140200D01*
G75*
G02*
X179919800Y-68404486I0J-264286D01*
G01*
X179919800Y-69755514D01*
G75*
G02*
X179655514Y-70019800I-264286J0D01*
G01*
X178304486Y-70019800D01*
G75*
G02*
X178040200Y-69755514I0J264286D01*
G01*
G37*
X178980000Y-71620000D03*
%TD*%
%LPD*%
M02*
