%TF.GenerationSoftware,KiCad,Pcbnew,8.0.5-8.0.5-0~ubuntu20.04.1*%
%TF.CreationDate,2025-02-19T15:36:45-06:00*%
%TF.ProjectId,Alex_Teensy4_PCB,416c6578-5f54-4656-956e-7379345f5043,rev?*%
%TF.SameCoordinates,Original*%
%TF.FileFunction,Legend,Top*%
%TF.FilePolarity,Positive*%
%FSLAX46Y46*%
G04 Gerber Fmt 4.6, Leading zero omitted, Abs format (unit mm)*
G04 Created by KiCad (PCBNEW 8.0.5-8.0.5-0~ubuntu20.04.1) date 2025-02-19 15:36:45*
%MOMM*%
%LPD*%
G01*
G04 APERTURE LIST*
%ADD10C,0.127000*%
%ADD11C,0.150000*%
%ADD12C,0.200000*%
%ADD13C,0.100000*%
%ADD14C,0.120000*%
%ADD15C,1.404000*%
%ADD16C,3.301600*%
%ADD17O,0.800000X1.300000*%
%ADD18C,1.700000*%
%ADD19O,1.950000X1.700000*%
%ADD20O,1.300000X0.800000*%
%ADD21C,2.000000*%
%ADD22C,1.879600*%
G04 APERTURE END LIST*
D10*
X209086526Y-56848150D02*
X208884496Y-57050181D01*
X208884496Y-57050181D02*
X209066323Y-57272415D01*
X209066323Y-57272415D02*
X209066323Y-57232008D01*
X209066323Y-57232008D02*
X209086526Y-57171399D01*
X209086526Y-57171399D02*
X209187541Y-57070384D01*
X209187541Y-57070384D02*
X209248151Y-57050181D01*
X209248151Y-57050181D02*
X209288557Y-57050181D01*
X209288557Y-57050181D02*
X209349166Y-57070384D01*
X209349166Y-57070384D02*
X209450181Y-57171399D01*
X209450181Y-57171399D02*
X209470384Y-57232008D01*
X209470384Y-57232008D02*
X209470384Y-57272415D01*
X209470384Y-57272415D02*
X209450181Y-57333024D01*
X209450181Y-57333024D02*
X209349166Y-57434039D01*
X209349166Y-57434039D02*
X209288557Y-57454242D01*
X209288557Y-57454242D02*
X209248151Y-57454242D01*
X209227948Y-56706729D02*
X209793633Y-56989571D01*
X209793633Y-56989571D02*
X209510791Y-56423886D01*
X208864293Y-55110790D02*
X208803684Y-55130993D01*
X208803684Y-55130993D02*
X208743075Y-55191602D01*
X208743075Y-55191602D02*
X208702669Y-55272414D01*
X208702669Y-55272414D02*
X208702669Y-55353226D01*
X208702669Y-55353226D02*
X208722872Y-55413835D01*
X208722872Y-55413835D02*
X208783481Y-55514851D01*
X208783481Y-55514851D02*
X208844090Y-55575460D01*
X208844090Y-55575460D02*
X208945105Y-55636069D01*
X208945105Y-55636069D02*
X209005714Y-55656272D01*
X209005714Y-55656272D02*
X209086527Y-55656272D01*
X209086527Y-55656272D02*
X209167339Y-55615866D01*
X209167339Y-55615866D02*
X209207745Y-55575460D01*
X209207745Y-55575460D02*
X209248151Y-55494648D01*
X209248151Y-55494648D02*
X209248151Y-55454242D01*
X209248151Y-55454242D02*
X209106730Y-55312820D01*
X209106730Y-55312820D02*
X209025917Y-55393632D01*
X209470385Y-55312820D02*
X209046121Y-54888556D01*
X209046121Y-54888556D02*
X209712821Y-55070384D01*
X209712821Y-55070384D02*
X209288557Y-54646120D01*
X209914851Y-54868353D02*
X209490587Y-54444089D01*
X209490587Y-54444089D02*
X209591603Y-54343074D01*
X209591603Y-54343074D02*
X209672415Y-54302668D01*
X209672415Y-54302668D02*
X209753227Y-54302668D01*
X209753227Y-54302668D02*
X209813836Y-54322871D01*
X209813836Y-54322871D02*
X209914851Y-54383480D01*
X209914851Y-54383480D02*
X209975461Y-54444089D01*
X209975461Y-54444089D02*
X210036070Y-54545105D01*
X210036070Y-54545105D02*
X210056273Y-54605714D01*
X210056273Y-54605714D02*
X210056273Y-54686526D01*
X210056273Y-54686526D02*
X210015867Y-54767338D01*
X210015867Y-54767338D02*
X209914851Y-54868353D01*
X209328962Y-53654242D02*
X209086526Y-53896679D01*
X209207744Y-53775461D02*
X208783480Y-53351197D01*
X208783480Y-53351197D02*
X208803683Y-53452212D01*
X208803683Y-53452212D02*
X208803683Y-53533024D01*
X208803683Y-53533024D02*
X208783480Y-53593633D01*
X209106729Y-53108760D02*
X209106729Y-53068354D01*
X209106729Y-53068354D02*
X209126932Y-53007745D01*
X209126932Y-53007745D02*
X209227947Y-52906729D01*
X209227947Y-52906729D02*
X209288557Y-52886526D01*
X209288557Y-52886526D02*
X209328963Y-52886526D01*
X209328963Y-52886526D02*
X209389572Y-52906729D01*
X209389572Y-52906729D02*
X209429978Y-52947135D01*
X209429978Y-52947135D02*
X209470384Y-53027948D01*
X209470384Y-53027948D02*
X209470384Y-53512821D01*
X209470384Y-53512821D02*
X209733024Y-53250181D01*
X209429978Y-52704698D02*
X209995664Y-52987541D01*
X209995664Y-52987541D02*
X209712821Y-52421856D01*
D11*
X147607142Y-53304608D02*
X147559523Y-53352228D01*
X147559523Y-53352228D02*
X147416666Y-53399847D01*
X147416666Y-53399847D02*
X147321428Y-53399847D01*
X147321428Y-53399847D02*
X147178571Y-53352228D01*
X147178571Y-53352228D02*
X147083333Y-53256989D01*
X147083333Y-53256989D02*
X147035714Y-53161751D01*
X147035714Y-53161751D02*
X146988095Y-52971275D01*
X146988095Y-52971275D02*
X146988095Y-52828418D01*
X146988095Y-52828418D02*
X147035714Y-52637942D01*
X147035714Y-52637942D02*
X147083333Y-52542704D01*
X147083333Y-52542704D02*
X147178571Y-52447466D01*
X147178571Y-52447466D02*
X147321428Y-52399847D01*
X147321428Y-52399847D02*
X147416666Y-52399847D01*
X147416666Y-52399847D02*
X147559523Y-52447466D01*
X147559523Y-52447466D02*
X147607142Y-52495085D01*
X147988095Y-53114132D02*
X148464285Y-53114132D01*
X147892857Y-53399847D02*
X148226190Y-52399847D01*
X148226190Y-52399847D02*
X148559523Y-53399847D01*
X148892857Y-53399847D02*
X148892857Y-52399847D01*
X148892857Y-52399847D02*
X149464285Y-53399847D01*
X149464285Y-53399847D02*
X149464285Y-52399847D01*
X147702381Y-55009791D02*
X147702381Y-54009791D01*
X147702381Y-54485981D02*
X148273809Y-54485981D01*
X148273809Y-55009791D02*
X148273809Y-54009791D01*
X148797619Y-54962172D02*
X148797619Y-55009791D01*
X148797619Y-55009791D02*
X148750000Y-55105029D01*
X148750000Y-55105029D02*
X148702381Y-55152648D01*
X149702380Y-55009791D02*
X149226190Y-55009791D01*
X149226190Y-55009791D02*
X149226190Y-54009791D01*
X158421429Y-59168771D02*
X158821429Y-59168771D01*
X158992857Y-59797342D02*
X158421429Y-59797342D01*
X158421429Y-59797342D02*
X158421429Y-58597342D01*
X158421429Y-58597342D02*
X158992857Y-58597342D01*
X159450000Y-58711628D02*
X159507143Y-58654485D01*
X159507143Y-58654485D02*
X159621429Y-58597342D01*
X159621429Y-58597342D02*
X159907143Y-58597342D01*
X159907143Y-58597342D02*
X160021429Y-58654485D01*
X160021429Y-58654485D02*
X160078571Y-58711628D01*
X160078571Y-58711628D02*
X160135714Y-58825914D01*
X160135714Y-58825914D02*
X160135714Y-58940200D01*
X160135714Y-58940200D02*
X160078571Y-59111628D01*
X160078571Y-59111628D02*
X159392857Y-59797342D01*
X159392857Y-59797342D02*
X160135714Y-59797342D01*
X166421429Y-59168771D02*
X166821429Y-59168771D01*
X166992857Y-59797342D02*
X166421429Y-59797342D01*
X166421429Y-59797342D02*
X166421429Y-58597342D01*
X166421429Y-58597342D02*
X166992857Y-58597342D01*
X168135714Y-59797342D02*
X167450000Y-59797342D01*
X167792857Y-59797342D02*
X167792857Y-58597342D01*
X167792857Y-58597342D02*
X167678571Y-58768771D01*
X167678571Y-58768771D02*
X167564286Y-58883057D01*
X167564286Y-58883057D02*
X167450000Y-58940200D01*
X183829819Y-70891904D02*
X184639342Y-70891904D01*
X184639342Y-70891904D02*
X184734580Y-70844285D01*
X184734580Y-70844285D02*
X184782200Y-70796666D01*
X184782200Y-70796666D02*
X184829819Y-70701428D01*
X184829819Y-70701428D02*
X184829819Y-70510952D01*
X184829819Y-70510952D02*
X184782200Y-70415714D01*
X184782200Y-70415714D02*
X184734580Y-70368095D01*
X184734580Y-70368095D02*
X184639342Y-70320476D01*
X184639342Y-70320476D02*
X183829819Y-70320476D01*
X183925057Y-69891904D02*
X183877438Y-69844285D01*
X183877438Y-69844285D02*
X183829819Y-69749047D01*
X183829819Y-69749047D02*
X183829819Y-69510952D01*
X183829819Y-69510952D02*
X183877438Y-69415714D01*
X183877438Y-69415714D02*
X183925057Y-69368095D01*
X183925057Y-69368095D02*
X184020295Y-69320476D01*
X184020295Y-69320476D02*
X184115533Y-69320476D01*
X184115533Y-69320476D02*
X184258390Y-69368095D01*
X184258390Y-69368095D02*
X184829819Y-69939523D01*
X184829819Y-69939523D02*
X184829819Y-69320476D01*
X144569695Y-70274819D02*
X144569695Y-71084342D01*
X144569695Y-71084342D02*
X144617314Y-71179580D01*
X144617314Y-71179580D02*
X144664933Y-71227200D01*
X144664933Y-71227200D02*
X144760171Y-71274819D01*
X144760171Y-71274819D02*
X144950647Y-71274819D01*
X144950647Y-71274819D02*
X145045885Y-71227200D01*
X145045885Y-71227200D02*
X145093504Y-71179580D01*
X145093504Y-71179580D02*
X145141123Y-71084342D01*
X145141123Y-71084342D02*
X145141123Y-70274819D01*
X146141123Y-71274819D02*
X145569695Y-71274819D01*
X145855409Y-71274819D02*
X145855409Y-70274819D01*
X145855409Y-70274819D02*
X145760171Y-70417676D01*
X145760171Y-70417676D02*
X145664933Y-70512914D01*
X145664933Y-70512914D02*
X145569695Y-70560533D01*
X196833333Y-64109580D02*
X196785714Y-64157200D01*
X196785714Y-64157200D02*
X196642857Y-64204819D01*
X196642857Y-64204819D02*
X196547619Y-64204819D01*
X196547619Y-64204819D02*
X196404762Y-64157200D01*
X196404762Y-64157200D02*
X196309524Y-64061961D01*
X196309524Y-64061961D02*
X196261905Y-63966723D01*
X196261905Y-63966723D02*
X196214286Y-63776247D01*
X196214286Y-63776247D02*
X196214286Y-63633390D01*
X196214286Y-63633390D02*
X196261905Y-63442914D01*
X196261905Y-63442914D02*
X196309524Y-63347676D01*
X196309524Y-63347676D02*
X196404762Y-63252438D01*
X196404762Y-63252438D02*
X196547619Y-63204819D01*
X196547619Y-63204819D02*
X196642857Y-63204819D01*
X196642857Y-63204819D02*
X196785714Y-63252438D01*
X196785714Y-63252438D02*
X196833333Y-63300057D01*
X197309524Y-64204819D02*
X197500000Y-64204819D01*
X197500000Y-64204819D02*
X197595238Y-64157200D01*
X197595238Y-64157200D02*
X197642857Y-64109580D01*
X197642857Y-64109580D02*
X197738095Y-63966723D01*
X197738095Y-63966723D02*
X197785714Y-63776247D01*
X197785714Y-63776247D02*
X197785714Y-63395295D01*
X197785714Y-63395295D02*
X197738095Y-63300057D01*
X197738095Y-63300057D02*
X197690476Y-63252438D01*
X197690476Y-63252438D02*
X197595238Y-63204819D01*
X197595238Y-63204819D02*
X197404762Y-63204819D01*
X197404762Y-63204819D02*
X197309524Y-63252438D01*
X197309524Y-63252438D02*
X197261905Y-63300057D01*
X197261905Y-63300057D02*
X197214286Y-63395295D01*
X197214286Y-63395295D02*
X197214286Y-63633390D01*
X197214286Y-63633390D02*
X197261905Y-63728628D01*
X197261905Y-63728628D02*
X197309524Y-63776247D01*
X197309524Y-63776247D02*
X197404762Y-63823866D01*
X197404762Y-63823866D02*
X197595238Y-63823866D01*
X197595238Y-63823866D02*
X197690476Y-63776247D01*
X197690476Y-63776247D02*
X197738095Y-63728628D01*
X197738095Y-63728628D02*
X197785714Y-63633390D01*
X193583333Y-65359580D02*
X193535714Y-65407200D01*
X193535714Y-65407200D02*
X193392857Y-65454819D01*
X193392857Y-65454819D02*
X193297619Y-65454819D01*
X193297619Y-65454819D02*
X193154762Y-65407200D01*
X193154762Y-65407200D02*
X193059524Y-65311961D01*
X193059524Y-65311961D02*
X193011905Y-65216723D01*
X193011905Y-65216723D02*
X192964286Y-65026247D01*
X192964286Y-65026247D02*
X192964286Y-64883390D01*
X192964286Y-64883390D02*
X193011905Y-64692914D01*
X193011905Y-64692914D02*
X193059524Y-64597676D01*
X193059524Y-64597676D02*
X193154762Y-64502438D01*
X193154762Y-64502438D02*
X193297619Y-64454819D01*
X193297619Y-64454819D02*
X193392857Y-64454819D01*
X193392857Y-64454819D02*
X193535714Y-64502438D01*
X193535714Y-64502438D02*
X193583333Y-64550057D01*
X194154762Y-64883390D02*
X194059524Y-64835771D01*
X194059524Y-64835771D02*
X194011905Y-64788152D01*
X194011905Y-64788152D02*
X193964286Y-64692914D01*
X193964286Y-64692914D02*
X193964286Y-64645295D01*
X193964286Y-64645295D02*
X194011905Y-64550057D01*
X194011905Y-64550057D02*
X194059524Y-64502438D01*
X194059524Y-64502438D02*
X194154762Y-64454819D01*
X194154762Y-64454819D02*
X194345238Y-64454819D01*
X194345238Y-64454819D02*
X194440476Y-64502438D01*
X194440476Y-64502438D02*
X194488095Y-64550057D01*
X194488095Y-64550057D02*
X194535714Y-64645295D01*
X194535714Y-64645295D02*
X194535714Y-64692914D01*
X194535714Y-64692914D02*
X194488095Y-64788152D01*
X194488095Y-64788152D02*
X194440476Y-64835771D01*
X194440476Y-64835771D02*
X194345238Y-64883390D01*
X194345238Y-64883390D02*
X194154762Y-64883390D01*
X194154762Y-64883390D02*
X194059524Y-64931009D01*
X194059524Y-64931009D02*
X194011905Y-64978628D01*
X194011905Y-64978628D02*
X193964286Y-65073866D01*
X193964286Y-65073866D02*
X193964286Y-65264342D01*
X193964286Y-65264342D02*
X194011905Y-65359580D01*
X194011905Y-65359580D02*
X194059524Y-65407200D01*
X194059524Y-65407200D02*
X194154762Y-65454819D01*
X194154762Y-65454819D02*
X194345238Y-65454819D01*
X194345238Y-65454819D02*
X194440476Y-65407200D01*
X194440476Y-65407200D02*
X194488095Y-65359580D01*
X194488095Y-65359580D02*
X194535714Y-65264342D01*
X194535714Y-65264342D02*
X194535714Y-65073866D01*
X194535714Y-65073866D02*
X194488095Y-64978628D01*
X194488095Y-64978628D02*
X194440476Y-64931009D01*
X194440476Y-64931009D02*
X194345238Y-64883390D01*
X158936665Y-54254818D02*
X158936665Y-54969103D01*
X158936665Y-54969103D02*
X158889046Y-55111960D01*
X158889046Y-55111960D02*
X158793808Y-55207199D01*
X158793808Y-55207199D02*
X158650951Y-55254818D01*
X158650951Y-55254818D02*
X158555713Y-55254818D01*
X159365237Y-54350056D02*
X159412856Y-54302437D01*
X159412856Y-54302437D02*
X159508094Y-54254818D01*
X159508094Y-54254818D02*
X159746189Y-54254818D01*
X159746189Y-54254818D02*
X159841427Y-54302437D01*
X159841427Y-54302437D02*
X159889046Y-54350056D01*
X159889046Y-54350056D02*
X159936665Y-54445294D01*
X159936665Y-54445294D02*
X159936665Y-54540532D01*
X159936665Y-54540532D02*
X159889046Y-54683389D01*
X159889046Y-54683389D02*
X159317618Y-55254818D01*
X159317618Y-55254818D02*
X159936665Y-55254818D01*
X184233333Y-75559580D02*
X184185714Y-75607200D01*
X184185714Y-75607200D02*
X184042857Y-75654819D01*
X184042857Y-75654819D02*
X183947619Y-75654819D01*
X183947619Y-75654819D02*
X183804762Y-75607200D01*
X183804762Y-75607200D02*
X183709524Y-75511961D01*
X183709524Y-75511961D02*
X183661905Y-75416723D01*
X183661905Y-75416723D02*
X183614286Y-75226247D01*
X183614286Y-75226247D02*
X183614286Y-75083390D01*
X183614286Y-75083390D02*
X183661905Y-74892914D01*
X183661905Y-74892914D02*
X183709524Y-74797676D01*
X183709524Y-74797676D02*
X183804762Y-74702438D01*
X183804762Y-74702438D02*
X183947619Y-74654819D01*
X183947619Y-74654819D02*
X184042857Y-74654819D01*
X184042857Y-74654819D02*
X184185714Y-74702438D01*
X184185714Y-74702438D02*
X184233333Y-74750057D01*
X185138095Y-74654819D02*
X184661905Y-74654819D01*
X184661905Y-74654819D02*
X184614286Y-75131009D01*
X184614286Y-75131009D02*
X184661905Y-75083390D01*
X184661905Y-75083390D02*
X184757143Y-75035771D01*
X184757143Y-75035771D02*
X184995238Y-75035771D01*
X184995238Y-75035771D02*
X185090476Y-75083390D01*
X185090476Y-75083390D02*
X185138095Y-75131009D01*
X185138095Y-75131009D02*
X185185714Y-75226247D01*
X185185714Y-75226247D02*
X185185714Y-75464342D01*
X185185714Y-75464342D02*
X185138095Y-75559580D01*
X185138095Y-75559580D02*
X185090476Y-75607200D01*
X185090476Y-75607200D02*
X184995238Y-75654819D01*
X184995238Y-75654819D02*
X184757143Y-75654819D01*
X184757143Y-75654819D02*
X184661905Y-75607200D01*
X184661905Y-75607200D02*
X184614286Y-75559580D01*
X187833333Y-64454819D02*
X187500000Y-63978628D01*
X187261905Y-64454819D02*
X187261905Y-63454819D01*
X187261905Y-63454819D02*
X187642857Y-63454819D01*
X187642857Y-63454819D02*
X187738095Y-63502438D01*
X187738095Y-63502438D02*
X187785714Y-63550057D01*
X187785714Y-63550057D02*
X187833333Y-63645295D01*
X187833333Y-63645295D02*
X187833333Y-63788152D01*
X187833333Y-63788152D02*
X187785714Y-63883390D01*
X187785714Y-63883390D02*
X187738095Y-63931009D01*
X187738095Y-63931009D02*
X187642857Y-63978628D01*
X187642857Y-63978628D02*
X187261905Y-63978628D01*
X188166667Y-63454819D02*
X188785714Y-63454819D01*
X188785714Y-63454819D02*
X188452381Y-63835771D01*
X188452381Y-63835771D02*
X188595238Y-63835771D01*
X188595238Y-63835771D02*
X188690476Y-63883390D01*
X188690476Y-63883390D02*
X188738095Y-63931009D01*
X188738095Y-63931009D02*
X188785714Y-64026247D01*
X188785714Y-64026247D02*
X188785714Y-64264342D01*
X188785714Y-64264342D02*
X188738095Y-64359580D01*
X188738095Y-64359580D02*
X188690476Y-64407200D01*
X188690476Y-64407200D02*
X188595238Y-64454819D01*
X188595238Y-64454819D02*
X188309524Y-64454819D01*
X188309524Y-64454819D02*
X188214286Y-64407200D01*
X188214286Y-64407200D02*
X188166667Y-64359580D01*
X189238095Y-56954819D02*
X189238095Y-57764342D01*
X189238095Y-57764342D02*
X189285714Y-57859580D01*
X189285714Y-57859580D02*
X189333333Y-57907200D01*
X189333333Y-57907200D02*
X189428571Y-57954819D01*
X189428571Y-57954819D02*
X189619047Y-57954819D01*
X189619047Y-57954819D02*
X189714285Y-57907200D01*
X189714285Y-57907200D02*
X189761904Y-57859580D01*
X189761904Y-57859580D02*
X189809523Y-57764342D01*
X189809523Y-57764342D02*
X189809523Y-56954819D01*
X190761904Y-56954819D02*
X190285714Y-56954819D01*
X190285714Y-56954819D02*
X190238095Y-57431009D01*
X190238095Y-57431009D02*
X190285714Y-57383390D01*
X190285714Y-57383390D02*
X190380952Y-57335771D01*
X190380952Y-57335771D02*
X190619047Y-57335771D01*
X190619047Y-57335771D02*
X190714285Y-57383390D01*
X190714285Y-57383390D02*
X190761904Y-57431009D01*
X190761904Y-57431009D02*
X190809523Y-57526247D01*
X190809523Y-57526247D02*
X190809523Y-57764342D01*
X190809523Y-57764342D02*
X190761904Y-57859580D01*
X190761904Y-57859580D02*
X190714285Y-57907200D01*
X190714285Y-57907200D02*
X190619047Y-57954819D01*
X190619047Y-57954819D02*
X190380952Y-57954819D01*
X190380952Y-57954819D02*
X190285714Y-57907200D01*
X190285714Y-57907200D02*
X190238095Y-57859580D01*
D12*
X206404600Y-76583332D02*
X206452219Y-76440475D01*
X206452219Y-76440475D02*
X206452219Y-76202380D01*
X206452219Y-76202380D02*
X206404600Y-76107142D01*
X206404600Y-76107142D02*
X206356980Y-76059523D01*
X206356980Y-76059523D02*
X206261742Y-76011904D01*
X206261742Y-76011904D02*
X206166504Y-76011904D01*
X206166504Y-76011904D02*
X206071266Y-76059523D01*
X206071266Y-76059523D02*
X206023647Y-76107142D01*
X206023647Y-76107142D02*
X205976028Y-76202380D01*
X205976028Y-76202380D02*
X205928409Y-76392856D01*
X205928409Y-76392856D02*
X205880790Y-76488094D01*
X205880790Y-76488094D02*
X205833171Y-76535713D01*
X205833171Y-76535713D02*
X205737933Y-76583332D01*
X205737933Y-76583332D02*
X205642695Y-76583332D01*
X205642695Y-76583332D02*
X205547457Y-76535713D01*
X205547457Y-76535713D02*
X205499838Y-76488094D01*
X205499838Y-76488094D02*
X205452219Y-76392856D01*
X205452219Y-76392856D02*
X205452219Y-76154761D01*
X205452219Y-76154761D02*
X205499838Y-76011904D01*
X205452219Y-75678570D02*
X206452219Y-75440475D01*
X206452219Y-75440475D02*
X205737933Y-75249999D01*
X205737933Y-75249999D02*
X206452219Y-75059523D01*
X206452219Y-75059523D02*
X205452219Y-74821428D01*
X206452219Y-73916666D02*
X206452219Y-74488094D01*
X206452219Y-74202380D02*
X205452219Y-74202380D01*
X205452219Y-74202380D02*
X205595076Y-74297618D01*
X205595076Y-74297618D02*
X205690314Y-74392856D01*
X205690314Y-74392856D02*
X205737933Y-74488094D01*
D11*
X143954819Y-57566666D02*
X143478628Y-57899999D01*
X143954819Y-58138094D02*
X142954819Y-58138094D01*
X142954819Y-58138094D02*
X142954819Y-57757142D01*
X142954819Y-57757142D02*
X143002438Y-57661904D01*
X143002438Y-57661904D02*
X143050057Y-57614285D01*
X143050057Y-57614285D02*
X143145295Y-57566666D01*
X143145295Y-57566666D02*
X143288152Y-57566666D01*
X143288152Y-57566666D02*
X143383390Y-57614285D01*
X143383390Y-57614285D02*
X143431009Y-57661904D01*
X143431009Y-57661904D02*
X143478628Y-57757142D01*
X143478628Y-57757142D02*
X143478628Y-58138094D01*
X142954819Y-57233332D02*
X142954819Y-56566666D01*
X142954819Y-56566666D02*
X143954819Y-56995237D01*
X207254819Y-64333333D02*
X207969104Y-64333333D01*
X207969104Y-64333333D02*
X208111961Y-64380952D01*
X208111961Y-64380952D02*
X208207200Y-64476190D01*
X208207200Y-64476190D02*
X208254819Y-64619047D01*
X208254819Y-64619047D02*
X208254819Y-64714285D01*
X207254819Y-63952380D02*
X207254819Y-63333333D01*
X207254819Y-63333333D02*
X207635771Y-63666666D01*
X207635771Y-63666666D02*
X207635771Y-63523809D01*
X207635771Y-63523809D02*
X207683390Y-63428571D01*
X207683390Y-63428571D02*
X207731009Y-63380952D01*
X207731009Y-63380952D02*
X207826247Y-63333333D01*
X207826247Y-63333333D02*
X208064342Y-63333333D01*
X208064342Y-63333333D02*
X208159580Y-63380952D01*
X208159580Y-63380952D02*
X208207200Y-63428571D01*
X208207200Y-63428571D02*
X208254819Y-63523809D01*
X208254819Y-63523809D02*
X208254819Y-63809523D01*
X208254819Y-63809523D02*
X208207200Y-63904761D01*
X208207200Y-63904761D02*
X208159580Y-63952380D01*
X199359580Y-54966666D02*
X199407200Y-55014285D01*
X199407200Y-55014285D02*
X199454819Y-55157142D01*
X199454819Y-55157142D02*
X199454819Y-55252380D01*
X199454819Y-55252380D02*
X199407200Y-55395237D01*
X199407200Y-55395237D02*
X199311961Y-55490475D01*
X199311961Y-55490475D02*
X199216723Y-55538094D01*
X199216723Y-55538094D02*
X199026247Y-55585713D01*
X199026247Y-55585713D02*
X198883390Y-55585713D01*
X198883390Y-55585713D02*
X198692914Y-55538094D01*
X198692914Y-55538094D02*
X198597676Y-55490475D01*
X198597676Y-55490475D02*
X198502438Y-55395237D01*
X198502438Y-55395237D02*
X198454819Y-55252380D01*
X198454819Y-55252380D02*
X198454819Y-55157142D01*
X198454819Y-55157142D02*
X198502438Y-55014285D01*
X198502438Y-55014285D02*
X198550057Y-54966666D01*
X198550057Y-54585713D02*
X198502438Y-54538094D01*
X198502438Y-54538094D02*
X198454819Y-54442856D01*
X198454819Y-54442856D02*
X198454819Y-54204761D01*
X198454819Y-54204761D02*
X198502438Y-54109523D01*
X198502438Y-54109523D02*
X198550057Y-54061904D01*
X198550057Y-54061904D02*
X198645295Y-54014285D01*
X198645295Y-54014285D02*
X198740533Y-54014285D01*
X198740533Y-54014285D02*
X198883390Y-54061904D01*
X198883390Y-54061904D02*
X199454819Y-54633332D01*
X199454819Y-54633332D02*
X199454819Y-54014285D01*
X181659580Y-55766666D02*
X181707200Y-55814285D01*
X181707200Y-55814285D02*
X181754819Y-55957142D01*
X181754819Y-55957142D02*
X181754819Y-56052380D01*
X181754819Y-56052380D02*
X181707200Y-56195237D01*
X181707200Y-56195237D02*
X181611961Y-56290475D01*
X181611961Y-56290475D02*
X181516723Y-56338094D01*
X181516723Y-56338094D02*
X181326247Y-56385713D01*
X181326247Y-56385713D02*
X181183390Y-56385713D01*
X181183390Y-56385713D02*
X180992914Y-56338094D01*
X180992914Y-56338094D02*
X180897676Y-56290475D01*
X180897676Y-56290475D02*
X180802438Y-56195237D01*
X180802438Y-56195237D02*
X180754819Y-56052380D01*
X180754819Y-56052380D02*
X180754819Y-55957142D01*
X180754819Y-55957142D02*
X180802438Y-55814285D01*
X180802438Y-55814285D02*
X180850057Y-55766666D01*
X180754819Y-55433332D02*
X180754819Y-54814285D01*
X180754819Y-54814285D02*
X181135771Y-55147618D01*
X181135771Y-55147618D02*
X181135771Y-55004761D01*
X181135771Y-55004761D02*
X181183390Y-54909523D01*
X181183390Y-54909523D02*
X181231009Y-54861904D01*
X181231009Y-54861904D02*
X181326247Y-54814285D01*
X181326247Y-54814285D02*
X181564342Y-54814285D01*
X181564342Y-54814285D02*
X181659580Y-54861904D01*
X181659580Y-54861904D02*
X181707200Y-54909523D01*
X181707200Y-54909523D02*
X181754819Y-55004761D01*
X181754819Y-55004761D02*
X181754819Y-55290475D01*
X181754819Y-55290475D02*
X181707200Y-55385713D01*
X181707200Y-55385713D02*
X181659580Y-55433332D01*
X151946666Y-54454818D02*
X151946666Y-55169103D01*
X151946666Y-55169103D02*
X151899047Y-55311960D01*
X151899047Y-55311960D02*
X151803809Y-55407199D01*
X151803809Y-55407199D02*
X151660952Y-55454818D01*
X151660952Y-55454818D02*
X151565714Y-55454818D01*
X152899047Y-54454818D02*
X152422857Y-54454818D01*
X152422857Y-54454818D02*
X152375238Y-54931008D01*
X152375238Y-54931008D02*
X152422857Y-54883389D01*
X152422857Y-54883389D02*
X152518095Y-54835770D01*
X152518095Y-54835770D02*
X152756190Y-54835770D01*
X152756190Y-54835770D02*
X152851428Y-54883389D01*
X152851428Y-54883389D02*
X152899047Y-54931008D01*
X152899047Y-54931008D02*
X152946666Y-55026246D01*
X152946666Y-55026246D02*
X152946666Y-55264341D01*
X152946666Y-55264341D02*
X152899047Y-55359579D01*
X152899047Y-55359579D02*
X152851428Y-55407199D01*
X152851428Y-55407199D02*
X152756190Y-55454818D01*
X152756190Y-55454818D02*
X152518095Y-55454818D01*
X152518095Y-55454818D02*
X152422857Y-55407199D01*
X152422857Y-55407199D02*
X152375238Y-55359579D01*
X166891665Y-54254818D02*
X166891665Y-54969103D01*
X166891665Y-54969103D02*
X166844046Y-55111960D01*
X166844046Y-55111960D02*
X166748808Y-55207199D01*
X166748808Y-55207199D02*
X166605951Y-55254818D01*
X166605951Y-55254818D02*
X166510713Y-55254818D01*
X167891665Y-55254818D02*
X167320237Y-55254818D01*
X167605951Y-55254818D02*
X167605951Y-54254818D01*
X167605951Y-54254818D02*
X167510713Y-54397675D01*
X167510713Y-54397675D02*
X167415475Y-54492913D01*
X167415475Y-54492913D02*
X167320237Y-54540532D01*
X185433333Y-54454819D02*
X185100000Y-53978628D01*
X184861905Y-54454819D02*
X184861905Y-53454819D01*
X184861905Y-53454819D02*
X185242857Y-53454819D01*
X185242857Y-53454819D02*
X185338095Y-53502438D01*
X185338095Y-53502438D02*
X185385714Y-53550057D01*
X185385714Y-53550057D02*
X185433333Y-53645295D01*
X185433333Y-53645295D02*
X185433333Y-53788152D01*
X185433333Y-53788152D02*
X185385714Y-53883390D01*
X185385714Y-53883390D02*
X185338095Y-53931009D01*
X185338095Y-53931009D02*
X185242857Y-53978628D01*
X185242857Y-53978628D02*
X184861905Y-53978628D01*
X186290476Y-53788152D02*
X186290476Y-54454819D01*
X186052381Y-53407200D02*
X185814286Y-54121485D01*
X185814286Y-54121485D02*
X186433333Y-54121485D01*
X184083333Y-64859580D02*
X184035714Y-64907200D01*
X184035714Y-64907200D02*
X183892857Y-64954819D01*
X183892857Y-64954819D02*
X183797619Y-64954819D01*
X183797619Y-64954819D02*
X183654762Y-64907200D01*
X183654762Y-64907200D02*
X183559524Y-64811961D01*
X183559524Y-64811961D02*
X183511905Y-64716723D01*
X183511905Y-64716723D02*
X183464286Y-64526247D01*
X183464286Y-64526247D02*
X183464286Y-64383390D01*
X183464286Y-64383390D02*
X183511905Y-64192914D01*
X183511905Y-64192914D02*
X183559524Y-64097676D01*
X183559524Y-64097676D02*
X183654762Y-64002438D01*
X183654762Y-64002438D02*
X183797619Y-63954819D01*
X183797619Y-63954819D02*
X183892857Y-63954819D01*
X183892857Y-63954819D02*
X184035714Y-64002438D01*
X184035714Y-64002438D02*
X184083333Y-64050057D01*
X184940476Y-64288152D02*
X184940476Y-64954819D01*
X184702381Y-63907200D02*
X184464286Y-64621485D01*
X184464286Y-64621485D02*
X185083333Y-64621485D01*
X151454819Y-60966666D02*
X150978628Y-61299999D01*
X151454819Y-61538094D02*
X150454819Y-61538094D01*
X150454819Y-61538094D02*
X150454819Y-61157142D01*
X150454819Y-61157142D02*
X150502438Y-61061904D01*
X150502438Y-61061904D02*
X150550057Y-61014285D01*
X150550057Y-61014285D02*
X150645295Y-60966666D01*
X150645295Y-60966666D02*
X150788152Y-60966666D01*
X150788152Y-60966666D02*
X150883390Y-61014285D01*
X150883390Y-61014285D02*
X150931009Y-61061904D01*
X150931009Y-61061904D02*
X150978628Y-61157142D01*
X150978628Y-61157142D02*
X150978628Y-61538094D01*
X150454819Y-60061904D02*
X150454819Y-60538094D01*
X150454819Y-60538094D02*
X150931009Y-60585713D01*
X150931009Y-60585713D02*
X150883390Y-60538094D01*
X150883390Y-60538094D02*
X150835771Y-60442856D01*
X150835771Y-60442856D02*
X150835771Y-60204761D01*
X150835771Y-60204761D02*
X150883390Y-60109523D01*
X150883390Y-60109523D02*
X150931009Y-60061904D01*
X150931009Y-60061904D02*
X151026247Y-60014285D01*
X151026247Y-60014285D02*
X151264342Y-60014285D01*
X151264342Y-60014285D02*
X151359580Y-60061904D01*
X151359580Y-60061904D02*
X151407200Y-60109523D01*
X151407200Y-60109523D02*
X151454819Y-60204761D01*
X151454819Y-60204761D02*
X151454819Y-60442856D01*
X151454819Y-60442856D02*
X151407200Y-60538094D01*
X151407200Y-60538094D02*
X151359580Y-60585713D01*
X185954819Y-60761904D02*
X186764342Y-60761904D01*
X186764342Y-60761904D02*
X186859580Y-60714285D01*
X186859580Y-60714285D02*
X186907200Y-60666666D01*
X186907200Y-60666666D02*
X186954819Y-60571428D01*
X186954819Y-60571428D02*
X186954819Y-60380952D01*
X186954819Y-60380952D02*
X186907200Y-60285714D01*
X186907200Y-60285714D02*
X186859580Y-60238095D01*
X186859580Y-60238095D02*
X186764342Y-60190476D01*
X186764342Y-60190476D02*
X185954819Y-60190476D01*
X185954819Y-59809523D02*
X185954819Y-59190476D01*
X185954819Y-59190476D02*
X186335771Y-59523809D01*
X186335771Y-59523809D02*
X186335771Y-59380952D01*
X186335771Y-59380952D02*
X186383390Y-59285714D01*
X186383390Y-59285714D02*
X186431009Y-59238095D01*
X186431009Y-59238095D02*
X186526247Y-59190476D01*
X186526247Y-59190476D02*
X186764342Y-59190476D01*
X186764342Y-59190476D02*
X186859580Y-59238095D01*
X186859580Y-59238095D02*
X186907200Y-59285714D01*
X186907200Y-59285714D02*
X186954819Y-59380952D01*
X186954819Y-59380952D02*
X186954819Y-59666666D01*
X186954819Y-59666666D02*
X186907200Y-59761904D01*
X186907200Y-59761904D02*
X186859580Y-59809523D01*
X141333333Y-57559580D02*
X141285714Y-57607200D01*
X141285714Y-57607200D02*
X141142857Y-57654819D01*
X141142857Y-57654819D02*
X141047619Y-57654819D01*
X141047619Y-57654819D02*
X140904762Y-57607200D01*
X140904762Y-57607200D02*
X140809524Y-57511961D01*
X140809524Y-57511961D02*
X140761905Y-57416723D01*
X140761905Y-57416723D02*
X140714286Y-57226247D01*
X140714286Y-57226247D02*
X140714286Y-57083390D01*
X140714286Y-57083390D02*
X140761905Y-56892914D01*
X140761905Y-56892914D02*
X140809524Y-56797676D01*
X140809524Y-56797676D02*
X140904762Y-56702438D01*
X140904762Y-56702438D02*
X141047619Y-56654819D01*
X141047619Y-56654819D02*
X141142857Y-56654819D01*
X141142857Y-56654819D02*
X141285714Y-56702438D01*
X141285714Y-56702438D02*
X141333333Y-56750057D01*
X141666667Y-56654819D02*
X142333333Y-56654819D01*
X142333333Y-56654819D02*
X141904762Y-57654819D01*
X150154819Y-60966666D02*
X149678628Y-61299999D01*
X150154819Y-61538094D02*
X149154819Y-61538094D01*
X149154819Y-61538094D02*
X149154819Y-61157142D01*
X149154819Y-61157142D02*
X149202438Y-61061904D01*
X149202438Y-61061904D02*
X149250057Y-61014285D01*
X149250057Y-61014285D02*
X149345295Y-60966666D01*
X149345295Y-60966666D02*
X149488152Y-60966666D01*
X149488152Y-60966666D02*
X149583390Y-61014285D01*
X149583390Y-61014285D02*
X149631009Y-61061904D01*
X149631009Y-61061904D02*
X149678628Y-61157142D01*
X149678628Y-61157142D02*
X149678628Y-61538094D01*
X149154819Y-60109523D02*
X149154819Y-60299999D01*
X149154819Y-60299999D02*
X149202438Y-60395237D01*
X149202438Y-60395237D02*
X149250057Y-60442856D01*
X149250057Y-60442856D02*
X149392914Y-60538094D01*
X149392914Y-60538094D02*
X149583390Y-60585713D01*
X149583390Y-60585713D02*
X149964342Y-60585713D01*
X149964342Y-60585713D02*
X150059580Y-60538094D01*
X150059580Y-60538094D02*
X150107200Y-60490475D01*
X150107200Y-60490475D02*
X150154819Y-60395237D01*
X150154819Y-60395237D02*
X150154819Y-60204761D01*
X150154819Y-60204761D02*
X150107200Y-60109523D01*
X150107200Y-60109523D02*
X150059580Y-60061904D01*
X150059580Y-60061904D02*
X149964342Y-60014285D01*
X149964342Y-60014285D02*
X149726247Y-60014285D01*
X149726247Y-60014285D02*
X149631009Y-60061904D01*
X149631009Y-60061904D02*
X149583390Y-60109523D01*
X149583390Y-60109523D02*
X149535771Y-60204761D01*
X149535771Y-60204761D02*
X149535771Y-60395237D01*
X149535771Y-60395237D02*
X149583390Y-60490475D01*
X149583390Y-60490475D02*
X149631009Y-60538094D01*
X149631009Y-60538094D02*
X149726247Y-60585713D01*
X206154819Y-55583333D02*
X206869104Y-55583333D01*
X206869104Y-55583333D02*
X207011961Y-55630952D01*
X207011961Y-55630952D02*
X207107200Y-55726190D01*
X207107200Y-55726190D02*
X207154819Y-55869047D01*
X207154819Y-55869047D02*
X207154819Y-55964285D01*
X206488152Y-54678571D02*
X207154819Y-54678571D01*
X206107200Y-54916666D02*
X206821485Y-55154761D01*
X206821485Y-55154761D02*
X206821485Y-54535714D01*
D13*
X193409800Y-79333332D02*
X193457419Y-79190475D01*
X193457419Y-79190475D02*
X193457419Y-78952380D01*
X193457419Y-78952380D02*
X193409800Y-78857142D01*
X193409800Y-78857142D02*
X193362180Y-78809523D01*
X193362180Y-78809523D02*
X193266942Y-78761904D01*
X193266942Y-78761904D02*
X193171704Y-78761904D01*
X193171704Y-78761904D02*
X193076466Y-78809523D01*
X193076466Y-78809523D02*
X193028847Y-78857142D01*
X193028847Y-78857142D02*
X192981228Y-78952380D01*
X192981228Y-78952380D02*
X192933609Y-79142856D01*
X192933609Y-79142856D02*
X192885990Y-79238094D01*
X192885990Y-79238094D02*
X192838371Y-79285713D01*
X192838371Y-79285713D02*
X192743133Y-79333332D01*
X192743133Y-79333332D02*
X192647895Y-79333332D01*
X192647895Y-79333332D02*
X192552657Y-79285713D01*
X192552657Y-79285713D02*
X192505038Y-79238094D01*
X192505038Y-79238094D02*
X192457419Y-79142856D01*
X192457419Y-79142856D02*
X192457419Y-78904761D01*
X192457419Y-78904761D02*
X192505038Y-78761904D01*
X192457419Y-78428570D02*
X193457419Y-78190475D01*
X193457419Y-78190475D02*
X192743133Y-77999999D01*
X192743133Y-77999999D02*
X193457419Y-77809523D01*
X193457419Y-77809523D02*
X192457419Y-77571428D01*
X192790752Y-76761904D02*
X193457419Y-76761904D01*
X192409800Y-76999999D02*
X193124085Y-77238094D01*
X193124085Y-77238094D02*
X193124085Y-76619047D01*
D11*
X187454819Y-78966666D02*
X186978628Y-79299999D01*
X187454819Y-79538094D02*
X186454819Y-79538094D01*
X186454819Y-79538094D02*
X186454819Y-79157142D01*
X186454819Y-79157142D02*
X186502438Y-79061904D01*
X186502438Y-79061904D02*
X186550057Y-79014285D01*
X186550057Y-79014285D02*
X186645295Y-78966666D01*
X186645295Y-78966666D02*
X186788152Y-78966666D01*
X186788152Y-78966666D02*
X186883390Y-79014285D01*
X186883390Y-79014285D02*
X186931009Y-79061904D01*
X186931009Y-79061904D02*
X186978628Y-79157142D01*
X186978628Y-79157142D02*
X186978628Y-79538094D01*
X187454819Y-78014285D02*
X187454819Y-78585713D01*
X187454819Y-78299999D02*
X186454819Y-78299999D01*
X186454819Y-78299999D02*
X186597676Y-78395237D01*
X186597676Y-78395237D02*
X186692914Y-78490475D01*
X186692914Y-78490475D02*
X186740533Y-78585713D01*
X192933333Y-59654819D02*
X192600000Y-59178628D01*
X192361905Y-59654819D02*
X192361905Y-58654819D01*
X192361905Y-58654819D02*
X192742857Y-58654819D01*
X192742857Y-58654819D02*
X192838095Y-58702438D01*
X192838095Y-58702438D02*
X192885714Y-58750057D01*
X192885714Y-58750057D02*
X192933333Y-58845295D01*
X192933333Y-58845295D02*
X192933333Y-58988152D01*
X192933333Y-58988152D02*
X192885714Y-59083390D01*
X192885714Y-59083390D02*
X192838095Y-59131009D01*
X192838095Y-59131009D02*
X192742857Y-59178628D01*
X192742857Y-59178628D02*
X192361905Y-59178628D01*
X193314286Y-58750057D02*
X193361905Y-58702438D01*
X193361905Y-58702438D02*
X193457143Y-58654819D01*
X193457143Y-58654819D02*
X193695238Y-58654819D01*
X193695238Y-58654819D02*
X193790476Y-58702438D01*
X193790476Y-58702438D02*
X193838095Y-58750057D01*
X193838095Y-58750057D02*
X193885714Y-58845295D01*
X193885714Y-58845295D02*
X193885714Y-58940533D01*
X193885714Y-58940533D02*
X193838095Y-59083390D01*
X193838095Y-59083390D02*
X193266667Y-59654819D01*
X193266667Y-59654819D02*
X193885714Y-59654819D01*
D10*
%TO.C,U2*%
X180925000Y-72330000D02*
X180925000Y-67930000D01*
X187825000Y-72330000D02*
X187825000Y-67930000D01*
D12*
X181550000Y-74320000D02*
G75*
G02*
X181350000Y-74320000I-100000J0D01*
G01*
X181350000Y-74320000D02*
G75*
G02*
X181550000Y-74320000I100000J0D01*
G01*
D13*
%TO.C,D1*%
X142850000Y-52135000D02*
G75*
G02*
X142750000Y-52135000I-50000J0D01*
G01*
X142750000Y-52135000D02*
G75*
G02*
X142850000Y-52135000I50000J0D01*
G01*
D11*
%TO.C,U1*%
X138721600Y-67190000D02*
X138721600Y-74810000D01*
X138721600Y-74810000D02*
X139991600Y-74810000D01*
X139991600Y-62110000D02*
X139991600Y-79890000D01*
X139991600Y-67190000D02*
X138721600Y-67190000D01*
X139991600Y-79890000D02*
X175551600Y-79890000D01*
X175551600Y-62110000D02*
X139991600Y-62110000D01*
X175551600Y-79890000D02*
X175551600Y-62110000D01*
D14*
%TO.C,C9*%
X194938747Y-61265000D02*
X195461253Y-61265000D01*
X194938747Y-62735000D02*
X195461253Y-62735000D01*
%TO.C,C8*%
X188625000Y-64815000D02*
X189250000Y-64815000D01*
X188937500Y-64502500D02*
X188937500Y-65127500D01*
X189490000Y-64804437D02*
X189490000Y-65440000D01*
X189490000Y-64804437D02*
X190554437Y-63740000D01*
X189490000Y-68195563D02*
X189490000Y-67560000D01*
X189490000Y-68195563D02*
X190554437Y-69260000D01*
X190554437Y-63740000D02*
X195010000Y-63740000D01*
X190554437Y-69260000D02*
X195010000Y-69260000D01*
X195010000Y-63740000D02*
X195010000Y-65440000D01*
X195010000Y-69260000D02*
X195010000Y-67560000D01*
%TO.C,J2*%
X155789999Y-52840000D02*
X159274999Y-52840000D01*
X155789999Y-58560000D02*
X155789999Y-52840000D01*
X156859999Y-58260000D02*
X156859999Y-58560000D01*
X156859999Y-58560000D02*
X155789999Y-58560000D01*
X159274999Y-58260000D02*
X156859999Y-58260000D01*
X159274999Y-58260000D02*
X161689999Y-58260000D01*
X161399999Y-58550000D02*
X161399999Y-58850000D01*
X161399999Y-58850000D02*
X161899999Y-58850000D01*
X161689999Y-58260000D02*
X161689999Y-58560000D01*
X161689999Y-58560000D02*
X162759999Y-58560000D01*
X162759999Y-52840000D02*
X159274999Y-52840000D01*
X162759999Y-58560000D02*
X162759999Y-52840000D01*
%TO.C,C5*%
X181515000Y-76151247D02*
X181515000Y-76673753D01*
X182985000Y-76151247D02*
X182985000Y-76673753D01*
%TO.C,R3*%
X190272936Y-61265000D02*
X190727064Y-61265000D01*
X190272936Y-62735000D02*
X190727064Y-62735000D01*
%TO.C,U5*%
X190000000Y-53439999D02*
X189200000Y-53440000D01*
X190000000Y-53439999D02*
X190800000Y-53440000D01*
X190000000Y-56560001D02*
X189200000Y-56560000D01*
X190000000Y-56560001D02*
X190800000Y-56560000D01*
X191540000Y-56840000D02*
X191060000Y-56840000D01*
X191300000Y-56510000D01*
X191540000Y-56840000D01*
G36*
X191540000Y-56840000D02*
G01*
X191060000Y-56840000D01*
X191300000Y-56510000D01*
X191540000Y-56840000D01*
G37*
D13*
%TO.C,SW1*%
X198950000Y-70350000D02*
X198950000Y-71250000D01*
X198950000Y-70350000D02*
X208850000Y-70350000D01*
X198950000Y-80150000D02*
X198950000Y-79250000D01*
X208850000Y-70350000D02*
X208850000Y-72750000D01*
X208850000Y-77750000D02*
X208850000Y-80150000D01*
X208850000Y-80150000D02*
X198950000Y-80150000D01*
X208850000Y-77750000D02*
X211350000Y-77750000D01*
X211350000Y-72750000D01*
X208850000Y-72750000D01*
X208850000Y-77750000D01*
D14*
%TO.C,R7*%
X143265000Y-59772936D02*
X143265000Y-60227064D01*
X144735000Y-59772936D02*
X144735000Y-60227064D01*
%TO.C,J3*%
X199617500Y-61200000D02*
X199617500Y-61800000D01*
X199617500Y-61800000D02*
X200217500Y-61500000D01*
X200107500Y-58890000D02*
X208527500Y-58890000D01*
X200107500Y-67890000D02*
X202307500Y-67890000D01*
X200107500Y-69110001D02*
X200107500Y-67890000D01*
X200107501Y-60110000D02*
X200107500Y-58890000D01*
X200217500Y-61500000D02*
X199617500Y-61200000D01*
X202307500Y-60110001D02*
X200107501Y-60110000D01*
X202307500Y-60110001D02*
X202307500Y-58890000D01*
X202307500Y-62670000D02*
X202307500Y-62830000D01*
X202307500Y-65170000D02*
X202307500Y-65330000D01*
X202307500Y-67890000D02*
X202307500Y-69110001D01*
X203307500Y-60110000D02*
X203307500Y-67890000D01*
X203307500Y-61180000D02*
X206727500Y-61180000D01*
X203307500Y-61500000D02*
X203307500Y-61180000D01*
X203307500Y-61820000D02*
X203307500Y-61500000D01*
X203307500Y-63680000D02*
X206727500Y-63680000D01*
X203307500Y-64000000D02*
X203307500Y-63680000D01*
X203307500Y-64320000D02*
X203307500Y-64000000D01*
X203307500Y-66180000D02*
X206727500Y-66180000D01*
X203307500Y-66500000D02*
X203307500Y-66180000D01*
X203307500Y-66820000D02*
X203307500Y-66500000D01*
X206727500Y-61180000D02*
X206807501Y-61500000D01*
X206727500Y-61820000D02*
X203307500Y-61820000D01*
X206727500Y-63680000D02*
X206807500Y-63999999D01*
X206727500Y-64320000D02*
X203307500Y-64320000D01*
X206727500Y-66180000D02*
X206807500Y-66499999D01*
X206727500Y-66820000D02*
X203307500Y-66820000D01*
X206807500Y-63999999D02*
X206727500Y-64320000D01*
X206807500Y-66499999D02*
X206727500Y-66820000D01*
X206807501Y-61500000D02*
X206727500Y-61820000D01*
X207307499Y-60110000D02*
X202307500Y-60110001D01*
X207307500Y-58890000D02*
X207307499Y-60110000D01*
X207307500Y-67890000D02*
X202307500Y-67890000D01*
X207307500Y-69110001D02*
X207307500Y-67890000D01*
X208527500Y-58890000D02*
X208527500Y-69110000D01*
X208527500Y-69110000D02*
X200107500Y-69110001D01*
%TO.C,C2*%
X199965000Y-55551247D02*
X199965000Y-56073753D01*
X201435000Y-55551247D02*
X201435000Y-56073753D01*
%TO.C,C3*%
X181265000Y-58723753D02*
X181265000Y-58201247D01*
X182735000Y-58723753D02*
X182735000Y-58201247D01*
D13*
%TO.C,D2*%
X141850000Y-52135000D02*
G75*
G02*
X141750000Y-52135000I-50000J0D01*
G01*
X141750000Y-52135000D02*
G75*
G02*
X141850000Y-52135000I50000J0D01*
G01*
D14*
%TO.C,J5*%
X150040000Y-52840000D02*
X152275000Y-52840000D01*
X150040000Y-58560000D02*
X150040000Y-52840000D01*
X151110000Y-58260000D02*
X151110000Y-58560000D01*
X151110000Y-58560000D02*
X150040000Y-58560000D01*
X152275000Y-58260000D02*
X151110000Y-58260000D01*
X152275000Y-58260000D02*
X153440000Y-58260000D01*
X153150000Y-58550000D02*
X153150000Y-58850000D01*
X153150000Y-58850000D02*
X153650000Y-58850000D01*
X153440000Y-58260000D02*
X153440000Y-58560000D01*
X153440000Y-58560000D02*
X154510000Y-58560000D01*
X154510000Y-52840000D02*
X152275000Y-52840000D01*
X154510000Y-58560000D02*
X154510000Y-52840000D01*
%TO.C,J1*%
X163789999Y-52840000D02*
X167274999Y-52840000D01*
X163789999Y-58560000D02*
X163789999Y-52840000D01*
X164859999Y-58260000D02*
X164859999Y-58560000D01*
X164859999Y-58560000D02*
X163789999Y-58560000D01*
X167274999Y-58260000D02*
X164859999Y-58260000D01*
X167274999Y-58260000D02*
X169689999Y-58260000D01*
X169399999Y-58550000D02*
X169399999Y-58850000D01*
X169399999Y-58850000D02*
X169899999Y-58850000D01*
X169689999Y-58260000D02*
X169689999Y-58560000D01*
X169689999Y-58560000D02*
X170759999Y-58560000D01*
X170759999Y-52840000D02*
X167274999Y-52840000D01*
X170759999Y-58560000D02*
X170759999Y-52840000D01*
%TO.C,R4*%
X185372936Y-54665000D02*
X185827064Y-54665000D01*
X185372936Y-56135000D02*
X185827064Y-56135000D01*
%TO.C,C4*%
X181515000Y-63738747D02*
X181515000Y-64261253D01*
X182985000Y-63738747D02*
X182985000Y-64261253D01*
%TO.C,R5*%
X147265000Y-59772936D02*
X147265000Y-60227064D01*
X148735000Y-59772936D02*
X148735000Y-60227064D01*
%TO.C,U3*%
X184890000Y-60000000D02*
X184890000Y-58500000D01*
X184890000Y-60000000D02*
X184890000Y-61500000D01*
X188110000Y-60000000D02*
X188110000Y-58500000D01*
X188110000Y-60000000D02*
X188110000Y-61500000D01*
X185090000Y-62212500D02*
X184760000Y-62452500D01*
X184760000Y-61972500D01*
X185090000Y-62212500D01*
G36*
X185090000Y-62212500D02*
G01*
X184760000Y-62452500D01*
X184760000Y-61972500D01*
X185090000Y-62212500D01*
G37*
%TO.C,C7*%
X140765000Y-60261253D02*
X140765000Y-59738747D01*
X142235000Y-60261253D02*
X142235000Y-59738747D01*
%TO.C,R6*%
X145265000Y-59772936D02*
X145265000Y-60227064D01*
X146735000Y-59772936D02*
X146735000Y-60227064D01*
%TO.C,J4*%
X202450000Y-56750000D02*
X202450000Y-57250000D01*
X202740000Y-52390000D02*
X208460000Y-52390000D01*
X202740000Y-57040000D02*
X202740000Y-58110000D01*
X202740000Y-58110000D02*
X208460000Y-58110000D01*
X202740001Y-53460000D02*
X202740000Y-52390000D01*
X202750000Y-56750000D02*
X202450000Y-56750000D01*
X203040000Y-53460000D02*
X202740001Y-53460000D01*
X203040000Y-55250000D02*
X203040000Y-53460000D01*
X203040000Y-55250000D02*
X203040000Y-57040000D01*
X203040000Y-57040000D02*
X202740000Y-57040000D01*
X208460000Y-52390000D02*
X208459999Y-55250000D01*
X208460000Y-58110000D02*
X208459999Y-55250000D01*
D13*
%TO.C,SW4*%
X189300000Y-76600000D02*
X189300000Y-80300000D01*
X189300000Y-80300000D02*
X196700000Y-80300000D01*
X191500000Y-81700000D02*
X191500000Y-80300000D01*
X194500000Y-80300000D02*
X194500000Y-81700000D01*
X194500000Y-81700000D02*
X191500000Y-81700000D01*
X196700000Y-74400000D02*
X189300000Y-74400000D01*
X196700000Y-80300000D02*
X196700000Y-76600000D01*
%TO.C,D3*%
X140850000Y-52135000D02*
G75*
G02*
X140750000Y-52135000I-50000J0D01*
G01*
X140750000Y-52135000D02*
G75*
G02*
X140850000Y-52135000I50000J0D01*
G01*
D14*
%TO.C,R1*%
X186265001Y-76639564D02*
X186265001Y-76185436D01*
X187735001Y-76639564D02*
X187735001Y-76185436D01*
%TO.C,R2*%
X190272936Y-59265000D02*
X190727064Y-59265000D01*
X190272936Y-60735000D02*
X190727064Y-60735000D01*
%TD*%
%LPC*%
%TO.C,U2*%
G36*
G01*
X181660900Y-73861200D02*
X181239100Y-73861200D01*
G75*
G02*
X181168800Y-73790900I0J70300D01*
G01*
X181168800Y-72209100D01*
G75*
G02*
X181239100Y-72138800I70300J0D01*
G01*
X181660900Y-72138800D01*
G75*
G02*
X181731200Y-72209100I0J-70300D01*
G01*
X181731200Y-73790900D01*
G75*
G02*
X181660900Y-73861200I-70300J0D01*
G01*
G37*
G36*
G01*
X182310900Y-73861200D02*
X181889100Y-73861200D01*
G75*
G02*
X181818800Y-73790900I0J70300D01*
G01*
X181818800Y-72209100D01*
G75*
G02*
X181889100Y-72138800I70300J0D01*
G01*
X182310900Y-72138800D01*
G75*
G02*
X182381200Y-72209100I0J-70300D01*
G01*
X182381200Y-73790900D01*
G75*
G02*
X182310900Y-73861200I-70300J0D01*
G01*
G37*
G36*
G01*
X182960900Y-73861200D02*
X182539100Y-73861200D01*
G75*
G02*
X182468800Y-73790900I0J70300D01*
G01*
X182468800Y-72209100D01*
G75*
G02*
X182539100Y-72138800I70300J0D01*
G01*
X182960900Y-72138800D01*
G75*
G02*
X183031200Y-72209100I0J-70300D01*
G01*
X183031200Y-73790900D01*
G75*
G02*
X182960900Y-73861200I-70300J0D01*
G01*
G37*
G36*
G01*
X183610900Y-73861200D02*
X183189100Y-73861200D01*
G75*
G02*
X183118800Y-73790900I0J70300D01*
G01*
X183118800Y-72209100D01*
G75*
G02*
X183189100Y-72138800I70300J0D01*
G01*
X183610900Y-72138800D01*
G75*
G02*
X183681200Y-72209100I0J-70300D01*
G01*
X183681200Y-73790900D01*
G75*
G02*
X183610900Y-73861200I-70300J0D01*
G01*
G37*
G36*
G01*
X184260900Y-73861200D02*
X183839100Y-73861200D01*
G75*
G02*
X183768800Y-73790900I0J70300D01*
G01*
X183768800Y-72209100D01*
G75*
G02*
X183839100Y-72138800I70300J0D01*
G01*
X184260900Y-72138800D01*
G75*
G02*
X184331200Y-72209100I0J-70300D01*
G01*
X184331200Y-73790900D01*
G75*
G02*
X184260900Y-73861200I-70300J0D01*
G01*
G37*
G36*
G01*
X184910900Y-73861200D02*
X184489100Y-73861200D01*
G75*
G02*
X184418800Y-73790900I0J70300D01*
G01*
X184418800Y-72209100D01*
G75*
G02*
X184489100Y-72138800I70300J0D01*
G01*
X184910900Y-72138800D01*
G75*
G02*
X184981200Y-72209100I0J-70300D01*
G01*
X184981200Y-73790900D01*
G75*
G02*
X184910900Y-73861200I-70300J0D01*
G01*
G37*
G36*
G01*
X185560900Y-73861200D02*
X185139100Y-73861200D01*
G75*
G02*
X185068800Y-73790900I0J70300D01*
G01*
X185068800Y-72209100D01*
G75*
G02*
X185139100Y-72138800I70300J0D01*
G01*
X185560900Y-72138800D01*
G75*
G02*
X185631200Y-72209100I0J-70300D01*
G01*
X185631200Y-73790900D01*
G75*
G02*
X185560900Y-73861200I-70300J0D01*
G01*
G37*
G36*
G01*
X186210900Y-73861200D02*
X185789100Y-73861200D01*
G75*
G02*
X185718800Y-73790900I0J70300D01*
G01*
X185718800Y-72209100D01*
G75*
G02*
X185789100Y-72138800I70300J0D01*
G01*
X186210900Y-72138800D01*
G75*
G02*
X186281200Y-72209100I0J-70300D01*
G01*
X186281200Y-73790900D01*
G75*
G02*
X186210900Y-73861200I-70300J0D01*
G01*
G37*
G36*
G01*
X186860900Y-73861200D02*
X186439100Y-73861200D01*
G75*
G02*
X186368800Y-73790900I0J70300D01*
G01*
X186368800Y-72209100D01*
G75*
G02*
X186439100Y-72138800I70300J0D01*
G01*
X186860900Y-72138800D01*
G75*
G02*
X186931200Y-72209100I0J-70300D01*
G01*
X186931200Y-73790900D01*
G75*
G02*
X186860900Y-73861200I-70300J0D01*
G01*
G37*
G36*
G01*
X187510900Y-73861200D02*
X187089100Y-73861200D01*
G75*
G02*
X187018800Y-73790900I0J70300D01*
G01*
X187018800Y-72209100D01*
G75*
G02*
X187089100Y-72138800I70300J0D01*
G01*
X187510900Y-72138800D01*
G75*
G02*
X187581200Y-72209100I0J-70300D01*
G01*
X187581200Y-73790900D01*
G75*
G02*
X187510900Y-73861200I-70300J0D01*
G01*
G37*
G36*
G01*
X187510900Y-68121200D02*
X187089100Y-68121200D01*
G75*
G02*
X187018800Y-68050900I0J70300D01*
G01*
X187018800Y-66469100D01*
G75*
G02*
X187089100Y-66398800I70300J0D01*
G01*
X187510900Y-66398800D01*
G75*
G02*
X187581200Y-66469100I0J-70300D01*
G01*
X187581200Y-68050900D01*
G75*
G02*
X187510900Y-68121200I-70300J0D01*
G01*
G37*
G36*
G01*
X186860900Y-68121200D02*
X186439100Y-68121200D01*
G75*
G02*
X186368800Y-68050900I0J70300D01*
G01*
X186368800Y-66469100D01*
G75*
G02*
X186439100Y-66398800I70300J0D01*
G01*
X186860900Y-66398800D01*
G75*
G02*
X186931200Y-66469100I0J-70300D01*
G01*
X186931200Y-68050900D01*
G75*
G02*
X186860900Y-68121200I-70300J0D01*
G01*
G37*
G36*
G01*
X186210900Y-68121200D02*
X185789100Y-68121200D01*
G75*
G02*
X185718800Y-68050900I0J70300D01*
G01*
X185718800Y-66469100D01*
G75*
G02*
X185789100Y-66398800I70300J0D01*
G01*
X186210900Y-66398800D01*
G75*
G02*
X186281200Y-66469100I0J-70300D01*
G01*
X186281200Y-68050900D01*
G75*
G02*
X186210900Y-68121200I-70300J0D01*
G01*
G37*
G36*
G01*
X185560900Y-68121200D02*
X185139100Y-68121200D01*
G75*
G02*
X185068800Y-68050900I0J70300D01*
G01*
X185068800Y-66469100D01*
G75*
G02*
X185139100Y-66398800I70300J0D01*
G01*
X185560900Y-66398800D01*
G75*
G02*
X185631200Y-66469100I0J-70300D01*
G01*
X185631200Y-68050900D01*
G75*
G02*
X185560900Y-68121200I-70300J0D01*
G01*
G37*
G36*
G01*
X184910900Y-68121200D02*
X184489100Y-68121200D01*
G75*
G02*
X184418800Y-68050900I0J70300D01*
G01*
X184418800Y-66469100D01*
G75*
G02*
X184489100Y-66398800I70300J0D01*
G01*
X184910900Y-66398800D01*
G75*
G02*
X184981200Y-66469100I0J-70300D01*
G01*
X184981200Y-68050900D01*
G75*
G02*
X184910900Y-68121200I-70300J0D01*
G01*
G37*
G36*
G01*
X184260900Y-68121200D02*
X183839100Y-68121200D01*
G75*
G02*
X183768800Y-68050900I0J70300D01*
G01*
X183768800Y-66469100D01*
G75*
G02*
X183839100Y-66398800I70300J0D01*
G01*
X184260900Y-66398800D01*
G75*
G02*
X184331200Y-66469100I0J-70300D01*
G01*
X184331200Y-68050900D01*
G75*
G02*
X184260900Y-68121200I-70300J0D01*
G01*
G37*
G36*
G01*
X183610900Y-68121200D02*
X183189100Y-68121200D01*
G75*
G02*
X183118800Y-68050900I0J70300D01*
G01*
X183118800Y-66469100D01*
G75*
G02*
X183189100Y-66398800I70300J0D01*
G01*
X183610900Y-66398800D01*
G75*
G02*
X183681200Y-66469100I0J-70300D01*
G01*
X183681200Y-68050900D01*
G75*
G02*
X183610900Y-68121200I-70300J0D01*
G01*
G37*
G36*
G01*
X182960900Y-68121200D02*
X182539100Y-68121200D01*
G75*
G02*
X182468800Y-68050900I0J70300D01*
G01*
X182468800Y-66469100D01*
G75*
G02*
X182539100Y-66398800I70300J0D01*
G01*
X182960900Y-66398800D01*
G75*
G02*
X183031200Y-66469100I0J-70300D01*
G01*
X183031200Y-68050900D01*
G75*
G02*
X182960900Y-68121200I-70300J0D01*
G01*
G37*
G36*
G01*
X182310900Y-68121200D02*
X181889100Y-68121200D01*
G75*
G02*
X181818800Y-68050900I0J70300D01*
G01*
X181818800Y-66469100D01*
G75*
G02*
X181889100Y-66398800I70300J0D01*
G01*
X182310900Y-66398800D01*
G75*
G02*
X182381200Y-66469100I0J-70300D01*
G01*
X182381200Y-68050900D01*
G75*
G02*
X182310900Y-68121200I-70300J0D01*
G01*
G37*
G36*
G01*
X181660900Y-68121200D02*
X181239100Y-68121200D01*
G75*
G02*
X181168800Y-68050900I0J70300D01*
G01*
X181168800Y-66469100D01*
G75*
G02*
X181239100Y-66398800I70300J0D01*
G01*
X181660900Y-66398800D01*
G75*
G02*
X181731200Y-66469100I0J-70300D01*
G01*
X181731200Y-68050900D01*
G75*
G02*
X181660900Y-68121200I-70300J0D01*
G01*
G37*
%TD*%
%TO.C,D1*%
G36*
G01*
X142640000Y-52444999D02*
X142960000Y-52444999D01*
G75*
G02*
X143120000Y-52604999I0J-160000D01*
G01*
X143120000Y-53049999D01*
G75*
G02*
X142960000Y-53209999I-160000J0D01*
G01*
X142640000Y-53209999D01*
G75*
G02*
X142480000Y-53049999I0J160000D01*
G01*
X142480000Y-52604999D01*
G75*
G02*
X142640000Y-52444999I160000J0D01*
G01*
G37*
G36*
G01*
X142640000Y-53590001D02*
X142960000Y-53590001D01*
G75*
G02*
X143120000Y-53750001I0J-160000D01*
G01*
X143120000Y-54195001D01*
G75*
G02*
X142960000Y-54355001I-160000J0D01*
G01*
X142640000Y-54355001D01*
G75*
G02*
X142480000Y-54195001I0J160000D01*
G01*
X142480000Y-53750001D01*
G75*
G02*
X142640000Y-53590001I160000J0D01*
G01*
G37*
%TD*%
D15*
%TO.C,U1*%
X141261600Y-78620000D03*
X143801600Y-78620000D03*
X146341600Y-78620000D03*
X148881600Y-78620000D03*
X151421600Y-78620000D03*
X153961600Y-78620000D03*
X156501600Y-78620000D03*
X159041600Y-78620000D03*
X161581600Y-78620000D03*
X164121600Y-78620000D03*
X166661600Y-78620000D03*
X169201600Y-78620000D03*
X171741600Y-78620000D03*
X174281600Y-78620000D03*
X174281601Y-76080000D03*
X174281600Y-73540000D03*
X174281600Y-71000000D03*
X174281600Y-68460000D03*
X174281601Y-65920000D03*
X174281600Y-63380000D03*
X171741600Y-63380000D03*
X169201600Y-63380000D03*
X166661600Y-63380000D03*
X164121600Y-63380000D03*
X161581600Y-63380000D03*
X159041600Y-63380000D03*
X156501600Y-63380000D03*
X153961600Y-63380000D03*
X151421600Y-63380000D03*
X148881600Y-63380000D03*
X146341600Y-63380000D03*
X143801600Y-63380000D03*
X141261600Y-63380000D03*
G36*
X169432802Y-65310369D02*
G01*
X169531176Y-65362000D01*
X171233600Y-65362000D01*
X171268955Y-65376645D01*
X171283600Y-65412000D01*
X171283600Y-66428000D01*
X171268955Y-66463355D01*
X171233600Y-66478000D01*
X169531176Y-66478000D01*
X169432802Y-66529631D01*
X169280190Y-66567246D01*
X169123010Y-66567246D01*
X168970398Y-66529631D01*
X168872024Y-66478000D01*
X168693600Y-66478000D01*
X168658245Y-66463355D01*
X168643600Y-66428000D01*
X168643600Y-66250985D01*
X168624283Y-66223000D01*
X168568546Y-66076034D01*
X168549600Y-65920000D01*
X168568546Y-65763966D01*
X168624283Y-65617000D01*
X168643600Y-65589015D01*
X168643600Y-65412000D01*
X168658245Y-65376645D01*
X168693600Y-65362000D01*
X168872024Y-65362000D01*
X168970398Y-65310369D01*
X169123010Y-65272754D01*
X169280190Y-65272754D01*
X169432802Y-65310369D01*
G37*
G36*
X166892802Y-65310369D02*
G01*
X166991176Y-65362000D01*
X167169600Y-65362000D01*
X167204955Y-65376645D01*
X167219600Y-65412000D01*
X167219600Y-65589015D01*
X167238917Y-65617000D01*
X167294654Y-65763966D01*
X167313600Y-65920000D01*
X167294654Y-66076034D01*
X167238917Y-66223000D01*
X167219600Y-66250985D01*
X167219600Y-66428000D01*
X167204955Y-66463355D01*
X167169600Y-66478000D01*
X166991176Y-66478000D01*
X166892802Y-66529631D01*
X166740190Y-66567246D01*
X166583010Y-66567246D01*
X166430398Y-66529631D01*
X166332024Y-66478000D01*
X164629600Y-66478000D01*
X164594245Y-66463355D01*
X164579600Y-66428000D01*
X164579600Y-65412000D01*
X164594245Y-65376645D01*
X164629600Y-65362000D01*
X166332024Y-65362000D01*
X166430398Y-65310369D01*
X166583010Y-65272754D01*
X166740190Y-65272754D01*
X166892802Y-65310369D01*
G37*
G36*
X169432802Y-67850369D02*
G01*
X169531176Y-67902000D01*
X171233600Y-67902000D01*
X171268955Y-67916645D01*
X171283600Y-67952000D01*
X171283601Y-68968000D01*
X171268956Y-69003355D01*
X171233601Y-69018000D01*
X169531176Y-69018000D01*
X169432802Y-69069631D01*
X169280190Y-69107246D01*
X169123010Y-69107246D01*
X168970398Y-69069631D01*
X168872024Y-69018000D01*
X168693599Y-69018000D01*
X168658244Y-69003355D01*
X168643599Y-68968000D01*
X168643600Y-68790985D01*
X168624283Y-68763000D01*
X168568546Y-68616034D01*
X168549600Y-68460000D01*
X168568546Y-68303966D01*
X168624283Y-68157000D01*
X168643600Y-68129015D01*
X168643600Y-67952000D01*
X168658245Y-67916645D01*
X168693600Y-67902000D01*
X168872024Y-67902000D01*
X168970398Y-67850369D01*
X169123010Y-67812754D01*
X169280190Y-67812754D01*
X169432802Y-67850369D01*
G37*
G36*
X166892802Y-67850369D02*
G01*
X166991176Y-67902000D01*
X167169600Y-67902000D01*
X167204955Y-67916645D01*
X167219600Y-67952000D01*
X167219600Y-68129015D01*
X167238917Y-68157000D01*
X167294654Y-68303966D01*
X167313600Y-68460000D01*
X167294654Y-68616034D01*
X167238917Y-68763000D01*
X167219600Y-68790985D01*
X167219600Y-68968000D01*
X167204955Y-69003355D01*
X167169600Y-69018000D01*
X166991176Y-69018000D01*
X166892802Y-69069631D01*
X166740190Y-69107246D01*
X166583010Y-69107246D01*
X166430398Y-69069631D01*
X166332024Y-69018000D01*
X164629599Y-69018000D01*
X164594244Y-69003355D01*
X164579599Y-68968000D01*
X164579600Y-67952000D01*
X164594245Y-67916645D01*
X164629600Y-67902000D01*
X166332024Y-67902000D01*
X166430398Y-67850369D01*
X166583010Y-67812754D01*
X166740190Y-67812754D01*
X166892802Y-67850369D01*
G37*
G36*
X169432803Y-70390369D02*
G01*
X169531177Y-70442000D01*
X171233600Y-70442000D01*
X171268955Y-70456645D01*
X171283600Y-70492000D01*
X171283600Y-71508000D01*
X171268955Y-71543355D01*
X171233600Y-71558000D01*
X169531177Y-71558000D01*
X169432803Y-71609631D01*
X169280191Y-71647246D01*
X169123011Y-71647246D01*
X168970399Y-71609631D01*
X168872025Y-71558000D01*
X168693600Y-71558000D01*
X168658245Y-71543355D01*
X168643600Y-71508000D01*
X168643600Y-71330984D01*
X168624284Y-71303000D01*
X168568547Y-71156034D01*
X168549601Y-71000000D01*
X168568547Y-70843966D01*
X168624284Y-70697000D01*
X168643600Y-70669016D01*
X168643600Y-70492000D01*
X168658245Y-70456645D01*
X168693600Y-70442000D01*
X168872025Y-70442000D01*
X168970399Y-70390369D01*
X169123011Y-70352754D01*
X169280191Y-70352754D01*
X169432803Y-70390369D01*
G37*
G36*
X166892801Y-70390369D02*
G01*
X166991175Y-70442000D01*
X167169600Y-70442000D01*
X167204955Y-70456645D01*
X167219600Y-70492000D01*
X167219600Y-70669016D01*
X167238916Y-70697000D01*
X167294653Y-70843966D01*
X167313599Y-71000000D01*
X167294653Y-71156034D01*
X167238916Y-71303000D01*
X167219600Y-71330984D01*
X167219600Y-71508000D01*
X167204955Y-71543355D01*
X167169600Y-71558000D01*
X166991175Y-71558000D01*
X166892801Y-71609631D01*
X166740189Y-71647246D01*
X166583009Y-71647246D01*
X166430397Y-71609631D01*
X166332023Y-71558000D01*
X164629600Y-71558000D01*
X164594245Y-71543355D01*
X164579600Y-71508000D01*
X164579600Y-70492000D01*
X164594245Y-70456645D01*
X164629600Y-70442000D01*
X166332023Y-70442000D01*
X166430397Y-70390369D01*
X166583009Y-70352754D01*
X166740189Y-70352754D01*
X166892801Y-70390369D01*
G37*
G36*
X169432802Y-72930369D02*
G01*
X169531176Y-72982000D01*
X171233601Y-72982000D01*
X171268956Y-72996645D01*
X171283601Y-73032000D01*
X171283600Y-74048000D01*
X171268955Y-74083355D01*
X171233600Y-74098000D01*
X169531176Y-74098000D01*
X169432802Y-74149631D01*
X169280190Y-74187246D01*
X169123010Y-74187246D01*
X168970398Y-74149631D01*
X168872024Y-74098000D01*
X168693600Y-74098000D01*
X168658245Y-74083355D01*
X168643600Y-74048000D01*
X168643600Y-73870985D01*
X168624283Y-73843000D01*
X168568546Y-73696034D01*
X168549600Y-73540000D01*
X168568546Y-73383966D01*
X168624283Y-73237000D01*
X168643600Y-73209015D01*
X168643599Y-73032000D01*
X168658244Y-72996645D01*
X168693599Y-72982000D01*
X168872024Y-72982000D01*
X168970398Y-72930369D01*
X169123010Y-72892754D01*
X169280190Y-72892754D01*
X169432802Y-72930369D01*
G37*
G36*
X166892802Y-72930369D02*
G01*
X166991176Y-72982000D01*
X167169600Y-72982000D01*
X167204955Y-72996645D01*
X167219600Y-73032000D01*
X167219600Y-73209015D01*
X167238917Y-73237000D01*
X167294654Y-73383966D01*
X167313600Y-73540000D01*
X167294654Y-73696034D01*
X167238917Y-73843000D01*
X167219600Y-73870985D01*
X167219600Y-74048000D01*
X167204955Y-74083355D01*
X167169600Y-74098000D01*
X166991176Y-74098000D01*
X166892802Y-74149631D01*
X166740190Y-74187246D01*
X166583010Y-74187246D01*
X166430398Y-74149631D01*
X166332024Y-74098000D01*
X164629600Y-74098000D01*
X164594245Y-74083355D01*
X164579600Y-74048000D01*
X164579599Y-73032000D01*
X164594244Y-72996645D01*
X164629599Y-72982000D01*
X166332024Y-72982000D01*
X166430398Y-72930369D01*
X166583010Y-72892754D01*
X166740190Y-72892754D01*
X166892802Y-72930369D01*
G37*
G36*
X169432802Y-75470369D02*
G01*
X169531176Y-75522000D01*
X171233600Y-75522000D01*
X171268955Y-75536645D01*
X171283600Y-75572000D01*
X171283600Y-76588000D01*
X171268955Y-76623355D01*
X171233600Y-76638000D01*
X169531176Y-76638000D01*
X169432802Y-76689631D01*
X169280190Y-76727246D01*
X169123010Y-76727246D01*
X168970398Y-76689631D01*
X168872024Y-76638000D01*
X168693600Y-76638000D01*
X168658245Y-76623355D01*
X168643600Y-76588000D01*
X168643600Y-76410985D01*
X168624283Y-76383000D01*
X168568546Y-76236034D01*
X168549600Y-76080000D01*
X168568546Y-75923966D01*
X168624283Y-75777000D01*
X168643600Y-75749015D01*
X168643600Y-75572000D01*
X168658245Y-75536645D01*
X168693600Y-75522000D01*
X168872024Y-75522000D01*
X168970398Y-75470369D01*
X169123010Y-75432754D01*
X169280190Y-75432754D01*
X169432802Y-75470369D01*
G37*
G36*
X166892802Y-75470369D02*
G01*
X166991176Y-75522000D01*
X167169600Y-75522000D01*
X167204955Y-75536645D01*
X167219600Y-75572000D01*
X167219600Y-75749015D01*
X167238917Y-75777000D01*
X167294654Y-75923966D01*
X167313600Y-76080000D01*
X167294654Y-76236034D01*
X167238917Y-76383000D01*
X167219600Y-76410985D01*
X167219600Y-76588000D01*
X167204955Y-76623355D01*
X167169600Y-76638000D01*
X166991176Y-76638000D01*
X166892802Y-76689631D01*
X166740190Y-76727246D01*
X166583010Y-76727246D01*
X166430398Y-76689631D01*
X166332024Y-76638000D01*
X164629600Y-76638000D01*
X164594245Y-76623355D01*
X164579600Y-76588000D01*
X164579600Y-75572000D01*
X164594245Y-75536645D01*
X164629600Y-75522000D01*
X166332024Y-75522000D01*
X166430398Y-75470369D01*
X166583010Y-75432754D01*
X166740190Y-75432754D01*
X166892802Y-75470369D01*
G37*
%TD*%
%TO.C,C9*%
G36*
G01*
X193575000Y-62475000D02*
X193575000Y-61525000D01*
G75*
G02*
X193825000Y-61275000I250000J0D01*
G01*
X194500000Y-61275000D01*
G75*
G02*
X194750000Y-61525000I0J-250000D01*
G01*
X194750000Y-62475000D01*
G75*
G02*
X194500000Y-62725000I-250000J0D01*
G01*
X193825000Y-62725000D01*
G75*
G02*
X193575000Y-62475000I0J250000D01*
G01*
G37*
G36*
G01*
X195650000Y-62475000D02*
X195650000Y-61525000D01*
G75*
G02*
X195900000Y-61275000I250000J0D01*
G01*
X196575000Y-61275000D01*
G75*
G02*
X196825000Y-61525000I0J-250000D01*
G01*
X196825000Y-62475000D01*
G75*
G02*
X196575000Y-62725000I-250000J0D01*
G01*
X195900000Y-62725000D01*
G75*
G02*
X195650000Y-62475000I0J250000D01*
G01*
G37*
%TD*%
D16*
%TO.C,*%
X178750000Y-77000000D03*
%TD*%
%TO.C,C8*%
G36*
G01*
X188550000Y-67050000D02*
X188550000Y-65950000D01*
G75*
G02*
X188800000Y-65700000I250000J0D01*
G01*
X191300000Y-65700000D01*
G75*
G02*
X191550000Y-65950000I0J-250000D01*
G01*
X191550000Y-67050000D01*
G75*
G02*
X191300000Y-67300000I-250000J0D01*
G01*
X188800000Y-67300000D01*
G75*
G02*
X188550000Y-67050000I0J250000D01*
G01*
G37*
G36*
G01*
X192950000Y-67050000D02*
X192950000Y-65950000D01*
G75*
G02*
X193200000Y-65700000I250000J0D01*
G01*
X195700000Y-65700000D01*
G75*
G02*
X195950000Y-65950000I0J-250000D01*
G01*
X195950000Y-67050000D01*
G75*
G02*
X195700000Y-67300000I-250000J0D01*
G01*
X193200000Y-67300000D01*
G75*
G02*
X192950000Y-67050000I0J250000D01*
G01*
G37*
%TD*%
D17*
%TO.C,J2*%
X161149999Y-57400000D03*
X159900000Y-57400000D03*
G36*
G01*
X159049999Y-56950000D02*
X159049999Y-57850000D01*
G75*
G02*
X158849999Y-58050000I-200000J0D01*
G01*
X158449999Y-58050000D01*
G75*
G02*
X158249999Y-57850000I0J200000D01*
G01*
X158249999Y-56950000D01*
G75*
G02*
X158449999Y-56750000I200000J0D01*
G01*
X158849999Y-56750000D01*
G75*
G02*
X159049999Y-56950000I0J-200000D01*
G01*
G37*
X157400000Y-57400000D03*
%TD*%
%TO.C,C5*%
G36*
G01*
X181775000Y-74787500D02*
X182725000Y-74787500D01*
G75*
G02*
X182975000Y-75037500I0J-250000D01*
G01*
X182975000Y-75712500D01*
G75*
G02*
X182725000Y-75962500I-250000J0D01*
G01*
X181775000Y-75962500D01*
G75*
G02*
X181525000Y-75712500I0J250000D01*
G01*
X181525000Y-75037500D01*
G75*
G02*
X181775000Y-74787500I250000J0D01*
G01*
G37*
G36*
G01*
X181775000Y-76862500D02*
X182725000Y-76862500D01*
G75*
G02*
X182975000Y-77112500I0J-250000D01*
G01*
X182975000Y-77787500D01*
G75*
G02*
X182725000Y-78037500I-250000J0D01*
G01*
X181775000Y-78037500D01*
G75*
G02*
X181525000Y-77787500I0J250000D01*
G01*
X181525000Y-77112500D01*
G75*
G02*
X181775000Y-76862500I250000J0D01*
G01*
G37*
%TD*%
%TO.C,R3*%
G36*
G01*
X189075000Y-62450000D02*
X189075000Y-61550000D01*
G75*
G02*
X189325000Y-61300000I250000J0D01*
G01*
X189850000Y-61300000D01*
G75*
G02*
X190100000Y-61550000I0J-250000D01*
G01*
X190100000Y-62450000D01*
G75*
G02*
X189850000Y-62700000I-250000J0D01*
G01*
X189325000Y-62700000D01*
G75*
G02*
X189075000Y-62450000I0J250000D01*
G01*
G37*
G36*
G01*
X190900000Y-62450000D02*
X190900000Y-61550000D01*
G75*
G02*
X191150000Y-61300000I250000J0D01*
G01*
X191675000Y-61300000D01*
G75*
G02*
X191925000Y-61550000I0J-250000D01*
G01*
X191925000Y-62450000D01*
G75*
G02*
X191675000Y-62700000I-250000J0D01*
G01*
X191150000Y-62700000D01*
G75*
G02*
X190900000Y-62450000I0J250000D01*
G01*
G37*
%TD*%
%TO.C,U5*%
G36*
G01*
X191800000Y-55799999D02*
X191800000Y-56099999D01*
G75*
G02*
X191650000Y-56249999I-150000J0D01*
G01*
X190625000Y-56249999D01*
G75*
G02*
X190475000Y-56099999I0J150000D01*
G01*
X190475000Y-55799999D01*
G75*
G02*
X190625000Y-55649999I150000J0D01*
G01*
X191650000Y-55649999D01*
G75*
G02*
X191800000Y-55799999I0J-150000D01*
G01*
G37*
G36*
G01*
X191800000Y-54850000D02*
X191800000Y-55150000D01*
G75*
G02*
X191650000Y-55300000I-150000J0D01*
G01*
X190625000Y-55300000D01*
G75*
G02*
X190475000Y-55150000I0J150000D01*
G01*
X190475000Y-54850000D01*
G75*
G02*
X190625000Y-54700000I150000J0D01*
G01*
X191650000Y-54700000D01*
G75*
G02*
X191800000Y-54850000I0J-150000D01*
G01*
G37*
G36*
G01*
X191800000Y-53900001D02*
X191800000Y-54200001D01*
G75*
G02*
X191650000Y-54350001I-150000J0D01*
G01*
X190625000Y-54350001D01*
G75*
G02*
X190475000Y-54200001I0J150000D01*
G01*
X190475000Y-53900001D01*
G75*
G02*
X190625000Y-53750001I150000J0D01*
G01*
X191650000Y-53750001D01*
G75*
G02*
X191800000Y-53900001I0J-150000D01*
G01*
G37*
G36*
G01*
X189525000Y-53900001D02*
X189525000Y-54200001D01*
G75*
G02*
X189375000Y-54350001I-150000J0D01*
G01*
X188350000Y-54350001D01*
G75*
G02*
X188200000Y-54200001I0J150000D01*
G01*
X188200000Y-53900001D01*
G75*
G02*
X188350000Y-53750001I150000J0D01*
G01*
X189375000Y-53750001D01*
G75*
G02*
X189525000Y-53900001I0J-150000D01*
G01*
G37*
G36*
G01*
X189525000Y-55799999D02*
X189525000Y-56099999D01*
G75*
G02*
X189375000Y-56249999I-150000J0D01*
G01*
X188350000Y-56249999D01*
G75*
G02*
X188200000Y-56099999I0J150000D01*
G01*
X188200000Y-55799999D01*
G75*
G02*
X188350000Y-55649999I150000J0D01*
G01*
X189375000Y-55649999D01*
G75*
G02*
X189525000Y-55799999I0J-150000D01*
G01*
G37*
%TD*%
D18*
%TO.C,SW1*%
X204030000Y-77790000D03*
X204030000Y-72710000D03*
X198950000Y-77790000D03*
X198950000Y-72710000D03*
%TD*%
%TO.C,R7*%
G36*
G01*
X143550000Y-58575000D02*
X144450000Y-58575000D01*
G75*
G02*
X144700000Y-58825000I0J-250000D01*
G01*
X144700000Y-59350000D01*
G75*
G02*
X144450000Y-59600000I-250000J0D01*
G01*
X143550000Y-59600000D01*
G75*
G02*
X143300000Y-59350000I0J250000D01*
G01*
X143300000Y-58825000D01*
G75*
G02*
X143550000Y-58575000I250000J0D01*
G01*
G37*
G36*
G01*
X143550000Y-60400000D02*
X144450000Y-60400000D01*
G75*
G02*
X144700000Y-60650000I0J-250000D01*
G01*
X144700000Y-61175000D01*
G75*
G02*
X144450000Y-61425000I-250000J0D01*
G01*
X143550000Y-61425000D01*
G75*
G02*
X143300000Y-61175000I0J250000D01*
G01*
X143300000Y-60650000D01*
G75*
G02*
X143550000Y-60400000I250000J0D01*
G01*
G37*
%TD*%
%TO.C,J3*%
G36*
G01*
X200992500Y-60650000D02*
X202442500Y-60650000D01*
G75*
G02*
X202692500Y-60900000I0J-250000D01*
G01*
X202692500Y-62100000D01*
G75*
G02*
X202442500Y-62350000I-250000J0D01*
G01*
X200992500Y-62350000D01*
G75*
G02*
X200742500Y-62100000I0J250000D01*
G01*
X200742500Y-60900000D01*
G75*
G02*
X200992500Y-60650000I250000J0D01*
G01*
G37*
D19*
X201717500Y-64000000D03*
X201717500Y-66500000D03*
%TD*%
%TO.C,C2*%
G36*
G01*
X200225000Y-54187500D02*
X201175000Y-54187500D01*
G75*
G02*
X201425000Y-54437500I0J-250000D01*
G01*
X201425000Y-55112500D01*
G75*
G02*
X201175000Y-55362500I-250000J0D01*
G01*
X200225000Y-55362500D01*
G75*
G02*
X199975000Y-55112500I0J250000D01*
G01*
X199975000Y-54437500D01*
G75*
G02*
X200225000Y-54187500I250000J0D01*
G01*
G37*
G36*
G01*
X200225000Y-56262500D02*
X201175000Y-56262500D01*
G75*
G02*
X201425000Y-56512500I0J-250000D01*
G01*
X201425000Y-57187500D01*
G75*
G02*
X201175000Y-57437500I-250000J0D01*
G01*
X200225000Y-57437500D01*
G75*
G02*
X199975000Y-57187500I0J250000D01*
G01*
X199975000Y-56512500D01*
G75*
G02*
X200225000Y-56262500I250000J0D01*
G01*
G37*
%TD*%
%TO.C,C3*%
G36*
G01*
X182475000Y-60087500D02*
X181525000Y-60087500D01*
G75*
G02*
X181275000Y-59837500I0J250000D01*
G01*
X181275000Y-59162500D01*
G75*
G02*
X181525000Y-58912500I250000J0D01*
G01*
X182475000Y-58912500D01*
G75*
G02*
X182725000Y-59162500I0J-250000D01*
G01*
X182725000Y-59837500D01*
G75*
G02*
X182475000Y-60087500I-250000J0D01*
G01*
G37*
G36*
G01*
X182475000Y-58012500D02*
X181525000Y-58012500D01*
G75*
G02*
X181275000Y-57762500I0J250000D01*
G01*
X181275000Y-57087500D01*
G75*
G02*
X181525000Y-56837500I250000J0D01*
G01*
X182475000Y-56837500D01*
G75*
G02*
X182725000Y-57087500I0J-250000D01*
G01*
X182725000Y-57762500D01*
G75*
G02*
X182475000Y-58012500I-250000J0D01*
G01*
G37*
%TD*%
%TO.C,D2*%
G36*
G01*
X141640000Y-52444999D02*
X141960000Y-52444999D01*
G75*
G02*
X142120000Y-52604999I0J-160000D01*
G01*
X142120000Y-53049999D01*
G75*
G02*
X141960000Y-53209999I-160000J0D01*
G01*
X141640000Y-53209999D01*
G75*
G02*
X141480000Y-53049999I0J160000D01*
G01*
X141480000Y-52604999D01*
G75*
G02*
X141640000Y-52444999I160000J0D01*
G01*
G37*
G36*
G01*
X141640000Y-53590001D02*
X141960000Y-53590001D01*
G75*
G02*
X142120000Y-53750001I0J-160000D01*
G01*
X142120000Y-54195001D01*
G75*
G02*
X141960000Y-54355001I-160000J0D01*
G01*
X141640000Y-54355001D01*
G75*
G02*
X141480000Y-54195001I0J160000D01*
G01*
X141480000Y-53750001D01*
G75*
G02*
X141640000Y-53590001I160000J0D01*
G01*
G37*
%TD*%
%TO.C,J5*%
G36*
G01*
X153300000Y-56950000D02*
X153300000Y-57850000D01*
G75*
G02*
X153100000Y-58050000I-200000J0D01*
G01*
X152700000Y-58050000D01*
G75*
G02*
X152500000Y-57850000I0J200000D01*
G01*
X152500000Y-56950000D01*
G75*
G02*
X152700000Y-56750000I200000J0D01*
G01*
X153100000Y-56750000D01*
G75*
G02*
X153300000Y-56950000I0J-200000D01*
G01*
G37*
D17*
X151650000Y-57400000D03*
%TD*%
%TO.C,J1*%
X169149999Y-57400000D03*
X167900000Y-57400000D03*
G36*
G01*
X167049999Y-56950000D02*
X167049999Y-57850000D01*
G75*
G02*
X166849999Y-58050000I-200000J0D01*
G01*
X166449999Y-58050000D01*
G75*
G02*
X166249999Y-57850000I0J200000D01*
G01*
X166249999Y-56950000D01*
G75*
G02*
X166449999Y-56750000I200000J0D01*
G01*
X166849999Y-56750000D01*
G75*
G02*
X167049999Y-56950000I0J-200000D01*
G01*
G37*
X165400000Y-57400000D03*
%TD*%
%TO.C,R4*%
G36*
G01*
X184175000Y-55850000D02*
X184175000Y-54950000D01*
G75*
G02*
X184425000Y-54700000I250000J0D01*
G01*
X184950000Y-54700000D01*
G75*
G02*
X185200000Y-54950000I0J-250000D01*
G01*
X185200000Y-55850000D01*
G75*
G02*
X184950000Y-56100000I-250000J0D01*
G01*
X184425000Y-56100000D01*
G75*
G02*
X184175000Y-55850000I0J250000D01*
G01*
G37*
G36*
G01*
X186000000Y-55850000D02*
X186000000Y-54950000D01*
G75*
G02*
X186250000Y-54700000I250000J0D01*
G01*
X186775000Y-54700000D01*
G75*
G02*
X187025000Y-54950000I0J-250000D01*
G01*
X187025000Y-55850000D01*
G75*
G02*
X186775000Y-56100000I-250000J0D01*
G01*
X186250000Y-56100000D01*
G75*
G02*
X186000000Y-55850000I0J250000D01*
G01*
G37*
%TD*%
%TO.C,C4*%
G36*
G01*
X181775000Y-62375000D02*
X182725000Y-62375000D01*
G75*
G02*
X182975000Y-62625000I0J-250000D01*
G01*
X182975000Y-63300000D01*
G75*
G02*
X182725000Y-63550000I-250000J0D01*
G01*
X181775000Y-63550000D01*
G75*
G02*
X181525000Y-63300000I0J250000D01*
G01*
X181525000Y-62625000D01*
G75*
G02*
X181775000Y-62375000I250000J0D01*
G01*
G37*
G36*
G01*
X181775000Y-64450000D02*
X182725000Y-64450000D01*
G75*
G02*
X182975000Y-64700000I0J-250000D01*
G01*
X182975000Y-65375000D01*
G75*
G02*
X182725000Y-65625000I-250000J0D01*
G01*
X181775000Y-65625000D01*
G75*
G02*
X181525000Y-65375000I0J250000D01*
G01*
X181525000Y-64700000D01*
G75*
G02*
X181775000Y-64450000I250000J0D01*
G01*
G37*
%TD*%
%TO.C,R5*%
G36*
G01*
X147550000Y-58575000D02*
X148450000Y-58575000D01*
G75*
G02*
X148700000Y-58825000I0J-250000D01*
G01*
X148700000Y-59350000D01*
G75*
G02*
X148450000Y-59600000I-250000J0D01*
G01*
X147550000Y-59600000D01*
G75*
G02*
X147300000Y-59350000I0J250000D01*
G01*
X147300000Y-58825000D01*
G75*
G02*
X147550000Y-58575000I250000J0D01*
G01*
G37*
G36*
G01*
X147550000Y-60400000D02*
X148450000Y-60400000D01*
G75*
G02*
X148700000Y-60650000I0J-250000D01*
G01*
X148700000Y-61175000D01*
G75*
G02*
X148450000Y-61425000I-250000J0D01*
G01*
X147550000Y-61425000D01*
G75*
G02*
X147300000Y-61175000I0J250000D01*
G01*
X147300000Y-60650000D01*
G75*
G02*
X147550000Y-60400000I250000J0D01*
G01*
G37*
%TD*%
D16*
%TO.C,*%
X174000000Y-56000000D03*
%TD*%
%TO.C,U3*%
G36*
G01*
X185575000Y-62925000D02*
X185425000Y-62925000D01*
G75*
G02*
X185350000Y-62850000I0J75000D01*
G01*
X185350000Y-61550000D01*
G75*
G02*
X185425000Y-61475000I75000J0D01*
G01*
X185575000Y-61475000D01*
G75*
G02*
X185650000Y-61550000I0J-75000D01*
G01*
X185650000Y-62850000D01*
G75*
G02*
X185575000Y-62925000I-75000J0D01*
G01*
G37*
G36*
G01*
X186075001Y-62925000D02*
X185925001Y-62925000D01*
G75*
G02*
X185850001Y-62850000I0J75000D01*
G01*
X185850001Y-61550000D01*
G75*
G02*
X185925001Y-61475000I75000J0D01*
G01*
X186075001Y-61475000D01*
G75*
G02*
X186150001Y-61550000I0J-75000D01*
G01*
X186150001Y-62850000D01*
G75*
G02*
X186075001Y-62925000I-75000J0D01*
G01*
G37*
G36*
G01*
X186575000Y-62925000D02*
X186425000Y-62925000D01*
G75*
G02*
X186350000Y-62850000I0J75000D01*
G01*
X186350000Y-61550000D01*
G75*
G02*
X186425000Y-61475000I75000J0D01*
G01*
X186575000Y-61475000D01*
G75*
G02*
X186650000Y-61550000I0J-75000D01*
G01*
X186650000Y-62850000D01*
G75*
G02*
X186575000Y-62925000I-75000J0D01*
G01*
G37*
G36*
G01*
X187074999Y-62925000D02*
X186924999Y-62925000D01*
G75*
G02*
X186849999Y-62850000I0J75000D01*
G01*
X186849999Y-61550000D01*
G75*
G02*
X186924999Y-61475000I75000J0D01*
G01*
X187074999Y-61475000D01*
G75*
G02*
X187149999Y-61550000I0J-75000D01*
G01*
X187149999Y-62850000D01*
G75*
G02*
X187074999Y-62925000I-75000J0D01*
G01*
G37*
G36*
G01*
X187575000Y-62925000D02*
X187425000Y-62925000D01*
G75*
G02*
X187350000Y-62850000I0J75000D01*
G01*
X187350000Y-61550000D01*
G75*
G02*
X187425000Y-61475000I75000J0D01*
G01*
X187575000Y-61475000D01*
G75*
G02*
X187650000Y-61550000I0J-75000D01*
G01*
X187650000Y-62850000D01*
G75*
G02*
X187575000Y-62925000I-75000J0D01*
G01*
G37*
G36*
G01*
X187575000Y-58525000D02*
X187425000Y-58525000D01*
G75*
G02*
X187350000Y-58450000I0J75000D01*
G01*
X187350000Y-57150000D01*
G75*
G02*
X187425000Y-57075000I75000J0D01*
G01*
X187575000Y-57075000D01*
G75*
G02*
X187650000Y-57150000I0J-75000D01*
G01*
X187650000Y-58450000D01*
G75*
G02*
X187575000Y-58525000I-75000J0D01*
G01*
G37*
G36*
G01*
X187074999Y-58525000D02*
X186924999Y-58525000D01*
G75*
G02*
X186849999Y-58450000I0J75000D01*
G01*
X186849999Y-57150000D01*
G75*
G02*
X186924999Y-57075000I75000J0D01*
G01*
X187074999Y-57075000D01*
G75*
G02*
X187149999Y-57150000I0J-75000D01*
G01*
X187149999Y-58450000D01*
G75*
G02*
X187074999Y-58525000I-75000J0D01*
G01*
G37*
G36*
G01*
X186575000Y-58525000D02*
X186425000Y-58525000D01*
G75*
G02*
X186350000Y-58450000I0J75000D01*
G01*
X186350000Y-57150000D01*
G75*
G02*
X186425000Y-57075000I75000J0D01*
G01*
X186575000Y-57075000D01*
G75*
G02*
X186650000Y-57150000I0J-75000D01*
G01*
X186650000Y-58450000D01*
G75*
G02*
X186575000Y-58525000I-75000J0D01*
G01*
G37*
G36*
G01*
X186075001Y-58525000D02*
X185925001Y-58525000D01*
G75*
G02*
X185850001Y-58450000I0J75000D01*
G01*
X185850001Y-57150000D01*
G75*
G02*
X185925001Y-57075000I75000J0D01*
G01*
X186075001Y-57075000D01*
G75*
G02*
X186150001Y-57150000I0J-75000D01*
G01*
X186150001Y-58450000D01*
G75*
G02*
X186075001Y-58525000I-75000J0D01*
G01*
G37*
G36*
G01*
X185575000Y-58525000D02*
X185425000Y-58525000D01*
G75*
G02*
X185350000Y-58450000I0J75000D01*
G01*
X185350000Y-57150000D01*
G75*
G02*
X185425000Y-57075000I75000J0D01*
G01*
X185575000Y-57075000D01*
G75*
G02*
X185650000Y-57150000I0J-75000D01*
G01*
X185650000Y-58450000D01*
G75*
G02*
X185575000Y-58525000I-75000J0D01*
G01*
G37*
%TD*%
%TO.C,C7*%
G36*
G01*
X141975000Y-61625000D02*
X141025000Y-61625000D01*
G75*
G02*
X140775000Y-61375000I0J250000D01*
G01*
X140775000Y-60700000D01*
G75*
G02*
X141025000Y-60450000I250000J0D01*
G01*
X141975000Y-60450000D01*
G75*
G02*
X142225000Y-60700000I0J-250000D01*
G01*
X142225000Y-61375000D01*
G75*
G02*
X141975000Y-61625000I-250000J0D01*
G01*
G37*
G36*
G01*
X141975000Y-59550000D02*
X141025000Y-59550000D01*
G75*
G02*
X140775000Y-59300000I0J250000D01*
G01*
X140775000Y-58625000D01*
G75*
G02*
X141025000Y-58375000I250000J0D01*
G01*
X141975000Y-58375000D01*
G75*
G02*
X142225000Y-58625000I0J-250000D01*
G01*
X142225000Y-59300000D01*
G75*
G02*
X141975000Y-59550000I-250000J0D01*
G01*
G37*
%TD*%
%TO.C,*%
X146000000Y-56000000D03*
%TD*%
%TO.C,R6*%
G36*
G01*
X145550000Y-58575000D02*
X146450000Y-58575000D01*
G75*
G02*
X146700000Y-58825000I0J-250000D01*
G01*
X146700000Y-59350000D01*
G75*
G02*
X146450000Y-59600000I-250000J0D01*
G01*
X145550000Y-59600000D01*
G75*
G02*
X145300000Y-59350000I0J250000D01*
G01*
X145300000Y-58825000D01*
G75*
G02*
X145550000Y-58575000I250000J0D01*
G01*
G37*
G36*
G01*
X145550000Y-60400000D02*
X146450000Y-60400000D01*
G75*
G02*
X146700000Y-60650000I0J-250000D01*
G01*
X146700000Y-61175000D01*
G75*
G02*
X146450000Y-61425000I-250000J0D01*
G01*
X145550000Y-61425000D01*
G75*
G02*
X145300000Y-61175000I0J250000D01*
G01*
X145300000Y-60650000D01*
G75*
G02*
X145550000Y-60400000I250000J0D01*
G01*
G37*
%TD*%
D20*
%TO.C,J4*%
X203900000Y-56500000D03*
G36*
G01*
X204350000Y-55650001D02*
X203450000Y-55650001D01*
G75*
G02*
X203250000Y-55450001I0J200000D01*
G01*
X203250000Y-55050001D01*
G75*
G02*
X203450000Y-54850001I200000J0D01*
G01*
X204350000Y-54850001D01*
G75*
G02*
X204550000Y-55050001I0J-200000D01*
G01*
X204550000Y-55450001D01*
G75*
G02*
X204350000Y-55650001I-200000J0D01*
G01*
G37*
X203900000Y-54000000D03*
%TD*%
D21*
%TO.C,SW4*%
X189500000Y-75500000D03*
X196500000Y-75500000D03*
X190500000Y-78000000D03*
X195500000Y-78000000D03*
%TD*%
%TO.C,D3*%
G36*
G01*
X140640000Y-52444999D02*
X140960000Y-52444999D01*
G75*
G02*
X141120000Y-52604999I0J-160000D01*
G01*
X141120000Y-53049999D01*
G75*
G02*
X140960000Y-53209999I-160000J0D01*
G01*
X140640000Y-53209999D01*
G75*
G02*
X140480000Y-53049999I0J160000D01*
G01*
X140480000Y-52604999D01*
G75*
G02*
X140640000Y-52444999I160000J0D01*
G01*
G37*
G36*
G01*
X140640000Y-53590001D02*
X140960000Y-53590001D01*
G75*
G02*
X141120000Y-53750001I0J-160000D01*
G01*
X141120000Y-54195001D01*
G75*
G02*
X140960000Y-54355001I-160000J0D01*
G01*
X140640000Y-54355001D01*
G75*
G02*
X140480000Y-54195001I0J160000D01*
G01*
X140480000Y-53750001D01*
G75*
G02*
X140640000Y-53590001I160000J0D01*
G01*
G37*
%TD*%
%TO.C,R1*%
G36*
G01*
X187450001Y-77837500D02*
X186550001Y-77837500D01*
G75*
G02*
X186300001Y-77587500I0J250000D01*
G01*
X186300001Y-77062500D01*
G75*
G02*
X186550001Y-76812500I250000J0D01*
G01*
X187450001Y-76812500D01*
G75*
G02*
X187700001Y-77062500I0J-250000D01*
G01*
X187700001Y-77587500D01*
G75*
G02*
X187450001Y-77837500I-250000J0D01*
G01*
G37*
G36*
G01*
X187450001Y-76012500D02*
X186550001Y-76012500D01*
G75*
G02*
X186300001Y-75762500I0J250000D01*
G01*
X186300001Y-75237500D01*
G75*
G02*
X186550001Y-74987500I250000J0D01*
G01*
X187450001Y-74987500D01*
G75*
G02*
X187700001Y-75237500I0J-250000D01*
G01*
X187700001Y-75762500D01*
G75*
G02*
X187450001Y-76012500I-250000J0D01*
G01*
G37*
%TD*%
%TO.C,R2*%
G36*
G01*
X189075000Y-60450000D02*
X189075000Y-59550000D01*
G75*
G02*
X189325000Y-59300000I250000J0D01*
G01*
X189850000Y-59300000D01*
G75*
G02*
X190100000Y-59550000I0J-250000D01*
G01*
X190100000Y-60450000D01*
G75*
G02*
X189850000Y-60700000I-250000J0D01*
G01*
X189325000Y-60700000D01*
G75*
G02*
X189075000Y-60450000I0J250000D01*
G01*
G37*
G36*
G01*
X190900000Y-60450000D02*
X190900000Y-59550000D01*
G75*
G02*
X191150000Y-59300000I250000J0D01*
G01*
X191675000Y-59300000D01*
G75*
G02*
X191925000Y-59550000I0J-250000D01*
G01*
X191925000Y-60450000D01*
G75*
G02*
X191675000Y-60700000I-250000J0D01*
G01*
X191150000Y-60700000D01*
G75*
G02*
X190900000Y-60450000I0J250000D01*
G01*
G37*
%TD*%
D16*
%TO.C,U4*%
X194220000Y-71620000D03*
X194220000Y-56380000D03*
D22*
X178980000Y-56380000D03*
X178980000Y-58920000D03*
X178980000Y-61460000D03*
X178980000Y-64000000D03*
X178980000Y-66540000D03*
G36*
G01*
X178040200Y-69755514D02*
X178040200Y-68404486D01*
G75*
G02*
X178304486Y-68140200I264286J0D01*
G01*
X179655514Y-68140200D01*
G75*
G02*
X179919800Y-68404486I0J-264286D01*
G01*
X179919800Y-69755514D01*
G75*
G02*
X179655514Y-70019800I-264286J0D01*
G01*
X178304486Y-70019800D01*
G75*
G02*
X178040200Y-69755514I0J264286D01*
G01*
G37*
X178980000Y-71620000D03*
%TD*%
%LPD*%
M02*
