%TF.GenerationSoftware,KiCad,Pcbnew,8.0.5-8.0.5-0~ubuntu20.04.1*%
%TF.CreationDate,2025-02-19T15:36:44-06:00*%
%TF.ProjectId,Alex_Teensy4_PCB,416c6578-5f54-4656-956e-7379345f5043,rev?*%
%TF.SameCoordinates,Original*%
%TF.FileFunction,Copper,L1,Top*%
%TF.FilePolarity,Positive*%
%FSLAX46Y46*%
G04 Gerber Fmt 4.6, Leading zero omitted, Abs format (unit mm)*
G04 Created by KiCad (PCBNEW 8.0.5-8.0.5-0~ubuntu20.04.1) date 2025-02-19 15:36:44*
%MOMM*%
%LPD*%
G01*
G04 APERTURE LIST*
%ADD10C,0.300000*%
%TA.AperFunction,NonConductor*%
%ADD11C,0.300000*%
%TD*%
%TA.AperFunction,ComponentPad*%
%ADD12C,1.404000*%
%TD*%
%TA.AperFunction,ComponentPad*%
%ADD13C,3.200000*%
%TD*%
%TA.AperFunction,ComponentPad*%
%ADD14O,0.800000X1.300000*%
%TD*%
%TA.AperFunction,ComponentPad*%
%ADD15C,1.700000*%
%TD*%
%TA.AperFunction,ComponentPad*%
%ADD16O,1.950000X1.700000*%
%TD*%
%TA.AperFunction,ComponentPad*%
%ADD17O,1.300000X0.800000*%
%TD*%
%TA.AperFunction,ComponentPad*%
%ADD18C,2.000000*%
%TD*%
%TA.AperFunction,ComponentPad*%
%ADD19C,1.778000*%
%TD*%
%TA.AperFunction,ViaPad*%
%ADD20C,0.508000*%
%TD*%
%TA.AperFunction,Conductor*%
%ADD21C,0.254000*%
%TD*%
%TA.AperFunction,Conductor*%
%ADD22C,0.203200*%
%TD*%
%TA.AperFunction,Conductor*%
%ADD23C,0.508000*%
%TD*%
%TA.AperFunction,Conductor*%
%ADD24C,0.200000*%
%TD*%
%TA.AperFunction,Conductor*%
%ADD25C,0.152400*%
%TD*%
%TA.AperFunction,Conductor*%
%ADD26C,0.762000*%
%TD*%
%TA.AperFunction,Conductor*%
%ADD27C,0.381000*%
%TD*%
%TA.AperFunction,Conductor*%
%ADD28C,1.270000*%
%TD*%
%TA.AperFunction,Conductor*%
%ADD29C,1.524000*%
%TD*%
%TA.AperFunction,Conductor*%
%ADD30C,1.016000*%
%TD*%
%TA.AperFunction,Conductor*%
%ADD31C,0.304800*%
%TD*%
G04 APERTURE END LIST*
D10*
D11*
X147400828Y-67466917D02*
X148472257Y-67466917D01*
X148472257Y-67466917D02*
X148686542Y-67538346D01*
X148686542Y-67538346D02*
X148829400Y-67681203D01*
X148829400Y-67681203D02*
X148900828Y-67895489D01*
X148900828Y-67895489D02*
X148900828Y-68038346D01*
X148115114Y-66252632D02*
X148115114Y-66752632D01*
X148900828Y-66752632D02*
X147400828Y-66752632D01*
X147400828Y-66752632D02*
X147400828Y-66038346D01*
X147400828Y-65681203D02*
X147400828Y-64824061D01*
X148900828Y-65252632D02*
X147400828Y-65252632D01*
%TO.P,U2,1,A1*%
%TO.N,0*%
%TA.AperFunction,SMDPad,CuDef*%
G36*
G01*
X181603750Y-73785000D02*
X181296250Y-73785000D01*
G75*
G02*
X181245000Y-73733750I0J51250D01*
G01*
X181245000Y-72266250D01*
G75*
G02*
X181296250Y-72215000I51250J0D01*
G01*
X181603750Y-72215000D01*
G75*
G02*
X181655000Y-72266250I0J-51250D01*
G01*
X181655000Y-73733750D01*
G75*
G02*
X181603750Y-73785000I-51250J0D01*
G01*
G37*
%TD.AperFunction*%
%TO.P,U2,2,VCCA*%
%TO.N,+3.3V*%
%TA.AperFunction,SMDPad,CuDef*%
G36*
G01*
X182253750Y-73785000D02*
X181946250Y-73785000D01*
G75*
G02*
X181895000Y-73733750I0J51250D01*
G01*
X181895000Y-72266250D01*
G75*
G02*
X181946250Y-72215000I51250J0D01*
G01*
X182253750Y-72215000D01*
G75*
G02*
X182305000Y-72266250I0J-51250D01*
G01*
X182305000Y-73733750D01*
G75*
G02*
X182253750Y-73785000I-51250J0D01*
G01*
G37*
%TD.AperFunction*%
%TO.P,U2,3,A2*%
%TO.N,1*%
%TA.AperFunction,SMDPad,CuDef*%
G36*
G01*
X182903750Y-73785000D02*
X182596250Y-73785000D01*
G75*
G02*
X182545000Y-73733750I0J51250D01*
G01*
X182545000Y-72266250D01*
G75*
G02*
X182596250Y-72215000I51250J0D01*
G01*
X182903750Y-72215000D01*
G75*
G02*
X182955000Y-72266250I0J-51250D01*
G01*
X182955000Y-73733750D01*
G75*
G02*
X182903750Y-73785000I-51250J0D01*
G01*
G37*
%TD.AperFunction*%
%TO.P,U2,4,A3*%
%TO.N,2*%
%TA.AperFunction,SMDPad,CuDef*%
G36*
G01*
X183553750Y-73785000D02*
X183246250Y-73785000D01*
G75*
G02*
X183195000Y-73733750I0J51250D01*
G01*
X183195000Y-72266250D01*
G75*
G02*
X183246250Y-72215000I51250J0D01*
G01*
X183553750Y-72215000D01*
G75*
G02*
X183605000Y-72266250I0J-51250D01*
G01*
X183605000Y-73733750D01*
G75*
G02*
X183553750Y-73785000I-51250J0D01*
G01*
G37*
%TD.AperFunction*%
%TO.P,U2,5,A4*%
%TO.N,3*%
%TA.AperFunction,SMDPad,CuDef*%
G36*
G01*
X184203750Y-73785000D02*
X183896250Y-73785000D01*
G75*
G02*
X183845000Y-73733750I0J51250D01*
G01*
X183845000Y-72266250D01*
G75*
G02*
X183896250Y-72215000I51250J0D01*
G01*
X184203750Y-72215000D01*
G75*
G02*
X184255000Y-72266250I0J-51250D01*
G01*
X184255000Y-73733750D01*
G75*
G02*
X184203750Y-73785000I-51250J0D01*
G01*
G37*
%TD.AperFunction*%
%TO.P,U2,6,A5*%
%TO.N,RX1*%
%TA.AperFunction,SMDPad,CuDef*%
G36*
G01*
X184853750Y-73785000D02*
X184546250Y-73785000D01*
G75*
G02*
X184495000Y-73733750I0J51250D01*
G01*
X184495000Y-72266250D01*
G75*
G02*
X184546250Y-72215000I51250J0D01*
G01*
X184853750Y-72215000D01*
G75*
G02*
X184905000Y-72266250I0J-51250D01*
G01*
X184905000Y-73733750D01*
G75*
G02*
X184853750Y-73785000I-51250J0D01*
G01*
G37*
%TD.AperFunction*%
%TO.P,U2,7,A6*%
%TO.N,21*%
%TA.AperFunction,SMDPad,CuDef*%
G36*
G01*
X185503750Y-73785000D02*
X185196250Y-73785000D01*
G75*
G02*
X185145000Y-73733750I0J51250D01*
G01*
X185145000Y-72266250D01*
G75*
G02*
X185196250Y-72215000I51250J0D01*
G01*
X185503750Y-72215000D01*
G75*
G02*
X185555000Y-72266250I0J-51250D01*
G01*
X185555000Y-73733750D01*
G75*
G02*
X185503750Y-73785000I-51250J0D01*
G01*
G37*
%TD.AperFunction*%
%TO.P,U2,8,A7*%
%TO.N,TX1*%
%TA.AperFunction,SMDPad,CuDef*%
G36*
G01*
X186153750Y-73785000D02*
X185846250Y-73785000D01*
G75*
G02*
X185795000Y-73733750I0J51250D01*
G01*
X185795000Y-72266250D01*
G75*
G02*
X185846250Y-72215000I51250J0D01*
G01*
X186153750Y-72215000D01*
G75*
G02*
X186205000Y-72266250I0J-51250D01*
G01*
X186205000Y-73733750D01*
G75*
G02*
X186153750Y-73785000I-51250J0D01*
G01*
G37*
%TD.AperFunction*%
%TO.P,U2,9,A8*%
%TO.N,unconnected-(U2-A8-Pad9)*%
%TA.AperFunction,SMDPad,CuDef*%
G36*
G01*
X186803750Y-73785000D02*
X186496250Y-73785000D01*
G75*
G02*
X186445000Y-73733750I0J51250D01*
G01*
X186445000Y-72266250D01*
G75*
G02*
X186496250Y-72215000I51250J0D01*
G01*
X186803750Y-72215000D01*
G75*
G02*
X186855000Y-72266250I0J-51250D01*
G01*
X186855000Y-73733750D01*
G75*
G02*
X186803750Y-73785000I-51250J0D01*
G01*
G37*
%TD.AperFunction*%
%TO.P,U2,10,OE*%
%TO.N,4*%
%TA.AperFunction,SMDPad,CuDef*%
G36*
G01*
X187453750Y-73785000D02*
X187146250Y-73785000D01*
G75*
G02*
X187095000Y-73733750I0J51250D01*
G01*
X187095000Y-72266250D01*
G75*
G02*
X187146250Y-72215000I51250J0D01*
G01*
X187453750Y-72215000D01*
G75*
G02*
X187505000Y-72266250I0J-51250D01*
G01*
X187505000Y-73733750D01*
G75*
G02*
X187453750Y-73785000I-51250J0D01*
G01*
G37*
%TD.AperFunction*%
%TO.P,U2,11,GND*%
%TO.N,GND*%
%TA.AperFunction,SMDPad,CuDef*%
G36*
G01*
X187453750Y-68045000D02*
X187146250Y-68045000D01*
G75*
G02*
X187095000Y-67993750I0J51250D01*
G01*
X187095000Y-66526250D01*
G75*
G02*
X187146250Y-66475000I51250J0D01*
G01*
X187453750Y-66475000D01*
G75*
G02*
X187505000Y-66526250I0J-51250D01*
G01*
X187505000Y-67993750D01*
G75*
G02*
X187453750Y-68045000I-51250J0D01*
G01*
G37*
%TD.AperFunction*%
%TO.P,U2,12,B8*%
%TO.N,unconnected-(U2-B8-Pad12)*%
%TA.AperFunction,SMDPad,CuDef*%
G36*
G01*
X186803750Y-68045000D02*
X186496250Y-68045000D01*
G75*
G02*
X186445000Y-67993750I0J51250D01*
G01*
X186445000Y-66526250D01*
G75*
G02*
X186496250Y-66475000I51250J0D01*
G01*
X186803750Y-66475000D01*
G75*
G02*
X186855000Y-66526250I0J-51250D01*
G01*
X186855000Y-67993750D01*
G75*
G02*
X186803750Y-68045000I-51250J0D01*
G01*
G37*
%TD.AperFunction*%
%TO.P,U2,13,B7*%
%TO.N,PAD_TX*%
%TA.AperFunction,SMDPad,CuDef*%
G36*
G01*
X186153750Y-68045000D02*
X185846250Y-68045000D01*
G75*
G02*
X185795000Y-67993750I0J51250D01*
G01*
X185795000Y-66526250D01*
G75*
G02*
X185846250Y-66475000I51250J0D01*
G01*
X186153750Y-66475000D01*
G75*
G02*
X186205000Y-66526250I0J-51250D01*
G01*
X186205000Y-67993750D01*
G75*
G02*
X186153750Y-68045000I-51250J0D01*
G01*
G37*
%TD.AperFunction*%
%TO.P,U2,14,B6*%
%TO.N,PAD_TXE*%
%TA.AperFunction,SMDPad,CuDef*%
G36*
G01*
X185503750Y-68045000D02*
X185196250Y-68045000D01*
G75*
G02*
X185145000Y-67993750I0J51250D01*
G01*
X185145000Y-66526250D01*
G75*
G02*
X185196250Y-66475000I51250J0D01*
G01*
X185503750Y-66475000D01*
G75*
G02*
X185555000Y-66526250I0J-51250D01*
G01*
X185555000Y-67993750D01*
G75*
G02*
X185503750Y-68045000I-51250J0D01*
G01*
G37*
%TD.AperFunction*%
%TO.P,U2,15,B5*%
%TO.N,PAD_RX*%
%TA.AperFunction,SMDPad,CuDef*%
G36*
G01*
X184853750Y-68045000D02*
X184546250Y-68045000D01*
G75*
G02*
X184495000Y-67993750I0J51250D01*
G01*
X184495000Y-66526250D01*
G75*
G02*
X184546250Y-66475000I51250J0D01*
G01*
X184853750Y-66475000D01*
G75*
G02*
X184905000Y-66526250I0J-51250D01*
G01*
X184905000Y-67993750D01*
G75*
G02*
X184853750Y-68045000I-51250J0D01*
G01*
G37*
%TD.AperFunction*%
%TO.P,U2,16,B4*%
%TO.N,PAD_B2*%
%TA.AperFunction,SMDPad,CuDef*%
G36*
G01*
X184203750Y-68045000D02*
X183896250Y-68045000D01*
G75*
G02*
X183845000Y-67993750I0J51250D01*
G01*
X183845000Y-66526250D01*
G75*
G02*
X183896250Y-66475000I51250J0D01*
G01*
X184203750Y-66475000D01*
G75*
G02*
X184255000Y-66526250I0J-51250D01*
G01*
X184255000Y-67993750D01*
G75*
G02*
X184203750Y-68045000I-51250J0D01*
G01*
G37*
%TD.AperFunction*%
%TO.P,U2,17,B3*%
%TO.N,PAD_A2*%
%TA.AperFunction,SMDPad,CuDef*%
G36*
G01*
X183553750Y-68045000D02*
X183246250Y-68045000D01*
G75*
G02*
X183195000Y-67993750I0J51250D01*
G01*
X183195000Y-66526250D01*
G75*
G02*
X183246250Y-66475000I51250J0D01*
G01*
X183553750Y-66475000D01*
G75*
G02*
X183605000Y-66526250I0J-51250D01*
G01*
X183605000Y-67993750D01*
G75*
G02*
X183553750Y-68045000I-51250J0D01*
G01*
G37*
%TD.AperFunction*%
%TO.P,U2,18,B2*%
%TO.N,PAD_B1*%
%TA.AperFunction,SMDPad,CuDef*%
G36*
G01*
X182903750Y-68045000D02*
X182596250Y-68045000D01*
G75*
G02*
X182545000Y-67993750I0J51250D01*
G01*
X182545000Y-66526250D01*
G75*
G02*
X182596250Y-66475000I51250J0D01*
G01*
X182903750Y-66475000D01*
G75*
G02*
X182955000Y-66526250I0J-51250D01*
G01*
X182955000Y-67993750D01*
G75*
G02*
X182903750Y-68045000I-51250J0D01*
G01*
G37*
%TD.AperFunction*%
%TO.P,U2,19,VCCB*%
%TO.N,+5V*%
%TA.AperFunction,SMDPad,CuDef*%
G36*
G01*
X182253750Y-68045000D02*
X181946250Y-68045000D01*
G75*
G02*
X181895000Y-67993750I0J51250D01*
G01*
X181895000Y-66526250D01*
G75*
G02*
X181946250Y-66475000I51250J0D01*
G01*
X182253750Y-66475000D01*
G75*
G02*
X182305000Y-66526250I0J-51250D01*
G01*
X182305000Y-67993750D01*
G75*
G02*
X182253750Y-68045000I-51250J0D01*
G01*
G37*
%TD.AperFunction*%
%TO.P,U2,20,B1*%
%TO.N,PAD_A1*%
%TA.AperFunction,SMDPad,CuDef*%
G36*
G01*
X181603750Y-68045000D02*
X181296250Y-68045000D01*
G75*
G02*
X181245000Y-67993750I0J51250D01*
G01*
X181245000Y-66526250D01*
G75*
G02*
X181296250Y-66475000I51250J0D01*
G01*
X181603750Y-66475000D01*
G75*
G02*
X181655000Y-66526250I0J-51250D01*
G01*
X181655000Y-67993750D01*
G75*
G02*
X181603750Y-68045000I-51250J0D01*
G01*
G37*
%TD.AperFunction*%
%TD*%
%TO.P,D1,1,K*%
%TO.N,GND*%
%TA.AperFunction,SMDPad,CuDef*%
G36*
G01*
X142640000Y-52444999D02*
X142960000Y-52444999D01*
G75*
G02*
X143120000Y-52604999I0J-160000D01*
G01*
X143120000Y-53049999D01*
G75*
G02*
X142960000Y-53209999I-160000J0D01*
G01*
X142640000Y-53209999D01*
G75*
G02*
X142480000Y-53049999I0J160000D01*
G01*
X142480000Y-52604999D01*
G75*
G02*
X142640000Y-52444999I160000J0D01*
G01*
G37*
%TD.AperFunction*%
%TO.P,D1,2,A*%
%TO.N,Net-(D1-A)*%
%TA.AperFunction,SMDPad,CuDef*%
G36*
G01*
X142640000Y-53590001D02*
X142960000Y-53590001D01*
G75*
G02*
X143120000Y-53750001I0J-160000D01*
G01*
X143120000Y-54195001D01*
G75*
G02*
X142960000Y-54355001I-160000J0D01*
G01*
X142640000Y-54355001D01*
G75*
G02*
X142480000Y-54195001I0J160000D01*
G01*
X142480000Y-53750001D01*
G75*
G02*
X142640000Y-53590001I160000J0D01*
G01*
G37*
%TD.AperFunction*%
%TD*%
D12*
%TO.P,U1,1,GND*%
%TO.N,GND*%
X141261600Y-78620000D03*
%TO.P,U1,2,0_RX1_CRX2_CS1*%
%TO.N,0*%
X143801600Y-78620000D03*
%TO.P,U1,3,1_TX1_CTX2_MISO1*%
%TO.N,1*%
X146341600Y-78620000D03*
%TO.P,U1,4,2_OUT2*%
%TO.N,2*%
X148881600Y-78620000D03*
%TO.P,U1,5,3_LRCLK2*%
%TO.N,3*%
X151421600Y-78620000D03*
%TO.P,U1,6,4_BCLK2*%
%TO.N,4*%
X153961600Y-78620000D03*
%TO.P,U1,7,5_IN2*%
%TO.N,unconnected-(U1-5_IN2-Pad7)*%
X156501600Y-78620000D03*
%TO.P,U1,8,6_OUT1D*%
%TO.N,unconnected-(U1-6_OUT1D-Pad8)*%
X159041600Y-78620000D03*
%TO.P,U1,9,7_RX2_OUT1A*%
%TO.N,unconnected-(U1-7_RX2_OUT1A-Pad9)*%
X161581600Y-78620000D03*
%TO.P,U1,10,8_TX2_IN1*%
%TO.N,unconnected-(U1-8_TX2_IN1-Pad10)*%
X164121600Y-78620000D03*
%TO.P,U1,11,9_OUT1C*%
%TO.N,9*%
X166661600Y-78620000D03*
%TO.P,U1,12,10_CS_MQSR*%
%TO.N,unconnected-(U1-10_CS_MQSR-Pad12)*%
X169201600Y-78620000D03*
%TO.P,U1,13,11_MOSI_CTX1*%
%TO.N,unconnected-(U1-11_MOSI_CTX1-Pad13)*%
X171741600Y-78620000D03*
%TO.P,U1,14,12_MISO_MQSL*%
%TO.N,unconnected-(U1-12_MISO_MQSL-Pad14)*%
X174281600Y-78620000D03*
%TO.P,U1,15,VBAT*%
%TO.N,unconnected-(U1-VBAT-Pad15)*%
X174281601Y-76080000D03*
%TO.P,U1,16,3V3*%
%TO.N,unconnected-(U1-3V3-Pad16)*%
X174281600Y-73540000D03*
%TO.P,U1,17,GND*%
%TO.N,unconnected-(U1-GND-Pad17)*%
X174281600Y-71000000D03*
%TO.P,U1,18,PROGRAM*%
%TO.N,unconnected-(U1-PROGRAM-Pad18)*%
X174281600Y-68460000D03*
%TO.P,U1,19,ON_OFF*%
%TO.N,unconnected-(U1-ON_OFF-Pad19)*%
X174281601Y-65920000D03*
%TO.P,U1,20,13_SCK_CRX1_LED*%
%TO.N,unconnected-(U1-13_SCK_CRX1_LED-Pad20)*%
X174281600Y-63380000D03*
%TO.P,U1,21,14_A0_TX3_SPDIF_OUT*%
%TO.N,14*%
X171741600Y-63380000D03*
%TO.P,U1,22,15_A1_RX3_SPDIF_IN*%
%TO.N,15*%
X169201600Y-63380000D03*
%TO.P,U1,23,16_A2_RX4_SCL1*%
%TO.N,16*%
X166661600Y-63380000D03*
%TO.P,U1,24,17_A3_TX4_SDA1*%
%TO.N,unconnected-(U1-17_A3_TX4_SDA1-Pad24)*%
X164121600Y-63380000D03*
%TO.P,U1,25,18_A4_SDA0*%
%TO.N,unconnected-(U1-18_A4_SDA0-Pad25)*%
X161581600Y-63380000D03*
%TO.P,U1,26,19_A5_SCL0*%
%TO.N,unconnected-(U1-19_A5_SCL0-Pad26)*%
X159041600Y-63380000D03*
%TO.P,U1,27,20_A6_TX5_LRCLK1*%
%TO.N,unconnected-(U1-20_A6_TX5_LRCLK1-Pad27)*%
X156501600Y-63380000D03*
%TO.P,U1,28,21_A7_RX5_BCLK1*%
%TO.N,21*%
X153961600Y-63380000D03*
%TO.P,U1,29,22_A8_CTX1*%
%TO.N,TX1*%
X151421600Y-63380000D03*
%TO.P,U1,30,23_A9_CRX1_MCLK1*%
%TO.N,RX1*%
X148881600Y-63380000D03*
%TO.P,U1,31,3V3*%
%TO.N,unconnected-(U1-3V3-Pad31)*%
X146341600Y-63380000D03*
%TO.P,U1,32,GND*%
%TO.N,GND*%
X143801600Y-63380000D03*
%TO.P,U1,33,VIN*%
%TO.N,+5V*%
X141261600Y-63380000D03*
%TA.AperFunction,ComponentPad*%
%TO.P,U1,35,24_A10_TX6_SCL2*%
%TO.N,unconnected-(U1-24_A10_TX6_SCL2-Pad35)*%
G36*
X169432802Y-65310369D02*
G01*
X169531176Y-65362000D01*
X171233600Y-65362000D01*
X171268955Y-65376645D01*
X171283600Y-65412000D01*
X171283600Y-66428000D01*
X171268955Y-66463355D01*
X171233600Y-66478000D01*
X169531176Y-66478000D01*
X169432802Y-66529631D01*
X169280190Y-66567246D01*
X169123010Y-66567246D01*
X168970398Y-66529631D01*
X168872024Y-66478000D01*
X168693600Y-66478000D01*
X168658245Y-66463355D01*
X168643600Y-66428000D01*
X168643600Y-66250985D01*
X168624283Y-66223000D01*
X168568546Y-66076034D01*
X168549600Y-65920000D01*
X168568546Y-65763966D01*
X168624283Y-65617000D01*
X168643600Y-65589015D01*
X168643600Y-65412000D01*
X168658245Y-65376645D01*
X168693600Y-65362000D01*
X168872024Y-65362000D01*
X168970398Y-65310369D01*
X169123010Y-65272754D01*
X169280190Y-65272754D01*
X169432802Y-65310369D01*
G37*
%TD.AperFunction*%
%TA.AperFunction,ComponentPad*%
%TO.P,U1,36,25_A11_RX6_SDA2*%
%TO.N,unconnected-(U1-25_A11_RX6_SDA2-Pad36)*%
G36*
X166892802Y-65310369D02*
G01*
X166991176Y-65362000D01*
X167169600Y-65362000D01*
X167204955Y-65376645D01*
X167219600Y-65412000D01*
X167219600Y-65589015D01*
X167238917Y-65617000D01*
X167294654Y-65763966D01*
X167313600Y-65920000D01*
X167294654Y-66076034D01*
X167238917Y-66223000D01*
X167219600Y-66250985D01*
X167219600Y-66428000D01*
X167204955Y-66463355D01*
X167169600Y-66478000D01*
X166991176Y-66478000D01*
X166892802Y-66529631D01*
X166740190Y-66567246D01*
X166583010Y-66567246D01*
X166430398Y-66529631D01*
X166332024Y-66478000D01*
X164629600Y-66478000D01*
X164594245Y-66463355D01*
X164579600Y-66428000D01*
X164579600Y-65412000D01*
X164594245Y-65376645D01*
X164629600Y-65362000D01*
X166332024Y-65362000D01*
X166430398Y-65310369D01*
X166583010Y-65272754D01*
X166740190Y-65272754D01*
X166892802Y-65310369D01*
G37*
%TD.AperFunction*%
%TA.AperFunction,ComponentPad*%
%TO.P,U1,37,26_A12_MOSI1*%
%TO.N,unconnected-(U1-26_A12_MOSI1-Pad37)*%
G36*
X169432802Y-67850369D02*
G01*
X169531176Y-67902000D01*
X171233600Y-67902000D01*
X171268955Y-67916645D01*
X171283600Y-67952000D01*
X171283601Y-68968000D01*
X171268956Y-69003355D01*
X171233601Y-69018000D01*
X169531176Y-69018000D01*
X169432802Y-69069631D01*
X169280190Y-69107246D01*
X169123010Y-69107246D01*
X168970398Y-69069631D01*
X168872024Y-69018000D01*
X168693599Y-69018000D01*
X168658244Y-69003355D01*
X168643599Y-68968000D01*
X168643600Y-68790985D01*
X168624283Y-68763000D01*
X168568546Y-68616034D01*
X168549600Y-68460000D01*
X168568546Y-68303966D01*
X168624283Y-68157000D01*
X168643600Y-68129015D01*
X168643600Y-67952000D01*
X168658245Y-67916645D01*
X168693600Y-67902000D01*
X168872024Y-67902000D01*
X168970398Y-67850369D01*
X169123010Y-67812754D01*
X169280190Y-67812754D01*
X169432802Y-67850369D01*
G37*
%TD.AperFunction*%
%TA.AperFunction,ComponentPad*%
%TO.P,U1,38,27_A13_SCK1*%
%TO.N,unconnected-(U1-27_A13_SCK1-Pad38)*%
G36*
X166892802Y-67850369D02*
G01*
X166991176Y-67902000D01*
X167169600Y-67902000D01*
X167204955Y-67916645D01*
X167219600Y-67952000D01*
X167219600Y-68129015D01*
X167238917Y-68157000D01*
X167294654Y-68303966D01*
X167313600Y-68460000D01*
X167294654Y-68616034D01*
X167238917Y-68763000D01*
X167219600Y-68790985D01*
X167219600Y-68968000D01*
X167204955Y-69003355D01*
X167169600Y-69018000D01*
X166991176Y-69018000D01*
X166892802Y-69069631D01*
X166740190Y-69107246D01*
X166583010Y-69107246D01*
X166430398Y-69069631D01*
X166332024Y-69018000D01*
X164629599Y-69018000D01*
X164594244Y-69003355D01*
X164579599Y-68968000D01*
X164579600Y-67952000D01*
X164594245Y-67916645D01*
X164629600Y-67902000D01*
X166332024Y-67902000D01*
X166430398Y-67850369D01*
X166583010Y-67812754D01*
X166740190Y-67812754D01*
X166892802Y-67850369D01*
G37*
%TD.AperFunction*%
%TA.AperFunction,ComponentPad*%
%TO.P,U1,39,28_RX7*%
%TO.N,unconnected-(U1-28_RX7-Pad39)*%
G36*
X169432803Y-70390369D02*
G01*
X169531177Y-70442000D01*
X171233600Y-70442000D01*
X171268955Y-70456645D01*
X171283600Y-70492000D01*
X171283600Y-71508000D01*
X171268955Y-71543355D01*
X171233600Y-71558000D01*
X169531177Y-71558000D01*
X169432803Y-71609631D01*
X169280191Y-71647246D01*
X169123011Y-71647246D01*
X168970399Y-71609631D01*
X168872025Y-71558000D01*
X168693600Y-71558000D01*
X168658245Y-71543355D01*
X168643600Y-71508000D01*
X168643600Y-71330984D01*
X168624284Y-71303000D01*
X168568547Y-71156034D01*
X168549601Y-71000000D01*
X168568547Y-70843966D01*
X168624284Y-70697000D01*
X168643600Y-70669016D01*
X168643600Y-70492000D01*
X168658245Y-70456645D01*
X168693600Y-70442000D01*
X168872025Y-70442000D01*
X168970399Y-70390369D01*
X169123011Y-70352754D01*
X169280191Y-70352754D01*
X169432803Y-70390369D01*
G37*
%TD.AperFunction*%
%TA.AperFunction,ComponentPad*%
%TO.P,U1,40,29_TX7*%
%TO.N,29*%
G36*
X166892801Y-70390369D02*
G01*
X166991175Y-70442000D01*
X167169600Y-70442000D01*
X167204955Y-70456645D01*
X167219600Y-70492000D01*
X167219600Y-70669016D01*
X167238916Y-70697000D01*
X167294653Y-70843966D01*
X167313599Y-71000000D01*
X167294653Y-71156034D01*
X167238916Y-71303000D01*
X167219600Y-71330984D01*
X167219600Y-71508000D01*
X167204955Y-71543355D01*
X167169600Y-71558000D01*
X166991175Y-71558000D01*
X166892801Y-71609631D01*
X166740189Y-71647246D01*
X166583009Y-71647246D01*
X166430397Y-71609631D01*
X166332023Y-71558000D01*
X164629600Y-71558000D01*
X164594245Y-71543355D01*
X164579600Y-71508000D01*
X164579600Y-70492000D01*
X164594245Y-70456645D01*
X164629600Y-70442000D01*
X166332023Y-70442000D01*
X166430397Y-70390369D01*
X166583009Y-70352754D01*
X166740189Y-70352754D01*
X166892801Y-70390369D01*
G37*
%TD.AperFunction*%
%TA.AperFunction,ComponentPad*%
%TO.P,U1,41,30_CRX3*%
%TO.N,30*%
G36*
X169432802Y-72930369D02*
G01*
X169531176Y-72982000D01*
X171233601Y-72982000D01*
X171268956Y-72996645D01*
X171283601Y-73032000D01*
X171283600Y-74048000D01*
X171268955Y-74083355D01*
X171233600Y-74098000D01*
X169531176Y-74098000D01*
X169432802Y-74149631D01*
X169280190Y-74187246D01*
X169123010Y-74187246D01*
X168970398Y-74149631D01*
X168872024Y-74098000D01*
X168693600Y-74098000D01*
X168658245Y-74083355D01*
X168643600Y-74048000D01*
X168643600Y-73870985D01*
X168624283Y-73843000D01*
X168568546Y-73696034D01*
X168549600Y-73540000D01*
X168568546Y-73383966D01*
X168624283Y-73237000D01*
X168643600Y-73209015D01*
X168643599Y-73032000D01*
X168658244Y-72996645D01*
X168693599Y-72982000D01*
X168872024Y-72982000D01*
X168970398Y-72930369D01*
X169123010Y-72892754D01*
X169280190Y-72892754D01*
X169432802Y-72930369D01*
G37*
%TD.AperFunction*%
%TA.AperFunction,ComponentPad*%
%TO.P,U1,42,31_CTX3*%
%TO.N,31*%
G36*
X166892802Y-72930369D02*
G01*
X166991176Y-72982000D01*
X167169600Y-72982000D01*
X167204955Y-72996645D01*
X167219600Y-73032000D01*
X167219600Y-73209015D01*
X167238917Y-73237000D01*
X167294654Y-73383966D01*
X167313600Y-73540000D01*
X167294654Y-73696034D01*
X167238917Y-73843000D01*
X167219600Y-73870985D01*
X167219600Y-74048000D01*
X167204955Y-74083355D01*
X167169600Y-74098000D01*
X166991176Y-74098000D01*
X166892802Y-74149631D01*
X166740190Y-74187246D01*
X166583010Y-74187246D01*
X166430398Y-74149631D01*
X166332024Y-74098000D01*
X164629600Y-74098000D01*
X164594245Y-74083355D01*
X164579600Y-74048000D01*
X164579599Y-73032000D01*
X164594244Y-72996645D01*
X164629599Y-72982000D01*
X166332024Y-72982000D01*
X166430398Y-72930369D01*
X166583010Y-72892754D01*
X166740190Y-72892754D01*
X166892802Y-72930369D01*
G37*
%TD.AperFunction*%
%TA.AperFunction,ComponentPad*%
%TO.P,U1,43,32_OUT1B*%
%TO.N,unconnected-(U1-32_OUT1B-Pad43)*%
G36*
X169432802Y-75470369D02*
G01*
X169531176Y-75522000D01*
X171233600Y-75522000D01*
X171268955Y-75536645D01*
X171283600Y-75572000D01*
X171283600Y-76588000D01*
X171268955Y-76623355D01*
X171233600Y-76638000D01*
X169531176Y-76638000D01*
X169432802Y-76689631D01*
X169280190Y-76727246D01*
X169123010Y-76727246D01*
X168970398Y-76689631D01*
X168872024Y-76638000D01*
X168693600Y-76638000D01*
X168658245Y-76623355D01*
X168643600Y-76588000D01*
X168643600Y-76410985D01*
X168624283Y-76383000D01*
X168568546Y-76236034D01*
X168549600Y-76080000D01*
X168568546Y-75923966D01*
X168624283Y-75777000D01*
X168643600Y-75749015D01*
X168643600Y-75572000D01*
X168658245Y-75536645D01*
X168693600Y-75522000D01*
X168872024Y-75522000D01*
X168970398Y-75470369D01*
X169123010Y-75432754D01*
X169280190Y-75432754D01*
X169432802Y-75470369D01*
G37*
%TD.AperFunction*%
%TA.AperFunction,ComponentPad*%
%TO.P,U1,44,33_MCLK2*%
%TO.N,unconnected-(U1-33_MCLK2-Pad44)*%
G36*
X166892802Y-75470369D02*
G01*
X166991176Y-75522000D01*
X167169600Y-75522000D01*
X167204955Y-75536645D01*
X167219600Y-75572000D01*
X167219600Y-75749015D01*
X167238917Y-75777000D01*
X167294654Y-75923966D01*
X167313600Y-76080000D01*
X167294654Y-76236034D01*
X167238917Y-76383000D01*
X167219600Y-76410985D01*
X167219600Y-76588000D01*
X167204955Y-76623355D01*
X167169600Y-76638000D01*
X166991176Y-76638000D01*
X166892802Y-76689631D01*
X166740190Y-76727246D01*
X166583010Y-76727246D01*
X166430398Y-76689631D01*
X166332024Y-76638000D01*
X164629600Y-76638000D01*
X164594245Y-76623355D01*
X164579600Y-76588000D01*
X164579600Y-75572000D01*
X164594245Y-75536645D01*
X164629600Y-75522000D01*
X166332024Y-75522000D01*
X166430398Y-75470369D01*
X166583010Y-75432754D01*
X166740190Y-75432754D01*
X166892802Y-75470369D01*
G37*
%TD.AperFunction*%
%TD*%
%TO.P,C9,1*%
%TO.N,+5V*%
%TA.AperFunction,SMDPad,CuDef*%
G36*
G01*
X193575000Y-62475000D02*
X193575000Y-61525000D01*
G75*
G02*
X193825000Y-61275000I250000J0D01*
G01*
X194500000Y-61275000D01*
G75*
G02*
X194750000Y-61525000I0J-250000D01*
G01*
X194750000Y-62475000D01*
G75*
G02*
X194500000Y-62725000I-250000J0D01*
G01*
X193825000Y-62725000D01*
G75*
G02*
X193575000Y-62475000I0J250000D01*
G01*
G37*
%TD.AperFunction*%
%TO.P,C9,2*%
%TO.N,GND*%
%TA.AperFunction,SMDPad,CuDef*%
G36*
G01*
X195650000Y-62475000D02*
X195650000Y-61525000D01*
G75*
G02*
X195900000Y-61275000I250000J0D01*
G01*
X196575000Y-61275000D01*
G75*
G02*
X196825000Y-61525000I0J-250000D01*
G01*
X196825000Y-62475000D01*
G75*
G02*
X196575000Y-62725000I-250000J0D01*
G01*
X195900000Y-62725000D01*
G75*
G02*
X195650000Y-62475000I0J250000D01*
G01*
G37*
%TD.AperFunction*%
%TD*%
D13*
%TO.P,,*%
%TO.N,GND*%
X178750000Y-77000000D03*
%TD*%
%TO.P,C8,1*%
%TO.N,+5V*%
%TA.AperFunction,SMDPad,CuDef*%
G36*
G01*
X188550000Y-67050000D02*
X188550000Y-65950000D01*
G75*
G02*
X188800000Y-65700000I250000J0D01*
G01*
X191300000Y-65700000D01*
G75*
G02*
X191550000Y-65950000I0J-250000D01*
G01*
X191550000Y-67050000D01*
G75*
G02*
X191300000Y-67300000I-250000J0D01*
G01*
X188800000Y-67300000D01*
G75*
G02*
X188550000Y-67050000I0J250000D01*
G01*
G37*
%TD.AperFunction*%
%TO.P,C8,2*%
%TO.N,GND*%
%TA.AperFunction,SMDPad,CuDef*%
G36*
G01*
X192950000Y-67050000D02*
X192950000Y-65950000D01*
G75*
G02*
X193200000Y-65700000I250000J0D01*
G01*
X195700000Y-65700000D01*
G75*
G02*
X195950000Y-65950000I0J-250000D01*
G01*
X195950000Y-67050000D01*
G75*
G02*
X195700000Y-67300000I-250000J0D01*
G01*
X193200000Y-67300000D01*
G75*
G02*
X192950000Y-67050000I0J250000D01*
G01*
G37*
%TD.AperFunction*%
%TD*%
D14*
%TO.P,J2,1,1*%
%TO.N,+5V*%
X161149999Y-57400000D03*
%TO.P,J2,2,2*%
%TO.N,PAD_A2*%
X159900000Y-57400000D03*
%TO.P,J2,3,3*%
%TO.N,GND*%
%TA.AperFunction,ComponentPad*%
G36*
G01*
X159049999Y-56950000D02*
X159049999Y-57850000D01*
G75*
G02*
X158849999Y-58050000I-200000J0D01*
G01*
X158449999Y-58050000D01*
G75*
G02*
X158249999Y-57850000I0J200000D01*
G01*
X158249999Y-56950000D01*
G75*
G02*
X158449999Y-56750000I200000J0D01*
G01*
X158849999Y-56750000D01*
G75*
G02*
X159049999Y-56950000I0J-200000D01*
G01*
G37*
%TD.AperFunction*%
%TO.P,J2,4,4*%
%TO.N,PAD_B2*%
X157400000Y-57400000D03*
%TD*%
%TO.P,C5,1*%
%TO.N,+3.3V*%
%TA.AperFunction,SMDPad,CuDef*%
G36*
G01*
X181775000Y-74787500D02*
X182725000Y-74787500D01*
G75*
G02*
X182975000Y-75037500I0J-250000D01*
G01*
X182975000Y-75712500D01*
G75*
G02*
X182725000Y-75962500I-250000J0D01*
G01*
X181775000Y-75962500D01*
G75*
G02*
X181525000Y-75712500I0J250000D01*
G01*
X181525000Y-75037500D01*
G75*
G02*
X181775000Y-74787500I250000J0D01*
G01*
G37*
%TD.AperFunction*%
%TO.P,C5,2*%
%TO.N,GND*%
%TA.AperFunction,SMDPad,CuDef*%
G36*
G01*
X181775000Y-76862500D02*
X182725000Y-76862500D01*
G75*
G02*
X182975000Y-77112500I0J-250000D01*
G01*
X182975000Y-77787500D01*
G75*
G02*
X182725000Y-78037500I-250000J0D01*
G01*
X181775000Y-78037500D01*
G75*
G02*
X181525000Y-77787500I0J250000D01*
G01*
X181525000Y-77112500D01*
G75*
G02*
X181775000Y-76862500I250000J0D01*
G01*
G37*
%TD.AperFunction*%
%TD*%
%TO.P,R3,1*%
%TO.N,Net-(J3-Pin_3)*%
%TA.AperFunction,SMDPad,CuDef*%
G36*
G01*
X189075000Y-62450000D02*
X189075000Y-61550000D01*
G75*
G02*
X189325000Y-61300000I250000J0D01*
G01*
X189850000Y-61300000D01*
G75*
G02*
X190100000Y-61550000I0J-250000D01*
G01*
X190100000Y-62450000D01*
G75*
G02*
X189850000Y-62700000I-250000J0D01*
G01*
X189325000Y-62700000D01*
G75*
G02*
X189075000Y-62450000I0J250000D01*
G01*
G37*
%TD.AperFunction*%
%TO.P,R3,2*%
%TO.N,+5V*%
%TA.AperFunction,SMDPad,CuDef*%
G36*
G01*
X190900000Y-62450000D02*
X190900000Y-61550000D01*
G75*
G02*
X191150000Y-61300000I250000J0D01*
G01*
X191675000Y-61300000D01*
G75*
G02*
X191925000Y-61550000I0J-250000D01*
G01*
X191925000Y-62450000D01*
G75*
G02*
X191675000Y-62700000I-250000J0D01*
G01*
X191150000Y-62700000D01*
G75*
G02*
X190900000Y-62450000I0J250000D01*
G01*
G37*
%TD.AperFunction*%
%TD*%
%TO.P,U5,1,IN*%
%TO.N,+5V*%
%TA.AperFunction,SMDPad,CuDef*%
G36*
G01*
X191800000Y-55799999D02*
X191800000Y-56099999D01*
G75*
G02*
X191650000Y-56249999I-150000J0D01*
G01*
X190625000Y-56249999D01*
G75*
G02*
X190475000Y-56099999I0J150000D01*
G01*
X190475000Y-55799999D01*
G75*
G02*
X190625000Y-55649999I150000J0D01*
G01*
X191650000Y-55649999D01*
G75*
G02*
X191800000Y-55799999I0J-150000D01*
G01*
G37*
%TD.AperFunction*%
%TO.P,U5,2,GND*%
%TO.N,GND*%
%TA.AperFunction,SMDPad,CuDef*%
G36*
G01*
X191800000Y-54850000D02*
X191800000Y-55150000D01*
G75*
G02*
X191650000Y-55300000I-150000J0D01*
G01*
X190625000Y-55300000D01*
G75*
G02*
X190475000Y-55150000I0J150000D01*
G01*
X190475000Y-54850000D01*
G75*
G02*
X190625000Y-54700000I150000J0D01*
G01*
X191650000Y-54700000D01*
G75*
G02*
X191800000Y-54850000I0J-150000D01*
G01*
G37*
%TD.AperFunction*%
%TO.P,U5,3,EN*%
%TO.N,+5V*%
%TA.AperFunction,SMDPad,CuDef*%
G36*
G01*
X191800000Y-53900001D02*
X191800000Y-54200001D01*
G75*
G02*
X191650000Y-54350001I-150000J0D01*
G01*
X190625000Y-54350001D01*
G75*
G02*
X190475000Y-54200001I0J150000D01*
G01*
X190475000Y-53900001D01*
G75*
G02*
X190625000Y-53750001I150000J0D01*
G01*
X191650000Y-53750001D01*
G75*
G02*
X191800000Y-53900001I0J-150000D01*
G01*
G37*
%TD.AperFunction*%
%TO.P,U5,4,NC*%
%TO.N,unconnected-(U5-NC-Pad4)*%
%TA.AperFunction,SMDPad,CuDef*%
G36*
G01*
X189525000Y-53900001D02*
X189525000Y-54200001D01*
G75*
G02*
X189375000Y-54350001I-150000J0D01*
G01*
X188350000Y-54350001D01*
G75*
G02*
X188200000Y-54200001I0J150000D01*
G01*
X188200000Y-53900001D01*
G75*
G02*
X188350000Y-53750001I150000J0D01*
G01*
X189375000Y-53750001D01*
G75*
G02*
X189525000Y-53900001I0J-150000D01*
G01*
G37*
%TD.AperFunction*%
%TO.P,U5,5,OUT*%
%TO.N,+3.3V*%
%TA.AperFunction,SMDPad,CuDef*%
G36*
G01*
X189525000Y-55799999D02*
X189525000Y-56099999D01*
G75*
G02*
X189375000Y-56249999I-150000J0D01*
G01*
X188350000Y-56249999D01*
G75*
G02*
X188200000Y-56099999I0J150000D01*
G01*
X188200000Y-55799999D01*
G75*
G02*
X188350000Y-55649999I150000J0D01*
G01*
X189375000Y-55649999D01*
G75*
G02*
X189525000Y-55799999I0J-150000D01*
G01*
G37*
%TD.AperFunction*%
%TD*%
D15*
%TO.P,SW1,*%
%TO.N,*%
X204030000Y-77790000D03*
X204030000Y-72710000D03*
%TO.P,SW1,1,A*%
%TO.N,Net-(J4-Pin_1)*%
X198950000Y-77790000D03*
%TO.P,SW1,2,B*%
%TO.N,+5V*%
X198950000Y-72710000D03*
%TD*%
%TO.P,R7,1*%
%TO.N,Net-(D3-A)*%
%TA.AperFunction,SMDPad,CuDef*%
G36*
G01*
X143550000Y-58575000D02*
X144450000Y-58575000D01*
G75*
G02*
X144700000Y-58825000I0J-250000D01*
G01*
X144700000Y-59350000D01*
G75*
G02*
X144450000Y-59600000I-250000J0D01*
G01*
X143550000Y-59600000D01*
G75*
G02*
X143300000Y-59350000I0J250000D01*
G01*
X143300000Y-58825000D01*
G75*
G02*
X143550000Y-58575000I250000J0D01*
G01*
G37*
%TD.AperFunction*%
%TO.P,R7,2*%
%TO.N,16*%
%TA.AperFunction,SMDPad,CuDef*%
G36*
G01*
X143550000Y-60400000D02*
X144450000Y-60400000D01*
G75*
G02*
X144700000Y-60650000I0J-250000D01*
G01*
X144700000Y-61175000D01*
G75*
G02*
X144450000Y-61425000I-250000J0D01*
G01*
X143550000Y-61425000D01*
G75*
G02*
X143300000Y-61175000I0J250000D01*
G01*
X143300000Y-60650000D01*
G75*
G02*
X143550000Y-60400000I250000J0D01*
G01*
G37*
%TD.AperFunction*%
%TD*%
%TO.P,J3,1,Pin_1*%
%TO.N,GND*%
%TA.AperFunction,ComponentPad*%
G36*
G01*
X200992500Y-60650000D02*
X202442500Y-60650000D01*
G75*
G02*
X202692500Y-60900000I0J-250000D01*
G01*
X202692500Y-62100000D01*
G75*
G02*
X202442500Y-62350000I-250000J0D01*
G01*
X200992500Y-62350000D01*
G75*
G02*
X200742500Y-62100000I0J250000D01*
G01*
X200742500Y-60900000D01*
G75*
G02*
X200992500Y-60650000I250000J0D01*
G01*
G37*
%TD.AperFunction*%
D16*
%TO.P,J3,2,Pin_2*%
%TO.N,+12V*%
X201717500Y-64000000D03*
%TO.P,J3,3,Pin_3*%
%TO.N,Net-(J3-Pin_3)*%
X201717500Y-66500000D03*
%TD*%
%TO.P,C2,1*%
%TO.N,+12V*%
%TA.AperFunction,SMDPad,CuDef*%
G36*
G01*
X200225000Y-54187500D02*
X201175000Y-54187500D01*
G75*
G02*
X201425000Y-54437500I0J-250000D01*
G01*
X201425000Y-55112500D01*
G75*
G02*
X201175000Y-55362500I-250000J0D01*
G01*
X200225000Y-55362500D01*
G75*
G02*
X199975000Y-55112500I0J250000D01*
G01*
X199975000Y-54437500D01*
G75*
G02*
X200225000Y-54187500I250000J0D01*
G01*
G37*
%TD.AperFunction*%
%TO.P,C2,2*%
%TO.N,GND*%
%TA.AperFunction,SMDPad,CuDef*%
G36*
G01*
X200225000Y-56262500D02*
X201175000Y-56262500D01*
G75*
G02*
X201425000Y-56512500I0J-250000D01*
G01*
X201425000Y-57187500D01*
G75*
G02*
X201175000Y-57437500I-250000J0D01*
G01*
X200225000Y-57437500D01*
G75*
G02*
X199975000Y-57187500I0J250000D01*
G01*
X199975000Y-56512500D01*
G75*
G02*
X200225000Y-56262500I250000J0D01*
G01*
G37*
%TD.AperFunction*%
%TD*%
%TO.P,C3,1*%
%TO.N,+5V*%
%TA.AperFunction,SMDPad,CuDef*%
G36*
G01*
X182475000Y-60087500D02*
X181525000Y-60087500D01*
G75*
G02*
X181275000Y-59837500I0J250000D01*
G01*
X181275000Y-59162500D01*
G75*
G02*
X181525000Y-58912500I250000J0D01*
G01*
X182475000Y-58912500D01*
G75*
G02*
X182725000Y-59162500I0J-250000D01*
G01*
X182725000Y-59837500D01*
G75*
G02*
X182475000Y-60087500I-250000J0D01*
G01*
G37*
%TD.AperFunction*%
%TO.P,C3,2*%
%TO.N,GND*%
%TA.AperFunction,SMDPad,CuDef*%
G36*
G01*
X182475000Y-58012500D02*
X181525000Y-58012500D01*
G75*
G02*
X181275000Y-57762500I0J250000D01*
G01*
X181275000Y-57087500D01*
G75*
G02*
X181525000Y-56837500I250000J0D01*
G01*
X182475000Y-56837500D01*
G75*
G02*
X182725000Y-57087500I0J-250000D01*
G01*
X182725000Y-57762500D01*
G75*
G02*
X182475000Y-58012500I-250000J0D01*
G01*
G37*
%TD.AperFunction*%
%TD*%
%TO.P,D2,1,K*%
%TO.N,GND*%
%TA.AperFunction,SMDPad,CuDef*%
G36*
G01*
X141640000Y-52444999D02*
X141960000Y-52444999D01*
G75*
G02*
X142120000Y-52604999I0J-160000D01*
G01*
X142120000Y-53049999D01*
G75*
G02*
X141960000Y-53209999I-160000J0D01*
G01*
X141640000Y-53209999D01*
G75*
G02*
X141480000Y-53049999I0J160000D01*
G01*
X141480000Y-52604999D01*
G75*
G02*
X141640000Y-52444999I160000J0D01*
G01*
G37*
%TD.AperFunction*%
%TO.P,D2,2,A*%
%TO.N,Net-(D2-A)*%
%TA.AperFunction,SMDPad,CuDef*%
G36*
G01*
X141640000Y-53590001D02*
X141960000Y-53590001D01*
G75*
G02*
X142120000Y-53750001I0J-160000D01*
G01*
X142120000Y-54195001D01*
G75*
G02*
X141960000Y-54355001I-160000J0D01*
G01*
X141640000Y-54355001D01*
G75*
G02*
X141480000Y-54195001I0J160000D01*
G01*
X141480000Y-53750001D01*
G75*
G02*
X141640000Y-53590001I160000J0D01*
G01*
G37*
%TD.AperFunction*%
%TD*%
%TO.P,J5,1,Pin_1*%
%TO.N,/CAN_L*%
%TA.AperFunction,ComponentPad*%
G36*
G01*
X153300000Y-56950000D02*
X153300000Y-57850000D01*
G75*
G02*
X153100000Y-58050000I-200000J0D01*
G01*
X152700000Y-58050000D01*
G75*
G02*
X152500000Y-57850000I0J200000D01*
G01*
X152500000Y-56950000D01*
G75*
G02*
X152700000Y-56750000I200000J0D01*
G01*
X153100000Y-56750000D01*
G75*
G02*
X153300000Y-56950000I0J-200000D01*
G01*
G37*
%TD.AperFunction*%
D14*
%TO.P,J5,2,Pin_2*%
%TO.N,/CAN_H*%
X151650000Y-57400000D03*
%TD*%
%TO.P,J1,1,1*%
%TO.N,+5V*%
X169149999Y-57400000D03*
%TO.P,J1,2,2*%
%TO.N,PAD_A1*%
X167900000Y-57400000D03*
%TO.P,J1,3,3*%
%TO.N,GND*%
%TA.AperFunction,ComponentPad*%
G36*
G01*
X167049999Y-56950000D02*
X167049999Y-57850000D01*
G75*
G02*
X166849999Y-58050000I-200000J0D01*
G01*
X166449999Y-58050000D01*
G75*
G02*
X166249999Y-57850000I0J200000D01*
G01*
X166249999Y-56950000D01*
G75*
G02*
X166449999Y-56750000I200000J0D01*
G01*
X166849999Y-56750000D01*
G75*
G02*
X167049999Y-56950000I0J-200000D01*
G01*
G37*
%TD.AperFunction*%
%TO.P,J1,4,4*%
%TO.N,PAD_B1*%
X165400000Y-57400000D03*
%TD*%
%TO.P,R4,1*%
%TO.N,GND*%
%TA.AperFunction,SMDPad,CuDef*%
G36*
G01*
X184175000Y-55850000D02*
X184175000Y-54950000D01*
G75*
G02*
X184425000Y-54700000I250000J0D01*
G01*
X184950000Y-54700000D01*
G75*
G02*
X185200000Y-54950000I0J-250000D01*
G01*
X185200000Y-55850000D01*
G75*
G02*
X184950000Y-56100000I-250000J0D01*
G01*
X184425000Y-56100000D01*
G75*
G02*
X184175000Y-55850000I0J250000D01*
G01*
G37*
%TD.AperFunction*%
%TO.P,R4,2*%
%TO.N,PAD_TXE*%
%TA.AperFunction,SMDPad,CuDef*%
G36*
G01*
X186000000Y-55850000D02*
X186000000Y-54950000D01*
G75*
G02*
X186250000Y-54700000I250000J0D01*
G01*
X186775000Y-54700000D01*
G75*
G02*
X187025000Y-54950000I0J-250000D01*
G01*
X187025000Y-55850000D01*
G75*
G02*
X186775000Y-56100000I-250000J0D01*
G01*
X186250000Y-56100000D01*
G75*
G02*
X186000000Y-55850000I0J250000D01*
G01*
G37*
%TD.AperFunction*%
%TD*%
%TO.P,C4,1*%
%TO.N,GND*%
%TA.AperFunction,SMDPad,CuDef*%
G36*
G01*
X181775000Y-62375000D02*
X182725000Y-62375000D01*
G75*
G02*
X182975000Y-62625000I0J-250000D01*
G01*
X182975000Y-63300000D01*
G75*
G02*
X182725000Y-63550000I-250000J0D01*
G01*
X181775000Y-63550000D01*
G75*
G02*
X181525000Y-63300000I0J250000D01*
G01*
X181525000Y-62625000D01*
G75*
G02*
X181775000Y-62375000I250000J0D01*
G01*
G37*
%TD.AperFunction*%
%TO.P,C4,2*%
%TO.N,+5V*%
%TA.AperFunction,SMDPad,CuDef*%
G36*
G01*
X181775000Y-64450000D02*
X182725000Y-64450000D01*
G75*
G02*
X182975000Y-64700000I0J-250000D01*
G01*
X182975000Y-65375000D01*
G75*
G02*
X182725000Y-65625000I-250000J0D01*
G01*
X181775000Y-65625000D01*
G75*
G02*
X181525000Y-65375000I0J250000D01*
G01*
X181525000Y-64700000D01*
G75*
G02*
X181775000Y-64450000I250000J0D01*
G01*
G37*
%TD.AperFunction*%
%TD*%
%TO.P,R5,1*%
%TO.N,Net-(D1-A)*%
%TA.AperFunction,SMDPad,CuDef*%
G36*
G01*
X147550000Y-58575000D02*
X148450000Y-58575000D01*
G75*
G02*
X148700000Y-58825000I0J-250000D01*
G01*
X148700000Y-59350000D01*
G75*
G02*
X148450000Y-59600000I-250000J0D01*
G01*
X147550000Y-59600000D01*
G75*
G02*
X147300000Y-59350000I0J250000D01*
G01*
X147300000Y-58825000D01*
G75*
G02*
X147550000Y-58575000I250000J0D01*
G01*
G37*
%TD.AperFunction*%
%TO.P,R5,2*%
%TO.N,14*%
%TA.AperFunction,SMDPad,CuDef*%
G36*
G01*
X147550000Y-60400000D02*
X148450000Y-60400000D01*
G75*
G02*
X148700000Y-60650000I0J-250000D01*
G01*
X148700000Y-61175000D01*
G75*
G02*
X148450000Y-61425000I-250000J0D01*
G01*
X147550000Y-61425000D01*
G75*
G02*
X147300000Y-61175000I0J250000D01*
G01*
X147300000Y-60650000D01*
G75*
G02*
X147550000Y-60400000I250000J0D01*
G01*
G37*
%TD.AperFunction*%
%TD*%
D13*
%TO.P,,*%
%TO.N,GND*%
X174000000Y-56000000D03*
%TD*%
%TO.P,U3,1,1!OE*%
%TO.N,PAD_TXE*%
%TA.AperFunction,SMDPad,CuDef*%
G36*
G01*
X185575000Y-62925000D02*
X185425000Y-62925000D01*
G75*
G02*
X185350000Y-62850000I0J75000D01*
G01*
X185350000Y-61550000D01*
G75*
G02*
X185425000Y-61475000I75000J0D01*
G01*
X185575000Y-61475000D01*
G75*
G02*
X185650000Y-61550000I0J-75000D01*
G01*
X185650000Y-62850000D01*
G75*
G02*
X185575000Y-62925000I-75000J0D01*
G01*
G37*
%TD.AperFunction*%
%TO.P,U3,2,1A*%
%TO.N,Net-(J3-Pin_3)*%
%TA.AperFunction,SMDPad,CuDef*%
G36*
G01*
X186075001Y-62925000D02*
X185925001Y-62925000D01*
G75*
G02*
X185850001Y-62850000I0J75000D01*
G01*
X185850001Y-61550000D01*
G75*
G02*
X185925001Y-61475000I75000J0D01*
G01*
X186075001Y-61475000D01*
G75*
G02*
X186150001Y-61550000I0J-75000D01*
G01*
X186150001Y-62850000D01*
G75*
G02*
X186075001Y-62925000I-75000J0D01*
G01*
G37*
%TD.AperFunction*%
%TO.P,U3,3,2Y*%
%TA.AperFunction,SMDPad,CuDef*%
G36*
G01*
X186575000Y-62925000D02*
X186425000Y-62925000D01*
G75*
G02*
X186350000Y-62850000I0J75000D01*
G01*
X186350000Y-61550000D01*
G75*
G02*
X186425000Y-61475000I75000J0D01*
G01*
X186575000Y-61475000D01*
G75*
G02*
X186650000Y-61550000I0J-75000D01*
G01*
X186650000Y-62850000D01*
G75*
G02*
X186575000Y-62925000I-75000J0D01*
G01*
G37*
%TD.AperFunction*%
%TO.P,U3,4,GND*%
%TO.N,GND*%
%TA.AperFunction,SMDPad,CuDef*%
G36*
G01*
X187074999Y-62925000D02*
X186924999Y-62925000D01*
G75*
G02*
X186849999Y-62850000I0J75000D01*
G01*
X186849999Y-61550000D01*
G75*
G02*
X186924999Y-61475000I75000J0D01*
G01*
X187074999Y-61475000D01*
G75*
G02*
X187149999Y-61550000I0J-75000D01*
G01*
X187149999Y-62850000D01*
G75*
G02*
X187074999Y-62925000I-75000J0D01*
G01*
G37*
%TD.AperFunction*%
%TO.P,U3,5,2A*%
%TO.N,PAD_TX*%
%TA.AperFunction,SMDPad,CuDef*%
G36*
G01*
X187575000Y-62925000D02*
X187425000Y-62925000D01*
G75*
G02*
X187350000Y-62850000I0J75000D01*
G01*
X187350000Y-61550000D01*
G75*
G02*
X187425000Y-61475000I75000J0D01*
G01*
X187575000Y-61475000D01*
G75*
G02*
X187650000Y-61550000I0J-75000D01*
G01*
X187650000Y-62850000D01*
G75*
G02*
X187575000Y-62925000I-75000J0D01*
G01*
G37*
%TD.AperFunction*%
%TO.P,U3,6,1Y*%
%TO.N,PAD_RX*%
%TA.AperFunction,SMDPad,CuDef*%
G36*
G01*
X187575000Y-58525000D02*
X187425000Y-58525000D01*
G75*
G02*
X187350000Y-58450000I0J75000D01*
G01*
X187350000Y-57150000D01*
G75*
G02*
X187425000Y-57075000I75000J0D01*
G01*
X187575000Y-57075000D01*
G75*
G02*
X187650000Y-57150000I0J-75000D01*
G01*
X187650000Y-58450000D01*
G75*
G02*
X187575000Y-58525000I-75000J0D01*
G01*
G37*
%TD.AperFunction*%
%TO.P,U3,7,2OE*%
%TO.N,PAD_TXE*%
%TA.AperFunction,SMDPad,CuDef*%
G36*
G01*
X187074999Y-58525000D02*
X186924999Y-58525000D01*
G75*
G02*
X186849999Y-58450000I0J75000D01*
G01*
X186849999Y-57150000D01*
G75*
G02*
X186924999Y-57075000I75000J0D01*
G01*
X187074999Y-57075000D01*
G75*
G02*
X187149999Y-57150000I0J-75000D01*
G01*
X187149999Y-58450000D01*
G75*
G02*
X187074999Y-58525000I-75000J0D01*
G01*
G37*
%TD.AperFunction*%
%TO.P,U3,8,VCC*%
%TO.N,+5V*%
%TA.AperFunction,SMDPad,CuDef*%
G36*
G01*
X186575000Y-58525000D02*
X186425000Y-58525000D01*
G75*
G02*
X186350000Y-58450000I0J75000D01*
G01*
X186350000Y-57150000D01*
G75*
G02*
X186425000Y-57075000I75000J0D01*
G01*
X186575000Y-57075000D01*
G75*
G02*
X186650000Y-57150000I0J-75000D01*
G01*
X186650000Y-58450000D01*
G75*
G02*
X186575000Y-58525000I-75000J0D01*
G01*
G37*
%TD.AperFunction*%
%TO.P,U3,9*%
%TO.N,N/C*%
%TA.AperFunction,SMDPad,CuDef*%
G36*
G01*
X186075001Y-58525000D02*
X185925001Y-58525000D01*
G75*
G02*
X185850001Y-58450000I0J75000D01*
G01*
X185850001Y-57150000D01*
G75*
G02*
X185925001Y-57075000I75000J0D01*
G01*
X186075001Y-57075000D01*
G75*
G02*
X186150001Y-57150000I0J-75000D01*
G01*
X186150001Y-58450000D01*
G75*
G02*
X186075001Y-58525000I-75000J0D01*
G01*
G37*
%TD.AperFunction*%
%TO.P,U3,10*%
%TA.AperFunction,SMDPad,CuDef*%
G36*
G01*
X185575000Y-58525000D02*
X185425000Y-58525000D01*
G75*
G02*
X185350000Y-58450000I0J75000D01*
G01*
X185350000Y-57150000D01*
G75*
G02*
X185425000Y-57075000I75000J0D01*
G01*
X185575000Y-57075000D01*
G75*
G02*
X185650000Y-57150000I0J-75000D01*
G01*
X185650000Y-58450000D01*
G75*
G02*
X185575000Y-58525000I-75000J0D01*
G01*
G37*
%TD.AperFunction*%
%TD*%
%TO.P,C7,1*%
%TO.N,+5V*%
%TA.AperFunction,SMDPad,CuDef*%
G36*
G01*
X141975000Y-61625000D02*
X141025000Y-61625000D01*
G75*
G02*
X140775000Y-61375000I0J250000D01*
G01*
X140775000Y-60700000D01*
G75*
G02*
X141025000Y-60450000I250000J0D01*
G01*
X141975000Y-60450000D01*
G75*
G02*
X142225000Y-60700000I0J-250000D01*
G01*
X142225000Y-61375000D01*
G75*
G02*
X141975000Y-61625000I-250000J0D01*
G01*
G37*
%TD.AperFunction*%
%TO.P,C7,2*%
%TO.N,GND*%
%TA.AperFunction,SMDPad,CuDef*%
G36*
G01*
X141975000Y-59550000D02*
X141025000Y-59550000D01*
G75*
G02*
X140775000Y-59300000I0J250000D01*
G01*
X140775000Y-58625000D01*
G75*
G02*
X141025000Y-58375000I250000J0D01*
G01*
X141975000Y-58375000D01*
G75*
G02*
X142225000Y-58625000I0J-250000D01*
G01*
X142225000Y-59300000D01*
G75*
G02*
X141975000Y-59550000I-250000J0D01*
G01*
G37*
%TD.AperFunction*%
%TD*%
%TO.P,,*%
%TO.N,GND*%
X146000000Y-56000000D03*
%TD*%
%TO.P,R6,1*%
%TO.N,Net-(D2-A)*%
%TA.AperFunction,SMDPad,CuDef*%
G36*
G01*
X145550000Y-58575000D02*
X146450000Y-58575000D01*
G75*
G02*
X146700000Y-58825000I0J-250000D01*
G01*
X146700000Y-59350000D01*
G75*
G02*
X146450000Y-59600000I-250000J0D01*
G01*
X145550000Y-59600000D01*
G75*
G02*
X145300000Y-59350000I0J250000D01*
G01*
X145300000Y-58825000D01*
G75*
G02*
X145550000Y-58575000I250000J0D01*
G01*
G37*
%TD.AperFunction*%
%TO.P,R6,2*%
%TO.N,15*%
%TA.AperFunction,SMDPad,CuDef*%
G36*
G01*
X145550000Y-60400000D02*
X146450000Y-60400000D01*
G75*
G02*
X146700000Y-60650000I0J-250000D01*
G01*
X146700000Y-61175000D01*
G75*
G02*
X146450000Y-61425000I-250000J0D01*
G01*
X145550000Y-61425000D01*
G75*
G02*
X145300000Y-61175000I0J250000D01*
G01*
X145300000Y-60650000D01*
G75*
G02*
X145550000Y-60400000I250000J0D01*
G01*
G37*
%TD.AperFunction*%
%TD*%
D17*
%TO.P,J4,1,Pin_1*%
%TO.N,Net-(J4-Pin_1)*%
X203900000Y-56500000D03*
%TO.P,J4,2,Pin_2*%
%TO.N,GND*%
%TA.AperFunction,ComponentPad*%
G36*
G01*
X204350000Y-55650001D02*
X203450000Y-55650001D01*
G75*
G02*
X203250000Y-55450001I0J200000D01*
G01*
X203250000Y-55050001D01*
G75*
G02*
X203450000Y-54850001I200000J0D01*
G01*
X204350000Y-54850001D01*
G75*
G02*
X204550000Y-55050001I0J-200000D01*
G01*
X204550000Y-55450001D01*
G75*
G02*
X204350000Y-55650001I-200000J0D01*
G01*
G37*
%TD.AperFunction*%
%TO.P,J4,3,Pin_3*%
%TO.N,+12V*%
X203900000Y-54000000D03*
%TD*%
D18*
%TO.P,SW4,*%
%TO.N,*%
X189500000Y-75500000D03*
X196500000Y-75500000D03*
%TO.P,SW4,1,1*%
%TO.N,GND*%
X190500000Y-78000000D03*
%TO.P,SW4,2,2*%
%TO.N,9*%
X195500000Y-78000000D03*
%TD*%
%TO.P,D3,1,K*%
%TO.N,GND*%
%TA.AperFunction,SMDPad,CuDef*%
G36*
G01*
X140640000Y-52444999D02*
X140960000Y-52444999D01*
G75*
G02*
X141120000Y-52604999I0J-160000D01*
G01*
X141120000Y-53049999D01*
G75*
G02*
X140960000Y-53209999I-160000J0D01*
G01*
X140640000Y-53209999D01*
G75*
G02*
X140480000Y-53049999I0J160000D01*
G01*
X140480000Y-52604999D01*
G75*
G02*
X140640000Y-52444999I160000J0D01*
G01*
G37*
%TD.AperFunction*%
%TO.P,D3,2,A*%
%TO.N,Net-(D3-A)*%
%TA.AperFunction,SMDPad,CuDef*%
G36*
G01*
X140640000Y-53590001D02*
X140960000Y-53590001D01*
G75*
G02*
X141120000Y-53750001I0J-160000D01*
G01*
X141120000Y-54195001D01*
G75*
G02*
X140960000Y-54355001I-160000J0D01*
G01*
X140640000Y-54355001D01*
G75*
G02*
X140480000Y-54195001I0J160000D01*
G01*
X140480000Y-53750001D01*
G75*
G02*
X140640000Y-53590001I160000J0D01*
G01*
G37*
%TD.AperFunction*%
%TD*%
%TO.P,R1,1*%
%TO.N,GND*%
%TA.AperFunction,SMDPad,CuDef*%
G36*
G01*
X187450001Y-77837500D02*
X186550001Y-77837500D01*
G75*
G02*
X186300001Y-77587500I0J250000D01*
G01*
X186300001Y-77062500D01*
G75*
G02*
X186550001Y-76812500I250000J0D01*
G01*
X187450001Y-76812500D01*
G75*
G02*
X187700001Y-77062500I0J-250000D01*
G01*
X187700001Y-77587500D01*
G75*
G02*
X187450001Y-77837500I-250000J0D01*
G01*
G37*
%TD.AperFunction*%
%TO.P,R1,2*%
%TO.N,4*%
%TA.AperFunction,SMDPad,CuDef*%
G36*
G01*
X187450001Y-76012500D02*
X186550001Y-76012500D01*
G75*
G02*
X186300001Y-75762500I0J250000D01*
G01*
X186300001Y-75237500D01*
G75*
G02*
X186550001Y-74987500I250000J0D01*
G01*
X187450001Y-74987500D01*
G75*
G02*
X187700001Y-75237500I0J-250000D01*
G01*
X187700001Y-75762500D01*
G75*
G02*
X187450001Y-76012500I-250000J0D01*
G01*
G37*
%TD.AperFunction*%
%TD*%
%TO.P,R2,1*%
%TO.N,PAD_RX*%
%TA.AperFunction,SMDPad,CuDef*%
G36*
G01*
X189075000Y-60450000D02*
X189075000Y-59550000D01*
G75*
G02*
X189325000Y-59300000I250000J0D01*
G01*
X189850000Y-59300000D01*
G75*
G02*
X190100000Y-59550000I0J-250000D01*
G01*
X190100000Y-60450000D01*
G75*
G02*
X189850000Y-60700000I-250000J0D01*
G01*
X189325000Y-60700000D01*
G75*
G02*
X189075000Y-60450000I0J250000D01*
G01*
G37*
%TD.AperFunction*%
%TO.P,R2,2*%
%TO.N,+5V*%
%TA.AperFunction,SMDPad,CuDef*%
G36*
G01*
X190900000Y-60450000D02*
X190900000Y-59550000D01*
G75*
G02*
X191150000Y-59300000I250000J0D01*
G01*
X191675000Y-59300000D01*
G75*
G02*
X191925000Y-59550000I0J-250000D01*
G01*
X191925000Y-60450000D01*
G75*
G02*
X191675000Y-60700000I-250000J0D01*
G01*
X191150000Y-60700000D01*
G75*
G02*
X190900000Y-60450000I0J250000D01*
G01*
G37*
%TD.AperFunction*%
%TD*%
D13*
%TO.P,U4,*%
%TO.N,*%
X194220000Y-71620000D03*
X194220000Y-56380000D03*
D19*
%TO.P,U4,1,Vcc*%
%TO.N,/CAN_L*%
X178980000Y-56380000D03*
%TO.P,U4,2,GND*%
%TO.N,/CAN_H*%
X178980000Y-58920000D03*
%TO.P,U4,3,RX*%
%TO.N,29*%
X178980000Y-61460000D03*
%TO.P,U4,4,TX*%
%TO.N,31*%
X178980000Y-64000000D03*
%TO.P,U4,5,SLNT*%
%TO.N,30*%
X178980000Y-66540000D03*
%TO.P,U4,6,CANH*%
%TO.N,GND*%
%TA.AperFunction,ComponentPad*%
G36*
G01*
X178091000Y-69719000D02*
X178091000Y-68441000D01*
G75*
G02*
X178341000Y-68191000I250000J0D01*
G01*
X179619000Y-68191000D01*
G75*
G02*
X179869000Y-68441000I0J-250000D01*
G01*
X179869000Y-69719000D01*
G75*
G02*
X179619000Y-69969000I-250000J0D01*
G01*
X178341000Y-69969000D01*
G75*
G02*
X178091000Y-69719000I0J250000D01*
G01*
G37*
%TD.AperFunction*%
%TO.P,U4,7,CANL*%
%TO.N,+3.3V*%
X178980000Y-71620000D03*
%TD*%
D20*
%TO.N,GND*%
X163250000Y-52550000D03*
X162000000Y-54000000D03*
X176800000Y-57000000D03*
X141500000Y-58200000D03*
X182250000Y-78550000D03*
X182250000Y-61850000D03*
X152250000Y-53850000D03*
X187500000Y-65800000D03*
X192650000Y-54250000D03*
X177050000Y-67850000D03*
X178850000Y-54350000D03*
X183600000Y-56800000D03*
X177050000Y-72900000D03*
X143800000Y-54400000D03*
X176800000Y-58700000D03*
X176850000Y-60259000D03*
X196050000Y-65450000D03*
X186800000Y-63800000D03*
X175550000Y-71450000D03*
X196250000Y-60900000D03*
X175600000Y-66400000D03*
%TO.N,+5V*%
X184000000Y-61200000D03*
X191400000Y-58600000D03*
X142800000Y-60050000D03*
%TO.N,Net-(J3-Pin_3)*%
X189200000Y-63800000D03*
%TO.N,4*%
X185400000Y-79400000D03*
%TO.N,PAD_TXE*%
X186400000Y-56400000D03*
X185350001Y-63800000D03*
%TO.N,RX1*%
X183700000Y-68800000D03*
%TO.N,TX1*%
X186000000Y-71400000D03*
%TO.N,21*%
X185319100Y-71400000D03*
%TO.N,PAD_B1*%
X175700000Y-65415600D03*
X175200000Y-59815600D03*
X182600000Y-68700000D03*
%TO.N,PAD_A1*%
X172150000Y-58200000D03*
X168500000Y-56400000D03*
X172082267Y-61039392D03*
X172250000Y-66500000D03*
X168600000Y-55000000D03*
X170950000Y-59400000D03*
X181350000Y-71000000D03*
%TO.N,PAD_A2*%
X180850000Y-63650000D03*
X180850000Y-62150000D03*
X173163967Y-60190999D03*
X183300000Y-65800000D03*
%TO.N,PAD_B2*%
X172638462Y-60611538D03*
X184050000Y-65800000D03*
%TO.N,16*%
X149800000Y-62011000D03*
X142900000Y-61850000D03*
%TO.N,1*%
X191400000Y-74401004D03*
X182850777Y-74344726D03*
%TO.N,2*%
X183400000Y-79827200D03*
X183708276Y-77598476D03*
%TO.N,0*%
X188400000Y-73200000D03*
X180600000Y-73600000D03*
%TO.N,9*%
X183400000Y-79000000D03*
%TD*%
D21*
%TO.N,PAD_B1*%
X175200000Y-59815600D02*
X175284400Y-59900000D01*
X175950000Y-59900000D02*
X176100000Y-60050000D01*
X175284400Y-59900000D02*
X175950000Y-59900000D01*
X176100000Y-60050000D02*
X176100000Y-65015600D01*
X176100000Y-65015600D02*
X175700000Y-65415600D01*
D22*
%TO.N,PAD_B2*%
X172638462Y-60611538D02*
X172550716Y-60523792D01*
X172550716Y-60523792D02*
X160170592Y-60523792D01*
X160170592Y-60523792D02*
X157400000Y-57753200D01*
X157400000Y-57753200D02*
X157400000Y-57400000D01*
%TO.N,29*%
X166661599Y-71000000D02*
X168050000Y-69611599D01*
X173905600Y-61844400D02*
X173905600Y-59694400D01*
X168050000Y-69611599D02*
X168050000Y-67450000D01*
X173199200Y-62550800D02*
X173905600Y-61844400D01*
X168050000Y-67450000D02*
X168400000Y-67100000D01*
X168400000Y-67100000D02*
X172900000Y-67100000D01*
X173905600Y-59694400D02*
X174300000Y-59300000D01*
X172900000Y-67100000D02*
X173199200Y-66800800D01*
X173199200Y-66800800D02*
X173199200Y-62550800D01*
X174300000Y-59300000D02*
X176820000Y-59300000D01*
X176820000Y-59300000D02*
X178980000Y-61460000D01*
D23*
%TO.N,GND*%
X176800000Y-58700000D02*
X176800000Y-55100000D01*
X176800000Y-55100000D02*
X177550000Y-54350000D01*
X177550000Y-54350000D02*
X178850000Y-54350000D01*
D21*
%TO.N,PAD_A2*%
X173163967Y-60190999D02*
X173028268Y-60055300D01*
X173028268Y-60055300D02*
X162151300Y-60055300D01*
X162151300Y-60055300D02*
X159900000Y-57804000D01*
X159900000Y-57804000D02*
X159900000Y-57400000D01*
%TO.N,GND*%
X187500000Y-65800000D02*
X187300000Y-66000000D01*
X187300000Y-66000000D02*
X187300000Y-67260000D01*
X186800000Y-63800000D02*
X186999999Y-63600001D01*
X186999999Y-63600001D02*
X186999999Y-62200000D01*
%TO.N,PAD_B2*%
X184050000Y-67260000D02*
X184050000Y-65800000D01*
D22*
%TO.N,RX1*%
X184900000Y-70600000D02*
X184700000Y-70800000D01*
X184900000Y-70000000D02*
X184900000Y-70600000D01*
X184700000Y-70800000D02*
X184700000Y-73000000D01*
X183700000Y-68800000D02*
X184900000Y-70000000D01*
%TO.N,TX1*%
X186000000Y-71400000D02*
X186000000Y-73000000D01*
D24*
%TO.N,4*%
X185400000Y-79400000D02*
X185400000Y-76200000D01*
X185400000Y-76200000D02*
X186100000Y-75500000D01*
X186100000Y-75500000D02*
X187000001Y-75500000D01*
%TO.N,9*%
X183400000Y-79000000D02*
X184381200Y-79981200D01*
X184381200Y-79981200D02*
X185938800Y-79981200D01*
X185938800Y-79981200D02*
X186660000Y-79260000D01*
X186660000Y-79260000D02*
X194240000Y-79260000D01*
X194240000Y-79260000D02*
X195500000Y-78000000D01*
D25*
%TO.N,2*%
X183400000Y-79827200D02*
X183262200Y-79965000D01*
X150226600Y-79965000D02*
X148881600Y-78620000D01*
X183262200Y-79965000D02*
X150226600Y-79965000D01*
%TO.N,3*%
X151421600Y-78620000D02*
X152399800Y-79598200D01*
X152399800Y-79598200D02*
X182074653Y-79598200D01*
X182074653Y-79598200D02*
X183584177Y-78088676D01*
X184600000Y-75440788D02*
X184050000Y-74890788D01*
X183584177Y-78088676D02*
X183911324Y-78088676D01*
X183911324Y-78088676D02*
X184600000Y-77400000D01*
X184600000Y-77400000D02*
X184600000Y-75440788D01*
X184050000Y-74890788D02*
X184050000Y-73000000D01*
%TO.N,2*%
X183708276Y-77598476D02*
X183708276Y-74708276D01*
X183708276Y-74708276D02*
X183399999Y-74399999D01*
X183399999Y-74399999D02*
X183399999Y-73000000D01*
D26*
%TO.N,+5V*%
X193924400Y-53000000D02*
X171600000Y-53000000D01*
X170345000Y-54255000D02*
X170345000Y-56204999D01*
X171600000Y-53000000D02*
X170345000Y-54255000D01*
X170345000Y-56204999D02*
X169149999Y-57400000D01*
X195700000Y-53000000D02*
X193924400Y-53000000D01*
X194162500Y-61137500D02*
X194162500Y-62000000D01*
X197100000Y-54400000D02*
X195700000Y-53000000D01*
X197100000Y-54400000D02*
X197100000Y-58200000D01*
X197100000Y-58200000D02*
X194162500Y-61137500D01*
D27*
%TO.N,GND*%
X163250000Y-52550000D02*
X163250000Y-52750000D01*
X163250000Y-52750000D02*
X162000000Y-54000000D01*
D23*
X166149999Y-56250000D02*
X163000000Y-56250000D01*
X163000000Y-56250000D02*
X159314000Y-56250000D01*
D27*
X162000000Y-54000000D02*
X162000000Y-55250000D01*
X162000000Y-55250000D02*
X163000000Y-56250000D01*
D21*
%TO.N,PAD_A1*%
X168500000Y-56400000D02*
X168600000Y-56300000D01*
X168600000Y-56300000D02*
X168600000Y-55000000D01*
D23*
%TO.N,GND*%
X177050000Y-72900000D02*
X178150000Y-72900000D01*
X178150000Y-72900000D02*
X181111000Y-75861000D01*
X181111000Y-75861000D02*
X181111000Y-76311000D01*
X181111000Y-76311000D02*
X182250000Y-77450000D01*
D26*
X182625000Y-56800000D02*
X182000000Y-57425000D01*
X189825000Y-77325000D02*
X190500000Y-78000000D01*
D24*
X143000000Y-52935000D02*
X142000000Y-52935000D01*
X143800000Y-53535001D02*
X143199999Y-52935000D01*
X143199999Y-52935000D02*
X143000000Y-52935000D01*
D23*
X158649999Y-56914001D02*
X158649999Y-57400000D01*
D26*
X184687500Y-55400000D02*
X184687500Y-55712500D01*
X202299999Y-55250001D02*
X203900000Y-55250001D01*
D23*
X166649999Y-57400000D02*
X166649999Y-56750000D01*
X177041001Y-67858999D02*
X177041001Y-69958999D01*
D24*
X143800000Y-54400000D02*
X143800000Y-53535001D01*
D26*
X195500000Y-65450000D02*
X194450000Y-66500000D01*
X182250000Y-62962500D02*
X182250000Y-61850000D01*
D23*
X177050000Y-67850000D02*
X177041001Y-67858999D01*
D26*
X187000001Y-77325000D02*
X189825000Y-77325000D01*
D27*
X191900000Y-55000000D02*
X192650000Y-54250000D01*
D23*
X155749999Y-53850000D02*
X152250000Y-53850000D01*
D26*
X196237500Y-60912500D02*
X196250000Y-60900000D01*
D23*
X177041001Y-69958999D02*
X175550000Y-71450000D01*
X176850000Y-60259000D02*
X176850000Y-65210295D01*
X166649999Y-56750000D02*
X166149999Y-56250000D01*
X159314000Y-56250000D02*
X158649999Y-56914001D01*
X158649999Y-57400000D02*
X158649999Y-56750000D01*
D26*
X183600000Y-56800000D02*
X182625000Y-56800000D01*
X182250000Y-78550000D02*
X182250000Y-77450000D01*
X196050000Y-65450000D02*
X195500000Y-65450000D01*
X196237500Y-62000000D02*
X196237500Y-60912500D01*
D27*
X191137500Y-55000000D02*
X191900000Y-55000000D01*
D26*
X200700000Y-56850000D02*
X202299999Y-55250001D01*
D23*
X141500000Y-58200000D02*
X141500000Y-58962500D01*
X175660295Y-66400000D02*
X175600000Y-66400000D01*
D24*
X142000000Y-52935000D02*
X141000000Y-52935000D01*
D23*
X176850000Y-65210295D02*
X175660295Y-66400000D01*
D26*
X184687500Y-55712500D02*
X183600000Y-56800000D01*
D28*
%TO.N,+12V*%
X203900000Y-54000000D02*
X200600000Y-54000000D01*
X198800000Y-55800000D02*
X198800000Y-63000000D01*
X198800000Y-63000000D02*
X199800000Y-64000000D01*
X200600000Y-54000000D02*
X198800000Y-55800000D01*
X199800000Y-64000000D02*
X201717500Y-64000000D01*
D26*
%TO.N,+5V*%
X141812500Y-61037500D02*
X142800000Y-60050000D01*
X191412500Y-62000000D02*
X191412500Y-65137500D01*
D23*
X189800000Y-54816658D02*
X189800000Y-55183342D01*
D29*
X141500000Y-61100000D02*
X141261600Y-61338400D01*
D23*
X189800000Y-54816658D02*
X191616658Y-53000000D01*
X190566657Y-55949999D02*
X191137500Y-55949999D01*
D30*
X195800000Y-68800000D02*
X192350000Y-68800000D01*
X198950000Y-72710000D02*
X198950000Y-71950000D01*
D23*
X191137500Y-54050001D02*
X190566657Y-54050001D01*
D30*
X192350000Y-68800000D02*
X190050000Y-66500000D01*
D29*
X141500000Y-61037500D02*
X141500000Y-61100000D01*
D30*
X190050000Y-66500000D02*
X191400000Y-65150000D01*
X194162500Y-62387500D02*
X190050000Y-66500000D01*
D26*
X191400000Y-61987500D02*
X191412500Y-62000000D01*
X141500000Y-61037500D02*
X141812500Y-61037500D01*
D21*
X186500000Y-58595593D02*
X185595593Y-59500000D01*
D26*
X184000000Y-61200000D02*
X183700000Y-61200000D01*
D23*
X189800000Y-55183342D02*
X190566657Y-55949999D01*
D27*
X182100001Y-67260000D02*
X182100001Y-65187499D01*
D23*
X190566657Y-54050001D02*
X189800000Y-54816658D01*
D26*
X191412500Y-65137500D02*
X190050000Y-66500000D01*
D30*
X198950000Y-71950000D02*
X195800000Y-68800000D01*
D26*
X191400000Y-58600000D02*
X191400000Y-61987500D01*
X184000000Y-63287500D02*
X184000000Y-61200000D01*
D29*
X141261600Y-61338400D02*
X141261600Y-63380000D01*
D23*
X141500000Y-63141600D02*
X141261600Y-63380000D01*
D29*
X141500000Y-61100000D02*
X141200000Y-61400000D01*
D23*
X191616658Y-53000000D02*
X193924400Y-53000000D01*
D26*
X183700000Y-61200000D02*
X182000000Y-59500000D01*
D27*
X182100001Y-65187499D02*
X182250000Y-65037500D01*
D21*
X185595593Y-59500000D02*
X182000000Y-59500000D01*
X186500000Y-57800000D02*
X186500000Y-58595593D01*
D30*
X194162500Y-62000000D02*
X194162500Y-62387500D01*
D26*
X182250000Y-65037500D02*
X184000000Y-63287500D01*
D31*
%TO.N,+3.3V*%
X187600000Y-53800000D02*
X183200000Y-53800000D01*
X187800000Y-54000000D02*
X187600000Y-53800000D01*
X182100001Y-72190233D02*
X181529768Y-71620000D01*
X182100001Y-73000000D02*
X182100001Y-75225001D01*
X188862500Y-55949999D02*
X187800000Y-54887499D01*
X183200000Y-53800000D02*
X180221400Y-56778600D01*
X182100001Y-73000000D02*
X182100001Y-72190233D01*
X180221400Y-56778600D02*
X180221400Y-70378600D01*
X181529768Y-71620000D02*
X178980000Y-71620000D01*
X180221400Y-70378600D02*
X178980000Y-71620000D01*
X182100001Y-75225001D02*
X182250000Y-75375000D01*
X187800000Y-54887499D02*
X187800000Y-54000000D01*
D24*
%TO.N,Net-(D1-A)*%
X144354000Y-54446000D02*
X145000000Y-53800000D01*
X144354000Y-54629475D02*
X144354000Y-54446000D01*
X148000000Y-54600000D02*
X148000000Y-59087500D01*
X147200000Y-53800000D02*
X148000000Y-54600000D01*
X145000000Y-53800000D02*
X147200000Y-53800000D01*
X143570525Y-54954000D02*
X144029475Y-54954000D01*
X144029475Y-54954000D02*
X144354000Y-54629475D01*
X143000000Y-53750000D02*
X143000000Y-54383475D01*
X143000000Y-54383475D02*
X143570525Y-54954000D01*
%TO.N,Net-(D2-A)*%
X142000000Y-55087500D02*
X146000000Y-59087500D01*
X142000000Y-53750000D02*
X142000000Y-55087500D01*
%TO.N,Net-(D3-A)*%
X141000000Y-56087500D02*
X144000000Y-59087500D01*
X141000000Y-53750000D02*
X141000000Y-56087500D01*
D21*
%TO.N,Net-(J3-Pin_3)*%
X186000001Y-61399999D02*
X186000001Y-62200000D01*
X186800000Y-61148000D02*
X186252000Y-61148000D01*
X186500000Y-61404407D02*
X186756407Y-61148000D01*
X188735500Y-61148000D02*
X186800000Y-61148000D01*
X189587500Y-63412500D02*
X189200000Y-63800000D01*
X186252000Y-61148000D02*
X186000001Y-61399999D01*
X186500000Y-62200000D02*
X186500000Y-61404407D01*
X186756407Y-61148000D02*
X186800000Y-61148000D01*
X189587500Y-62000000D02*
X189587500Y-63412500D01*
X189587500Y-62000000D02*
X188735500Y-61148000D01*
D30*
%TO.N,Net-(J4-Pin_1)*%
X203900000Y-69963345D02*
X203900000Y-56500000D01*
X198950000Y-74913345D02*
X203900000Y-69963345D01*
X198950000Y-77790000D02*
X198950000Y-74913345D01*
D24*
%TO.N,4*%
X187300000Y-75200001D02*
X187000001Y-75500000D01*
X187300000Y-73000000D02*
X187300000Y-75200001D01*
D21*
%TO.N,PAD_RX*%
X189587500Y-60000000D02*
X186404408Y-60000000D01*
X188600000Y-60000000D02*
X187500000Y-58900000D01*
X189587500Y-60000000D02*
X188600000Y-60000000D01*
X187500000Y-58900000D02*
X187500000Y-57800000D01*
X186404408Y-60000000D02*
X184708000Y-61696408D01*
X184708000Y-61696408D02*
X184708000Y-67252000D01*
X184708000Y-67252000D02*
X184700000Y-67260000D01*
%TO.N,PAD_TXE*%
X186999999Y-57800000D02*
X186999999Y-55887499D01*
X185500000Y-62200000D02*
X185350001Y-62349999D01*
X185350001Y-62349999D02*
X185350001Y-63800000D01*
X185350001Y-63800000D02*
X185350001Y-67260000D01*
X186999999Y-55887499D02*
X186512500Y-55400000D01*
D22*
%TO.N,21*%
X185319100Y-72969099D02*
X185350001Y-73000000D01*
X185319100Y-71400000D02*
X185319100Y-72969099D01*
D21*
%TO.N,31*%
X171350000Y-72250000D02*
X173850000Y-69750000D01*
X167951600Y-72250000D02*
X171350000Y-72250000D01*
X176500000Y-67150000D02*
X178980000Y-64670000D01*
X178980000Y-64670000D02*
X178980000Y-64000000D01*
X176500000Y-67900000D02*
X176500000Y-67150000D01*
X173850000Y-69750000D02*
X174650000Y-69750000D01*
X174650000Y-69750000D02*
X176500000Y-67900000D01*
X166661600Y-73540000D02*
X167951600Y-72250000D01*
D22*
%TO.N,30*%
X177750000Y-67770000D02*
X178980000Y-66540000D01*
X169201600Y-73540000D02*
X172510000Y-73540000D01*
X175600000Y-72350000D02*
X177750000Y-70200000D01*
X172510000Y-73540000D02*
X173700000Y-72350000D01*
X173700000Y-72350000D02*
X175600000Y-72350000D01*
X177750000Y-70200000D02*
X177750000Y-67770000D01*
D21*
%TO.N,PAD_B1*%
X182750000Y-68550000D02*
X182600000Y-68700000D01*
X182750000Y-67260000D02*
X182750000Y-68550000D01*
%TO.N,PAD_A1*%
X181450000Y-70900000D02*
X181350000Y-71000000D01*
X181450000Y-67260000D02*
X181450000Y-70900000D01*
%TO.N,PAD_A2*%
X180850000Y-62150000D02*
X180850000Y-63650000D01*
X183399999Y-67260000D02*
X183399999Y-65899999D01*
X183399999Y-65899999D02*
X183300000Y-65800000D01*
%TO.N,14*%
X169274100Y-60912500D02*
X171741600Y-63380000D01*
X148000000Y-60912500D02*
X169274100Y-60912500D01*
%TO.N,15*%
X167188100Y-61366500D02*
X149433500Y-61366500D01*
X148800000Y-62000000D02*
X147087500Y-62000000D01*
X149433500Y-61366500D02*
X148800000Y-62000000D01*
X169201600Y-63380000D02*
X167188100Y-61366500D01*
X147087500Y-62000000D02*
X146000000Y-60912500D01*
%TO.N,16*%
X165102100Y-61820500D02*
X166661600Y-63380000D01*
X149990500Y-61820500D02*
X149800000Y-62011000D01*
X150200000Y-61820500D02*
X149990500Y-61820500D01*
X143062500Y-61850000D02*
X144000000Y-60912500D01*
X142900000Y-61850000D02*
X143062500Y-61850000D01*
X150200000Y-61820500D02*
X165102100Y-61820500D01*
D25*
%TO.N,1*%
X182850777Y-73100777D02*
X182750000Y-73000000D01*
X146341600Y-78620000D02*
X146341600Y-79659000D01*
X146341600Y-79659000D02*
X147000000Y-80317400D01*
X182850777Y-74344726D02*
X182850777Y-73100777D01*
%TO.N,0*%
X197070804Y-73870804D02*
X189070804Y-73870804D01*
X143801600Y-80071400D02*
X144400000Y-80669800D01*
X197776200Y-80023800D02*
X197776200Y-74576200D01*
X197776200Y-74576200D02*
X197070804Y-73870804D01*
X180600000Y-73600000D02*
X180850000Y-73600000D01*
X180850000Y-73600000D02*
X181450000Y-73000000D01*
X144400000Y-80669800D02*
X197130200Y-80669800D01*
X189070804Y-73870804D02*
X188400000Y-73200000D01*
X143801600Y-78620000D02*
X143801600Y-80071400D01*
X197130200Y-80669800D02*
X197776200Y-80023800D01*
D23*
%TO.N,GND*%
X158649999Y-56750000D02*
X155749999Y-53850000D01*
D25*
%TO.N,1*%
X147000000Y-80317400D02*
X196082600Y-80317400D01*
X196028620Y-76723800D02*
X193722796Y-76723800D01*
X197200000Y-77200000D02*
X196504820Y-77200000D01*
X197200000Y-79200000D02*
X197200000Y-77200000D01*
X196504820Y-77200000D02*
X196028620Y-76723800D01*
X196082600Y-80317400D02*
X197200000Y-79200000D01*
X193722796Y-76723800D02*
X191400000Y-74401004D01*
D21*
%TO.N,PAD_A1*%
X170900000Y-59400000D02*
X170950000Y-59400000D01*
X172150000Y-58200000D02*
X170950000Y-59400000D01*
X172400000Y-64176826D02*
X172400000Y-66350000D01*
X172082267Y-61039392D02*
X172082267Y-61103926D01*
X172082267Y-61103926D02*
X172770600Y-61792259D01*
X172770600Y-61792259D02*
X172770600Y-63806226D01*
X172770600Y-63806226D02*
X172400000Y-64176826D01*
X172400000Y-66350000D02*
X172250000Y-66500000D01*
%TO.N,PAD_TXE*%
X186512500Y-56287500D02*
X186400000Y-56400000D01*
X186512500Y-55400000D02*
X186512500Y-56287500D01*
%TO.N,PAD_TX*%
X187500000Y-62200000D02*
X187500000Y-64986153D01*
X187500000Y-64986153D02*
X186000000Y-66486153D01*
X186000000Y-66486153D02*
X186000000Y-67260000D01*
%TD*%
%TA.AperFunction,Conductor*%
%TO.N,PAD_B1*%
G36*
X175307548Y-59586519D02*
G01*
X175308530Y-59586986D01*
X175393970Y-59632623D01*
X175395710Y-59633762D01*
X175460245Y-59684773D01*
X175460304Y-59684820D01*
X175516155Y-59729547D01*
X175516154Y-59729547D01*
X175537829Y-59739400D01*
X175585513Y-59761076D01*
X175680824Y-59771828D01*
X175688660Y-59776160D01*
X175691212Y-59783454D01*
X175691212Y-60015717D01*
X175687785Y-60023990D01*
X175679936Y-60027409D01*
X175569118Y-60031430D01*
X175482824Y-60041992D01*
X175482809Y-60041994D01*
X175482805Y-60041995D01*
X175437353Y-60049698D01*
X175408653Y-60054562D01*
X175408119Y-60054639D01*
X175322582Y-60065108D01*
X175321585Y-60065187D01*
X175212076Y-60069161D01*
X175203684Y-60066037D01*
X175199960Y-60057893D01*
X175199952Y-60057515D01*
X175199940Y-60054562D01*
X175199009Y-59817971D01*
X175199916Y-59813410D01*
X175212452Y-59783454D01*
X175292239Y-59592793D01*
X175298593Y-59586486D01*
X175307548Y-59586519D01*
G37*
%TD.AperFunction*%
%TD*%
%TA.AperFunction,Conductor*%
%TO.N,PAD_B1*%
G36*
X175977417Y-64974598D02*
G01*
X176141000Y-65138181D01*
X176144427Y-65146454D01*
X176141262Y-65154456D01*
X176076869Y-65223136D01*
X176076858Y-65223149D01*
X176032101Y-65283602D01*
X176032097Y-65283607D01*
X176001981Y-65342238D01*
X176001976Y-65342249D01*
X176001976Y-65342250D01*
X175973745Y-65413758D01*
X175973745Y-65413759D01*
X175973744Y-65413758D01*
X175939016Y-65501772D01*
X175932792Y-65508210D01*
X175923839Y-65508361D01*
X175923695Y-65508304D01*
X175703823Y-65418164D01*
X175697468Y-65411855D01*
X175697435Y-65411776D01*
X175668931Y-65342249D01*
X175607295Y-65191904D01*
X175607328Y-65182949D01*
X175613683Y-65176640D01*
X175613827Y-65176583D01*
X175614368Y-65176369D01*
X175701841Y-65141853D01*
X175773348Y-65113622D01*
X175831995Y-65083498D01*
X175892456Y-65038734D01*
X175961143Y-64974335D01*
X175969521Y-64971177D01*
X175977417Y-64974598D01*
G37*
%TD.AperFunction*%
%TD*%
%TA.AperFunction,Conductor*%
%TO.N,PAD_B2*%
G36*
X172634616Y-60361181D02*
G01*
X172638492Y-60369254D01*
X172638510Y-60369850D01*
X172639452Y-60609164D01*
X172638545Y-60613727D01*
X172546344Y-60834053D01*
X172539989Y-60840362D01*
X172531034Y-60840329D01*
X172529794Y-60839722D01*
X172443151Y-60790751D01*
X172441001Y-60789189D01*
X172377874Y-60731312D01*
X172377587Y-60731039D01*
X172323795Y-60678259D01*
X172323794Y-60678258D01*
X172255430Y-60640071D01*
X172255425Y-60640069D01*
X172158033Y-60626773D01*
X172150300Y-60622259D01*
X172147916Y-60615181D01*
X172147916Y-60433265D01*
X172151343Y-60424992D01*
X172158972Y-60421583D01*
X172226355Y-60417877D01*
X172270173Y-60415468D01*
X172270176Y-60415467D01*
X172270182Y-60415467D01*
X172356212Y-60399433D01*
X172429785Y-60380394D01*
X172430549Y-60380224D01*
X172515457Y-60364399D01*
X172516951Y-60364220D01*
X172626168Y-60358214D01*
X172634616Y-60361181D01*
G37*
%TD.AperFunction*%
%TD*%
%TA.AperFunction,Conductor*%
%TO.N,PAD_B2*%
G36*
X157796424Y-57295716D02*
G01*
X157801887Y-57302811D01*
X157802130Y-57303926D01*
X157836089Y-57506722D01*
X157872199Y-57704451D01*
X157908299Y-57884219D01*
X157944385Y-58046024D01*
X157978879Y-58183577D01*
X157977567Y-58192435D01*
X157975803Y-58194696D01*
X157844675Y-58325824D01*
X157836402Y-58329251D01*
X157828555Y-58326229D01*
X157731865Y-58238793D01*
X157731849Y-58238780D01*
X157626910Y-58161789D01*
X157626909Y-58161788D01*
X157626904Y-58161785D01*
X157521952Y-58102688D01*
X157521947Y-58102686D01*
X157417006Y-58061496D01*
X157322562Y-58040539D01*
X157315228Y-58035401D01*
X157313505Y-58027534D01*
X157333078Y-57884197D01*
X157398243Y-57406982D01*
X157402756Y-57399251D01*
X157406784Y-57397272D01*
X157787546Y-57294562D01*
X157796424Y-57295716D01*
G37*
%TD.AperFunction*%
%TD*%
%TA.AperFunction,Conductor*%
%TO.N,29*%
G36*
X177802772Y-60137376D02*
G01*
X178100258Y-60372486D01*
X178363286Y-60466624D01*
X178625995Y-60490751D01*
X178626091Y-60490760D01*
X178929817Y-60522186D01*
X178931948Y-60522611D01*
X179307801Y-60634962D01*
X179314745Y-60640615D01*
X179315659Y-60649523D01*
X179315263Y-60650638D01*
X178982562Y-61456214D01*
X178976237Y-61462553D01*
X178976214Y-61462562D01*
X178170638Y-61795263D01*
X178161683Y-61795254D01*
X178155358Y-61788915D01*
X178154965Y-61787809D01*
X178042611Y-61411948D01*
X178042186Y-61409817D01*
X178010756Y-61106049D01*
X177986624Y-60843286D01*
X177892486Y-60580258D01*
X177657376Y-60282772D01*
X177654935Y-60274158D01*
X177658282Y-60267247D01*
X177787247Y-60138282D01*
X177795519Y-60134856D01*
X177802772Y-60137376D01*
G37*
%TD.AperFunction*%
%TD*%
%TA.AperFunction,Conductor*%
%TO.N,PAD_A2*%
G36*
X172815773Y-59929203D02*
G01*
X172815939Y-59929206D01*
X172897305Y-59931361D01*
X172897348Y-59931363D01*
X172967673Y-59933936D01*
X173049145Y-59936094D01*
X173152406Y-59936907D01*
X173160650Y-59940399D01*
X173164012Y-59948561D01*
X173164957Y-60188625D01*
X173164050Y-60193188D01*
X173072011Y-60413127D01*
X173065656Y-60419436D01*
X173056701Y-60419403D01*
X173055147Y-60418612D01*
X172985919Y-60376591D01*
X172981565Y-60371900D01*
X172981551Y-60371873D01*
X172977980Y-60364864D01*
X172902044Y-60288928D01*
X172901141Y-60287913D01*
X172866213Y-60243757D01*
X172866212Y-60243756D01*
X172866211Y-60243755D01*
X172843343Y-60227521D01*
X172803927Y-60199539D01*
X172710792Y-60183936D01*
X172703199Y-60179189D01*
X172701025Y-60172397D01*
X172701025Y-59940092D01*
X172704452Y-59931819D01*
X172712724Y-59928392D01*
X172815773Y-59929203D01*
G37*
%TD.AperFunction*%
%TD*%
%TA.AperFunction,Conductor*%
%TO.N,PAD_A2*%
G36*
X160296436Y-57303864D02*
G01*
X160301762Y-57311063D01*
X160301970Y-57312091D01*
X160332803Y-57509998D01*
X160365606Y-57704171D01*
X160365609Y-57704187D01*
X160398406Y-57881956D01*
X160431212Y-58043381D01*
X160462591Y-58182118D01*
X160461073Y-58190943D01*
X160459452Y-58192972D01*
X160292720Y-58359704D01*
X160284447Y-58363131D01*
X160276174Y-58359704D01*
X160276137Y-58359667D01*
X160184223Y-58266925D01*
X160184218Y-58266921D01*
X160084040Y-58182221D01*
X160084039Y-58182220D01*
X160084034Y-58182216D01*
X160063808Y-58168422D01*
X159983848Y-58113888D01*
X159883662Y-58061940D01*
X159883661Y-58061939D01*
X159883658Y-58061938D01*
X159792872Y-58029706D01*
X159786224Y-58023709D01*
X159785283Y-58016556D01*
X159897925Y-57406698D01*
X159902796Y-57399187D01*
X159906598Y-57397472D01*
X160287582Y-57302539D01*
X160296436Y-57303864D01*
G37*
%TD.AperFunction*%
%TD*%
%TA.AperFunction,Conductor*%
%TO.N,GND*%
G36*
X187503393Y-65802412D02*
G01*
X187503450Y-65802469D01*
X187670190Y-65970138D01*
X187673594Y-65978421D01*
X187670144Y-65986684D01*
X187668985Y-65987695D01*
X187606447Y-66035342D01*
X187604434Y-66036576D01*
X187536860Y-66069126D01*
X187480048Y-66098497D01*
X187480043Y-66098501D01*
X187441313Y-66143938D01*
X187441311Y-66143940D01*
X187428704Y-66215488D01*
X187423894Y-66223041D01*
X187417182Y-66225158D01*
X187185565Y-66225158D01*
X187177292Y-66221731D01*
X187173865Y-66213458D01*
X187173895Y-66212625D01*
X187174924Y-66198199D01*
X187180522Y-66119789D01*
X187180820Y-66117881D01*
X187198578Y-66044923D01*
X187198857Y-66043967D01*
X187220304Y-65980714D01*
X187238408Y-65906334D01*
X187245227Y-65810823D01*
X187249234Y-65802816D01*
X187256850Y-65799957D01*
X187495108Y-65799019D01*
X187503393Y-65802412D01*
G37*
%TD.AperFunction*%
%TD*%
%TA.AperFunction,Conductor*%
%TO.N,GND*%
G36*
X187122707Y-63378269D02*
G01*
X187126134Y-63386542D01*
X187126104Y-63387375D01*
X187119477Y-63480194D01*
X187119175Y-63482128D01*
X187101424Y-63555057D01*
X187101136Y-63556047D01*
X187079695Y-63619282D01*
X187061591Y-63693662D01*
X187054772Y-63789175D01*
X187050765Y-63797183D01*
X187043148Y-63800042D01*
X186804891Y-63800980D01*
X186796605Y-63797586D01*
X186629807Y-63629859D01*
X186626404Y-63621579D01*
X186629854Y-63613315D01*
X186631003Y-63612312D01*
X186693557Y-63564651D01*
X186695554Y-63563427D01*
X186763117Y-63530882D01*
X186819953Y-63501499D01*
X186858685Y-63456061D01*
X186871295Y-63384511D01*
X186876105Y-63376959D01*
X186882817Y-63374842D01*
X187114434Y-63374842D01*
X187122707Y-63378269D01*
G37*
%TD.AperFunction*%
%TD*%
%TA.AperFunction,Conductor*%
%TO.N,GND*%
G36*
X187009918Y-62244903D02*
G01*
X187011400Y-62248480D01*
X187149554Y-62848072D01*
X187149784Y-62851966D01*
X187145396Y-62892260D01*
X187140799Y-62935841D01*
X187140800Y-62935842D01*
X187136200Y-62980842D01*
X187136201Y-62980843D01*
X187131597Y-63027257D01*
X187128018Y-63064421D01*
X187123814Y-63072328D01*
X187116372Y-63075000D01*
X186883626Y-63075000D01*
X186875353Y-63071573D01*
X186871980Y-63064422D01*
X186868400Y-63027257D01*
X186863796Y-62980843D01*
X186863796Y-62980842D01*
X186859197Y-62935842D01*
X186859197Y-62935841D01*
X186854601Y-62892260D01*
X186850213Y-62851966D01*
X186850443Y-62848072D01*
X186988598Y-62248480D01*
X186993795Y-62241188D01*
X187002626Y-62239706D01*
X187009918Y-62244903D01*
G37*
%TD.AperFunction*%
%TD*%
%TA.AperFunction,Conductor*%
%TO.N,PAD_B2*%
G36*
X184273728Y-65892625D02*
G01*
X184280037Y-65898980D01*
X184280004Y-65907935D01*
X184279943Y-65908077D01*
X184242263Y-65994868D01*
X184242264Y-65994869D01*
X184211667Y-66065384D01*
X184211661Y-66065401D01*
X184191496Y-66128163D01*
X184191493Y-66128172D01*
X184180397Y-66202563D01*
X184180395Y-66202578D01*
X184177365Y-66296677D01*
X184173674Y-66304835D01*
X184165671Y-66308000D01*
X183934329Y-66308000D01*
X183926056Y-66304573D01*
X183922635Y-66296677D01*
X183919603Y-66202578D01*
X183919603Y-66202572D01*
X183908503Y-66128167D01*
X183888336Y-66065396D01*
X183857734Y-65994870D01*
X183857734Y-65994869D01*
X183857734Y-65994868D01*
X183820056Y-65908077D01*
X183819905Y-65899124D01*
X183826129Y-65892686D01*
X183826223Y-65892645D01*
X184045483Y-65800889D01*
X184054438Y-65800857D01*
X184273728Y-65892625D01*
G37*
%TD.AperFunction*%
%TD*%
%TA.AperFunction,Conductor*%
%TO.N,RX1*%
G36*
X183932390Y-68707434D02*
G01*
X183938699Y-68713789D01*
X183938854Y-68714188D01*
X183972055Y-68804449D01*
X183972253Y-68805036D01*
X183995513Y-68880359D01*
X184019768Y-68943498D01*
X184052658Y-68996230D01*
X184059934Y-69007896D01*
X184123671Y-69079120D01*
X184126634Y-69087569D01*
X184123225Y-69095194D01*
X183995194Y-69223225D01*
X183986921Y-69226652D01*
X183979120Y-69223671D01*
X183907896Y-69159934D01*
X183896230Y-69152658D01*
X183843498Y-69119768D01*
X183780359Y-69095513D01*
X183705036Y-69072253D01*
X183704449Y-69072055D01*
X183614188Y-69038854D01*
X183607606Y-69032781D01*
X183607246Y-69023834D01*
X183607383Y-69023478D01*
X183697436Y-68803821D01*
X183703743Y-68797468D01*
X183923437Y-68707401D01*
X183932390Y-68707434D01*
G37*
%TD.AperFunction*%
%TD*%
%TA.AperFunction,Conductor*%
%TO.N,TX1*%
G36*
X186223470Y-71492517D02*
G01*
X186229778Y-71498871D01*
X186229745Y-71507826D01*
X186229573Y-71508218D01*
X186189224Y-71595519D01*
X186188949Y-71596074D01*
X186152133Y-71665790D01*
X186152130Y-71665795D01*
X186124642Y-71727574D01*
X186107506Y-71801517D01*
X186102213Y-71896948D01*
X186098333Y-71905019D01*
X186090531Y-71908000D01*
X185909469Y-71908000D01*
X185901196Y-71904573D01*
X185897787Y-71896948D01*
X185897277Y-71887773D01*
X185892493Y-71801518D01*
X185875356Y-71727575D01*
X185847867Y-71665793D01*
X185811041Y-71596061D01*
X185810769Y-71595511D01*
X185770426Y-71508218D01*
X185770066Y-71499271D01*
X185776139Y-71492689D01*
X185776530Y-71492517D01*
X185995483Y-71400889D01*
X186004438Y-71400857D01*
X186223470Y-71492517D01*
G37*
%TD.AperFunction*%
%TD*%
%TA.AperFunction,Conductor*%
%TO.N,4*%
G36*
X185497220Y-78895427D02*
G01*
X185500628Y-78903035D01*
X185506063Y-78998546D01*
X185506063Y-78998550D01*
X185523578Y-79072462D01*
X185551530Y-79134183D01*
X185588741Y-79203852D01*
X185589034Y-79204440D01*
X185629550Y-79291772D01*
X185629924Y-79300719D01*
X185623861Y-79307309D01*
X185623454Y-79307489D01*
X185404517Y-79399109D01*
X185395562Y-79399142D01*
X185395483Y-79399109D01*
X185176546Y-79307489D01*
X185170237Y-79301134D01*
X185170270Y-79292179D01*
X185170430Y-79291814D01*
X185210980Y-79204403D01*
X185211251Y-79203861D01*
X185248471Y-79134178D01*
X185276420Y-79072465D01*
X185293935Y-78998554D01*
X185299372Y-78903035D01*
X185303263Y-78894970D01*
X185311053Y-78892000D01*
X185488947Y-78892000D01*
X185497220Y-78895427D01*
G37*
%TD.AperFunction*%
%TD*%
%TA.AperFunction,Conductor*%
%TO.N,4*%
G36*
X186351691Y-75112595D02*
G01*
X186987104Y-75491187D01*
X186992457Y-75498365D01*
X186991166Y-75507227D01*
X186988963Y-75509915D01*
X186461355Y-75987115D01*
X186452921Y-75990123D01*
X186446652Y-75987919D01*
X186353418Y-75920508D01*
X186252498Y-75863846D01*
X186252496Y-75863845D01*
X186252494Y-75863844D01*
X186202090Y-75843687D01*
X186151574Y-75823485D01*
X186050663Y-75799432D01*
X186050661Y-75799431D01*
X186050658Y-75799431D01*
X185993030Y-75795004D01*
X185954056Y-75792011D01*
X185946679Y-75788618D01*
X185819001Y-75660940D01*
X185815574Y-75652667D01*
X185819001Y-75644394D01*
X185821322Y-75642595D01*
X185915116Y-75587312D01*
X186021912Y-75501512D01*
X186128708Y-75392861D01*
X186235504Y-75261357D01*
X186336082Y-75115989D01*
X186343607Y-75111136D01*
X186351691Y-75112595D01*
G37*
%TD.AperFunction*%
%TD*%
%TA.AperFunction,Conductor*%
%TO.N,9*%
G36*
X183632374Y-78907441D02*
G01*
X183638683Y-78913796D01*
X183638844Y-78914211D01*
X183671951Y-79004621D01*
X183672159Y-79005244D01*
X183695105Y-79080806D01*
X183695111Y-79080824D01*
X183718980Y-79144208D01*
X183718984Y-79144216D01*
X183758862Y-79208865D01*
X183822561Y-79280252D01*
X183825512Y-79288706D01*
X183822104Y-79296314D01*
X183696314Y-79422104D01*
X183688041Y-79425531D01*
X183680252Y-79422561D01*
X183608865Y-79358862D01*
X183544220Y-79318986D01*
X183544208Y-79318980D01*
X183480824Y-79295111D01*
X183480806Y-79295105D01*
X183405244Y-79272159D01*
X183404621Y-79271951D01*
X183314211Y-79238844D01*
X183307621Y-79232781D01*
X183307247Y-79223834D01*
X183307399Y-79223441D01*
X183397436Y-79003821D01*
X183403743Y-78997468D01*
X183623420Y-78907408D01*
X183632374Y-78907441D01*
G37*
%TD.AperFunction*%
%TD*%
%TA.AperFunction,Conductor*%
%TO.N,9*%
G36*
X194589016Y-77622653D02*
G01*
X195496512Y-77998143D01*
X195502847Y-78004472D01*
X195502853Y-78004487D01*
X195878247Y-78913143D01*
X195878238Y-78922097D01*
X195871977Y-78928392D01*
X195442020Y-79109602D01*
X195441750Y-79109712D01*
X195122113Y-79235133D01*
X195120859Y-79235544D01*
X194836303Y-79311577D01*
X194834589Y-79311901D01*
X194498144Y-79349690D01*
X194497090Y-79349760D01*
X194033860Y-79359742D01*
X194025515Y-79356494D01*
X194021911Y-79348297D01*
X194021908Y-79348045D01*
X194021908Y-79169078D01*
X194025335Y-79160805D01*
X194030700Y-79157745D01*
X194364164Y-79072253D01*
X194480729Y-78835054D01*
X194481587Y-78487459D01*
X194476737Y-78069863D01*
X194477009Y-78067222D01*
X194573117Y-77630946D01*
X194578243Y-77623605D01*
X194587060Y-77622038D01*
X194589016Y-77622653D01*
G37*
%TD.AperFunction*%
%TD*%
%TA.AperFunction,Conductor*%
%TO.N,2*%
G36*
X149527138Y-78356311D02*
G01*
X149533461Y-78362651D01*
X149533860Y-78363776D01*
X149621513Y-78658258D01*
X149621941Y-78660434D01*
X149645918Y-78900600D01*
X149645932Y-78900750D01*
X149663997Y-79108798D01*
X149719762Y-79266615D01*
X149737592Y-79317076D01*
X149921821Y-79550731D01*
X149924252Y-79559349D01*
X149920906Y-79566248D01*
X149827848Y-79659306D01*
X149819575Y-79662733D01*
X149812331Y-79660221D01*
X149578676Y-79475992D01*
X149370398Y-79402397D01*
X149370394Y-79402396D01*
X149370391Y-79402396D01*
X149162350Y-79384332D01*
X149162200Y-79384318D01*
X148922034Y-79360341D01*
X148919858Y-79359913D01*
X148625376Y-79272260D01*
X148618424Y-79266615D01*
X148617500Y-79257708D01*
X148617893Y-79256597D01*
X148879038Y-78623787D01*
X148885359Y-78617449D01*
X149518185Y-78356299D01*
X149527138Y-78356311D01*
G37*
%TD.AperFunction*%
%TD*%
%TA.AperFunction,Conductor*%
%TO.N,2*%
G36*
X183228694Y-79655924D02*
G01*
X183229525Y-79656675D01*
X183397530Y-79823749D01*
X183400980Y-79832012D01*
X183400980Y-79832091D01*
X183400204Y-80029379D01*
X183400056Y-80067120D01*
X183400048Y-80069046D01*
X183396589Y-80077306D01*
X183388348Y-80080700D01*
X183386416Y-80080700D01*
X183385992Y-80080692D01*
X183285786Y-80077058D01*
X183284792Y-80076979D01*
X183270846Y-80075273D01*
X183204467Y-80067154D01*
X183203934Y-80067077D01*
X183156501Y-80059044D01*
X183134278Y-80055280D01*
X183134269Y-80055278D01*
X183134258Y-80055277D01*
X183053178Y-80045360D01*
X182949738Y-80041608D01*
X182941594Y-80037884D01*
X182938462Y-80029916D01*
X182938462Y-79898955D01*
X182941889Y-79890682D01*
X182948514Y-79887372D01*
X183026427Y-79876307D01*
X183080065Y-79841675D01*
X183117913Y-79789168D01*
X183158098Y-79723722D01*
X183159003Y-79722450D01*
X183212229Y-79657551D01*
X183220124Y-79653328D01*
X183228694Y-79655924D01*
G37*
%TD.AperFunction*%
%TD*%
%TA.AperFunction,Conductor*%
%TO.N,3*%
G36*
X152065958Y-78356803D02*
G01*
X152072287Y-78363138D01*
X152072949Y-78365320D01*
X152137421Y-78688366D01*
X152137626Y-78691363D01*
X152118499Y-79007265D01*
X152118493Y-79007349D01*
X152100527Y-79272495D01*
X152171827Y-79454440D01*
X152411785Y-79519654D01*
X152418870Y-79525130D01*
X152420417Y-79530944D01*
X152420417Y-79662049D01*
X152416990Y-79670322D01*
X152408717Y-79673749D01*
X152408085Y-79673732D01*
X152093081Y-79656692D01*
X152091126Y-79656419D01*
X151864947Y-79605129D01*
X151862846Y-79604439D01*
X151673402Y-79521583D01*
X151672673Y-79521233D01*
X151457003Y-79408574D01*
X151456973Y-79408559D01*
X151456963Y-79408554D01*
X151456952Y-79408548D01*
X151456944Y-79408545D01*
X151163164Y-79273263D01*
X151157083Y-79266690D01*
X151157242Y-79258174D01*
X151418746Y-78624491D01*
X151425069Y-78618152D01*
X151425076Y-78618148D01*
X152057004Y-78356798D01*
X152065958Y-78356803D01*
G37*
%TD.AperFunction*%
%TD*%
%TA.AperFunction,Conductor*%
%TO.N,2*%
G36*
X183781925Y-77093903D02*
G01*
X183785316Y-77101265D01*
X183792868Y-77198211D01*
X183815991Y-77271604D01*
X183843652Y-77319814D01*
X183850766Y-77332212D01*
X183893788Y-77401069D01*
X183894373Y-77402122D01*
X183937480Y-77490125D01*
X183938042Y-77499062D01*
X183932120Y-77505779D01*
X183931490Y-77506065D01*
X183712793Y-77597585D01*
X183703838Y-77597618D01*
X183703759Y-77597585D01*
X183485061Y-77506065D01*
X183478752Y-77499710D01*
X183478785Y-77490755D01*
X183479058Y-77490152D01*
X183522180Y-77402116D01*
X183522761Y-77401071D01*
X183565785Y-77332210D01*
X183600559Y-77271604D01*
X183623683Y-77198211D01*
X183631235Y-77101266D01*
X183635294Y-77093285D01*
X183642900Y-77090476D01*
X183773652Y-77090476D01*
X183781925Y-77093903D01*
G37*
%TD.AperFunction*%
%TD*%
%TA.AperFunction,Conductor*%
%TO.N,+5V*%
G36*
X194219681Y-60558981D02*
G01*
X194222401Y-60561006D01*
X194746677Y-61085282D01*
X194750104Y-61093555D01*
X194750104Y-61093556D01*
X194750084Y-61261385D01*
X194750063Y-61446451D01*
X194750042Y-61643907D01*
X194750021Y-61853753D01*
X194750001Y-62062697D01*
X194746573Y-62070970D01*
X194738300Y-62074396D01*
X194736816Y-62074301D01*
X194167488Y-62001435D01*
X194159717Y-61996986D01*
X194158885Y-61995756D01*
X193748817Y-61297683D01*
X193747581Y-61288814D01*
X193749568Y-61284706D01*
X193838143Y-61167511D01*
X193931430Y-61031692D01*
X194024716Y-60883483D01*
X194118003Y-60722884D01*
X194203832Y-60563723D01*
X194210773Y-60558070D01*
X194219681Y-60558981D01*
G37*
%TD.AperFunction*%
%TD*%
%TA.AperFunction,Conductor*%
%TO.N,PAD_A1*%
G36*
X168823728Y-55092625D02*
G01*
X168830037Y-55098980D01*
X168830004Y-55107935D01*
X168829943Y-55108077D01*
X168792263Y-55194868D01*
X168792264Y-55194869D01*
X168761667Y-55265384D01*
X168761661Y-55265401D01*
X168741496Y-55328163D01*
X168741493Y-55328172D01*
X168730397Y-55402563D01*
X168730395Y-55402578D01*
X168727365Y-55496677D01*
X168723674Y-55504835D01*
X168715671Y-55508000D01*
X168484329Y-55508000D01*
X168476056Y-55504573D01*
X168472635Y-55496677D01*
X168469603Y-55402578D01*
X168469603Y-55402572D01*
X168458503Y-55328167D01*
X168438336Y-55265396D01*
X168407734Y-55194870D01*
X168407734Y-55194869D01*
X168407734Y-55194868D01*
X168370056Y-55108077D01*
X168369905Y-55099124D01*
X168376129Y-55092686D01*
X168376223Y-55092645D01*
X168595483Y-55000889D01*
X168604438Y-55000857D01*
X168823728Y-55092625D01*
G37*
%TD.AperFunction*%
%TD*%
%TA.AperFunction,Conductor*%
%TO.N,PAD_A1*%
G36*
X168723842Y-55916632D02*
G01*
X168727266Y-55924633D01*
X168729808Y-56034050D01*
X168736502Y-56119650D01*
X168744478Y-56193379D01*
X168744510Y-56193725D01*
X168751166Y-56278836D01*
X168751199Y-56279476D01*
X168753722Y-56388074D01*
X168750488Y-56396425D01*
X168742297Y-56400043D01*
X168742071Y-56400046D01*
X168502373Y-56400990D01*
X168497810Y-56400083D01*
X168277374Y-56307836D01*
X168271065Y-56301481D01*
X168271098Y-56292526D01*
X168271647Y-56291391D01*
X168318779Y-56206225D01*
X168320168Y-56204237D01*
X168374891Y-56141171D01*
X168374961Y-56141093D01*
X168424230Y-56086967D01*
X168459512Y-56018909D01*
X168471696Y-55923423D01*
X168476143Y-55915651D01*
X168483302Y-55913205D01*
X168715569Y-55913205D01*
X168723842Y-55916632D01*
G37*
%TD.AperFunction*%
%TD*%
%TA.AperFunction,Conductor*%
%TO.N,GND*%
G36*
X181453447Y-76292138D02*
G01*
X181654946Y-76441428D01*
X181864547Y-76576711D01*
X182074148Y-76691983D01*
X182074158Y-76691987D01*
X182074169Y-76691993D01*
X182283730Y-76787238D01*
X182283739Y-76787241D01*
X182283749Y-76787246D01*
X182481815Y-76858358D01*
X182488442Y-76864378D01*
X182488872Y-76873323D01*
X182488676Y-76873831D01*
X182253248Y-77444545D01*
X182246925Y-77450886D01*
X182244110Y-77451662D01*
X181534158Y-77554523D01*
X181525479Y-77552318D01*
X181521599Y-77547244D01*
X181483829Y-77451662D01*
X181437227Y-77333728D01*
X181349454Y-77131617D01*
X181261680Y-76949517D01*
X181214560Y-76862500D01*
X181173910Y-76787431D01*
X181173909Y-76787429D01*
X181091000Y-76653220D01*
X181089568Y-76644381D01*
X181092679Y-76638800D01*
X181438213Y-76293266D01*
X181446485Y-76289840D01*
X181453447Y-76292138D01*
G37*
%TD.AperFunction*%
%TD*%
%TA.AperFunction,Conductor*%
%TO.N,GND*%
G36*
X183132150Y-56432087D02*
G01*
X183133071Y-56436636D01*
X183133071Y-57176005D01*
X183129644Y-57184278D01*
X183129463Y-57184455D01*
X183051467Y-57259148D01*
X183051447Y-57259168D01*
X182969846Y-57349705D01*
X182888229Y-57452649D01*
X182806610Y-57567988D01*
X182730089Y-57687738D01*
X182722747Y-57692864D01*
X182716142Y-57692401D01*
X182004721Y-57427133D01*
X181998167Y-57421031D01*
X181997478Y-57419086D01*
X181979627Y-57349711D01*
X181850823Y-56849132D01*
X181852080Y-56840268D01*
X181859238Y-56834888D01*
X181859471Y-56834831D01*
X182104878Y-56778580D01*
X182361926Y-56707270D01*
X182618974Y-56623570D01*
X182876022Y-56527480D01*
X183116822Y-56425856D01*
X183125776Y-56425797D01*
X183132150Y-56432087D01*
G37*
%TD.AperFunction*%
%TD*%
%TA.AperFunction,Conductor*%
%TO.N,GND*%
G36*
X143897220Y-53895427D02*
G01*
X143900628Y-53903035D01*
X143906063Y-53998546D01*
X143906063Y-53998550D01*
X143923578Y-54072462D01*
X143951530Y-54134183D01*
X143988741Y-54203852D01*
X143989034Y-54204440D01*
X144029550Y-54291772D01*
X144029924Y-54300719D01*
X144023861Y-54307309D01*
X144023454Y-54307489D01*
X143804517Y-54399109D01*
X143795562Y-54399142D01*
X143795483Y-54399109D01*
X143576546Y-54307489D01*
X143570237Y-54301134D01*
X143570270Y-54292179D01*
X143570430Y-54291814D01*
X143610980Y-54204403D01*
X143611251Y-54203861D01*
X143648471Y-54134178D01*
X143676420Y-54072465D01*
X143693935Y-53998554D01*
X143699372Y-53903035D01*
X143703263Y-53894970D01*
X143711053Y-53892000D01*
X143888947Y-53892000D01*
X143897220Y-53895427D01*
G37*
%TD.AperFunction*%
%TD*%
%TA.AperFunction,Conductor*%
%TO.N,GND*%
G36*
X195945194Y-65082734D02*
G01*
X195946447Y-65088002D01*
X195946447Y-65830996D01*
X195947156Y-65861924D01*
X195947491Y-65874820D01*
X195947868Y-65889314D01*
X195948506Y-65910732D01*
X195948577Y-65913083D01*
X195949291Y-65933386D01*
X195949635Y-65941456D01*
X195946564Y-65949868D01*
X195941971Y-65952941D01*
X194460496Y-66495787D01*
X194451549Y-66495415D01*
X194445485Y-66488826D01*
X194445314Y-66488323D01*
X194200333Y-65712235D01*
X194201110Y-65703314D01*
X194207968Y-65697556D01*
X194208988Y-65697284D01*
X194546466Y-65624080D01*
X194896461Y-65523020D01*
X195246456Y-65396819D01*
X195596451Y-65245479D01*
X195929480Y-65077554D01*
X195938409Y-65076890D01*
X195945194Y-65082734D01*
G37*
%TD.AperFunction*%
%TD*%
%TA.AperFunction,Conductor*%
%TO.N,GND*%
G36*
X182630602Y-61853427D02*
G01*
X182633522Y-61858295D01*
X182672299Y-61985834D01*
X182713597Y-62109272D01*
X182713606Y-62109299D01*
X182754892Y-62220316D01*
X182796202Y-62319004D01*
X182833826Y-62397600D01*
X182834307Y-62406542D01*
X182831332Y-62411134D01*
X182258059Y-62955842D01*
X182249701Y-62959056D01*
X182241941Y-62955842D01*
X181668667Y-62411134D01*
X181665030Y-62402951D01*
X181666173Y-62397600D01*
X181703799Y-62318999D01*
X181745099Y-62220334D01*
X181786400Y-62109279D01*
X181827700Y-61985834D01*
X181845178Y-61928348D01*
X181866478Y-61858296D01*
X181872163Y-61851378D01*
X181877672Y-61850000D01*
X182622329Y-61850000D01*
X182630602Y-61853427D01*
G37*
%TD.AperFunction*%
%TD*%
%TA.AperFunction,Conductor*%
%TO.N,GND*%
G36*
X189200087Y-76949821D02*
G01*
X189200412Y-76949831D01*
X189504339Y-76963707D01*
X189504485Y-76963715D01*
X189767025Y-76980288D01*
X190071186Y-76994176D01*
X190488470Y-76999843D01*
X190496696Y-77003382D01*
X190500011Y-77011530D01*
X190500995Y-77995142D01*
X190497576Y-78003419D01*
X190497562Y-78003433D01*
X189802269Y-78697744D01*
X189793994Y-78701165D01*
X189785723Y-78697732D01*
X189784763Y-78696643D01*
X189561805Y-78409676D01*
X189560641Y-78407853D01*
X189420848Y-78136269D01*
X189294291Y-77912757D01*
X189103732Y-77761571D01*
X188781210Y-77707633D01*
X188773616Y-77702888D01*
X188771440Y-77696093D01*
X188771440Y-76955860D01*
X188774867Y-76947587D01*
X188783140Y-76944160D01*
X188783290Y-76944160D01*
X189200087Y-76949821D01*
G37*
%TD.AperFunction*%
%TD*%
%TA.AperFunction,Conductor*%
%TO.N,GND*%
G36*
X187457056Y-76814446D02*
G01*
X187602501Y-76854579D01*
X187755001Y-76888769D01*
X187907500Y-76915070D01*
X188060000Y-76933480D01*
X188201607Y-76943248D01*
X188209624Y-76947236D01*
X188212501Y-76954920D01*
X188212501Y-77695079D01*
X188209074Y-77703352D01*
X188201606Y-77706751D01*
X188060020Y-77716517D01*
X188059993Y-77716519D01*
X187907498Y-77734929D01*
X187755010Y-77761228D01*
X187602500Y-77795420D01*
X187457058Y-77835552D01*
X187448171Y-77834449D01*
X187445163Y-77832002D01*
X187306417Y-77674336D01*
X187005801Y-77332728D01*
X187002909Y-77324255D01*
X187005801Y-77317272D01*
X187445164Y-76817996D01*
X187453201Y-76814050D01*
X187457056Y-76814446D01*
G37*
%TD.AperFunction*%
%TD*%
%TA.AperFunction,Conductor*%
%TO.N,GND*%
G36*
X192478701Y-54078655D02*
G01*
X192479097Y-54079029D01*
X192650707Y-54249293D01*
X192820957Y-54420889D01*
X192824351Y-54429175D01*
X192820892Y-54437435D01*
X192820482Y-54437822D01*
X192735982Y-54513939D01*
X192734858Y-54514833D01*
X192661612Y-54566081D01*
X192660970Y-54566499D01*
X192593818Y-54607202D01*
X192519654Y-54659092D01*
X192433745Y-54736480D01*
X192425304Y-54739471D01*
X192417641Y-54736060D01*
X192163939Y-54482358D01*
X192160512Y-54474085D01*
X192163517Y-54466256D01*
X192240903Y-54380349D01*
X192292787Y-54306194D01*
X192333515Y-54238999D01*
X192333900Y-54238409D01*
X192385171Y-54165132D01*
X192386055Y-54164021D01*
X192462178Y-54079516D01*
X192470260Y-54075664D01*
X192478701Y-54078655D01*
G37*
%TD.AperFunction*%
%TD*%
%TA.AperFunction,Conductor*%
%TO.N,GND*%
G36*
X166552609Y-56298251D02*
G01*
X166554424Y-56300598D01*
X166611902Y-56398455D01*
X166651907Y-56461184D01*
X166677043Y-56500599D01*
X166704936Y-56540585D01*
X166742184Y-56593982D01*
X166742193Y-56593994D01*
X166742194Y-56593995D01*
X166786990Y-56652189D01*
X166807325Y-56678605D01*
X166868101Y-56749384D01*
X166870890Y-56757893D01*
X166870291Y-56760804D01*
X166653030Y-57393932D01*
X166647103Y-57400645D01*
X166643613Y-57401717D01*
X166262449Y-57456010D01*
X166253775Y-57453784D01*
X166249216Y-57446077D01*
X166249127Y-57445238D01*
X166237509Y-57278059D01*
X166225020Y-57107095D01*
X166223471Y-57086987D01*
X166212533Y-56944916D01*
X166200043Y-56791474D01*
X166200043Y-56791475D01*
X166200041Y-56791447D01*
X166188020Y-56652188D01*
X166190723Y-56643652D01*
X166191392Y-56642922D01*
X166536064Y-56298250D01*
X166544336Y-56294824D01*
X166552609Y-56298251D01*
G37*
%TD.AperFunction*%
%TD*%
%TA.AperFunction,Conductor*%
%TO.N,GND*%
G36*
X158925528Y-56296047D02*
G01*
X158926924Y-56297240D01*
X159271507Y-56641823D01*
X159274934Y-56650096D01*
X159274442Y-56653454D01*
X159231147Y-56797954D01*
X159185876Y-56957805D01*
X159140584Y-57126494D01*
X159095285Y-57303972D01*
X159052712Y-57479003D01*
X159047426Y-57486232D01*
X159038794Y-57487657D01*
X158656705Y-57402361D01*
X158649377Y-57397214D01*
X158647786Y-57393262D01*
X158632258Y-57316506D01*
X158518946Y-56756388D01*
X158520665Y-56747603D01*
X158522403Y-56745544D01*
X158597570Y-56675030D01*
X158677487Y-56591301D01*
X158757403Y-56498811D01*
X158837320Y-56397562D01*
X158909186Y-56298635D01*
X158916820Y-56293957D01*
X158925528Y-56296047D01*
G37*
%TD.AperFunction*%
%TD*%
%TA.AperFunction,Conductor*%
%TO.N,GND*%
G36*
X182258059Y-77456657D02*
G01*
X182831257Y-78001293D01*
X182834894Y-78009476D01*
X182833692Y-78014948D01*
X182796208Y-78090980D01*
X182796189Y-78091023D01*
X182754899Y-78187163D01*
X182713600Y-78295713D01*
X182672300Y-78416660D01*
X182633552Y-78541762D01*
X182627831Y-78548651D01*
X182622376Y-78550000D01*
X181877624Y-78550000D01*
X181869351Y-78546573D01*
X181866448Y-78541762D01*
X181827698Y-78416660D01*
X181786398Y-78295713D01*
X181745099Y-78187163D01*
X181703809Y-78091023D01*
X181703790Y-78090980D01*
X181666307Y-78014948D01*
X181665722Y-78006013D01*
X181668740Y-78001295D01*
X182241941Y-77456656D01*
X182250299Y-77453443D01*
X182258059Y-77456657D01*
G37*
%TD.AperFunction*%
%TD*%
%TA.AperFunction,Conductor*%
%TO.N,GND*%
G36*
X195993919Y-60643920D02*
G01*
X196519121Y-61169122D01*
X196519657Y-61169695D01*
X196565881Y-61222763D01*
X196565884Y-61222766D01*
X196565885Y-61222767D01*
X196612351Y-61267319D01*
X196612363Y-61267329D01*
X196658818Y-61303078D01*
X196658823Y-61303081D01*
X196658828Y-61303085D01*
X196675384Y-61312691D01*
X196705301Y-61330052D01*
X196720975Y-61336180D01*
X196737069Y-61342472D01*
X196743527Y-61348676D01*
X196743706Y-61357629D01*
X196741993Y-61360618D01*
X196244971Y-61990345D01*
X196237156Y-61994716D01*
X196228538Y-61992280D01*
X196227488Y-61991343D01*
X196226496Y-61990345D01*
X195674762Y-61435097D01*
X195671361Y-61426813D01*
X195672437Y-61421948D01*
X195731342Y-61294361D01*
X195793654Y-61147004D01*
X195855967Y-60987257D01*
X195918279Y-60815120D01*
X195974562Y-60648448D01*
X195980455Y-60641708D01*
X195989389Y-60641108D01*
X195993919Y-60643920D01*
G37*
%TD.AperFunction*%
%TD*%
%TA.AperFunction,Conductor*%
%TO.N,GND*%
G36*
X191655104Y-54701781D02*
G01*
X191701343Y-54717914D01*
X191752686Y-54729259D01*
X191804030Y-54734035D01*
X191855373Y-54732240D01*
X191900803Y-54724838D01*
X191909517Y-54726890D01*
X191910955Y-54728113D01*
X192163209Y-54980367D01*
X192166636Y-54988640D01*
X192163209Y-54996913D01*
X192158992Y-54999614D01*
X192098845Y-55021843D01*
X192098837Y-55021847D01*
X192021573Y-55056971D01*
X192021532Y-55056991D01*
X191944268Y-55098686D01*
X191944254Y-55098694D01*
X191866986Y-55146958D01*
X191794397Y-55198470D01*
X191785667Y-55200463D01*
X191784182Y-55200110D01*
X191162213Y-55008536D01*
X191155315Y-55002825D01*
X191154475Y-54993910D01*
X191159740Y-54987261D01*
X191645335Y-54702732D01*
X191654206Y-54701507D01*
X191655104Y-54701781D01*
G37*
%TD.AperFunction*%
%TD*%
%TA.AperFunction,Conductor*%
%TO.N,GND*%
G36*
X201422367Y-55603848D02*
G01*
X201946451Y-56127932D01*
X201949878Y-56136205D01*
X201947499Y-56143277D01*
X201847938Y-56274500D01*
X201798919Y-56344853D01*
X201742200Y-56426259D01*
X201742193Y-56426270D01*
X201636461Y-56590405D01*
X201530738Y-56766919D01*
X201428927Y-56948832D01*
X201421896Y-56954378D01*
X201417039Y-56954697D01*
X200705889Y-56851662D01*
X200698193Y-56847084D01*
X200696751Y-56844545D01*
X200591915Y-56590405D01*
X200460591Y-56272053D01*
X200460604Y-56263099D01*
X200465642Y-56257411D01*
X200648290Y-56154046D01*
X200839930Y-56033203D01*
X200839932Y-56033201D01*
X200839944Y-56033194D01*
X201031558Y-55899978D01*
X201031557Y-55899978D01*
X201031571Y-55899969D01*
X201223211Y-55754346D01*
X201406652Y-55603093D01*
X201415214Y-55600475D01*
X201422367Y-55603848D01*
G37*
%TD.AperFunction*%
%TD*%
%TA.AperFunction,Conductor*%
%TO.N,GND*%
G36*
X141757400Y-58203279D02*
G01*
X141817334Y-58261089D01*
X141880667Y-58311035D01*
X141880666Y-58311035D01*
X141943998Y-58349840D01*
X141944000Y-58349841D01*
X141944002Y-58349842D01*
X142007336Y-58377506D01*
X142050889Y-58388868D01*
X142058028Y-58394272D01*
X142059255Y-58403143D01*
X142056198Y-58408471D01*
X141508264Y-58955253D01*
X141499988Y-58958671D01*
X141491736Y-58955253D01*
X140943801Y-58408471D01*
X140940365Y-58400201D01*
X140943783Y-58391925D01*
X140949108Y-58388869D01*
X140992663Y-58377506D01*
X141055997Y-58349842D01*
X141119331Y-58311036D01*
X141182665Y-58261089D01*
X141242601Y-58203277D01*
X141250722Y-58200000D01*
X141749277Y-58200000D01*
X141757400Y-58203279D01*
G37*
%TD.AperFunction*%
%TD*%
%TA.AperFunction,Conductor*%
%TO.N,GND*%
G36*
X184681535Y-55397207D02*
G01*
X184688409Y-55402946D01*
X184689532Y-55406156D01*
X184822241Y-56093478D01*
X184820445Y-56102251D01*
X184818545Y-56104424D01*
X184704835Y-56205947D01*
X184586165Y-56319790D01*
X184467514Y-56441504D01*
X184348829Y-56571143D01*
X184238397Y-56699110D01*
X184230397Y-56703134D01*
X184221895Y-56700324D01*
X184221266Y-56699739D01*
X183697655Y-56176128D01*
X183694228Y-56167855D01*
X183695751Y-56162085D01*
X183788084Y-55999412D01*
X183884813Y-55821105D01*
X183981542Y-55634908D01*
X184078271Y-55440821D01*
X184170625Y-55247978D01*
X184177288Y-55241999D01*
X184184666Y-55241867D01*
X184681535Y-55397207D01*
G37*
%TD.AperFunction*%
%TD*%
%TA.AperFunction,Conductor*%
%TO.N,+12V*%
G36*
X201425384Y-63170117D02*
G01*
X201430086Y-63176084D01*
X201717146Y-63996134D01*
X201717146Y-64003866D01*
X201430086Y-64823915D01*
X201424118Y-64830591D01*
X201416574Y-64831486D01*
X201213341Y-64787613D01*
X201123104Y-64768133D01*
X201123095Y-64768131D01*
X201123093Y-64768131D01*
X200819532Y-64715498D01*
X200515981Y-64675767D01*
X200471495Y-64671834D01*
X200212401Y-64648933D01*
X200120291Y-64644705D01*
X199919997Y-64635512D01*
X199911889Y-64631709D01*
X199908833Y-64623824D01*
X199908833Y-63376175D01*
X199912260Y-63367902D01*
X199919995Y-63364487D01*
X200212401Y-63351066D01*
X200515969Y-63324233D01*
X200659860Y-63305399D01*
X200819532Y-63284500D01*
X200896187Y-63271209D01*
X201123104Y-63231866D01*
X201416574Y-63168513D01*
X201425384Y-63170117D01*
G37*
%TD.AperFunction*%
%TD*%
%TA.AperFunction,Conductor*%
%TO.N,+5V*%
G36*
X142364997Y-59959034D02*
G01*
X142888794Y-60482831D01*
X142892221Y-60491104D01*
X142888794Y-60499377D01*
X142888474Y-60499686D01*
X142762906Y-60616053D01*
X142762902Y-60616057D01*
X142628423Y-60753071D01*
X142493967Y-60902450D01*
X142359469Y-61064266D01*
X142229800Y-61232221D01*
X142222032Y-61236675D01*
X142217427Y-61236350D01*
X141505383Y-61039887D01*
X141498319Y-61034383D01*
X141497359Y-61032196D01*
X141313579Y-60460795D01*
X141314308Y-60451872D01*
X141320788Y-60446194D01*
X141519800Y-60375302D01*
X141729493Y-60288214D01*
X141939187Y-60188736D01*
X142148880Y-60076868D01*
X142350760Y-59957240D01*
X142359624Y-59955972D01*
X142364997Y-59959034D01*
G37*
%TD.AperFunction*%
%TD*%
%TA.AperFunction,Conductor*%
%TO.N,+5V*%
G36*
X191420227Y-62005800D02*
G01*
X191919975Y-62445578D01*
X191923922Y-62453616D01*
X191923735Y-62456571D01*
X191898710Y-62586662D01*
X191872409Y-62731277D01*
X191846091Y-62883876D01*
X191819806Y-63044176D01*
X191795046Y-63202607D01*
X191790382Y-63210251D01*
X191783486Y-63212500D01*
X191041514Y-63212500D01*
X191033241Y-63209073D01*
X191029954Y-63202607D01*
X191005193Y-63044176D01*
X190978908Y-62883876D01*
X190952590Y-62731277D01*
X190926289Y-62586662D01*
X190901264Y-62456571D01*
X190903066Y-62447800D01*
X190905020Y-62445581D01*
X191404771Y-62005800D01*
X191413245Y-62002908D01*
X191420227Y-62005800D01*
G37*
%TD.AperFunction*%
%TD*%
%TA.AperFunction,Conductor*%
%TO.N,+5V*%
G36*
X191543345Y-66866992D02*
G01*
X191550560Y-66872297D01*
X191551826Y-66875234D01*
X191594985Y-67031264D01*
X191639957Y-67176326D01*
X191684927Y-67303871D01*
X191684942Y-67303911D01*
X191729914Y-67413942D01*
X191771251Y-67498980D01*
X191771786Y-67507919D01*
X191769001Y-67512368D01*
X191063980Y-68217389D01*
X191055707Y-68220816D01*
X191048276Y-68218153D01*
X190788906Y-68004876D01*
X190521333Y-67802374D01*
X190253784Y-67617408D01*
X190253777Y-67617403D01*
X189986212Y-67449947D01*
X189986198Y-67449938D01*
X189781313Y-67335125D01*
X189727687Y-67305075D01*
X189722145Y-67298041D01*
X189722592Y-67290403D01*
X190045453Y-66508590D01*
X190051777Y-66502253D01*
X190059061Y-66501697D01*
X191543345Y-66866992D01*
G37*
%TD.AperFunction*%
%TD*%
%TA.AperFunction,Conductor*%
%TO.N,+5V*%
G36*
X191048284Y-64798286D02*
G01*
X191753406Y-65503408D01*
X191756833Y-65511681D01*
X191755730Y-65516641D01*
X191717367Y-65598600D01*
X191675538Y-65705478D01*
X191675528Y-65705504D01*
X191675525Y-65705514D01*
X191633683Y-65829946D01*
X191591841Y-65971898D01*
X191591838Y-65971910D01*
X191551765Y-66124640D01*
X191546351Y-66131773D01*
X191543244Y-66133032D01*
X190059062Y-66498302D01*
X190050210Y-66496952D01*
X190045452Y-66491407D01*
X189722608Y-65709635D01*
X189722617Y-65700680D01*
X189727743Y-65694940D01*
X189983061Y-65553198D01*
X190247493Y-65388876D01*
X190511925Y-65207034D01*
X190776357Y-65007672D01*
X191032594Y-64797511D01*
X191041161Y-64794916D01*
X191048284Y-64798286D01*
G37*
%TD.AperFunction*%
%TD*%
%TA.AperFunction,Conductor*%
%TO.N,+5V*%
G36*
X194157222Y-61997508D02*
G01*
X194164170Y-62003156D01*
X194165054Y-62005258D01*
X194386087Y-62718850D01*
X194385262Y-62727767D01*
X194383818Y-62729899D01*
X194264123Y-62870418D01*
X194140313Y-63020538D01*
X194016491Y-63175440D01*
X193892631Y-63335161D01*
X193776885Y-63488879D01*
X193769171Y-63493427D01*
X193760500Y-63491188D01*
X193759265Y-63490114D01*
X193056710Y-62787559D01*
X193053283Y-62779286D01*
X193054848Y-62773441D01*
X193155265Y-62599330D01*
X193155291Y-62599285D01*
X193260218Y-62412586D01*
X193365146Y-62221118D01*
X193470073Y-62024879D01*
X193480316Y-62005258D01*
X193504260Y-61959386D01*
X193570534Y-61832425D01*
X193577399Y-61826679D01*
X193584247Y-61826629D01*
X194157222Y-61997508D01*
G37*
%TD.AperFunction*%
%TD*%
%TA.AperFunction,Conductor*%
%TO.N,+5V*%
G36*
X191063980Y-64782610D02*
G01*
X191769001Y-65487631D01*
X191772428Y-65495904D01*
X191771251Y-65501019D01*
X191729914Y-65586057D01*
X191684942Y-65696088D01*
X191684927Y-65696128D01*
X191639957Y-65823673D01*
X191594985Y-65968735D01*
X191551826Y-66124765D01*
X191546317Y-66131825D01*
X191543345Y-66133007D01*
X190059062Y-66498302D01*
X190050210Y-66496952D01*
X190045452Y-66491407D01*
X189894042Y-66124765D01*
X189722593Y-65709596D01*
X189722602Y-65700642D01*
X189727685Y-65694925D01*
X189986198Y-65550061D01*
X190253767Y-65382602D01*
X190521337Y-65197622D01*
X190788906Y-64995123D01*
X191048277Y-64781845D01*
X191056843Y-64779238D01*
X191063980Y-64782610D01*
G37*
%TD.AperFunction*%
%TD*%
%TA.AperFunction,Conductor*%
%TO.N,+5V*%
G36*
X190449076Y-55468476D02*
G01*
X190591351Y-55508803D01*
X190681740Y-55532747D01*
X190740247Y-55548247D01*
X190863705Y-55578662D01*
X190889107Y-55584921D01*
X191037985Y-55618840D01*
X191175926Y-55647710D01*
X191183320Y-55652758D01*
X191185078Y-55661030D01*
X191139598Y-55942106D01*
X191134893Y-55949725D01*
X191129569Y-55951838D01*
X190479096Y-56037098D01*
X190471474Y-56035480D01*
X190396666Y-55989759D01*
X190330825Y-55951838D01*
X190318305Y-55944627D01*
X190275319Y-55921383D01*
X190239954Y-55902261D01*
X190161615Y-55862661D01*
X190098331Y-55832902D01*
X190092303Y-55826280D01*
X190092722Y-55817335D01*
X190095034Y-55814044D01*
X190437618Y-55471460D01*
X190445890Y-55468034D01*
X190449076Y-55468476D01*
G37*
%TD.AperFunction*%
%TD*%
%TA.AperFunction,Conductor*%
%TO.N,+5V*%
G36*
X182257256Y-65044619D02*
G01*
X182759893Y-65606989D01*
X182762852Y-65615441D01*
X182758967Y-65623509D01*
X182758296Y-65624065D01*
X182672738Y-65689768D01*
X182577179Y-65786072D01*
X182577161Y-65786093D01*
X182481626Y-65905286D01*
X182386059Y-66047439D01*
X182293881Y-66206662D01*
X182286770Y-66212105D01*
X182283755Y-66212500D01*
X181917759Y-66212500D01*
X181909486Y-66209073D01*
X181906735Y-66204718D01*
X181846203Y-66034419D01*
X181782909Y-65878534D01*
X181782895Y-65878502D01*
X181719612Y-65744828D01*
X181719607Y-65744817D01*
X181656309Y-65633301D01*
X181599501Y-65553135D01*
X181597515Y-65544404D01*
X181601894Y-65537113D01*
X182241382Y-65043156D01*
X182250023Y-65040811D01*
X182257256Y-65044619D01*
G37*
%TD.AperFunction*%
%TD*%
%TA.AperFunction,Conductor*%
%TO.N,+5V*%
G36*
X191129570Y-54048161D02*
G01*
X191137326Y-54052634D01*
X191139598Y-54057893D01*
X191185078Y-54338969D01*
X191183016Y-54347683D01*
X191175925Y-54352290D01*
X191037994Y-54381157D01*
X190889076Y-54415085D01*
X190740248Y-54451751D01*
X190591376Y-54491189D01*
X190449081Y-54531522D01*
X190440186Y-54530481D01*
X190437617Y-54528538D01*
X190095037Y-54185958D01*
X190091610Y-54177685D01*
X190095037Y-54169412D01*
X190098327Y-54167099D01*
X190161610Y-54137339D01*
X190239957Y-54097735D01*
X190318305Y-54055372D01*
X190396652Y-54010248D01*
X190471477Y-53964517D01*
X190479093Y-53962900D01*
X191129570Y-54048161D01*
G37*
%TD.AperFunction*%
%TD*%
%TA.AperFunction,Conductor*%
%TO.N,+5V*%
G36*
X191785634Y-65136422D02*
G01*
X191789061Y-65144695D01*
X191788481Y-65148333D01*
X191744799Y-65281831D01*
X191696098Y-65455818D01*
X191651817Y-65636874D01*
X191647400Y-65654936D01*
X191621349Y-65774896D01*
X191598693Y-65879228D01*
X191551428Y-66121281D01*
X191546479Y-66128744D01*
X191542764Y-66130394D01*
X190059779Y-66498572D01*
X190050924Y-66497240D01*
X190046149Y-66491690D01*
X189723911Y-65712646D01*
X189723916Y-65703693D01*
X189730251Y-65697364D01*
X189731979Y-65696802D01*
X189981244Y-65636878D01*
X190243808Y-65548617D01*
X190506371Y-65435217D01*
X190768935Y-65296676D01*
X190947580Y-65185310D01*
X191028660Y-65134766D01*
X191034849Y-65132995D01*
X191777361Y-65132995D01*
X191785634Y-65136422D01*
G37*
%TD.AperFunction*%
%TD*%
%TA.AperFunction,Conductor*%
%TO.N,+5V*%
G36*
X198640910Y-70923418D02*
G01*
X198641349Y-70923881D01*
X198881441Y-71191702D01*
X198882369Y-71192882D01*
X199032675Y-71411422D01*
X199033106Y-71412097D01*
X199151236Y-71611883D01*
X199151247Y-71611900D01*
X199302194Y-71831371D01*
X199302199Y-71831378D01*
X199302202Y-71831381D01*
X199543654Y-72100719D01*
X199546625Y-72109167D01*
X199543225Y-72116792D01*
X198954139Y-72707265D01*
X198945870Y-72710702D01*
X198945846Y-72710702D01*
X198112444Y-72710010D01*
X198104174Y-72706576D01*
X198100754Y-72698300D01*
X198100777Y-72697579D01*
X198117791Y-72425668D01*
X198117864Y-72424905D01*
X198146032Y-72206167D01*
X198146810Y-72021714D01*
X198082307Y-71841001D01*
X198074548Y-71831378D01*
X197921279Y-71641285D01*
X197918754Y-71632693D01*
X197922113Y-71625669D01*
X198624365Y-70923417D01*
X198632637Y-70919991D01*
X198640910Y-70923418D01*
G37*
%TD.AperFunction*%
%TD*%
%TA.AperFunction,Conductor*%
%TO.N,+5V*%
G36*
X191779397Y-60790927D02*
G01*
X191782658Y-60797236D01*
X191808816Y-60950834D01*
X191836656Y-61106410D01*
X191862484Y-61243406D01*
X191864477Y-61253978D01*
X191886663Y-61365373D01*
X191892305Y-61393702D01*
X191918767Y-61519065D01*
X191917122Y-61527867D01*
X191915317Y-61530020D01*
X191420252Y-61993738D01*
X191411872Y-61996893D01*
X191404525Y-61993982D01*
X190904922Y-61554331D01*
X190900975Y-61546293D01*
X190901124Y-61543541D01*
X190903478Y-61530020D01*
X190923800Y-61413279D01*
X190947600Y-61268669D01*
X190947608Y-61268621D01*
X190971406Y-61116127D01*
X190995193Y-60955819D01*
X190995892Y-60950882D01*
X191017577Y-60797560D01*
X191022129Y-60789850D01*
X191029162Y-60787500D01*
X191771124Y-60787500D01*
X191779397Y-60790927D01*
G37*
%TD.AperFunction*%
%TD*%
%TA.AperFunction,Conductor*%
%TO.N,+5V*%
G36*
X182725718Y-59397507D02*
G01*
X182728927Y-59401167D01*
X182830738Y-59583079D01*
X182936461Y-59759593D01*
X182936466Y-59759600D01*
X183042200Y-59923740D01*
X183147933Y-60075491D01*
X183147938Y-60075498D01*
X183247499Y-60206722D01*
X183249769Y-60215384D01*
X183246451Y-60222067D01*
X182722367Y-60746151D01*
X182714094Y-60749578D01*
X182706651Y-60746905D01*
X182523223Y-60595663D01*
X182523211Y-60595653D01*
X182331570Y-60450030D01*
X182331557Y-60450020D01*
X182195252Y-60355257D01*
X182139930Y-60316796D01*
X181948289Y-60195953D01*
X181765642Y-60092589D01*
X181760131Y-60085532D01*
X181760589Y-60077946D01*
X181996751Y-59505453D01*
X182003074Y-59499113D01*
X182005886Y-59498337D01*
X182717040Y-59395302D01*
X182725718Y-59397507D01*
G37*
%TD.AperFunction*%
%TD*%
%TA.AperFunction,Conductor*%
%TO.N,+5V*%
G36*
X182578913Y-58939313D02*
G01*
X182701985Y-59055518D01*
X182719036Y-59071618D01*
X182867402Y-59185810D01*
X182867411Y-59185815D01*
X182867412Y-59185816D01*
X183015755Y-59274097D01*
X183015761Y-59274099D01*
X183015768Y-59274104D01*
X183164134Y-59336500D01*
X183164140Y-59336502D01*
X183258288Y-59359663D01*
X183303595Y-59370809D01*
X183310810Y-59376113D01*
X183312500Y-59382170D01*
X183312500Y-59617829D01*
X183309073Y-59626102D01*
X183303595Y-59629190D01*
X183164146Y-59663495D01*
X183164133Y-59663499D01*
X183015774Y-59725892D01*
X183015755Y-59725901D01*
X182867412Y-59814182D01*
X182867402Y-59814189D01*
X182719039Y-59928378D01*
X182719034Y-59928382D01*
X182578913Y-60060686D01*
X182570545Y-60063874D01*
X182562631Y-60060475D01*
X182226164Y-59725892D01*
X182007341Y-59508294D01*
X182003892Y-59500033D01*
X182007296Y-59491750D01*
X182562632Y-58939523D01*
X182570914Y-58936120D01*
X182578913Y-58939313D01*
G37*
%TD.AperFunction*%
%TD*%
%TA.AperFunction,Conductor*%
%TO.N,+5V*%
G36*
X186507873Y-57856866D02*
G01*
X186509531Y-57861413D01*
X186602620Y-58516700D01*
X186602137Y-58522042D01*
X186589135Y-58561096D01*
X186575250Y-58604185D01*
X186561409Y-58648509D01*
X186547509Y-58694406D01*
X186539212Y-58722632D01*
X186533591Y-58729603D01*
X186524687Y-58730557D01*
X186519714Y-58727605D01*
X186357321Y-58565212D01*
X186353900Y-58557315D01*
X186353239Y-58536780D01*
X186353239Y-58536779D01*
X186352429Y-58513012D01*
X186352429Y-58513011D01*
X186351620Y-58490649D01*
X186350810Y-58469643D01*
X186350065Y-58451579D01*
X186350357Y-58448457D01*
X186486550Y-57860417D01*
X186491754Y-57853133D01*
X186500587Y-57851661D01*
X186507873Y-57856866D01*
G37*
%TD.AperFunction*%
%TD*%
%TA.AperFunction,Conductor*%
%TO.N,+5V*%
G36*
X182972367Y-63791348D02*
G01*
X183496451Y-64315432D01*
X183499878Y-64323705D01*
X183497499Y-64330777D01*
X183397938Y-64462000D01*
X183348919Y-64532353D01*
X183292200Y-64613759D01*
X183292193Y-64613770D01*
X183186461Y-64777905D01*
X183080738Y-64954419D01*
X182978927Y-65136332D01*
X182971896Y-65141878D01*
X182967039Y-65142197D01*
X182255889Y-65039162D01*
X182248193Y-65034584D01*
X182246751Y-65032045D01*
X182141915Y-64777905D01*
X182010591Y-64459553D01*
X182010604Y-64450599D01*
X182015642Y-64444911D01*
X182198290Y-64341546D01*
X182389930Y-64220703D01*
X182389932Y-64220701D01*
X182389944Y-64220694D01*
X182581558Y-64087478D01*
X182581557Y-64087478D01*
X182581571Y-64087469D01*
X182773211Y-63941846D01*
X182956652Y-63790593D01*
X182965214Y-63787975D01*
X182972367Y-63791348D01*
G37*
%TD.AperFunction*%
%TD*%
%TA.AperFunction,Conductor*%
%TO.N,+3.3V*%
G36*
X182254159Y-74203427D02*
G01*
X182255832Y-74205538D01*
X182355575Y-74366516D01*
X182355577Y-74366520D01*
X182458756Y-74509392D01*
X182458758Y-74509395D01*
X182483886Y-74538430D01*
X182485463Y-74540773D01*
X182511259Y-74591400D01*
X182604103Y-74684244D01*
X182642413Y-74703764D01*
X182645051Y-74705605D01*
X182665109Y-74724184D01*
X182665115Y-74724189D01*
X182757462Y-74788560D01*
X182762289Y-74796102D01*
X182760369Y-74804849D01*
X182759494Y-74805955D01*
X182257256Y-75367880D01*
X182249188Y-75371765D01*
X182241381Y-75369342D01*
X181602447Y-74875811D01*
X181597994Y-74868042D01*
X181600340Y-74859400D01*
X181600437Y-74859275D01*
X181663929Y-74780222D01*
X181734847Y-74669220D01*
X181805764Y-74535515D01*
X181876682Y-74379108D01*
X181944674Y-74207393D01*
X181950906Y-74200962D01*
X181955552Y-74200000D01*
X182245886Y-74200000D01*
X182254159Y-74203427D01*
G37*
%TD.AperFunction*%
%TD*%
%TA.AperFunction,Conductor*%
%TO.N,+3.3V*%
G36*
X188466276Y-55336397D02*
G01*
X188563858Y-55411795D01*
X188669584Y-55484630D01*
X188669594Y-55484636D01*
X188669598Y-55484639D01*
X188745216Y-55530397D01*
X188775311Y-55548608D01*
X188881037Y-55603731D01*
X188976285Y-55645413D01*
X188982490Y-55651870D01*
X188982416Y-55660579D01*
X188867390Y-55940525D01*
X188861076Y-55946875D01*
X188852790Y-55947151D01*
X188228722Y-55734208D01*
X188221998Y-55728293D01*
X188220987Y-55721052D01*
X188223876Y-55705099D01*
X188228558Y-55673637D01*
X188233240Y-55636572D01*
X188237922Y-55593903D01*
X188242199Y-55549805D01*
X188245570Y-55542665D01*
X188450853Y-55337382D01*
X188459125Y-55333956D01*
X188466276Y-55336397D01*
G37*
%TD.AperFunction*%
%TD*%
%TA.AperFunction,Conductor*%
%TO.N,+3.3V*%
G36*
X179330591Y-70804171D02*
G01*
X179331529Y-70804611D01*
X179674069Y-70984312D01*
X179675673Y-70985328D01*
X179914412Y-71165214D01*
X180120337Y-71319523D01*
X180374322Y-71427160D01*
X180747526Y-71466496D01*
X180755395Y-71470772D01*
X180758000Y-71478132D01*
X180758000Y-71761867D01*
X180754573Y-71770140D01*
X180747526Y-71773503D01*
X180374322Y-71812839D01*
X180120338Y-71920474D01*
X179914400Y-72074794D01*
X179675675Y-72254669D01*
X179674069Y-72255686D01*
X179331537Y-72435384D01*
X179322619Y-72436193D01*
X179315741Y-72430458D01*
X179315297Y-72429512D01*
X179242900Y-72255244D01*
X178980863Y-71624486D01*
X178980855Y-71615534D01*
X179315297Y-70810486D01*
X179321636Y-70804162D01*
X179330591Y-70804171D01*
G37*
%TD.AperFunction*%
%TD*%
%TA.AperFunction,Conductor*%
%TO.N,+3.3V*%
G36*
X180369556Y-70359631D02*
G01*
X180372983Y-70367904D01*
X180372956Y-70368693D01*
X180345625Y-70773305D01*
X180345230Y-70775630D01*
X180266460Y-71060947D01*
X180265592Y-71063173D01*
X180143756Y-71300702D01*
X180143470Y-71301227D01*
X179986004Y-71573027D01*
X179986001Y-71573034D01*
X179806103Y-71950195D01*
X179799448Y-71956187D01*
X179791077Y-71955972D01*
X178984488Y-71622853D01*
X178978150Y-71616529D01*
X178645219Y-70811784D01*
X178645223Y-70802829D01*
X178651557Y-70796500D01*
X178653697Y-70795845D01*
X179052370Y-70714833D01*
X179055305Y-70714616D01*
X179441400Y-70734692D01*
X179441438Y-70734711D01*
X179441439Y-70734695D01*
X179764962Y-70752669D01*
X179986710Y-70661995D01*
X180045653Y-70442960D01*
X180066670Y-70364864D01*
X180072129Y-70357765D01*
X180077968Y-70356204D01*
X180361283Y-70356204D01*
X180369556Y-70359631D01*
G37*
%TD.AperFunction*%
%TD*%
%TA.AperFunction,Conductor*%
%TO.N,Net-(D1-A)*%
G36*
X148101467Y-58065927D02*
G01*
X148103364Y-58068415D01*
X148182507Y-58207554D01*
X148182507Y-58207555D01*
X148265000Y-58332559D01*
X148265001Y-58332560D01*
X148347495Y-58437537D01*
X148347494Y-58437537D01*
X148429996Y-58522497D01*
X148430002Y-58522503D01*
X148465775Y-58550657D01*
X148502027Y-58579188D01*
X148506409Y-58586997D01*
X148503985Y-58595618D01*
X148502970Y-58596748D01*
X148008179Y-59080503D01*
X147999868Y-59083836D01*
X147991821Y-59080503D01*
X147772829Y-58866396D01*
X147497028Y-58596747D01*
X147493509Y-58588514D01*
X147496842Y-58580203D01*
X147497961Y-58579197D01*
X147570000Y-58522501D01*
X147652499Y-58437543D01*
X147735000Y-58332557D01*
X147779559Y-58265034D01*
X147817492Y-58207555D01*
X147817492Y-58207554D01*
X147817491Y-58207554D01*
X147817500Y-58207542D01*
X147896636Y-58068415D01*
X147903705Y-58062918D01*
X147906806Y-58062500D01*
X148093194Y-58062500D01*
X148101467Y-58065927D01*
G37*
%TD.AperFunction*%
%TD*%
%TA.AperFunction,Conductor*%
%TO.N,Net-(D2-A)*%
G36*
X145214167Y-58157583D02*
G01*
X145288999Y-58207433D01*
X145407407Y-58286313D01*
X145539946Y-58358304D01*
X145608614Y-58395604D01*
X145608618Y-58395605D01*
X145608626Y-58395610D01*
X145809846Y-58480156D01*
X146011065Y-58539953D01*
X146011071Y-58539954D01*
X146011075Y-58539955D01*
X146075665Y-58551204D01*
X146197918Y-58572497D01*
X146205479Y-58577292D01*
X146207435Y-58586031D01*
X146206726Y-58588482D01*
X146003582Y-59081232D01*
X145997260Y-59087575D01*
X145993167Y-59088466D01*
X145309729Y-59111949D01*
X145301343Y-59108808D01*
X145297902Y-59102777D01*
X145294744Y-59088466D01*
X145283382Y-59036971D01*
X145252958Y-58899084D01*
X145252611Y-58897695D01*
X145205906Y-58710595D01*
X145158860Y-58546876D01*
X145111813Y-58407907D01*
X145106748Y-58395610D01*
X145067738Y-58300900D01*
X145067756Y-58291945D01*
X145070280Y-58288174D01*
X145199408Y-58159046D01*
X145207680Y-58155620D01*
X145214167Y-58157583D01*
G37*
%TD.AperFunction*%
%TD*%
%TA.AperFunction,Conductor*%
%TO.N,Net-(D3-A)*%
G36*
X143214167Y-58157583D02*
G01*
X143288999Y-58207433D01*
X143407407Y-58286313D01*
X143539946Y-58358304D01*
X143608614Y-58395604D01*
X143608618Y-58395605D01*
X143608626Y-58395610D01*
X143809846Y-58480156D01*
X144011065Y-58539953D01*
X144011071Y-58539954D01*
X144011075Y-58539955D01*
X144075665Y-58551204D01*
X144197918Y-58572497D01*
X144205479Y-58577292D01*
X144207435Y-58586031D01*
X144206726Y-58588482D01*
X144003582Y-59081232D01*
X143997260Y-59087575D01*
X143993167Y-59088466D01*
X143309729Y-59111949D01*
X143301343Y-59108808D01*
X143297902Y-59102777D01*
X143294744Y-59088466D01*
X143283382Y-59036971D01*
X143252958Y-58899084D01*
X143252611Y-58897695D01*
X143205906Y-58710595D01*
X143158860Y-58546876D01*
X143111813Y-58407907D01*
X143106748Y-58395610D01*
X143067738Y-58300900D01*
X143067756Y-58291945D01*
X143070280Y-58288174D01*
X143199408Y-58159046D01*
X143207680Y-58155620D01*
X143214167Y-58157583D01*
G37*
%TD.AperFunction*%
%TD*%
%TA.AperFunction,Conductor*%
%TO.N,Net-(J3-Pin_3)*%
G36*
X185977241Y-61271175D02*
G01*
X186139678Y-61433612D01*
X186143086Y-61441226D01*
X186144267Y-61462157D01*
X186145699Y-61486180D01*
X186145700Y-61486180D01*
X186145701Y-61486201D01*
X186147134Y-61508847D01*
X186148210Y-61524828D01*
X186148565Y-61530086D01*
X186149874Y-61548241D01*
X186149602Y-61551722D01*
X186013293Y-62140262D01*
X186008088Y-62147548D01*
X185999255Y-62149020D01*
X185991969Y-62143815D01*
X185990318Y-62139315D01*
X185904158Y-61550000D01*
X185894627Y-61484806D01*
X185895083Y-61479480D01*
X185908030Y-61439865D01*
X185921830Y-61396260D01*
X185935630Y-61351275D01*
X185949430Y-61304910D01*
X185957729Y-61276196D01*
X185963317Y-61269203D01*
X185972217Y-61268208D01*
X185977241Y-61271175D01*
G37*
%TD.AperFunction*%
%TD*%
%TA.AperFunction,Conductor*%
%TO.N,Net-(J3-Pin_3)*%
G36*
X189477417Y-63358998D02*
G01*
X189641000Y-63522581D01*
X189644427Y-63530854D01*
X189641262Y-63538856D01*
X189576869Y-63607536D01*
X189576858Y-63607549D01*
X189532101Y-63668002D01*
X189532097Y-63668007D01*
X189501981Y-63726638D01*
X189501976Y-63726649D01*
X189501976Y-63726650D01*
X189473745Y-63798158D01*
X189473745Y-63798159D01*
X189473744Y-63798158D01*
X189439016Y-63886172D01*
X189432792Y-63892610D01*
X189423839Y-63892761D01*
X189423695Y-63892704D01*
X189203823Y-63802564D01*
X189197468Y-63796255D01*
X189197435Y-63796176D01*
X189168931Y-63726649D01*
X189107295Y-63576304D01*
X189107328Y-63567349D01*
X189113683Y-63561040D01*
X189113827Y-63560983D01*
X189114368Y-63560769D01*
X189201841Y-63526253D01*
X189273348Y-63498022D01*
X189331995Y-63467898D01*
X189392456Y-63423134D01*
X189461143Y-63358735D01*
X189469521Y-63355577D01*
X189477417Y-63358998D01*
G37*
%TD.AperFunction*%
%TD*%
%TA.AperFunction,Conductor*%
%TO.N,Net-(J3-Pin_3)*%
G36*
X186480285Y-61272394D02*
G01*
X186642678Y-61434787D01*
X186646099Y-61442684D01*
X186646759Y-61463195D01*
X186647569Y-61486963D01*
X186648379Y-61509350D01*
X186649189Y-61530357D01*
X186649934Y-61548420D01*
X186649642Y-61551542D01*
X186513450Y-62139580D01*
X186508245Y-62146866D01*
X186499412Y-62148338D01*
X186492126Y-62143133D01*
X186490468Y-62138586D01*
X186406854Y-61550000D01*
X186397378Y-61483296D01*
X186397860Y-61477958D01*
X186410862Y-61438908D01*
X186424733Y-61395865D01*
X186438604Y-61351441D01*
X186452475Y-61305638D01*
X186452489Y-61305593D01*
X186460787Y-61277367D01*
X186466408Y-61270396D01*
X186475312Y-61269442D01*
X186480285Y-61272394D01*
G37*
%TD.AperFunction*%
%TD*%
%TA.AperFunction,Conductor*%
%TO.N,Net-(J3-Pin_3)*%
G36*
X189595340Y-62007776D02*
G01*
X189596185Y-62008621D01*
X190074160Y-62538127D01*
X190077160Y-62546565D01*
X190074453Y-62553469D01*
X190007681Y-62633374D01*
X189934381Y-62743921D01*
X189934374Y-62743933D01*
X189861086Y-62877292D01*
X189861079Y-62877305D01*
X189787793Y-63033482D01*
X189717475Y-63205233D01*
X189711169Y-63211591D01*
X189706647Y-63212500D01*
X189468353Y-63212500D01*
X189460080Y-63209073D01*
X189457525Y-63205233D01*
X189387205Y-63033482D01*
X189313919Y-62877305D01*
X189313918Y-62877304D01*
X189313911Y-62877288D01*
X189240618Y-62743922D01*
X189167324Y-62633383D01*
X189167319Y-62633377D01*
X189167317Y-62633374D01*
X189100546Y-62553469D01*
X189097871Y-62544924D01*
X189100838Y-62538128D01*
X189578815Y-62008620D01*
X189586902Y-62004776D01*
X189595340Y-62007776D01*
G37*
%TD.AperFunction*%
%TD*%
%TA.AperFunction,Conductor*%
%TO.N,Net-(J3-Pin_3)*%
G36*
X188735315Y-61031070D02*
G01*
X188895414Y-61123060D01*
X189073039Y-61201990D01*
X189188399Y-61238230D01*
X189250658Y-61257789D01*
X189250662Y-61257789D01*
X189250663Y-61257790D01*
X189428288Y-61290460D01*
X189428285Y-61290460D01*
X189486038Y-61293561D01*
X189594562Y-61299390D01*
X189602640Y-61303255D01*
X189605631Y-61311364D01*
X189588688Y-61992419D01*
X189585057Y-62000604D01*
X189581503Y-62002923D01*
X189086929Y-62209588D01*
X189077974Y-62209616D01*
X189071623Y-62203304D01*
X189071227Y-62202207D01*
X189003557Y-61980398D01*
X188932115Y-61769353D01*
X188898421Y-61680728D01*
X188860680Y-61581456D01*
X188860678Y-61581453D01*
X188860673Y-61581439D01*
X188789231Y-61416654D01*
X188719042Y-61277484D01*
X188717789Y-61272215D01*
X188717789Y-61041216D01*
X188721216Y-61032943D01*
X188729489Y-61029516D01*
X188735315Y-61031070D01*
G37*
%TD.AperFunction*%
%TD*%
%TA.AperFunction,Conductor*%
%TO.N,Net-(J4-Pin_1)*%
G36*
X199454675Y-76093427D02*
G01*
X199458102Y-76101597D01*
X199461078Y-76440039D01*
X199461079Y-76440053D01*
X199478325Y-76690242D01*
X199478326Y-76690246D01*
X199521766Y-76902902D01*
X199603416Y-77140297D01*
X199675100Y-77316636D01*
X199730925Y-77453963D01*
X199730866Y-77462918D01*
X199724575Y-77469174D01*
X198954489Y-77789134D01*
X198945534Y-77789143D01*
X198945511Y-77789134D01*
X198175424Y-77469174D01*
X198169099Y-77462835D01*
X198169074Y-77453963D01*
X198296583Y-77140297D01*
X198378233Y-76902902D01*
X198421672Y-76690246D01*
X198438921Y-76440041D01*
X198441898Y-76101597D01*
X198445398Y-76093354D01*
X198453598Y-76090000D01*
X199446402Y-76090000D01*
X199454675Y-76093427D01*
G37*
%TD.AperFunction*%
%TD*%
%TA.AperFunction,Conductor*%
%TO.N,4*%
G36*
X187399612Y-74478427D02*
G01*
X187402529Y-74483284D01*
X187450348Y-74639936D01*
X187475528Y-74712337D01*
X187500704Y-74784729D01*
X187551057Y-74909352D01*
X187601409Y-75013813D01*
X187645853Y-75088221D01*
X187647153Y-75097081D01*
X187641960Y-75104173D01*
X187009111Y-75495368D01*
X187000272Y-75496803D01*
X186993589Y-75492421D01*
X186624715Y-74998908D01*
X186622506Y-74990229D01*
X186627081Y-74982532D01*
X186629030Y-74981352D01*
X186732950Y-74931610D01*
X186849712Y-74852415D01*
X186966475Y-74749915D01*
X187083237Y-74624110D01*
X187196486Y-74479486D01*
X187204285Y-74475086D01*
X187205698Y-74475000D01*
X187391339Y-74475000D01*
X187399612Y-74478427D01*
G37*
%TD.AperFunction*%
%TD*%
%TA.AperFunction,Conductor*%
%TO.N,PAD_RX*%
G36*
X189095612Y-59495898D02*
G01*
X189096133Y-59496400D01*
X189580503Y-59991821D01*
X189583836Y-60000132D01*
X189580503Y-60008179D01*
X189096133Y-60503599D01*
X189087899Y-60507119D01*
X189079588Y-60503786D01*
X189079094Y-60503273D01*
X188982445Y-60396323D01*
X188877459Y-60299685D01*
X188877454Y-60299681D01*
X188772476Y-60222587D01*
X188772470Y-60222583D01*
X188667490Y-60165025D01*
X188667488Y-60165024D01*
X188667486Y-60165023D01*
X188617427Y-60146893D01*
X188570216Y-60129794D01*
X188563604Y-60123754D01*
X188562500Y-60118793D01*
X188562500Y-59881206D01*
X188565927Y-59872933D01*
X188570214Y-59870205D01*
X188667486Y-59834976D01*
X188772472Y-59777414D01*
X188877459Y-59700314D01*
X188982445Y-59603676D01*
X189079088Y-59496732D01*
X189087176Y-59492894D01*
X189095612Y-59495898D01*
G37*
%TD.AperFunction*%
%TD*%
%TA.AperFunction,Conductor*%
%TO.N,PAD_RX*%
G36*
X189098050Y-59483457D02*
G01*
X189099661Y-59484872D01*
X189580345Y-59992406D01*
X189583546Y-60000769D01*
X189580089Y-60008758D01*
X189093586Y-60491295D01*
X189085299Y-60494688D01*
X189077040Y-60491227D01*
X189076701Y-60490870D01*
X188964674Y-60367985D01*
X188844427Y-60258374D01*
X188724185Y-60171058D01*
X188724180Y-60171055D01*
X188724177Y-60171053D01*
X188603929Y-60106024D01*
X188603921Y-60106020D01*
X188501131Y-60069487D01*
X188494483Y-60063488D01*
X188494025Y-60054545D01*
X188496774Y-60050192D01*
X188662089Y-59884877D01*
X188664771Y-59882874D01*
X188748625Y-59837340D01*
X188833965Y-59773267D01*
X188919306Y-59691462D01*
X189004646Y-59591925D01*
X189081707Y-59486032D01*
X189089345Y-59481360D01*
X189098050Y-59483457D01*
G37*
%TD.AperFunction*%
%TD*%
%TA.AperFunction,Conductor*%
%TO.N,PAD_RX*%
G36*
X187509919Y-57844903D02*
G01*
X187511401Y-57848480D01*
X187649555Y-58448072D01*
X187649785Y-58451966D01*
X187645397Y-58492260D01*
X187640800Y-58535841D01*
X187640801Y-58535842D01*
X187636201Y-58580842D01*
X187636202Y-58580843D01*
X187631598Y-58627257D01*
X187628019Y-58664421D01*
X187623815Y-58672328D01*
X187616373Y-58675000D01*
X187383627Y-58675000D01*
X187375354Y-58671573D01*
X187371981Y-58664422D01*
X187368401Y-58627257D01*
X187363797Y-58580843D01*
X187363797Y-58580842D01*
X187359198Y-58535842D01*
X187359198Y-58535841D01*
X187354602Y-58492260D01*
X187350214Y-58451966D01*
X187350444Y-58448072D01*
X187488599Y-57848480D01*
X187493796Y-57841188D01*
X187502627Y-57839706D01*
X187509919Y-57844903D01*
G37*
%TD.AperFunction*%
%TD*%
%TA.AperFunction,Conductor*%
%TO.N,PAD_TXE*%
G36*
X187020629Y-55292030D02*
G01*
X187025735Y-55299386D01*
X187025972Y-55301028D01*
X187039358Y-55486184D01*
X187045399Y-55569739D01*
X187065799Y-55828776D01*
X187078692Y-55977874D01*
X187086199Y-56064689D01*
X187106602Y-56277491D01*
X187125606Y-56454156D01*
X187123084Y-56462748D01*
X187115224Y-56467040D01*
X187113973Y-56467107D01*
X186877703Y-56467107D01*
X186869605Y-56463852D01*
X186752216Y-56351280D01*
X186752202Y-56351268D01*
X186631450Y-56256669D01*
X186631429Y-56256654D01*
X186510651Y-56183236D01*
X186389875Y-56131019D01*
X186389873Y-56131018D01*
X186389870Y-56131017D01*
X186389865Y-56131015D01*
X186389863Y-56131015D01*
X186281401Y-56103161D01*
X186274240Y-56097784D01*
X186272979Y-56088919D01*
X186273251Y-56088011D01*
X186510347Y-55405197D01*
X186516297Y-55398509D01*
X186518907Y-55397606D01*
X187011817Y-55290439D01*
X187020629Y-55292030D01*
G37*
%TD.AperFunction*%
%TD*%
%TA.AperFunction,Conductor*%
%TO.N,PAD_TXE*%
G36*
X187124645Y-56928427D02*
G01*
X187128018Y-56935579D01*
X187131597Y-56972743D01*
X187136201Y-57019157D01*
X187140796Y-57064121D01*
X187145396Y-57107740D01*
X187149784Y-57148033D01*
X187149554Y-57151927D01*
X187011400Y-57751519D01*
X187006203Y-57758811D01*
X186997372Y-57760293D01*
X186990080Y-57755096D01*
X186988598Y-57751519D01*
X186850443Y-57151927D01*
X186850213Y-57148033D01*
X186854601Y-57107740D01*
X186859201Y-57064121D01*
X186863796Y-57019157D01*
X186868400Y-56972743D01*
X186871980Y-56935578D01*
X186876184Y-56927672D01*
X186883626Y-56925000D01*
X187116372Y-56925000D01*
X187124645Y-56928427D01*
G37*
%TD.AperFunction*%
%TD*%
%TA.AperFunction,Conductor*%
%TO.N,PAD_TXE*%
G36*
X185489624Y-62198036D02*
G01*
X185497544Y-62202213D01*
X185500239Y-62209418D01*
X185516571Y-62921396D01*
X185514693Y-62928026D01*
X185508736Y-62937220D01*
X185508706Y-62937268D01*
X185500795Y-62950854D01*
X185494648Y-62962483D01*
X185492862Y-62965862D01*
X185488363Y-62975152D01*
X185484917Y-62982271D01*
X185480094Y-62993075D01*
X185473592Y-62999232D01*
X185469411Y-63000005D01*
X185236702Y-63000005D01*
X185228429Y-62996578D01*
X185225002Y-62988305D01*
X185225146Y-62986473D01*
X185248401Y-62839771D01*
X185273801Y-62678165D01*
X185299199Y-62515195D01*
X185324601Y-62350815D01*
X185348330Y-62195973D01*
X185352971Y-62188314D01*
X185360973Y-62186095D01*
X185489624Y-62198036D01*
G37*
%TD.AperFunction*%
%TD*%
%TA.AperFunction,Conductor*%
%TO.N,PAD_TXE*%
G36*
X185473945Y-63295427D02*
G01*
X185477366Y-63303323D01*
X185480396Y-63397420D01*
X185480398Y-63397435D01*
X185491494Y-63471826D01*
X185491497Y-63471835D01*
X185511662Y-63534597D01*
X185511668Y-63534614D01*
X185542264Y-63605127D01*
X185579944Y-63691922D01*
X185580095Y-63700875D01*
X185573871Y-63707313D01*
X185573729Y-63707374D01*
X185354518Y-63799109D01*
X185345563Y-63799142D01*
X185345484Y-63799109D01*
X185126272Y-63707374D01*
X185119963Y-63701019D01*
X185119996Y-63692064D01*
X185120057Y-63691922D01*
X185157736Y-63605127D01*
X185188332Y-63534614D01*
X185188337Y-63534603D01*
X185208504Y-63471832D01*
X185219604Y-63397427D01*
X185222636Y-63303322D01*
X185226328Y-63295165D01*
X185234330Y-63292000D01*
X185465672Y-63292000D01*
X185473945Y-63295427D01*
G37*
%TD.AperFunction*%
%TD*%
%TA.AperFunction,Conductor*%
%TO.N,PAD_TXE*%
G36*
X185573729Y-63892625D02*
G01*
X185580038Y-63898980D01*
X185580005Y-63907935D01*
X185579944Y-63908077D01*
X185542264Y-63994868D01*
X185542265Y-63994869D01*
X185511668Y-64065384D01*
X185511662Y-64065401D01*
X185491497Y-64128163D01*
X185491494Y-64128172D01*
X185480398Y-64202563D01*
X185480396Y-64202578D01*
X185477366Y-64296677D01*
X185473675Y-64304835D01*
X185465672Y-64308000D01*
X185234330Y-64308000D01*
X185226057Y-64304573D01*
X185222636Y-64296677D01*
X185219604Y-64202578D01*
X185219604Y-64202572D01*
X185208504Y-64128167D01*
X185188337Y-64065396D01*
X185157735Y-63994870D01*
X185157735Y-63994869D01*
X185157735Y-63994868D01*
X185120057Y-63908077D01*
X185119906Y-63899124D01*
X185126130Y-63892686D01*
X185126224Y-63892645D01*
X185345484Y-63800889D01*
X185354439Y-63800857D01*
X185573729Y-63892625D01*
G37*
%TD.AperFunction*%
%TD*%
%TA.AperFunction,Conductor*%
%TO.N,21*%
G36*
X185542570Y-71492517D02*
G01*
X185548878Y-71498871D01*
X185548845Y-71507826D01*
X185548673Y-71508218D01*
X185508324Y-71595519D01*
X185508049Y-71596074D01*
X185471233Y-71665790D01*
X185471230Y-71665795D01*
X185443742Y-71727574D01*
X185426606Y-71801517D01*
X185421313Y-71896948D01*
X185417433Y-71905019D01*
X185409631Y-71908000D01*
X185228569Y-71908000D01*
X185220296Y-71904573D01*
X185216887Y-71896948D01*
X185216377Y-71887773D01*
X185211593Y-71801518D01*
X185194456Y-71727575D01*
X185166967Y-71665793D01*
X185130141Y-71596061D01*
X185129869Y-71595511D01*
X185089526Y-71508218D01*
X185089166Y-71499271D01*
X185095239Y-71492689D01*
X185095630Y-71492517D01*
X185314583Y-71400889D01*
X185323538Y-71400857D01*
X185542570Y-71492517D01*
G37*
%TD.AperFunction*%
%TD*%
%TA.AperFunction,Conductor*%
%TO.N,31*%
G36*
X178984121Y-64002714D02*
G01*
X179344167Y-64363571D01*
X179599730Y-64619710D01*
X179603148Y-64627987D01*
X179599712Y-64636256D01*
X179599089Y-64636834D01*
X179301323Y-64893623D01*
X179299681Y-64894808D01*
X179050009Y-65043921D01*
X179049072Y-65044424D01*
X178817581Y-65155508D01*
X178566585Y-65305412D01*
X178566582Y-65305414D01*
X178266748Y-65563988D01*
X178258245Y-65566796D01*
X178250834Y-65563401D01*
X178085914Y-65398481D01*
X178082487Y-65390208D01*
X178084657Y-65383421D01*
X178269091Y-65124639D01*
X178295704Y-64889524D01*
X178228436Y-64648681D01*
X178137307Y-64365694D01*
X178136836Y-64363571D01*
X178092658Y-64013152D01*
X178095023Y-64004516D01*
X178102803Y-64000081D01*
X178104249Y-63999989D01*
X178975850Y-63999296D01*
X178984121Y-64002714D01*
G37*
%TD.AperFunction*%
%TD*%
%TA.AperFunction,Conductor*%
%TO.N,30*%
G36*
X178169073Y-66204090D02*
G01*
X178975511Y-66537146D01*
X178981850Y-66543471D01*
X178981856Y-66543487D01*
X179314771Y-67348192D01*
X179314767Y-67357147D01*
X179308433Y-67363476D01*
X179306270Y-67364135D01*
X178896621Y-67446648D01*
X178893655Y-67446860D01*
X178496898Y-67424570D01*
X178496898Y-67424567D01*
X178496834Y-67424566D01*
X178164313Y-67404105D01*
X178164308Y-67404106D01*
X177936254Y-67495453D01*
X177936254Y-67495454D01*
X177853938Y-67799872D01*
X177848471Y-67806964D01*
X177842644Y-67808518D01*
X177660737Y-67808518D01*
X177652464Y-67805091D01*
X177649037Y-67796818D01*
X177649053Y-67796199D01*
X177656869Y-67648659D01*
X177670414Y-67392975D01*
X177670676Y-67391066D01*
X177734772Y-67103300D01*
X177735442Y-67101229D01*
X177839394Y-66860188D01*
X177839735Y-66859470D01*
X177981597Y-66585465D01*
X178153975Y-66210020D01*
X178160540Y-66203933D01*
X178169073Y-66204090D01*
G37*
%TD.AperFunction*%
%TD*%
%TA.AperFunction,Conductor*%
%TO.N,PAD_B1*%
G36*
X182873322Y-68250041D02*
G01*
X182876749Y-68258314D01*
X182876746Y-68258563D01*
X182874614Y-68358840D01*
X182874587Y-68359426D01*
X182868915Y-68438732D01*
X182868888Y-68439049D01*
X182862095Y-68507722D01*
X182856394Y-68587439D01*
X182856391Y-68587502D01*
X182854242Y-68688593D01*
X182850640Y-68696791D01*
X182842591Y-68700044D01*
X182604891Y-68700980D01*
X182596605Y-68697586D01*
X182429228Y-68529277D01*
X182425824Y-68520995D01*
X182429274Y-68512731D01*
X182429832Y-68512211D01*
X182487353Y-68462334D01*
X182488099Y-68461741D01*
X182543732Y-68421048D01*
X182586363Y-68381872D01*
X182613489Y-68328921D01*
X182621803Y-68256970D01*
X182626157Y-68249146D01*
X182633426Y-68246614D01*
X182865049Y-68246614D01*
X182873322Y-68250041D01*
G37*
%TD.AperFunction*%
%TD*%
%TA.AperFunction,Conductor*%
%TO.N,PAD_A1*%
G36*
X181573842Y-70516632D02*
G01*
X181577266Y-70524633D01*
X181579808Y-70634050D01*
X181586502Y-70719650D01*
X181594478Y-70793379D01*
X181594510Y-70793725D01*
X181601166Y-70878836D01*
X181601199Y-70879476D01*
X181603722Y-70988074D01*
X181600488Y-70996425D01*
X181592297Y-71000043D01*
X181592071Y-71000046D01*
X181352373Y-71000990D01*
X181347810Y-71000083D01*
X181127374Y-70907836D01*
X181121065Y-70901481D01*
X181121098Y-70892526D01*
X181121647Y-70891391D01*
X181168779Y-70806225D01*
X181170168Y-70804237D01*
X181224891Y-70741171D01*
X181224961Y-70741093D01*
X181274230Y-70686967D01*
X181309512Y-70618909D01*
X181321696Y-70523423D01*
X181326143Y-70515651D01*
X181333302Y-70513205D01*
X181565569Y-70513205D01*
X181573842Y-70516632D01*
G37*
%TD.AperFunction*%
%TD*%
%TA.AperFunction,Conductor*%
%TO.N,PAD_A2*%
G36*
X181073728Y-62242625D02*
G01*
X181080037Y-62248980D01*
X181080004Y-62257935D01*
X181079943Y-62258077D01*
X181042263Y-62344868D01*
X181042264Y-62344869D01*
X181011667Y-62415384D01*
X181011661Y-62415401D01*
X180991496Y-62478163D01*
X180991493Y-62478172D01*
X180980397Y-62552563D01*
X180980395Y-62552578D01*
X180977365Y-62646677D01*
X180973674Y-62654835D01*
X180965671Y-62658000D01*
X180734329Y-62658000D01*
X180726056Y-62654573D01*
X180722635Y-62646677D01*
X180719603Y-62552578D01*
X180719603Y-62552572D01*
X180708503Y-62478167D01*
X180688336Y-62415396D01*
X180657734Y-62344870D01*
X180657734Y-62344869D01*
X180657734Y-62344868D01*
X180620056Y-62258077D01*
X180619905Y-62249124D01*
X180626129Y-62242686D01*
X180626223Y-62242645D01*
X180845483Y-62150889D01*
X180854438Y-62150857D01*
X181073728Y-62242625D01*
G37*
%TD.AperFunction*%
%TD*%
%TA.AperFunction,Conductor*%
%TO.N,PAD_A2*%
G36*
X180973944Y-63145427D02*
G01*
X180977365Y-63153323D01*
X180980395Y-63247420D01*
X180980397Y-63247435D01*
X180991493Y-63321826D01*
X180991496Y-63321835D01*
X181011661Y-63384597D01*
X181011667Y-63384614D01*
X181042263Y-63455127D01*
X181079943Y-63541922D01*
X181080094Y-63550875D01*
X181073870Y-63557313D01*
X181073728Y-63557374D01*
X180854517Y-63649109D01*
X180845562Y-63649142D01*
X180845483Y-63649109D01*
X180626271Y-63557374D01*
X180619962Y-63551019D01*
X180619995Y-63542064D01*
X180620056Y-63541922D01*
X180657735Y-63455127D01*
X180688331Y-63384614D01*
X180688336Y-63384603D01*
X180708503Y-63321832D01*
X180719603Y-63247427D01*
X180722635Y-63153322D01*
X180726327Y-63145165D01*
X180734329Y-63142000D01*
X180965671Y-63142000D01*
X180973944Y-63145427D01*
G37*
%TD.AperFunction*%
%TD*%
%TA.AperFunction,Conductor*%
%TO.N,PAD_A2*%
G36*
X183542071Y-65799953D02*
G01*
X183550331Y-65803412D01*
X183553725Y-65811699D01*
X183553722Y-65811925D01*
X183551198Y-65920522D01*
X183551165Y-65921162D01*
X183544509Y-66006273D01*
X183544477Y-66006619D01*
X183536501Y-66080348D01*
X183529807Y-66165948D01*
X183527265Y-66275368D01*
X183523647Y-66283559D01*
X183515568Y-66286796D01*
X183283301Y-66286796D01*
X183275028Y-66283369D01*
X183271695Y-66276577D01*
X183271541Y-66275368D01*
X183259511Y-66181091D01*
X183224229Y-66113032D01*
X183175000Y-66058948D01*
X183174836Y-66058764D01*
X183129590Y-66006619D01*
X183120172Y-65995764D01*
X183118776Y-65993767D01*
X183071653Y-65908619D01*
X183070646Y-65899723D01*
X183076226Y-65892719D01*
X183077359Y-65892169D01*
X183297812Y-65799915D01*
X183302371Y-65799009D01*
X183542071Y-65799953D01*
G37*
%TD.AperFunction*%
%TD*%
%TA.AperFunction,Conductor*%
%TO.N,14*%
G36*
X170846814Y-62304074D02*
G01*
X171074690Y-62489232D01*
X171074692Y-62489234D01*
X171157631Y-62523465D01*
X171275643Y-62572173D01*
X171475721Y-62602606D01*
X171704382Y-62636199D01*
X171708254Y-62636768D01*
X171710059Y-62637181D01*
X171998063Y-62727612D01*
X172004930Y-62733360D01*
X172005721Y-62742280D01*
X172005373Y-62743238D01*
X171744162Y-63376210D01*
X171737839Y-63382550D01*
X171737810Y-63382562D01*
X171104838Y-63643773D01*
X171095883Y-63643761D01*
X171089560Y-63637421D01*
X171089212Y-63636463D01*
X170998781Y-63348458D01*
X170998368Y-63346654D01*
X170997799Y-63342782D01*
X170964206Y-63114121D01*
X170933773Y-62914043D01*
X170863276Y-62743238D01*
X170850834Y-62713092D01*
X170850832Y-62713090D01*
X170665674Y-62485214D01*
X170663116Y-62476632D01*
X170666480Y-62469564D01*
X170831164Y-62304880D01*
X170839436Y-62301454D01*
X170846814Y-62304074D01*
G37*
%TD.AperFunction*%
%TD*%
%TA.AperFunction,Conductor*%
%TO.N,14*%
G36*
X148553504Y-60426016D02*
G01*
X148679036Y-60537977D01*
X148812402Y-60634097D01*
X148945768Y-60707391D01*
X149079134Y-60757859D01*
X149203174Y-60783567D01*
X149210580Y-60788602D01*
X149212500Y-60795024D01*
X149212500Y-61029975D01*
X149209073Y-61038248D01*
X149203174Y-61041432D01*
X149118741Y-61058931D01*
X149079134Y-61067140D01*
X149079131Y-61067140D01*
X149079131Y-61067141D01*
X148945768Y-61117608D01*
X148812407Y-61190898D01*
X148679034Y-61287023D01*
X148553505Y-61398982D01*
X148545049Y-61401931D01*
X148537878Y-61398935D01*
X148008620Y-60921184D01*
X148004776Y-60913098D01*
X148007776Y-60904660D01*
X148008621Y-60903815D01*
X148537879Y-60426063D01*
X148546315Y-60423064D01*
X148553504Y-60426016D01*
G37*
%TD.AperFunction*%
%TD*%
%TA.AperFunction,Conductor*%
%TO.N,15*%
G36*
X168306814Y-62304074D02*
G01*
X168534690Y-62489232D01*
X168534692Y-62489234D01*
X168617631Y-62523465D01*
X168735643Y-62572173D01*
X168935721Y-62602606D01*
X169164382Y-62636199D01*
X169168254Y-62636768D01*
X169170059Y-62637181D01*
X169458063Y-62727612D01*
X169464930Y-62733360D01*
X169465721Y-62742280D01*
X169465373Y-62743238D01*
X169204162Y-63376210D01*
X169197839Y-63382550D01*
X169197810Y-63382562D01*
X168564838Y-63643773D01*
X168555883Y-63643761D01*
X168549560Y-63637421D01*
X168549212Y-63636463D01*
X168458781Y-63348458D01*
X168458368Y-63346654D01*
X168457799Y-63342782D01*
X168424206Y-63114121D01*
X168393773Y-62914043D01*
X168323276Y-62743238D01*
X168310834Y-62713092D01*
X168310832Y-62713090D01*
X168125674Y-62485214D01*
X168123116Y-62476632D01*
X168126480Y-62469564D01*
X168291164Y-62304880D01*
X168299436Y-62301454D01*
X168306814Y-62304074D01*
G37*
%TD.AperFunction*%
%TD*%
%TA.AperFunction,Conductor*%
%TO.N,15*%
G36*
X146698898Y-60891182D02*
G01*
X146702273Y-60896931D01*
X146750860Y-61093857D01*
X146801734Y-61276923D01*
X146852592Y-61436801D01*
X146903461Y-61573583D01*
X146951032Y-61679865D01*
X146951284Y-61688816D01*
X146948626Y-61692918D01*
X146781575Y-61859969D01*
X146773302Y-61863396D01*
X146766710Y-61861362D01*
X146577319Y-61732200D01*
X146577308Y-61732193D01*
X146379930Y-61620711D01*
X146379923Y-61620708D01*
X146379924Y-61620708D01*
X146379918Y-61620705D01*
X146182517Y-61532340D01*
X146182512Y-61532338D01*
X146182509Y-61532337D01*
X146081374Y-61498915D01*
X145985116Y-61467105D01*
X145864530Y-61441384D01*
X145801440Y-61427927D01*
X145794064Y-61422849D01*
X145792438Y-61414043D01*
X145793060Y-61412036D01*
X145996418Y-60918765D01*
X146002739Y-60912424D01*
X146006826Y-60911534D01*
X146690514Y-60888041D01*
X146698898Y-60891182D01*
G37*
%TD.AperFunction*%
%TD*%
%TA.AperFunction,Conductor*%
%TO.N,16*%
G36*
X165766814Y-62304074D02*
G01*
X165994690Y-62489232D01*
X165994692Y-62489234D01*
X166077631Y-62523465D01*
X166195643Y-62572173D01*
X166395721Y-62602606D01*
X166624382Y-62636199D01*
X166628254Y-62636768D01*
X166630059Y-62637181D01*
X166918063Y-62727612D01*
X166924930Y-62733360D01*
X166925721Y-62742280D01*
X166925373Y-62743238D01*
X166664162Y-63376210D01*
X166657839Y-63382550D01*
X166657810Y-63382562D01*
X166024838Y-63643773D01*
X166015883Y-63643761D01*
X166009560Y-63637421D01*
X166009212Y-63636463D01*
X165918781Y-63348458D01*
X165918368Y-63346654D01*
X165917799Y-63342782D01*
X165884206Y-63114121D01*
X165853773Y-62914043D01*
X165783276Y-62743238D01*
X165770834Y-62713092D01*
X165770832Y-62713090D01*
X165585674Y-62485214D01*
X165583116Y-62476632D01*
X165586480Y-62469564D01*
X165751164Y-62304880D01*
X165759436Y-62301454D01*
X165766814Y-62304074D01*
G37*
%TD.AperFunction*%
%TD*%
%TA.AperFunction,Conductor*%
%TO.N,16*%
G36*
X150196010Y-61697198D02*
G01*
X150199975Y-61705227D01*
X150200000Y-61705999D01*
X150200000Y-61937805D01*
X150196573Y-61946078D01*
X150190474Y-61949301D01*
X150125214Y-61961644D01*
X150125211Y-61961646D01*
X150084953Y-61999660D01*
X150060020Y-62054978D01*
X150031854Y-62119555D01*
X150030532Y-62121840D01*
X149987660Y-62179728D01*
X149979983Y-62184337D01*
X149971295Y-62182167D01*
X149970008Y-62181061D01*
X149802469Y-62014450D01*
X149799019Y-62006186D01*
X149799019Y-62006108D01*
X149799045Y-61999660D01*
X149799957Y-61767908D01*
X149803416Y-61759649D01*
X149810883Y-61756280D01*
X149899921Y-61750396D01*
X149969960Y-61734648D01*
X150029584Y-61715994D01*
X150030498Y-61715748D01*
X150099191Y-61700303D01*
X150100978Y-61700044D01*
X150187528Y-61694324D01*
X150196010Y-61697198D01*
G37*
%TD.AperFunction*%
%TD*%
%TA.AperFunction,Conductor*%
%TO.N,16*%
G36*
X143993169Y-60911533D02*
G01*
X144001317Y-60915242D01*
X144003582Y-60918767D01*
X144206935Y-61412025D01*
X144206920Y-61420979D01*
X144200577Y-61427301D01*
X144198559Y-61427927D01*
X144091919Y-61450673D01*
X144014883Y-61467105D01*
X144014880Y-61467106D01*
X143817489Y-61532337D01*
X143817483Y-61532339D01*
X143817482Y-61532340D01*
X143620081Y-61620705D01*
X143620078Y-61620706D01*
X143620075Y-61620708D01*
X143620068Y-61620711D01*
X143422690Y-61732193D01*
X143422679Y-61732200D01*
X143233289Y-61861362D01*
X143224523Y-61863192D01*
X143218424Y-61859969D01*
X143051373Y-61692918D01*
X143047946Y-61684645D01*
X143048967Y-61679865D01*
X143096538Y-61573582D01*
X143096540Y-61573578D01*
X143147405Y-61436807D01*
X143198270Y-61276907D01*
X143249135Y-61093876D01*
X143297726Y-60896930D01*
X143303034Y-60889720D01*
X143309487Y-60888041D01*
X143993169Y-60911533D01*
G37*
%TD.AperFunction*%
%TD*%
%TA.AperFunction,Conductor*%
%TO.N,16*%
G36*
X143235786Y-61511439D02*
G01*
X143400039Y-61675692D01*
X143403466Y-61683965D01*
X143400127Y-61692150D01*
X143325453Y-61768429D01*
X143268285Y-61829835D01*
X143219596Y-61883587D01*
X143219488Y-61883704D01*
X143162475Y-61944944D01*
X143162273Y-61945157D01*
X143087845Y-62021187D01*
X143079609Y-62024701D01*
X143071299Y-62021363D01*
X143071244Y-62021308D01*
X142900978Y-61852378D01*
X142898392Y-61848510D01*
X142807832Y-61627614D01*
X142807865Y-61618660D01*
X142814220Y-61612351D01*
X142815596Y-61611885D01*
X142908829Y-61586757D01*
X142911633Y-61586357D01*
X142995493Y-61584678D01*
X142995918Y-61584678D01*
X143065881Y-61586236D01*
X143070061Y-61586330D01*
X143070061Y-61586329D01*
X143070063Y-61586330D01*
X143144104Y-61567486D01*
X143220507Y-61510342D01*
X143229183Y-61508132D01*
X143235786Y-61511439D01*
G37*
%TD.AperFunction*%
%TD*%
%TA.AperFunction,Conductor*%
%TO.N,1*%
G36*
X146348125Y-78622293D02*
G01*
X146977778Y-78883506D01*
X146984106Y-78889840D01*
X146984101Y-78898795D01*
X146983394Y-78900218D01*
X146844902Y-79137045D01*
X146843772Y-79138651D01*
X146681465Y-79332466D01*
X146557757Y-79499854D01*
X146557756Y-79499856D01*
X146529660Y-79667598D01*
X146529660Y-79667599D01*
X146594526Y-79769997D01*
X146648563Y-79855300D01*
X146650095Y-79864123D01*
X146646952Y-79869834D01*
X146554434Y-79962352D01*
X146546161Y-79965779D01*
X146537888Y-79962352D01*
X146537553Y-79962003D01*
X146360816Y-79769997D01*
X146360085Y-79769121D01*
X146243128Y-79614150D01*
X146242771Y-79613651D01*
X146148082Y-79473463D01*
X146030594Y-79317786D01*
X146030591Y-79317782D01*
X145865008Y-79137896D01*
X145852801Y-79124635D01*
X145849720Y-79116228D01*
X145853123Y-79108453D01*
X146335363Y-78624838D01*
X146343628Y-78621401D01*
X146348125Y-78622293D01*
G37*
%TD.AperFunction*%
%TD*%
%TA.AperFunction,Conductor*%
%TO.N,1*%
G36*
X182924426Y-73840153D02*
G01*
X182927817Y-73847515D01*
X182935369Y-73944461D01*
X182958492Y-74017854D01*
X182986153Y-74066064D01*
X182993267Y-74078462D01*
X183036289Y-74147319D01*
X183036874Y-74148372D01*
X183079981Y-74236375D01*
X183080543Y-74245312D01*
X183074621Y-74252029D01*
X183073991Y-74252315D01*
X182855294Y-74343835D01*
X182846339Y-74343868D01*
X182846260Y-74343835D01*
X182627562Y-74252315D01*
X182621253Y-74245960D01*
X182621286Y-74237005D01*
X182621559Y-74236402D01*
X182664681Y-74148366D01*
X182665262Y-74147321D01*
X182708286Y-74078460D01*
X182743060Y-74017854D01*
X182766184Y-73944461D01*
X182773736Y-73847516D01*
X182777795Y-73839535D01*
X182785401Y-73836726D01*
X182916153Y-73836726D01*
X182924426Y-73840153D01*
G37*
%TD.AperFunction*%
%TD*%
%TA.AperFunction,Conductor*%
%TO.N,0*%
G36*
X180613361Y-73347971D02*
G01*
X180698096Y-73360473D01*
X180700621Y-73361140D01*
X180776752Y-73390683D01*
X180798260Y-73398688D01*
X180842311Y-73415085D01*
X180842315Y-73415086D01*
X180906334Y-73412907D01*
X180971046Y-73368656D01*
X180979809Y-73366816D01*
X180985923Y-73370042D01*
X181078557Y-73462676D01*
X181081984Y-73470949D01*
X181078565Y-73479214D01*
X181010535Y-73547375D01*
X181010536Y-73547376D01*
X180956513Y-73601756D01*
X180956514Y-73601757D01*
X180909926Y-73648772D01*
X180909916Y-73648783D01*
X180855898Y-73703160D01*
X180855878Y-73703179D01*
X180787845Y-73771347D01*
X180779576Y-73774782D01*
X180771323Y-73771388D01*
X180602765Y-73604152D01*
X180599306Y-73595892D01*
X180599962Y-73359513D01*
X180603412Y-73351251D01*
X180611694Y-73347847D01*
X180613361Y-73347971D01*
G37*
%TD.AperFunction*%
%TD*%
%TA.AperFunction,Conductor*%
%TO.N,0*%
G36*
X188632134Y-73107539D02*
G01*
X188638443Y-73113894D01*
X188638686Y-73114542D01*
X188670432Y-73207248D01*
X188670763Y-73208406D01*
X188689030Y-73287517D01*
X188707298Y-73354965D01*
X188725071Y-73389088D01*
X188742844Y-73423212D01*
X188774796Y-73460563D01*
X188806054Y-73497103D01*
X188808828Y-73505618D01*
X188805436Y-73512982D01*
X188712982Y-73605436D01*
X188704709Y-73608863D01*
X188697103Y-73606054D01*
X188660563Y-73574796D01*
X188623212Y-73542844D01*
X188589088Y-73525071D01*
X188554965Y-73507298D01*
X188487517Y-73489030D01*
X188408406Y-73470763D01*
X188407248Y-73470432D01*
X188314542Y-73438686D01*
X188307825Y-73432764D01*
X188307263Y-73423827D01*
X188307496Y-73423204D01*
X188397436Y-73203821D01*
X188403743Y-73197468D01*
X188623181Y-73107506D01*
X188632134Y-73107539D01*
G37*
%TD.AperFunction*%
%TD*%
%TA.AperFunction,Conductor*%
%TO.N,0*%
G36*
X144438197Y-78883669D02*
G01*
X144444519Y-78890008D01*
X144444507Y-78898963D01*
X144443994Y-78900040D01*
X144297743Y-79170252D01*
X144296507Y-79172093D01*
X144143646Y-79358861D01*
X144143550Y-79358977D01*
X144009206Y-79518868D01*
X143913971Y-79718182D01*
X143913969Y-79718189D01*
X143879021Y-80013674D01*
X143874646Y-80021488D01*
X143867402Y-80024000D01*
X143735798Y-80024000D01*
X143727525Y-80020573D01*
X143724179Y-80013674D01*
X143689229Y-79718189D01*
X143689229Y-79718185D01*
X143593994Y-79518871D01*
X143459607Y-79358929D01*
X143306690Y-79172092D01*
X143305455Y-79170252D01*
X143159205Y-78900040D01*
X143158281Y-78891133D01*
X143163926Y-78884181D01*
X143164985Y-78883676D01*
X143797109Y-78620866D01*
X143806061Y-78620855D01*
X144438197Y-78883669D01*
G37*
%TD.AperFunction*%
%TD*%
%TA.AperFunction,Conductor*%
%TO.N,GND*%
G36*
X158552609Y-56298251D02*
G01*
X158554424Y-56300598D01*
X158611902Y-56398455D01*
X158651907Y-56461184D01*
X158677043Y-56500599D01*
X158704936Y-56540585D01*
X158742184Y-56593982D01*
X158742193Y-56593994D01*
X158742194Y-56593995D01*
X158786990Y-56652189D01*
X158807325Y-56678605D01*
X158868101Y-56749384D01*
X158870890Y-56757893D01*
X158870291Y-56760804D01*
X158653030Y-57393932D01*
X158647103Y-57400645D01*
X158643613Y-57401717D01*
X158262449Y-57456010D01*
X158253775Y-57453784D01*
X158249216Y-57446077D01*
X158249127Y-57445238D01*
X158237509Y-57278059D01*
X158225020Y-57107095D01*
X158223471Y-57086987D01*
X158212533Y-56944916D01*
X158200043Y-56791474D01*
X158200043Y-56791475D01*
X158200041Y-56791447D01*
X158188020Y-56652188D01*
X158190723Y-56643652D01*
X158191392Y-56642922D01*
X158536064Y-56298250D01*
X158544336Y-56294824D01*
X158552609Y-56298251D01*
G37*
%TD.AperFunction*%
%TD*%
%TA.AperFunction,Conductor*%
%TO.N,1*%
G36*
X191632134Y-74308543D02*
G01*
X191638443Y-74314898D01*
X191638686Y-74315546D01*
X191670432Y-74408252D01*
X191670763Y-74409410D01*
X191689030Y-74488521D01*
X191707298Y-74555969D01*
X191725071Y-74590092D01*
X191742844Y-74624216D01*
X191774796Y-74661567D01*
X191806054Y-74698107D01*
X191808828Y-74706622D01*
X191805436Y-74713986D01*
X191712982Y-74806440D01*
X191704709Y-74809867D01*
X191697103Y-74807058D01*
X191660563Y-74775800D01*
X191623212Y-74743848D01*
X191589088Y-74726075D01*
X191554965Y-74708302D01*
X191487517Y-74690034D01*
X191408406Y-74671767D01*
X191407248Y-74671436D01*
X191314542Y-74639690D01*
X191307825Y-74633768D01*
X191307263Y-74624831D01*
X191307496Y-74624208D01*
X191397436Y-74404825D01*
X191403743Y-74398472D01*
X191623181Y-74308510D01*
X191632134Y-74308543D01*
G37*
%TD.AperFunction*%
%TD*%
%TA.AperFunction,Conductor*%
%TO.N,PAD_A1*%
G36*
X171926304Y-58107295D02*
G01*
X172146176Y-58197435D01*
X172152531Y-58203744D01*
X172152564Y-58203823D01*
X172242704Y-58423695D01*
X172242671Y-58432650D01*
X172236316Y-58438959D01*
X172236172Y-58439016D01*
X172148158Y-58473744D01*
X172148158Y-58473745D01*
X172112404Y-58487860D01*
X172076649Y-58501976D01*
X172076638Y-58501981D01*
X172018007Y-58532097D01*
X172018002Y-58532101D01*
X171957549Y-58576858D01*
X171957536Y-58576869D01*
X171888856Y-58641262D01*
X171880477Y-58644421D01*
X171872581Y-58641000D01*
X171708998Y-58477417D01*
X171705571Y-58469144D01*
X171708735Y-58461143D01*
X171773134Y-58392456D01*
X171817898Y-58331995D01*
X171848022Y-58273348D01*
X171876253Y-58201841D01*
X171910983Y-58113827D01*
X171917207Y-58107389D01*
X171926160Y-58107238D01*
X171926304Y-58107295D01*
G37*
%TD.AperFunction*%
%TD*%
%TA.AperFunction,Conductor*%
%TO.N,PAD_A1*%
G36*
X171227417Y-58958998D02*
G01*
X171391000Y-59122581D01*
X171394427Y-59130854D01*
X171391262Y-59138856D01*
X171326869Y-59207536D01*
X171326858Y-59207549D01*
X171282101Y-59268002D01*
X171282097Y-59268007D01*
X171251981Y-59326638D01*
X171251976Y-59326649D01*
X171251976Y-59326650D01*
X171223745Y-59398158D01*
X171223745Y-59398159D01*
X171223744Y-59398158D01*
X171189016Y-59486172D01*
X171182792Y-59492610D01*
X171173839Y-59492761D01*
X171173695Y-59492704D01*
X170953823Y-59402564D01*
X170947468Y-59396255D01*
X170947435Y-59396176D01*
X170918931Y-59326649D01*
X170857295Y-59176304D01*
X170857328Y-59167349D01*
X170863683Y-59161040D01*
X170863827Y-59160983D01*
X170864368Y-59160769D01*
X170951841Y-59126253D01*
X171023348Y-59098022D01*
X171081995Y-59067898D01*
X171142456Y-59023134D01*
X171211143Y-58958735D01*
X171219521Y-58955577D01*
X171227417Y-58958998D01*
G37*
%TD.AperFunction*%
%TD*%
%TA.AperFunction,Conductor*%
%TO.N,PAD_A1*%
G36*
X172523322Y-66050041D02*
G01*
X172526749Y-66058314D01*
X172526746Y-66058563D01*
X172524614Y-66158840D01*
X172524587Y-66159426D01*
X172518915Y-66238732D01*
X172518888Y-66239049D01*
X172512095Y-66307722D01*
X172506394Y-66387439D01*
X172506391Y-66387502D01*
X172504242Y-66488593D01*
X172500640Y-66496791D01*
X172492591Y-66500044D01*
X172254891Y-66500980D01*
X172246605Y-66497586D01*
X172079228Y-66329277D01*
X172075824Y-66320995D01*
X172079274Y-66312731D01*
X172079832Y-66312211D01*
X172137353Y-66262334D01*
X172138099Y-66261741D01*
X172193732Y-66221048D01*
X172236363Y-66181872D01*
X172263489Y-66128921D01*
X172271803Y-66056970D01*
X172276157Y-66049146D01*
X172283426Y-66046614D01*
X172515049Y-66046614D01*
X172523322Y-66050041D01*
G37*
%TD.AperFunction*%
%TD*%
%TA.AperFunction,Conductor*%
%TO.N,PAD_A1*%
G36*
X172314418Y-60946924D02*
G01*
X172320727Y-60953279D01*
X172320964Y-60953910D01*
X172352009Y-61044131D01*
X172352333Y-61045251D01*
X172370524Y-61122358D01*
X172382724Y-61166242D01*
X172388782Y-61188034D01*
X172409436Y-61227198D01*
X172423847Y-61254524D01*
X172473610Y-61312522D01*
X172485535Y-61326421D01*
X172488321Y-61334932D01*
X172484928Y-61342313D01*
X172320719Y-61506522D01*
X172312446Y-61509949D01*
X172304752Y-61507063D01*
X172218850Y-61432080D01*
X172218844Y-61432075D01*
X172218841Y-61432073D01*
X172218835Y-61432069D01*
X172218832Y-61432067D01*
X172142841Y-61384600D01*
X172142820Y-61384588D01*
X172142821Y-61384588D01*
X172142817Y-61384586D01*
X172073264Y-61348884D01*
X172072409Y-61348398D01*
X171997600Y-61301671D01*
X171996107Y-61300564D01*
X171912056Y-61227197D01*
X171908078Y-61219176D01*
X171910937Y-61210690D01*
X171911422Y-61210167D01*
X172079891Y-61040366D01*
X172083753Y-61037785D01*
X172305465Y-60946891D01*
X172314418Y-60946924D01*
G37*
%TD.AperFunction*%
%TD*%
%TA.AperFunction,Conductor*%
%TO.N,PAD_TXE*%
G36*
X186519908Y-55410114D02*
G01*
X186522781Y-55412991D01*
X186944469Y-56016321D01*
X186946400Y-56025066D01*
X186941582Y-56032614D01*
X186940730Y-56033156D01*
X186859381Y-56080137D01*
X186859375Y-56080141D01*
X186766989Y-56153117D01*
X186674596Y-56245721D01*
X186674585Y-56245733D01*
X186582209Y-56357936D01*
X186582192Y-56357958D01*
X186497802Y-56478387D01*
X186490247Y-56483196D01*
X186481506Y-56481255D01*
X186479947Y-56479946D01*
X186311214Y-56311213D01*
X186309459Y-56308968D01*
X186262802Y-56231347D01*
X186215409Y-56163583D01*
X186215407Y-56163580D01*
X186168013Y-56106896D01*
X186120618Y-56061294D01*
X186082512Y-56033542D01*
X186077842Y-56025901D01*
X186079819Y-56017369D01*
X186503612Y-55412975D01*
X186511167Y-55408170D01*
X186519908Y-55410114D01*
G37*
%TD.AperFunction*%
%TD*%
%TA.AperFunction,Conductor*%
%TO.N,PAD_TXE*%
G36*
X186636221Y-55924984D02*
G01*
X186639647Y-55933108D01*
X186641007Y-56040252D01*
X186644602Y-56124391D01*
X186648892Y-56197073D01*
X186648901Y-56197263D01*
X186652484Y-56281128D01*
X186652494Y-56281478D01*
X186653850Y-56388197D01*
X186650529Y-56396513D01*
X186642300Y-56400045D01*
X186642197Y-56400046D01*
X186402373Y-56400990D01*
X186397810Y-56400083D01*
X186177545Y-56307907D01*
X186171236Y-56301552D01*
X186171269Y-56292597D01*
X186171896Y-56291322D01*
X186219889Y-56207393D01*
X186221534Y-56205176D01*
X186279090Y-56144282D01*
X186279373Y-56143995D01*
X186332262Y-56092277D01*
X186370689Y-56026210D01*
X186384076Y-55931617D01*
X186388629Y-55923906D01*
X186395661Y-55921557D01*
X186627948Y-55921557D01*
X186636221Y-55924984D01*
G37*
%TD.AperFunction*%
%TD*%
%TA.AperFunction,Conductor*%
%TO.N,PAD_TX*%
G36*
X187509919Y-62244903D02*
G01*
X187511401Y-62248480D01*
X187649555Y-62848072D01*
X187649785Y-62851966D01*
X187645397Y-62892260D01*
X187640800Y-62935841D01*
X187640801Y-62935842D01*
X187636201Y-62980842D01*
X187636202Y-62980843D01*
X187631598Y-63027257D01*
X187628019Y-63064421D01*
X187623815Y-63072328D01*
X187616373Y-63075000D01*
X187383627Y-63075000D01*
X187375354Y-63071573D01*
X187371981Y-63064422D01*
X187368401Y-63027257D01*
X187363797Y-62980843D01*
X187363797Y-62980842D01*
X187359198Y-62935842D01*
X187359198Y-62935841D01*
X187354602Y-62892260D01*
X187350214Y-62851966D01*
X187350444Y-62848072D01*
X187488599Y-62248480D01*
X187493796Y-62241188D01*
X187502627Y-62239706D01*
X187509919Y-62244903D01*
G37*
%TD.AperFunction*%
%TD*%
M02*
